%FSTAX23Y23*%
%MOIN*%
%SFA1B1*%

%IPPOS*%
%ADD11C,0.039370*%
%ADD12O,0.066929X0.066929*%
%ADD13R,0.066929X0.066929*%
%ADD14R,0.035433X0.019685*%
%ADD15C,0.017716*%
%ADD16C,0.019685*%
%ADD17C,0.010000*%
%ADD44C,0.005000*%
G36*
X01168Y00189D02*
X00218D01*
Y00464*
X00233*
X00238Y00441*
X00251Y00421*
X00263Y00414*
X00251Y00406*
X00238Y00386*
X00233Y00364*
X00238Y00341*
X00251Y00321*
X00263Y00314*
X00251Y00306*
X00238Y00286*
X00233Y00264*
X00238Y00241*
X00251Y00221*
X0027Y00209*
X00287Y00205*
X00299*
X00316Y00209*
X00335Y00221*
X00348Y00241*
X00353Y00264*
X00348Y00286*
X00335Y00306*
X00324Y00314*
X00335Y00321*
X00348Y00341*
X00353Y00364*
X00348Y00386*
X00335Y00406*
X00324Y00414*
X00335Y00421*
X00348Y00441*
X00353Y00464*
X00348Y00486*
X00335Y00506*
X00323Y00514*
X00328Y00517*
X00343Y00533*
X0035Y0055*
X00345Y00559*
X00298*
Y00558*
X00288*
Y00559*
X00241*
X00236Y0055*
X00243Y00533*
X00258Y00517*
X00264Y00514*
X00251Y00506*
X00238Y00486*
X00233Y00464*
X00218*
Y00664*
X00233*
X00238Y00641*
X00251Y00621*
X00264Y00613*
X00258Y00611*
X00243Y00594*
X00236Y00578*
X00241Y00569*
X00288*
Y00569*
X00298*
Y00569*
X00345*
X0035Y00578*
X00343Y00594*
X00328Y00611*
X00323Y00613*
X00335Y00621*
X00348Y00641*
X00353Y00664*
X01033*
X01038Y00641*
X01051Y00621*
X01063Y00614*
X01051Y00606*
X01038Y00586*
X01033Y00564*
X01038Y00541*
X01051Y00521*
X01063Y00514*
X01051Y00506*
X01038Y00486*
X01033Y00464*
X01038Y00441*
X01051Y00421*
X01063Y00414*
X01051Y00406*
X01038Y00386*
X01033Y00364*
X01038Y00341*
X01051Y00321*
X01063Y00314*
X01051Y00306*
X01038Y00286*
X01033Y00264*
X01038Y00241*
X01051Y00221*
X0107Y00209*
X01087Y00205*
X01099*
X01116Y00209*
X01135Y00221*
X01148Y00241*
X01153Y00264*
X01148Y00286*
X01135Y00306*
X01124Y00314*
X01135Y00321*
X01148Y00341*
X01153Y00364*
X01148Y00386*
X01135Y00406*
X01124Y00414*
X01135Y00421*
X01148Y00441*
X01153Y00464*
X01148Y00486*
X01135Y00506*
X01124Y00514*
X01135Y00521*
X01148Y00541*
X01153Y00564*
X01148Y00586*
X01135Y00606*
X01124Y00614*
X01135Y00621*
X01148Y00641*
X01153Y00664*
X01148Y00686*
X01135Y00706*
X01135Y00706*
X01136Y00707*
X01145Y00712*
X0115Y0072*
X01152Y0073*
Y00797*
X0115Y00807*
X01145Y00815*
X01136Y00821*
X01127Y00823*
X0106*
X0105Y00821*
X01042Y00815*
X01036Y00807*
X01034Y00797*
Y0073*
X01036Y0072*
X01042Y00712*
X0105Y00707*
X01052Y00706*
X01051Y00706*
X01038Y00686*
X01033Y00664*
X00353*
X00348Y00686*
X00335Y00706*
X00334Y00706*
X00341Y00709*
X00348Y00716*
X00352Y00725*
Y00752*
X00345Y00759*
X00298*
Y00758*
X00288*
Y00759*
X00241*
X00235Y00752*
Y00725*
X00238Y00716*
X00245Y00709*
X00252Y00706*
X00251Y00706*
X00238Y00686*
X00233Y00664*
X00218*
Y00802*
X00235*
Y00775*
X00241Y00769*
X00288*
Y00816*
X00298*
Y00769*
X00345*
X00352Y00775*
Y00802*
X00348Y00811*
X00341Y00818*
X00332Y00822*
X00304*
X00298Y00816*
X00288*
X00282Y00822*
X00255*
X00245Y00818*
X00238Y00811*
X00235Y00802*
X00218*
Y00849*
X00793*
X00794Y00832*
X00799Y00821*
X00807Y0082*
X0081Y00822*
X00817Y00815*
X00814Y00812*
X00816Y00804*
X00832Y00798*
X0085Y008*
X00861Y00804*
X00862Y00812*
X00859Y00815*
X00866Y00822*
X00869Y0082*
X00878Y00821*
X00883Y00838*
X00882Y00856*
X00878Y00866*
X00869Y00868*
X00866Y00865*
X00859Y00872*
X00862Y00875*
X00861Y00883*
X00844Y00889*
X00826Y00888*
X00816Y00883*
X00814Y00875*
X00817Y00872*
X0081Y00865*
X00807Y00868*
X00799Y00866*
X00793Y00849*
X00218*
Y00954*
X01168*
Y00189*
G37*
G54D44*
X0Y0D02*
X03936D01*
Y03936*
X0*
Y0*
G54D17*
X01168Y00189D02*
X00218D01*
Y00464*
X00233*
X00238Y00441*
X00251Y00421*
X00263Y00414*
X00251Y00406*
X00238Y00386*
X00233Y00364*
X00238Y00341*
X00251Y00321*
X00263Y00314*
X00251Y00306*
X00238Y00286*
X00233Y00264*
X00238Y00241*
X00251Y00221*
X0027Y00209*
X00287Y00205*
X00299*
X00316Y00209*
X00335Y00221*
X00348Y00241*
X00353Y00264*
X00348Y00286*
X00335Y00306*
X00324Y00314*
X00335Y00321*
X00348Y00341*
X00353Y00364*
X00348Y00386*
X00335Y00406*
X00324Y00414*
X00335Y00421*
X00348Y00441*
X00353Y00464*
X00348Y00486*
X00335Y00506*
X00323Y00514*
X00328Y00517*
X00343Y00533*
X0035Y0055*
X00345Y00559*
X00298*
Y00558*
X00288*
Y00559*
X00241*
X00236Y0055*
X00243Y00533*
X00258Y00517*
X00264Y00514*
X00251Y00506*
X00238Y00486*
X00233Y00464*
X00218*
Y00664*
X00233*
X00238Y00641*
X00251Y00621*
X00264Y00613*
X00258Y00611*
X00243Y00594*
X00236Y00578*
X00241Y00569*
X00288*
Y00569*
X00298*
Y00569*
X00345*
X0035Y00578*
X00343Y00594*
X00328Y00611*
X00323Y00613*
X00335Y00621*
X00348Y00641*
X00353Y00664*
X01033*
X01038Y00641*
X01051Y00621*
X01063Y00614*
X01051Y00606*
X01038Y00586*
X01033Y00564*
X01038Y00541*
X01051Y00521*
X01063Y00514*
X01051Y00506*
X01038Y00486*
X01033Y00464*
X01038Y00441*
X01051Y00421*
X01063Y00414*
X01051Y00406*
X01038Y00386*
X01033Y00364*
X01038Y00341*
X01051Y00321*
X01063Y00314*
X01051Y00306*
X01038Y00286*
X01033Y00264*
X01038Y00241*
X01051Y00221*
X0107Y00209*
X01087Y00205*
X01099*
X01116Y00209*
X01135Y00221*
X01148Y00241*
X01153Y00264*
X01148Y00286*
X01135Y00306*
X01124Y00314*
X01135Y00321*
X01148Y00341*
X01153Y00364*
X01148Y00386*
X01135Y00406*
X01124Y00414*
X01135Y00421*
X01148Y00441*
X01153Y00464*
X01148Y00486*
X01135Y00506*
X01124Y00514*
X01135Y00521*
X01148Y00541*
X01153Y00564*
X01148Y00586*
X01135Y00606*
X01124Y00614*
X01135Y00621*
X01148Y00641*
X01153Y00664*
X01148Y00686*
X01135Y00706*
X01135Y00706*
X01136Y00707*
X01145Y00712*
X0115Y0072*
X01152Y0073*
Y00797*
X0115Y00807*
X01145Y00815*
X01136Y00821*
X01127Y00823*
X0106*
X0105Y00821*
X01042Y00815*
X01036Y00807*
X01034Y00797*
Y0073*
X01036Y0072*
X01042Y00712*
X0105Y00707*
X01052Y00706*
X01051Y00706*
X01038Y00686*
X01033Y00664*
X00353*
X00348Y00686*
X00335Y00706*
X00334Y00706*
X00341Y00709*
X00348Y00716*
X00352Y00725*
Y00752*
X00345Y00759*
X00298*
Y00758*
X00288*
Y00759*
X00241*
X00235Y00752*
Y00725*
X00238Y00716*
X00245Y00709*
X00252Y00706*
X00251Y00706*
X00238Y00686*
X00233Y00664*
X00218*
Y00802*
X00235*
Y00775*
X00241Y00769*
X00288*
Y00816*
X00298*
Y00769*
X00345*
X00352Y00775*
Y00802*
X00348Y00811*
X00341Y00818*
X00332Y00822*
X00304*
X00298Y00816*
X00288*
X00282Y00822*
X00255*
X00245Y00818*
X00238Y00811*
X00235Y00802*
X00218*
Y00849*
X00793*
X00794Y00832*
X00799Y00821*
X00807Y0082*
X0081Y00822*
X00817Y00815*
X00814Y00812*
X00816Y00804*
X00832Y00798*
X0085Y008*
X00861Y00804*
X00862Y00812*
X00859Y00815*
X00866Y00822*
X00869Y0082*
X00878Y00821*
X00883Y00838*
X00882Y00856*
X00878Y00866*
X00869Y00868*
X00866Y00865*
X00859Y00872*
X00862Y00875*
X00861Y00883*
X00844Y00889*
X00826Y00888*
X00816Y00883*
X00814Y00875*
X00817Y00872*
X0081Y00865*
X00807Y00868*
X00799Y00866*
X00793Y00849*
X00218*
Y00954*
X01168*
Y00189*
G54D11*
X00838Y00844D03*
G54D12*
X00293Y00264D03*
Y00364D03*
Y00464D03*
Y00564D03*
Y00664D03*
G54D13*
X00293Y00764D03*
X01093D03*
G54D12*
X01093Y00664D03*
Y00564D03*
Y00464D03*
Y00364D03*
Y00264D03*
G54D14*
X00921Y00956D03*
G54D15*
X00228Y00919D03*
X00392D03*
X00536D03*
X0068D03*
X01158D03*
X00228Y00777D03*
X01158D03*
X0068Y00635D03*
X00824D03*
X01158D03*
X00228Y00493D03*
X00392D03*
X00536D03*
X0068D03*
X00824D03*
X01158D03*
X00228Y00352D03*
X0068D03*
X00824D03*
X01158D03*
X00228Y0021D03*
X00392D03*
X00536D03*
X0068D03*
X00824D03*
X00969D03*
X01158D03*
Y00422D03*
Y0028D03*
Y00563D03*
Y00705D03*
Y00847D03*
X00328Y00209D03*
X0075Y0021D03*
X01058D03*
X00894D03*
X00462D03*
X00606D03*
X00228Y0028D03*
Y00563D03*
Y00422D03*
Y00847D03*
X00466Y00919D03*
X0061D03*
X00322D03*
X01016D03*
X0109D03*
X00323Y00849D03*
X00453Y00704D03*
X00758Y00564D03*
Y00424D03*
X00583Y00429D03*
Y00289D03*
X00758D03*
Y00684D03*
X01053Y00849D03*
G54D16*
X00643Y00864D03*
X00683D03*
X00723D03*
X00768D03*
X00788Y00899D03*
Y00939D03*
X00888D03*
Y00904D03*
X00928D03*
X00963Y00874D03*
X00933Y00834D03*
X00898D03*
Y00794D03*
X00933D03*
X00853Y00764D03*
X00813D03*
X00763D03*
X00728D03*
X00693D03*
G54D15*
X00518Y00534D03*
X00473D03*
X00428D03*
X00388Y00554D03*
X00363Y00579D03*
X00263Y00604D03*
X00238Y00634D03*
X00228Y00674D03*
X00248Y00709D03*
X00268Y00729D03*
X00323D03*
G54D16*
X00603Y00864D03*
X00563D03*
X00523D03*
X00483D03*
G54D15*
X00553Y00549D03*
X00563Y00584D03*
X00553Y00614D03*
X00518Y00634D03*
X00483D03*
X00453D03*
Y00669D03*
X00583Y00684D03*
X00628Y00564D03*
X00453Y00739D03*
X00473Y00764D03*
X00513D03*
X00553D03*
X00598D03*
X00638D03*
G54D16*
X00413Y00844D03*
X00388Y00819D03*
X00363Y00794D03*
X00353Y00754D03*
Y00714D03*
Y00614D03*
X00448Y00864D03*
G54D15*
X00318Y00604D03*
G36*
X02443Y00189D02*
X01494D01*
Y00464*
X01509*
X01514Y00441*
X01527Y00421*
X01539Y00414*
X01527Y00406*
X01514Y00386*
X01509Y00364*
X01514Y00341*
X01527Y00321*
X01539Y00314*
X01527Y00306*
X01514Y00286*
X01509Y00264*
X01514Y00241*
X01527Y00221*
X01546Y00209*
X01563Y00205*
X01575*
X01592Y00209*
X01611Y00221*
X01624Y00241*
X01629Y00264*
X01624Y00286*
X01611Y00306*
X01599Y00314*
X01611Y00321*
X01624Y00341*
X01629Y00364*
X01624Y00386*
X01611Y00406*
X01599Y00414*
X01611Y00421*
X01624Y00441*
X01629Y00464*
X01624Y00486*
X01611Y00506*
X01599Y00514*
X01604Y00517*
X01619Y00533*
X01626Y0055*
X01621Y00559*
X01574*
Y00558*
X01564*
Y00559*
X01517*
X01512Y0055*
X01519Y00533*
X01534Y00517*
X01539Y00514*
X01527Y00506*
X01514Y00486*
X01509Y00464*
X01494*
Y00664*
X01509*
X01514Y00641*
X01527Y00621*
X01539Y00613*
X01534Y00611*
X01519Y00594*
X01512Y00578*
X01517Y00569*
X01564*
Y00569*
X01574*
Y00569*
X01621*
X01626Y00578*
X01619Y00594*
X01604Y00611*
X01599Y00613*
X01611Y00621*
X01624Y00641*
X01629Y00664*
X02308*
X02313Y00641*
X02326Y00621*
X02338Y00614*
X02326Y00606*
X02313Y00586*
X02308Y00564*
X02313Y00541*
X02326Y00521*
X02338Y00514*
X02326Y00506*
X02313Y00486*
X02308Y00464*
X02313Y00441*
X02326Y00421*
X02338Y00414*
X02326Y00406*
X02313Y00386*
X02308Y00364*
X02313Y00341*
X02326Y00321*
X02338Y00314*
X02326Y00306*
X02313Y00286*
X02308Y00264*
X02313Y00241*
X02326Y00221*
X02345Y00209*
X02362Y00205*
X02374*
X02391Y00209*
X0241Y00221*
X02423Y00241*
X02428Y00264*
X02423Y00286*
X0241Y00306*
X02398Y00314*
X0241Y00321*
X02423Y00341*
X02428Y00364*
X02423Y00386*
X0241Y00406*
X02398Y00414*
X0241Y00421*
X02423Y00441*
X02428Y00464*
X02423Y00486*
X0241Y00506*
X02398Y00514*
X0241Y00521*
X02423Y00541*
X02428Y00564*
X02423Y00586*
X0241Y00606*
X02398Y00614*
X0241Y00621*
X02423Y00641*
X02428Y00664*
X02423Y00686*
X0241Y00706*
X02409Y00706*
X02411Y00707*
X02419Y00712*
X02425Y0072*
X02427Y0073*
Y00797*
X02425Y00807*
X02419Y00815*
X02411Y00821*
X02401Y00823*
X02334*
X02325Y00821*
X02316Y00815*
X02311Y00807*
X02309Y00797*
Y0073*
X02311Y0072*
X02316Y00712*
X02325Y00707*
X02327Y00706*
X02326Y00706*
X02313Y00686*
X02308Y00664*
X01629*
X01624Y00686*
X01611Y00706*
X0161Y00706*
X01617Y00709*
X01624Y00716*
X01627Y00725*
Y00752*
X01621Y00759*
X01574*
Y00758*
X01564*
Y00759*
X01517*
X0151Y00752*
Y00725*
X01514Y00716*
X01521Y00709*
X01528Y00706*
X01527Y00706*
X01514Y00686*
X01509Y00664*
X01494*
Y00802*
X0151*
Y00775*
X01517Y00769*
X01564*
Y00816*
X01574*
Y00769*
X01621*
X01627Y00775*
Y00802*
X01624Y00811*
X01617Y00818*
X01607Y00822*
X0158*
X01574Y00816*
X01564*
X01558Y00822*
X01531*
X01521Y00818*
X01514Y00811*
X0151Y00802*
X01494*
Y00849*
X02068*
X02069Y00832*
X02073Y00821*
X02082Y0082*
X02085Y00822*
X02092Y00815*
X02089Y00812*
X0209Y00804*
X02107Y00798*
X02125Y008*
X02136Y00804*
X02137Y00812*
X02134Y00815*
X02141Y00822*
X02144Y0082*
X02153Y00821*
X02158Y00838*
X02157Y00856*
X02153Y00866*
X02144Y00868*
X02141Y00865*
X02134Y00872*
X02137Y00875*
X02136Y00883*
X02119Y00889*
X02101Y00888*
X0209Y00883*
X02089Y00875*
X02092Y00872*
X02085Y00865*
X02082Y00868*
X02073Y00866*
X02068Y00849*
X01494*
Y00954*
X02443*
Y00189*
G37*
G54D17*
X02443Y00189D02*
X01494D01*
Y00464*
X01509*
X01514Y00441*
X01527Y00421*
X01539Y00414*
X01527Y00406*
X01514Y00386*
X01509Y00364*
X01514Y00341*
X01527Y00321*
X01539Y00314*
X01527Y00306*
X01514Y00286*
X01509Y00264*
X01514Y00241*
X01527Y00221*
X01546Y00209*
X01563Y00205*
X01575*
X01592Y00209*
X01611Y00221*
X01624Y00241*
X01629Y00264*
X01624Y00286*
X01611Y00306*
X01599Y00314*
X01611Y00321*
X01624Y00341*
X01629Y00364*
X01624Y00386*
X01611Y00406*
X01599Y00414*
X01611Y00421*
X01624Y00441*
X01629Y00464*
X01624Y00486*
X01611Y00506*
X01599Y00514*
X01604Y00517*
X01619Y00533*
X01626Y0055*
X01621Y00559*
X01574*
Y00558*
X01564*
Y00559*
X01517*
X01512Y0055*
X01519Y00533*
X01534Y00517*
X01539Y00514*
X01527Y00506*
X01514Y00486*
X01509Y00464*
X01494*
Y00664*
X01509*
X01514Y00641*
X01527Y00621*
X01539Y00613*
X01534Y00611*
X01519Y00594*
X01512Y00578*
X01517Y00569*
X01564*
Y00569*
X01574*
Y00569*
X01621*
X01626Y00578*
X01619Y00594*
X01604Y00611*
X01599Y00613*
X01611Y00621*
X01624Y00641*
X01629Y00664*
X02308*
X02313Y00641*
X02326Y00621*
X02338Y00614*
X02326Y00606*
X02313Y00586*
X02308Y00564*
X02313Y00541*
X02326Y00521*
X02338Y00514*
X02326Y00506*
X02313Y00486*
X02308Y00464*
X02313Y00441*
X02326Y00421*
X02338Y00414*
X02326Y00406*
X02313Y00386*
X02308Y00364*
X02313Y00341*
X02326Y00321*
X02338Y00314*
X02326Y00306*
X02313Y00286*
X02308Y00264*
X02313Y00241*
X02326Y00221*
X02345Y00209*
X02362Y00205*
X02374*
X02391Y00209*
X0241Y00221*
X02423Y00241*
X02428Y00264*
X02423Y00286*
X0241Y00306*
X02398Y00314*
X0241Y00321*
X02423Y00341*
X02428Y00364*
X02423Y00386*
X0241Y00406*
X02398Y00414*
X0241Y00421*
X02423Y00441*
X02428Y00464*
X02423Y00486*
X0241Y00506*
X02398Y00514*
X0241Y00521*
X02423Y00541*
X02428Y00564*
X02423Y00586*
X0241Y00606*
X02398Y00614*
X0241Y00621*
X02423Y00641*
X02428Y00664*
X02423Y00686*
X0241Y00706*
X02409Y00706*
X02411Y00707*
X02419Y00712*
X02425Y0072*
X02427Y0073*
Y00797*
X02425Y00807*
X02419Y00815*
X02411Y00821*
X02401Y00823*
X02334*
X02325Y00821*
X02316Y00815*
X02311Y00807*
X02309Y00797*
Y0073*
X02311Y0072*
X02316Y00712*
X02325Y00707*
X02327Y00706*
X02326Y00706*
X02313Y00686*
X02308Y00664*
X01629*
X01624Y00686*
X01611Y00706*
X0161Y00706*
X01617Y00709*
X01624Y00716*
X01627Y00725*
Y00752*
X01621Y00759*
X01574*
Y00758*
X01564*
Y00759*
X01517*
X0151Y00752*
Y00725*
X01514Y00716*
X01521Y00709*
X01528Y00706*
X01527Y00706*
X01514Y00686*
X01509Y00664*
X01494*
Y00802*
X0151*
Y00775*
X01517Y00769*
X01564*
Y00816*
X01574*
Y00769*
X01621*
X01627Y00775*
Y00802*
X01624Y00811*
X01617Y00818*
X01607Y00822*
X0158*
X01574Y00816*
X01564*
X01558Y00822*
X01531*
X01521Y00818*
X01514Y00811*
X0151Y00802*
X01494*
Y00849*
X02068*
X02069Y00832*
X02073Y00821*
X02082Y0082*
X02085Y00822*
X02092Y00815*
X02089Y00812*
X0209Y00804*
X02107Y00798*
X02125Y008*
X02136Y00804*
X02137Y00812*
X02134Y00815*
X02141Y00822*
X02144Y0082*
X02153Y00821*
X02158Y00838*
X02157Y00856*
X02153Y00866*
X02144Y00868*
X02141Y00865*
X02134Y00872*
X02137Y00875*
X02136Y00883*
X02119Y00889*
X02101Y00888*
X0209Y00883*
X02089Y00875*
X02092Y00872*
X02085Y00865*
X02082Y00868*
X02073Y00866*
X02068Y00849*
X01494*
Y00954*
X02443*
Y00189*
G54D11*
X02113Y00844D03*
G54D12*
X01569Y00264D03*
Y00364D03*
Y00464D03*
Y00564D03*
Y00664D03*
G54D13*
X01569Y00764D03*
X02368D03*
G54D12*
X02368Y00664D03*
Y00564D03*
Y00464D03*
Y00364D03*
Y00264D03*
G54D14*
X02196Y00956D03*
G54D15*
X01504Y00919D03*
X01668D03*
X01812D03*
X01956D03*
X02433D03*
X01504Y00777D03*
X02433D03*
X01956Y00635D03*
X02099D03*
X02433D03*
X01504Y00493D03*
X01668D03*
X01812D03*
X01956D03*
X02099D03*
X02433D03*
X01504Y00352D03*
X01956D03*
X02099D03*
X02433D03*
X01504Y0021D03*
X01668D03*
X01812D03*
X01956D03*
X02099D03*
X02243D03*
X02433D03*
Y00422D03*
Y0028D03*
Y00563D03*
Y00705D03*
Y00847D03*
X01604Y00209D03*
X02025Y0021D03*
X02333D03*
X02169D03*
X01738D03*
X01882D03*
X01504Y0028D03*
Y00563D03*
Y00422D03*
Y00847D03*
X01742Y00919D03*
X01886D03*
X01598D03*
X02291D03*
X02365D03*
X01599Y00849D03*
X01729Y00704D03*
X02033Y00564D03*
Y00424D03*
X01859Y00429D03*
Y00289D03*
X02033D03*
Y00684D03*
X02328Y00849D03*
G54D16*
X01919Y00864D03*
X01959D03*
X01998D03*
X02043D03*
X02063Y00899D03*
Y00939D03*
X02163D03*
Y00904D03*
X02203D03*
X02238Y00874D03*
X02208Y00834D03*
X02173D03*
Y00794D03*
X02208D03*
X02128Y00764D03*
X02088D03*
X02038D03*
X02003D03*
X01968D03*
G54D15*
X01794Y00534D03*
X01749D03*
X01704D03*
X01664Y00554D03*
X01639Y00579D03*
X01539Y00604D03*
X01514Y00634D03*
X01504Y00674D03*
X01524Y00709D03*
X01544Y00729D03*
X01599D03*
G54D16*
X01879Y00864D03*
X01839D03*
X01799D03*
X01759D03*
G54D15*
X01829Y00549D03*
X01839Y00584D03*
X01829Y00614D03*
X01794Y00634D03*
X01759D03*
X01729D03*
Y00669D03*
X01859Y00684D03*
X01904Y00564D03*
X01729Y00739D03*
X01749Y00764D03*
X01789D03*
X01829D03*
X01874D03*
X01914D03*
G54D16*
X01689Y00844D03*
X01664Y00819D03*
X01639Y00794D03*
X01629Y00754D03*
Y00714D03*
Y00614D03*
X01724Y00864D03*
G54D15*
X01594Y00604D03*
G36*
X03719Y00189D02*
X02769D01*
Y00464*
X02784*
X02789Y00441*
X02802Y00421*
X02813Y00414*
X02802Y00406*
X02789Y00386*
X02784Y00364*
X02789Y00341*
X02802Y00321*
X02813Y00314*
X02802Y00306*
X02789Y00286*
X02784Y00264*
X02789Y00241*
X02802Y00221*
X02821Y00209*
X02838Y00205*
X0285*
X02867Y00209*
X02886Y00221*
X02899Y00241*
X02903Y00264*
X02899Y00286*
X02886Y00306*
X02874Y00314*
X02886Y00321*
X02899Y00341*
X02903Y00364*
X02899Y00386*
X02886Y00406*
X02874Y00414*
X02886Y00421*
X02899Y00441*
X02903Y00464*
X02899Y00486*
X02886Y00506*
X02873Y00514*
X02879Y00517*
X02894Y00533*
X02901Y0055*
X02896Y00559*
X02849*
Y00558*
X02839*
Y00559*
X02792*
X02787Y0055*
X02794Y00533*
X02809Y00517*
X02814Y00514*
X02802Y00506*
X02789Y00486*
X02784Y00464*
X02769*
Y00664*
X02784*
X02789Y00641*
X02802Y00621*
X02814Y00613*
X02809Y00611*
X02794Y00594*
X02787Y00578*
X02792Y00569*
X02839*
Y00569*
X02849*
Y00569*
X02896*
X02901Y00578*
X02894Y00594*
X02879Y00611*
X02873Y00613*
X02886Y00621*
X02899Y00641*
X02903Y00664*
X03584*
X03589Y00641*
X03602Y00621*
X03613Y00614*
X03602Y00606*
X03589Y00586*
X03584Y00564*
X03589Y00541*
X03602Y00521*
X03613Y00514*
X03602Y00506*
X03589Y00486*
X03584Y00464*
X03589Y00441*
X03602Y00421*
X03613Y00414*
X03602Y00406*
X03589Y00386*
X03584Y00364*
X03589Y00341*
X03602Y00321*
X03613Y00314*
X03602Y00306*
X03589Y00286*
X03584Y00264*
X03589Y00241*
X03602Y00221*
X03621Y00209*
X03638Y00205*
X0365*
X03667Y00209*
X03686Y00221*
X03699Y00241*
X03703Y00264*
X03699Y00286*
X03686Y00306*
X03674Y00314*
X03686Y00321*
X03699Y00341*
X03703Y00364*
X03699Y00386*
X03686Y00406*
X03674Y00414*
X03686Y00421*
X03699Y00441*
X03703Y00464*
X03699Y00486*
X03686Y00506*
X03674Y00514*
X03686Y00521*
X03699Y00541*
X03703Y00564*
X03699Y00586*
X03686Y00606*
X03674Y00614*
X03686Y00621*
X03699Y00641*
X03703Y00664*
X03699Y00686*
X03686Y00706*
X03685Y00706*
X03687Y00707*
X03695Y00712*
X03701Y0072*
X03703Y0073*
Y00797*
X03701Y00807*
X03695Y00815*
X03687Y00821*
X03677Y00823*
X0361*
X03601Y00821*
X03592Y00815*
X03587Y00807*
X03585Y00797*
Y0073*
X03587Y0072*
X03592Y00712*
X03601Y00707*
X03602Y00706*
X03602Y00706*
X03589Y00686*
X03584Y00664*
X02903*
X02899Y00686*
X02886Y00706*
X02885Y00706*
X02891Y00709*
X02898Y00716*
X02902Y00725*
Y00752*
X02896Y00759*
X02849*
Y00758*
X02839*
Y00759*
X02792*
X02785Y00752*
Y00725*
X02789Y00716*
X02796Y00709*
X02803Y00706*
X02802Y00706*
X02789Y00686*
X02784Y00664*
X02769*
Y00802*
X02785*
Y00775*
X02792Y00769*
X02839*
Y00816*
X02849*
Y00769*
X02896*
X02902Y00775*
Y00802*
X02898Y00811*
X02891Y00818*
X02882Y00822*
X02855*
X02849Y00816*
X02839*
X02833Y00822*
X02805*
X02796Y00818*
X02789Y00811*
X02785Y00802*
X02769*
Y00849*
X03344*
X03345Y00832*
X03349Y00821*
X03358Y0082*
X03361Y00822*
X03368Y00815*
X03365Y00812*
X03366Y00804*
X03383Y00798*
X03401Y008*
X03411Y00804*
X03413Y00812*
X0341Y00815*
X03417Y00822*
X0342Y0082*
X03428Y00821*
X03434Y00838*
X03433Y00856*
X03428Y00866*
X0342Y00868*
X03417Y00865*
X0341Y00872*
X03413Y00875*
X03411Y00883*
X03395Y00889*
X03377Y00888*
X03366Y00883*
X03365Y00875*
X03368Y00872*
X03361Y00865*
X03358Y00868*
X03349Y00866*
X03344Y00849*
X02769*
Y00954*
X03719*
Y00189*
G37*
G54D17*
X03719Y00189D02*
X02769D01*
Y00464*
X02784*
X02789Y00441*
X02802Y00421*
X02813Y00414*
X02802Y00406*
X02789Y00386*
X02784Y00364*
X02789Y00341*
X02802Y00321*
X02813Y00314*
X02802Y00306*
X02789Y00286*
X02784Y00264*
X02789Y00241*
X02802Y00221*
X02821Y00209*
X02838Y00205*
X0285*
X02867Y00209*
X02886Y00221*
X02899Y00241*
X02903Y00264*
X02899Y00286*
X02886Y00306*
X02874Y00314*
X02886Y00321*
X02899Y00341*
X02903Y00364*
X02899Y00386*
X02886Y00406*
X02874Y00414*
X02886Y00421*
X02899Y00441*
X02903Y00464*
X02899Y00486*
X02886Y00506*
X02873Y00514*
X02879Y00517*
X02894Y00533*
X02901Y0055*
X02896Y00559*
X02849*
Y00558*
X02839*
Y00559*
X02792*
X02787Y0055*
X02794Y00533*
X02809Y00517*
X02814Y00514*
X02802Y00506*
X02789Y00486*
X02784Y00464*
X02769*
Y00664*
X02784*
X02789Y00641*
X02802Y00621*
X02814Y00613*
X02809Y00611*
X02794Y00594*
X02787Y00578*
X02792Y00569*
X02839*
Y00569*
X02849*
Y00569*
X02896*
X02901Y00578*
X02894Y00594*
X02879Y00611*
X02873Y00613*
X02886Y00621*
X02899Y00641*
X02903Y00664*
X03584*
X03589Y00641*
X03602Y00621*
X03613Y00614*
X03602Y00606*
X03589Y00586*
X03584Y00564*
X03589Y00541*
X03602Y00521*
X03613Y00514*
X03602Y00506*
X03589Y00486*
X03584Y00464*
X03589Y00441*
X03602Y00421*
X03613Y00414*
X03602Y00406*
X03589Y00386*
X03584Y00364*
X03589Y00341*
X03602Y00321*
X03613Y00314*
X03602Y00306*
X03589Y00286*
X03584Y00264*
X03589Y00241*
X03602Y00221*
X03621Y00209*
X03638Y00205*
X0365*
X03667Y00209*
X03686Y00221*
X03699Y00241*
X03703Y00264*
X03699Y00286*
X03686Y00306*
X03674Y00314*
X03686Y00321*
X03699Y00341*
X03703Y00364*
X03699Y00386*
X03686Y00406*
X03674Y00414*
X03686Y00421*
X03699Y00441*
X03703Y00464*
X03699Y00486*
X03686Y00506*
X03674Y00514*
X03686Y00521*
X03699Y00541*
X03703Y00564*
X03699Y00586*
X03686Y00606*
X03674Y00614*
X03686Y00621*
X03699Y00641*
X03703Y00664*
X03699Y00686*
X03686Y00706*
X03685Y00706*
X03687Y00707*
X03695Y00712*
X03701Y0072*
X03703Y0073*
Y00797*
X03701Y00807*
X03695Y00815*
X03687Y00821*
X03677Y00823*
X0361*
X03601Y00821*
X03592Y00815*
X03587Y00807*
X03585Y00797*
Y0073*
X03587Y0072*
X03592Y00712*
X03601Y00707*
X03602Y00706*
X03602Y00706*
X03589Y00686*
X03584Y00664*
X02903*
X02899Y00686*
X02886Y00706*
X02885Y00706*
X02891Y00709*
X02898Y00716*
X02902Y00725*
Y00752*
X02896Y00759*
X02849*
Y00758*
X02839*
Y00759*
X02792*
X02785Y00752*
Y00725*
X02789Y00716*
X02796Y00709*
X02803Y00706*
X02802Y00706*
X02789Y00686*
X02784Y00664*
X02769*
Y00802*
X02785*
Y00775*
X02792Y00769*
X02839*
Y00816*
X02849*
Y00769*
X02896*
X02902Y00775*
Y00802*
X02898Y00811*
X02891Y00818*
X02882Y00822*
X02855*
X02849Y00816*
X02839*
X02833Y00822*
X02805*
X02796Y00818*
X02789Y00811*
X02785Y00802*
X02769*
Y00849*
X03344*
X03345Y00832*
X03349Y00821*
X03358Y0082*
X03361Y00822*
X03368Y00815*
X03365Y00812*
X03366Y00804*
X03383Y00798*
X03401Y008*
X03411Y00804*
X03413Y00812*
X0341Y00815*
X03417Y00822*
X0342Y0082*
X03428Y00821*
X03434Y00838*
X03433Y00856*
X03428Y00866*
X0342Y00868*
X03417Y00865*
X0341Y00872*
X03413Y00875*
X03411Y00883*
X03395Y00889*
X03377Y00888*
X03366Y00883*
X03365Y00875*
X03368Y00872*
X03361Y00865*
X03358Y00868*
X03349Y00866*
X03344Y00849*
X02769*
Y00954*
X03719*
Y00189*
G54D11*
X03389Y00844D03*
G54D12*
X02844Y00264D03*
Y00364D03*
Y00464D03*
Y00564D03*
Y00664D03*
G54D13*
X02844Y00764D03*
X03644D03*
G54D12*
X03644Y00664D03*
Y00564D03*
Y00464D03*
Y00364D03*
Y00264D03*
G54D14*
X03471Y00956D03*
G54D15*
X02779Y00919D03*
X02943D03*
X03087D03*
X03231D03*
X03708D03*
X02779Y00777D03*
X03708D03*
X03231Y00635D03*
X03375D03*
X03708D03*
X02779Y00493D03*
X02943D03*
X03087D03*
X03231D03*
X03375D03*
X03708D03*
X02779Y00352D03*
X03231D03*
X03375D03*
X03708D03*
X02779Y0021D03*
X02943D03*
X03087D03*
X03231D03*
X03375D03*
X03519D03*
X03708D03*
Y00422D03*
Y0028D03*
Y00563D03*
Y00705D03*
Y00847D03*
X02879Y00209D03*
X03301Y0021D03*
X03609D03*
X03445D03*
X03013D03*
X03157D03*
X02779Y0028D03*
Y00563D03*
Y00422D03*
Y00847D03*
X03017Y00919D03*
X03161D03*
X02873D03*
X03567D03*
X03641D03*
X02874Y00849D03*
X03004Y00704D03*
X03309Y00564D03*
Y00424D03*
X03134Y00429D03*
Y00289D03*
X03309D03*
Y00684D03*
X03604Y00849D03*
G54D16*
X03194Y00864D03*
X03234D03*
X03274D03*
X03319D03*
X03339Y00899D03*
Y00939D03*
X03439D03*
Y00904D03*
X03479D03*
X03514Y00874D03*
X03484Y00834D03*
X03449D03*
Y00794D03*
X03484D03*
X03404Y00764D03*
X03364D03*
X03314D03*
X03279D03*
X03244D03*
G54D15*
X03069Y00534D03*
X03024D03*
X02979D03*
X02939Y00554D03*
X02914Y00579D03*
X02814Y00604D03*
X02789Y00634D03*
X02779Y00674D03*
X02799Y00709D03*
X02819Y00729D03*
X02874D03*
G54D16*
X03154Y00864D03*
X03114D03*
X03074D03*
X03034D03*
G54D15*
X03104Y00549D03*
X03114Y00584D03*
X03104Y00614D03*
X03069Y00634D03*
X03034D03*
X03004D03*
Y00669D03*
X03134Y00684D03*
X03179Y00564D03*
X03004Y00739D03*
X03024Y00764D03*
X03064D03*
X03104D03*
X03149D03*
X03189D03*
G54D16*
X02964Y00844D03*
X02939Y00819D03*
X02914Y00794D03*
X02904Y00754D03*
Y00714D03*
Y00614D03*
X02999Y00864D03*
G54D15*
X02869Y00604D03*
G36*
X01168Y01484D02*
X00218D01*
Y01758*
X00233*
X00238Y01736*
X00251Y01716*
X00263Y01708*
X00251Y01701*
X00238Y01681*
X00233Y01658*
X00238Y01636*
X00251Y01616*
X00263Y01608*
X00251Y01601*
X00238Y01581*
X00233Y01558*
X00238Y01536*
X00251Y01516*
X0027Y01503*
X00287Y015*
X00299*
X00316Y01503*
X00335Y01516*
X00348Y01536*
X00353Y01558*
X00348Y01581*
X00335Y01601*
X00324Y01608*
X00335Y01616*
X00348Y01636*
X00353Y01658*
X00348Y01681*
X00335Y01701*
X00324Y01708*
X00335Y01716*
X00348Y01736*
X00353Y01758*
X00348Y01781*
X00335Y01801*
X00323Y01809*
X00328Y01811*
X00343Y01828*
X0035Y01844*
X00345Y01853*
X00298*
Y01853*
X00288*
Y01853*
X00241*
X00236Y01844*
X00243Y01828*
X00258Y01811*
X00264Y01809*
X00251Y01801*
X00238Y01781*
X00233Y01758*
X00218*
Y01958*
X00233*
X00238Y01936*
X00251Y01916*
X00264Y01908*
X00258Y01906*
X00243Y01889*
X00236Y01873*
X00241Y01863*
X00288*
Y01864*
X00298*
Y01863*
X00345*
X0035Y01873*
X00343Y01889*
X00328Y01906*
X00323Y01908*
X00335Y01916*
X00348Y01936*
X00353Y01958*
X01033*
X01038Y01936*
X01051Y01916*
X01063Y01908*
X01051Y01901*
X01038Y01881*
X01033Y01858*
X01038Y01836*
X01051Y01816*
X01063Y01808*
X01051Y01801*
X01038Y01781*
X01033Y01758*
X01038Y01736*
X01051Y01716*
X01063Y01708*
X01051Y01701*
X01038Y01681*
X01033Y01658*
X01038Y01636*
X01051Y01616*
X01063Y01608*
X01051Y01601*
X01038Y01581*
X01033Y01558*
X01038Y01536*
X01051Y01516*
X0107Y01503*
X01087Y015*
X01099*
X01116Y01503*
X01135Y01516*
X01148Y01536*
X01153Y01558*
X01148Y01581*
X01135Y01601*
X01124Y01608*
X01135Y01616*
X01148Y01636*
X01153Y01658*
X01148Y01681*
X01135Y01701*
X01124Y01708*
X01135Y01716*
X01148Y01736*
X01153Y01758*
X01148Y01781*
X01135Y01801*
X01124Y01808*
X01135Y01816*
X01148Y01836*
X01153Y01858*
X01148Y01881*
X01135Y01901*
X01124Y01908*
X01135Y01916*
X01148Y01936*
X01153Y01958*
X01148Y0198*
X01135Y02*
X01135Y02*
X01136Y02*
X01145Y02006*
X0115Y02014*
X01152Y02024*
Y02091*
X0115Y02101*
X01145Y02109*
X01136Y02114*
X01127Y02116*
X0106*
X0105Y02114*
X01042Y02109*
X01036Y02101*
X01034Y02091*
Y02024*
X01036Y02014*
X01042Y02006*
X0105Y02*
X01052Y02*
X01051Y02*
X01038Y0198*
X01033Y01958*
X00353*
X00348Y0198*
X00335Y02*
X00334Y02*
X00341Y02003*
X00348Y0201*
X00352Y02019*
Y02046*
X00345Y02052*
X00298*
Y02052*
X00288*
Y02052*
X00241*
X00235Y02046*
Y02019*
X00238Y0201*
X00245Y02003*
X00252Y02*
X00251Y02*
X00238Y0198*
X00233Y01958*
X00218*
Y02096*
X00235*
Y02069*
X00241Y02062*
X00288*
Y0211*
X00298*
Y02062*
X00345*
X00352Y02069*
Y02096*
X00348Y02105*
X00341Y02112*
X00332Y02116*
X00304*
X00298Y0211*
X00288*
X00282Y02116*
X00255*
X00245Y02112*
X00238Y02105*
X00235Y02096*
X00218*
Y02143*
X00793*
X00794Y02125*
X00799Y02115*
X00807Y02113*
X0081Y02116*
X00817Y02109*
X00814Y02106*
X00816Y02098*
X00832Y02092*
X0085Y02094*
X00861Y02098*
X00862Y02106*
X00859Y02109*
X00866Y02116*
X00869Y02113*
X00878Y02115*
X00883Y02132*
X00882Y02149*
X00878Y0216*
X00869Y02161*
X00866Y02159*
X00859Y02166*
X00862Y02169*
X00861Y02177*
X00844Y02183*
X00826Y02181*
X00816Y02177*
X00814Y02169*
X00817Y02166*
X0081Y02159*
X00807Y02161*
X00799Y0216*
X00793Y02143*
X00218*
Y02247*
X01168*
Y01484*
G37*
G54D17*
X01168Y01484D02*
X00218D01*
Y01758*
X00233*
X00238Y01736*
X00251Y01716*
X00263Y01708*
X00251Y01701*
X00238Y01681*
X00233Y01658*
X00238Y01636*
X00251Y01616*
X00263Y01608*
X00251Y01601*
X00238Y01581*
X00233Y01558*
X00238Y01536*
X00251Y01516*
X0027Y01503*
X00287Y015*
X00299*
X00316Y01503*
X00335Y01516*
X00348Y01536*
X00353Y01558*
X00348Y01581*
X00335Y01601*
X00324Y01608*
X00335Y01616*
X00348Y01636*
X00353Y01658*
X00348Y01681*
X00335Y01701*
X00324Y01708*
X00335Y01716*
X00348Y01736*
X00353Y01758*
X00348Y01781*
X00335Y01801*
X00323Y01809*
X00328Y01811*
X00343Y01828*
X0035Y01844*
X00345Y01853*
X00298*
Y01853*
X00288*
Y01853*
X00241*
X00236Y01844*
X00243Y01828*
X00258Y01811*
X00264Y01809*
X00251Y01801*
X00238Y01781*
X00233Y01758*
X00218*
Y01958*
X00233*
X00238Y01936*
X00251Y01916*
X00264Y01908*
X00258Y01906*
X00243Y01889*
X00236Y01873*
X00241Y01863*
X00288*
Y01864*
X00298*
Y01863*
X00345*
X0035Y01873*
X00343Y01889*
X00328Y01906*
X00323Y01908*
X00335Y01916*
X00348Y01936*
X00353Y01958*
X01033*
X01038Y01936*
X01051Y01916*
X01063Y01908*
X01051Y01901*
X01038Y01881*
X01033Y01858*
X01038Y01836*
X01051Y01816*
X01063Y01808*
X01051Y01801*
X01038Y01781*
X01033Y01758*
X01038Y01736*
X01051Y01716*
X01063Y01708*
X01051Y01701*
X01038Y01681*
X01033Y01658*
X01038Y01636*
X01051Y01616*
X01063Y01608*
X01051Y01601*
X01038Y01581*
X01033Y01558*
X01038Y01536*
X01051Y01516*
X0107Y01503*
X01087Y015*
X01099*
X01116Y01503*
X01135Y01516*
X01148Y01536*
X01153Y01558*
X01148Y01581*
X01135Y01601*
X01124Y01608*
X01135Y01616*
X01148Y01636*
X01153Y01658*
X01148Y01681*
X01135Y01701*
X01124Y01708*
X01135Y01716*
X01148Y01736*
X01153Y01758*
X01148Y01781*
X01135Y01801*
X01124Y01808*
X01135Y01816*
X01148Y01836*
X01153Y01858*
X01148Y01881*
X01135Y01901*
X01124Y01908*
X01135Y01916*
X01148Y01936*
X01153Y01958*
X01148Y0198*
X01135Y02*
X01135Y02*
X01136Y02*
X01145Y02006*
X0115Y02014*
X01152Y02024*
Y02091*
X0115Y02101*
X01145Y02109*
X01136Y02114*
X01127Y02116*
X0106*
X0105Y02114*
X01042Y02109*
X01036Y02101*
X01034Y02091*
Y02024*
X01036Y02014*
X01042Y02006*
X0105Y02*
X01052Y02*
X01051Y02*
X01038Y0198*
X01033Y01958*
X00353*
X00348Y0198*
X00335Y02*
X00334Y02*
X00341Y02003*
X00348Y0201*
X00352Y02019*
Y02046*
X00345Y02052*
X00298*
Y02052*
X00288*
Y02052*
X00241*
X00235Y02046*
Y02019*
X00238Y0201*
X00245Y02003*
X00252Y02*
X00251Y02*
X00238Y0198*
X00233Y01958*
X00218*
Y02096*
X00235*
Y02069*
X00241Y02062*
X00288*
Y0211*
X00298*
Y02062*
X00345*
X00352Y02069*
Y02096*
X00348Y02105*
X00341Y02112*
X00332Y02116*
X00304*
X00298Y0211*
X00288*
X00282Y02116*
X00255*
X00245Y02112*
X00238Y02105*
X00235Y02096*
X00218*
Y02143*
X00793*
X00794Y02125*
X00799Y02115*
X00807Y02113*
X0081Y02116*
X00817Y02109*
X00814Y02106*
X00816Y02098*
X00832Y02092*
X0085Y02094*
X00861Y02098*
X00862Y02106*
X00859Y02109*
X00866Y02116*
X00869Y02113*
X00878Y02115*
X00883Y02132*
X00882Y02149*
X00878Y0216*
X00869Y02161*
X00866Y02159*
X00859Y02166*
X00862Y02169*
X00861Y02177*
X00844Y02183*
X00826Y02181*
X00816Y02177*
X00814Y02169*
X00817Y02166*
X0081Y02159*
X00807Y02161*
X00799Y0216*
X00793Y02143*
X00218*
Y02247*
X01168*
Y01484*
G54D11*
X00838Y02137D03*
G54D12*
X00293Y01558D03*
Y01658D03*
Y01758D03*
Y01858D03*
Y01958D03*
G54D13*
X00293Y02057D03*
X01093D03*
G54D12*
X01093Y01958D03*
Y01858D03*
Y01758D03*
Y01658D03*
Y01558D03*
G54D14*
X00921Y0225D03*
G54D15*
X00228Y02212D03*
X00392D03*
X00536D03*
X0068D03*
X01158D03*
X00228Y02071D03*
X01158D03*
X0068Y0193D03*
X00824D03*
X01158D03*
X00228Y01788D03*
X00392D03*
X00536D03*
X0068D03*
X00824D03*
X01158D03*
X00228Y01647D03*
X0068D03*
X00824D03*
X01158D03*
X00228Y01505D03*
X00392D03*
X00536D03*
X0068D03*
X00824D03*
X00969D03*
X01158D03*
Y01717D03*
Y01575D03*
Y01858D03*
Y01999D03*
Y02141D03*
X00328Y01503D03*
X0075Y01505D03*
X01058D03*
X00894D03*
X00462D03*
X00606D03*
X00228Y01575D03*
Y01858D03*
Y01717D03*
Y02141D03*
X00466Y02212D03*
X0061D03*
X00322D03*
X01016D03*
X0109D03*
X00323Y02142D03*
X00453Y01997D03*
X00758Y01858D03*
Y01718D03*
X00583Y01723D03*
Y01583D03*
X00758D03*
Y01977D03*
X01053Y02142D03*
G54D16*
X00643Y02157D03*
X00683D03*
X00723D03*
X00768D03*
X00788Y02192D03*
Y02232D03*
X00888D03*
Y02197D03*
X00928D03*
X00963Y02167D03*
X00933Y02127D03*
X00898D03*
Y02087D03*
X00933D03*
X00853Y02057D03*
X00813D03*
X00763D03*
X00728D03*
X00693D03*
G54D15*
X00518Y01828D03*
X00473D03*
X00428D03*
X00388Y01848D03*
X00363Y01873D03*
X00263Y01898D03*
X00238Y01928D03*
X00228Y01968D03*
X00248Y02002D03*
X00268Y02022D03*
X00323D03*
G54D16*
X00603Y02157D03*
X00563D03*
X00523D03*
X00483D03*
G54D15*
X00553Y01843D03*
X00563Y01878D03*
X00553Y01908D03*
X00518Y01928D03*
X00483D03*
X00453D03*
Y01963D03*
X00583Y01977D03*
X00628Y01858D03*
X00453Y02032D03*
X00473Y02057D03*
X00513D03*
X00553D03*
X00598D03*
X00638D03*
G54D16*
X00413Y02137D03*
X00388Y02112D03*
X00363Y02087D03*
X00353Y02047D03*
Y02007D03*
Y01908D03*
X00448Y02157D03*
G54D15*
X00318Y01898D03*
G36*
X02443Y01484D02*
X01494D01*
Y01758*
X01509*
X01514Y01736*
X01527Y01716*
X01539Y01708*
X01527Y01701*
X01514Y01681*
X01509Y01658*
X01514Y01636*
X01527Y01616*
X01539Y01608*
X01527Y01601*
X01514Y01581*
X01509Y01558*
X01514Y01536*
X01527Y01516*
X01546Y01503*
X01563Y015*
X01575*
X01592Y01503*
X01611Y01516*
X01624Y01536*
X01629Y01558*
X01624Y01581*
X01611Y01601*
X01599Y01608*
X01611Y01616*
X01624Y01636*
X01629Y01658*
X01624Y01681*
X01611Y01701*
X01599Y01708*
X01611Y01716*
X01624Y01736*
X01629Y01758*
X01624Y01781*
X01611Y01801*
X01599Y01809*
X01604Y01811*
X01619Y01828*
X01626Y01844*
X01621Y01853*
X01574*
Y01853*
X01564*
Y01853*
X01517*
X01512Y01844*
X01519Y01828*
X01534Y01811*
X01539Y01809*
X01527Y01801*
X01514Y01781*
X01509Y01758*
X01494*
Y01958*
X01509*
X01514Y01936*
X01527Y01916*
X01539Y01908*
X01534Y01906*
X01519Y01889*
X01512Y01873*
X01517Y01863*
X01564*
Y01864*
X01574*
Y01863*
X01621*
X01626Y01873*
X01619Y01889*
X01604Y01906*
X01599Y01908*
X01611Y01916*
X01624Y01936*
X01629Y01958*
X02308*
X02313Y01936*
X02326Y01916*
X02338Y01908*
X02326Y01901*
X02313Y01881*
X02308Y01858*
X02313Y01836*
X02326Y01816*
X02338Y01808*
X02326Y01801*
X02313Y01781*
X02308Y01758*
X02313Y01736*
X02326Y01716*
X02338Y01708*
X02326Y01701*
X02313Y01681*
X02308Y01658*
X02313Y01636*
X02326Y01616*
X02338Y01608*
X02326Y01601*
X02313Y01581*
X02308Y01558*
X02313Y01536*
X02326Y01516*
X02345Y01503*
X02362Y015*
X02374*
X02391Y01503*
X0241Y01516*
X02423Y01536*
X02428Y01558*
X02423Y01581*
X0241Y01601*
X02398Y01608*
X0241Y01616*
X02423Y01636*
X02428Y01658*
X02423Y01681*
X0241Y01701*
X02398Y01708*
X0241Y01716*
X02423Y01736*
X02428Y01758*
X02423Y01781*
X0241Y01801*
X02398Y01808*
X0241Y01816*
X02423Y01836*
X02428Y01858*
X02423Y01881*
X0241Y01901*
X02398Y01908*
X0241Y01916*
X02423Y01936*
X02428Y01958*
X02423Y0198*
X0241Y02*
X02409Y02*
X02411Y02*
X02419Y02006*
X02425Y02014*
X02427Y02024*
Y02091*
X02425Y02101*
X02419Y02109*
X02411Y02114*
X02401Y02116*
X02334*
X02325Y02114*
X02316Y02109*
X02311Y02101*
X02309Y02091*
Y02024*
X02311Y02014*
X02316Y02006*
X02325Y02*
X02327Y02*
X02326Y02*
X02313Y0198*
X02308Y01958*
X01629*
X01624Y0198*
X01611Y02*
X0161Y02*
X01617Y02003*
X01624Y0201*
X01627Y02019*
Y02046*
X01621Y02052*
X01574*
Y02052*
X01564*
Y02052*
X01517*
X0151Y02046*
Y02019*
X01514Y0201*
X01521Y02003*
X01528Y02*
X01527Y02*
X01514Y0198*
X01509Y01958*
X01494*
Y02096*
X0151*
Y02069*
X01517Y02062*
X01564*
Y0211*
X01574*
Y02062*
X01621*
X01627Y02069*
Y02096*
X01624Y02105*
X01617Y02112*
X01607Y02116*
X0158*
X01574Y0211*
X01564*
X01558Y02116*
X01531*
X01521Y02112*
X01514Y02105*
X0151Y02096*
X01494*
Y02143*
X02068*
X02069Y02125*
X02073Y02115*
X02082Y02113*
X02085Y02116*
X02092Y02109*
X02089Y02106*
X0209Y02098*
X02107Y02092*
X02125Y02094*
X02136Y02098*
X02137Y02106*
X02134Y02109*
X02141Y02116*
X02144Y02113*
X02153Y02115*
X02158Y02132*
X02157Y02149*
X02153Y0216*
X02144Y02161*
X02141Y02159*
X02134Y02166*
X02137Y02169*
X02136Y02177*
X02119Y02183*
X02101Y02181*
X0209Y02177*
X02089Y02169*
X02092Y02166*
X02085Y02159*
X02082Y02161*
X02073Y0216*
X02068Y02143*
X01494*
Y02247*
X02443*
Y01484*
G37*
G54D17*
X02443Y01484D02*
X01494D01*
Y01758*
X01509*
X01514Y01736*
X01527Y01716*
X01539Y01708*
X01527Y01701*
X01514Y01681*
X01509Y01658*
X01514Y01636*
X01527Y01616*
X01539Y01608*
X01527Y01601*
X01514Y01581*
X01509Y01558*
X01514Y01536*
X01527Y01516*
X01546Y01503*
X01563Y015*
X01575*
X01592Y01503*
X01611Y01516*
X01624Y01536*
X01629Y01558*
X01624Y01581*
X01611Y01601*
X01599Y01608*
X01611Y01616*
X01624Y01636*
X01629Y01658*
X01624Y01681*
X01611Y01701*
X01599Y01708*
X01611Y01716*
X01624Y01736*
X01629Y01758*
X01624Y01781*
X01611Y01801*
X01599Y01809*
X01604Y01811*
X01619Y01828*
X01626Y01844*
X01621Y01853*
X01574*
Y01853*
X01564*
Y01853*
X01517*
X01512Y01844*
X01519Y01828*
X01534Y01811*
X01539Y01809*
X01527Y01801*
X01514Y01781*
X01509Y01758*
X01494*
Y01958*
X01509*
X01514Y01936*
X01527Y01916*
X01539Y01908*
X01534Y01906*
X01519Y01889*
X01512Y01873*
X01517Y01863*
X01564*
Y01864*
X01574*
Y01863*
X01621*
X01626Y01873*
X01619Y01889*
X01604Y01906*
X01599Y01908*
X01611Y01916*
X01624Y01936*
X01629Y01958*
X02308*
X02313Y01936*
X02326Y01916*
X02338Y01908*
X02326Y01901*
X02313Y01881*
X02308Y01858*
X02313Y01836*
X02326Y01816*
X02338Y01808*
X02326Y01801*
X02313Y01781*
X02308Y01758*
X02313Y01736*
X02326Y01716*
X02338Y01708*
X02326Y01701*
X02313Y01681*
X02308Y01658*
X02313Y01636*
X02326Y01616*
X02338Y01608*
X02326Y01601*
X02313Y01581*
X02308Y01558*
X02313Y01536*
X02326Y01516*
X02345Y01503*
X02362Y015*
X02374*
X02391Y01503*
X0241Y01516*
X02423Y01536*
X02428Y01558*
X02423Y01581*
X0241Y01601*
X02398Y01608*
X0241Y01616*
X02423Y01636*
X02428Y01658*
X02423Y01681*
X0241Y01701*
X02398Y01708*
X0241Y01716*
X02423Y01736*
X02428Y01758*
X02423Y01781*
X0241Y01801*
X02398Y01808*
X0241Y01816*
X02423Y01836*
X02428Y01858*
X02423Y01881*
X0241Y01901*
X02398Y01908*
X0241Y01916*
X02423Y01936*
X02428Y01958*
X02423Y0198*
X0241Y02*
X02409Y02*
X02411Y02*
X02419Y02006*
X02425Y02014*
X02427Y02024*
Y02091*
X02425Y02101*
X02419Y02109*
X02411Y02114*
X02401Y02116*
X02334*
X02325Y02114*
X02316Y02109*
X02311Y02101*
X02309Y02091*
Y02024*
X02311Y02014*
X02316Y02006*
X02325Y02*
X02327Y02*
X02326Y02*
X02313Y0198*
X02308Y01958*
X01629*
X01624Y0198*
X01611Y02*
X0161Y02*
X01617Y02003*
X01624Y0201*
X01627Y02019*
Y02046*
X01621Y02052*
X01574*
Y02052*
X01564*
Y02052*
X01517*
X0151Y02046*
Y02019*
X01514Y0201*
X01521Y02003*
X01528Y02*
X01527Y02*
X01514Y0198*
X01509Y01958*
X01494*
Y02096*
X0151*
Y02069*
X01517Y02062*
X01564*
Y0211*
X01574*
Y02062*
X01621*
X01627Y02069*
Y02096*
X01624Y02105*
X01617Y02112*
X01607Y02116*
X0158*
X01574Y0211*
X01564*
X01558Y02116*
X01531*
X01521Y02112*
X01514Y02105*
X0151Y02096*
X01494*
Y02143*
X02068*
X02069Y02125*
X02073Y02115*
X02082Y02113*
X02085Y02116*
X02092Y02109*
X02089Y02106*
X0209Y02098*
X02107Y02092*
X02125Y02094*
X02136Y02098*
X02137Y02106*
X02134Y02109*
X02141Y02116*
X02144Y02113*
X02153Y02115*
X02158Y02132*
X02157Y02149*
X02153Y0216*
X02144Y02161*
X02141Y02159*
X02134Y02166*
X02137Y02169*
X02136Y02177*
X02119Y02183*
X02101Y02181*
X0209Y02177*
X02089Y02169*
X02092Y02166*
X02085Y02159*
X02082Y02161*
X02073Y0216*
X02068Y02143*
X01494*
Y02247*
X02443*
Y01484*
G54D11*
X02113Y02137D03*
G54D12*
X01569Y01558D03*
Y01658D03*
Y01758D03*
Y01858D03*
Y01958D03*
G54D13*
X01569Y02057D03*
X02368D03*
G54D12*
X02368Y01958D03*
Y01858D03*
Y01758D03*
Y01658D03*
Y01558D03*
G54D14*
X02196Y0225D03*
G54D15*
X01504Y02212D03*
X01668D03*
X01812D03*
X01956D03*
X02433D03*
X01504Y02071D03*
X02433D03*
X01956Y0193D03*
X02099D03*
X02433D03*
X01504Y01788D03*
X01668D03*
X01812D03*
X01956D03*
X02099D03*
X02433D03*
X01504Y01647D03*
X01956D03*
X02099D03*
X02433D03*
X01504Y01505D03*
X01668D03*
X01812D03*
X01956D03*
X02099D03*
X02243D03*
X02433D03*
Y01717D03*
Y01575D03*
Y01858D03*
Y01999D03*
Y02141D03*
X01604Y01503D03*
X02025Y01505D03*
X02333D03*
X02169D03*
X01738D03*
X01882D03*
X01504Y01575D03*
Y01858D03*
Y01717D03*
Y02141D03*
X01742Y02212D03*
X01886D03*
X01598D03*
X02291D03*
X02365D03*
X01599Y02142D03*
X01729Y01997D03*
X02033Y01858D03*
Y01718D03*
X01859Y01723D03*
Y01583D03*
X02033D03*
Y01977D03*
X02328Y02142D03*
G54D16*
X01919Y02157D03*
X01959D03*
X01998D03*
X02043D03*
X02063Y02192D03*
Y02232D03*
X02163D03*
Y02197D03*
X02203D03*
X02238Y02167D03*
X02208Y02127D03*
X02173D03*
Y02087D03*
X02208D03*
X02128Y02057D03*
X02088D03*
X02038D03*
X02003D03*
X01968D03*
G54D15*
X01794Y01828D03*
X01749D03*
X01704D03*
X01664Y01848D03*
X01639Y01873D03*
X01539Y01898D03*
X01514Y01928D03*
X01504Y01968D03*
X01524Y02002D03*
X01544Y02022D03*
X01599D03*
G54D16*
X01879Y02157D03*
X01839D03*
X01799D03*
X01759D03*
G54D15*
X01829Y01843D03*
X01839Y01878D03*
X01829Y01908D03*
X01794Y01928D03*
X01759D03*
X01729D03*
Y01963D03*
X01859Y01977D03*
X01904Y01858D03*
X01729Y02032D03*
X01749Y02057D03*
X01789D03*
X01829D03*
X01874D03*
X01914D03*
G54D16*
X01689Y02137D03*
X01664Y02112D03*
X01639Y02087D03*
X01629Y02047D03*
Y02007D03*
Y01908D03*
X01724Y02157D03*
G54D15*
X01594Y01898D03*
G36*
X03719Y01484D02*
X02769D01*
Y01758*
X02784*
X02789Y01736*
X02802Y01716*
X02813Y01708*
X02802Y01701*
X02789Y01681*
X02784Y01658*
X02789Y01636*
X02802Y01616*
X02813Y01608*
X02802Y01601*
X02789Y01581*
X02784Y01558*
X02789Y01536*
X02802Y01516*
X02821Y01503*
X02838Y015*
X0285*
X02867Y01503*
X02886Y01516*
X02899Y01536*
X02903Y01558*
X02899Y01581*
X02886Y01601*
X02874Y01608*
X02886Y01616*
X02899Y01636*
X02903Y01658*
X02899Y01681*
X02886Y01701*
X02874Y01708*
X02886Y01716*
X02899Y01736*
X02903Y01758*
X02899Y01781*
X02886Y01801*
X02873Y01809*
X02879Y01811*
X02894Y01828*
X02901Y01844*
X02896Y01853*
X02849*
Y01853*
X02839*
Y01853*
X02792*
X02787Y01844*
X02794Y01828*
X02809Y01811*
X02814Y01809*
X02802Y01801*
X02789Y01781*
X02784Y01758*
X02769*
Y01958*
X02784*
X02789Y01936*
X02802Y01916*
X02814Y01908*
X02809Y01906*
X02794Y01889*
X02787Y01873*
X02792Y01863*
X02839*
Y01864*
X02849*
Y01863*
X02896*
X02901Y01873*
X02894Y01889*
X02879Y01906*
X02873Y01908*
X02886Y01916*
X02899Y01936*
X02903Y01958*
X03584*
X03589Y01936*
X03602Y01916*
X03613Y01908*
X03602Y01901*
X03589Y01881*
X03584Y01858*
X03589Y01836*
X03602Y01816*
X03613Y01808*
X03602Y01801*
X03589Y01781*
X03584Y01758*
X03589Y01736*
X03602Y01716*
X03613Y01708*
X03602Y01701*
X03589Y01681*
X03584Y01658*
X03589Y01636*
X03602Y01616*
X03613Y01608*
X03602Y01601*
X03589Y01581*
X03584Y01558*
X03589Y01536*
X03602Y01516*
X03621Y01503*
X03638Y015*
X0365*
X03667Y01503*
X03686Y01516*
X03699Y01536*
X03703Y01558*
X03699Y01581*
X03686Y01601*
X03674Y01608*
X03686Y01616*
X03699Y01636*
X03703Y01658*
X03699Y01681*
X03686Y01701*
X03674Y01708*
X03686Y01716*
X03699Y01736*
X03703Y01758*
X03699Y01781*
X03686Y01801*
X03674Y01808*
X03686Y01816*
X03699Y01836*
X03703Y01858*
X03699Y01881*
X03686Y01901*
X03674Y01908*
X03686Y01916*
X03699Y01936*
X03703Y01958*
X03699Y0198*
X03686Y02*
X03685Y02*
X03687Y02*
X03695Y02006*
X03701Y02014*
X03703Y02024*
Y02091*
X03701Y02101*
X03695Y02109*
X03687Y02114*
X03677Y02116*
X0361*
X03601Y02114*
X03592Y02109*
X03587Y02101*
X03585Y02091*
Y02024*
X03587Y02014*
X03592Y02006*
X03601Y02*
X03602Y02*
X03602Y02*
X03589Y0198*
X03584Y01958*
X02903*
X02899Y0198*
X02886Y02*
X02885Y02*
X02891Y02003*
X02898Y0201*
X02902Y02019*
Y02046*
X02896Y02052*
X02849*
Y02052*
X02839*
Y02052*
X02792*
X02785Y02046*
Y02019*
X02789Y0201*
X02796Y02003*
X02803Y02*
X02802Y02*
X02789Y0198*
X02784Y01958*
X02769*
Y02096*
X02785*
Y02069*
X02792Y02062*
X02839*
Y0211*
X02849*
Y02062*
X02896*
X02902Y02069*
Y02096*
X02898Y02105*
X02891Y02112*
X02882Y02116*
X02855*
X02849Y0211*
X02839*
X02833Y02116*
X02805*
X02796Y02112*
X02789Y02105*
X02785Y02096*
X02769*
Y02143*
X03344*
X03345Y02125*
X03349Y02115*
X03358Y02113*
X03361Y02116*
X03368Y02109*
X03365Y02106*
X03366Y02098*
X03383Y02092*
X03401Y02094*
X03411Y02098*
X03413Y02106*
X0341Y02109*
X03417Y02116*
X0342Y02113*
X03428Y02115*
X03434Y02132*
X03433Y02149*
X03428Y0216*
X0342Y02161*
X03417Y02159*
X0341Y02166*
X03413Y02169*
X03411Y02177*
X03395Y02183*
X03377Y02181*
X03366Y02177*
X03365Y02169*
X03368Y02166*
X03361Y02159*
X03358Y02161*
X03349Y0216*
X03344Y02143*
X02769*
Y02247*
X03719*
Y01484*
G37*
G54D17*
X03719Y01484D02*
X02769D01*
Y01758*
X02784*
X02789Y01736*
X02802Y01716*
X02813Y01708*
X02802Y01701*
X02789Y01681*
X02784Y01658*
X02789Y01636*
X02802Y01616*
X02813Y01608*
X02802Y01601*
X02789Y01581*
X02784Y01558*
X02789Y01536*
X02802Y01516*
X02821Y01503*
X02838Y015*
X0285*
X02867Y01503*
X02886Y01516*
X02899Y01536*
X02903Y01558*
X02899Y01581*
X02886Y01601*
X02874Y01608*
X02886Y01616*
X02899Y01636*
X02903Y01658*
X02899Y01681*
X02886Y01701*
X02874Y01708*
X02886Y01716*
X02899Y01736*
X02903Y01758*
X02899Y01781*
X02886Y01801*
X02873Y01809*
X02879Y01811*
X02894Y01828*
X02901Y01844*
X02896Y01853*
X02849*
Y01853*
X02839*
Y01853*
X02792*
X02787Y01844*
X02794Y01828*
X02809Y01811*
X02814Y01809*
X02802Y01801*
X02789Y01781*
X02784Y01758*
X02769*
Y01958*
X02784*
X02789Y01936*
X02802Y01916*
X02814Y01908*
X02809Y01906*
X02794Y01889*
X02787Y01873*
X02792Y01863*
X02839*
Y01864*
X02849*
Y01863*
X02896*
X02901Y01873*
X02894Y01889*
X02879Y01906*
X02873Y01908*
X02886Y01916*
X02899Y01936*
X02903Y01958*
X03584*
X03589Y01936*
X03602Y01916*
X03613Y01908*
X03602Y01901*
X03589Y01881*
X03584Y01858*
X03589Y01836*
X03602Y01816*
X03613Y01808*
X03602Y01801*
X03589Y01781*
X03584Y01758*
X03589Y01736*
X03602Y01716*
X03613Y01708*
X03602Y01701*
X03589Y01681*
X03584Y01658*
X03589Y01636*
X03602Y01616*
X03613Y01608*
X03602Y01601*
X03589Y01581*
X03584Y01558*
X03589Y01536*
X03602Y01516*
X03621Y01503*
X03638Y015*
X0365*
X03667Y01503*
X03686Y01516*
X03699Y01536*
X03703Y01558*
X03699Y01581*
X03686Y01601*
X03674Y01608*
X03686Y01616*
X03699Y01636*
X03703Y01658*
X03699Y01681*
X03686Y01701*
X03674Y01708*
X03686Y01716*
X03699Y01736*
X03703Y01758*
X03699Y01781*
X03686Y01801*
X03674Y01808*
X03686Y01816*
X03699Y01836*
X03703Y01858*
X03699Y01881*
X03686Y01901*
X03674Y01908*
X03686Y01916*
X03699Y01936*
X03703Y01958*
X03699Y0198*
X03686Y02*
X03685Y02*
X03687Y02*
X03695Y02006*
X03701Y02014*
X03703Y02024*
Y02091*
X03701Y02101*
X03695Y02109*
X03687Y02114*
X03677Y02116*
X0361*
X03601Y02114*
X03592Y02109*
X03587Y02101*
X03585Y02091*
Y02024*
X03587Y02014*
X03592Y02006*
X03601Y02*
X03602Y02*
X03602Y02*
X03589Y0198*
X03584Y01958*
X02903*
X02899Y0198*
X02886Y02*
X02885Y02*
X02891Y02003*
X02898Y0201*
X02902Y02019*
Y02046*
X02896Y02052*
X02849*
Y02052*
X02839*
Y02052*
X02792*
X02785Y02046*
Y02019*
X02789Y0201*
X02796Y02003*
X02803Y02*
X02802Y02*
X02789Y0198*
X02784Y01958*
X02769*
Y02096*
X02785*
Y02069*
X02792Y02062*
X02839*
Y0211*
X02849*
Y02062*
X02896*
X02902Y02069*
Y02096*
X02898Y02105*
X02891Y02112*
X02882Y02116*
X02855*
X02849Y0211*
X02839*
X02833Y02116*
X02805*
X02796Y02112*
X02789Y02105*
X02785Y02096*
X02769*
Y02143*
X03344*
X03345Y02125*
X03349Y02115*
X03358Y02113*
X03361Y02116*
X03368Y02109*
X03365Y02106*
X03366Y02098*
X03383Y02092*
X03401Y02094*
X03411Y02098*
X03413Y02106*
X0341Y02109*
X03417Y02116*
X0342Y02113*
X03428Y02115*
X03434Y02132*
X03433Y02149*
X03428Y0216*
X0342Y02161*
X03417Y02159*
X0341Y02166*
X03413Y02169*
X03411Y02177*
X03395Y02183*
X03377Y02181*
X03366Y02177*
X03365Y02169*
X03368Y02166*
X03361Y02159*
X03358Y02161*
X03349Y0216*
X03344Y02143*
X02769*
Y02247*
X03719*
Y01484*
G54D11*
X03389Y02137D03*
G54D12*
X02844Y01558D03*
Y01658D03*
Y01758D03*
Y01858D03*
Y01958D03*
G54D13*
X02844Y02057D03*
X03644D03*
G54D12*
X03644Y01958D03*
Y01858D03*
Y01758D03*
Y01658D03*
Y01558D03*
G54D14*
X03471Y0225D03*
G54D15*
X02779Y02212D03*
X02943D03*
X03087D03*
X03231D03*
X03708D03*
X02779Y02071D03*
X03708D03*
X03231Y0193D03*
X03375D03*
X03708D03*
X02779Y01788D03*
X02943D03*
X03087D03*
X03231D03*
X03375D03*
X03708D03*
X02779Y01647D03*
X03231D03*
X03375D03*
X03708D03*
X02779Y01505D03*
X02943D03*
X03087D03*
X03231D03*
X03375D03*
X03519D03*
X03708D03*
Y01717D03*
Y01575D03*
Y01858D03*
Y01999D03*
Y02141D03*
X02879Y01503D03*
X03301Y01505D03*
X03609D03*
X03445D03*
X03013D03*
X03157D03*
X02779Y01575D03*
Y01858D03*
Y01717D03*
Y02141D03*
X03017Y02212D03*
X03161D03*
X02873D03*
X03567D03*
X03641D03*
X02874Y02142D03*
X03004Y01997D03*
X03309Y01858D03*
Y01718D03*
X03134Y01723D03*
Y01583D03*
X03309D03*
Y01977D03*
X03604Y02142D03*
G54D16*
X03194Y02157D03*
X03234D03*
X03274D03*
X03319D03*
X03339Y02192D03*
Y02232D03*
X03439D03*
Y02197D03*
X03479D03*
X03514Y02167D03*
X03484Y02127D03*
X03449D03*
Y02087D03*
X03484D03*
X03404Y02057D03*
X03364D03*
X03314D03*
X03279D03*
X03244D03*
G54D15*
X03069Y01828D03*
X03024D03*
X02979D03*
X02939Y01848D03*
X02914Y01873D03*
X02814Y01898D03*
X02789Y01928D03*
X02779Y01968D03*
X02799Y02002D03*
X02819Y02022D03*
X02874D03*
G54D16*
X03154Y02157D03*
X03114D03*
X03074D03*
X03034D03*
G54D15*
X03104Y01843D03*
X03114Y01878D03*
X03104Y01908D03*
X03069Y01928D03*
X03034D03*
X03004D03*
Y01963D03*
X03134Y01977D03*
X03179Y01858D03*
X03004Y02032D03*
X03024Y02057D03*
X03064D03*
X03104D03*
X03149D03*
X03189D03*
G54D16*
X02964Y02137D03*
X02939Y02112D03*
X02914Y02087D03*
X02904Y02047D03*
Y02007D03*
Y01908D03*
X02999Y02157D03*
G54D15*
X02869Y01898D03*
G36*
X01168Y02778D02*
X00218D01*
Y03052*
X00233*
X00238Y03029*
X00251Y0301*
X00263Y03002*
X00251Y02994*
X00238Y02975*
X00233Y02952*
X00238Y02929*
X00251Y0291*
X00263Y02902*
X00251Y02894*
X00238Y02875*
X00233Y02852*
X00238Y02829*
X00251Y0281*
X0027Y02797*
X00287Y02794*
X00299*
X00316Y02797*
X00335Y0281*
X00348Y02829*
X00353Y02852*
X00348Y02875*
X00335Y02894*
X00324Y02902*
X00335Y0291*
X00348Y02929*
X00353Y02952*
X00348Y02975*
X00335Y02994*
X00324Y03002*
X00335Y0301*
X00348Y03029*
X00353Y03052*
X00348Y03075*
X00335Y03094*
X00323Y03103*
X00328Y03105*
X00343Y03122*
X0035Y03138*
X00345Y03147*
X00298*
Y03147*
X00288*
Y03147*
X00241*
X00236Y03138*
X00243Y03122*
X00258Y03105*
X00264Y03103*
X00251Y03094*
X00238Y03075*
X00233Y03052*
X00218*
Y03252*
X00233*
X00238Y03229*
X00251Y0321*
X00264Y03202*
X00258Y03199*
X00243Y03182*
X00236Y03166*
X00241Y03157*
X00288*
Y03158*
X00298*
Y03157*
X00345*
X0035Y03166*
X00343Y03182*
X00328Y03199*
X00323Y03202*
X00335Y0321*
X00348Y03229*
X00353Y03252*
X01033*
X01038Y03229*
X01051Y0321*
X01063Y03202*
X01051Y03194*
X01038Y03175*
X01033Y03152*
X01038Y03129*
X01051Y0311*
X01063Y03102*
X01051Y03094*
X01038Y03075*
X01033Y03052*
X01038Y03029*
X01051Y0301*
X01063Y03002*
X01051Y02994*
X01038Y02975*
X01033Y02952*
X01038Y02929*
X01051Y0291*
X01063Y02902*
X01051Y02894*
X01038Y02875*
X01033Y02852*
X01038Y02829*
X01051Y0281*
X0107Y02797*
X01087Y02794*
X01099*
X01116Y02797*
X01135Y0281*
X01148Y02829*
X01153Y02852*
X01148Y02875*
X01135Y02894*
X01124Y02902*
X01135Y0291*
X01148Y02929*
X01153Y02952*
X01148Y02975*
X01135Y02994*
X01124Y03002*
X01135Y0301*
X01148Y03029*
X01153Y03052*
X01148Y03075*
X01135Y03094*
X01124Y03102*
X01135Y0311*
X01148Y03129*
X01153Y03152*
X01148Y03175*
X01135Y03194*
X01124Y03202*
X01135Y0321*
X01148Y03229*
X01153Y03252*
X01148Y03275*
X01135Y03294*
X01135Y03295*
X01136Y03295*
X01145Y03301*
X0115Y03309*
X01152Y03319*
Y03386*
X0115Y03396*
X01145Y03404*
X01136Y03409*
X01127Y03411*
X0106*
X0105Y03409*
X01042Y03404*
X01036Y03396*
X01034Y03386*
Y03319*
X01036Y03309*
X01042Y03301*
X0105Y03295*
X01052Y03295*
X01051Y03294*
X01038Y03275*
X01033Y03252*
X00353*
X00348Y03275*
X00335Y03294*
X00334Y03295*
X00341Y03298*
X00348Y03305*
X00352Y03314*
Y03341*
X00345Y03347*
X00298*
Y03347*
X00288*
Y03347*
X00241*
X00235Y03341*
Y03314*
X00238Y03305*
X00245Y03298*
X00252Y03295*
X00251Y03294*
X00238Y03275*
X00233Y03252*
X00218*
Y03391*
X00235*
Y03364*
X00241Y03357*
X00288*
Y03405*
X00298*
Y03357*
X00345*
X00352Y03364*
Y03391*
X00348Y034*
X00341Y03407*
X00332Y03411*
X00304*
X00298Y03405*
X00288*
X00282Y03411*
X00255*
X00245Y03407*
X00238Y034*
X00235Y03391*
X00218*
Y03438*
X00793*
X00794Y0342*
X00799Y0341*
X00807Y03408*
X0081Y03411*
X00817Y03404*
X00814Y03401*
X00816Y03393*
X00832Y03387*
X0085Y03388*
X00861Y03393*
X00862Y03401*
X00859Y03404*
X00866Y03411*
X00869Y03408*
X00878Y0341*
X00883Y03427*
X00882Y03444*
X00878Y03455*
X00869Y03456*
X00866Y03453*
X00859Y0346*
X00862Y03463*
X00861Y03472*
X00844Y03478*
X00826Y03476*
X00816Y03472*
X00814Y03463*
X00817Y0346*
X0081Y03453*
X00807Y03456*
X00799Y03455*
X00793Y03438*
X00218*
Y03542*
X01168*
Y02778*
G37*
G54D17*
X01168Y02778D02*
X00218D01*
Y03052*
X00233*
X00238Y03029*
X00251Y0301*
X00263Y03002*
X00251Y02994*
X00238Y02975*
X00233Y02952*
X00238Y02929*
X00251Y0291*
X00263Y02902*
X00251Y02894*
X00238Y02875*
X00233Y02852*
X00238Y02829*
X00251Y0281*
X0027Y02797*
X00287Y02794*
X00299*
X00316Y02797*
X00335Y0281*
X00348Y02829*
X00353Y02852*
X00348Y02875*
X00335Y02894*
X00324Y02902*
X00335Y0291*
X00348Y02929*
X00353Y02952*
X00348Y02975*
X00335Y02994*
X00324Y03002*
X00335Y0301*
X00348Y03029*
X00353Y03052*
X00348Y03075*
X00335Y03094*
X00323Y03103*
X00328Y03105*
X00343Y03122*
X0035Y03138*
X00345Y03147*
X00298*
Y03147*
X00288*
Y03147*
X00241*
X00236Y03138*
X00243Y03122*
X00258Y03105*
X00264Y03103*
X00251Y03094*
X00238Y03075*
X00233Y03052*
X00218*
Y03252*
X00233*
X00238Y03229*
X00251Y0321*
X00264Y03202*
X00258Y03199*
X00243Y03182*
X00236Y03166*
X00241Y03157*
X00288*
Y03158*
X00298*
Y03157*
X00345*
X0035Y03166*
X00343Y03182*
X00328Y03199*
X00323Y03202*
X00335Y0321*
X00348Y03229*
X00353Y03252*
X01033*
X01038Y03229*
X01051Y0321*
X01063Y03202*
X01051Y03194*
X01038Y03175*
X01033Y03152*
X01038Y03129*
X01051Y0311*
X01063Y03102*
X01051Y03094*
X01038Y03075*
X01033Y03052*
X01038Y03029*
X01051Y0301*
X01063Y03002*
X01051Y02994*
X01038Y02975*
X01033Y02952*
X01038Y02929*
X01051Y0291*
X01063Y02902*
X01051Y02894*
X01038Y02875*
X01033Y02852*
X01038Y02829*
X01051Y0281*
X0107Y02797*
X01087Y02794*
X01099*
X01116Y02797*
X01135Y0281*
X01148Y02829*
X01153Y02852*
X01148Y02875*
X01135Y02894*
X01124Y02902*
X01135Y0291*
X01148Y02929*
X01153Y02952*
X01148Y02975*
X01135Y02994*
X01124Y03002*
X01135Y0301*
X01148Y03029*
X01153Y03052*
X01148Y03075*
X01135Y03094*
X01124Y03102*
X01135Y0311*
X01148Y03129*
X01153Y03152*
X01148Y03175*
X01135Y03194*
X01124Y03202*
X01135Y0321*
X01148Y03229*
X01153Y03252*
X01148Y03275*
X01135Y03294*
X01135Y03295*
X01136Y03295*
X01145Y03301*
X0115Y03309*
X01152Y03319*
Y03386*
X0115Y03396*
X01145Y03404*
X01136Y03409*
X01127Y03411*
X0106*
X0105Y03409*
X01042Y03404*
X01036Y03396*
X01034Y03386*
Y03319*
X01036Y03309*
X01042Y03301*
X0105Y03295*
X01052Y03295*
X01051Y03294*
X01038Y03275*
X01033Y03252*
X00353*
X00348Y03275*
X00335Y03294*
X00334Y03295*
X00341Y03298*
X00348Y03305*
X00352Y03314*
Y03341*
X00345Y03347*
X00298*
Y03347*
X00288*
Y03347*
X00241*
X00235Y03341*
Y03314*
X00238Y03305*
X00245Y03298*
X00252Y03295*
X00251Y03294*
X00238Y03275*
X00233Y03252*
X00218*
Y03391*
X00235*
Y03364*
X00241Y03357*
X00288*
Y03405*
X00298*
Y03357*
X00345*
X00352Y03364*
Y03391*
X00348Y034*
X00341Y03407*
X00332Y03411*
X00304*
X00298Y03405*
X00288*
X00282Y03411*
X00255*
X00245Y03407*
X00238Y034*
X00235Y03391*
X00218*
Y03438*
X00793*
X00794Y0342*
X00799Y0341*
X00807Y03408*
X0081Y03411*
X00817Y03404*
X00814Y03401*
X00816Y03393*
X00832Y03387*
X0085Y03388*
X00861Y03393*
X00862Y03401*
X00859Y03404*
X00866Y03411*
X00869Y03408*
X00878Y0341*
X00883Y03427*
X00882Y03444*
X00878Y03455*
X00869Y03456*
X00866Y03453*
X00859Y0346*
X00862Y03463*
X00861Y03472*
X00844Y03478*
X00826Y03476*
X00816Y03472*
X00814Y03463*
X00817Y0346*
X0081Y03453*
X00807Y03456*
X00799Y03455*
X00793Y03438*
X00218*
Y03542*
X01168*
Y02778*
G54D11*
X00838Y03432D03*
G54D12*
X00293Y02852D03*
Y02952D03*
Y03052D03*
Y03152D03*
Y03252D03*
G54D13*
X00293Y03352D03*
X01093D03*
G54D12*
X01093Y03252D03*
Y03152D03*
Y03052D03*
Y02952D03*
Y02852D03*
G54D14*
X00921Y03544D03*
G54D15*
X00228Y03507D03*
X00392D03*
X00536D03*
X0068D03*
X01158D03*
X00228Y03366D03*
X01158D03*
X0068Y03224D03*
X00824D03*
X01158D03*
X00228Y03082D03*
X00392D03*
X00536D03*
X0068D03*
X00824D03*
X01158D03*
X00228Y0294D03*
X0068D03*
X00824D03*
X01158D03*
X00228Y02799D03*
X00392D03*
X00536D03*
X0068D03*
X00824D03*
X00969D03*
X01158D03*
Y0301D03*
Y02869D03*
Y03152D03*
Y03294D03*
Y03436D03*
X00328Y02797D03*
X0075Y02799D03*
X01058D03*
X00894D03*
X00462D03*
X00606D03*
X00228Y02869D03*
Y03152D03*
Y0301D03*
Y03436D03*
X00466Y03507D03*
X0061D03*
X00322D03*
X01016D03*
X0109D03*
X00323Y03437D03*
X00453Y03292D03*
X00758Y03152D03*
Y03012D03*
X00583Y03017D03*
Y02877D03*
X00758D03*
Y03272D03*
X01053Y03437D03*
G54D16*
X00643Y03452D03*
X00683D03*
X00723D03*
X00768D03*
X00788Y03487D03*
Y03527D03*
X00888D03*
Y03492D03*
X00928D03*
X00963Y03462D03*
X00933Y03422D03*
X00898D03*
Y03382D03*
X00933D03*
X00853Y03352D03*
X00813D03*
X00763D03*
X00728D03*
X00693D03*
G54D15*
X00518Y03122D03*
X00473D03*
X00428D03*
X00388Y03142D03*
X00363Y03167D03*
X00263Y03192D03*
X00238Y03222D03*
X00228Y03262D03*
X00248Y03297D03*
X00268Y03317D03*
X00323D03*
G54D16*
X00603Y03452D03*
X00563D03*
X00523D03*
X00483D03*
G54D15*
X00553Y03137D03*
X00563Y03172D03*
X00553Y03202D03*
X00518Y03222D03*
X00483D03*
X00453D03*
Y03257D03*
X00583Y03272D03*
X00628Y03152D03*
X00453Y03327D03*
X00473Y03352D03*
X00513D03*
X00553D03*
X00598D03*
X00638D03*
G54D16*
X00413Y03432D03*
X00388Y03407D03*
X00363Y03382D03*
X00353Y03342D03*
Y03302D03*
Y03202D03*
X00448Y03452D03*
G54D15*
X00318Y03192D03*
G36*
X02443Y02778D02*
X01494D01*
Y03052*
X01509*
X01514Y03029*
X01527Y0301*
X01539Y03002*
X01527Y02994*
X01514Y02975*
X01509Y02952*
X01514Y02929*
X01527Y0291*
X01539Y02902*
X01527Y02894*
X01514Y02875*
X01509Y02852*
X01514Y02829*
X01527Y0281*
X01546Y02797*
X01563Y02794*
X01575*
X01592Y02797*
X01611Y0281*
X01624Y02829*
X01629Y02852*
X01624Y02875*
X01611Y02894*
X01599Y02902*
X01611Y0291*
X01624Y02929*
X01629Y02952*
X01624Y02975*
X01611Y02994*
X01599Y03002*
X01611Y0301*
X01624Y03029*
X01629Y03052*
X01624Y03075*
X01611Y03094*
X01599Y03103*
X01604Y03105*
X01619Y03122*
X01626Y03138*
X01621Y03147*
X01574*
Y03147*
X01564*
Y03147*
X01517*
X01512Y03138*
X01519Y03122*
X01534Y03105*
X01539Y03103*
X01527Y03094*
X01514Y03075*
X01509Y03052*
X01494*
Y03252*
X01509*
X01514Y03229*
X01527Y0321*
X01539Y03202*
X01534Y03199*
X01519Y03182*
X01512Y03166*
X01517Y03157*
X01564*
Y03158*
X01574*
Y03157*
X01621*
X01626Y03166*
X01619Y03182*
X01604Y03199*
X01599Y03202*
X01611Y0321*
X01624Y03229*
X01629Y03252*
X02308*
X02313Y03229*
X02326Y0321*
X02338Y03202*
X02326Y03194*
X02313Y03175*
X02308Y03152*
X02313Y03129*
X02326Y0311*
X02338Y03102*
X02326Y03094*
X02313Y03075*
X02308Y03052*
X02313Y03029*
X02326Y0301*
X02338Y03002*
X02326Y02994*
X02313Y02975*
X02308Y02952*
X02313Y02929*
X02326Y0291*
X02338Y02902*
X02326Y02894*
X02313Y02875*
X02308Y02852*
X02313Y02829*
X02326Y0281*
X02345Y02797*
X02362Y02794*
X02374*
X02391Y02797*
X0241Y0281*
X02423Y02829*
X02428Y02852*
X02423Y02875*
X0241Y02894*
X02398Y02902*
X0241Y0291*
X02423Y02929*
X02428Y02952*
X02423Y02975*
X0241Y02994*
X02398Y03002*
X0241Y0301*
X02423Y03029*
X02428Y03052*
X02423Y03075*
X0241Y03094*
X02398Y03102*
X0241Y0311*
X02423Y03129*
X02428Y03152*
X02423Y03175*
X0241Y03194*
X02398Y03202*
X0241Y0321*
X02423Y03229*
X02428Y03252*
X02423Y03275*
X0241Y03294*
X02409Y03295*
X02411Y03295*
X02419Y03301*
X02425Y03309*
X02427Y03319*
Y03386*
X02425Y03396*
X02419Y03404*
X02411Y03409*
X02401Y03411*
X02334*
X02325Y03409*
X02316Y03404*
X02311Y03396*
X02309Y03386*
Y03319*
X02311Y03309*
X02316Y03301*
X02325Y03295*
X02327Y03295*
X02326Y03294*
X02313Y03275*
X02308Y03252*
X01629*
X01624Y03275*
X01611Y03294*
X0161Y03295*
X01617Y03298*
X01624Y03305*
X01627Y03314*
Y03341*
X01621Y03347*
X01574*
Y03347*
X01564*
Y03347*
X01517*
X0151Y03341*
Y03314*
X01514Y03305*
X01521Y03298*
X01528Y03295*
X01527Y03294*
X01514Y03275*
X01509Y03252*
X01494*
Y03391*
X0151*
Y03364*
X01517Y03357*
X01564*
Y03405*
X01574*
Y03357*
X01621*
X01627Y03364*
Y03391*
X01624Y034*
X01617Y03407*
X01607Y03411*
X0158*
X01574Y03405*
X01564*
X01558Y03411*
X01531*
X01521Y03407*
X01514Y034*
X0151Y03391*
X01494*
Y03438*
X02068*
X02069Y0342*
X02073Y0341*
X02082Y03408*
X02085Y03411*
X02092Y03404*
X02089Y03401*
X0209Y03393*
X02107Y03387*
X02125Y03388*
X02136Y03393*
X02137Y03401*
X02134Y03404*
X02141Y03411*
X02144Y03408*
X02153Y0341*
X02158Y03427*
X02157Y03444*
X02153Y03455*
X02144Y03456*
X02141Y03453*
X02134Y0346*
X02137Y03463*
X02136Y03472*
X02119Y03478*
X02101Y03476*
X0209Y03472*
X02089Y03463*
X02092Y0346*
X02085Y03453*
X02082Y03456*
X02073Y03455*
X02068Y03438*
X01494*
Y03542*
X02443*
Y02778*
G37*
G54D17*
X02443Y02778D02*
X01494D01*
Y03052*
X01509*
X01514Y03029*
X01527Y0301*
X01539Y03002*
X01527Y02994*
X01514Y02975*
X01509Y02952*
X01514Y02929*
X01527Y0291*
X01539Y02902*
X01527Y02894*
X01514Y02875*
X01509Y02852*
X01514Y02829*
X01527Y0281*
X01546Y02797*
X01563Y02794*
X01575*
X01592Y02797*
X01611Y0281*
X01624Y02829*
X01629Y02852*
X01624Y02875*
X01611Y02894*
X01599Y02902*
X01611Y0291*
X01624Y02929*
X01629Y02952*
X01624Y02975*
X01611Y02994*
X01599Y03002*
X01611Y0301*
X01624Y03029*
X01629Y03052*
X01624Y03075*
X01611Y03094*
X01599Y03103*
X01604Y03105*
X01619Y03122*
X01626Y03138*
X01621Y03147*
X01574*
Y03147*
X01564*
Y03147*
X01517*
X01512Y03138*
X01519Y03122*
X01534Y03105*
X01539Y03103*
X01527Y03094*
X01514Y03075*
X01509Y03052*
X01494*
Y03252*
X01509*
X01514Y03229*
X01527Y0321*
X01539Y03202*
X01534Y03199*
X01519Y03182*
X01512Y03166*
X01517Y03157*
X01564*
Y03158*
X01574*
Y03157*
X01621*
X01626Y03166*
X01619Y03182*
X01604Y03199*
X01599Y03202*
X01611Y0321*
X01624Y03229*
X01629Y03252*
X02308*
X02313Y03229*
X02326Y0321*
X02338Y03202*
X02326Y03194*
X02313Y03175*
X02308Y03152*
X02313Y03129*
X02326Y0311*
X02338Y03102*
X02326Y03094*
X02313Y03075*
X02308Y03052*
X02313Y03029*
X02326Y0301*
X02338Y03002*
X02326Y02994*
X02313Y02975*
X02308Y02952*
X02313Y02929*
X02326Y0291*
X02338Y02902*
X02326Y02894*
X02313Y02875*
X02308Y02852*
X02313Y02829*
X02326Y0281*
X02345Y02797*
X02362Y02794*
X02374*
X02391Y02797*
X0241Y0281*
X02423Y02829*
X02428Y02852*
X02423Y02875*
X0241Y02894*
X02398Y02902*
X0241Y0291*
X02423Y02929*
X02428Y02952*
X02423Y02975*
X0241Y02994*
X02398Y03002*
X0241Y0301*
X02423Y03029*
X02428Y03052*
X02423Y03075*
X0241Y03094*
X02398Y03102*
X0241Y0311*
X02423Y03129*
X02428Y03152*
X02423Y03175*
X0241Y03194*
X02398Y03202*
X0241Y0321*
X02423Y03229*
X02428Y03252*
X02423Y03275*
X0241Y03294*
X02409Y03295*
X02411Y03295*
X02419Y03301*
X02425Y03309*
X02427Y03319*
Y03386*
X02425Y03396*
X02419Y03404*
X02411Y03409*
X02401Y03411*
X02334*
X02325Y03409*
X02316Y03404*
X02311Y03396*
X02309Y03386*
Y03319*
X02311Y03309*
X02316Y03301*
X02325Y03295*
X02327Y03295*
X02326Y03294*
X02313Y03275*
X02308Y03252*
X01629*
X01624Y03275*
X01611Y03294*
X0161Y03295*
X01617Y03298*
X01624Y03305*
X01627Y03314*
Y03341*
X01621Y03347*
X01574*
Y03347*
X01564*
Y03347*
X01517*
X0151Y03341*
Y03314*
X01514Y03305*
X01521Y03298*
X01528Y03295*
X01527Y03294*
X01514Y03275*
X01509Y03252*
X01494*
Y03391*
X0151*
Y03364*
X01517Y03357*
X01564*
Y03405*
X01574*
Y03357*
X01621*
X01627Y03364*
Y03391*
X01624Y034*
X01617Y03407*
X01607Y03411*
X0158*
X01574Y03405*
X01564*
X01558Y03411*
X01531*
X01521Y03407*
X01514Y034*
X0151Y03391*
X01494*
Y03438*
X02068*
X02069Y0342*
X02073Y0341*
X02082Y03408*
X02085Y03411*
X02092Y03404*
X02089Y03401*
X0209Y03393*
X02107Y03387*
X02125Y03388*
X02136Y03393*
X02137Y03401*
X02134Y03404*
X02141Y03411*
X02144Y03408*
X02153Y0341*
X02158Y03427*
X02157Y03444*
X02153Y03455*
X02144Y03456*
X02141Y03453*
X02134Y0346*
X02137Y03463*
X02136Y03472*
X02119Y03478*
X02101Y03476*
X0209Y03472*
X02089Y03463*
X02092Y0346*
X02085Y03453*
X02082Y03456*
X02073Y03455*
X02068Y03438*
X01494*
Y03542*
X02443*
Y02778*
G54D11*
X02113Y03432D03*
G54D12*
X01569Y02852D03*
Y02952D03*
Y03052D03*
Y03152D03*
Y03252D03*
G54D13*
X01569Y03352D03*
X02368D03*
G54D12*
X02368Y03252D03*
Y03152D03*
Y03052D03*
Y02952D03*
Y02852D03*
G54D14*
X02196Y03544D03*
G54D15*
X01504Y03507D03*
X01668D03*
X01812D03*
X01956D03*
X02433D03*
X01504Y03366D03*
X02433D03*
X01956Y03224D03*
X02099D03*
X02433D03*
X01504Y03082D03*
X01668D03*
X01812D03*
X01956D03*
X02099D03*
X02433D03*
X01504Y0294D03*
X01956D03*
X02099D03*
X02433D03*
X01504Y02799D03*
X01668D03*
X01812D03*
X01956D03*
X02099D03*
X02243D03*
X02433D03*
Y0301D03*
Y02869D03*
Y03152D03*
Y03294D03*
Y03436D03*
X01604Y02797D03*
X02025Y02799D03*
X02333D03*
X02169D03*
X01738D03*
X01882D03*
X01504Y02869D03*
Y03152D03*
Y0301D03*
Y03436D03*
X01742Y03507D03*
X01886D03*
X01598D03*
X02291D03*
X02365D03*
X01599Y03437D03*
X01729Y03292D03*
X02033Y03152D03*
Y03012D03*
X01859Y03017D03*
Y02877D03*
X02033D03*
Y03272D03*
X02328Y03437D03*
G54D16*
X01919Y03452D03*
X01959D03*
X01998D03*
X02043D03*
X02063Y03487D03*
Y03527D03*
X02163D03*
Y03492D03*
X02203D03*
X02238Y03462D03*
X02208Y03422D03*
X02173D03*
Y03382D03*
X02208D03*
X02128Y03352D03*
X02088D03*
X02038D03*
X02003D03*
X01968D03*
G54D15*
X01794Y03122D03*
X01749D03*
X01704D03*
X01664Y03142D03*
X01639Y03167D03*
X01539Y03192D03*
X01514Y03222D03*
X01504Y03262D03*
X01524Y03297D03*
X01544Y03317D03*
X01599D03*
G54D16*
X01879Y03452D03*
X01839D03*
X01799D03*
X01759D03*
G54D15*
X01829Y03137D03*
X01839Y03172D03*
X01829Y03202D03*
X01794Y03222D03*
X01759D03*
X01729D03*
Y03257D03*
X01859Y03272D03*
X01904Y03152D03*
X01729Y03327D03*
X01749Y03352D03*
X01789D03*
X01829D03*
X01874D03*
X01914D03*
G54D16*
X01689Y03432D03*
X01664Y03407D03*
X01639Y03382D03*
X01629Y03342D03*
Y03302D03*
Y03202D03*
X01724Y03452D03*
G54D15*
X01594Y03192D03*
G36*
X03719Y02778D02*
X02769D01*
Y03052*
X02784*
X02789Y03029*
X02802Y0301*
X02813Y03002*
X02802Y02994*
X02789Y02975*
X02784Y02952*
X02789Y02929*
X02802Y0291*
X02813Y02902*
X02802Y02894*
X02789Y02875*
X02784Y02852*
X02789Y02829*
X02802Y0281*
X02821Y02797*
X02838Y02794*
X0285*
X02867Y02797*
X02886Y0281*
X02899Y02829*
X02903Y02852*
X02899Y02875*
X02886Y02894*
X02874Y02902*
X02886Y0291*
X02899Y02929*
X02903Y02952*
X02899Y02975*
X02886Y02994*
X02874Y03002*
X02886Y0301*
X02899Y03029*
X02903Y03052*
X02899Y03075*
X02886Y03094*
X02873Y03103*
X02879Y03105*
X02894Y03122*
X02901Y03138*
X02896Y03147*
X02849*
Y03147*
X02839*
Y03147*
X02792*
X02787Y03138*
X02794Y03122*
X02809Y03105*
X02814Y03103*
X02802Y03094*
X02789Y03075*
X02784Y03052*
X02769*
Y03252*
X02784*
X02789Y03229*
X02802Y0321*
X02814Y03202*
X02809Y03199*
X02794Y03182*
X02787Y03166*
X02792Y03157*
X02839*
Y03158*
X02849*
Y03157*
X02896*
X02901Y03166*
X02894Y03182*
X02879Y03199*
X02873Y03202*
X02886Y0321*
X02899Y03229*
X02903Y03252*
X03584*
X03589Y03229*
X03602Y0321*
X03613Y03202*
X03602Y03194*
X03589Y03175*
X03584Y03152*
X03589Y03129*
X03602Y0311*
X03613Y03102*
X03602Y03094*
X03589Y03075*
X03584Y03052*
X03589Y03029*
X03602Y0301*
X03613Y03002*
X03602Y02994*
X03589Y02975*
X03584Y02952*
X03589Y02929*
X03602Y0291*
X03613Y02902*
X03602Y02894*
X03589Y02875*
X03584Y02852*
X03589Y02829*
X03602Y0281*
X03621Y02797*
X03638Y02794*
X0365*
X03667Y02797*
X03686Y0281*
X03699Y02829*
X03703Y02852*
X03699Y02875*
X03686Y02894*
X03674Y02902*
X03686Y0291*
X03699Y02929*
X03703Y02952*
X03699Y02975*
X03686Y02994*
X03674Y03002*
X03686Y0301*
X03699Y03029*
X03703Y03052*
X03699Y03075*
X03686Y03094*
X03674Y03102*
X03686Y0311*
X03699Y03129*
X03703Y03152*
X03699Y03175*
X03686Y03194*
X03674Y03202*
X03686Y0321*
X03699Y03229*
X03703Y03252*
X03699Y03275*
X03686Y03294*
X03685Y03295*
X03687Y03295*
X03695Y03301*
X03701Y03309*
X03703Y03319*
Y03386*
X03701Y03396*
X03695Y03404*
X03687Y03409*
X03677Y03411*
X0361*
X03601Y03409*
X03592Y03404*
X03587Y03396*
X03585Y03386*
Y03319*
X03587Y03309*
X03592Y03301*
X03601Y03295*
X03602Y03295*
X03602Y03294*
X03589Y03275*
X03584Y03252*
X02903*
X02899Y03275*
X02886Y03294*
X02885Y03295*
X02891Y03298*
X02898Y03305*
X02902Y03314*
Y03341*
X02896Y03347*
X02849*
Y03347*
X02839*
Y03347*
X02792*
X02785Y03341*
Y03314*
X02789Y03305*
X02796Y03298*
X02803Y03295*
X02802Y03294*
X02789Y03275*
X02784Y03252*
X02769*
Y03391*
X02785*
Y03364*
X02792Y03357*
X02839*
Y03405*
X02849*
Y03357*
X02896*
X02902Y03364*
Y03391*
X02898Y034*
X02891Y03407*
X02882Y03411*
X02855*
X02849Y03405*
X02839*
X02833Y03411*
X02805*
X02796Y03407*
X02789Y034*
X02785Y03391*
X02769*
Y03438*
X03344*
X03345Y0342*
X03349Y0341*
X03358Y03408*
X03361Y03411*
X03368Y03404*
X03365Y03401*
X03366Y03393*
X03383Y03387*
X03401Y03388*
X03411Y03393*
X03413Y03401*
X0341Y03404*
X03417Y03411*
X0342Y03408*
X03428Y0341*
X03434Y03427*
X03433Y03444*
X03428Y03455*
X0342Y03456*
X03417Y03453*
X0341Y0346*
X03413Y03463*
X03411Y03472*
X03395Y03478*
X03377Y03476*
X03366Y03472*
X03365Y03463*
X03368Y0346*
X03361Y03453*
X03358Y03456*
X03349Y03455*
X03344Y03438*
X02769*
Y03542*
X03719*
Y02778*
G37*
G54D17*
X03719Y02778D02*
X02769D01*
Y03052*
X02784*
X02789Y03029*
X02802Y0301*
X02813Y03002*
X02802Y02994*
X02789Y02975*
X02784Y02952*
X02789Y02929*
X02802Y0291*
X02813Y02902*
X02802Y02894*
X02789Y02875*
X02784Y02852*
X02789Y02829*
X02802Y0281*
X02821Y02797*
X02838Y02794*
X0285*
X02867Y02797*
X02886Y0281*
X02899Y02829*
X02903Y02852*
X02899Y02875*
X02886Y02894*
X02874Y02902*
X02886Y0291*
X02899Y02929*
X02903Y02952*
X02899Y02975*
X02886Y02994*
X02874Y03002*
X02886Y0301*
X02899Y03029*
X02903Y03052*
X02899Y03075*
X02886Y03094*
X02873Y03103*
X02879Y03105*
X02894Y03122*
X02901Y03138*
X02896Y03147*
X02849*
Y03147*
X02839*
Y03147*
X02792*
X02787Y03138*
X02794Y03122*
X02809Y03105*
X02814Y03103*
X02802Y03094*
X02789Y03075*
X02784Y03052*
X02769*
Y03252*
X02784*
X02789Y03229*
X02802Y0321*
X02814Y03202*
X02809Y03199*
X02794Y03182*
X02787Y03166*
X02792Y03157*
X02839*
Y03158*
X02849*
Y03157*
X02896*
X02901Y03166*
X02894Y03182*
X02879Y03199*
X02873Y03202*
X02886Y0321*
X02899Y03229*
X02903Y03252*
X03584*
X03589Y03229*
X03602Y0321*
X03613Y03202*
X03602Y03194*
X03589Y03175*
X03584Y03152*
X03589Y03129*
X03602Y0311*
X03613Y03102*
X03602Y03094*
X03589Y03075*
X03584Y03052*
X03589Y03029*
X03602Y0301*
X03613Y03002*
X03602Y02994*
X03589Y02975*
X03584Y02952*
X03589Y02929*
X03602Y0291*
X03613Y02902*
X03602Y02894*
X03589Y02875*
X03584Y02852*
X03589Y02829*
X03602Y0281*
X03621Y02797*
X03638Y02794*
X0365*
X03667Y02797*
X03686Y0281*
X03699Y02829*
X03703Y02852*
X03699Y02875*
X03686Y02894*
X03674Y02902*
X03686Y0291*
X03699Y02929*
X03703Y02952*
X03699Y02975*
X03686Y02994*
X03674Y03002*
X03686Y0301*
X03699Y03029*
X03703Y03052*
X03699Y03075*
X03686Y03094*
X03674Y03102*
X03686Y0311*
X03699Y03129*
X03703Y03152*
X03699Y03175*
X03686Y03194*
X03674Y03202*
X03686Y0321*
X03699Y03229*
X03703Y03252*
X03699Y03275*
X03686Y03294*
X03685Y03295*
X03687Y03295*
X03695Y03301*
X03701Y03309*
X03703Y03319*
Y03386*
X03701Y03396*
X03695Y03404*
X03687Y03409*
X03677Y03411*
X0361*
X03601Y03409*
X03592Y03404*
X03587Y03396*
X03585Y03386*
Y03319*
X03587Y03309*
X03592Y03301*
X03601Y03295*
X03602Y03295*
X03602Y03294*
X03589Y03275*
X03584Y03252*
X02903*
X02899Y03275*
X02886Y03294*
X02885Y03295*
X02891Y03298*
X02898Y03305*
X02902Y03314*
Y03341*
X02896Y03347*
X02849*
Y03347*
X02839*
Y03347*
X02792*
X02785Y03341*
Y03314*
X02789Y03305*
X02796Y03298*
X02803Y03295*
X02802Y03294*
X02789Y03275*
X02784Y03252*
X02769*
Y03391*
X02785*
Y03364*
X02792Y03357*
X02839*
Y03405*
X02849*
Y03357*
X02896*
X02902Y03364*
Y03391*
X02898Y034*
X02891Y03407*
X02882Y03411*
X02855*
X02849Y03405*
X02839*
X02833Y03411*
X02805*
X02796Y03407*
X02789Y034*
X02785Y03391*
X02769*
Y03438*
X03344*
X03345Y0342*
X03349Y0341*
X03358Y03408*
X03361Y03411*
X03368Y03404*
X03365Y03401*
X03366Y03393*
X03383Y03387*
X03401Y03388*
X03411Y03393*
X03413Y03401*
X0341Y03404*
X03417Y03411*
X0342Y03408*
X03428Y0341*
X03434Y03427*
X03433Y03444*
X03428Y03455*
X0342Y03456*
X03417Y03453*
X0341Y0346*
X03413Y03463*
X03411Y03472*
X03395Y03478*
X03377Y03476*
X03366Y03472*
X03365Y03463*
X03368Y0346*
X03361Y03453*
X03358Y03456*
X03349Y03455*
X03344Y03438*
X02769*
Y03542*
X03719*
Y02778*
G54D11*
X03389Y03432D03*
G54D12*
X02844Y02852D03*
Y02952D03*
Y03052D03*
Y03152D03*
Y03252D03*
G54D13*
X02844Y03352D03*
X03644D03*
G54D12*
X03644Y03252D03*
Y03152D03*
Y03052D03*
Y02952D03*
Y02852D03*
G54D14*
X03471Y03544D03*
G54D15*
X02779Y03507D03*
X02943D03*
X03087D03*
X03231D03*
X03708D03*
X02779Y03366D03*
X03708D03*
X03231Y03224D03*
X03375D03*
X03708D03*
X02779Y03082D03*
X02943D03*
X03087D03*
X03231D03*
X03375D03*
X03708D03*
X02779Y0294D03*
X03231D03*
X03375D03*
X03708D03*
X02779Y02799D03*
X02943D03*
X03087D03*
X03231D03*
X03375D03*
X03519D03*
X03708D03*
Y0301D03*
Y02869D03*
Y03152D03*
Y03294D03*
Y03436D03*
X02879Y02797D03*
X03301Y02799D03*
X03609D03*
X03445D03*
X03013D03*
X03157D03*
X02779Y02869D03*
Y03152D03*
Y0301D03*
Y03436D03*
X03017Y03507D03*
X03161D03*
X02873D03*
X03567D03*
X03641D03*
X02874Y03437D03*
X03004Y03292D03*
X03309Y03152D03*
Y03012D03*
X03134Y03017D03*
Y02877D03*
X03309D03*
Y03272D03*
X03604Y03437D03*
G54D16*
X03194Y03452D03*
X03234D03*
X03274D03*
X03319D03*
X03339Y03487D03*
Y03527D03*
X03439D03*
Y03492D03*
X03479D03*
X03514Y03462D03*
X03484Y03422D03*
X03449D03*
Y03382D03*
X03484D03*
X03404Y03352D03*
X03364D03*
X03314D03*
X03279D03*
X03244D03*
G54D15*
X03069Y03122D03*
X03024D03*
X02979D03*
X02939Y03142D03*
X02914Y03167D03*
X02814Y03192D03*
X02789Y03222D03*
X02779Y03262D03*
X02799Y03297D03*
X02819Y03317D03*
X02874D03*
G54D16*
X03154Y03452D03*
X03114D03*
X03074D03*
X03034D03*
G54D15*
X03104Y03137D03*
X03114Y03172D03*
X03104Y03202D03*
X03069Y03222D03*
X03034D03*
X03004D03*
Y03257D03*
X03134Y03272D03*
X03179Y03152D03*
X03004Y03327D03*
X03024Y03352D03*
X03064D03*
X03104D03*
X03149D03*
X03189D03*
G54D16*
X02964Y03432D03*
X02939Y03407D03*
X02914Y03382D03*
X02904Y03342D03*
Y03302D03*
Y03202D03*
X02999Y03452D03*
G54D15*
X02869Y03192D03*
M02*