%FSTAX23Y23*%
%MOIN*%
%SFA1B1*%

%IPPOS*%
%ADD19C,0.005905*%
%ADD20C,0.011811*%
%ADD21C,0.004724*%
%ADD22C,0.043386*%
%ADD23C,0.023701*%
%ADD24O,0.070945X0.070945*%
%ADD25R,0.070945X0.070945*%
%ADD29C,0.015748*%
%ADD39C,0.035512*%
%ADD40R,0.090630X0.045354*%
%ADD41R,0.043386X0.043386*%
%ADD42C,0.041417*%
%ADD43C,0.027244*%
%ADD44C,0.005000*%
G54D20*
X00261Y00909D02*
X00289D01*
G54D44*
X0Y0D02*
X03936D01*
Y03936*
X0*
Y0*
G54D20*
X00255Y00892D02*
X00275Y00951D01*
X00295Y00892*
X00315D02*
Y00951D01*
X00376Y00892D02*
X00357Y0092D01*
X00343Y00892D02*
Y00951D01*
X00365*
X00371Y00948*
X00374Y00945*
X00376Y0094*
Y00931*
X00374Y00926*
X00371Y00923*
X00365Y0092*
X00343*
X00427Y00951D02*
X00416D01*
X0041Y00948*
X00407Y00945*
X00402Y00937*
X00399Y00926*
Y00903*
X00402Y00898*
X00405Y00895*
X0041Y00892*
X00421*
X00427Y00895*
X0043Y00898*
X00433Y00903*
Y00917*
X0043Y00923*
X00427Y00926*
X00421Y00928*
X0041*
X00405Y00926*
X00402Y00923*
X00399Y00917*
X00469Y00951D02*
X00475D01*
X0048Y00948*
X00483Y00945*
X00486Y0094*
X00489Y00928*
Y00914*
X00486Y00903*
X00483Y00898*
X0048Y00895*
X00475Y00892*
X00469*
X00464Y00895*
X00461Y00898*
X00458Y00903*
X00455Y00914*
Y00928*
X00458Y0094*
X00461Y00945*
X00464Y00948*
X00469Y00951*
X00511Y00945D02*
X00514Y00948D01*
X0052Y00951*
X00534*
X0054Y00948*
X00542Y00945*
X00545Y0094*
Y00934*
X00542Y00926*
X00509Y00892*
X00545*
X0059Y00923D02*
X00599Y0092D01*
X00601Y00917*
X00604Y00912*
Y00903*
X00601Y00898*
X00599Y00895*
X00593Y00892*
X0057*
Y00951*
X0059*
X00596Y00948*
X00599Y00945*
X00601Y0094*
Y00934*
X00599Y00928*
X00596Y00926*
X0059Y00923*
X0057*
X00641Y00951D02*
X00652D01*
X00658Y00948*
X00663Y00943*
X00666Y00931*
Y00912*
X00663Y009*
X00658Y00895*
X00652Y00892*
X00641*
X00635Y00895*
X00629Y009*
X00627Y00912*
Y00931*
X00629Y00943*
X00635Y00948*
X00641Y00951*
X00711Y00923D02*
X00719Y0092D01*
X00722Y00917*
X00725Y00912*
Y00903*
X00722Y00898*
X00719Y00895*
X00714Y00892*
X00691*
Y00951*
X00711*
X00717Y00948*
X00719Y00945*
X00722Y0094*
Y00934*
X00719Y00928*
X00717Y00926*
X00711Y00923*
X00691*
G54D21*
X00814Y00854D02*
Y00893D01*
X00826Y00905D02*
X0085D01*
X00862Y00893D02*
Y00854D01*
X0085Y00842D02*
X00826D01*
D01*
X00825Y00842*
X00825Y00842*
X00824Y00842*
X00823Y00843*
X00822Y00843*
X00821Y00843*
X00821Y00843*
X0082Y00844*
X00819Y00844*
X00819Y00845*
X00818Y00845*
X00818Y00846*
X00817Y00847*
X00816Y00847*
X00816Y00848*
X00816Y00849*
X00815Y00849*
X00815Y0085*
X00815Y00851*
X00815Y00852*
X00815Y00853*
X00814Y00854*
X00814Y00854*
X00862D02*
D01*
X00862Y00853*
X00862Y00852*
X00861Y00851*
X00861Y00851*
X00861Y0085*
X00861Y00849*
X0086Y00848*
X0086Y00848*
X00859Y00847*
X00859Y00846*
X00858Y00846*
X00858Y00845*
X00857Y00845*
X00857Y00844*
X00856Y00844*
X00855Y00843*
X00854Y00843*
X00854Y00843*
X00853Y00842*
X00852Y00842*
X00851Y00842*
X0085Y00842*
X0085Y00842*
Y00905D02*
D01*
X00851Y00905*
X00852Y00905*
X00852Y00905*
X00853Y00905*
X00854Y00904*
X00855Y00904*
X00855Y00904*
X00856Y00903*
X00857Y00903*
X00858Y00902*
X00858Y00902*
X00859Y00901*
X00859Y00901*
X0086Y009*
X0086Y00899*
X00861Y00898*
X00861Y00898*
X00861Y00897*
X00861Y00896*
X00862Y00895*
X00862Y00895*
X00862Y00894*
X00862Y00893*
X00814D02*
D01*
X00815Y00894*
X00815Y00895*
X00815Y00896*
X00815Y00897*
X00815Y00897*
X00816Y00898*
X00816Y00899*
X00816Y009*
X00817Y009*
X00817Y00901*
X00818Y00901*
X00818Y00902*
X00819Y00903*
X0082Y00903*
X0082Y00904*
X00821Y00904*
X00822Y00904*
X00823Y00905*
X00823Y00905*
X00824Y00905*
X00825Y00905*
X00826Y00905*
X00826Y00905*
X00363Y0064D02*
D01*
X00362Y0064*
X00361Y0064*
X0036Y0064*
X00359Y0064*
X00359Y00641*
X00358Y00641*
X00357Y00641*
X00356Y00642*
X00356Y00642*
X00355Y00643*
X00354Y00643*
X00354Y00644*
X00353Y00645*
X00353Y00645*
X00352Y00646*
X00352Y00647*
X00352Y00647*
X00351Y00648*
X00351Y00649*
X00351Y0065*
X00351Y00651*
X00351Y00651*
X00351Y00652*
Y00675D02*
D01*
X00351Y00676*
X00351Y00677*
X00351Y00678*
X00351Y00679*
X00352Y00679*
X00352Y0068*
X00352Y00681*
X00353Y00682*
X00353Y00682*
X00354Y00683*
X00354Y00684*
X00355Y00684*
X00355Y00685*
X00356Y00685*
X00357Y00686*
X00357Y00686*
X00358Y00686*
X00359Y00687*
X0036Y00687*
X00361Y00687*
X00361Y00687*
X00362Y00687*
X00363Y00687*
X00402D02*
D01*
X00403Y00687*
X00404Y00687*
X00404Y00687*
X00405Y00687*
X00406Y00687*
X00407Y00686*
X00408Y00686*
X00408Y00685*
X00409Y00685*
X0041Y00684*
X0041Y00684*
X00411Y00683*
X00411Y00683*
X00412Y00682*
X00412Y00681*
X00413Y00681*
X00413Y0068*
X00413Y00679*
X00413Y00678*
X00414Y00677*
X00414Y00677*
X00414Y00676*
X00414Y00675*
Y00652D02*
D01*
X00414Y00651*
X00414Y0065*
X00414Y00649*
X00413Y00649*
X00413Y00648*
X00413Y00647*
X00412Y00646*
X00412Y00646*
X00412Y00645*
X00411Y00644*
X00411Y00644*
X0041Y00643*
X00409Y00642*
X00409Y00642*
X00408Y00642*
X00407Y00641*
X00406Y00641*
X00406Y00641*
X00405Y0064*
X00404Y0064*
X00403Y0064*
X00402Y0064*
X00402Y0064*
X00414Y00675D02*
Y00652D01*
X00363Y00687D02*
X00402D01*
X00351Y00652D02*
Y00675D01*
X00402Y0064D02*
X00363D01*
X00854Y00786D02*
X00834D01*
X00854Y00841D02*
X00834D01*
X00854D02*
Y00865D01*
X00862Y00873D01*
Y00755D02*
X00854D01*
Y00786D01*
X00972D02*
Y00755D01*
X00964D01*
Y00873D02*
X00972D01*
Y00841D01*
X00373Y00457D02*
Y0047D01*
X00413Y00457D02*
Y0047D01*
G54D19*
X00496Y007D02*
X0089D01*
X00496Y00221D02*
X0089D01*
X00496D02*
Y00241D01*
X0089Y00221D02*
Y00241D01*
Y007D02*
Y00686D01*
X00496Y007D02*
Y00686D01*
X00465D01*
X00757Y00851D02*
X00785D01*
X0079Y00849*
X00794Y00845*
X00796Y0084*
Y00836*
Y0087D02*
X00757D01*
Y00885*
X00758Y00888*
X0076Y0089*
X00764Y00892*
X0077*
X00773Y0089*
X00775Y00888*
X00777Y00885*
Y0087*
X0076Y00907D02*
X00758Y00909D01*
X00757Y00913*
Y00922*
X00758Y00926*
X0076Y00928*
X00764Y0093*
X00768*
X00773Y00928*
X00796Y00905*
Y0093*
X0034Y00766D02*
Y00738D01*
X00338Y00732*
X00334Y00728*
X00328Y00726*
X00325*
X00358D02*
Y00766D01*
X00373*
X00377Y00764*
X00379Y00762*
X00381Y00758*
Y00753*
X00379Y00749*
X00377Y00747*
X00373Y00745*
X00358*
X00418Y00726D02*
X00396D01*
X00407D02*
Y00766D01*
X00403Y0076*
X004Y00756*
X00396Y00755*
X00987Y00845D02*
X01026Y00871D01*
X00987D02*
X01026Y00845D01*
X01015Y00884D02*
Y00903D01*
X01026Y0088D02*
X00987Y00894D01*
X01026Y00907*
Y0094D02*
Y00918D01*
Y00929D02*
X00987D01*
X00992Y00925*
X00996Y00922*
X00998Y00918*
X00407Y00357D02*
X00409Y00355D01*
X00411Y0035*
Y00346*
X00409Y0034*
X00405Y00336*
X00402Y00335*
X00394Y00333*
X00388*
X00381Y00335*
X00377Y00336*
X00373Y0034*
X00372Y00346*
Y0035*
X00373Y00355*
X00375Y00357*
X00372Y0037D02*
Y00395D01*
X00387Y00381*
Y00387*
X00388Y00391*
X0039Y00393*
X00394Y00395*
X00403*
X00407Y00393*
X00409Y00391*
X00411Y00387*
Y00376*
X00409Y00372*
X00407Y0037*
X00638Y00761D02*
X00639Y00759D01*
X0064Y00756*
Y00754*
X00639Y0075*
X00636Y00748*
X00634Y00747*
X0063Y00746*
X00626*
X00622Y00747*
X0062Y00748*
X00617Y0075*
X00616Y00754*
Y00756*
X00617Y00759*
X00618Y00761*
Y0077D02*
X00617Y00771D01*
X00616Y00773*
Y00779*
X00617Y00781*
X00618Y00782*
X00621Y00783*
X00623*
X00626Y00782*
X0064Y00768*
Y00783*
X0076Y00761D02*
X00761Y0076D01*
X00762Y00757*
Y00755*
X00761Y00751*
X00758Y00749*
X00756Y00748*
X00752Y00747*
X00748*
X00744Y00748*
X00742Y00749*
X00739Y00751*
X00738Y00755*
Y00757*
X00739Y0076*
X0074Y00761*
X00762Y00784D02*
Y0077D01*
Y00777D02*
X00738D01*
X00742Y00775*
X00744Y00773*
X00745Y0077*
X0028Y00877D02*
Y00849D01*
X00278Y00843*
X00274Y00839*
X00269Y00838*
X00265*
X00297Y00873D02*
X00299Y00875D01*
X00302Y00877*
X00312*
X00316Y00875*
X00317Y00873*
X00319Y00869*
Y00866*
X00317Y0086*
X00295Y00838*
X00319*
X0108Y00877D02*
Y00849D01*
X01078Y00843*
X01074Y00839*
X01069Y00838*
X01065*
X01119D02*
X01097D01*
X01108D02*
Y00877D01*
X01104Y00871*
X01101Y00868*
X01097Y00866*
X00731Y00843D02*
X0072D01*
Y00867*
X00751Y00843D02*
X00738D01*
X00745D02*
Y00867D01*
X00742Y00864*
X0074Y00861*
X00738Y0086*
X00513Y00753D02*
Y00721D01*
X00515Y00717*
X00517Y00715*
X00521Y00714*
X00528*
X00532Y00715*
X00534Y00717*
X00536Y00721*
Y00753*
X00575Y00714D02*
X00552D01*
X00564D02*
Y00753D01*
X0056Y00747*
X00556Y00744*
X00552Y00742*
G54D20*
X01537Y00909D02*
X01565D01*
X01531Y00892D02*
X01551Y00951D01*
X01571Y00892*
X0159D02*
Y00951D01*
X01652Y00892D02*
X01633Y0092D01*
X01619Y00892D02*
Y00951D01*
X01641*
X01647Y00948*
X01649Y00945*
X01652Y0094*
Y00931*
X01649Y00926*
X01647Y00923*
X01641Y0092*
X01619*
X01703Y00951D02*
X01692D01*
X01686Y00948*
X01683Y00945*
X01678Y00937*
X01675Y00926*
Y00903*
X01678Y00898*
X0168Y00895*
X01686Y00892*
X01697*
X01703Y00895*
X01706Y00898*
X01708Y00903*
Y00917*
X01706Y00923*
X01703Y00926*
X01697Y00928*
X01686*
X0168Y00926*
X01678Y00923*
X01675Y00917*
X01745Y00951D02*
X01751D01*
X01756Y00948*
X01759Y00945*
X01762Y0094*
X01765Y00928*
Y00914*
X01762Y00903*
X01759Y00898*
X01756Y00895*
X01751Y00892*
X01745*
X01739Y00895*
X01737Y00898*
X01734Y00903*
X01731Y00914*
Y00928*
X01734Y0094*
X01737Y00945*
X01739Y00948*
X01745Y00951*
X01787Y00945D02*
X0179Y00948D01*
X01796Y00951*
X0181*
X01815Y00948*
X01818Y00945*
X01821Y0094*
Y00934*
X01818Y00926*
X01784Y00892*
X01821*
X01866Y00923D02*
X01874Y0092D01*
X01877Y00917*
X0188Y00912*
Y00903*
X01877Y00898*
X01874Y00895*
X01869Y00892*
X01846*
Y00951*
X01866*
X01872Y00948*
X01874Y00945*
X01877Y0094*
Y00934*
X01874Y00928*
X01872Y00926*
X01866Y00923*
X01846*
X01917Y00951D02*
X01928D01*
X01933Y00948*
X01939Y00943*
X01942Y00931*
Y00912*
X01939Y009*
X01933Y00895*
X01928Y00892*
X01917*
X01911Y00895*
X01905Y009*
X01903Y00912*
Y00931*
X01905Y00943*
X01911Y00948*
X01917Y00951*
X01986Y00923D02*
X01994Y0092D01*
X01997Y00917*
X02Y00912*
Y00903*
X01997Y00898*
X01994Y00895*
X01989Y00892*
X01967*
Y00951*
X01986*
X01992Y00948*
X01994Y00945*
X01997Y0094*
Y00934*
X01994Y00928*
X01992Y00926*
X01986Y00923*
X01967*
G54D21*
X02089Y00854D02*
Y00893D01*
X02101Y00905D02*
X02125D01*
X02137Y00893D02*
Y00854D01*
X02125Y00842D02*
X02101D01*
D01*
X021Y00842*
X02099Y00842*
X02099Y00842*
X02098Y00843*
X02097Y00843*
X02096Y00843*
X02096Y00843*
X02095Y00844*
X02094Y00844*
X02094Y00845*
X02093Y00845*
X02092Y00846*
X02092Y00847*
X02091Y00847*
X02091Y00848*
X02091Y00849*
X0209Y00849*
X0209Y0085*
X0209Y00851*
X0209Y00852*
X02089Y00853*
X02089Y00854*
X02089Y00854*
X02137D02*
D01*
X02137Y00853*
X02136Y00852*
X02136Y00851*
X02136Y00851*
X02136Y0085*
X02136Y00849*
X02135Y00848*
X02135Y00848*
X02134Y00847*
X02134Y00846*
X02133Y00846*
X02133Y00845*
X02132Y00845*
X02131Y00844*
X02131Y00844*
X0213Y00843*
X02129Y00843*
X02128Y00843*
X02128Y00842*
X02127Y00842*
X02126Y00842*
X02125Y00842*
X02125Y00842*
Y00905D02*
D01*
X02126Y00905*
X02126Y00905*
X02127Y00905*
X02128Y00905*
X02129Y00904*
X0213Y00904*
X0213Y00904*
X02131Y00903*
X02132Y00903*
X02132Y00902*
X02133Y00902*
X02134Y00901*
X02134Y00901*
X02135Y009*
X02135Y00899*
X02135Y00898*
X02136Y00898*
X02136Y00897*
X02136Y00896*
X02136Y00895*
X02137Y00895*
X02137Y00894*
X02137Y00893*
X02089D02*
D01*
X02089Y00894*
X02089Y00895*
X0209Y00896*
X0209Y00897*
X0209Y00897*
X0209Y00898*
X02091Y00899*
X02091Y009*
X02092Y009*
X02092Y00901*
X02093Y00901*
X02093Y00902*
X02094Y00903*
X02095Y00903*
X02095Y00904*
X02096Y00904*
X02097Y00904*
X02097Y00905*
X02098Y00905*
X02099Y00905*
X021Y00905*
X02101Y00905*
X02101Y00905*
X01639Y0064D02*
D01*
X01638Y0064*
X01637Y0064*
X01636Y0064*
X01635Y0064*
X01634Y00641*
X01634Y00641*
X01633Y00641*
X01632Y00642*
X01632Y00642*
X01631Y00643*
X0163Y00643*
X0163Y00644*
X01629Y00645*
X01629Y00645*
X01628Y00646*
X01628Y00647*
X01628Y00647*
X01627Y00648*
X01627Y00649*
X01627Y0065*
X01627Y00651*
X01627Y00651*
X01627Y00652*
Y00675D02*
D01*
X01627Y00676*
X01627Y00677*
X01627Y00678*
X01627Y00679*
X01627Y00679*
X01628Y0068*
X01628Y00681*
X01629Y00682*
X01629Y00682*
X01629Y00683*
X0163Y00684*
X01631Y00684*
X01631Y00685*
X01632Y00685*
X01633Y00686*
X01633Y00686*
X01634Y00686*
X01635Y00687*
X01636Y00687*
X01636Y00687*
X01637Y00687*
X01638Y00687*
X01639Y00687*
X01678D02*
D01*
X01679Y00687*
X0168Y00687*
X0168Y00687*
X01681Y00687*
X01682Y00687*
X01683Y00686*
X01683Y00686*
X01684Y00685*
X01685Y00685*
X01685Y00684*
X01686Y00684*
X01687Y00683*
X01687Y00683*
X01688Y00682*
X01688Y00681*
X01689Y00681*
X01689Y0068*
X01689Y00679*
X01689Y00678*
X0169Y00677*
X0169Y00677*
X0169Y00676*
X0169Y00675*
Y00652D02*
D01*
X0169Y00651*
X0169Y0065*
X01689Y00649*
X01689Y00649*
X01689Y00648*
X01689Y00647*
X01688Y00646*
X01688Y00646*
X01687Y00645*
X01687Y00644*
X01686Y00644*
X01686Y00643*
X01685Y00642*
X01684Y00642*
X01684Y00642*
X01683Y00641*
X01682Y00641*
X01682Y00641*
X01681Y0064*
X0168Y0064*
X01679Y0064*
X01678Y0064*
X01678Y0064*
X0169Y00675D02*
Y00652D01*
X01639Y00687D02*
X01678D01*
X01627Y00652D02*
Y00675D01*
X01678Y0064D02*
X01639D01*
X02129Y00786D02*
X02109D01*
X02129Y00841D02*
X02109D01*
X02129D02*
Y00865D01*
X02137Y00873D01*
Y00755D02*
X02129D01*
Y00786D01*
X02247D02*
Y00755D01*
X02239D01*
Y00873D02*
X02247D01*
Y00841D01*
X01649Y00457D02*
Y0047D01*
X01689Y00457D02*
Y0047D01*
G54D19*
X01772Y007D02*
X02165D01*
X01772Y00221D02*
X02165D01*
X01772D02*
Y00241D01*
X02165Y00221D02*
Y00241D01*
Y007D02*
Y00686D01*
X01772Y007D02*
Y00686D01*
X01741D01*
X02031Y00851D02*
X0206D01*
X02065Y00849*
X02069Y00845*
X02071Y0084*
Y00836*
Y0087D02*
X02031D01*
Y00885*
X02033Y00888*
X02035Y0089*
X02039Y00892*
X02045*
X02048Y0089*
X0205Y00888*
X02052Y00885*
Y0087*
X02035Y00907D02*
X02033Y00909D01*
X02031Y00913*
Y00922*
X02033Y00926*
X02035Y00928*
X02039Y0093*
X02043*
X02048Y00928*
X02071Y00905*
Y0093*
X01615Y00766D02*
Y00738D01*
X01614Y00732*
X0161Y00728*
X01604Y00726*
X016*
X01634D02*
Y00766D01*
X01649*
X01653Y00764*
X01655Y00762*
X01657Y00758*
Y00753*
X01655Y00749*
X01653Y00747*
X01649Y00745*
X01634*
X01694Y00726D02*
X01672D01*
X01683D02*
Y00766D01*
X01679Y0076*
X01675Y00756*
X01672Y00755*
X02261Y00845D02*
X02301Y00871D01*
X02261D02*
X02301Y00845D01*
X0229Y00884D02*
Y00903D01*
X02301Y0088D02*
X02261Y00894D01*
X02301Y00907*
Y0094D02*
Y00918D01*
Y00929D02*
X02261D01*
X02267Y00925*
X02271Y00922*
X02273Y00918*
X01683Y00357D02*
X01685Y00355D01*
X01687Y0035*
Y00346*
X01685Y0034*
X01681Y00336*
X01677Y00335*
X0167Y00333*
X01664*
X01657Y00335*
X01653Y00336*
X01649Y0034*
X01647Y00346*
Y0035*
X01649Y00355*
X01651Y00357*
X01647Y0037D02*
Y00395D01*
X01662Y00381*
Y00387*
X01664Y00391*
X01666Y00393*
X0167Y00395*
X01679*
X01683Y00393*
X01685Y00391*
X01687Y00387*
Y00376*
X01685Y00372*
X01683Y0037*
X01913Y00761D02*
X01915Y00759D01*
X01916Y00756*
Y00754*
X01915Y0075*
X01912Y00748*
X0191Y00747*
X01906Y00746*
X01902*
X01898Y00747*
X01895Y00748*
X01893Y0075*
X01892Y00754*
Y00756*
X01893Y00759*
X01894Y00761*
Y0077D02*
X01893Y00771D01*
X01892Y00773*
Y00779*
X01893Y00781*
X01894Y00782*
X01897Y00783*
X01899*
X01902Y00782*
X01916Y00768*
Y00783*
X02034Y00761D02*
X02036Y0076D01*
X02037Y00757*
Y00755*
X02036Y00751*
X02033Y00749*
X02031Y00748*
X02027Y00747*
X02023*
X02019Y00748*
X02016Y00749*
X02014Y00751*
X02013Y00755*
Y00757*
X02014Y0076*
X02015Y00761*
X02037Y00784D02*
Y0077D01*
Y00777D02*
X02013D01*
X02016Y00775*
X02019Y00773*
X0202Y0077*
X01556Y00877D02*
Y00849D01*
X01554Y00843*
X0155Y00839*
X01545Y00838*
X01541*
X01573Y00873D02*
X01575Y00875D01*
X01578Y00877*
X01588*
X01591Y00875*
X01593Y00873*
X01595Y00869*
Y00866*
X01593Y0086*
X01571Y00838*
X01595*
X02355Y00877D02*
Y00849D01*
X02353Y00843*
X02349Y00839*
X02344Y00838*
X0234*
X02394D02*
X02372D01*
X02383D02*
Y00877D01*
X02379Y00871*
X02375Y00868*
X02372Y00866*
X02006Y00843D02*
X01995D01*
Y00867*
X02026Y00843D02*
X02013D01*
X0202D02*
Y00867D01*
X02017Y00864*
X02015Y00861*
X02013Y0086*
X01789Y00753D02*
Y00721D01*
X01791Y00717*
X01793Y00715*
X01796Y00714*
X01804*
X01808Y00715*
X0181Y00717*
X01811Y00721*
Y00753*
X01851Y00714D02*
X01828D01*
X0184D02*
Y00753D01*
X01836Y00747*
X01832Y00744*
X01828Y00742*
G54D20*
X02812Y00909D02*
X0284D01*
X02806Y00892D02*
X02826Y00951D01*
X02846Y00892*
X02865D02*
Y00951D01*
X02927Y00892D02*
X02907Y0092D01*
X02893Y00892D02*
Y00951D01*
X02916*
X02921Y00948*
X02924Y00945*
X02927Y0094*
Y00931*
X02924Y00926*
X02921Y00923*
X02916Y0092*
X02893*
X02978Y00951D02*
X02966D01*
X02961Y00948*
X02958Y00945*
X02952Y00937*
X0295Y00926*
Y00903*
X02952Y00898*
X02955Y00895*
X02961Y00892*
X02972*
X02978Y00895*
X02981Y00898*
X02983Y00903*
Y00917*
X02981Y00923*
X02978Y00926*
X02972Y00928*
X02961*
X02955Y00926*
X02952Y00923*
X0295Y00917*
X0302Y00951D02*
X03026D01*
X03031Y00948*
X03034Y00945*
X03037Y0094*
X0304Y00928*
Y00914*
X03037Y00903*
X03034Y00898*
X03031Y00895*
X03026Y00892*
X0302*
X03014Y00895*
X03011Y00898*
X03009Y00903*
X03006Y00914*
Y00928*
X03009Y0094*
X03011Y00945*
X03014Y00948*
X0302Y00951*
X03062Y00945D02*
X03065Y00948D01*
X03071Y00951*
X03085*
X0309Y00948*
X03093Y00945*
X03096Y0094*
Y00934*
X03093Y00926*
X03059Y00892*
X03096*
X03141Y00923D02*
X03149Y0092D01*
X03152Y00917*
X03155Y00912*
Y00903*
X03152Y00898*
X03149Y00895*
X03144Y00892*
X03121*
Y00951*
X03141*
X03146Y00948*
X03149Y00945*
X03152Y0094*
Y00934*
X03149Y00928*
X03146Y00926*
X03141Y00923*
X03121*
X03191Y00951D02*
X03203D01*
X03208Y00948*
X03214Y00943*
X03217Y00931*
Y00912*
X03214Y009*
X03208Y00895*
X03203Y00892*
X03191*
X03186Y00895*
X0318Y009*
X03177Y00912*
Y00931*
X0318Y00943*
X03186Y00948*
X03191Y00951*
X03262Y00923D02*
X0327Y0092D01*
X03273Y00917*
X03276Y00912*
Y00903*
X03273Y00898*
X0327Y00895*
X03265Y00892*
X03242*
Y00951*
X03262*
X03267Y00948*
X0327Y00945*
X03273Y0094*
Y00934*
X0327Y00928*
X03267Y00926*
X03262Y00923*
X03242*
G54D21*
X03365Y00854D02*
Y00893D01*
X03377Y00905D02*
X03401D01*
X03412Y00893D02*
Y00854D01*
X03401Y00842D02*
X03377D01*
D01*
X03376Y00842*
X03375Y00842*
X03375Y00842*
X03374Y00843*
X03373Y00843*
X03372Y00843*
X03371Y00843*
X03371Y00844*
X0337Y00844*
X03369Y00845*
X03369Y00845*
X03368Y00846*
X03368Y00847*
X03367Y00847*
X03367Y00848*
X03366Y00849*
X03366Y00849*
X03366Y0085*
X03366Y00851*
X03365Y00852*
X03365Y00853*
X03365Y00854*
X03365Y00854*
X03412D02*
D01*
X03412Y00853*
X03412Y00852*
X03412Y00851*
X03412Y00851*
X03412Y0085*
X03411Y00849*
X03411Y00848*
X03411Y00848*
X0341Y00847*
X0341Y00846*
X03409Y00846*
X03409Y00845*
X03408Y00845*
X03407Y00844*
X03407Y00844*
X03406Y00843*
X03405Y00843*
X03404Y00843*
X03403Y00842*
X03403Y00842*
X03402Y00842*
X03401Y00842*
X03401Y00842*
Y00905D02*
D01*
X03401Y00905*
X03402Y00905*
X03403Y00905*
X03404Y00905*
X03405Y00904*
X03405Y00904*
X03406Y00904*
X03407Y00903*
X03408Y00903*
X03408Y00902*
X03409Y00902*
X03409Y00901*
X0341Y00901*
X0341Y009*
X03411Y00899*
X03411Y00898*
X03412Y00898*
X03412Y00897*
X03412Y00896*
X03412Y00895*
X03412Y00895*
X03412Y00894*
X03412Y00893*
X03365D02*
D01*
X03365Y00894*
X03365Y00895*
X03365Y00896*
X03366Y00897*
X03366Y00897*
X03366Y00898*
X03367Y00899*
X03367Y009*
X03367Y009*
X03368Y00901*
X03368Y00901*
X03369Y00902*
X0337Y00903*
X0337Y00903*
X03371Y00904*
X03372Y00904*
X03373Y00904*
X03373Y00905*
X03374Y00905*
X03375Y00905*
X03376Y00905*
X03377Y00905*
X03377Y00905*
X02913Y0064D02*
D01*
X02913Y0064*
X02912Y0064*
X02911Y0064*
X0291Y0064*
X02909Y00641*
X02909Y00641*
X02908Y00641*
X02907Y00642*
X02906Y00642*
X02906Y00643*
X02905Y00643*
X02905Y00644*
X02904Y00645*
X02904Y00645*
X02903Y00646*
X02903Y00647*
X02902Y00647*
X02902Y00648*
X02902Y00649*
X02902Y0065*
X02902Y00651*
X02902Y00651*
X02902Y00652*
Y00675D02*
D01*
X02902Y00676*
X02902Y00677*
X02902Y00678*
X02902Y00679*
X02902Y00679*
X02903Y0068*
X02903Y00681*
X02903Y00682*
X02904Y00682*
X02904Y00683*
X02905Y00684*
X02905Y00684*
X02906Y00685*
X02907Y00685*
X02907Y00686*
X02908Y00686*
X02909Y00686*
X0291Y00687*
X02911Y00687*
X02911Y00687*
X02912Y00687*
X02913Y00687*
X02913Y00687*
X02953D02*
D01*
X02954Y00687*
X02954Y00687*
X02955Y00687*
X02956Y00687*
X02957Y00687*
X02958Y00686*
X02958Y00686*
X02959Y00685*
X0296Y00685*
X0296Y00684*
X02961Y00684*
X02962Y00683*
X02962Y00683*
X02963Y00682*
X02963Y00681*
X02963Y00681*
X02964Y0068*
X02964Y00679*
X02964Y00678*
X02964Y00677*
X02964Y00677*
X02965Y00676*
X02965Y00675*
Y00652D02*
D01*
X02965Y00651*
X02964Y0065*
X02964Y00649*
X02964Y00649*
X02964Y00648*
X02964Y00647*
X02963Y00646*
X02963Y00646*
X02962Y00645*
X02962Y00644*
X02961Y00644*
X02961Y00643*
X0296Y00642*
X02959Y00642*
X02959Y00642*
X02958Y00641*
X02957Y00641*
X02956Y00641*
X02956Y0064*
X02955Y0064*
X02954Y0064*
X02953Y0064*
X02953Y0064*
X02965Y00675D02*
Y00652D01*
X02913Y00687D02*
X02953D01*
X02902Y00652D02*
Y00675D01*
X02953Y0064D02*
X02913D01*
X03405Y00786D02*
X03385D01*
X03405Y00841D02*
X03385D01*
X03405D02*
Y00865D01*
X03413Y00873D01*
Y00755D02*
X03405D01*
Y00786D01*
X03523D02*
Y00755D01*
X03515D01*
Y00873D02*
X03523D01*
Y00841D01*
X02924Y00457D02*
Y0047D01*
X02964Y00457D02*
Y0047D01*
G54D19*
X03047Y007D02*
X03441D01*
X03047Y00221D02*
X03441D01*
X03047D02*
Y00241D01*
X03441Y00221D02*
Y00241D01*
Y007D02*
Y00686D01*
X03047Y007D02*
Y00686D01*
X03015D01*
X03307Y00851D02*
X03335D01*
X03341Y00849*
X03345Y00845*
X03347Y0084*
Y00836*
Y0087D02*
X03307D01*
Y00885*
X03309Y00888*
X03311Y0089*
X03315Y00892*
X0332*
X03324Y0089*
X03326Y00888*
X03328Y00885*
Y0087*
X03311Y00907D02*
X03309Y00909D01*
X03307Y00913*
Y00922*
X03309Y00926*
X03311Y00928*
X03315Y0093*
X03318*
X03324Y00928*
X03347Y00905*
Y0093*
X0289Y00766D02*
Y00738D01*
X02888Y00732*
X02885Y00728*
X02879Y00726*
X02875*
X02909D02*
Y00766D01*
X02924*
X02928Y00764*
X0293Y00762*
X02931Y00758*
Y00753*
X0293Y00749*
X02928Y00747*
X02924Y00745*
X02909*
X02969Y00726D02*
X02946D01*
X02958D02*
Y00766D01*
X02954Y0076*
X0295Y00756*
X02946Y00755*
X03537Y00845D02*
X03577Y00871D01*
X03537D02*
X03577Y00845D01*
X03565Y00884D02*
Y00903D01*
X03577Y0088D02*
X03537Y00894D01*
X03577Y00907*
Y0094D02*
Y00918D01*
Y00929D02*
X03537D01*
X03543Y00925*
X03547Y00922*
X03548Y00918*
X02958Y00357D02*
X0296Y00355D01*
X02962Y0035*
Y00346*
X0296Y0034*
X02956Y00336*
X02952Y00335*
X02945Y00333*
X02939*
X02932Y00335*
X02928Y00336*
X02924Y0034*
X02922Y00346*
Y0035*
X02924Y00355*
X02926Y00357*
X02922Y0037D02*
Y00395D01*
X02937Y00381*
Y00387*
X02939Y00391*
X02941Y00393*
X02945Y00395*
X02954*
X02958Y00393*
X0296Y00391*
X02962Y00387*
Y00376*
X0296Y00372*
X02958Y0037*
X03188Y00761D02*
X03189Y00759D01*
X03191Y00756*
Y00754*
X03189Y0075*
X03187Y00748*
X03185Y00747*
X0318Y00746*
X03177*
X03173Y00747*
X0317Y00748*
X03168Y0075*
X03167Y00754*
Y00756*
X03168Y00759*
X03169Y00761*
Y0077D02*
X03168Y00771D01*
X03167Y00773*
Y00779*
X03168Y00781*
X03169Y00782*
X03171Y00783*
X03174*
X03177Y00782*
X03191Y00768*
Y00783*
X0331Y00761D02*
X03311Y0076D01*
X03312Y00757*
Y00755*
X03311Y00751*
X03309Y00749*
X03307Y00748*
X03302Y00747*
X03299*
X03294Y00748*
X03292Y00749*
X0329Y00751*
X03289Y00755*
Y00757*
X0329Y0076*
X03291Y00761*
X03312Y00784D02*
Y0077D01*
Y00777D02*
X03289D01*
X03292Y00775*
X03294Y00773*
X03296Y0077*
X02831Y00877D02*
Y00849D01*
X02829Y00843*
X02825Y00839*
X02819Y00838*
X02816*
X02848Y00873D02*
X02849Y00875D01*
X02853Y00877*
X02863*
X02866Y00875*
X02868Y00873*
X0287Y00869*
Y00866*
X02868Y0086*
X02846Y00838*
X0287*
X03631Y00877D02*
Y00849D01*
X03629Y00843*
X03625Y00839*
X03619Y00838*
X03616*
X0367D02*
X03648D01*
X03659D02*
Y00877D01*
X03655Y00871*
X03651Y00868*
X03648Y00866*
X03282Y00843D02*
X03271D01*
Y00867*
X03302Y00843D02*
X03289D01*
X03295D02*
Y00867D01*
X03293Y00864*
X03291Y00861*
X03289Y0086*
X03064Y00753D02*
Y00721D01*
X03066Y00717*
X03068Y00715*
X03071Y00714*
X03079*
X03083Y00715*
X03084Y00717*
X03086Y00721*
Y00753*
X03126Y00714D02*
X03103D01*
X03114D02*
Y00753D01*
X03111Y00747*
X03107Y00744*
X03103Y00742*
G54D20*
X00261Y02203D02*
X00289D01*
X00255Y02186D02*
X00275Y02245D01*
X00295Y02186*
X00315D02*
Y02245D01*
X00376Y02186D02*
X00357Y02214D01*
X00343Y02186D02*
Y02245D01*
X00365*
X00371Y02242*
X00374Y02239*
X00376Y02234*
Y02225*
X00374Y02219*
X00371Y02217*
X00365Y02214*
X00343*
X00427Y02245D02*
X00416D01*
X0041Y02242*
X00407Y02239*
X00402Y02231*
X00399Y02219*
Y02197*
X00402Y02191*
X00405Y02189*
X0041Y02186*
X00421*
X00427Y02189*
X0043Y02191*
X00433Y02197*
Y02211*
X0043Y02217*
X00427Y02219*
X00421Y02222*
X0041*
X00405Y02219*
X00402Y02217*
X00399Y02211*
X00469Y02245D02*
X00475D01*
X0048Y02242*
X00483Y02239*
X00486Y02234*
X00489Y02222*
Y02208*
X00486Y02197*
X00483Y02191*
X0048Y02189*
X00475Y02186*
X00469*
X00464Y02189*
X00461Y02191*
X00458Y02197*
X00455Y02208*
Y02222*
X00458Y02234*
X00461Y02239*
X00464Y02242*
X00469Y02245*
X00511Y02239D02*
X00514Y02242D01*
X0052Y02245*
X00534*
X0054Y02242*
X00542Y02239*
X00545Y02234*
Y02228*
X00542Y02219*
X00509Y02186*
X00545*
X0059Y02217D02*
X00599Y02214D01*
X00601Y02211*
X00604Y02205*
Y02197*
X00601Y02191*
X00599Y02189*
X00593Y02186*
X0057*
Y02245*
X0059*
X00596Y02242*
X00599Y02239*
X00601Y02234*
Y02228*
X00599Y02222*
X00596Y02219*
X0059Y02217*
X0057*
X00641Y02245D02*
X00652D01*
X00658Y02242*
X00663Y02236*
X00666Y02225*
Y02205*
X00663Y02194*
X00658Y02189*
X00652Y02186*
X00641*
X00635Y02189*
X00629Y02194*
X00627Y02205*
Y02225*
X00629Y02236*
X00635Y02242*
X00641Y02245*
X00711Y02217D02*
X00719Y02214D01*
X00722Y02211*
X00725Y02205*
Y02197*
X00722Y02191*
X00719Y02189*
X00714Y02186*
X00691*
Y02245*
X00711*
X00717Y02242*
X00719Y02239*
X00722Y02234*
Y02228*
X00719Y02222*
X00717Y02219*
X00711Y02217*
X00691*
G54D21*
X00814Y02148D02*
Y02187D01*
X00826Y02199D02*
X0085D01*
X00862Y02187D02*
Y02148D01*
X0085Y02136D02*
X00826D01*
D01*
X00825Y02136*
X00825Y02136*
X00824Y02136*
X00823Y02136*
X00822Y02137*
X00821Y02137*
X00821Y02137*
X0082Y02138*
X00819Y02138*
X00819Y02139*
X00818Y02139*
X00818Y0214*
X00817Y0214*
X00816Y02141*
X00816Y02142*
X00816Y02143*
X00815Y02143*
X00815Y02144*
X00815Y02145*
X00815Y02146*
X00815Y02147*
X00814Y02147*
X00814Y02148*
X00862D02*
D01*
X00862Y02147*
X00862Y02146*
X00861Y02145*
X00861Y02145*
X00861Y02144*
X00861Y02143*
X0086Y02142*
X0086Y02142*
X00859Y02141*
X00859Y0214*
X00858Y0214*
X00858Y02139*
X00857Y02138*
X00857Y02138*
X00856Y02138*
X00855Y02137*
X00854Y02137*
X00854Y02137*
X00853Y02136*
X00852Y02136*
X00851Y02136*
X0085Y02136*
X0085Y02136*
Y02199D02*
D01*
X00851Y02199*
X00852Y02199*
X00852Y02199*
X00853Y02198*
X00854Y02198*
X00855Y02198*
X00855Y02198*
X00856Y02197*
X00857Y02197*
X00858Y02196*
X00858Y02196*
X00859Y02195*
X00859Y02194*
X0086Y02194*
X0086Y02193*
X00861Y02192*
X00861Y02192*
X00861Y02191*
X00861Y0219*
X00862Y02189*
X00862Y02188*
X00862Y02188*
X00862Y02187*
X00814D02*
D01*
X00815Y02188*
X00815Y02189*
X00815Y0219*
X00815Y0219*
X00815Y02191*
X00816Y02192*
X00816Y02193*
X00816Y02193*
X00817Y02194*
X00817Y02195*
X00818Y02195*
X00818Y02196*
X00819Y02196*
X0082Y02197*
X0082Y02197*
X00821Y02198*
X00822Y02198*
X00823Y02198*
X00823Y02199*
X00824Y02199*
X00825Y02199*
X00826Y02199*
X00826Y02199*
X00363Y01935D02*
D01*
X00362Y01935*
X00361Y01935*
X0036Y01935*
X00359Y01935*
X00359Y01936*
X00358Y01936*
X00357Y01936*
X00356Y01937*
X00356Y01937*
X00355Y01938*
X00354Y01938*
X00354Y01939*
X00353Y01939*
X00353Y0194*
X00352Y01941*
X00352Y01941*
X00352Y01942*
X00351Y01943*
X00351Y01944*
X00351Y01945*
X00351Y01945*
X00351Y01946*
X00351Y01947*
Y01969D02*
D01*
X00351Y0197*
X00351Y01971*
X00351Y01972*
X00351Y01973*
X00352Y01973*
X00352Y01974*
X00352Y01975*
X00353Y01976*
X00353Y01976*
X00354Y01977*
X00354Y01977*
X00355Y01978*
X00355Y01979*
X00356Y01979*
X00357Y01979*
X00357Y0198*
X00358Y0198*
X00359Y0198*
X0036Y01981*
X00361Y01981*
X00361Y01981*
X00362Y01981*
X00363Y01981*
X00402D02*
D01*
X00403Y01981*
X00404Y01981*
X00404Y01981*
X00405Y01981*
X00406Y0198*
X00407Y0198*
X00408Y0198*
X00408Y01979*
X00409Y01979*
X0041Y01978*
X0041Y01978*
X00411Y01977*
X00411Y01977*
X00412Y01976*
X00412Y01975*
X00413Y01974*
X00413Y01974*
X00413Y01973*
X00413Y01972*
X00414Y01971*
X00414Y0197*
X00414Y0197*
X00414Y01969*
Y01947D02*
D01*
X00414Y01946*
X00414Y01945*
X00414Y01944*
X00413Y01943*
X00413Y01943*
X00413Y01942*
X00412Y01941*
X00412Y0194*
X00412Y0194*
X00411Y01939*
X00411Y01938*
X0041Y01938*
X00409Y01937*
X00409Y01937*
X00408Y01936*
X00407Y01936*
X00406Y01936*
X00406Y01935*
X00405Y01935*
X00404Y01935*
X00403Y01935*
X00402Y01935*
X00402Y01935*
X00414Y01969D02*
Y01947D01*
X00363Y01981D02*
X00402D01*
X00351Y01947D02*
Y01969D01*
X00402Y01935D02*
X00363D01*
X00854Y0208D02*
X00834D01*
X00854Y02135D02*
X00834D01*
X00854D02*
Y02159D01*
X00862Y02167D01*
Y02048D02*
X00854D01*
Y0208D01*
X00972D02*
Y02048D01*
X00964D01*
Y02167D02*
X00972D01*
Y02135D01*
X00373Y01752D02*
Y01765D01*
X00413Y01752D02*
Y01765D01*
G54D19*
X00496Y01994D02*
X0089D01*
X00496Y01516D02*
X0089D01*
X00496D02*
Y01536D01*
X0089Y01516D02*
Y01536D01*
Y01994D02*
Y0198D01*
X00496Y01994D02*
Y0198D01*
X00465D01*
X00757Y02145D02*
X00785D01*
X0079Y02143*
X00794Y02139*
X00796Y02133*
Y0213*
Y02163D02*
X00757D01*
Y02178*
X00758Y02182*
X0076Y02184*
X00764Y02186*
X0077*
X00773Y02184*
X00775Y02182*
X00777Y02178*
Y02163*
X0076Y02201D02*
X00758Y02203D01*
X00757Y02207*
Y02216*
X00758Y0222*
X0076Y02222*
X00764Y02223*
X00768*
X00773Y02222*
X00796Y02199*
Y02223*
X0034Y0206D02*
Y02032D01*
X00338Y02026*
X00334Y02022*
X00328Y0202*
X00325*
X00358D02*
Y0206D01*
X00373*
X00377Y02058*
X00379Y02056*
X00381Y02052*
Y02047*
X00379Y02043*
X00377Y02041*
X00373Y02039*
X00358*
X00418Y0202D02*
X00396D01*
X00407D02*
Y0206D01*
X00403Y02054*
X004Y0205*
X00396Y02048*
X00987Y02139D02*
X01026Y02165D01*
X00987D02*
X01026Y02139D01*
X01015Y02178D02*
Y02197D01*
X01026Y02174D02*
X00987Y02187D01*
X01026Y02201*
Y02234D02*
Y02212D01*
Y02223D02*
X00987D01*
X00992Y02219*
X00996Y02216*
X00998Y02212*
X00407Y01652D02*
X00409Y0165D01*
X00411Y01644*
Y01641*
X00409Y01635*
X00405Y01631*
X00402Y01629*
X00394Y01628*
X00388*
X00381Y01629*
X00377Y01631*
X00373Y01635*
X00372Y01641*
Y01644*
X00373Y0165*
X00375Y01652*
X00372Y01665D02*
Y01689D01*
X00387Y01676*
Y01682*
X00388Y01686*
X0039Y01688*
X00394Y01689*
X00403*
X00407Y01688*
X00409Y01686*
X00411Y01682*
Y01671*
X00409Y01667*
X00407Y01665*
X00638Y02054D02*
X00639Y02053D01*
X0064Y0205*
Y02048*
X00639Y02044*
X00636Y02042*
X00634Y02041*
X0063Y0204*
X00626*
X00622Y02041*
X0062Y02042*
X00617Y02044*
X00616Y02048*
Y0205*
X00617Y02053*
X00618Y02054*
Y02063D02*
X00617Y02065D01*
X00616Y02067*
Y02072*
X00617Y02075*
X00618Y02076*
X00621Y02077*
X00623*
X00626Y02076*
X0064Y02062*
Y02077*
X0076Y02055D02*
X00761Y02054D01*
X00762Y02051*
Y02048*
X00761Y02045*
X00758Y02043*
X00756Y02042*
X00752Y02041*
X00748*
X00744Y02042*
X00742Y02043*
X00739Y02045*
X00738Y02048*
Y02051*
X00739Y02054*
X0074Y02055*
X00762Y02078D02*
Y02064D01*
Y02071D02*
X00738D01*
X00742Y02069*
X00744Y02066*
X00745Y02064*
X0028Y02171D02*
Y02143D01*
X00278Y02137*
X00274Y02133*
X00269Y02131*
X00265*
X00297Y02167D02*
X00299Y02169D01*
X00302Y02171*
X00312*
X00316Y02169*
X00317Y02167*
X00319Y02163*
Y02159*
X00317Y02154*
X00295Y02131*
X00319*
X0108Y02171D02*
Y02143D01*
X01078Y02137*
X01074Y02133*
X01069Y02131*
X01065*
X01119D02*
X01097D01*
X01108D02*
Y02171D01*
X01104Y02165*
X01101Y02161*
X01097Y02159*
X00731Y02137D02*
X0072D01*
Y02161*
X00751Y02137D02*
X00738D01*
X00745D02*
Y02161D01*
X00742Y02158*
X0074Y02155*
X00738Y02154*
X00513Y02047D02*
Y02015D01*
X00515Y02011*
X00517Y02009*
X00521Y02007*
X00528*
X00532Y02009*
X00534Y02011*
X00536Y02015*
Y02047*
X00575Y02007D02*
X00552D01*
X00564D02*
Y02047D01*
X0056Y02041*
X00556Y02037*
X00552Y02035*
G54D20*
X01537Y02203D02*
X01565D01*
X01531Y02186D02*
X01551Y02245D01*
X01571Y02186*
X0159D02*
Y02245D01*
X01652Y02186D02*
X01633Y02214D01*
X01619Y02186D02*
Y02245D01*
X01641*
X01647Y02242*
X01649Y02239*
X01652Y02234*
Y02225*
X01649Y02219*
X01647Y02217*
X01641Y02214*
X01619*
X01703Y02245D02*
X01692D01*
X01686Y02242*
X01683Y02239*
X01678Y02231*
X01675Y02219*
Y02197*
X01678Y02191*
X0168Y02189*
X01686Y02186*
X01697*
X01703Y02189*
X01706Y02191*
X01708Y02197*
Y02211*
X01706Y02217*
X01703Y02219*
X01697Y02222*
X01686*
X0168Y02219*
X01678Y02217*
X01675Y02211*
X01745Y02245D02*
X01751D01*
X01756Y02242*
X01759Y02239*
X01762Y02234*
X01765Y02222*
Y02208*
X01762Y02197*
X01759Y02191*
X01756Y02189*
X01751Y02186*
X01745*
X01739Y02189*
X01737Y02191*
X01734Y02197*
X01731Y02208*
Y02222*
X01734Y02234*
X01737Y02239*
X01739Y02242*
X01745Y02245*
X01787Y02239D02*
X0179Y02242D01*
X01796Y02245*
X0181*
X01815Y02242*
X01818Y02239*
X01821Y02234*
Y02228*
X01818Y02219*
X01784Y02186*
X01821*
X01866Y02217D02*
X01874Y02214D01*
X01877Y02211*
X0188Y02205*
Y02197*
X01877Y02191*
X01874Y02189*
X01869Y02186*
X01846*
Y02245*
X01866*
X01872Y02242*
X01874Y02239*
X01877Y02234*
Y02228*
X01874Y02222*
X01872Y02219*
X01866Y02217*
X01846*
X01917Y02245D02*
X01928D01*
X01933Y02242*
X01939Y02236*
X01942Y02225*
Y02205*
X01939Y02194*
X01933Y02189*
X01928Y02186*
X01917*
X01911Y02189*
X01905Y02194*
X01903Y02205*
Y02225*
X01905Y02236*
X01911Y02242*
X01917Y02245*
X01986Y02217D02*
X01994Y02214D01*
X01997Y02211*
X02Y02205*
Y02197*
X01997Y02191*
X01994Y02189*
X01989Y02186*
X01967*
Y02245*
X01986*
X01992Y02242*
X01994Y02239*
X01997Y02234*
Y02228*
X01994Y02222*
X01992Y02219*
X01986Y02217*
X01967*
G54D21*
X02089Y02148D02*
Y02187D01*
X02101Y02199D02*
X02125D01*
X02137Y02187D02*
Y02148D01*
X02125Y02136D02*
X02101D01*
D01*
X021Y02136*
X02099Y02136*
X02099Y02136*
X02098Y02136*
X02097Y02137*
X02096Y02137*
X02096Y02137*
X02095Y02138*
X02094Y02138*
X02094Y02139*
X02093Y02139*
X02092Y0214*
X02092Y0214*
X02091Y02141*
X02091Y02142*
X02091Y02143*
X0209Y02143*
X0209Y02144*
X0209Y02145*
X0209Y02146*
X02089Y02147*
X02089Y02147*
X02089Y02148*
X02137D02*
D01*
X02137Y02147*
X02136Y02146*
X02136Y02145*
X02136Y02145*
X02136Y02144*
X02136Y02143*
X02135Y02142*
X02135Y02142*
X02134Y02141*
X02134Y0214*
X02133Y0214*
X02133Y02139*
X02132Y02138*
X02131Y02138*
X02131Y02138*
X0213Y02137*
X02129Y02137*
X02128Y02137*
X02128Y02136*
X02127Y02136*
X02126Y02136*
X02125Y02136*
X02125Y02136*
Y02199D02*
D01*
X02126Y02199*
X02126Y02199*
X02127Y02199*
X02128Y02198*
X02129Y02198*
X0213Y02198*
X0213Y02198*
X02131Y02197*
X02132Y02197*
X02132Y02196*
X02133Y02196*
X02134Y02195*
X02134Y02194*
X02135Y02194*
X02135Y02193*
X02135Y02192*
X02136Y02192*
X02136Y02191*
X02136Y0219*
X02136Y02189*
X02137Y02188*
X02137Y02188*
X02137Y02187*
X02089D02*
D01*
X02089Y02188*
X02089Y02189*
X0209Y0219*
X0209Y0219*
X0209Y02191*
X0209Y02192*
X02091Y02193*
X02091Y02193*
X02092Y02194*
X02092Y02195*
X02093Y02195*
X02093Y02196*
X02094Y02196*
X02095Y02197*
X02095Y02197*
X02096Y02198*
X02097Y02198*
X02097Y02198*
X02098Y02199*
X02099Y02199*
X021Y02199*
X02101Y02199*
X02101Y02199*
X01639Y01935D02*
D01*
X01638Y01935*
X01637Y01935*
X01636Y01935*
X01635Y01935*
X01634Y01936*
X01634Y01936*
X01633Y01936*
X01632Y01937*
X01632Y01937*
X01631Y01938*
X0163Y01938*
X0163Y01939*
X01629Y01939*
X01629Y0194*
X01628Y01941*
X01628Y01941*
X01628Y01942*
X01627Y01943*
X01627Y01944*
X01627Y01945*
X01627Y01945*
X01627Y01946*
X01627Y01947*
Y01969D02*
D01*
X01627Y0197*
X01627Y01971*
X01627Y01972*
X01627Y01973*
X01627Y01973*
X01628Y01974*
X01628Y01975*
X01629Y01976*
X01629Y01976*
X01629Y01977*
X0163Y01977*
X01631Y01978*
X01631Y01979*
X01632Y01979*
X01633Y01979*
X01633Y0198*
X01634Y0198*
X01635Y0198*
X01636Y01981*
X01636Y01981*
X01637Y01981*
X01638Y01981*
X01639Y01981*
X01678D02*
D01*
X01679Y01981*
X0168Y01981*
X0168Y01981*
X01681Y01981*
X01682Y0198*
X01683Y0198*
X01683Y0198*
X01684Y01979*
X01685Y01979*
X01685Y01978*
X01686Y01978*
X01687Y01977*
X01687Y01977*
X01688Y01976*
X01688Y01975*
X01689Y01974*
X01689Y01974*
X01689Y01973*
X01689Y01972*
X0169Y01971*
X0169Y0197*
X0169Y0197*
X0169Y01969*
Y01947D02*
D01*
X0169Y01946*
X0169Y01945*
X01689Y01944*
X01689Y01943*
X01689Y01943*
X01689Y01942*
X01688Y01941*
X01688Y0194*
X01687Y0194*
X01687Y01939*
X01686Y01938*
X01686Y01938*
X01685Y01937*
X01684Y01937*
X01684Y01936*
X01683Y01936*
X01682Y01936*
X01682Y01935*
X01681Y01935*
X0168Y01935*
X01679Y01935*
X01678Y01935*
X01678Y01935*
X0169Y01969D02*
Y01947D01*
X01639Y01981D02*
X01678D01*
X01627Y01947D02*
Y01969D01*
X01678Y01935D02*
X01639D01*
X02129Y0208D02*
X02109D01*
X02129Y02135D02*
X02109D01*
X02129D02*
Y02159D01*
X02137Y02167D01*
Y02048D02*
X02129D01*
Y0208D01*
X02247D02*
Y02048D01*
X02239D01*
Y02167D02*
X02247D01*
Y02135D01*
X01649Y01752D02*
Y01765D01*
X01689Y01752D02*
Y01765D01*
G54D19*
X01772Y01994D02*
X02165D01*
X01772Y01516D02*
X02165D01*
X01772D02*
Y01536D01*
X02165Y01516D02*
Y01536D01*
Y01994D02*
Y0198D01*
X01772Y01994D02*
Y0198D01*
X01741D01*
X02031Y02145D02*
X0206D01*
X02065Y02143*
X02069Y02139*
X02071Y02133*
Y0213*
Y02163D02*
X02031D01*
Y02178*
X02033Y02182*
X02035Y02184*
X02039Y02186*
X02045*
X02048Y02184*
X0205Y02182*
X02052Y02178*
Y02163*
X02035Y02201D02*
X02033Y02203D01*
X02031Y02207*
Y02216*
X02033Y0222*
X02035Y02222*
X02039Y02223*
X02043*
X02048Y02222*
X02071Y02199*
Y02223*
X01615Y0206D02*
Y02032D01*
X01614Y02026*
X0161Y02022*
X01604Y0202*
X016*
X01634D02*
Y0206D01*
X01649*
X01653Y02058*
X01655Y02056*
X01657Y02052*
Y02047*
X01655Y02043*
X01653Y02041*
X01649Y02039*
X01634*
X01694Y0202D02*
X01672D01*
X01683D02*
Y0206D01*
X01679Y02054*
X01675Y0205*
X01672Y02048*
X02261Y02139D02*
X02301Y02165D01*
X02261D02*
X02301Y02139D01*
X0229Y02178D02*
Y02197D01*
X02301Y02174D02*
X02261Y02187D01*
X02301Y02201*
Y02234D02*
Y02212D01*
Y02223D02*
X02261D01*
X02267Y02219*
X02271Y02216*
X02273Y02212*
X01683Y01652D02*
X01685Y0165D01*
X01687Y01644*
Y01641*
X01685Y01635*
X01681Y01631*
X01677Y01629*
X0167Y01628*
X01664*
X01657Y01629*
X01653Y01631*
X01649Y01635*
X01647Y01641*
Y01644*
X01649Y0165*
X01651Y01652*
X01647Y01665D02*
Y01689D01*
X01662Y01676*
Y01682*
X01664Y01686*
X01666Y01688*
X0167Y01689*
X01679*
X01683Y01688*
X01685Y01686*
X01687Y01682*
Y01671*
X01685Y01667*
X01683Y01665*
X01913Y02054D02*
X01915Y02053D01*
X01916Y0205*
Y02048*
X01915Y02044*
X01912Y02042*
X0191Y02041*
X01906Y0204*
X01902*
X01898Y02041*
X01895Y02042*
X01893Y02044*
X01892Y02048*
Y0205*
X01893Y02053*
X01894Y02054*
Y02063D02*
X01893Y02065D01*
X01892Y02067*
Y02072*
X01893Y02075*
X01894Y02076*
X01897Y02077*
X01899*
X01902Y02076*
X01916Y02062*
Y02077*
X02034Y02055D02*
X02036Y02054D01*
X02037Y02051*
Y02048*
X02036Y02045*
X02033Y02043*
X02031Y02042*
X02027Y02041*
X02023*
X02019Y02042*
X02016Y02043*
X02014Y02045*
X02013Y02048*
Y02051*
X02014Y02054*
X02015Y02055*
X02037Y02078D02*
Y02064D01*
Y02071D02*
X02013D01*
X02016Y02069*
X02019Y02066*
X0202Y02064*
X01556Y02171D02*
Y02143D01*
X01554Y02137*
X0155Y02133*
X01545Y02131*
X01541*
X01573Y02167D02*
X01575Y02169D01*
X01578Y02171*
X01588*
X01591Y02169*
X01593Y02167*
X01595Y02163*
Y02159*
X01593Y02154*
X01571Y02131*
X01595*
X02355Y02171D02*
Y02143D01*
X02353Y02137*
X02349Y02133*
X02344Y02131*
X0234*
X02394D02*
X02372D01*
X02383D02*
Y02171D01*
X02379Y02165*
X02375Y02161*
X02372Y02159*
X02006Y02137D02*
X01995D01*
Y02161*
X02026Y02137D02*
X02013D01*
X0202D02*
Y02161D01*
X02017Y02158*
X02015Y02155*
X02013Y02154*
X01789Y02047D02*
Y02015D01*
X01791Y02011*
X01793Y02009*
X01796Y02007*
X01804*
X01808Y02009*
X0181Y02011*
X01811Y02015*
Y02047*
X01851Y02007D02*
X01828D01*
X0184D02*
Y02047D01*
X01836Y02041*
X01832Y02037*
X01828Y02035*
G54D20*
X02812Y02203D02*
X0284D01*
X02806Y02186D02*
X02826Y02245D01*
X02846Y02186*
X02865D02*
Y02245D01*
X02927Y02186D02*
X02907Y02214D01*
X02893Y02186D02*
Y02245D01*
X02916*
X02921Y02242*
X02924Y02239*
X02927Y02234*
Y02225*
X02924Y02219*
X02921Y02217*
X02916Y02214*
X02893*
X02978Y02245D02*
X02966D01*
X02961Y02242*
X02958Y02239*
X02952Y02231*
X0295Y02219*
Y02197*
X02952Y02191*
X02955Y02189*
X02961Y02186*
X02972*
X02978Y02189*
X02981Y02191*
X02983Y02197*
Y02211*
X02981Y02217*
X02978Y02219*
X02972Y02222*
X02961*
X02955Y02219*
X02952Y02217*
X0295Y02211*
X0302Y02245D02*
X03026D01*
X03031Y02242*
X03034Y02239*
X03037Y02234*
X0304Y02222*
Y02208*
X03037Y02197*
X03034Y02191*
X03031Y02189*
X03026Y02186*
X0302*
X03014Y02189*
X03011Y02191*
X03009Y02197*
X03006Y02208*
Y02222*
X03009Y02234*
X03011Y02239*
X03014Y02242*
X0302Y02245*
X03062Y02239D02*
X03065Y02242D01*
X03071Y02245*
X03085*
X0309Y02242*
X03093Y02239*
X03096Y02234*
Y02228*
X03093Y02219*
X03059Y02186*
X03096*
X03141Y02217D02*
X03149Y02214D01*
X03152Y02211*
X03155Y02205*
Y02197*
X03152Y02191*
X03149Y02189*
X03144Y02186*
X03121*
Y02245*
X03141*
X03146Y02242*
X03149Y02239*
X03152Y02234*
Y02228*
X03149Y02222*
X03146Y02219*
X03141Y02217*
X03121*
X03191Y02245D02*
X03203D01*
X03208Y02242*
X03214Y02236*
X03217Y02225*
Y02205*
X03214Y02194*
X03208Y02189*
X03203Y02186*
X03191*
X03186Y02189*
X0318Y02194*
X03177Y02205*
Y02225*
X0318Y02236*
X03186Y02242*
X03191Y02245*
X03262Y02217D02*
X0327Y02214D01*
X03273Y02211*
X03276Y02205*
Y02197*
X03273Y02191*
X0327Y02189*
X03265Y02186*
X03242*
Y02245*
X03262*
X03267Y02242*
X0327Y02239*
X03273Y02234*
Y02228*
X0327Y02222*
X03267Y02219*
X03262Y02217*
X03242*
G54D21*
X03365Y02148D02*
Y02187D01*
X03377Y02199D02*
X03401D01*
X03412Y02187D02*
Y02148D01*
X03401Y02136D02*
X03377D01*
D01*
X03376Y02136*
X03375Y02136*
X03375Y02136*
X03374Y02136*
X03373Y02137*
X03372Y02137*
X03371Y02137*
X03371Y02138*
X0337Y02138*
X03369Y02139*
X03369Y02139*
X03368Y0214*
X03368Y0214*
X03367Y02141*
X03367Y02142*
X03366Y02143*
X03366Y02143*
X03366Y02144*
X03366Y02145*
X03365Y02146*
X03365Y02147*
X03365Y02147*
X03365Y02148*
X03412D02*
D01*
X03412Y02147*
X03412Y02146*
X03412Y02145*
X03412Y02145*
X03412Y02144*
X03411Y02143*
X03411Y02142*
X03411Y02142*
X0341Y02141*
X0341Y0214*
X03409Y0214*
X03409Y02139*
X03408Y02138*
X03407Y02138*
X03407Y02138*
X03406Y02137*
X03405Y02137*
X03404Y02137*
X03403Y02136*
X03403Y02136*
X03402Y02136*
X03401Y02136*
X03401Y02136*
Y02199D02*
D01*
X03401Y02199*
X03402Y02199*
X03403Y02199*
X03404Y02198*
X03405Y02198*
X03405Y02198*
X03406Y02198*
X03407Y02197*
X03408Y02197*
X03408Y02196*
X03409Y02196*
X03409Y02195*
X0341Y02194*
X0341Y02194*
X03411Y02193*
X03411Y02192*
X03412Y02192*
X03412Y02191*
X03412Y0219*
X03412Y02189*
X03412Y02188*
X03412Y02188*
X03412Y02187*
X03365D02*
D01*
X03365Y02188*
X03365Y02189*
X03365Y0219*
X03366Y0219*
X03366Y02191*
X03366Y02192*
X03367Y02193*
X03367Y02193*
X03367Y02194*
X03368Y02195*
X03368Y02195*
X03369Y02196*
X0337Y02196*
X0337Y02197*
X03371Y02197*
X03372Y02198*
X03373Y02198*
X03373Y02198*
X03374Y02199*
X03375Y02199*
X03376Y02199*
X03377Y02199*
X03377Y02199*
X02913Y01935D02*
D01*
X02913Y01935*
X02912Y01935*
X02911Y01935*
X0291Y01935*
X02909Y01936*
X02909Y01936*
X02908Y01936*
X02907Y01937*
X02906Y01937*
X02906Y01938*
X02905Y01938*
X02905Y01939*
X02904Y01939*
X02904Y0194*
X02903Y01941*
X02903Y01941*
X02902Y01942*
X02902Y01943*
X02902Y01944*
X02902Y01945*
X02902Y01945*
X02902Y01946*
X02902Y01947*
Y01969D02*
D01*
X02902Y0197*
X02902Y01971*
X02902Y01972*
X02902Y01973*
X02902Y01973*
X02903Y01974*
X02903Y01975*
X02903Y01976*
X02904Y01976*
X02904Y01977*
X02905Y01977*
X02905Y01978*
X02906Y01979*
X02907Y01979*
X02907Y01979*
X02908Y0198*
X02909Y0198*
X0291Y0198*
X02911Y01981*
X02911Y01981*
X02912Y01981*
X02913Y01981*
X02913Y01981*
X02953D02*
D01*
X02954Y01981*
X02954Y01981*
X02955Y01981*
X02956Y01981*
X02957Y0198*
X02958Y0198*
X02958Y0198*
X02959Y01979*
X0296Y01979*
X0296Y01978*
X02961Y01978*
X02962Y01977*
X02962Y01977*
X02963Y01976*
X02963Y01975*
X02963Y01974*
X02964Y01974*
X02964Y01973*
X02964Y01972*
X02964Y01971*
X02964Y0197*
X02965Y0197*
X02965Y01969*
Y01947D02*
D01*
X02965Y01946*
X02964Y01945*
X02964Y01944*
X02964Y01943*
X02964Y01943*
X02964Y01942*
X02963Y01941*
X02963Y0194*
X02962Y0194*
X02962Y01939*
X02961Y01938*
X02961Y01938*
X0296Y01937*
X02959Y01937*
X02959Y01936*
X02958Y01936*
X02957Y01936*
X02956Y01935*
X02956Y01935*
X02955Y01935*
X02954Y01935*
X02953Y01935*
X02953Y01935*
X02965Y01969D02*
Y01947D01*
X02913Y01981D02*
X02953D01*
X02902Y01947D02*
Y01969D01*
X02953Y01935D02*
X02913D01*
X03405Y0208D02*
X03385D01*
X03405Y02135D02*
X03385D01*
X03405D02*
Y02159D01*
X03413Y02167D01*
Y02048D02*
X03405D01*
Y0208D01*
X03523D02*
Y02048D01*
X03515D01*
Y02167D02*
X03523D01*
Y02135D01*
X02924Y01752D02*
Y01765D01*
X02964Y01752D02*
Y01765D01*
G54D19*
X03047Y01994D02*
X03441D01*
X03047Y01516D02*
X03441D01*
X03047D02*
Y01536D01*
X03441Y01516D02*
Y01536D01*
Y01994D02*
Y0198D01*
X03047Y01994D02*
Y0198D01*
X03015D01*
X03307Y02145D02*
X03335D01*
X03341Y02143*
X03345Y02139*
X03347Y02133*
Y0213*
Y02163D02*
X03307D01*
Y02178*
X03309Y02182*
X03311Y02184*
X03315Y02186*
X0332*
X03324Y02184*
X03326Y02182*
X03328Y02178*
Y02163*
X03311Y02201D02*
X03309Y02203D01*
X03307Y02207*
Y02216*
X03309Y0222*
X03311Y02222*
X03315Y02223*
X03318*
X03324Y02222*
X03347Y02199*
Y02223*
X0289Y0206D02*
Y02032D01*
X02888Y02026*
X02885Y02022*
X02879Y0202*
X02875*
X02909D02*
Y0206D01*
X02924*
X02928Y02058*
X0293Y02056*
X02931Y02052*
Y02047*
X0293Y02043*
X02928Y02041*
X02924Y02039*
X02909*
X02969Y0202D02*
X02946D01*
X02958D02*
Y0206D01*
X02954Y02054*
X0295Y0205*
X02946Y02048*
X03537Y02139D02*
X03577Y02165D01*
X03537D02*
X03577Y02139D01*
X03565Y02178D02*
Y02197D01*
X03577Y02174D02*
X03537Y02187D01*
X03577Y02201*
Y02234D02*
Y02212D01*
Y02223D02*
X03537D01*
X03543Y02219*
X03547Y02216*
X03548Y02212*
X02958Y01652D02*
X0296Y0165D01*
X02962Y01644*
Y01641*
X0296Y01635*
X02956Y01631*
X02952Y01629*
X02945Y01628*
X02939*
X02932Y01629*
X02928Y01631*
X02924Y01635*
X02922Y01641*
Y01644*
X02924Y0165*
X02926Y01652*
X02922Y01665D02*
Y01689D01*
X02937Y01676*
Y01682*
X02939Y01686*
X02941Y01688*
X02945Y01689*
X02954*
X02958Y01688*
X0296Y01686*
X02962Y01682*
Y01671*
X0296Y01667*
X02958Y01665*
X03188Y02054D02*
X03189Y02053D01*
X03191Y0205*
Y02048*
X03189Y02044*
X03187Y02042*
X03185Y02041*
X0318Y0204*
X03177*
X03173Y02041*
X0317Y02042*
X03168Y02044*
X03167Y02048*
Y0205*
X03168Y02053*
X03169Y02054*
Y02063D02*
X03168Y02065D01*
X03167Y02067*
Y02072*
X03168Y02075*
X03169Y02076*
X03171Y02077*
X03174*
X03177Y02076*
X03191Y02062*
Y02077*
X0331Y02055D02*
X03311Y02054D01*
X03312Y02051*
Y02048*
X03311Y02045*
X03309Y02043*
X03307Y02042*
X03302Y02041*
X03299*
X03294Y02042*
X03292Y02043*
X0329Y02045*
X03289Y02048*
Y02051*
X0329Y02054*
X03291Y02055*
X03312Y02078D02*
Y02064D01*
Y02071D02*
X03289D01*
X03292Y02069*
X03294Y02066*
X03296Y02064*
X02831Y02171D02*
Y02143D01*
X02829Y02137*
X02825Y02133*
X02819Y02131*
X02816*
X02848Y02167D02*
X02849Y02169D01*
X02853Y02171*
X02863*
X02866Y02169*
X02868Y02167*
X0287Y02163*
Y02159*
X02868Y02154*
X02846Y02131*
X0287*
X03631Y02171D02*
Y02143D01*
X03629Y02137*
X03625Y02133*
X03619Y02131*
X03616*
X0367D02*
X03648D01*
X03659D02*
Y02171D01*
X03655Y02165*
X03651Y02161*
X03648Y02159*
X03282Y02137D02*
X03271D01*
Y02161*
X03302Y02137D02*
X03289D01*
X03295D02*
Y02161D01*
X03293Y02158*
X03291Y02155*
X03289Y02154*
X03064Y02047D02*
Y02015D01*
X03066Y02011*
X03068Y02009*
X03071Y02007*
X03079*
X03083Y02009*
X03084Y02011*
X03086Y02015*
Y02047*
X03126Y02007D02*
X03103D01*
X03114D02*
Y02047D01*
X03111Y02041*
X03107Y02037*
X03103Y02035*
G54D20*
X00261Y03497D02*
X00289D01*
X00255Y03481D02*
X00275Y0354D01*
X00295Y03481*
X00315D02*
Y0354D01*
X00376Y03481D02*
X00357Y03509D01*
X00343Y03481D02*
Y0354D01*
X00365*
X00371Y03537*
X00374Y03534*
X00376Y03528*
Y0352*
X00374Y03514*
X00371Y03512*
X00365Y03509*
X00343*
X00427Y0354D02*
X00416D01*
X0041Y03537*
X00407Y03534*
X00402Y03526*
X00399Y03514*
Y03492*
X00402Y03486*
X00405Y03483*
X0041Y03481*
X00421*
X00427Y03483*
X0043Y03486*
X00433Y03492*
Y03506*
X0043Y03512*
X00427Y03514*
X00421Y03517*
X0041*
X00405Y03514*
X00402Y03512*
X00399Y03506*
X00469Y0354D02*
X00475D01*
X0048Y03537*
X00483Y03534*
X00486Y03528*
X00489Y03517*
Y03503*
X00486Y03492*
X00483Y03486*
X0048Y03483*
X00475Y03481*
X00469*
X00464Y03483*
X00461Y03486*
X00458Y03492*
X00455Y03503*
Y03517*
X00458Y03528*
X00461Y03534*
X00464Y03537*
X00469Y0354*
X00511Y03534D02*
X00514Y03537D01*
X0052Y0354*
X00534*
X0054Y03537*
X00542Y03534*
X00545Y03528*
Y03523*
X00542Y03514*
X00509Y03481*
X00545*
X0059Y03512D02*
X00599Y03509D01*
X00601Y03506*
X00604Y035*
Y03492*
X00601Y03486*
X00599Y03483*
X00593Y03481*
X0057*
Y0354*
X0059*
X00596Y03537*
X00599Y03534*
X00601Y03528*
Y03523*
X00599Y03517*
X00596Y03514*
X0059Y03512*
X0057*
X00641Y0354D02*
X00652D01*
X00658Y03537*
X00663Y03531*
X00666Y0352*
Y035*
X00663Y03489*
X00658Y03483*
X00652Y03481*
X00641*
X00635Y03483*
X00629Y03489*
X00627Y035*
Y0352*
X00629Y03531*
X00635Y03537*
X00641Y0354*
X00711Y03512D02*
X00719Y03509D01*
X00722Y03506*
X00725Y035*
Y03492*
X00722Y03486*
X00719Y03483*
X00714Y03481*
X00691*
Y0354*
X00711*
X00717Y03537*
X00719Y03534*
X00722Y03528*
Y03523*
X00719Y03517*
X00717Y03514*
X00711Y03512*
X00691*
G54D21*
X00814Y03443D02*
Y03482D01*
X00826Y03494D02*
X0085D01*
X00862Y03482D02*
Y03443D01*
X0085Y03431D02*
X00826D01*
D01*
X00825Y03431*
X00825Y03431*
X00824Y03431*
X00823Y03431*
X00822Y03432*
X00821Y03432*
X00821Y03432*
X0082Y03433*
X00819Y03433*
X00819Y03434*
X00818Y03434*
X00818Y03435*
X00817Y03435*
X00816Y03436*
X00816Y03437*
X00816Y03437*
X00815Y03438*
X00815Y03439*
X00815Y0344*
X00815Y03441*
X00815Y03441*
X00814Y03442*
X00814Y03443*
X00862D02*
D01*
X00862Y03442*
X00862Y03441*
X00861Y0344*
X00861Y03439*
X00861Y03439*
X00861Y03438*
X0086Y03437*
X0086Y03436*
X00859Y03436*
X00859Y03435*
X00858Y03434*
X00858Y03434*
X00857Y03433*
X00857Y03433*
X00856Y03432*
X00855Y03432*
X00854Y03432*
X00854Y03431*
X00853Y03431*
X00852Y03431*
X00851Y03431*
X0085Y03431*
X0085Y03431*
Y03494D02*
D01*
X00851Y03494*
X00852Y03494*
X00852Y03494*
X00853Y03493*
X00854Y03493*
X00855Y03493*
X00855Y03492*
X00856Y03492*
X00857Y03492*
X00858Y03491*
X00858Y0349*
X00859Y0349*
X00859Y03489*
X0086Y03489*
X0086Y03488*
X00861Y03487*
X00861Y03486*
X00861Y03486*
X00861Y03485*
X00862Y03484*
X00862Y03483*
X00862Y03482*
X00862Y03482*
X00814D02*
D01*
X00815Y03483*
X00815Y03484*
X00815Y03484*
X00815Y03485*
X00815Y03486*
X00816Y03487*
X00816Y03488*
X00816Y03488*
X00817Y03489*
X00817Y0349*
X00818Y0349*
X00818Y03491*
X00819Y03491*
X0082Y03492*
X0082Y03492*
X00821Y03493*
X00822Y03493*
X00823Y03493*
X00823Y03493*
X00824Y03494*
X00825Y03494*
X00826Y03494*
X00826Y03494*
X00363Y03229D02*
D01*
X00362Y03229*
X00361Y03229*
X0036Y03229*
X00359Y03229*
X00359Y03229*
X00358Y0323*
X00357Y0323*
X00356Y0323*
X00356Y03231*
X00355Y03231*
X00354Y03232*
X00354Y03233*
X00353Y03233*
X00353Y03234*
X00352Y03235*
X00352Y03235*
X00352Y03236*
X00351Y03237*
X00351Y03238*
X00351Y03238*
X00351Y03239*
X00351Y0324*
X00351Y0324*
Y03264D02*
D01*
X00351Y03265*
X00351Y03266*
X00351Y03267*
X00351Y03267*
X00352Y03268*
X00352Y03269*
X00352Y0327*
X00353Y0327*
X00353Y03271*
X00354Y03272*
X00354Y03272*
X00355Y03273*
X00355Y03273*
X00356Y03274*
X00357Y03274*
X00357Y03275*
X00358Y03275*
X00359Y03275*
X0036Y03276*
X00361Y03276*
X00361Y03276*
X00362Y03276*
X00363Y03276*
X00402D02*
D01*
X00403Y03276*
X00404Y03276*
X00404Y03276*
X00405Y03275*
X00406Y03275*
X00407Y03275*
X00408Y03275*
X00408Y03274*
X00409Y03274*
X0041Y03273*
X0041Y03273*
X00411Y03272*
X00411Y03271*
X00412Y03271*
X00412Y0327*
X00413Y03269*
X00413Y03269*
X00413Y03268*
X00413Y03267*
X00414Y03266*
X00414Y03265*
X00414Y03265*
X00414Y03264*
Y0324D02*
D01*
X00414Y0324*
X00414Y03239*
X00414Y03238*
X00413Y03237*
X00413Y03236*
X00413Y03236*
X00412Y03235*
X00412Y03234*
X00412Y03234*
X00411Y03233*
X00411Y03232*
X0041Y03232*
X00409Y03231*
X00409Y03231*
X00408Y0323*
X00407Y0323*
X00406Y0323*
X00406Y03229*
X00405Y03229*
X00404Y03229*
X00403Y03229*
X00402Y03229*
X00402Y03229*
X00414Y03264D02*
Y0324D01*
X00363Y03276D02*
X00402D01*
X00351Y0324D02*
Y03264D01*
X00402Y03229D02*
X00363D01*
X00854Y03375D02*
X00834D01*
X00854Y0343D02*
X00834D01*
X00854D02*
Y03453D01*
X00862Y03461D01*
Y03343D02*
X00854D01*
Y03375D01*
X00972D02*
Y03343D01*
X00964D01*
Y03461D02*
X00972D01*
Y0343D01*
X00373Y03046D02*
Y03059D01*
X00413Y03046D02*
Y03059D01*
G54D19*
X00496Y03289D02*
X0089D01*
X00496Y0281D02*
X0089D01*
X00496D02*
Y0283D01*
X0089Y0281D02*
Y0283D01*
Y03289D02*
Y03275D01*
X00496Y03289D02*
Y03275D01*
X00465D01*
X00757Y03439D02*
X00785D01*
X0079Y03438*
X00794Y03434*
X00796Y03428*
Y03424*
Y03458D02*
X00757D01*
Y03473*
X00758Y03477*
X0076Y03479*
X00764Y03481*
X0077*
X00773Y03479*
X00775Y03477*
X00777Y03473*
Y03458*
X0076Y03496D02*
X00758Y03498D01*
X00757Y03501*
Y03511*
X00758Y03514*
X0076Y03516*
X00764Y03518*
X00768*
X00773Y03516*
X00796Y03494*
Y03518*
X0034Y03355D02*
Y03326D01*
X00338Y03321*
X00334Y03317*
X00328Y03315*
X00325*
X00358D02*
Y03355D01*
X00373*
X00377Y03353*
X00379Y03351*
X00381Y03347*
Y03341*
X00379Y03338*
X00377Y03336*
X00373Y03334*
X00358*
X00418Y03315D02*
X00396D01*
X00407D02*
Y03355D01*
X00403Y03349*
X004Y03345*
X00396Y03343*
X00987Y03434D02*
X01026Y0346D01*
X00987D02*
X01026Y03434D01*
X01015Y03473D02*
Y03492D01*
X01026Y03469D02*
X00987Y03482D01*
X01026Y03495*
Y03529D02*
Y03507D01*
Y03518D02*
X00987D01*
X00992Y03514*
X00996Y0351*
X00998Y03507*
X00407Y02946D02*
X00409Y02944D01*
X00411Y02938*
Y02934*
X00409Y02929*
X00405Y02925*
X00402Y02923*
X00394Y02921*
X00388*
X00381Y02923*
X00377Y02925*
X00373Y02929*
X00372Y02934*
Y02938*
X00373Y02944*
X00375Y02946*
X00372Y02959D02*
Y02983D01*
X00387Y0297*
Y02976*
X00388Y02979*
X0039Y02981*
X00394Y02983*
X00403*
X00407Y02981*
X00409Y02979*
X00411Y02976*
Y02964*
X00409Y02961*
X00407Y02959*
X00638Y03349D02*
X00639Y03348D01*
X0064Y03345*
Y03343*
X00639Y03339*
X00636Y03337*
X00634Y03336*
X0063Y03335*
X00626*
X00622Y03336*
X0062Y03337*
X00617Y03339*
X00616Y03343*
Y03345*
X00617Y03348*
X00618Y03349*
Y03358D02*
X00617Y03359D01*
X00616Y03362*
Y03367*
X00617Y0337*
X00618Y03371*
X00621Y03372*
X00623*
X00626Y03371*
X0064Y03357*
Y03372*
X0076Y0335D02*
X00761Y03349D01*
X00762Y03346*
Y03343*
X00761Y0334*
X00758Y03338*
X00756Y03337*
X00752Y03335*
X00748*
X00744Y03337*
X00742Y03338*
X00739Y0334*
X00738Y03343*
Y03346*
X00739Y03349*
X0074Y0335*
X00762Y03373D02*
Y03359D01*
Y03366D02*
X00738D01*
X00742Y03364*
X00744Y03361*
X00745Y03359*
X0028Y03466D02*
Y03437D01*
X00278Y03432*
X00274Y03428*
X00269Y03426*
X00265*
X00297Y03462D02*
X00299Y03464D01*
X00302Y03466*
X00312*
X00316Y03464*
X00317Y03462*
X00319Y03458*
Y03454*
X00317Y03449*
X00295Y03426*
X00319*
X0108Y03466D02*
Y03437D01*
X01078Y03432*
X01074Y03428*
X01069Y03426*
X01065*
X01119D02*
X01097D01*
X01108D02*
Y03466D01*
X01104Y0346*
X01101Y03456*
X01097Y03454*
X00731Y03432D02*
X0072D01*
Y03456*
X00751Y03432D02*
X00738D01*
X00745D02*
Y03456D01*
X00742Y03452*
X0074Y0345*
X00738Y03449*
X00513Y03342D02*
Y0331D01*
X00515Y03306*
X00517Y03304*
X00521Y03302*
X00528*
X00532Y03304*
X00534Y03306*
X00536Y0331*
Y03342*
X00575Y03302D02*
X00552D01*
X00564D02*
Y03342D01*
X0056Y03336*
X00556Y03332*
X00552Y0333*
G54D20*
X01537Y03497D02*
X01565D01*
X01531Y03481D02*
X01551Y0354D01*
X01571Y03481*
X0159D02*
Y0354D01*
X01652Y03481D02*
X01633Y03509D01*
X01619Y03481D02*
Y0354D01*
X01641*
X01647Y03537*
X01649Y03534*
X01652Y03528*
Y0352*
X01649Y03514*
X01647Y03512*
X01641Y03509*
X01619*
X01703Y0354D02*
X01692D01*
X01686Y03537*
X01683Y03534*
X01678Y03526*
X01675Y03514*
Y03492*
X01678Y03486*
X0168Y03483*
X01686Y03481*
X01697*
X01703Y03483*
X01706Y03486*
X01708Y03492*
Y03506*
X01706Y03512*
X01703Y03514*
X01697Y03517*
X01686*
X0168Y03514*
X01678Y03512*
X01675Y03506*
X01745Y0354D02*
X01751D01*
X01756Y03537*
X01759Y03534*
X01762Y03528*
X01765Y03517*
Y03503*
X01762Y03492*
X01759Y03486*
X01756Y03483*
X01751Y03481*
X01745*
X01739Y03483*
X01737Y03486*
X01734Y03492*
X01731Y03503*
Y03517*
X01734Y03528*
X01737Y03534*
X01739Y03537*
X01745Y0354*
X01787Y03534D02*
X0179Y03537D01*
X01796Y0354*
X0181*
X01815Y03537*
X01818Y03534*
X01821Y03528*
Y03523*
X01818Y03514*
X01784Y03481*
X01821*
X01866Y03512D02*
X01874Y03509D01*
X01877Y03506*
X0188Y035*
Y03492*
X01877Y03486*
X01874Y03483*
X01869Y03481*
X01846*
Y0354*
X01866*
X01872Y03537*
X01874Y03534*
X01877Y03528*
Y03523*
X01874Y03517*
X01872Y03514*
X01866Y03512*
X01846*
X01917Y0354D02*
X01928D01*
X01933Y03537*
X01939Y03531*
X01942Y0352*
Y035*
X01939Y03489*
X01933Y03483*
X01928Y03481*
X01917*
X01911Y03483*
X01905Y03489*
X01903Y035*
Y0352*
X01905Y03531*
X01911Y03537*
X01917Y0354*
X01986Y03512D02*
X01994Y03509D01*
X01997Y03506*
X02Y035*
Y03492*
X01997Y03486*
X01994Y03483*
X01989Y03481*
X01967*
Y0354*
X01986*
X01992Y03537*
X01994Y03534*
X01997Y03528*
Y03523*
X01994Y03517*
X01992Y03514*
X01986Y03512*
X01967*
G54D21*
X02089Y03443D02*
Y03482D01*
X02101Y03494D02*
X02125D01*
X02137Y03482D02*
Y03443D01*
X02125Y03431D02*
X02101D01*
D01*
X021Y03431*
X02099Y03431*
X02099Y03431*
X02098Y03431*
X02097Y03432*
X02096Y03432*
X02096Y03432*
X02095Y03433*
X02094Y03433*
X02094Y03434*
X02093Y03434*
X02092Y03435*
X02092Y03435*
X02091Y03436*
X02091Y03437*
X02091Y03437*
X0209Y03438*
X0209Y03439*
X0209Y0344*
X0209Y03441*
X02089Y03441*
X02089Y03442*
X02089Y03443*
X02137D02*
D01*
X02137Y03442*
X02136Y03441*
X02136Y0344*
X02136Y03439*
X02136Y03439*
X02136Y03438*
X02135Y03437*
X02135Y03436*
X02134Y03436*
X02134Y03435*
X02133Y03434*
X02133Y03434*
X02132Y03433*
X02131Y03433*
X02131Y03432*
X0213Y03432*
X02129Y03432*
X02128Y03431*
X02128Y03431*
X02127Y03431*
X02126Y03431*
X02125Y03431*
X02125Y03431*
Y03494D02*
D01*
X02126Y03494*
X02126Y03494*
X02127Y03494*
X02128Y03493*
X02129Y03493*
X0213Y03493*
X0213Y03492*
X02131Y03492*
X02132Y03492*
X02132Y03491*
X02133Y0349*
X02134Y0349*
X02134Y03489*
X02135Y03489*
X02135Y03488*
X02135Y03487*
X02136Y03486*
X02136Y03486*
X02136Y03485*
X02136Y03484*
X02137Y03483*
X02137Y03482*
X02137Y03482*
X02089D02*
D01*
X02089Y03483*
X02089Y03484*
X0209Y03484*
X0209Y03485*
X0209Y03486*
X0209Y03487*
X02091Y03488*
X02091Y03488*
X02092Y03489*
X02092Y0349*
X02093Y0349*
X02093Y03491*
X02094Y03491*
X02095Y03492*
X02095Y03492*
X02096Y03493*
X02097Y03493*
X02097Y03493*
X02098Y03493*
X02099Y03494*
X021Y03494*
X02101Y03494*
X02101Y03494*
X01639Y03229D02*
D01*
X01638Y03229*
X01637Y03229*
X01636Y03229*
X01635Y03229*
X01634Y03229*
X01634Y0323*
X01633Y0323*
X01632Y0323*
X01632Y03231*
X01631Y03231*
X0163Y03232*
X0163Y03233*
X01629Y03233*
X01629Y03234*
X01628Y03235*
X01628Y03235*
X01628Y03236*
X01627Y03237*
X01627Y03238*
X01627Y03238*
X01627Y03239*
X01627Y0324*
X01627Y0324*
Y03264D02*
D01*
X01627Y03265*
X01627Y03266*
X01627Y03267*
X01627Y03267*
X01627Y03268*
X01628Y03269*
X01628Y0327*
X01629Y0327*
X01629Y03271*
X01629Y03272*
X0163Y03272*
X01631Y03273*
X01631Y03273*
X01632Y03274*
X01633Y03274*
X01633Y03275*
X01634Y03275*
X01635Y03275*
X01636Y03276*
X01636Y03276*
X01637Y03276*
X01638Y03276*
X01639Y03276*
X01678D02*
D01*
X01679Y03276*
X0168Y03276*
X0168Y03276*
X01681Y03275*
X01682Y03275*
X01683Y03275*
X01683Y03275*
X01684Y03274*
X01685Y03274*
X01685Y03273*
X01686Y03273*
X01687Y03272*
X01687Y03271*
X01688Y03271*
X01688Y0327*
X01689Y03269*
X01689Y03269*
X01689Y03268*
X01689Y03267*
X0169Y03266*
X0169Y03265*
X0169Y03265*
X0169Y03264*
Y0324D02*
D01*
X0169Y0324*
X0169Y03239*
X01689Y03238*
X01689Y03237*
X01689Y03236*
X01689Y03236*
X01688Y03235*
X01688Y03234*
X01687Y03234*
X01687Y03233*
X01686Y03232*
X01686Y03232*
X01685Y03231*
X01684Y03231*
X01684Y0323*
X01683Y0323*
X01682Y0323*
X01682Y03229*
X01681Y03229*
X0168Y03229*
X01679Y03229*
X01678Y03229*
X01678Y03229*
X0169Y03264D02*
Y0324D01*
X01639Y03276D02*
X01678D01*
X01627Y0324D02*
Y03264D01*
X01678Y03229D02*
X01639D01*
X02129Y03375D02*
X02109D01*
X02129Y0343D02*
X02109D01*
X02129D02*
Y03453D01*
X02137Y03461D01*
Y03343D02*
X02129D01*
Y03375D01*
X02247D02*
Y03343D01*
X02239D01*
Y03461D02*
X02247D01*
Y0343D01*
X01649Y03046D02*
Y03059D01*
X01689Y03046D02*
Y03059D01*
G54D19*
X01772Y03289D02*
X02165D01*
X01772Y0281D02*
X02165D01*
X01772D02*
Y0283D01*
X02165Y0281D02*
Y0283D01*
Y03289D02*
Y03275D01*
X01772Y03289D02*
Y03275D01*
X01741D01*
X02031Y03439D02*
X0206D01*
X02065Y03438*
X02069Y03434*
X02071Y03428*
Y03424*
Y03458D02*
X02031D01*
Y03473*
X02033Y03477*
X02035Y03479*
X02039Y03481*
X02045*
X02048Y03479*
X0205Y03477*
X02052Y03473*
Y03458*
X02035Y03496D02*
X02033Y03498D01*
X02031Y03501*
Y03511*
X02033Y03514*
X02035Y03516*
X02039Y03518*
X02043*
X02048Y03516*
X02071Y03494*
Y03518*
X01615Y03355D02*
Y03326D01*
X01614Y03321*
X0161Y03317*
X01604Y03315*
X016*
X01634D02*
Y03355D01*
X01649*
X01653Y03353*
X01655Y03351*
X01657Y03347*
Y03341*
X01655Y03338*
X01653Y03336*
X01649Y03334*
X01634*
X01694Y03315D02*
X01672D01*
X01683D02*
Y03355D01*
X01679Y03349*
X01675Y03345*
X01672Y03343*
X02261Y03434D02*
X02301Y0346D01*
X02261D02*
X02301Y03434D01*
X0229Y03473D02*
Y03492D01*
X02301Y03469D02*
X02261Y03482D01*
X02301Y03495*
Y03529D02*
Y03507D01*
Y03518D02*
X02261D01*
X02267Y03514*
X02271Y0351*
X02273Y03507*
X01683Y02946D02*
X01685Y02944D01*
X01687Y02938*
Y02934*
X01685Y02929*
X01681Y02925*
X01677Y02923*
X0167Y02921*
X01664*
X01657Y02923*
X01653Y02925*
X01649Y02929*
X01647Y02934*
Y02938*
X01649Y02944*
X01651Y02946*
X01647Y02959D02*
Y02983D01*
X01662Y0297*
Y02976*
X01664Y02979*
X01666Y02981*
X0167Y02983*
X01679*
X01683Y02981*
X01685Y02979*
X01687Y02976*
Y02964*
X01685Y02961*
X01683Y02959*
X01913Y03349D02*
X01915Y03348D01*
X01916Y03345*
Y03343*
X01915Y03339*
X01912Y03337*
X0191Y03336*
X01906Y03335*
X01902*
X01898Y03336*
X01895Y03337*
X01893Y03339*
X01892Y03343*
Y03345*
X01893Y03348*
X01894Y03349*
Y03358D02*
X01893Y03359D01*
X01892Y03362*
Y03367*
X01893Y0337*
X01894Y03371*
X01897Y03372*
X01899*
X01902Y03371*
X01916Y03357*
Y03372*
X02034Y0335D02*
X02036Y03349D01*
X02037Y03346*
Y03343*
X02036Y0334*
X02033Y03338*
X02031Y03337*
X02027Y03335*
X02023*
X02019Y03337*
X02016Y03338*
X02014Y0334*
X02013Y03343*
Y03346*
X02014Y03349*
X02015Y0335*
X02037Y03373D02*
Y03359D01*
Y03366D02*
X02013D01*
X02016Y03364*
X02019Y03361*
X0202Y03359*
X01556Y03466D02*
Y03437D01*
X01554Y03432*
X0155Y03428*
X01545Y03426*
X01541*
X01573Y03462D02*
X01575Y03464D01*
X01578Y03466*
X01588*
X01591Y03464*
X01593Y03462*
X01595Y03458*
Y03454*
X01593Y03449*
X01571Y03426*
X01595*
X02355Y03466D02*
Y03437D01*
X02353Y03432*
X02349Y03428*
X02344Y03426*
X0234*
X02394D02*
X02372D01*
X02383D02*
Y03466D01*
X02379Y0346*
X02375Y03456*
X02372Y03454*
X02006Y03432D02*
X01995D01*
Y03456*
X02026Y03432D02*
X02013D01*
X0202D02*
Y03456D01*
X02017Y03452*
X02015Y0345*
X02013Y03449*
X01789Y03342D02*
Y0331D01*
X01791Y03306*
X01793Y03304*
X01796Y03302*
X01804*
X01808Y03304*
X0181Y03306*
X01811Y0331*
Y03342*
X01851Y03302D02*
X01828D01*
X0184D02*
Y03342D01*
X01836Y03336*
X01832Y03332*
X01828Y0333*
G54D20*
X02812Y03497D02*
X0284D01*
X02806Y03481D02*
X02826Y0354D01*
X02846Y03481*
X02865D02*
Y0354D01*
X02927Y03481D02*
X02907Y03509D01*
X02893Y03481D02*
Y0354D01*
X02916*
X02921Y03537*
X02924Y03534*
X02927Y03528*
Y0352*
X02924Y03514*
X02921Y03512*
X02916Y03509*
X02893*
X02978Y0354D02*
X02966D01*
X02961Y03537*
X02958Y03534*
X02952Y03526*
X0295Y03514*
Y03492*
X02952Y03486*
X02955Y03483*
X02961Y03481*
X02972*
X02978Y03483*
X02981Y03486*
X02983Y03492*
Y03506*
X02981Y03512*
X02978Y03514*
X02972Y03517*
X02961*
X02955Y03514*
X02952Y03512*
X0295Y03506*
X0302Y0354D02*
X03026D01*
X03031Y03537*
X03034Y03534*
X03037Y03528*
X0304Y03517*
Y03503*
X03037Y03492*
X03034Y03486*
X03031Y03483*
X03026Y03481*
X0302*
X03014Y03483*
X03011Y03486*
X03009Y03492*
X03006Y03503*
Y03517*
X03009Y03528*
X03011Y03534*
X03014Y03537*
X0302Y0354*
X03062Y03534D02*
X03065Y03537D01*
X03071Y0354*
X03085*
X0309Y03537*
X03093Y03534*
X03096Y03528*
Y03523*
X03093Y03514*
X03059Y03481*
X03096*
X03141Y03512D02*
X03149Y03509D01*
X03152Y03506*
X03155Y035*
Y03492*
X03152Y03486*
X03149Y03483*
X03144Y03481*
X03121*
Y0354*
X03141*
X03146Y03537*
X03149Y03534*
X03152Y03528*
Y03523*
X03149Y03517*
X03146Y03514*
X03141Y03512*
X03121*
X03191Y0354D02*
X03203D01*
X03208Y03537*
X03214Y03531*
X03217Y0352*
Y035*
X03214Y03489*
X03208Y03483*
X03203Y03481*
X03191*
X03186Y03483*
X0318Y03489*
X03177Y035*
Y0352*
X0318Y03531*
X03186Y03537*
X03191Y0354*
X03262Y03512D02*
X0327Y03509D01*
X03273Y03506*
X03276Y035*
Y03492*
X03273Y03486*
X0327Y03483*
X03265Y03481*
X03242*
Y0354*
X03262*
X03267Y03537*
X0327Y03534*
X03273Y03528*
Y03523*
X0327Y03517*
X03267Y03514*
X03262Y03512*
X03242*
G54D21*
X03365Y03443D02*
Y03482D01*
X03377Y03494D02*
X03401D01*
X03412Y03482D02*
Y03443D01*
X03401Y03431D02*
X03377D01*
D01*
X03376Y03431*
X03375Y03431*
X03375Y03431*
X03374Y03431*
X03373Y03432*
X03372Y03432*
X03371Y03432*
X03371Y03433*
X0337Y03433*
X03369Y03434*
X03369Y03434*
X03368Y03435*
X03368Y03435*
X03367Y03436*
X03367Y03437*
X03366Y03437*
X03366Y03438*
X03366Y03439*
X03366Y0344*
X03365Y03441*
X03365Y03441*
X03365Y03442*
X03365Y03443*
X03412D02*
D01*
X03412Y03442*
X03412Y03441*
X03412Y0344*
X03412Y03439*
X03412Y03439*
X03411Y03438*
X03411Y03437*
X03411Y03436*
X0341Y03436*
X0341Y03435*
X03409Y03434*
X03409Y03434*
X03408Y03433*
X03407Y03433*
X03407Y03432*
X03406Y03432*
X03405Y03432*
X03404Y03431*
X03403Y03431*
X03403Y03431*
X03402Y03431*
X03401Y03431*
X03401Y03431*
Y03494D02*
D01*
X03401Y03494*
X03402Y03494*
X03403Y03494*
X03404Y03493*
X03405Y03493*
X03405Y03493*
X03406Y03492*
X03407Y03492*
X03408Y03492*
X03408Y03491*
X03409Y0349*
X03409Y0349*
X0341Y03489*
X0341Y03489*
X03411Y03488*
X03411Y03487*
X03412Y03486*
X03412Y03486*
X03412Y03485*
X03412Y03484*
X03412Y03483*
X03412Y03482*
X03412Y03482*
X03365D02*
D01*
X03365Y03483*
X03365Y03484*
X03365Y03484*
X03366Y03485*
X03366Y03486*
X03366Y03487*
X03367Y03488*
X03367Y03488*
X03367Y03489*
X03368Y0349*
X03368Y0349*
X03369Y03491*
X0337Y03491*
X0337Y03492*
X03371Y03492*
X03372Y03493*
X03373Y03493*
X03373Y03493*
X03374Y03493*
X03375Y03494*
X03376Y03494*
X03377Y03494*
X03377Y03494*
X02913Y03229D02*
D01*
X02913Y03229*
X02912Y03229*
X02911Y03229*
X0291Y03229*
X02909Y03229*
X02909Y0323*
X02908Y0323*
X02907Y0323*
X02906Y03231*
X02906Y03231*
X02905Y03232*
X02905Y03233*
X02904Y03233*
X02904Y03234*
X02903Y03235*
X02903Y03235*
X02902Y03236*
X02902Y03237*
X02902Y03238*
X02902Y03238*
X02902Y03239*
X02902Y0324*
X02902Y0324*
Y03264D02*
D01*
X02902Y03265*
X02902Y03266*
X02902Y03267*
X02902Y03267*
X02902Y03268*
X02903Y03269*
X02903Y0327*
X02903Y0327*
X02904Y03271*
X02904Y03272*
X02905Y03272*
X02905Y03273*
X02906Y03273*
X02907Y03274*
X02907Y03274*
X02908Y03275*
X02909Y03275*
X0291Y03275*
X02911Y03276*
X02911Y03276*
X02912Y03276*
X02913Y03276*
X02913Y03276*
X02953D02*
D01*
X02954Y03276*
X02954Y03276*
X02955Y03276*
X02956Y03275*
X02957Y03275*
X02958Y03275*
X02958Y03275*
X02959Y03274*
X0296Y03274*
X0296Y03273*
X02961Y03273*
X02962Y03272*
X02962Y03271*
X02963Y03271*
X02963Y0327*
X02963Y03269*
X02964Y03269*
X02964Y03268*
X02964Y03267*
X02964Y03266*
X02964Y03265*
X02965Y03265*
X02965Y03264*
Y0324D02*
D01*
X02965Y0324*
X02964Y03239*
X02964Y03238*
X02964Y03237*
X02964Y03236*
X02964Y03236*
X02963Y03235*
X02963Y03234*
X02962Y03234*
X02962Y03233*
X02961Y03232*
X02961Y03232*
X0296Y03231*
X02959Y03231*
X02959Y0323*
X02958Y0323*
X02957Y0323*
X02956Y03229*
X02956Y03229*
X02955Y03229*
X02954Y03229*
X02953Y03229*
X02953Y03229*
X02965Y03264D02*
Y0324D01*
X02913Y03276D02*
X02953D01*
X02902Y0324D02*
Y03264D01*
X02953Y03229D02*
X02913D01*
X03405Y03375D02*
X03385D01*
X03405Y0343D02*
X03385D01*
X03405D02*
Y03453D01*
X03413Y03461D01*
Y03343D02*
X03405D01*
Y03375D01*
X03523D02*
Y03343D01*
X03515D01*
Y03461D02*
X03523D01*
Y0343D01*
X02924Y03046D02*
Y03059D01*
X02964Y03046D02*
Y03059D01*
G54D19*
X03047Y03289D02*
X03441D01*
X03047Y0281D02*
X03441D01*
X03047D02*
Y0283D01*
X03441Y0281D02*
Y0283D01*
Y03289D02*
Y03275D01*
X03047Y03289D02*
Y03275D01*
X03015D01*
X03307Y03439D02*
X03335D01*
X03341Y03438*
X03345Y03434*
X03347Y03428*
Y03424*
Y03458D02*
X03307D01*
Y03473*
X03309Y03477*
X03311Y03479*
X03315Y03481*
X0332*
X03324Y03479*
X03326Y03477*
X03328Y03473*
Y03458*
X03311Y03496D02*
X03309Y03498D01*
X03307Y03501*
Y03511*
X03309Y03514*
X03311Y03516*
X03315Y03518*
X03318*
X03324Y03516*
X03347Y03494*
Y03518*
X0289Y03355D02*
Y03326D01*
X02888Y03321*
X02885Y03317*
X02879Y03315*
X02875*
X02909D02*
Y03355D01*
X02924*
X02928Y03353*
X0293Y03351*
X02931Y03347*
Y03341*
X0293Y03338*
X02928Y03336*
X02924Y03334*
X02909*
X02969Y03315D02*
X02946D01*
X02958D02*
Y03355D01*
X02954Y03349*
X0295Y03345*
X02946Y03343*
X03537Y03434D02*
X03577Y0346D01*
X03537D02*
X03577Y03434D01*
X03565Y03473D02*
Y03492D01*
X03577Y03469D02*
X03537Y03482D01*
X03577Y03495*
Y03529D02*
Y03507D01*
Y03518D02*
X03537D01*
X03543Y03514*
X03547Y0351*
X03548Y03507*
X02958Y02946D02*
X0296Y02944D01*
X02962Y02938*
Y02934*
X0296Y02929*
X02956Y02925*
X02952Y02923*
X02945Y02921*
X02939*
X02932Y02923*
X02928Y02925*
X02924Y02929*
X02922Y02934*
Y02938*
X02924Y02944*
X02926Y02946*
X02922Y02959D02*
Y02983D01*
X02937Y0297*
Y02976*
X02939Y02979*
X02941Y02981*
X02945Y02983*
X02954*
X02958Y02981*
X0296Y02979*
X02962Y02976*
Y02964*
X0296Y02961*
X02958Y02959*
X03188Y03349D02*
X03189Y03348D01*
X03191Y03345*
Y03343*
X03189Y03339*
X03187Y03337*
X03185Y03336*
X0318Y03335*
X03177*
X03173Y03336*
X0317Y03337*
X03168Y03339*
X03167Y03343*
Y03345*
X03168Y03348*
X03169Y03349*
Y03358D02*
X03168Y03359D01*
X03167Y03362*
Y03367*
X03168Y0337*
X03169Y03371*
X03171Y03372*
X03174*
X03177Y03371*
X03191Y03357*
Y03372*
X0331Y0335D02*
X03311Y03349D01*
X03312Y03346*
Y03343*
X03311Y0334*
X03309Y03338*
X03307Y03337*
X03302Y03335*
X03299*
X03294Y03337*
X03292Y03338*
X0329Y0334*
X03289Y03343*
Y03346*
X0329Y03349*
X03291Y0335*
X03312Y03373D02*
Y03359D01*
Y03366D02*
X03289D01*
X03292Y03364*
X03294Y03361*
X03296Y03359*
X02831Y03466D02*
Y03437D01*
X02829Y03432*
X02825Y03428*
X02819Y03426*
X02816*
X02848Y03462D02*
X02849Y03464D01*
X02853Y03466*
X02863*
X02866Y03464*
X02868Y03462*
X0287Y03458*
Y03454*
X02868Y03449*
X02846Y03426*
X0287*
X03631Y03466D02*
Y03437D01*
X03629Y03432*
X03625Y03428*
X03619Y03426*
X03616*
X0367D02*
X03648D01*
X03659D02*
Y03466D01*
X03655Y0346*
X03651Y03456*
X03648Y03454*
X03282Y03432D02*
X03271D01*
Y03456*
X03302Y03432D02*
X03289D01*
X03295D02*
Y03456D01*
X03293Y03452*
X03291Y0345*
X03289Y03449*
X03064Y03342D02*
Y0331D01*
X03066Y03306*
X03068Y03304*
X03071Y03302*
X03079*
X03083Y03304*
X03084Y03306*
X03086Y0331*
Y03342*
X03126Y03302D02*
X03103D01*
X03114D02*
Y03342D01*
X03111Y03336*
X03107Y03332*
X03103Y0333*
M02*