%FSTAX23Y23*%
%MOIN*%
%SFA1B1*%

%IPPOS*%
%ADD44C,0.005000*%
G36*
X00297Y00299D02*
X003Y00299D01*
X00305Y00297*
X00307Y00297*
X00312Y00294*
X00313Y00293*
X00314Y00292*
X00318Y00289*
X00322Y00285*
X00323Y00283*
X00326Y00277*
X00328Y00271*
X00329Y00264*
X00328Y00257*
X00327Y00252*
X00326Y0025*
X00323Y00245*
X00323Y00244*
X00322Y00242*
X00318Y00238*
X00314Y00235*
X00313Y00234*
X00307Y00231*
X00305Y0023*
X003Y00229*
X00297Y00228*
X00295Y00228*
X00291*
X00289Y00228*
X00286Y00229*
X00282Y0023*
X00279Y00231*
X00273Y00234*
X00272Y00235*
X00268Y00238*
X00265Y00242*
X00263Y00244*
X00263Y00245*
X0026Y0025*
X00259Y00252*
X00258Y00257*
X00257Y00264*
X00258Y00271*
X0026Y00277*
X00263Y00283*
X00265Y00285*
X00268Y00289*
X00272Y00292*
X00273Y00293*
X00274Y00294*
X00279Y00297*
X00282Y00297*
X00286Y00299*
X00289Y00299*
X00291Y00299*
X00295*
X00297Y00299*
G37*
G54D44*
X0Y0D02*
X03936D01*
Y03936*
X0*
Y0*
G36*
X01097Y00299D02*
X011Y00299D01*
X01105Y00297*
X01107Y00297*
X01112Y00294*
X01113Y00293*
X01114Y00292*
X01118Y00289*
X01122Y00285*
X01123Y00283*
X01126Y00277*
X01128Y00271*
X01129Y00264*
X01128Y00257*
X01127Y00252*
X01126Y0025*
X01123Y00245*
X01123Y00244*
X01122Y00242*
X01118Y00238*
X01114Y00235*
X01113Y00234*
X01107Y00231*
X01105Y0023*
X011Y00229*
X01097Y00228*
X01095Y00228*
X01091*
X01089Y00228*
X01086Y00229*
X01082Y0023*
X01079Y00231*
X01073Y00234*
X01072Y00235*
X01068Y00238*
X01065Y00242*
X01063Y00244*
X01063Y00245*
X0106Y0025*
X01059Y00252*
X01058Y00257*
X01057Y00264*
X01058Y00271*
X0106Y00277*
X01063Y00283*
X01065Y00285*
X01068Y00289*
X01072Y00292*
X01073Y00293*
X01074Y00294*
X01079Y00297*
X01082Y00297*
X01086Y00299*
X01089Y00299*
X01091Y00299*
X01095*
X01097Y00299*
G37*
G36*
Y00399D02*
X011Y00399D01*
X01105Y00397*
X01107Y00397*
X01112Y00394*
X01113Y00393*
X01114Y00392*
X01118Y00389*
X01122Y00385*
X01123Y00383*
X01126Y00377*
X01128Y00371*
X01129Y00364*
X01128Y00357*
X01127Y00352*
X01126Y0035*
X01123Y00345*
X01123Y00344*
X01122Y00342*
X01118Y00338*
X01114Y00335*
X01113Y00334*
X01107Y00331*
X01105Y0033*
X011Y00329*
X01097Y00328*
X01095Y00328*
X01091*
X01089Y00328*
X01086Y00329*
X01082Y0033*
X01079Y00331*
X01073Y00334*
X01072Y00335*
X01068Y00338*
X01065Y00342*
X01063Y00344*
X01063Y00345*
X0106Y0035*
X01059Y00352*
X01058Y00357*
X01057Y00364*
X01058Y00371*
X0106Y00377*
X01063Y00383*
X01065Y00385*
X01068Y00389*
X01072Y00392*
X01073Y00393*
X01074Y00394*
X01079Y00397*
X01082Y00397*
X01086Y00399*
X01089Y00399*
X01091Y00399*
X01095*
X01097Y00399*
G37*
G36*
X00297D02*
X003Y00399D01*
X00305Y00397*
X00307Y00397*
X00312Y00394*
X00313Y00393*
X00314Y00392*
X00318Y00389*
X00322Y00385*
X00323Y00383*
X00326Y00377*
X00328Y00371*
X00329Y00364*
X00328Y00357*
X00327Y00352*
X00326Y0035*
X00323Y00345*
X00323Y00344*
X00322Y00342*
X00318Y00338*
X00314Y00335*
X00313Y00334*
X00307Y00331*
X00305Y0033*
X003Y00329*
X00297Y00328*
X00295Y00328*
X00291*
X00289Y00328*
X00286Y00329*
X00282Y0033*
X00279Y00331*
X00273Y00334*
X00272Y00335*
X00268Y00338*
X00265Y00342*
X00263Y00344*
X00263Y00345*
X0026Y0035*
X00259Y00352*
X00258Y00357*
X00257Y00364*
X00258Y00371*
X0026Y00377*
X00263Y00383*
X00265Y00385*
X00268Y00389*
X00272Y00392*
X00273Y00393*
X00274Y00394*
X00279Y00397*
X00282Y00397*
X00286Y00399*
X00289Y00399*
X00291Y00399*
X00295*
X00297Y00399*
G37*
G36*
Y00499D02*
X003Y00499D01*
X00305Y00497*
X00307Y00497*
X00312Y00494*
X00313Y00493*
X00314Y00492*
X00318Y00489*
X00322Y00485*
X00323Y00483*
X00326Y00477*
X00328Y00471*
X00329Y00464*
X00328Y00457*
X00327Y00452*
X00326Y0045*
X00323Y00445*
X00323Y00444*
X00322Y00442*
X00318Y00438*
X00314Y00435*
X00313Y00434*
X00307Y00431*
X00305Y0043*
X003Y00429*
X00297Y00428*
X00295Y00428*
X00291*
X00289Y00428*
X00286Y00429*
X00282Y0043*
X00279Y00431*
X00273Y00434*
X00272Y00435*
X00268Y00438*
X00265Y00442*
X00263Y00444*
X00263Y00445*
X0026Y0045*
X00259Y00452*
X00258Y00457*
X00257Y00464*
X00258Y00471*
X0026Y00477*
X00263Y00483*
X00265Y00485*
X00268Y00489*
X00272Y00492*
X00273Y00493*
X00274Y00494*
X00279Y00497*
X00282Y00497*
X00286Y00499*
X00289Y00499*
X00291Y00499*
X00295*
X00297Y00499*
G37*
G36*
X01097D02*
X011Y00499D01*
X01105Y00497*
X01107Y00497*
X01112Y00494*
X01113Y00493*
X01114Y00492*
X01118Y00489*
X01122Y00485*
X01123Y00483*
X01126Y00477*
X01128Y00471*
X01129Y00464*
X01128Y00457*
X01127Y00452*
X01126Y0045*
X01123Y00445*
X01123Y00444*
X01122Y00442*
X01118Y00438*
X01114Y00435*
X01113Y00434*
X01107Y00431*
X01105Y0043*
X011Y00429*
X01097Y00428*
X01095Y00428*
X01091*
X01089Y00428*
X01086Y00429*
X01082Y0043*
X01079Y00431*
X01073Y00434*
X01072Y00435*
X01068Y00438*
X01065Y00442*
X01063Y00444*
X01063Y00445*
X0106Y0045*
X01059Y00452*
X01058Y00457*
X01057Y00464*
X01058Y00471*
X0106Y00477*
X01063Y00483*
X01065Y00485*
X01068Y00489*
X01072Y00492*
X01073Y00493*
X01074Y00494*
X01079Y00497*
X01082Y00497*
X01086Y00499*
X01089Y00499*
X01091Y00499*
X01095*
X01097Y00499*
G37*
G36*
X00297Y00599D02*
X003Y00599D01*
X00305Y00597*
X00307Y00597*
X00312Y00594*
X00313Y00593*
X00314Y00592*
X00318Y00589*
X00322Y00585*
X00323Y00583*
X00326Y00577*
X00328Y00571*
X00329Y00564*
X00328Y00557*
X00327Y00552*
X00326Y0055*
X00323Y00545*
X00323Y00544*
X00322Y00542*
X00318Y00538*
X00314Y00535*
X00313Y00534*
X00307Y00531*
X00305Y0053*
X003Y00529*
X00297Y00528*
X00295Y00528*
X00291*
X00289Y00528*
X00286Y00529*
X00282Y0053*
X00279Y00531*
X00273Y00534*
X00272Y00535*
X00268Y00538*
X00265Y00542*
X00263Y00544*
X00263Y00545*
X0026Y0055*
X00259Y00552*
X00258Y00557*
X00257Y00564*
X00258Y00571*
X0026Y00577*
X00263Y00583*
X00265Y00585*
X00268Y00589*
X00272Y00592*
X00273Y00593*
X00274Y00594*
X00279Y00597*
X00282Y00597*
X00286Y00599*
X00289Y00599*
X00291Y00599*
X00295*
X00297Y00599*
G37*
G36*
X01097D02*
X011Y00599D01*
X01105Y00597*
X01107Y00597*
X01112Y00594*
X01113Y00593*
X01114Y00592*
X01118Y00589*
X01122Y00585*
X01123Y00583*
X01126Y00577*
X01128Y00571*
X01129Y00564*
X01128Y00557*
X01127Y00552*
X01126Y0055*
X01123Y00545*
X01123Y00544*
X01122Y00542*
X01118Y00538*
X01114Y00535*
X01113Y00534*
X01107Y00531*
X01105Y0053*
X011Y00529*
X01097Y00528*
X01095Y00528*
X01091*
X01089Y00528*
X01086Y00529*
X01082Y0053*
X01079Y00531*
X01073Y00534*
X01072Y00535*
X01068Y00538*
X01065Y00542*
X01063Y00544*
X01063Y00545*
X0106Y0055*
X01059Y00552*
X01058Y00557*
X01057Y00564*
X01058Y00571*
X0106Y00577*
X01063Y00583*
X01065Y00585*
X01068Y00589*
X01072Y00592*
X01073Y00593*
X01074Y00594*
X01079Y00597*
X01082Y00597*
X01086Y00599*
X01089Y00599*
X01091Y00599*
X01095*
X01097Y00599*
G37*
G36*
Y00699D02*
X011Y00699D01*
X01105Y00697*
X01107Y00697*
X01112Y00694*
X01113Y00693*
X01114Y00692*
X01118Y00689*
X01122Y00685*
X01123Y00683*
X01126Y00677*
X01128Y00671*
X01129Y00664*
X01128Y00657*
X01127Y00652*
X01126Y0065*
X01123Y00645*
X01123Y00644*
X01122Y00642*
X01118Y00638*
X01114Y00635*
X01113Y00634*
X01107Y00631*
X01105Y0063*
X011Y00629*
X01097Y00628*
X01095Y00628*
X01091*
X01089Y00628*
X01086Y00629*
X01082Y0063*
X01079Y00631*
X01073Y00634*
X01072Y00635*
X01068Y00638*
X01065Y00642*
X01063Y00644*
X01063Y00645*
X0106Y0065*
X01059Y00652*
X01058Y00657*
X01057Y00664*
X01058Y00671*
X0106Y00677*
X01063Y00683*
X01065Y00685*
X01068Y00689*
X01072Y00692*
X01073Y00693*
X01074Y00694*
X01079Y00697*
X01082Y00697*
X01086Y00699*
X01089Y00699*
X01091Y00699*
X01095*
X01097Y00699*
G37*
G36*
X00297D02*
X003Y00699D01*
X00305Y00697*
X00307Y00697*
X00312Y00694*
X00313Y00693*
X00314Y00692*
X00318Y00689*
X00322Y00685*
X00323Y00683*
X00326Y00677*
X00328Y00671*
X00329Y00664*
X00328Y00657*
X00327Y00652*
X00326Y0065*
X00323Y00645*
X00323Y00644*
X00322Y00642*
X00318Y00638*
X00314Y00635*
X00313Y00634*
X00307Y00631*
X00305Y0063*
X003Y00629*
X00297Y00628*
X00295Y00628*
X00291*
X00289Y00628*
X00286Y00629*
X00282Y0063*
X00279Y00631*
X00273Y00634*
X00272Y00635*
X00268Y00638*
X00265Y00642*
X00263Y00644*
X00263Y00645*
X0026Y0065*
X00259Y00652*
X00258Y00657*
X00257Y00664*
X00258Y00671*
X0026Y00677*
X00263Y00683*
X00265Y00685*
X00268Y00689*
X00272Y00692*
X00273Y00693*
X00274Y00694*
X00279Y00697*
X00282Y00697*
X00286Y00699*
X00289Y00699*
X00291Y00699*
X00295*
X00297Y00699*
G37*
G36*
X00329Y00728D02*
X00258D01*
Y00799*
X00329*
Y00728*
G37*
G36*
X01129D02*
X01058D01*
Y00799*
X01129*
Y00728*
G37*
G36*
X00844Y00864D02*
X00848Y00863D01*
X00852Y0086*
X00855Y00857*
X00857Y00854*
X00859Y0085*
X0086Y00846*
Y00841*
X00859Y00837*
X00857Y00833*
X00855Y0083*
X00852Y00827*
X00848Y00824*
X00844Y00823*
X0084Y00822*
X00836*
X00832Y00823*
X00828Y00824*
X00824Y00827*
X00821Y0083*
X00819Y00833*
X00817Y00837*
X00816Y00841*
Y00846*
X00817Y0085*
X00819Y00854*
X00821Y00857*
X00824Y0086*
X00828Y00863*
X00832Y00864*
X00836Y00865*
X0084*
X00844Y00864*
G37*
G36*
X01573Y00299D02*
X01576Y00299D01*
X0158Y00297*
X01583Y00297*
X01588Y00294*
X01589Y00293*
X0159Y00292*
X01594Y00289*
X01597Y00285*
X01599Y00283*
X01602Y00277*
X01604Y00271*
X01605Y00264*
X01604Y00257*
X01603Y00252*
X01602Y0025*
X01599Y00245*
X01599Y00244*
X01597Y00242*
X01594Y00238*
X0159Y00235*
X01589Y00234*
X01583Y00231*
X0158Y0023*
X01576Y00229*
X01573Y00228*
X01571Y00228*
X01567*
X01565Y00228*
X01562Y00229*
X01558Y0023*
X01555Y00231*
X01549Y00234*
X01548Y00235*
X01544Y00238*
X0154Y00242*
X01539Y00244*
X01539Y00245*
X01536Y0025*
X01535Y00252*
X01534Y00257*
X01533Y00264*
X01534Y00271*
X01536Y00277*
X01539Y00283*
X0154Y00285*
X01544Y00289*
X01548Y00292*
X01549Y00293*
X0155Y00294*
X01555Y00297*
X01558Y00297*
X01562Y00299*
X01565Y00299*
X01567Y00299*
X01571*
X01573Y00299*
G37*
G36*
X02372D02*
X02375Y00299D01*
X02379Y00297*
X02382Y00297*
X02387Y00294*
X02388Y00293*
X02389Y00292*
X02393Y00289*
X02396Y00285*
X02398Y00283*
X02401Y00277*
X02403Y00271*
X02404Y00264*
X02403Y00257*
X02402Y00252*
X02401Y0025*
X02398Y00245*
X02398Y00244*
X02396Y00242*
X02393Y00238*
X02389Y00235*
X02388Y00234*
X02382Y00231*
X02379Y0023*
X02375Y00229*
X02372Y00228*
X0237Y00228*
X02366*
X02364Y00228*
X02361Y00229*
X02357Y0023*
X02354Y00231*
X02348Y00234*
X02347Y00235*
X02343Y00238*
X02339Y00242*
X02338Y00244*
X02338Y00245*
X02335Y0025*
X02334Y00252*
X02333Y00257*
X02332Y00264*
X02333Y00271*
X02335Y00277*
X02338Y00283*
X02339Y00285*
X02343Y00289*
X02347Y00292*
X02348Y00293*
X02349Y00294*
X02354Y00297*
X02357Y00297*
X02361Y00299*
X02364Y00299*
X02366Y00299*
X0237*
X02372Y00299*
G37*
G36*
Y00399D02*
X02375Y00399D01*
X02379Y00397*
X02382Y00397*
X02387Y00394*
X02388Y00393*
X02389Y00392*
X02393Y00389*
X02396Y00385*
X02398Y00383*
X02401Y00377*
X02403Y00371*
X02404Y00364*
X02403Y00357*
X02402Y00352*
X02401Y0035*
X02398Y00345*
X02398Y00344*
X02396Y00342*
X02393Y00338*
X02389Y00335*
X02388Y00334*
X02382Y00331*
X02379Y0033*
X02375Y00329*
X02372Y00328*
X0237Y00328*
X02366*
X02364Y00328*
X02361Y00329*
X02357Y0033*
X02354Y00331*
X02348Y00334*
X02347Y00335*
X02343Y00338*
X02339Y00342*
X02338Y00344*
X02338Y00345*
X02335Y0035*
X02334Y00352*
X02333Y00357*
X02332Y00364*
X02333Y00371*
X02335Y00377*
X02338Y00383*
X02339Y00385*
X02343Y00389*
X02347Y00392*
X02348Y00393*
X02349Y00394*
X02354Y00397*
X02357Y00397*
X02361Y00399*
X02364Y00399*
X02366Y00399*
X0237*
X02372Y00399*
G37*
G36*
X01573D02*
X01576Y00399D01*
X0158Y00397*
X01583Y00397*
X01588Y00394*
X01589Y00393*
X0159Y00392*
X01594Y00389*
X01597Y00385*
X01599Y00383*
X01602Y00377*
X01604Y00371*
X01605Y00364*
X01604Y00357*
X01603Y00352*
X01602Y0035*
X01599Y00345*
X01599Y00344*
X01597Y00342*
X01594Y00338*
X0159Y00335*
X01589Y00334*
X01583Y00331*
X0158Y0033*
X01576Y00329*
X01573Y00328*
X01571Y00328*
X01567*
X01565Y00328*
X01562Y00329*
X01558Y0033*
X01555Y00331*
X01549Y00334*
X01548Y00335*
X01544Y00338*
X0154Y00342*
X01539Y00344*
X01539Y00345*
X01536Y0035*
X01535Y00352*
X01534Y00357*
X01533Y00364*
X01534Y00371*
X01536Y00377*
X01539Y00383*
X0154Y00385*
X01544Y00389*
X01548Y00392*
X01549Y00393*
X0155Y00394*
X01555Y00397*
X01558Y00397*
X01562Y00399*
X01565Y00399*
X01567Y00399*
X01571*
X01573Y00399*
G37*
G36*
Y00499D02*
X01576Y00499D01*
X0158Y00497*
X01583Y00497*
X01588Y00494*
X01589Y00493*
X0159Y00492*
X01594Y00489*
X01597Y00485*
X01599Y00483*
X01602Y00477*
X01604Y00471*
X01605Y00464*
X01604Y00457*
X01603Y00452*
X01602Y0045*
X01599Y00445*
X01599Y00444*
X01597Y00442*
X01594Y00438*
X0159Y00435*
X01589Y00434*
X01583Y00431*
X0158Y0043*
X01576Y00429*
X01573Y00428*
X01571Y00428*
X01567*
X01565Y00428*
X01562Y00429*
X01558Y0043*
X01555Y00431*
X01549Y00434*
X01548Y00435*
X01544Y00438*
X0154Y00442*
X01539Y00444*
X01539Y00445*
X01536Y0045*
X01535Y00452*
X01534Y00457*
X01533Y00464*
X01534Y00471*
X01536Y00477*
X01539Y00483*
X0154Y00485*
X01544Y00489*
X01548Y00492*
X01549Y00493*
X0155Y00494*
X01555Y00497*
X01558Y00497*
X01562Y00499*
X01565Y00499*
X01567Y00499*
X01571*
X01573Y00499*
G37*
G36*
X02372D02*
X02375Y00499D01*
X02379Y00497*
X02382Y00497*
X02387Y00494*
X02388Y00493*
X02389Y00492*
X02393Y00489*
X02396Y00485*
X02398Y00483*
X02401Y00477*
X02403Y00471*
X02404Y00464*
X02403Y00457*
X02402Y00452*
X02401Y0045*
X02398Y00445*
X02398Y00444*
X02396Y00442*
X02393Y00438*
X02389Y00435*
X02388Y00434*
X02382Y00431*
X02379Y0043*
X02375Y00429*
X02372Y00428*
X0237Y00428*
X02366*
X02364Y00428*
X02361Y00429*
X02357Y0043*
X02354Y00431*
X02348Y00434*
X02347Y00435*
X02343Y00438*
X02339Y00442*
X02338Y00444*
X02338Y00445*
X02335Y0045*
X02334Y00452*
X02333Y00457*
X02332Y00464*
X02333Y00471*
X02335Y00477*
X02338Y00483*
X02339Y00485*
X02343Y00489*
X02347Y00492*
X02348Y00493*
X02349Y00494*
X02354Y00497*
X02357Y00497*
X02361Y00499*
X02364Y00499*
X02366Y00499*
X0237*
X02372Y00499*
G37*
G36*
X01573Y00599D02*
X01576Y00599D01*
X0158Y00597*
X01583Y00597*
X01588Y00594*
X01589Y00593*
X0159Y00592*
X01594Y00589*
X01597Y00585*
X01599Y00583*
X01602Y00577*
X01604Y00571*
X01605Y00564*
X01604Y00557*
X01603Y00552*
X01602Y0055*
X01599Y00545*
X01599Y00544*
X01597Y00542*
X01594Y00538*
X0159Y00535*
X01589Y00534*
X01583Y00531*
X0158Y0053*
X01576Y00529*
X01573Y00528*
X01571Y00528*
X01567*
X01565Y00528*
X01562Y00529*
X01558Y0053*
X01555Y00531*
X01549Y00534*
X01548Y00535*
X01544Y00538*
X0154Y00542*
X01539Y00544*
X01539Y00545*
X01536Y0055*
X01535Y00552*
X01534Y00557*
X01533Y00564*
X01534Y00571*
X01536Y00577*
X01539Y00583*
X0154Y00585*
X01544Y00589*
X01548Y00592*
X01549Y00593*
X0155Y00594*
X01555Y00597*
X01558Y00597*
X01562Y00599*
X01565Y00599*
X01567Y00599*
X01571*
X01573Y00599*
G37*
G36*
X02372D02*
X02375Y00599D01*
X02379Y00597*
X02382Y00597*
X02387Y00594*
X02388Y00593*
X02389Y00592*
X02393Y00589*
X02396Y00585*
X02398Y00583*
X02401Y00577*
X02403Y00571*
X02404Y00564*
X02403Y00557*
X02402Y00552*
X02401Y0055*
X02398Y00545*
X02398Y00544*
X02396Y00542*
X02393Y00538*
X02389Y00535*
X02388Y00534*
X02382Y00531*
X02379Y0053*
X02375Y00529*
X02372Y00528*
X0237Y00528*
X02366*
X02364Y00528*
X02361Y00529*
X02357Y0053*
X02354Y00531*
X02348Y00534*
X02347Y00535*
X02343Y00538*
X02339Y00542*
X02338Y00544*
X02338Y00545*
X02335Y0055*
X02334Y00552*
X02333Y00557*
X02332Y00564*
X02333Y00571*
X02335Y00577*
X02338Y00583*
X02339Y00585*
X02343Y00589*
X02347Y00592*
X02348Y00593*
X02349Y00594*
X02354Y00597*
X02357Y00597*
X02361Y00599*
X02364Y00599*
X02366Y00599*
X0237*
X02372Y00599*
G37*
G36*
Y00699D02*
X02375Y00699D01*
X02379Y00697*
X02382Y00697*
X02387Y00694*
X02388Y00693*
X02389Y00692*
X02393Y00689*
X02396Y00685*
X02398Y00683*
X02401Y00677*
X02403Y00671*
X02404Y00664*
X02403Y00657*
X02402Y00652*
X02401Y0065*
X02398Y00645*
X02398Y00644*
X02396Y00642*
X02393Y00638*
X02389Y00635*
X02388Y00634*
X02382Y00631*
X02379Y0063*
X02375Y00629*
X02372Y00628*
X0237Y00628*
X02366*
X02364Y00628*
X02361Y00629*
X02357Y0063*
X02354Y00631*
X02348Y00634*
X02347Y00635*
X02343Y00638*
X02339Y00642*
X02338Y00644*
X02338Y00645*
X02335Y0065*
X02334Y00652*
X02333Y00657*
X02332Y00664*
X02333Y00671*
X02335Y00677*
X02338Y00683*
X02339Y00685*
X02343Y00689*
X02347Y00692*
X02348Y00693*
X02349Y00694*
X02354Y00697*
X02357Y00697*
X02361Y00699*
X02364Y00699*
X02366Y00699*
X0237*
X02372Y00699*
G37*
G36*
X01573D02*
X01576Y00699D01*
X0158Y00697*
X01583Y00697*
X01588Y00694*
X01589Y00693*
X0159Y00692*
X01594Y00689*
X01597Y00685*
X01599Y00683*
X01602Y00677*
X01604Y00671*
X01605Y00664*
X01604Y00657*
X01603Y00652*
X01602Y0065*
X01599Y00645*
X01599Y00644*
X01597Y00642*
X01594Y00638*
X0159Y00635*
X01589Y00634*
X01583Y00631*
X0158Y0063*
X01576Y00629*
X01573Y00628*
X01571Y00628*
X01567*
X01565Y00628*
X01562Y00629*
X01558Y0063*
X01555Y00631*
X01549Y00634*
X01548Y00635*
X01544Y00638*
X0154Y00642*
X01539Y00644*
X01539Y00645*
X01536Y0065*
X01535Y00652*
X01534Y00657*
X01533Y00664*
X01534Y00671*
X01536Y00677*
X01539Y00683*
X0154Y00685*
X01544Y00689*
X01548Y00692*
X01549Y00693*
X0155Y00694*
X01555Y00697*
X01558Y00697*
X01562Y00699*
X01565Y00699*
X01567Y00699*
X01571*
X01573Y00699*
G37*
G36*
X01604Y00728D02*
X01533D01*
Y00799*
X01604*
Y00728*
G37*
G36*
X02403D02*
X02332D01*
Y00799*
X02403*
Y00728*
G37*
G36*
X02119Y00864D02*
X02123Y00863D01*
X02127Y0086*
X0213Y00857*
X02132Y00854*
X02134Y0085*
X02135Y00846*
Y00841*
X02134Y00837*
X02132Y00833*
X0213Y0083*
X02127Y00827*
X02123Y00824*
X02119Y00823*
X02115Y00822*
X02111*
X02107Y00823*
X02103Y00824*
X02099Y00827*
X02096Y0083*
X02094Y00833*
X02092Y00837*
X02091Y00841*
Y00846*
X02092Y0085*
X02094Y00854*
X02096Y00857*
X02099Y0086*
X02103Y00863*
X02107Y00864*
X02111Y00865*
X02115*
X02119Y00864*
G37*
G36*
X02848Y00299D02*
X02851Y00299D01*
X02855Y00297*
X02857Y00297*
X02863Y00294*
X02864Y00293*
X02865Y00292*
X02869Y00289*
X02872Y00285*
X02873Y00283*
X02877Y00277*
X02879Y00271*
X02879Y00264*
X02879Y00257*
X02877Y00252*
X02877Y0025*
X02874Y00245*
X02873Y00244*
X02872Y00242*
X02869Y00238*
X02865Y00235*
X02864Y00234*
X02857Y00231*
X02855Y0023*
X02851Y00229*
X02848Y00228*
X02846Y00228*
X02842*
X02839Y00228*
X02837Y00229*
X02832Y0023*
X0283Y00231*
X02824Y00234*
X02823Y00235*
X02819Y00238*
X02815Y00242*
X02814Y00244*
X02814Y00245*
X02811Y0025*
X0281Y00252*
X02809Y00257*
X02808Y00264*
X02809Y00271*
X02811Y00277*
X02814Y00283*
X02815Y00285*
X02819Y00289*
X02823Y00292*
X02824Y00293*
X02825Y00294*
X0283Y00297*
X02832Y00297*
X02837Y00299*
X02839Y00299*
X02842Y00299*
X02846*
X02848Y00299*
G37*
G36*
X03648D02*
X03651Y00299D01*
X03655Y00297*
X03657Y00297*
X03663Y00294*
X03664Y00293*
X03665Y00292*
X03669Y00289*
X03672Y00285*
X03673Y00283*
X03677Y00277*
X03679Y00271*
X03679Y00264*
X03679Y00257*
X03677Y00252*
X03677Y0025*
X03674Y00245*
X03673Y00244*
X03672Y00242*
X03669Y00238*
X03665Y00235*
X03664Y00234*
X03657Y00231*
X03655Y0023*
X03651Y00229*
X03648Y00228*
X03646Y00228*
X03642*
X03639Y00228*
X03637Y00229*
X03632Y0023*
X0363Y00231*
X03624Y00234*
X03623Y00235*
X03619Y00238*
X03615Y00242*
X03614Y00244*
X03614Y00245*
X03611Y0025*
X0361Y00252*
X03609Y00257*
X03608Y00264*
X03609Y00271*
X03611Y00277*
X03614Y00283*
X03615Y00285*
X03619Y00289*
X03623Y00292*
X03624Y00293*
X03625Y00294*
X0363Y00297*
X03632Y00297*
X03637Y00299*
X03639Y00299*
X03642Y00299*
X03646*
X03648Y00299*
G37*
G36*
Y00399D02*
X03651Y00399D01*
X03655Y00397*
X03657Y00397*
X03663Y00394*
X03664Y00393*
X03665Y00392*
X03669Y00389*
X03672Y00385*
X03673Y00383*
X03677Y00377*
X03679Y00371*
X03679Y00364*
X03679Y00357*
X03677Y00352*
X03677Y0035*
X03674Y00345*
X03673Y00344*
X03672Y00342*
X03669Y00338*
X03665Y00335*
X03664Y00334*
X03657Y00331*
X03655Y0033*
X03651Y00329*
X03648Y00328*
X03646Y00328*
X03642*
X03639Y00328*
X03637Y00329*
X03632Y0033*
X0363Y00331*
X03624Y00334*
X03623Y00335*
X03619Y00338*
X03615Y00342*
X03614Y00344*
X03614Y00345*
X03611Y0035*
X0361Y00352*
X03609Y00357*
X03608Y00364*
X03609Y00371*
X03611Y00377*
X03614Y00383*
X03615Y00385*
X03619Y00389*
X03623Y00392*
X03624Y00393*
X03625Y00394*
X0363Y00397*
X03632Y00397*
X03637Y00399*
X03639Y00399*
X03642Y00399*
X03646*
X03648Y00399*
G37*
G36*
X02848D02*
X02851Y00399D01*
X02855Y00397*
X02857Y00397*
X02863Y00394*
X02864Y00393*
X02865Y00392*
X02869Y00389*
X02872Y00385*
X02873Y00383*
X02877Y00377*
X02879Y00371*
X02879Y00364*
X02879Y00357*
X02877Y00352*
X02877Y0035*
X02874Y00345*
X02873Y00344*
X02872Y00342*
X02869Y00338*
X02865Y00335*
X02864Y00334*
X02857Y00331*
X02855Y0033*
X02851Y00329*
X02848Y00328*
X02846Y00328*
X02842*
X02839Y00328*
X02837Y00329*
X02832Y0033*
X0283Y00331*
X02824Y00334*
X02823Y00335*
X02819Y00338*
X02815Y00342*
X02814Y00344*
X02814Y00345*
X02811Y0035*
X0281Y00352*
X02809Y00357*
X02808Y00364*
X02809Y00371*
X02811Y00377*
X02814Y00383*
X02815Y00385*
X02819Y00389*
X02823Y00392*
X02824Y00393*
X02825Y00394*
X0283Y00397*
X02832Y00397*
X02837Y00399*
X02839Y00399*
X02842Y00399*
X02846*
X02848Y00399*
G37*
G36*
Y00499D02*
X02851Y00499D01*
X02855Y00497*
X02857Y00497*
X02863Y00494*
X02864Y00493*
X02865Y00492*
X02869Y00489*
X02872Y00485*
X02873Y00483*
X02877Y00477*
X02879Y00471*
X02879Y00464*
X02879Y00457*
X02877Y00452*
X02877Y0045*
X02874Y00445*
X02873Y00444*
X02872Y00442*
X02869Y00438*
X02865Y00435*
X02864Y00434*
X02857Y00431*
X02855Y0043*
X02851Y00429*
X02848Y00428*
X02846Y00428*
X02842*
X02839Y00428*
X02837Y00429*
X02832Y0043*
X0283Y00431*
X02824Y00434*
X02823Y00435*
X02819Y00438*
X02815Y00442*
X02814Y00444*
X02814Y00445*
X02811Y0045*
X0281Y00452*
X02809Y00457*
X02808Y00464*
X02809Y00471*
X02811Y00477*
X02814Y00483*
X02815Y00485*
X02819Y00489*
X02823Y00492*
X02824Y00493*
X02825Y00494*
X0283Y00497*
X02832Y00497*
X02837Y00499*
X02839Y00499*
X02842Y00499*
X02846*
X02848Y00499*
G37*
G36*
X03648D02*
X03651Y00499D01*
X03655Y00497*
X03657Y00497*
X03663Y00494*
X03664Y00493*
X03665Y00492*
X03669Y00489*
X03672Y00485*
X03673Y00483*
X03677Y00477*
X03679Y00471*
X03679Y00464*
X03679Y00457*
X03677Y00452*
X03677Y0045*
X03674Y00445*
X03673Y00444*
X03672Y00442*
X03669Y00438*
X03665Y00435*
X03664Y00434*
X03657Y00431*
X03655Y0043*
X03651Y00429*
X03648Y00428*
X03646Y00428*
X03642*
X03639Y00428*
X03637Y00429*
X03632Y0043*
X0363Y00431*
X03624Y00434*
X03623Y00435*
X03619Y00438*
X03615Y00442*
X03614Y00444*
X03614Y00445*
X03611Y0045*
X0361Y00452*
X03609Y00457*
X03608Y00464*
X03609Y00471*
X03611Y00477*
X03614Y00483*
X03615Y00485*
X03619Y00489*
X03623Y00492*
X03624Y00493*
X03625Y00494*
X0363Y00497*
X03632Y00497*
X03637Y00499*
X03639Y00499*
X03642Y00499*
X03646*
X03648Y00499*
G37*
G36*
X02848Y00599D02*
X02851Y00599D01*
X02855Y00597*
X02857Y00597*
X02863Y00594*
X02864Y00593*
X02865Y00592*
X02869Y00589*
X02872Y00585*
X02873Y00583*
X02877Y00577*
X02879Y00571*
X02879Y00564*
X02879Y00557*
X02877Y00552*
X02877Y0055*
X02874Y00545*
X02873Y00544*
X02872Y00542*
X02869Y00538*
X02865Y00535*
X02864Y00534*
X02857Y00531*
X02855Y0053*
X02851Y00529*
X02848Y00528*
X02846Y00528*
X02842*
X02839Y00528*
X02837Y00529*
X02832Y0053*
X0283Y00531*
X02824Y00534*
X02823Y00535*
X02819Y00538*
X02815Y00542*
X02814Y00544*
X02814Y00545*
X02811Y0055*
X0281Y00552*
X02809Y00557*
X02808Y00564*
X02809Y00571*
X02811Y00577*
X02814Y00583*
X02815Y00585*
X02819Y00589*
X02823Y00592*
X02824Y00593*
X02825Y00594*
X0283Y00597*
X02832Y00597*
X02837Y00599*
X02839Y00599*
X02842Y00599*
X02846*
X02848Y00599*
G37*
G36*
X03648D02*
X03651Y00599D01*
X03655Y00597*
X03657Y00597*
X03663Y00594*
X03664Y00593*
X03665Y00592*
X03669Y00589*
X03672Y00585*
X03673Y00583*
X03677Y00577*
X03679Y00571*
X03679Y00564*
X03679Y00557*
X03677Y00552*
X03677Y0055*
X03674Y00545*
X03673Y00544*
X03672Y00542*
X03669Y00538*
X03665Y00535*
X03664Y00534*
X03657Y00531*
X03655Y0053*
X03651Y00529*
X03648Y00528*
X03646Y00528*
X03642*
X03639Y00528*
X03637Y00529*
X03632Y0053*
X0363Y00531*
X03624Y00534*
X03623Y00535*
X03619Y00538*
X03615Y00542*
X03614Y00544*
X03614Y00545*
X03611Y0055*
X0361Y00552*
X03609Y00557*
X03608Y00564*
X03609Y00571*
X03611Y00577*
X03614Y00583*
X03615Y00585*
X03619Y00589*
X03623Y00592*
X03624Y00593*
X03625Y00594*
X0363Y00597*
X03632Y00597*
X03637Y00599*
X03639Y00599*
X03642Y00599*
X03646*
X03648Y00599*
G37*
G36*
Y00699D02*
X03651Y00699D01*
X03655Y00697*
X03657Y00697*
X03663Y00694*
X03664Y00693*
X03665Y00692*
X03669Y00689*
X03672Y00685*
X03673Y00683*
X03677Y00677*
X03679Y00671*
X03679Y00664*
X03679Y00657*
X03677Y00652*
X03677Y0065*
X03674Y00645*
X03673Y00644*
X03672Y00642*
X03669Y00638*
X03665Y00635*
X03664Y00634*
X03657Y00631*
X03655Y0063*
X03651Y00629*
X03648Y00628*
X03646Y00628*
X03642*
X03639Y00628*
X03637Y00629*
X03632Y0063*
X0363Y00631*
X03624Y00634*
X03623Y00635*
X03619Y00638*
X03615Y00642*
X03614Y00644*
X03614Y00645*
X03611Y0065*
X0361Y00652*
X03609Y00657*
X03608Y00664*
X03609Y00671*
X03611Y00677*
X03614Y00683*
X03615Y00685*
X03619Y00689*
X03623Y00692*
X03624Y00693*
X03625Y00694*
X0363Y00697*
X03632Y00697*
X03637Y00699*
X03639Y00699*
X03642Y00699*
X03646*
X03648Y00699*
G37*
G36*
X02848D02*
X02851Y00699D01*
X02855Y00697*
X02857Y00697*
X02863Y00694*
X02864Y00693*
X02865Y00692*
X02869Y00689*
X02872Y00685*
X02873Y00683*
X02877Y00677*
X02879Y00671*
X02879Y00664*
X02879Y00657*
X02877Y00652*
X02877Y0065*
X02874Y00645*
X02873Y00644*
X02872Y00642*
X02869Y00638*
X02865Y00635*
X02864Y00634*
X02857Y00631*
X02855Y0063*
X02851Y00629*
X02848Y00628*
X02846Y00628*
X02842*
X02839Y00628*
X02837Y00629*
X02832Y0063*
X0283Y00631*
X02824Y00634*
X02823Y00635*
X02819Y00638*
X02815Y00642*
X02814Y00644*
X02814Y00645*
X02811Y0065*
X0281Y00652*
X02809Y00657*
X02808Y00664*
X02809Y00671*
X02811Y00677*
X02814Y00683*
X02815Y00685*
X02819Y00689*
X02823Y00692*
X02824Y00693*
X02825Y00694*
X0283Y00697*
X02832Y00697*
X02837Y00699*
X02839Y00699*
X02842Y00699*
X02846*
X02848Y00699*
G37*
G36*
X02879Y00728D02*
X02808D01*
Y00799*
X02879*
Y00728*
G37*
G36*
X03679D02*
X03608D01*
Y00799*
X03679*
Y00728*
G37*
G36*
X03395Y00864D02*
X03399Y00863D01*
X03403Y0086*
X03406Y00857*
X03408Y00854*
X0341Y0085*
X0341Y00846*
Y00841*
X0341Y00837*
X03408Y00833*
X03406Y0083*
X03403Y00827*
X03399Y00824*
X03395Y00823*
X03391Y00822*
X03387*
X03382Y00823*
X03379Y00824*
X03375Y00827*
X03372Y0083*
X0337Y00833*
X03368Y00837*
X03367Y00841*
Y00846*
X03368Y0085*
X0337Y00854*
X03372Y00857*
X03375Y0086*
X03379Y00863*
X03382Y00864*
X03387Y00865*
X03391*
X03395Y00864*
G37*
G36*
X00297Y01594D02*
X003Y01593D01*
X00305Y01592*
X00307Y01591*
X00312Y01588*
X00313Y01588*
X00314Y01587*
X00318Y01584*
X00322Y0158*
X00323Y01578*
X00326Y01572*
X00328Y01565*
X00329Y01558*
X00328Y01551*
X00327Y01547*
X00326Y01545*
X00323Y01539*
X00323Y01539*
X00322Y01537*
X00318Y01533*
X00314Y0153*
X00313Y01529*
X00307Y01526*
X00305Y01525*
X003Y01523*
X00297Y01523*
X00295Y01523*
X00291*
X00289Y01523*
X00286Y01523*
X00282Y01525*
X00279Y01526*
X00273Y01529*
X00272Y0153*
X00268Y01533*
X00265Y01537*
X00263Y01539*
X00263Y01539*
X0026Y01545*
X00259Y01547*
X00258Y01551*
X00257Y01558*
X00258Y01565*
X0026Y01572*
X00263Y01578*
X00265Y0158*
X00268Y01584*
X00272Y01587*
X00273Y01588*
X00274Y01588*
X00279Y01591*
X00282Y01592*
X00286Y01593*
X00289Y01594*
X00291Y01594*
X00295*
X00297Y01594*
G37*
G36*
X01097D02*
X011Y01593D01*
X01105Y01592*
X01107Y01591*
X01112Y01588*
X01113Y01588*
X01114Y01587*
X01118Y01584*
X01122Y0158*
X01123Y01578*
X01126Y01572*
X01128Y01565*
X01129Y01558*
X01128Y01551*
X01127Y01547*
X01126Y01545*
X01123Y01539*
X01123Y01539*
X01122Y01537*
X01118Y01533*
X01114Y0153*
X01113Y01529*
X01107Y01526*
X01105Y01525*
X011Y01523*
X01097Y01523*
X01095Y01523*
X01091*
X01089Y01523*
X01086Y01523*
X01082Y01525*
X01079Y01526*
X01073Y01529*
X01072Y0153*
X01068Y01533*
X01065Y01537*
X01063Y01539*
X01063Y01539*
X0106Y01545*
X01059Y01547*
X01058Y01551*
X01057Y01558*
X01058Y01565*
X0106Y01572*
X01063Y01578*
X01065Y0158*
X01068Y01584*
X01072Y01587*
X01073Y01588*
X01074Y01588*
X01079Y01591*
X01082Y01592*
X01086Y01593*
X01089Y01594*
X01091Y01594*
X01095*
X01097Y01594*
G37*
G36*
Y01694D02*
X011Y01693D01*
X01105Y01692*
X01107Y01691*
X01112Y01688*
X01113Y01688*
X01114Y01687*
X01118Y01684*
X01122Y0168*
X01123Y01678*
X01126Y01672*
X01128Y01665*
X01129Y01658*
X01128Y01651*
X01127Y01647*
X01126Y01645*
X01123Y01639*
X01123Y01639*
X01122Y01637*
X01118Y01633*
X01114Y0163*
X01113Y01629*
X01107Y01626*
X01105Y01625*
X011Y01623*
X01097Y01623*
X01095Y01623*
X01091*
X01089Y01623*
X01086Y01623*
X01082Y01625*
X01079Y01626*
X01073Y01629*
X01072Y0163*
X01068Y01633*
X01065Y01637*
X01063Y01639*
X01063Y01639*
X0106Y01645*
X01059Y01647*
X01058Y01651*
X01057Y01658*
X01058Y01665*
X0106Y01672*
X01063Y01678*
X01065Y0168*
X01068Y01684*
X01072Y01687*
X01073Y01688*
X01074Y01688*
X01079Y01691*
X01082Y01692*
X01086Y01693*
X01089Y01694*
X01091Y01694*
X01095*
X01097Y01694*
G37*
G36*
X00297D02*
X003Y01693D01*
X00305Y01692*
X00307Y01691*
X00312Y01688*
X00313Y01688*
X00314Y01687*
X00318Y01684*
X00322Y0168*
X00323Y01678*
X00326Y01672*
X00328Y01665*
X00329Y01658*
X00328Y01651*
X00327Y01647*
X00326Y01645*
X00323Y01639*
X00323Y01639*
X00322Y01637*
X00318Y01633*
X00314Y0163*
X00313Y01629*
X00307Y01626*
X00305Y01625*
X003Y01623*
X00297Y01623*
X00295Y01623*
X00291*
X00289Y01623*
X00286Y01623*
X00282Y01625*
X00279Y01626*
X00273Y01629*
X00272Y0163*
X00268Y01633*
X00265Y01637*
X00263Y01639*
X00263Y01639*
X0026Y01645*
X00259Y01647*
X00258Y01651*
X00257Y01658*
X00258Y01665*
X0026Y01672*
X00263Y01678*
X00265Y0168*
X00268Y01684*
X00272Y01687*
X00273Y01688*
X00274Y01688*
X00279Y01691*
X00282Y01692*
X00286Y01693*
X00289Y01694*
X00291Y01694*
X00295*
X00297Y01694*
G37*
G36*
Y01794D02*
X003Y01793D01*
X00305Y01792*
X00307Y01791*
X00312Y01788*
X00313Y01788*
X00314Y01787*
X00318Y01784*
X00322Y0178*
X00323Y01778*
X00326Y01772*
X00328Y01765*
X00329Y01758*
X00328Y01751*
X00327Y01747*
X00326Y01745*
X00323Y01739*
X00323Y01739*
X00322Y01737*
X00318Y01733*
X00314Y0173*
X00313Y01729*
X00307Y01726*
X00305Y01725*
X003Y01723*
X00297Y01723*
X00295Y01723*
X00291*
X00289Y01723*
X00286Y01723*
X00282Y01725*
X00279Y01726*
X00273Y01729*
X00272Y0173*
X00268Y01733*
X00265Y01737*
X00263Y01739*
X00263Y01739*
X0026Y01745*
X00259Y01747*
X00258Y01751*
X00257Y01758*
X00258Y01765*
X0026Y01772*
X00263Y01778*
X00265Y0178*
X00268Y01784*
X00272Y01787*
X00273Y01788*
X00274Y01788*
X00279Y01791*
X00282Y01792*
X00286Y01793*
X00289Y01794*
X00291Y01794*
X00295*
X00297Y01794*
G37*
G36*
X01097D02*
X011Y01793D01*
X01105Y01792*
X01107Y01791*
X01112Y01788*
X01113Y01788*
X01114Y01787*
X01118Y01784*
X01122Y0178*
X01123Y01778*
X01126Y01772*
X01128Y01765*
X01129Y01758*
X01128Y01751*
X01127Y01747*
X01126Y01745*
X01123Y01739*
X01123Y01739*
X01122Y01737*
X01118Y01733*
X01114Y0173*
X01113Y01729*
X01107Y01726*
X01105Y01725*
X011Y01723*
X01097Y01723*
X01095Y01723*
X01091*
X01089Y01723*
X01086Y01723*
X01082Y01725*
X01079Y01726*
X01073Y01729*
X01072Y0173*
X01068Y01733*
X01065Y01737*
X01063Y01739*
X01063Y01739*
X0106Y01745*
X01059Y01747*
X01058Y01751*
X01057Y01758*
X01058Y01765*
X0106Y01772*
X01063Y01778*
X01065Y0178*
X01068Y01784*
X01072Y01787*
X01073Y01788*
X01074Y01788*
X01079Y01791*
X01082Y01792*
X01086Y01793*
X01089Y01794*
X01091Y01794*
X01095*
X01097Y01794*
G37*
G36*
X00297Y01894D02*
X003Y01893D01*
X00305Y01892*
X00307Y01891*
X00312Y01888*
X00313Y01888*
X00314Y01887*
X00318Y01884*
X00322Y0188*
X00323Y01878*
X00326Y01872*
X00328Y01865*
X00329Y01858*
X00328Y01851*
X00327Y01847*
X00326Y01845*
X00323Y01839*
X00323Y01839*
X00322Y01837*
X00318Y01833*
X00314Y0183*
X00313Y01829*
X00307Y01826*
X00305Y01825*
X003Y01823*
X00297Y01823*
X00295Y01823*
X00291*
X00289Y01823*
X00286Y01823*
X00282Y01825*
X00279Y01826*
X00273Y01829*
X00272Y0183*
X00268Y01833*
X00265Y01837*
X00263Y01839*
X00263Y01839*
X0026Y01845*
X00259Y01847*
X00258Y01851*
X00257Y01858*
X00258Y01865*
X0026Y01872*
X00263Y01878*
X00265Y0188*
X00268Y01884*
X00272Y01887*
X00273Y01888*
X00274Y01888*
X00279Y01891*
X00282Y01892*
X00286Y01893*
X00289Y01894*
X00291Y01894*
X00295*
X00297Y01894*
G37*
G36*
X01097D02*
X011Y01893D01*
X01105Y01892*
X01107Y01891*
X01112Y01888*
X01113Y01888*
X01114Y01887*
X01118Y01884*
X01122Y0188*
X01123Y01878*
X01126Y01872*
X01128Y01865*
X01129Y01858*
X01128Y01851*
X01127Y01847*
X01126Y01845*
X01123Y01839*
X01123Y01839*
X01122Y01837*
X01118Y01833*
X01114Y0183*
X01113Y01829*
X01107Y01826*
X01105Y01825*
X011Y01823*
X01097Y01823*
X01095Y01823*
X01091*
X01089Y01823*
X01086Y01823*
X01082Y01825*
X01079Y01826*
X01073Y01829*
X01072Y0183*
X01068Y01833*
X01065Y01837*
X01063Y01839*
X01063Y01839*
X0106Y01845*
X01059Y01847*
X01058Y01851*
X01057Y01858*
X01058Y01865*
X0106Y01872*
X01063Y01878*
X01065Y0188*
X01068Y01884*
X01072Y01887*
X01073Y01888*
X01074Y01888*
X01079Y01891*
X01082Y01892*
X01086Y01893*
X01089Y01894*
X01091Y01894*
X01095*
X01097Y01894*
G37*
G36*
Y01993D02*
X011Y01992D01*
X01105Y01991*
X01107Y0199*
X01112Y01987*
X01113Y01987*
X01114Y01986*
X01118Y01983*
X01122Y01979*
X01123Y01977*
X01126Y01971*
X01128Y01965*
X01129Y01958*
X01128Y01951*
X01127Y01947*
X01126Y01945*
X01123Y01939*
X01123Y01939*
X01122Y01937*
X01118Y01933*
X01114Y0193*
X01113Y01929*
X01107Y01926*
X01105Y01925*
X011Y01923*
X01097Y01923*
X01095Y01923*
X01091*
X01089Y01923*
X01086Y01923*
X01082Y01925*
X01079Y01926*
X01073Y01929*
X01072Y0193*
X01068Y01933*
X01065Y01937*
X01063Y01939*
X01063Y01939*
X0106Y01945*
X01059Y01947*
X01058Y01951*
X01057Y01958*
X01058Y01965*
X0106Y01971*
X01063Y01977*
X01065Y01979*
X01068Y01983*
X01072Y01986*
X01073Y01987*
X01074Y01987*
X01079Y0199*
X01082Y01991*
X01086Y01992*
X01089Y01993*
X01091Y01993*
X01095*
X01097Y01993*
G37*
G36*
X00297D02*
X003Y01992D01*
X00305Y01991*
X00307Y0199*
X00312Y01987*
X00313Y01987*
X00314Y01986*
X00318Y01983*
X00322Y01979*
X00323Y01977*
X00326Y01971*
X00328Y01965*
X00329Y01958*
X00328Y01951*
X00327Y01947*
X00326Y01945*
X00323Y01939*
X00323Y01939*
X00322Y01937*
X00318Y01933*
X00314Y0193*
X00313Y01929*
X00307Y01926*
X00305Y01925*
X003Y01923*
X00297Y01923*
X00295Y01923*
X00291*
X00289Y01923*
X00286Y01923*
X00282Y01925*
X00279Y01926*
X00273Y01929*
X00272Y0193*
X00268Y01933*
X00265Y01937*
X00263Y01939*
X00263Y01939*
X0026Y01945*
X00259Y01947*
X00258Y01951*
X00257Y01958*
X00258Y01965*
X0026Y01971*
X00263Y01977*
X00265Y01979*
X00268Y01983*
X00272Y01986*
X00273Y01987*
X00274Y01987*
X00279Y0199*
X00282Y01991*
X00286Y01992*
X00289Y01993*
X00291Y01993*
X00295*
X00297Y01993*
G37*
G36*
X00329Y02022D02*
X00258D01*
Y02093*
X00329*
Y02022*
G37*
G36*
X01129D02*
X01058D01*
Y02093*
X01129*
Y02022*
G37*
G36*
X00844Y02158D02*
X00848Y02157D01*
X00852Y02154*
X00855Y02151*
X00857Y02148*
X00859Y02144*
X0086Y0214*
Y02135*
X00859Y02131*
X00857Y02127*
X00855Y02124*
X00852Y02121*
X00848Y02118*
X00844Y02117*
X0084Y02116*
X00836*
X00832Y02117*
X00828Y02118*
X00824Y02121*
X00821Y02124*
X00819Y02127*
X00817Y02131*
X00816Y02135*
Y0214*
X00817Y02144*
X00819Y02148*
X00821Y02151*
X00824Y02154*
X00828Y02157*
X00832Y02158*
X00836Y02159*
X0084*
X00844Y02158*
G37*
G36*
X01573Y01594D02*
X01576Y01593D01*
X0158Y01592*
X01583Y01591*
X01588Y01588*
X01589Y01588*
X0159Y01587*
X01594Y01584*
X01597Y0158*
X01599Y01578*
X01602Y01572*
X01604Y01565*
X01605Y01558*
X01604Y01551*
X01603Y01547*
X01602Y01545*
X01599Y01539*
X01599Y01539*
X01597Y01537*
X01594Y01533*
X0159Y0153*
X01589Y01529*
X01583Y01526*
X0158Y01525*
X01576Y01523*
X01573Y01523*
X01571Y01523*
X01567*
X01565Y01523*
X01562Y01523*
X01558Y01525*
X01555Y01526*
X01549Y01529*
X01548Y0153*
X01544Y01533*
X0154Y01537*
X01539Y01539*
X01539Y01539*
X01536Y01545*
X01535Y01547*
X01534Y01551*
X01533Y01558*
X01534Y01565*
X01536Y01572*
X01539Y01578*
X0154Y0158*
X01544Y01584*
X01548Y01587*
X01549Y01588*
X0155Y01588*
X01555Y01591*
X01558Y01592*
X01562Y01593*
X01565Y01594*
X01567Y01594*
X01571*
X01573Y01594*
G37*
G36*
X02372D02*
X02375Y01593D01*
X02379Y01592*
X02382Y01591*
X02387Y01588*
X02388Y01588*
X02389Y01587*
X02393Y01584*
X02396Y0158*
X02398Y01578*
X02401Y01572*
X02403Y01565*
X02404Y01558*
X02403Y01551*
X02402Y01547*
X02401Y01545*
X02398Y01539*
X02398Y01539*
X02396Y01537*
X02393Y01533*
X02389Y0153*
X02388Y01529*
X02382Y01526*
X02379Y01525*
X02375Y01523*
X02372Y01523*
X0237Y01523*
X02366*
X02364Y01523*
X02361Y01523*
X02357Y01525*
X02354Y01526*
X02348Y01529*
X02347Y0153*
X02343Y01533*
X02339Y01537*
X02338Y01539*
X02338Y01539*
X02335Y01545*
X02334Y01547*
X02333Y01551*
X02332Y01558*
X02333Y01565*
X02335Y01572*
X02338Y01578*
X02339Y0158*
X02343Y01584*
X02347Y01587*
X02348Y01588*
X02349Y01588*
X02354Y01591*
X02357Y01592*
X02361Y01593*
X02364Y01594*
X02366Y01594*
X0237*
X02372Y01594*
G37*
G36*
Y01694D02*
X02375Y01693D01*
X02379Y01692*
X02382Y01691*
X02387Y01688*
X02388Y01688*
X02389Y01687*
X02393Y01684*
X02396Y0168*
X02398Y01678*
X02401Y01672*
X02403Y01665*
X02404Y01658*
X02403Y01651*
X02402Y01647*
X02401Y01645*
X02398Y01639*
X02398Y01639*
X02396Y01637*
X02393Y01633*
X02389Y0163*
X02388Y01629*
X02382Y01626*
X02379Y01625*
X02375Y01623*
X02372Y01623*
X0237Y01623*
X02366*
X02364Y01623*
X02361Y01623*
X02357Y01625*
X02354Y01626*
X02348Y01629*
X02347Y0163*
X02343Y01633*
X02339Y01637*
X02338Y01639*
X02338Y01639*
X02335Y01645*
X02334Y01647*
X02333Y01651*
X02332Y01658*
X02333Y01665*
X02335Y01672*
X02338Y01678*
X02339Y0168*
X02343Y01684*
X02347Y01687*
X02348Y01688*
X02349Y01688*
X02354Y01691*
X02357Y01692*
X02361Y01693*
X02364Y01694*
X02366Y01694*
X0237*
X02372Y01694*
G37*
G36*
X01573D02*
X01576Y01693D01*
X0158Y01692*
X01583Y01691*
X01588Y01688*
X01589Y01688*
X0159Y01687*
X01594Y01684*
X01597Y0168*
X01599Y01678*
X01602Y01672*
X01604Y01665*
X01605Y01658*
X01604Y01651*
X01603Y01647*
X01602Y01645*
X01599Y01639*
X01599Y01639*
X01597Y01637*
X01594Y01633*
X0159Y0163*
X01589Y01629*
X01583Y01626*
X0158Y01625*
X01576Y01623*
X01573Y01623*
X01571Y01623*
X01567*
X01565Y01623*
X01562Y01623*
X01558Y01625*
X01555Y01626*
X01549Y01629*
X01548Y0163*
X01544Y01633*
X0154Y01637*
X01539Y01639*
X01539Y01639*
X01536Y01645*
X01535Y01647*
X01534Y01651*
X01533Y01658*
X01534Y01665*
X01536Y01672*
X01539Y01678*
X0154Y0168*
X01544Y01684*
X01548Y01687*
X01549Y01688*
X0155Y01688*
X01555Y01691*
X01558Y01692*
X01562Y01693*
X01565Y01694*
X01567Y01694*
X01571*
X01573Y01694*
G37*
G36*
Y01794D02*
X01576Y01793D01*
X0158Y01792*
X01583Y01791*
X01588Y01788*
X01589Y01788*
X0159Y01787*
X01594Y01784*
X01597Y0178*
X01599Y01778*
X01602Y01772*
X01604Y01765*
X01605Y01758*
X01604Y01751*
X01603Y01747*
X01602Y01745*
X01599Y01739*
X01599Y01739*
X01597Y01737*
X01594Y01733*
X0159Y0173*
X01589Y01729*
X01583Y01726*
X0158Y01725*
X01576Y01723*
X01573Y01723*
X01571Y01723*
X01567*
X01565Y01723*
X01562Y01723*
X01558Y01725*
X01555Y01726*
X01549Y01729*
X01548Y0173*
X01544Y01733*
X0154Y01737*
X01539Y01739*
X01539Y01739*
X01536Y01745*
X01535Y01747*
X01534Y01751*
X01533Y01758*
X01534Y01765*
X01536Y01772*
X01539Y01778*
X0154Y0178*
X01544Y01784*
X01548Y01787*
X01549Y01788*
X0155Y01788*
X01555Y01791*
X01558Y01792*
X01562Y01793*
X01565Y01794*
X01567Y01794*
X01571*
X01573Y01794*
G37*
G36*
X02372D02*
X02375Y01793D01*
X02379Y01792*
X02382Y01791*
X02387Y01788*
X02388Y01788*
X02389Y01787*
X02393Y01784*
X02396Y0178*
X02398Y01778*
X02401Y01772*
X02403Y01765*
X02404Y01758*
X02403Y01751*
X02402Y01747*
X02401Y01745*
X02398Y01739*
X02398Y01739*
X02396Y01737*
X02393Y01733*
X02389Y0173*
X02388Y01729*
X02382Y01726*
X02379Y01725*
X02375Y01723*
X02372Y01723*
X0237Y01723*
X02366*
X02364Y01723*
X02361Y01723*
X02357Y01725*
X02354Y01726*
X02348Y01729*
X02347Y0173*
X02343Y01733*
X02339Y01737*
X02338Y01739*
X02338Y01739*
X02335Y01745*
X02334Y01747*
X02333Y01751*
X02332Y01758*
X02333Y01765*
X02335Y01772*
X02338Y01778*
X02339Y0178*
X02343Y01784*
X02347Y01787*
X02348Y01788*
X02349Y01788*
X02354Y01791*
X02357Y01792*
X02361Y01793*
X02364Y01794*
X02366Y01794*
X0237*
X02372Y01794*
G37*
G36*
X01573Y01894D02*
X01576Y01893D01*
X0158Y01892*
X01583Y01891*
X01588Y01888*
X01589Y01888*
X0159Y01887*
X01594Y01884*
X01597Y0188*
X01599Y01878*
X01602Y01872*
X01604Y01865*
X01605Y01858*
X01604Y01851*
X01603Y01847*
X01602Y01845*
X01599Y01839*
X01599Y01839*
X01597Y01837*
X01594Y01833*
X0159Y0183*
X01589Y01829*
X01583Y01826*
X0158Y01825*
X01576Y01823*
X01573Y01823*
X01571Y01823*
X01567*
X01565Y01823*
X01562Y01823*
X01558Y01825*
X01555Y01826*
X01549Y01829*
X01548Y0183*
X01544Y01833*
X0154Y01837*
X01539Y01839*
X01539Y01839*
X01536Y01845*
X01535Y01847*
X01534Y01851*
X01533Y01858*
X01534Y01865*
X01536Y01872*
X01539Y01878*
X0154Y0188*
X01544Y01884*
X01548Y01887*
X01549Y01888*
X0155Y01888*
X01555Y01891*
X01558Y01892*
X01562Y01893*
X01565Y01894*
X01567Y01894*
X01571*
X01573Y01894*
G37*
G36*
X02372D02*
X02375Y01893D01*
X02379Y01892*
X02382Y01891*
X02387Y01888*
X02388Y01888*
X02389Y01887*
X02393Y01884*
X02396Y0188*
X02398Y01878*
X02401Y01872*
X02403Y01865*
X02404Y01858*
X02403Y01851*
X02402Y01847*
X02401Y01845*
X02398Y01839*
X02398Y01839*
X02396Y01837*
X02393Y01833*
X02389Y0183*
X02388Y01829*
X02382Y01826*
X02379Y01825*
X02375Y01823*
X02372Y01823*
X0237Y01823*
X02366*
X02364Y01823*
X02361Y01823*
X02357Y01825*
X02354Y01826*
X02348Y01829*
X02347Y0183*
X02343Y01833*
X02339Y01837*
X02338Y01839*
X02338Y01839*
X02335Y01845*
X02334Y01847*
X02333Y01851*
X02332Y01858*
X02333Y01865*
X02335Y01872*
X02338Y01878*
X02339Y0188*
X02343Y01884*
X02347Y01887*
X02348Y01888*
X02349Y01888*
X02354Y01891*
X02357Y01892*
X02361Y01893*
X02364Y01894*
X02366Y01894*
X0237*
X02372Y01894*
G37*
G36*
Y01993D02*
X02375Y01992D01*
X02379Y01991*
X02382Y0199*
X02387Y01987*
X02388Y01987*
X02389Y01986*
X02393Y01983*
X02396Y01979*
X02398Y01977*
X02401Y01971*
X02403Y01965*
X02404Y01958*
X02403Y01951*
X02402Y01947*
X02401Y01945*
X02398Y01939*
X02398Y01939*
X02396Y01937*
X02393Y01933*
X02389Y0193*
X02388Y01929*
X02382Y01926*
X02379Y01925*
X02375Y01923*
X02372Y01923*
X0237Y01923*
X02366*
X02364Y01923*
X02361Y01923*
X02357Y01925*
X02354Y01926*
X02348Y01929*
X02347Y0193*
X02343Y01933*
X02339Y01937*
X02338Y01939*
X02338Y01939*
X02335Y01945*
X02334Y01947*
X02333Y01951*
X02332Y01958*
X02333Y01965*
X02335Y01971*
X02338Y01977*
X02339Y01979*
X02343Y01983*
X02347Y01986*
X02348Y01987*
X02349Y01987*
X02354Y0199*
X02357Y01991*
X02361Y01992*
X02364Y01993*
X02366Y01993*
X0237*
X02372Y01993*
G37*
G36*
X01573D02*
X01576Y01992D01*
X0158Y01991*
X01583Y0199*
X01588Y01987*
X01589Y01987*
X0159Y01986*
X01594Y01983*
X01597Y01979*
X01599Y01977*
X01602Y01971*
X01604Y01965*
X01605Y01958*
X01604Y01951*
X01603Y01947*
X01602Y01945*
X01599Y01939*
X01599Y01939*
X01597Y01937*
X01594Y01933*
X0159Y0193*
X01589Y01929*
X01583Y01926*
X0158Y01925*
X01576Y01923*
X01573Y01923*
X01571Y01923*
X01567*
X01565Y01923*
X01562Y01923*
X01558Y01925*
X01555Y01926*
X01549Y01929*
X01548Y0193*
X01544Y01933*
X0154Y01937*
X01539Y01939*
X01539Y01939*
X01536Y01945*
X01535Y01947*
X01534Y01951*
X01533Y01958*
X01534Y01965*
X01536Y01971*
X01539Y01977*
X0154Y01979*
X01544Y01983*
X01548Y01986*
X01549Y01987*
X0155Y01987*
X01555Y0199*
X01558Y01991*
X01562Y01992*
X01565Y01993*
X01567Y01993*
X01571*
X01573Y01993*
G37*
G36*
X01604Y02022D02*
X01533D01*
Y02093*
X01604*
Y02022*
G37*
G36*
X02403D02*
X02332D01*
Y02093*
X02403*
Y02022*
G37*
G36*
X02119Y02158D02*
X02123Y02157D01*
X02127Y02154*
X0213Y02151*
X02132Y02148*
X02134Y02144*
X02135Y0214*
Y02135*
X02134Y02131*
X02132Y02127*
X0213Y02124*
X02127Y02121*
X02123Y02118*
X02119Y02117*
X02115Y02116*
X02111*
X02107Y02117*
X02103Y02118*
X02099Y02121*
X02096Y02124*
X02094Y02127*
X02092Y02131*
X02091Y02135*
Y0214*
X02092Y02144*
X02094Y02148*
X02096Y02151*
X02099Y02154*
X02103Y02157*
X02107Y02158*
X02111Y02159*
X02115*
X02119Y02158*
G37*
G36*
X02848Y01594D02*
X02851Y01593D01*
X02855Y01592*
X02857Y01591*
X02863Y01588*
X02864Y01588*
X02865Y01587*
X02869Y01584*
X02872Y0158*
X02873Y01578*
X02877Y01572*
X02879Y01565*
X02879Y01558*
X02879Y01551*
X02877Y01547*
X02877Y01545*
X02874Y01539*
X02873Y01539*
X02872Y01537*
X02869Y01533*
X02865Y0153*
X02864Y01529*
X02857Y01526*
X02855Y01525*
X02851Y01523*
X02848Y01523*
X02846Y01523*
X02842*
X02839Y01523*
X02837Y01523*
X02832Y01525*
X0283Y01526*
X02824Y01529*
X02823Y0153*
X02819Y01533*
X02815Y01537*
X02814Y01539*
X02814Y01539*
X02811Y01545*
X0281Y01547*
X02809Y01551*
X02808Y01558*
X02809Y01565*
X02811Y01572*
X02814Y01578*
X02815Y0158*
X02819Y01584*
X02823Y01587*
X02824Y01588*
X02825Y01588*
X0283Y01591*
X02832Y01592*
X02837Y01593*
X02839Y01594*
X02842Y01594*
X02846*
X02848Y01594*
G37*
G36*
X03648D02*
X03651Y01593D01*
X03655Y01592*
X03657Y01591*
X03663Y01588*
X03664Y01588*
X03665Y01587*
X03669Y01584*
X03672Y0158*
X03673Y01578*
X03677Y01572*
X03679Y01565*
X03679Y01558*
X03679Y01551*
X03677Y01547*
X03677Y01545*
X03674Y01539*
X03673Y01539*
X03672Y01537*
X03669Y01533*
X03665Y0153*
X03664Y01529*
X03657Y01526*
X03655Y01525*
X03651Y01523*
X03648Y01523*
X03646Y01523*
X03642*
X03639Y01523*
X03637Y01523*
X03632Y01525*
X0363Y01526*
X03624Y01529*
X03623Y0153*
X03619Y01533*
X03615Y01537*
X03614Y01539*
X03614Y01539*
X03611Y01545*
X0361Y01547*
X03609Y01551*
X03608Y01558*
X03609Y01565*
X03611Y01572*
X03614Y01578*
X03615Y0158*
X03619Y01584*
X03623Y01587*
X03624Y01588*
X03625Y01588*
X0363Y01591*
X03632Y01592*
X03637Y01593*
X03639Y01594*
X03642Y01594*
X03646*
X03648Y01594*
G37*
G36*
Y01694D02*
X03651Y01693D01*
X03655Y01692*
X03657Y01691*
X03663Y01688*
X03664Y01688*
X03665Y01687*
X03669Y01684*
X03672Y0168*
X03673Y01678*
X03677Y01672*
X03679Y01665*
X03679Y01658*
X03679Y01651*
X03677Y01647*
X03677Y01645*
X03674Y01639*
X03673Y01639*
X03672Y01637*
X03669Y01633*
X03665Y0163*
X03664Y01629*
X03657Y01626*
X03655Y01625*
X03651Y01623*
X03648Y01623*
X03646Y01623*
X03642*
X03639Y01623*
X03637Y01623*
X03632Y01625*
X0363Y01626*
X03624Y01629*
X03623Y0163*
X03619Y01633*
X03615Y01637*
X03614Y01639*
X03614Y01639*
X03611Y01645*
X0361Y01647*
X03609Y01651*
X03608Y01658*
X03609Y01665*
X03611Y01672*
X03614Y01678*
X03615Y0168*
X03619Y01684*
X03623Y01687*
X03624Y01688*
X03625Y01688*
X0363Y01691*
X03632Y01692*
X03637Y01693*
X03639Y01694*
X03642Y01694*
X03646*
X03648Y01694*
G37*
G36*
X02848D02*
X02851Y01693D01*
X02855Y01692*
X02857Y01691*
X02863Y01688*
X02864Y01688*
X02865Y01687*
X02869Y01684*
X02872Y0168*
X02873Y01678*
X02877Y01672*
X02879Y01665*
X02879Y01658*
X02879Y01651*
X02877Y01647*
X02877Y01645*
X02874Y01639*
X02873Y01639*
X02872Y01637*
X02869Y01633*
X02865Y0163*
X02864Y01629*
X02857Y01626*
X02855Y01625*
X02851Y01623*
X02848Y01623*
X02846Y01623*
X02842*
X02839Y01623*
X02837Y01623*
X02832Y01625*
X0283Y01626*
X02824Y01629*
X02823Y0163*
X02819Y01633*
X02815Y01637*
X02814Y01639*
X02814Y01639*
X02811Y01645*
X0281Y01647*
X02809Y01651*
X02808Y01658*
X02809Y01665*
X02811Y01672*
X02814Y01678*
X02815Y0168*
X02819Y01684*
X02823Y01687*
X02824Y01688*
X02825Y01688*
X0283Y01691*
X02832Y01692*
X02837Y01693*
X02839Y01694*
X02842Y01694*
X02846*
X02848Y01694*
G37*
G36*
Y01794D02*
X02851Y01793D01*
X02855Y01792*
X02857Y01791*
X02863Y01788*
X02864Y01788*
X02865Y01787*
X02869Y01784*
X02872Y0178*
X02873Y01778*
X02877Y01772*
X02879Y01765*
X02879Y01758*
X02879Y01751*
X02877Y01747*
X02877Y01745*
X02874Y01739*
X02873Y01739*
X02872Y01737*
X02869Y01733*
X02865Y0173*
X02864Y01729*
X02857Y01726*
X02855Y01725*
X02851Y01723*
X02848Y01723*
X02846Y01723*
X02842*
X02839Y01723*
X02837Y01723*
X02832Y01725*
X0283Y01726*
X02824Y01729*
X02823Y0173*
X02819Y01733*
X02815Y01737*
X02814Y01739*
X02814Y01739*
X02811Y01745*
X0281Y01747*
X02809Y01751*
X02808Y01758*
X02809Y01765*
X02811Y01772*
X02814Y01778*
X02815Y0178*
X02819Y01784*
X02823Y01787*
X02824Y01788*
X02825Y01788*
X0283Y01791*
X02832Y01792*
X02837Y01793*
X02839Y01794*
X02842Y01794*
X02846*
X02848Y01794*
G37*
G36*
X03648D02*
X03651Y01793D01*
X03655Y01792*
X03657Y01791*
X03663Y01788*
X03664Y01788*
X03665Y01787*
X03669Y01784*
X03672Y0178*
X03673Y01778*
X03677Y01772*
X03679Y01765*
X03679Y01758*
X03679Y01751*
X03677Y01747*
X03677Y01745*
X03674Y01739*
X03673Y01739*
X03672Y01737*
X03669Y01733*
X03665Y0173*
X03664Y01729*
X03657Y01726*
X03655Y01725*
X03651Y01723*
X03648Y01723*
X03646Y01723*
X03642*
X03639Y01723*
X03637Y01723*
X03632Y01725*
X0363Y01726*
X03624Y01729*
X03623Y0173*
X03619Y01733*
X03615Y01737*
X03614Y01739*
X03614Y01739*
X03611Y01745*
X0361Y01747*
X03609Y01751*
X03608Y01758*
X03609Y01765*
X03611Y01772*
X03614Y01778*
X03615Y0178*
X03619Y01784*
X03623Y01787*
X03624Y01788*
X03625Y01788*
X0363Y01791*
X03632Y01792*
X03637Y01793*
X03639Y01794*
X03642Y01794*
X03646*
X03648Y01794*
G37*
G36*
X02848Y01894D02*
X02851Y01893D01*
X02855Y01892*
X02857Y01891*
X02863Y01888*
X02864Y01888*
X02865Y01887*
X02869Y01884*
X02872Y0188*
X02873Y01878*
X02877Y01872*
X02879Y01865*
X02879Y01858*
X02879Y01851*
X02877Y01847*
X02877Y01845*
X02874Y01839*
X02873Y01839*
X02872Y01837*
X02869Y01833*
X02865Y0183*
X02864Y01829*
X02857Y01826*
X02855Y01825*
X02851Y01823*
X02848Y01823*
X02846Y01823*
X02842*
X02839Y01823*
X02837Y01823*
X02832Y01825*
X0283Y01826*
X02824Y01829*
X02823Y0183*
X02819Y01833*
X02815Y01837*
X02814Y01839*
X02814Y01839*
X02811Y01845*
X0281Y01847*
X02809Y01851*
X02808Y01858*
X02809Y01865*
X02811Y01872*
X02814Y01878*
X02815Y0188*
X02819Y01884*
X02823Y01887*
X02824Y01888*
X02825Y01888*
X0283Y01891*
X02832Y01892*
X02837Y01893*
X02839Y01894*
X02842Y01894*
X02846*
X02848Y01894*
G37*
G36*
X03648D02*
X03651Y01893D01*
X03655Y01892*
X03657Y01891*
X03663Y01888*
X03664Y01888*
X03665Y01887*
X03669Y01884*
X03672Y0188*
X03673Y01878*
X03677Y01872*
X03679Y01865*
X03679Y01858*
X03679Y01851*
X03677Y01847*
X03677Y01845*
X03674Y01839*
X03673Y01839*
X03672Y01837*
X03669Y01833*
X03665Y0183*
X03664Y01829*
X03657Y01826*
X03655Y01825*
X03651Y01823*
X03648Y01823*
X03646Y01823*
X03642*
X03639Y01823*
X03637Y01823*
X03632Y01825*
X0363Y01826*
X03624Y01829*
X03623Y0183*
X03619Y01833*
X03615Y01837*
X03614Y01839*
X03614Y01839*
X03611Y01845*
X0361Y01847*
X03609Y01851*
X03608Y01858*
X03609Y01865*
X03611Y01872*
X03614Y01878*
X03615Y0188*
X03619Y01884*
X03623Y01887*
X03624Y01888*
X03625Y01888*
X0363Y01891*
X03632Y01892*
X03637Y01893*
X03639Y01894*
X03642Y01894*
X03646*
X03648Y01894*
G37*
G36*
Y01993D02*
X03651Y01992D01*
X03655Y01991*
X03657Y0199*
X03663Y01987*
X03664Y01987*
X03665Y01986*
X03669Y01983*
X03672Y01979*
X03673Y01977*
X03677Y01971*
X03679Y01965*
X03679Y01958*
X03679Y01951*
X03677Y01947*
X03677Y01945*
X03674Y01939*
X03673Y01939*
X03672Y01937*
X03669Y01933*
X03665Y0193*
X03664Y01929*
X03657Y01926*
X03655Y01925*
X03651Y01923*
X03648Y01923*
X03646Y01923*
X03642*
X03639Y01923*
X03637Y01923*
X03632Y01925*
X0363Y01926*
X03624Y01929*
X03623Y0193*
X03619Y01933*
X03615Y01937*
X03614Y01939*
X03614Y01939*
X03611Y01945*
X0361Y01947*
X03609Y01951*
X03608Y01958*
X03609Y01965*
X03611Y01971*
X03614Y01977*
X03615Y01979*
X03619Y01983*
X03623Y01986*
X03624Y01987*
X03625Y01987*
X0363Y0199*
X03632Y01991*
X03637Y01992*
X03639Y01993*
X03642Y01993*
X03646*
X03648Y01993*
G37*
G36*
X02848D02*
X02851Y01992D01*
X02855Y01991*
X02857Y0199*
X02863Y01987*
X02864Y01987*
X02865Y01986*
X02869Y01983*
X02872Y01979*
X02873Y01977*
X02877Y01971*
X02879Y01965*
X02879Y01958*
X02879Y01951*
X02877Y01947*
X02877Y01945*
X02874Y01939*
X02873Y01939*
X02872Y01937*
X02869Y01933*
X02865Y0193*
X02864Y01929*
X02857Y01926*
X02855Y01925*
X02851Y01923*
X02848Y01923*
X02846Y01923*
X02842*
X02839Y01923*
X02837Y01923*
X02832Y01925*
X0283Y01926*
X02824Y01929*
X02823Y0193*
X02819Y01933*
X02815Y01937*
X02814Y01939*
X02814Y01939*
X02811Y01945*
X0281Y01947*
X02809Y01951*
X02808Y01958*
X02809Y01965*
X02811Y01971*
X02814Y01977*
X02815Y01979*
X02819Y01983*
X02823Y01986*
X02824Y01987*
X02825Y01987*
X0283Y0199*
X02832Y01991*
X02837Y01992*
X02839Y01993*
X02842Y01993*
X02846*
X02848Y01993*
G37*
G36*
X02879Y02022D02*
X02808D01*
Y02093*
X02879*
Y02022*
G37*
G36*
X03679D02*
X03608D01*
Y02093*
X03679*
Y02022*
G37*
G36*
X03395Y02158D02*
X03399Y02157D01*
X03403Y02154*
X03406Y02151*
X03408Y02148*
X0341Y02144*
X0341Y0214*
Y02135*
X0341Y02131*
X03408Y02127*
X03406Y02124*
X03403Y02121*
X03399Y02118*
X03395Y02117*
X03391Y02116*
X03387*
X03382Y02117*
X03379Y02118*
X03375Y02121*
X03372Y02124*
X0337Y02127*
X03368Y02131*
X03367Y02135*
Y0214*
X03368Y02144*
X0337Y02148*
X03372Y02151*
X03375Y02154*
X03379Y02157*
X03382Y02158*
X03387Y02159*
X03391*
X03395Y02158*
G37*
G36*
X00297Y02888D02*
X003Y02887D01*
X00305Y02886*
X00307Y02885*
X00312Y02882*
X00313Y02882*
X00314Y02881*
X00318Y02878*
X00322Y02874*
X00323Y02872*
X00326Y02866*
X00328Y02859*
X00329Y02852*
X00328Y02845*
X00327Y02841*
X00326Y02839*
X00323Y02833*
X00323Y02832*
X00322Y02831*
X00318Y02827*
X00314Y02824*
X00313Y02823*
X00307Y02819*
X00305Y02819*
X003Y02817*
X00297Y02817*
X00295Y02817*
X00291*
X00289Y02817*
X00286Y02817*
X00282Y02819*
X00279Y02819*
X00273Y02823*
X00272Y02824*
X00268Y02827*
X00265Y02831*
X00263Y02832*
X00263Y02833*
X0026Y02839*
X00259Y02841*
X00258Y02845*
X00257Y02852*
X00258Y02859*
X0026Y02866*
X00263Y02872*
X00265Y02874*
X00268Y02878*
X00272Y02881*
X00273Y02882*
X00274Y02882*
X00279Y02885*
X00282Y02886*
X00286Y02887*
X00289Y02888*
X00291Y02888*
X00295*
X00297Y02888*
G37*
G36*
X01097D02*
X011Y02887D01*
X01105Y02886*
X01107Y02885*
X01112Y02882*
X01113Y02882*
X01114Y02881*
X01118Y02878*
X01122Y02874*
X01123Y02872*
X01126Y02866*
X01128Y02859*
X01129Y02852*
X01128Y02845*
X01127Y02841*
X01126Y02839*
X01123Y02833*
X01123Y02832*
X01122Y02831*
X01118Y02827*
X01114Y02824*
X01113Y02823*
X01107Y02819*
X01105Y02819*
X011Y02817*
X01097Y02817*
X01095Y02817*
X01091*
X01089Y02817*
X01086Y02817*
X01082Y02819*
X01079Y02819*
X01073Y02823*
X01072Y02824*
X01068Y02827*
X01065Y02831*
X01063Y02832*
X01063Y02833*
X0106Y02839*
X01059Y02841*
X01058Y02845*
X01057Y02852*
X01058Y02859*
X0106Y02866*
X01063Y02872*
X01065Y02874*
X01068Y02878*
X01072Y02881*
X01073Y02882*
X01074Y02882*
X01079Y02885*
X01082Y02886*
X01086Y02887*
X01089Y02888*
X01091Y02888*
X01095*
X01097Y02888*
G37*
G36*
Y02988D02*
X011Y02987D01*
X01105Y02986*
X01107Y02985*
X01112Y02982*
X01113Y02982*
X01114Y02981*
X01118Y02978*
X01122Y02974*
X01123Y02972*
X01126Y02966*
X01128Y02959*
X01129Y02952*
X01128Y02945*
X01127Y02941*
X01126Y02939*
X01123Y02933*
X01123Y02932*
X01122Y02931*
X01118Y02927*
X01114Y02924*
X01113Y02923*
X01107Y02919*
X01105Y02919*
X011Y02917*
X01097Y02917*
X01095Y02917*
X01091*
X01089Y02917*
X01086Y02917*
X01082Y02919*
X01079Y02919*
X01073Y02923*
X01072Y02924*
X01068Y02927*
X01065Y02931*
X01063Y02932*
X01063Y02933*
X0106Y02939*
X01059Y02941*
X01058Y02945*
X01057Y02952*
X01058Y02959*
X0106Y02966*
X01063Y02972*
X01065Y02974*
X01068Y02978*
X01072Y02981*
X01073Y02982*
X01074Y02982*
X01079Y02985*
X01082Y02986*
X01086Y02987*
X01089Y02988*
X01091Y02988*
X01095*
X01097Y02988*
G37*
G36*
X00297D02*
X003Y02987D01*
X00305Y02986*
X00307Y02985*
X00312Y02982*
X00313Y02982*
X00314Y02981*
X00318Y02978*
X00322Y02974*
X00323Y02972*
X00326Y02966*
X00328Y02959*
X00329Y02952*
X00328Y02945*
X00327Y02941*
X00326Y02939*
X00323Y02933*
X00323Y02932*
X00322Y02931*
X00318Y02927*
X00314Y02924*
X00313Y02923*
X00307Y02919*
X00305Y02919*
X003Y02917*
X00297Y02917*
X00295Y02917*
X00291*
X00289Y02917*
X00286Y02917*
X00282Y02919*
X00279Y02919*
X00273Y02923*
X00272Y02924*
X00268Y02927*
X00265Y02931*
X00263Y02932*
X00263Y02933*
X0026Y02939*
X00259Y02941*
X00258Y02945*
X00257Y02952*
X00258Y02959*
X0026Y02966*
X00263Y02972*
X00265Y02974*
X00268Y02978*
X00272Y02981*
X00273Y02982*
X00274Y02982*
X00279Y02985*
X00282Y02986*
X00286Y02987*
X00289Y02988*
X00291Y02988*
X00295*
X00297Y02988*
G37*
G36*
Y03088D02*
X003Y03087D01*
X00305Y03086*
X00307Y03085*
X00312Y03082*
X00313Y03082*
X00314Y03081*
X00318Y03078*
X00322Y03074*
X00323Y03072*
X00326Y03066*
X00328Y03059*
X00329Y03052*
X00328Y03045*
X00327Y03041*
X00326Y03039*
X00323Y03033*
X00323Y03032*
X00322Y03031*
X00318Y03027*
X00314Y03024*
X00313Y03023*
X00307Y03019*
X00305Y03019*
X003Y03017*
X00297Y03017*
X00295Y03017*
X00291*
X00289Y03017*
X00286Y03017*
X00282Y03019*
X00279Y03019*
X00273Y03023*
X00272Y03024*
X00268Y03027*
X00265Y03031*
X00263Y03032*
X00263Y03033*
X0026Y03039*
X00259Y03041*
X00258Y03045*
X00257Y03052*
X00258Y03059*
X0026Y03066*
X00263Y03072*
X00265Y03074*
X00268Y03078*
X00272Y03081*
X00273Y03082*
X00274Y03082*
X00279Y03085*
X00282Y03086*
X00286Y03087*
X00289Y03088*
X00291Y03088*
X00295*
X00297Y03088*
G37*
G36*
X01097D02*
X011Y03087D01*
X01105Y03086*
X01107Y03085*
X01112Y03082*
X01113Y03082*
X01114Y03081*
X01118Y03078*
X01122Y03074*
X01123Y03072*
X01126Y03066*
X01128Y03059*
X01129Y03052*
X01128Y03045*
X01127Y03041*
X01126Y03039*
X01123Y03033*
X01123Y03032*
X01122Y03031*
X01118Y03027*
X01114Y03024*
X01113Y03023*
X01107Y03019*
X01105Y03019*
X011Y03017*
X01097Y03017*
X01095Y03017*
X01091*
X01089Y03017*
X01086Y03017*
X01082Y03019*
X01079Y03019*
X01073Y03023*
X01072Y03024*
X01068Y03027*
X01065Y03031*
X01063Y03032*
X01063Y03033*
X0106Y03039*
X01059Y03041*
X01058Y03045*
X01057Y03052*
X01058Y03059*
X0106Y03066*
X01063Y03072*
X01065Y03074*
X01068Y03078*
X01072Y03081*
X01073Y03082*
X01074Y03082*
X01079Y03085*
X01082Y03086*
X01086Y03087*
X01089Y03088*
X01091Y03088*
X01095*
X01097Y03088*
G37*
G36*
X00297Y03188D02*
X003Y03187D01*
X00305Y03186*
X00307Y03185*
X00312Y03182*
X00313Y03182*
X00314Y03181*
X00318Y03178*
X00322Y03174*
X00323Y03172*
X00326Y03166*
X00328Y03159*
X00329Y03152*
X00328Y03145*
X00327Y03141*
X00326Y03139*
X00323Y03133*
X00323Y03132*
X00322Y03131*
X00318Y03127*
X00314Y03124*
X00313Y03123*
X00307Y03119*
X00305Y03119*
X003Y03117*
X00297Y03117*
X00295Y03117*
X00291*
X00289Y03117*
X00286Y03117*
X00282Y03119*
X00279Y03119*
X00273Y03123*
X00272Y03124*
X00268Y03127*
X00265Y03131*
X00263Y03132*
X00263Y03133*
X0026Y03139*
X00259Y03141*
X00258Y03145*
X00257Y03152*
X00258Y03159*
X0026Y03166*
X00263Y03172*
X00265Y03174*
X00268Y03178*
X00272Y03181*
X00273Y03182*
X00274Y03182*
X00279Y03185*
X00282Y03186*
X00286Y03187*
X00289Y03188*
X00291Y03188*
X00295*
X00297Y03188*
G37*
G36*
X01097D02*
X011Y03187D01*
X01105Y03186*
X01107Y03185*
X01112Y03182*
X01113Y03182*
X01114Y03181*
X01118Y03178*
X01122Y03174*
X01123Y03172*
X01126Y03166*
X01128Y03159*
X01129Y03152*
X01128Y03145*
X01127Y03141*
X01126Y03139*
X01123Y03133*
X01123Y03132*
X01122Y03131*
X01118Y03127*
X01114Y03124*
X01113Y03123*
X01107Y03119*
X01105Y03119*
X011Y03117*
X01097Y03117*
X01095Y03117*
X01091*
X01089Y03117*
X01086Y03117*
X01082Y03119*
X01079Y03119*
X01073Y03123*
X01072Y03124*
X01068Y03127*
X01065Y03131*
X01063Y03132*
X01063Y03133*
X0106Y03139*
X01059Y03141*
X01058Y03145*
X01057Y03152*
X01058Y03159*
X0106Y03166*
X01063Y03172*
X01065Y03174*
X01068Y03178*
X01072Y03181*
X01073Y03182*
X01074Y03182*
X01079Y03185*
X01082Y03186*
X01086Y03187*
X01089Y03188*
X01091Y03188*
X01095*
X01097Y03188*
G37*
G36*
Y03288D02*
X011Y03287D01*
X01105Y03286*
X01107Y03285*
X01112Y03282*
X01113Y03282*
X01114Y03281*
X01118Y03278*
X01122Y03274*
X01123Y03272*
X01126Y03266*
X01128Y03259*
X01129Y03252*
X01128Y03245*
X01127Y03241*
X01126Y03239*
X01123Y03233*
X01123Y03232*
X01122Y03231*
X01118Y03227*
X01114Y03224*
X01113Y03223*
X01107Y03219*
X01105Y03219*
X011Y03217*
X01097Y03217*
X01095Y03217*
X01091*
X01089Y03217*
X01086Y03217*
X01082Y03219*
X01079Y03219*
X01073Y03223*
X01072Y03224*
X01068Y03227*
X01065Y03231*
X01063Y03232*
X01063Y03233*
X0106Y03239*
X01059Y03241*
X01058Y03245*
X01057Y03252*
X01058Y03259*
X0106Y03266*
X01063Y03272*
X01065Y03274*
X01068Y03278*
X01072Y03281*
X01073Y03282*
X01074Y03282*
X01079Y03285*
X01082Y03286*
X01086Y03287*
X01089Y03288*
X01091Y03288*
X01095*
X01097Y03288*
G37*
G36*
X00297D02*
X003Y03287D01*
X00305Y03286*
X00307Y03285*
X00312Y03282*
X00313Y03282*
X00314Y03281*
X00318Y03278*
X00322Y03274*
X00323Y03272*
X00326Y03266*
X00328Y03259*
X00329Y03252*
X00328Y03245*
X00327Y03241*
X00326Y03239*
X00323Y03233*
X00323Y03232*
X00322Y03231*
X00318Y03227*
X00314Y03224*
X00313Y03223*
X00307Y03219*
X00305Y03219*
X003Y03217*
X00297Y03217*
X00295Y03217*
X00291*
X00289Y03217*
X00286Y03217*
X00282Y03219*
X00279Y03219*
X00273Y03223*
X00272Y03224*
X00268Y03227*
X00265Y03231*
X00263Y03232*
X00263Y03233*
X0026Y03239*
X00259Y03241*
X00258Y03245*
X00257Y03252*
X00258Y03259*
X0026Y03266*
X00263Y03272*
X00265Y03274*
X00268Y03278*
X00272Y03281*
X00273Y03282*
X00274Y03282*
X00279Y03285*
X00282Y03286*
X00286Y03287*
X00289Y03288*
X00291Y03288*
X00295*
X00297Y03288*
G37*
G36*
X00329Y03317D02*
X00258D01*
Y03388*
X00329*
Y03317*
G37*
G36*
X01129D02*
X01058D01*
Y03388*
X01129*
Y03317*
G37*
G36*
X00844Y03453D02*
X00848Y03452D01*
X00852Y03449*
X00855Y03446*
X00857Y03443*
X00859Y03439*
X0086Y03434*
Y0343*
X00859Y03426*
X00857Y03422*
X00855Y03418*
X00852Y03415*
X00848Y03413*
X00844Y03411*
X0084Y03411*
X00836*
X00832Y03411*
X00828Y03413*
X00824Y03415*
X00821Y03418*
X00819Y03422*
X00817Y03426*
X00816Y0343*
Y03434*
X00817Y03439*
X00819Y03443*
X00821Y03446*
X00824Y03449*
X00828Y03452*
X00832Y03453*
X00836Y03454*
X0084*
X00844Y03453*
G37*
G36*
X01573Y02888D02*
X01576Y02887D01*
X0158Y02886*
X01583Y02885*
X01588Y02882*
X01589Y02882*
X0159Y02881*
X01594Y02878*
X01597Y02874*
X01599Y02872*
X01602Y02866*
X01604Y02859*
X01605Y02852*
X01604Y02845*
X01603Y02841*
X01602Y02839*
X01599Y02833*
X01599Y02832*
X01597Y02831*
X01594Y02827*
X0159Y02824*
X01589Y02823*
X01583Y02819*
X0158Y02819*
X01576Y02817*
X01573Y02817*
X01571Y02817*
X01567*
X01565Y02817*
X01562Y02817*
X01558Y02819*
X01555Y02819*
X01549Y02823*
X01548Y02824*
X01544Y02827*
X0154Y02831*
X01539Y02832*
X01539Y02833*
X01536Y02839*
X01535Y02841*
X01534Y02845*
X01533Y02852*
X01534Y02859*
X01536Y02866*
X01539Y02872*
X0154Y02874*
X01544Y02878*
X01548Y02881*
X01549Y02882*
X0155Y02882*
X01555Y02885*
X01558Y02886*
X01562Y02887*
X01565Y02888*
X01567Y02888*
X01571*
X01573Y02888*
G37*
G36*
X02372D02*
X02375Y02887D01*
X02379Y02886*
X02382Y02885*
X02387Y02882*
X02388Y02882*
X02389Y02881*
X02393Y02878*
X02396Y02874*
X02398Y02872*
X02401Y02866*
X02403Y02859*
X02404Y02852*
X02403Y02845*
X02402Y02841*
X02401Y02839*
X02398Y02833*
X02398Y02832*
X02396Y02831*
X02393Y02827*
X02389Y02824*
X02388Y02823*
X02382Y02819*
X02379Y02819*
X02375Y02817*
X02372Y02817*
X0237Y02817*
X02366*
X02364Y02817*
X02361Y02817*
X02357Y02819*
X02354Y02819*
X02348Y02823*
X02347Y02824*
X02343Y02827*
X02339Y02831*
X02338Y02832*
X02338Y02833*
X02335Y02839*
X02334Y02841*
X02333Y02845*
X02332Y02852*
X02333Y02859*
X02335Y02866*
X02338Y02872*
X02339Y02874*
X02343Y02878*
X02347Y02881*
X02348Y02882*
X02349Y02882*
X02354Y02885*
X02357Y02886*
X02361Y02887*
X02364Y02888*
X02366Y02888*
X0237*
X02372Y02888*
G37*
G36*
Y02988D02*
X02375Y02987D01*
X02379Y02986*
X02382Y02985*
X02387Y02982*
X02388Y02982*
X02389Y02981*
X02393Y02978*
X02396Y02974*
X02398Y02972*
X02401Y02966*
X02403Y02959*
X02404Y02952*
X02403Y02945*
X02402Y02941*
X02401Y02939*
X02398Y02933*
X02398Y02932*
X02396Y02931*
X02393Y02927*
X02389Y02924*
X02388Y02923*
X02382Y02919*
X02379Y02919*
X02375Y02917*
X02372Y02917*
X0237Y02917*
X02366*
X02364Y02917*
X02361Y02917*
X02357Y02919*
X02354Y02919*
X02348Y02923*
X02347Y02924*
X02343Y02927*
X02339Y02931*
X02338Y02932*
X02338Y02933*
X02335Y02939*
X02334Y02941*
X02333Y02945*
X02332Y02952*
X02333Y02959*
X02335Y02966*
X02338Y02972*
X02339Y02974*
X02343Y02978*
X02347Y02981*
X02348Y02982*
X02349Y02982*
X02354Y02985*
X02357Y02986*
X02361Y02987*
X02364Y02988*
X02366Y02988*
X0237*
X02372Y02988*
G37*
G36*
X01573D02*
X01576Y02987D01*
X0158Y02986*
X01583Y02985*
X01588Y02982*
X01589Y02982*
X0159Y02981*
X01594Y02978*
X01597Y02974*
X01599Y02972*
X01602Y02966*
X01604Y02959*
X01605Y02952*
X01604Y02945*
X01603Y02941*
X01602Y02939*
X01599Y02933*
X01599Y02932*
X01597Y02931*
X01594Y02927*
X0159Y02924*
X01589Y02923*
X01583Y02919*
X0158Y02919*
X01576Y02917*
X01573Y02917*
X01571Y02917*
X01567*
X01565Y02917*
X01562Y02917*
X01558Y02919*
X01555Y02919*
X01549Y02923*
X01548Y02924*
X01544Y02927*
X0154Y02931*
X01539Y02932*
X01539Y02933*
X01536Y02939*
X01535Y02941*
X01534Y02945*
X01533Y02952*
X01534Y02959*
X01536Y02966*
X01539Y02972*
X0154Y02974*
X01544Y02978*
X01548Y02981*
X01549Y02982*
X0155Y02982*
X01555Y02985*
X01558Y02986*
X01562Y02987*
X01565Y02988*
X01567Y02988*
X01571*
X01573Y02988*
G37*
G36*
Y03088D02*
X01576Y03087D01*
X0158Y03086*
X01583Y03085*
X01588Y03082*
X01589Y03082*
X0159Y03081*
X01594Y03078*
X01597Y03074*
X01599Y03072*
X01602Y03066*
X01604Y03059*
X01605Y03052*
X01604Y03045*
X01603Y03041*
X01602Y03039*
X01599Y03033*
X01599Y03032*
X01597Y03031*
X01594Y03027*
X0159Y03024*
X01589Y03023*
X01583Y03019*
X0158Y03019*
X01576Y03017*
X01573Y03017*
X01571Y03017*
X01567*
X01565Y03017*
X01562Y03017*
X01558Y03019*
X01555Y03019*
X01549Y03023*
X01548Y03024*
X01544Y03027*
X0154Y03031*
X01539Y03032*
X01539Y03033*
X01536Y03039*
X01535Y03041*
X01534Y03045*
X01533Y03052*
X01534Y03059*
X01536Y03066*
X01539Y03072*
X0154Y03074*
X01544Y03078*
X01548Y03081*
X01549Y03082*
X0155Y03082*
X01555Y03085*
X01558Y03086*
X01562Y03087*
X01565Y03088*
X01567Y03088*
X01571*
X01573Y03088*
G37*
G36*
X02372D02*
X02375Y03087D01*
X02379Y03086*
X02382Y03085*
X02387Y03082*
X02388Y03082*
X02389Y03081*
X02393Y03078*
X02396Y03074*
X02398Y03072*
X02401Y03066*
X02403Y03059*
X02404Y03052*
X02403Y03045*
X02402Y03041*
X02401Y03039*
X02398Y03033*
X02398Y03032*
X02396Y03031*
X02393Y03027*
X02389Y03024*
X02388Y03023*
X02382Y03019*
X02379Y03019*
X02375Y03017*
X02372Y03017*
X0237Y03017*
X02366*
X02364Y03017*
X02361Y03017*
X02357Y03019*
X02354Y03019*
X02348Y03023*
X02347Y03024*
X02343Y03027*
X02339Y03031*
X02338Y03032*
X02338Y03033*
X02335Y03039*
X02334Y03041*
X02333Y03045*
X02332Y03052*
X02333Y03059*
X02335Y03066*
X02338Y03072*
X02339Y03074*
X02343Y03078*
X02347Y03081*
X02348Y03082*
X02349Y03082*
X02354Y03085*
X02357Y03086*
X02361Y03087*
X02364Y03088*
X02366Y03088*
X0237*
X02372Y03088*
G37*
G36*
X01573Y03188D02*
X01576Y03187D01*
X0158Y03186*
X01583Y03185*
X01588Y03182*
X01589Y03182*
X0159Y03181*
X01594Y03178*
X01597Y03174*
X01599Y03172*
X01602Y03166*
X01604Y03159*
X01605Y03152*
X01604Y03145*
X01603Y03141*
X01602Y03139*
X01599Y03133*
X01599Y03132*
X01597Y03131*
X01594Y03127*
X0159Y03124*
X01589Y03123*
X01583Y03119*
X0158Y03119*
X01576Y03117*
X01573Y03117*
X01571Y03117*
X01567*
X01565Y03117*
X01562Y03117*
X01558Y03119*
X01555Y03119*
X01549Y03123*
X01548Y03124*
X01544Y03127*
X0154Y03131*
X01539Y03132*
X01539Y03133*
X01536Y03139*
X01535Y03141*
X01534Y03145*
X01533Y03152*
X01534Y03159*
X01536Y03166*
X01539Y03172*
X0154Y03174*
X01544Y03178*
X01548Y03181*
X01549Y03182*
X0155Y03182*
X01555Y03185*
X01558Y03186*
X01562Y03187*
X01565Y03188*
X01567Y03188*
X01571*
X01573Y03188*
G37*
G36*
X02372D02*
X02375Y03187D01*
X02379Y03186*
X02382Y03185*
X02387Y03182*
X02388Y03182*
X02389Y03181*
X02393Y03178*
X02396Y03174*
X02398Y03172*
X02401Y03166*
X02403Y03159*
X02404Y03152*
X02403Y03145*
X02402Y03141*
X02401Y03139*
X02398Y03133*
X02398Y03132*
X02396Y03131*
X02393Y03127*
X02389Y03124*
X02388Y03123*
X02382Y03119*
X02379Y03119*
X02375Y03117*
X02372Y03117*
X0237Y03117*
X02366*
X02364Y03117*
X02361Y03117*
X02357Y03119*
X02354Y03119*
X02348Y03123*
X02347Y03124*
X02343Y03127*
X02339Y03131*
X02338Y03132*
X02338Y03133*
X02335Y03139*
X02334Y03141*
X02333Y03145*
X02332Y03152*
X02333Y03159*
X02335Y03166*
X02338Y03172*
X02339Y03174*
X02343Y03178*
X02347Y03181*
X02348Y03182*
X02349Y03182*
X02354Y03185*
X02357Y03186*
X02361Y03187*
X02364Y03188*
X02366Y03188*
X0237*
X02372Y03188*
G37*
G36*
Y03288D02*
X02375Y03287D01*
X02379Y03286*
X02382Y03285*
X02387Y03282*
X02388Y03282*
X02389Y03281*
X02393Y03278*
X02396Y03274*
X02398Y03272*
X02401Y03266*
X02403Y03259*
X02404Y03252*
X02403Y03245*
X02402Y03241*
X02401Y03239*
X02398Y03233*
X02398Y03232*
X02396Y03231*
X02393Y03227*
X02389Y03224*
X02388Y03223*
X02382Y03219*
X02379Y03219*
X02375Y03217*
X02372Y03217*
X0237Y03217*
X02366*
X02364Y03217*
X02361Y03217*
X02357Y03219*
X02354Y03219*
X02348Y03223*
X02347Y03224*
X02343Y03227*
X02339Y03231*
X02338Y03232*
X02338Y03233*
X02335Y03239*
X02334Y03241*
X02333Y03245*
X02332Y03252*
X02333Y03259*
X02335Y03266*
X02338Y03272*
X02339Y03274*
X02343Y03278*
X02347Y03281*
X02348Y03282*
X02349Y03282*
X02354Y03285*
X02357Y03286*
X02361Y03287*
X02364Y03288*
X02366Y03288*
X0237*
X02372Y03288*
G37*
G36*
X01573D02*
X01576Y03287D01*
X0158Y03286*
X01583Y03285*
X01588Y03282*
X01589Y03282*
X0159Y03281*
X01594Y03278*
X01597Y03274*
X01599Y03272*
X01602Y03266*
X01604Y03259*
X01605Y03252*
X01604Y03245*
X01603Y03241*
X01602Y03239*
X01599Y03233*
X01599Y03232*
X01597Y03231*
X01594Y03227*
X0159Y03224*
X01589Y03223*
X01583Y03219*
X0158Y03219*
X01576Y03217*
X01573Y03217*
X01571Y03217*
X01567*
X01565Y03217*
X01562Y03217*
X01558Y03219*
X01555Y03219*
X01549Y03223*
X01548Y03224*
X01544Y03227*
X0154Y03231*
X01539Y03232*
X01539Y03233*
X01536Y03239*
X01535Y03241*
X01534Y03245*
X01533Y03252*
X01534Y03259*
X01536Y03266*
X01539Y03272*
X0154Y03274*
X01544Y03278*
X01548Y03281*
X01549Y03282*
X0155Y03282*
X01555Y03285*
X01558Y03286*
X01562Y03287*
X01565Y03288*
X01567Y03288*
X01571*
X01573Y03288*
G37*
G36*
X01604Y03317D02*
X01533D01*
Y03388*
X01604*
Y03317*
G37*
G36*
X02403D02*
X02332D01*
Y03388*
X02403*
Y03317*
G37*
G36*
X02119Y03453D02*
X02123Y03452D01*
X02127Y03449*
X0213Y03446*
X02132Y03443*
X02134Y03439*
X02135Y03434*
Y0343*
X02134Y03426*
X02132Y03422*
X0213Y03418*
X02127Y03415*
X02123Y03413*
X02119Y03411*
X02115Y03411*
X02111*
X02107Y03411*
X02103Y03413*
X02099Y03415*
X02096Y03418*
X02094Y03422*
X02092Y03426*
X02091Y0343*
Y03434*
X02092Y03439*
X02094Y03443*
X02096Y03446*
X02099Y03449*
X02103Y03452*
X02107Y03453*
X02111Y03454*
X02115*
X02119Y03453*
G37*
G36*
X02848Y02888D02*
X02851Y02887D01*
X02855Y02886*
X02857Y02885*
X02863Y02882*
X02864Y02882*
X02865Y02881*
X02869Y02878*
X02872Y02874*
X02873Y02872*
X02877Y02866*
X02879Y02859*
X02879Y02852*
X02879Y02845*
X02877Y02841*
X02877Y02839*
X02874Y02833*
X02873Y02832*
X02872Y02831*
X02869Y02827*
X02865Y02824*
X02864Y02823*
X02857Y02819*
X02855Y02819*
X02851Y02817*
X02848Y02817*
X02846Y02817*
X02842*
X02839Y02817*
X02837Y02817*
X02832Y02819*
X0283Y02819*
X02824Y02823*
X02823Y02824*
X02819Y02827*
X02815Y02831*
X02814Y02832*
X02814Y02833*
X02811Y02839*
X0281Y02841*
X02809Y02845*
X02808Y02852*
X02809Y02859*
X02811Y02866*
X02814Y02872*
X02815Y02874*
X02819Y02878*
X02823Y02881*
X02824Y02882*
X02825Y02882*
X0283Y02885*
X02832Y02886*
X02837Y02887*
X02839Y02888*
X02842Y02888*
X02846*
X02848Y02888*
G37*
G36*
X03648D02*
X03651Y02887D01*
X03655Y02886*
X03657Y02885*
X03663Y02882*
X03664Y02882*
X03665Y02881*
X03669Y02878*
X03672Y02874*
X03673Y02872*
X03677Y02866*
X03679Y02859*
X03679Y02852*
X03679Y02845*
X03677Y02841*
X03677Y02839*
X03674Y02833*
X03673Y02832*
X03672Y02831*
X03669Y02827*
X03665Y02824*
X03664Y02823*
X03657Y02819*
X03655Y02819*
X03651Y02817*
X03648Y02817*
X03646Y02817*
X03642*
X03639Y02817*
X03637Y02817*
X03632Y02819*
X0363Y02819*
X03624Y02823*
X03623Y02824*
X03619Y02827*
X03615Y02831*
X03614Y02832*
X03614Y02833*
X03611Y02839*
X0361Y02841*
X03609Y02845*
X03608Y02852*
X03609Y02859*
X03611Y02866*
X03614Y02872*
X03615Y02874*
X03619Y02878*
X03623Y02881*
X03624Y02882*
X03625Y02882*
X0363Y02885*
X03632Y02886*
X03637Y02887*
X03639Y02888*
X03642Y02888*
X03646*
X03648Y02888*
G37*
G36*
Y02988D02*
X03651Y02987D01*
X03655Y02986*
X03657Y02985*
X03663Y02982*
X03664Y02982*
X03665Y02981*
X03669Y02978*
X03672Y02974*
X03673Y02972*
X03677Y02966*
X03679Y02959*
X03679Y02952*
X03679Y02945*
X03677Y02941*
X03677Y02939*
X03674Y02933*
X03673Y02932*
X03672Y02931*
X03669Y02927*
X03665Y02924*
X03664Y02923*
X03657Y02919*
X03655Y02919*
X03651Y02917*
X03648Y02917*
X03646Y02917*
X03642*
X03639Y02917*
X03637Y02917*
X03632Y02919*
X0363Y02919*
X03624Y02923*
X03623Y02924*
X03619Y02927*
X03615Y02931*
X03614Y02932*
X03614Y02933*
X03611Y02939*
X0361Y02941*
X03609Y02945*
X03608Y02952*
X03609Y02959*
X03611Y02966*
X03614Y02972*
X03615Y02974*
X03619Y02978*
X03623Y02981*
X03624Y02982*
X03625Y02982*
X0363Y02985*
X03632Y02986*
X03637Y02987*
X03639Y02988*
X03642Y02988*
X03646*
X03648Y02988*
G37*
G36*
X02848D02*
X02851Y02987D01*
X02855Y02986*
X02857Y02985*
X02863Y02982*
X02864Y02982*
X02865Y02981*
X02869Y02978*
X02872Y02974*
X02873Y02972*
X02877Y02966*
X02879Y02959*
X02879Y02952*
X02879Y02945*
X02877Y02941*
X02877Y02939*
X02874Y02933*
X02873Y02932*
X02872Y02931*
X02869Y02927*
X02865Y02924*
X02864Y02923*
X02857Y02919*
X02855Y02919*
X02851Y02917*
X02848Y02917*
X02846Y02917*
X02842*
X02839Y02917*
X02837Y02917*
X02832Y02919*
X0283Y02919*
X02824Y02923*
X02823Y02924*
X02819Y02927*
X02815Y02931*
X02814Y02932*
X02814Y02933*
X02811Y02939*
X0281Y02941*
X02809Y02945*
X02808Y02952*
X02809Y02959*
X02811Y02966*
X02814Y02972*
X02815Y02974*
X02819Y02978*
X02823Y02981*
X02824Y02982*
X02825Y02982*
X0283Y02985*
X02832Y02986*
X02837Y02987*
X02839Y02988*
X02842Y02988*
X02846*
X02848Y02988*
G37*
G36*
Y03088D02*
X02851Y03087D01*
X02855Y03086*
X02857Y03085*
X02863Y03082*
X02864Y03082*
X02865Y03081*
X02869Y03078*
X02872Y03074*
X02873Y03072*
X02877Y03066*
X02879Y03059*
X02879Y03052*
X02879Y03045*
X02877Y03041*
X02877Y03039*
X02874Y03033*
X02873Y03032*
X02872Y03031*
X02869Y03027*
X02865Y03024*
X02864Y03023*
X02857Y03019*
X02855Y03019*
X02851Y03017*
X02848Y03017*
X02846Y03017*
X02842*
X02839Y03017*
X02837Y03017*
X02832Y03019*
X0283Y03019*
X02824Y03023*
X02823Y03024*
X02819Y03027*
X02815Y03031*
X02814Y03032*
X02814Y03033*
X02811Y03039*
X0281Y03041*
X02809Y03045*
X02808Y03052*
X02809Y03059*
X02811Y03066*
X02814Y03072*
X02815Y03074*
X02819Y03078*
X02823Y03081*
X02824Y03082*
X02825Y03082*
X0283Y03085*
X02832Y03086*
X02837Y03087*
X02839Y03088*
X02842Y03088*
X02846*
X02848Y03088*
G37*
G36*
X03648D02*
X03651Y03087D01*
X03655Y03086*
X03657Y03085*
X03663Y03082*
X03664Y03082*
X03665Y03081*
X03669Y03078*
X03672Y03074*
X03673Y03072*
X03677Y03066*
X03679Y03059*
X03679Y03052*
X03679Y03045*
X03677Y03041*
X03677Y03039*
X03674Y03033*
X03673Y03032*
X03672Y03031*
X03669Y03027*
X03665Y03024*
X03664Y03023*
X03657Y03019*
X03655Y03019*
X03651Y03017*
X03648Y03017*
X03646Y03017*
X03642*
X03639Y03017*
X03637Y03017*
X03632Y03019*
X0363Y03019*
X03624Y03023*
X03623Y03024*
X03619Y03027*
X03615Y03031*
X03614Y03032*
X03614Y03033*
X03611Y03039*
X0361Y03041*
X03609Y03045*
X03608Y03052*
X03609Y03059*
X03611Y03066*
X03614Y03072*
X03615Y03074*
X03619Y03078*
X03623Y03081*
X03624Y03082*
X03625Y03082*
X0363Y03085*
X03632Y03086*
X03637Y03087*
X03639Y03088*
X03642Y03088*
X03646*
X03648Y03088*
G37*
G36*
X02848Y03188D02*
X02851Y03187D01*
X02855Y03186*
X02857Y03185*
X02863Y03182*
X02864Y03182*
X02865Y03181*
X02869Y03178*
X02872Y03174*
X02873Y03172*
X02877Y03166*
X02879Y03159*
X02879Y03152*
X02879Y03145*
X02877Y03141*
X02877Y03139*
X02874Y03133*
X02873Y03132*
X02872Y03131*
X02869Y03127*
X02865Y03124*
X02864Y03123*
X02857Y03119*
X02855Y03119*
X02851Y03117*
X02848Y03117*
X02846Y03117*
X02842*
X02839Y03117*
X02837Y03117*
X02832Y03119*
X0283Y03119*
X02824Y03123*
X02823Y03124*
X02819Y03127*
X02815Y03131*
X02814Y03132*
X02814Y03133*
X02811Y03139*
X0281Y03141*
X02809Y03145*
X02808Y03152*
X02809Y03159*
X02811Y03166*
X02814Y03172*
X02815Y03174*
X02819Y03178*
X02823Y03181*
X02824Y03182*
X02825Y03182*
X0283Y03185*
X02832Y03186*
X02837Y03187*
X02839Y03188*
X02842Y03188*
X02846*
X02848Y03188*
G37*
G36*
X03648D02*
X03651Y03187D01*
X03655Y03186*
X03657Y03185*
X03663Y03182*
X03664Y03182*
X03665Y03181*
X03669Y03178*
X03672Y03174*
X03673Y03172*
X03677Y03166*
X03679Y03159*
X03679Y03152*
X03679Y03145*
X03677Y03141*
X03677Y03139*
X03674Y03133*
X03673Y03132*
X03672Y03131*
X03669Y03127*
X03665Y03124*
X03664Y03123*
X03657Y03119*
X03655Y03119*
X03651Y03117*
X03648Y03117*
X03646Y03117*
X03642*
X03639Y03117*
X03637Y03117*
X03632Y03119*
X0363Y03119*
X03624Y03123*
X03623Y03124*
X03619Y03127*
X03615Y03131*
X03614Y03132*
X03614Y03133*
X03611Y03139*
X0361Y03141*
X03609Y03145*
X03608Y03152*
X03609Y03159*
X03611Y03166*
X03614Y03172*
X03615Y03174*
X03619Y03178*
X03623Y03181*
X03624Y03182*
X03625Y03182*
X0363Y03185*
X03632Y03186*
X03637Y03187*
X03639Y03188*
X03642Y03188*
X03646*
X03648Y03188*
G37*
G36*
Y03288D02*
X03651Y03287D01*
X03655Y03286*
X03657Y03285*
X03663Y03282*
X03664Y03282*
X03665Y03281*
X03669Y03278*
X03672Y03274*
X03673Y03272*
X03677Y03266*
X03679Y03259*
X03679Y03252*
X03679Y03245*
X03677Y03241*
X03677Y03239*
X03674Y03233*
X03673Y03232*
X03672Y03231*
X03669Y03227*
X03665Y03224*
X03664Y03223*
X03657Y03219*
X03655Y03219*
X03651Y03217*
X03648Y03217*
X03646Y03217*
X03642*
X03639Y03217*
X03637Y03217*
X03632Y03219*
X0363Y03219*
X03624Y03223*
X03623Y03224*
X03619Y03227*
X03615Y03231*
X03614Y03232*
X03614Y03233*
X03611Y03239*
X0361Y03241*
X03609Y03245*
X03608Y03252*
X03609Y03259*
X03611Y03266*
X03614Y03272*
X03615Y03274*
X03619Y03278*
X03623Y03281*
X03624Y03282*
X03625Y03282*
X0363Y03285*
X03632Y03286*
X03637Y03287*
X03639Y03288*
X03642Y03288*
X03646*
X03648Y03288*
G37*
G36*
X02848D02*
X02851Y03287D01*
X02855Y03286*
X02857Y03285*
X02863Y03282*
X02864Y03282*
X02865Y03281*
X02869Y03278*
X02872Y03274*
X02873Y03272*
X02877Y03266*
X02879Y03259*
X02879Y03252*
X02879Y03245*
X02877Y03241*
X02877Y03239*
X02874Y03233*
X02873Y03232*
X02872Y03231*
X02869Y03227*
X02865Y03224*
X02864Y03223*
X02857Y03219*
X02855Y03219*
X02851Y03217*
X02848Y03217*
X02846Y03217*
X02842*
X02839Y03217*
X02837Y03217*
X02832Y03219*
X0283Y03219*
X02824Y03223*
X02823Y03224*
X02819Y03227*
X02815Y03231*
X02814Y03232*
X02814Y03233*
X02811Y03239*
X0281Y03241*
X02809Y03245*
X02808Y03252*
X02809Y03259*
X02811Y03266*
X02814Y03272*
X02815Y03274*
X02819Y03278*
X02823Y03281*
X02824Y03282*
X02825Y03282*
X0283Y03285*
X02832Y03286*
X02837Y03287*
X02839Y03288*
X02842Y03288*
X02846*
X02848Y03288*
G37*
G36*
X02879Y03317D02*
X02808D01*
Y03388*
X02879*
Y03317*
G37*
G36*
X03679D02*
X03608D01*
Y03388*
X03679*
Y03317*
G37*
G36*
X03395Y03453D02*
X03399Y03452D01*
X03403Y03449*
X03406Y03446*
X03408Y03443*
X0341Y03439*
X0341Y03434*
Y0343*
X0341Y03426*
X03408Y03422*
X03406Y03418*
X03403Y03415*
X03399Y03413*
X03395Y03411*
X03391Y03411*
X03387*
X03382Y03411*
X03379Y03413*
X03375Y03415*
X03372Y03418*
X0337Y03422*
X03368Y03426*
X03367Y0343*
Y03434*
X03368Y03439*
X0337Y03443*
X03372Y03446*
X03375Y03449*
X03379Y03452*
X03382Y03453*
X03387Y03454*
X03391*
X03395Y03453*
G37*
M02*