%FSTAX23Y23*%
%MOIN*%
%SFA1B1*%

%IPPOS*%
%ADD44C,0.005000*%
G36*
X01097Y00299D02*
X011Y00299D01*
X01105Y00297*
X01107Y00297*
X01112Y00294*
X01113Y00293*
X01114Y00292*
X01118Y00289*
X01121Y00285*
X01123Y00283*
X01126Y00277*
X01128Y00271*
X01129Y00264*
X01128Y00257*
X01127Y00252*
X01126Y0025*
X01125Y00248*
X01123Y00244*
X01122Y00242*
X01118Y00238*
X01114Y00235*
X01113Y00234*
X01107Y00231*
X01105Y0023*
X011Y00229*
X01097Y00228*
X01095Y00228*
X01091*
X01089Y00228*
X01086Y00229*
X01082Y0023*
X01079Y00231*
X01073Y00234*
X01072Y00235*
X01068Y00238*
X01065Y00242*
X01063Y00244*
X01061Y00248*
X0106Y0025*
X01059Y00252*
X01058Y00257*
X01057Y00264*
X01058Y00271*
X0106Y00277*
X01063Y00283*
X01065Y00285*
X01068Y00289*
X01072Y00292*
X01073Y00293*
X01074Y00294*
X01079Y00297*
X01082Y00297*
X01086Y00299*
X01089Y00299*
X01091Y00299*
X01095*
X01097Y00299*
G37*
G54D44*
X0Y0D02*
X03936D01*
Y03936*
X0*
Y0*
G36*
X00297Y00299D02*
X003Y00299D01*
X00305Y00297*
X00307Y00297*
X00312Y00294*
X00313Y00293*
X00314Y00292*
X00318Y00289*
X00321Y00285*
X00323Y00283*
X00326Y00277*
X00328Y00271*
X00329Y00264*
X00328Y00257*
X00327Y00252*
X00326Y0025*
X00325Y00248*
X00323Y00244*
X00322Y00242*
X00318Y00238*
X00314Y00235*
X00313Y00234*
X00307Y00231*
X00305Y0023*
X003Y00229*
X00297Y00228*
X00295Y00228*
X00291*
X00289Y00228*
X00286Y00229*
X00282Y0023*
X00279Y00231*
X00273Y00234*
X00272Y00235*
X00268Y00238*
X00265Y00242*
X00263Y00244*
X00261Y00248*
X0026Y0025*
X00259Y00252*
X00258Y00257*
X00257Y00264*
X00258Y00271*
X0026Y00277*
X00263Y00283*
X00265Y00285*
X00268Y00289*
X00272Y00292*
X00273Y00293*
X00274Y00294*
X00279Y00297*
X00282Y00297*
X00286Y00299*
X00289Y00299*
X00291Y00299*
X00295*
X00297Y00299*
G37*
G36*
X00921Y00288D02*
X00922Y00288D01*
X00924Y00287*
X00925Y00286*
X00926Y00285*
X00927Y00283*
X00927Y00282*
X00927Y0028*
Y00254*
X00927Y00252*
X00927Y0025*
X00926Y00249*
X00925Y00248*
X00924Y00246*
X00922Y00246*
X00921Y00245*
X00919Y00245*
X00861*
X00859Y00245*
X00858Y00246*
X00856Y00246*
X00855Y00248*
X00854Y00249*
X00853Y0025*
X00853Y00252*
X00853Y00254*
Y0028*
X00853Y00282*
X00853Y00283*
X00854Y00285*
X00855Y00286*
X00856Y00287*
X00858Y00288*
X00859Y00288*
X00861Y00288*
X00919*
X00921Y00288*
G37*
G36*
X00527D02*
X00529Y00288D01*
X0053Y00287*
X00531Y00286*
X00532Y00285*
X00533Y00283*
X00534Y00282*
X00534Y0028*
Y00254*
X00534Y00252*
X00533Y0025*
X00532Y00249*
X00531Y00248*
X0053Y00246*
X00529Y00246*
X00527Y00245*
X00525Y00245*
X00467*
X00466Y00245*
X00464Y00246*
X00463Y00246*
X00461Y00248*
X0046Y00249*
X00459Y0025*
X00459Y00252*
X00459Y00254*
Y0028*
X00459Y00282*
X00459Y00283*
X0046Y00285*
X00461Y00286*
X00463Y00287*
X00464Y00288*
X00466Y00288*
X00467Y00288*
X00525*
X00527Y00288*
G37*
G36*
X00921Y00367D02*
X00922Y00367D01*
X00924Y00366*
X00925Y00365*
X00926Y00363*
X00927Y00362*
X00927Y0036*
X00927Y00359*
Y00332*
X00927Y00331*
X00927Y00329*
X00926Y00328*
X00925Y00326*
X00924Y00325*
X00922Y00324*
X00921Y00324*
X00919Y00324*
X00861*
X00859Y00324*
X00858Y00324*
X00856Y00325*
X00855Y00326*
X00854Y00328*
X00853Y00329*
X00853Y00331*
X00853Y00332*
Y00359*
X00853Y0036*
X00853Y00362*
X00854Y00363*
X00855Y00365*
X00856Y00366*
X00858Y00367*
X00859Y00367*
X00861Y00367*
X00919*
X00921Y00367*
G37*
G36*
X00527D02*
X00529Y00367D01*
X0053Y00366*
X00531Y00365*
X00532Y00363*
X00533Y00362*
X00534Y0036*
X00534Y00359*
Y00332*
X00534Y00331*
X00533Y00329*
X00532Y00328*
X00531Y00326*
X0053Y00325*
X00529Y00324*
X00527Y00324*
X00525Y00324*
X00467*
X00466Y00324*
X00464Y00324*
X00463Y00325*
X00461Y00326*
X0046Y00328*
X00459Y00329*
X00459Y00331*
X00459Y00332*
Y00359*
X00459Y0036*
X00459Y00362*
X0046Y00363*
X00461Y00365*
X00463Y00366*
X00464Y00367*
X00466Y00367*
X00467Y00367*
X00525*
X00527Y00367*
G37*
G36*
X00297Y00399D02*
X003Y00399D01*
X00305Y00397*
X00307Y00397*
X00312Y00394*
X00313Y00393*
X00314Y00392*
X00318Y00389*
X00322Y00385*
X00323Y00383*
X00326Y00377*
X00328Y00371*
X00329Y00364*
X00328Y00357*
X00327Y00352*
X00326Y0035*
X00323Y00345*
X00323Y00344*
X00322Y00342*
X00318Y00338*
X00314Y00335*
X00313Y00334*
X00307Y00331*
X00306Y0033*
X003Y00329*
X00297Y00328*
X00295Y00328*
X00291*
X00289Y00328*
X00286Y00329*
X0028Y0033*
X00279Y00331*
X00273Y00334*
X00272Y00335*
X00268Y00338*
X00265Y00342*
X00263Y00344*
X00263Y00345*
X0026Y0035*
X00259Y00352*
X00258Y00357*
X00257Y00364*
X00258Y00371*
X0026Y00377*
X00263Y00383*
X00265Y00385*
X00268Y00389*
X00272Y00392*
X00273Y00393*
X00274Y00394*
X00279Y00397*
X00282Y00397*
X00286Y00399*
X00289Y00399*
X00291Y00399*
X00295*
X00297Y00399*
G37*
G36*
X01097D02*
X011Y00399D01*
X01105Y00397*
X01107Y00397*
X01112Y00394*
X01113Y00393*
X01114Y00392*
X01118Y00389*
X01122Y00385*
X01123Y00383*
X01126Y00377*
X01128Y00371*
X01129Y00364*
X01128Y00357*
X01127Y00352*
X01126Y0035*
X01123Y00345*
X01123Y00344*
X01122Y00342*
X01118Y00338*
X01114Y00335*
X01113Y00334*
X01107Y00331*
X01106Y0033*
X011Y00329*
X01097Y00328*
X01095Y00328*
X01091*
X01089Y00328*
X01086Y00329*
X0108Y0033*
X01079Y00331*
X01073Y00334*
X01072Y00335*
X01068Y00338*
X01065Y00342*
X01063Y00344*
X01063Y00345*
X0106Y0035*
X01059Y00352*
X01058Y00357*
X01057Y00364*
X01058Y00371*
X0106Y00377*
X01063Y00383*
X01065Y00385*
X01068Y00389*
X01072Y00392*
X01073Y00393*
X01074Y00394*
X01079Y00397*
X01082Y00397*
X01086Y00399*
X01089Y00399*
X01091Y00399*
X01095*
X01097Y00399*
G37*
G36*
X00527Y00446D02*
X00529Y00445D01*
X0053Y00444*
X00531Y00443*
X00532Y00442*
X00533Y00441*
X00534Y00439*
X00534Y00437*
Y00411*
X00534Y00409*
X00533Y00408*
X00532Y00406*
X00531Y00405*
X0053Y00404*
X00529Y00403*
X00527Y00403*
X00525Y00403*
X00467*
X00466Y00403*
X00464Y00403*
X00463Y00404*
X00461Y00405*
X0046Y00406*
X00459Y00408*
X00459Y00409*
X00459Y00411*
Y00437*
X00459Y00439*
X00459Y00441*
X0046Y00442*
X00461Y00443*
X00463Y00444*
X00464Y00445*
X00466Y00446*
X00467Y00446*
X00525*
X00527Y00446*
G37*
G36*
X00921D02*
X00922Y00445D01*
X00924Y00444*
X00925Y00443*
X00926Y00442*
X00927Y00441*
X00927Y00439*
X00927Y00437*
Y00411*
X00927Y00409*
X00927Y00408*
X00926Y00406*
X00925Y00405*
X00924Y00404*
X00922Y00403*
X00921Y00403*
X00919Y00403*
X00861*
X00859Y00403*
X00858Y00403*
X00856Y00404*
X00855Y00405*
X00854Y00406*
X00853Y00408*
X00853Y00409*
X00853Y00411*
Y00437*
X00853Y00439*
X00853Y00441*
X00854Y00442*
X00855Y00443*
X00856Y00444*
X00858Y00445*
X00859Y00446*
X00861Y00446*
X00919*
X00921Y00446*
G37*
G36*
X00407Y00452D02*
X00409Y00451D01*
X0041Y0045*
X00411Y00449*
X00412Y00448*
X00413Y00447*
X00414Y00445*
X00414Y00444*
Y00415*
X00414Y00413*
X00413Y00411*
X00412Y0041*
X00411Y00409*
X0041Y00408*
X00409Y00407*
X00407Y00407*
X00406Y00406*
X00381*
X00379Y00407*
X00377Y00407*
X00376Y00408*
X00375Y00409*
X00374Y0041*
X00373Y00411*
X00373Y00413*
X00372Y00415*
Y00444*
X00373Y00445*
X00373Y00447*
X00374Y00448*
X00375Y00449*
X00376Y0045*
X00377Y00451*
X00379Y00452*
X00381Y00452*
X00406*
X00407Y00452*
G37*
G36*
X00297Y00499D02*
X003Y00499D01*
X00305Y00497*
X00307Y00497*
X00312Y00494*
X00313Y00493*
X00314Y00492*
X00318Y00489*
X00321Y00485*
X00323Y00483*
X00326Y00477*
X00326Y00477*
X00328Y00471*
X00329Y00464*
X00328Y00457*
X00327Y00452*
X00326Y0045*
X00324Y00447*
X00323Y00444*
X00322Y00443*
X00318Y00438*
X00314Y00435*
X00313Y00434*
X00307Y00431*
X00305Y0043*
X003Y00429*
X00297Y00428*
X00295Y00428*
X00291*
X00289Y00428*
X00286Y00429*
X00282Y0043*
X00279Y00431*
X00273Y00434*
X00272Y00435*
X00268Y00438*
X00264Y00443*
X00263Y00444*
X00262Y00447*
X0026Y0045*
X00259Y00452*
X00258Y00457*
X00257Y00464*
X00258Y00471*
X0026Y00477*
X0026Y00477*
X00263Y00483*
X00265Y00485*
X00268Y00489*
X00272Y00492*
X00273Y00493*
X00274Y00494*
X00279Y00497*
X00282Y00497*
X00286Y00499*
X00289Y00499*
X00291Y00499*
X00295*
X00297Y00499*
G37*
G36*
X01097D02*
X011Y00499D01*
X01105Y00497*
X01107Y00497*
X01112Y00494*
X01113Y00493*
X01114Y00492*
X01118Y00489*
X01121Y00485*
X01123Y00483*
X01126Y00477*
X01126Y00477*
X01128Y00471*
X01129Y00464*
X01128Y00457*
X01127Y00452*
X01126Y0045*
X01124Y00447*
X01123Y00444*
X01122Y00443*
X01118Y00438*
X01114Y00435*
X01113Y00434*
X01107Y00431*
X01105Y0043*
X011Y00429*
X01097Y00428*
X01095Y00428*
X01091*
X01089Y00428*
X01086Y00429*
X01082Y0043*
X01079Y00431*
X01073Y00434*
X01072Y00435*
X01068Y00438*
X01064Y00443*
X01063Y00444*
X01062Y00447*
X0106Y0045*
X01059Y00452*
X01058Y00457*
X01057Y00464*
X01058Y00471*
X0106Y00477*
X0106Y00477*
X01063Y00483*
X01065Y00485*
X01068Y00489*
X01072Y00492*
X01073Y00493*
X01074Y00494*
X01079Y00497*
X01082Y00497*
X01086Y00499*
X01089Y00499*
X01091Y00499*
X01095*
X01097Y00499*
G37*
G36*
X00407Y00521D02*
X00409Y0052D01*
X0041Y00519*
X00411Y00518*
X00412Y00517*
X00413Y00516*
X00414Y00514*
X00414Y00513*
Y00484*
X00414Y00482*
X00413Y0048*
X00412Y00479*
X00411Y00478*
X0041Y00477*
X00409Y00476*
X00407Y00476*
X00406Y00475*
X00381*
X00379Y00476*
X00377Y00476*
X00376Y00477*
X00375Y00478*
X00374Y00479*
X00373Y0048*
X00373Y00482*
X00372Y00484*
Y00513*
X00373Y00514*
X00373Y00516*
X00374Y00517*
X00375Y00518*
X00376Y00519*
X00377Y0052*
X00379Y00521*
X00381Y00521*
X00406*
X00407Y00521*
G37*
G36*
X00527Y00524D02*
X00529Y00524D01*
X0053Y00523*
X00531Y00522*
X00532Y00521*
X00533Y00519*
X00534Y00518*
X00534Y00516*
Y0049*
X00534Y00488*
X00533Y00486*
X00532Y00485*
X00531Y00484*
X0053Y00483*
X00529Y00482*
X00527Y00481*
X00525Y00481*
X00467*
X00466Y00481*
X00464Y00482*
X00463Y00483*
X00461Y00484*
X0046Y00485*
X00459Y00486*
X00459Y00488*
X00459Y0049*
Y00516*
X00459Y00518*
X00459Y00519*
X0046Y00521*
X00461Y00522*
X00463Y00523*
X00464Y00524*
X00466Y00524*
X00467Y00525*
X00525*
X00527Y00524*
G37*
G36*
X00921D02*
X00922Y00524D01*
X00924Y00523*
X00925Y00522*
X00926Y00521*
X00927Y00519*
X00927Y00518*
X00927Y00516*
Y0049*
X00927Y00488*
X00927Y00486*
X00926Y00485*
X00925Y00484*
X00924Y00483*
X00922Y00482*
X00921Y00481*
X00919Y00481*
X00861*
X00859Y00481*
X00858Y00482*
X00856Y00483*
X00855Y00484*
X00854Y00485*
X00853Y00486*
X00853Y00488*
X00853Y0049*
Y00516*
X00853Y00518*
X00853Y00519*
X00854Y00521*
X00855Y00522*
X00856Y00523*
X00858Y00524*
X00859Y00524*
X00861Y00525*
X00919*
X00921Y00524*
G37*
G36*
X01097Y00599D02*
X011Y00599D01*
X01105Y00597*
X01107Y00597*
X0111Y00595*
X01113Y00593*
X01114Y00593*
X01118Y00589*
X01122Y00585*
X01123Y00583*
X01126Y00577*
X01128Y00571*
X01129Y00564*
X01128Y00557*
X01127Y00552*
X01126Y0055*
X01123Y00545*
X01123Y00544*
X01122Y00542*
X01118Y00538*
X01114Y00535*
X01113Y00534*
X01107Y00531*
X01105Y0053*
X011Y00529*
X01097Y00528*
X01095Y00528*
X01091*
X01089Y00528*
X01086Y00529*
X01082Y0053*
X01079Y00531*
X01073Y00534*
X01072Y00535*
X01068Y00538*
X01065Y00542*
X01063Y00544*
X01063Y00545*
X0106Y0055*
X01059Y00552*
X01058Y00557*
X01057Y00564*
X01058Y00571*
X0106Y00577*
X01063Y00583*
X01065Y00585*
X01068Y00589*
X01072Y00593*
X01073Y00593*
X01076Y00595*
X01079Y00597*
X01082Y00597*
X01086Y00599*
X01089Y00599*
X01091Y00599*
X01095*
X01097Y00599*
G37*
G36*
X00297D02*
X003Y00599D01*
X00305Y00597*
X00307Y00597*
X0031Y00595*
X00313Y00593*
X00314Y00593*
X00318Y00589*
X00322Y00585*
X00323Y00583*
X00326Y00577*
X00328Y00571*
X00329Y00564*
X00328Y00557*
X00327Y00552*
X00326Y0055*
X00323Y00545*
X00323Y00544*
X00322Y00542*
X00318Y00538*
X00314Y00535*
X00313Y00534*
X00307Y00531*
X00305Y0053*
X003Y00529*
X00297Y00528*
X00295Y00528*
X00291*
X00289Y00528*
X00286Y00529*
X00282Y0053*
X00279Y00531*
X00273Y00534*
X00272Y00535*
X00268Y00538*
X00265Y00542*
X00263Y00544*
X00263Y00545*
X0026Y0055*
X00259Y00552*
X00258Y00557*
X00257Y00564*
X00258Y00571*
X0026Y00577*
X00263Y00583*
X00265Y00585*
X00268Y00589*
X00272Y00593*
X00273Y00593*
X00276Y00595*
X00279Y00597*
X00282Y00597*
X00286Y00599*
X00289Y00599*
X00291Y00599*
X00295*
X00297Y00599*
G37*
G36*
X00921Y00603D02*
X00922Y00603D01*
X00924Y00602*
X00925Y00601*
X00926Y006*
X00927Y00598*
X00927Y00597*
X00927Y00595*
Y00569*
X00927Y00567*
X00927Y00565*
X00926Y00564*
X00925Y00562*
X00924Y00561*
X00922Y00561*
X00921Y0056*
X00919Y0056*
X00861*
X00859Y0056*
X00858Y00561*
X00856Y00561*
X00855Y00562*
X00854Y00564*
X00853Y00565*
X00853Y00567*
X00853Y00569*
Y00595*
X00853Y00597*
X00853Y00598*
X00854Y006*
X00855Y00601*
X00856Y00602*
X00858Y00603*
X00859Y00603*
X00861Y00603*
X00919*
X00921Y00603*
G37*
G36*
X00527D02*
X00529Y00603D01*
X0053Y00602*
X00531Y00601*
X00532Y006*
X00533Y00598*
X00534Y00597*
X00534Y00595*
Y00569*
X00534Y00567*
X00533Y00565*
X00532Y00564*
X00531Y00562*
X0053Y00561*
X00529Y00561*
X00527Y0056*
X00525Y0056*
X00467*
X00466Y0056*
X00464Y00561*
X00463Y00561*
X00461Y00562*
X0046Y00564*
X00459Y00565*
X00459Y00567*
X00459Y00569*
Y00595*
X00459Y00597*
X00459Y00598*
X0046Y006*
X00461Y00601*
X00463Y00602*
X00464Y00603*
X00466Y00603*
X00467Y00603*
X00525*
X00527Y00603*
G37*
G36*
X00297Y00699D02*
X003Y00699D01*
X00305Y00697*
X00307Y00697*
X00312Y00694*
X00313Y00693*
X00314Y00692*
X00318Y00689*
X00322Y00685*
X00323Y00683*
X00326Y00677*
X00327Y00675*
X00328Y00671*
X00329Y00664*
X00328Y00657*
X00327Y00653*
X00326Y0065*
X00324Y00645*
X00323Y00644*
X00322Y00642*
X00318Y00638*
X00314Y00635*
X00313Y00634*
X00307Y00631*
X00305Y0063*
X003Y00629*
X00297Y00628*
X00295Y00628*
X00291*
X00289Y00628*
X00286Y00629*
X00282Y0063*
X00279Y00631*
X00273Y00634*
X00272Y00635*
X00268Y00638*
X00265Y00642*
X00263Y00644*
X00263Y00645*
X0026Y0065*
X00259Y00653*
X00258Y00657*
X00257Y00664*
X00258Y00671*
X0026Y00675*
X0026Y00677*
X00263Y00683*
X00265Y00685*
X00268Y00689*
X00272Y00692*
X00273Y00693*
X00274Y00694*
X00279Y00697*
X00282Y00697*
X00286Y00699*
X00289Y00699*
X00291Y00699*
X00295*
X00297Y00699*
G37*
G36*
X01097D02*
X011Y00699D01*
X01105Y00697*
X01107Y00697*
X01112Y00694*
X01113Y00693*
X01114Y00692*
X01118Y00689*
X01122Y00685*
X01123Y00683*
X01126Y00677*
X01127Y00675*
X01128Y00671*
X01129Y00664*
X01128Y00657*
X01127Y00653*
X01126Y0065*
X01124Y00645*
X01123Y00644*
X01122Y00642*
X01118Y00638*
X01114Y00635*
X01113Y00634*
X01107Y00631*
X01105Y0063*
X011Y00629*
X01097Y00628*
X01095Y00628*
X01091*
X01089Y00628*
X01086Y00629*
X01082Y0063*
X01079Y00631*
X01073Y00634*
X01072Y00635*
X01068Y00638*
X01065Y00642*
X01063Y00644*
X01063Y00645*
X0106Y0065*
X01059Y00653*
X01058Y00657*
X01057Y00664*
X01058Y00671*
X0106Y00675*
X0106Y00677*
X01063Y00683*
X01065Y00685*
X01068Y00689*
X01072Y00692*
X01073Y00693*
X01074Y00694*
X01079Y00697*
X01082Y00697*
X01086Y00699*
X01089Y00699*
X01091Y00699*
X01095*
X01097Y00699*
G37*
G36*
X00921Y00682D02*
X00922Y00681D01*
X00924Y00681*
X00925Y0068*
X00926Y00678*
X00927Y00677*
X00927Y00675*
X00927Y00674*
Y00647*
X00927Y00646*
X00927Y00644*
X00926Y00642*
X00925Y00641*
X00924Y0064*
X00922Y00639*
X00921Y00639*
X00919Y00639*
X00861*
X00859Y00639*
X00858Y00639*
X00856Y0064*
X00855Y00641*
X00854Y00642*
X00853Y00644*
X00853Y00646*
X00853Y00647*
Y00674*
X00853Y00675*
X00853Y00677*
X00854Y00678*
X00855Y0068*
X00856Y00681*
X00858Y00681*
X00859Y00682*
X00861Y00682*
X00919*
X00921Y00682*
G37*
G36*
X00527D02*
X00529Y00681D01*
X0053Y00681*
X00531Y0068*
X00532Y00678*
X00533Y00677*
X00534Y00675*
X00534Y00674*
Y00647*
X00534Y00646*
X00533Y00644*
X00532Y00642*
X00531Y00641*
X0053Y0064*
X00529Y00639*
X00527Y00639*
X00525Y00639*
X00467*
X00466Y00639*
X00464Y00639*
X00463Y0064*
X00461Y00641*
X0046Y00642*
X00459Y00644*
X00459Y00646*
X00459Y00647*
Y00674*
X00459Y00675*
X00459Y00677*
X0046Y00678*
X00461Y0068*
X00463Y00681*
X00464Y00681*
X00466Y00682*
X00467Y00682*
X00525*
X00527Y00682*
G37*
G36*
X00379Y00681D02*
X00379Y00681D01*
X0038Y00681*
X0038Y00681*
X00381Y0068*
X00382Y0068*
X00383*
X00384Y0068*
X00385Y00681*
X00385Y00681*
X00386Y00681*
X00386Y00681*
X00387Y00681*
X00398*
X00398Y00681*
X00398Y00681*
X00399*
X004Y00681*
X00401Y00681*
X00401Y00681*
X00402Y0068*
X00403Y0068*
X00404Y00679*
X00404Y00679*
X00404Y00679*
X00405Y00679*
X00405Y00678*
X00406Y00677*
X00407Y00677*
X00407Y00676*
X00407Y00675*
X00408Y00674*
X00408Y00673*
X00408Y00672*
Y00672*
X00408Y00671*
X00408Y00671*
Y00656*
X00408Y00656*
X00408Y00655*
Y00655*
X00408Y00654*
X00408Y00653*
X00407Y00652*
X00407Y00651*
X00407Y00651*
X00406Y0065*
X00406Y0065*
X00406Y00649*
X00405Y00649*
X00405Y00648*
X00405Y00648*
X00404Y00648*
X00404Y00648*
X00403Y00647*
X00402Y00647*
X00401Y00646*
X00401Y00646*
X004Y00646*
X00399Y00646*
X00398*
X00398Y00646*
X00398Y00646*
X00387*
X00386Y00646*
X00386Y00646*
X00385Y00646*
X00385Y00647*
X00384Y00647*
X00383Y00647*
X00382*
X00381Y00647*
X0038Y00647*
X0038Y00646*
X00379Y00646*
X00379Y00646*
X00378Y00646*
X00367*
X00367Y00646*
X00366Y00646*
X00366*
X00365Y00646*
X00364Y00646*
X00363Y00646*
X00362Y00647*
X00362Y00647*
X00361Y00648*
X0036Y00648*
X0036Y00648*
X0036Y00648*
X00359Y00649*
X00359Y0065*
X00358Y00651*
X00358Y00652*
X00357Y00653*
X00357Y00653*
X00357Y00654*
X00357Y00655*
Y00655*
X00357Y00656*
X00357Y00656*
Y00671*
X00357Y00671*
X00357Y00672*
Y00672*
X00357Y00673*
X00357Y00674*
X00357Y00675*
X00358Y00676*
X00358Y00677*
X00359Y00678*
X00359Y00678*
X0036Y00679*
X0036Y00679*
X0036Y00679*
X00361Y00679*
X00362Y0068*
X00362Y0068*
X00363Y00681*
X00364Y00681*
X00365Y00681*
X00366Y00681*
X00366*
X00367Y00681*
X00367Y00681*
X00378*
X00379Y00681*
G37*
G36*
X00329Y00728D02*
X00258D01*
Y00799*
X00329*
Y00728*
G37*
G36*
X01129D02*
X01058D01*
Y00799*
X01129*
Y00728*
G37*
G36*
X00958Y00733D02*
X00868D01*
Y00778*
X00958*
Y00733*
G37*
G36*
X00799Y00778D02*
X008Y00778D01*
X00801Y00777*
X00801Y00777*
X00802Y00776*
X00802Y00775*
X00803Y00775*
X00803Y00774*
Y00755*
X00803Y00754*
X00802Y00754*
X00802Y00753*
X00801Y00752*
X00801Y00752*
X008Y00751*
X00799Y00751*
X00798Y00751*
X00778*
X00777Y00751*
X00776Y00751*
X00775Y00752*
X00775Y00752*
X00774Y00753*
X00774Y00754*
X00774Y00754*
X00773Y00755*
Y00774*
X00774Y00775*
X00774Y00775*
X00774Y00776*
X00775Y00777*
X00775Y00777*
X00776Y00778*
X00777Y00778*
X00778Y00778*
X00798*
X00799Y00778*
G37*
G36*
X00679D02*
X0068Y00778D01*
X00681Y00777*
X00681Y00777*
X00682Y00776*
X00682Y00775*
X00683Y00775*
X00683Y00774*
Y00755*
X00683Y00754*
X00682Y00754*
X00682Y00753*
X00681Y00752*
X00681Y00752*
X0068Y00751*
X00679Y00751*
X00678Y00751*
X00658*
X00657Y00751*
X00656Y00751*
X00655Y00752*
X00655Y00752*
X00654Y00753*
X00654Y00754*
X00654Y00754*
X00653Y00755*
Y00774*
X00654Y00775*
X00654Y00775*
X00654Y00776*
X00655Y00777*
X00655Y00777*
X00656Y00778*
X00657Y00778*
X00658Y00778*
X00678*
X00679Y00778*
G37*
G36*
X00799Y00816D02*
X008Y00816D01*
X00801Y00816*
X00801Y00815*
X00802Y00814*
X00802Y00814*
X00803Y00813*
X00803Y00812*
Y00794*
X00803Y00793*
X00802Y00792*
X00802Y00791*
X00801Y0079*
X00801Y0079*
X008Y00789*
X00799Y00789*
X00798Y00789*
X00778*
X00777Y00789*
X00776Y00789*
X00775Y0079*
X00775Y0079*
X00774Y00791*
X00774Y00792*
X00774Y00793*
X00773Y00794*
Y00812*
X00774Y00813*
X00774Y00814*
X00774Y00814*
X00775Y00815*
X00775Y00816*
X00776Y00816*
X00777Y00816*
X00778Y00816*
X00798*
X00799Y00816*
G37*
G36*
X00679D02*
X0068Y00816D01*
X00681Y00816*
X00681Y00815*
X00682Y00814*
X00682Y00814*
X00683Y00813*
X00683Y00812*
Y00794*
X00683Y00793*
X00682Y00792*
X00682Y00791*
X00681Y0079*
X00681Y0079*
X0068Y00789*
X00679Y00789*
X00678Y00789*
X00658*
X00657Y00789*
X00656Y00789*
X00655Y0079*
X00655Y0079*
X00654Y00791*
X00654Y00792*
X00654Y00793*
X00653Y00794*
Y00812*
X00654Y00813*
X00654Y00814*
X00654Y00814*
X00655Y00815*
X00655Y00816*
X00656Y00816*
X00657Y00816*
X00658Y00816*
X00678*
X00679Y00816*
G37*
G36*
X00994Y00792D02*
X0095D01*
Y00835*
X00994*
Y00792*
G37*
G36*
X00846Y00899D02*
X00846Y00899D01*
X00847*
X00847Y00899*
X00849Y00899*
X00849Y00899*
X0085Y00898*
X00851Y00898*
X00852Y00897*
X00852Y00897*
X00852Y00897*
X00853Y00897*
X00853Y00896*
X00854Y00895*
X00855Y00894*
X00855Y00894*
X00855Y00893*
X00856Y00892*
X00856Y00891*
X00856Y0089*
Y0089*
X00856Y00889*
X00856Y00889*
Y00878*
X00856Y00877*
X00856Y00877*
X00855Y00876*
X00855Y00876*
X00855Y00875*
X00855Y00874*
Y00873*
X00855Y00872*
X00855Y00871*
X00855Y00871*
X00856Y0087*
X00856Y0087*
X00856Y00869*
Y00858*
X00856Y00858*
X00856Y00857*
Y00857*
X00856Y00856*
X00856Y00855*
X00855Y00855*
X00855Y00853*
X00855Y00852*
X00854Y00852*
X00855Y00851*
X00855Y0085*
X00855Y00849*
X00856Y00845*
Y00842*
X00856Y00841*
X00856Y0084*
X00856Y00839*
X00856Y00838*
X00856Y00837*
X00857Y00837*
X00858Y00836*
X00859Y00836*
X0086Y00835*
X00861Y00835*
X00876*
Y00792*
X00832*
Y00823*
X00832Y00824*
X00832Y00825*
X00832Y00826*
X00831Y00827*
X0083Y00828*
X0083Y00828*
X0083Y00828*
X00827Y0083*
X00824Y00832*
X00822Y00835*
X00822Y00835*
X00821Y00838*
X0082Y00842*
Y00845*
X00821Y00849*
X00821Y0085*
X00822Y00851*
X00822Y00852*
X00822Y00852*
X00821Y00853*
X00821Y00855*
X00821Y00855*
X0082Y00856*
X0082Y00857*
Y00857*
X0082Y00858*
X0082Y00858*
Y00869*
X0082Y0087*
X0082Y0087*
X00821Y00871*
X00821Y00871*
X00821Y00872*
X00822Y00873*
Y00874*
X00821Y00875*
X00821Y00876*
X00821Y00876*
X00821Y00877*
X0082Y00877*
X0082Y00878*
Y00889*
X0082Y00889*
X0082Y0089*
Y0089*
X00821Y00891*
X00821Y00892*
X00821Y00893*
X00821Y00894*
X00822Y00894*
X00822Y00895*
X00823Y00896*
X00824Y00897*
X00824Y00897*
X00824Y00897*
X00824Y00897*
X00825Y00898*
X00826Y00898*
X00827Y00899*
X00828Y00899*
X00829Y00899*
X0083Y00899*
X0083*
X0083Y00899*
X00831Y00899*
X00846*
X00846Y00899*
G37*
G36*
X0072Y00828D02*
X00721Y00828D01*
X00722Y00827*
X00722Y00827*
X00723Y00826*
X00723Y00826*
X00723Y00825*
X00724Y00824*
Y00804*
X00723Y00803*
X00723Y00802*
X00723Y00801*
X00722Y008*
X00722Y008*
X00721Y00799*
X0072Y00799*
X00719Y00799*
X00701*
X007Y00799*
X00699Y00799*
X00698Y008*
X00698Y008*
X00697Y00801*
X00697Y00802*
X00696Y00803*
X00696Y00804*
Y00824*
X00696Y00825*
X00697Y00826*
X00697Y00826*
X00698Y00827*
X00698Y00827*
X00699Y00828*
X007Y00828*
X00701Y00828*
X00719*
X0072Y00828*
G37*
G36*
X00758D02*
X00759Y00828D01*
X0076Y00827*
X0076Y00827*
X00761Y00826*
X00761Y00826*
X00762Y00825*
X00762Y00824*
Y00804*
X00762Y00803*
X00761Y00802*
X00761Y00801*
X0076Y008*
X0076Y008*
X00759Y00799*
X00758Y00799*
X00757Y00799*
X00739*
X00738Y00799*
X00737Y00799*
X00736Y008*
X00736Y008*
X00735Y00801*
X00735Y00802*
X00735Y00803*
X00734Y00804*
Y00824*
X00735Y00825*
X00735Y00826*
X00735Y00826*
X00736Y00827*
X00736Y00827*
X00737Y00828*
X00738Y00828*
X00739Y00828*
X00757*
X00758Y00828*
G37*
G36*
X00958Y00849D02*
X00868D01*
Y00894*
X00958*
Y00849*
G37*
G36*
X02372Y00299D02*
X02375Y00299D01*
X02379Y00297*
X02382Y00297*
X02387Y00294*
X02388Y00293*
X02389Y00292*
X02393Y00289*
X02396Y00285*
X02398Y00283*
X02401Y00277*
X02403Y00271*
X02404Y00264*
X02403Y00257*
X02402Y00252*
X02401Y0025*
X024Y00248*
X02398Y00244*
X02396Y00242*
X02393Y00238*
X02389Y00235*
X02388Y00234*
X02382Y00231*
X02379Y0023*
X02375Y00229*
X02372Y00228*
X0237Y00228*
X02366*
X02364Y00228*
X02361Y00229*
X02357Y0023*
X02354Y00231*
X02348Y00234*
X02347Y00235*
X02343Y00238*
X02339Y00242*
X02338Y00244*
X02336Y00248*
X02335Y0025*
X02334Y00252*
X02333Y00257*
X02332Y00264*
X02333Y00271*
X02335Y00277*
X02338Y00283*
X0234Y00285*
X02343Y00289*
X02347Y00292*
X02348Y00293*
X02349Y00294*
X02354Y00297*
X02357Y00297*
X02361Y00299*
X02364Y00299*
X02366Y00299*
X0237*
X02372Y00299*
G37*
G36*
X01573D02*
X01576Y00299D01*
X0158Y00297*
X01583Y00297*
X01588Y00294*
X01589Y00293*
X0159Y00292*
X01594Y00289*
X01597Y00285*
X01599Y00283*
X01602Y00277*
X01604Y00271*
X01605Y00264*
X01604Y00257*
X01603Y00252*
X01602Y0025*
X01601Y00248*
X01599Y00244*
X01597Y00242*
X01594Y00238*
X0159Y00235*
X01589Y00234*
X01583Y00231*
X0158Y0023*
X01576Y00229*
X01573Y00228*
X01571Y00228*
X01567*
X01565Y00228*
X01562Y00229*
X01558Y0023*
X01555Y00231*
X01549Y00234*
X01548Y00235*
X01544Y00238*
X0154Y00242*
X01539Y00244*
X01537Y00248*
X01536Y0025*
X01535Y00252*
X01534Y00257*
X01533Y00264*
X01534Y00271*
X01536Y00277*
X01539Y00283*
X01541Y00285*
X01544Y00289*
X01548Y00292*
X01549Y00293*
X0155Y00294*
X01555Y00297*
X01558Y00297*
X01562Y00299*
X01565Y00299*
X01567Y00299*
X01571*
X01573Y00299*
G37*
G36*
X02195Y00288D02*
X02197Y00288D01*
X02199Y00287*
X022Y00286*
X02201Y00285*
X02202Y00283*
X02202Y00282*
X02202Y0028*
Y00254*
X02202Y00252*
X02202Y0025*
X02201Y00249*
X022Y00248*
X02199Y00246*
X02197Y00246*
X02195Y00245*
X02194Y00245*
X02136*
X02134Y00245*
X02133Y00246*
X02131Y00246*
X0213Y00248*
X02129Y00249*
X02128Y0025*
X02128Y00252*
X02127Y00254*
Y0028*
X02128Y00282*
X02128Y00283*
X02129Y00285*
X0213Y00286*
X02131Y00287*
X02133Y00288*
X02134Y00288*
X02136Y00288*
X02194*
X02195Y00288*
G37*
G36*
X01803D02*
X01804Y00288D01*
X01806Y00287*
X01807Y00286*
X01808Y00285*
X01809Y00283*
X01809Y00282*
X0181Y0028*
Y00254*
X01809Y00252*
X01809Y0025*
X01808Y00249*
X01807Y00248*
X01806Y00246*
X01804Y00246*
X01803Y00245*
X01801Y00245*
X01743*
X01741Y00245*
X0174Y00246*
X01738Y00246*
X01737Y00248*
X01736Y00249*
X01735Y0025*
X01735Y00252*
X01735Y00254*
Y0028*
X01735Y00282*
X01735Y00283*
X01736Y00285*
X01737Y00286*
X01738Y00287*
X0174Y00288*
X01741Y00288*
X01743Y00288*
X01801*
X01803Y00288*
G37*
G36*
X02195Y00367D02*
X02197Y00367D01*
X02199Y00366*
X022Y00365*
X02201Y00363*
X02202Y00362*
X02202Y0036*
X02202Y00359*
Y00332*
X02202Y00331*
X02202Y00329*
X02201Y00328*
X022Y00326*
X02199Y00325*
X02197Y00324*
X02195Y00324*
X02194Y00324*
X02136*
X02134Y00324*
X02133Y00324*
X02131Y00325*
X0213Y00326*
X02129Y00328*
X02128Y00329*
X02128Y00331*
X02127Y00332*
Y00359*
X02128Y0036*
X02128Y00362*
X02129Y00363*
X0213Y00365*
X02131Y00366*
X02133Y00367*
X02134Y00367*
X02136Y00367*
X02194*
X02195Y00367*
G37*
G36*
X01803D02*
X01804Y00367D01*
X01806Y00366*
X01807Y00365*
X01808Y00363*
X01809Y00362*
X01809Y0036*
X0181Y00359*
Y00332*
X01809Y00331*
X01809Y00329*
X01808Y00328*
X01807Y00326*
X01806Y00325*
X01804Y00324*
X01803Y00324*
X01801Y00324*
X01743*
X01741Y00324*
X0174Y00324*
X01738Y00325*
X01737Y00326*
X01736Y00328*
X01735Y00329*
X01735Y00331*
X01735Y00332*
Y00359*
X01735Y0036*
X01735Y00362*
X01736Y00363*
X01737Y00365*
X01738Y00366*
X0174Y00367*
X01741Y00367*
X01743Y00367*
X01801*
X01803Y00367*
G37*
G36*
X01573Y00399D02*
X01576Y00399D01*
X0158Y00397*
X01583Y00397*
X01588Y00394*
X01589Y00393*
X0159Y00392*
X01594Y00389*
X01597Y00385*
X01599Y00383*
X01602Y00377*
X01604Y00371*
X01605Y00364*
X01604Y00357*
X01603Y00352*
X01602Y0035*
X01599Y00345*
X01599Y00344*
X01597Y00342*
X01594Y00338*
X0159Y00335*
X01589Y00334*
X01583Y00331*
X01582Y0033*
X01576Y00329*
X01573Y00328*
X01571Y00328*
X01567*
X01565Y00328*
X01562Y00329*
X01556Y0033*
X01555Y00331*
X01549Y00334*
X01548Y00335*
X01544Y00338*
X0154Y00342*
X01539Y00344*
X01539Y00345*
X01536Y0035*
X01535Y00352*
X01534Y00357*
X01533Y00364*
X01534Y00371*
X01536Y00377*
X01539Y00383*
X0154Y00385*
X01544Y00389*
X01548Y00392*
X01549Y00393*
X0155Y00394*
X01555Y00397*
X01558Y00397*
X01562Y00399*
X01565Y00399*
X01567Y00399*
X01571*
X01573Y00399*
G37*
G36*
X02372D02*
X02375Y00399D01*
X02379Y00397*
X02382Y00397*
X02387Y00394*
X02388Y00393*
X02389Y00392*
X02393Y00389*
X02396Y00385*
X02398Y00383*
X02401Y00377*
X02403Y00371*
X02404Y00364*
X02403Y00357*
X02402Y00352*
X02401Y0035*
X02398Y00345*
X02398Y00344*
X02396Y00342*
X02393Y00338*
X02389Y00335*
X02388Y00334*
X02382Y00331*
X02381Y0033*
X02375Y00329*
X02372Y00328*
X0237Y00328*
X02366*
X02364Y00328*
X02361Y00329*
X02355Y0033*
X02354Y00331*
X02348Y00334*
X02347Y00335*
X02343Y00338*
X02339Y00342*
X02338Y00344*
X02338Y00345*
X02335Y0035*
X02334Y00352*
X02333Y00357*
X02332Y00364*
X02333Y00371*
X02335Y00377*
X02338Y00383*
X02339Y00385*
X02343Y00389*
X02347Y00392*
X02348Y00393*
X02349Y00394*
X02354Y00397*
X02357Y00397*
X02361Y00399*
X02364Y00399*
X02366Y00399*
X0237*
X02372Y00399*
G37*
G36*
X01803Y00446D02*
X01804Y00445D01*
X01806Y00444*
X01807Y00443*
X01808Y00442*
X01809Y00441*
X01809Y00439*
X0181Y00437*
Y00411*
X01809Y00409*
X01809Y00408*
X01808Y00406*
X01807Y00405*
X01806Y00404*
X01804Y00403*
X01803Y00403*
X01801Y00403*
X01743*
X01741Y00403*
X0174Y00403*
X01738Y00404*
X01737Y00405*
X01736Y00406*
X01735Y00408*
X01735Y00409*
X01735Y00411*
Y00437*
X01735Y00439*
X01735Y00441*
X01736Y00442*
X01737Y00443*
X01738Y00444*
X0174Y00445*
X01741Y00446*
X01743Y00446*
X01801*
X01803Y00446*
G37*
G36*
X02195D02*
X02197Y00445D01*
X02199Y00444*
X022Y00443*
X02201Y00442*
X02202Y00441*
X02202Y00439*
X02202Y00437*
Y00411*
X02202Y00409*
X02202Y00408*
X02201Y00406*
X022Y00405*
X02199Y00404*
X02197Y00403*
X02195Y00403*
X02194Y00403*
X02136*
X02134Y00403*
X02133Y00403*
X02131Y00404*
X0213Y00405*
X02129Y00406*
X02128Y00408*
X02128Y00409*
X02127Y00411*
Y00437*
X02128Y00439*
X02128Y00441*
X02129Y00442*
X0213Y00443*
X02131Y00444*
X02133Y00445*
X02134Y00446*
X02136Y00446*
X02194*
X02195Y00446*
G37*
G36*
X01683Y00452D02*
X01685Y00451D01*
X01686Y0045*
X01687Y00449*
X01688Y00448*
X01689Y00447*
X01689Y00445*
X0169Y00444*
Y00415*
X01689Y00413*
X01689Y00411*
X01688Y0041*
X01687Y00409*
X01686Y00408*
X01685Y00407*
X01683Y00407*
X01682Y00406*
X01656*
X01655Y00407*
X01653Y00407*
X01652Y00408*
X01651Y00409*
X0165Y0041*
X01649Y00411*
X01648Y00413*
X01648Y00415*
Y00444*
X01648Y00445*
X01649Y00447*
X0165Y00448*
X01651Y00449*
X01652Y0045*
X01653Y00451*
X01655Y00452*
X01656Y00452*
X01682*
X01683Y00452*
G37*
G36*
X01573Y00499D02*
X01576Y00499D01*
X0158Y00497*
X01583Y00497*
X01588Y00494*
X01589Y00493*
X0159Y00492*
X01594Y00489*
X01597Y00485*
X01599Y00483*
X01602Y00477*
X01602Y00477*
X01604Y00471*
X01605Y00464*
X01604Y00457*
X01603Y00452*
X01602Y0045*
X016Y00447*
X01599Y00444*
X01598Y00443*
X01594Y00438*
X0159Y00435*
X01589Y00434*
X01583Y00431*
X0158Y0043*
X01576Y00429*
X01573Y00428*
X01571Y00428*
X01567*
X01565Y00428*
X01562Y00429*
X01558Y0043*
X01555Y00431*
X01549Y00434*
X01548Y00435*
X01544Y00438*
X0154Y00443*
X01539Y00444*
X01538Y00447*
X01536Y0045*
X01535Y00452*
X01534Y00457*
X01533Y00464*
X01534Y00471*
X01536Y00477*
X01536Y00477*
X01539Y00483*
X01541Y00485*
X01544Y00489*
X01548Y00492*
X01549Y00493*
X0155Y00494*
X01555Y00497*
X01558Y00497*
X01562Y00499*
X01565Y00499*
X01567Y00499*
X01571*
X01573Y00499*
G37*
G36*
X02372D02*
X02375Y00499D01*
X02379Y00497*
X02382Y00497*
X02387Y00494*
X02388Y00493*
X02389Y00492*
X02393Y00489*
X02396Y00485*
X02398Y00483*
X02401Y00477*
X02401Y00477*
X02403Y00471*
X02404Y00464*
X02403Y00457*
X02402Y00452*
X02401Y0045*
X02399Y00447*
X02398Y00444*
X02397Y00443*
X02393Y00438*
X02389Y00435*
X02388Y00434*
X02382Y00431*
X02379Y0043*
X02375Y00429*
X02372Y00428*
X0237Y00428*
X02366*
X02364Y00428*
X02361Y00429*
X02357Y0043*
X02354Y00431*
X02348Y00434*
X02347Y00435*
X02343Y00438*
X02339Y00443*
X02338Y00444*
X02337Y00447*
X02335Y0045*
X02334Y00452*
X02333Y00457*
X02332Y00464*
X02333Y00471*
X02335Y00477*
X02335Y00477*
X02338Y00483*
X0234Y00485*
X02343Y00489*
X02347Y00492*
X02348Y00493*
X02349Y00494*
X02354Y00497*
X02357Y00497*
X02361Y00499*
X02364Y00499*
X02366Y00499*
X0237*
X02372Y00499*
G37*
G36*
X01683Y00521D02*
X01685Y0052D01*
X01686Y00519*
X01687Y00518*
X01688Y00517*
X01689Y00516*
X01689Y00514*
X0169Y00513*
Y00484*
X01689Y00482*
X01689Y0048*
X01688Y00479*
X01687Y00478*
X01686Y00477*
X01685Y00476*
X01683Y00476*
X01682Y00475*
X01656*
X01655Y00476*
X01653Y00476*
X01652Y00477*
X01651Y00478*
X0165Y00479*
X01649Y0048*
X01648Y00482*
X01648Y00484*
Y00513*
X01648Y00514*
X01649Y00516*
X0165Y00517*
X01651Y00518*
X01652Y00519*
X01653Y0052*
X01655Y00521*
X01656Y00521*
X01682*
X01683Y00521*
G37*
G36*
X01803Y00524D02*
X01804Y00524D01*
X01806Y00523*
X01807Y00522*
X01808Y00521*
X01809Y00519*
X01809Y00518*
X0181Y00516*
Y0049*
X01809Y00488*
X01809Y00486*
X01808Y00485*
X01807Y00484*
X01806Y00483*
X01804Y00482*
X01803Y00481*
X01801Y00481*
X01743*
X01741Y00481*
X0174Y00482*
X01738Y00483*
X01737Y00484*
X01736Y00485*
X01735Y00486*
X01735Y00488*
X01735Y0049*
Y00516*
X01735Y00518*
X01735Y00519*
X01736Y00521*
X01737Y00522*
X01738Y00523*
X0174Y00524*
X01741Y00524*
X01743Y00525*
X01801*
X01803Y00524*
G37*
G36*
X02195D02*
X02197Y00524D01*
X02199Y00523*
X022Y00522*
X02201Y00521*
X02202Y00519*
X02202Y00518*
X02202Y00516*
Y0049*
X02202Y00488*
X02202Y00486*
X02201Y00485*
X022Y00484*
X02199Y00483*
X02197Y00482*
X02195Y00481*
X02194Y00481*
X02136*
X02134Y00481*
X02133Y00482*
X02131Y00483*
X0213Y00484*
X02129Y00485*
X02128Y00486*
X02128Y00488*
X02127Y0049*
Y00516*
X02128Y00518*
X02128Y00519*
X02129Y00521*
X0213Y00522*
X02131Y00523*
X02133Y00524*
X02134Y00524*
X02136Y00525*
X02194*
X02195Y00524*
G37*
G36*
X02372Y00599D02*
X02375Y00599D01*
X02379Y00597*
X02382Y00597*
X02385Y00595*
X02388Y00593*
X02389Y00593*
X02393Y00589*
X02396Y00585*
X02398Y00583*
X02401Y00577*
X02403Y00571*
X02404Y00564*
X02403Y00557*
X02402Y00552*
X02401Y0055*
X02398Y00545*
X02398Y00544*
X02396Y00542*
X02393Y00538*
X02389Y00535*
X02388Y00534*
X02382Y00531*
X02379Y0053*
X02375Y00529*
X02372Y00528*
X0237Y00528*
X02366*
X02364Y00528*
X02361Y00529*
X02357Y0053*
X02354Y00531*
X02348Y00534*
X02347Y00535*
X02343Y00538*
X02339Y00542*
X02338Y00544*
X02338Y00545*
X02335Y0055*
X02334Y00552*
X02333Y00557*
X02332Y00564*
X02333Y00571*
X02335Y00577*
X02338Y00583*
X02339Y00585*
X02343Y00589*
X02347Y00593*
X02348Y00593*
X02351Y00595*
X02354Y00597*
X02357Y00597*
X02361Y00599*
X02364Y00599*
X02366Y00599*
X0237*
X02372Y00599*
G37*
G36*
X01573D02*
X01576Y00599D01*
X0158Y00597*
X01583Y00597*
X01586Y00595*
X01589Y00593*
X0159Y00593*
X01594Y00589*
X01597Y00585*
X01599Y00583*
X01602Y00577*
X01604Y00571*
X01605Y00564*
X01604Y00557*
X01603Y00552*
X01602Y0055*
X01599Y00545*
X01599Y00544*
X01597Y00542*
X01594Y00538*
X0159Y00535*
X01589Y00534*
X01583Y00531*
X0158Y0053*
X01576Y00529*
X01573Y00528*
X01571Y00528*
X01567*
X01565Y00528*
X01562Y00529*
X01558Y0053*
X01555Y00531*
X01549Y00534*
X01548Y00535*
X01544Y00538*
X0154Y00542*
X01539Y00544*
X01539Y00545*
X01536Y0055*
X01535Y00552*
X01534Y00557*
X01533Y00564*
X01534Y00571*
X01536Y00577*
X01539Y00583*
X0154Y00585*
X01544Y00589*
X01548Y00593*
X01549Y00593*
X01552Y00595*
X01555Y00597*
X01558Y00597*
X01562Y00599*
X01565Y00599*
X01567Y00599*
X01571*
X01573Y00599*
G37*
G36*
X02195Y00603D02*
X02197Y00603D01*
X02199Y00602*
X022Y00601*
X02201Y006*
X02202Y00598*
X02202Y00597*
X02202Y00595*
Y00569*
X02202Y00567*
X02202Y00565*
X02201Y00564*
X022Y00562*
X02199Y00561*
X02197Y00561*
X02195Y0056*
X02194Y0056*
X02136*
X02134Y0056*
X02133Y00561*
X02131Y00561*
X0213Y00562*
X02129Y00564*
X02128Y00565*
X02128Y00567*
X02127Y00569*
Y00595*
X02128Y00597*
X02128Y00598*
X02129Y006*
X0213Y00601*
X02131Y00602*
X02133Y00603*
X02134Y00603*
X02136Y00603*
X02194*
X02195Y00603*
G37*
G36*
X01803D02*
X01804Y00603D01*
X01806Y00602*
X01807Y00601*
X01808Y006*
X01809Y00598*
X01809Y00597*
X0181Y00595*
Y00569*
X01809Y00567*
X01809Y00565*
X01808Y00564*
X01807Y00562*
X01806Y00561*
X01804Y00561*
X01803Y0056*
X01801Y0056*
X01743*
X01741Y0056*
X0174Y00561*
X01738Y00561*
X01737Y00562*
X01736Y00564*
X01735Y00565*
X01735Y00567*
X01735Y00569*
Y00595*
X01735Y00597*
X01735Y00598*
X01736Y006*
X01737Y00601*
X01738Y00602*
X0174Y00603*
X01741Y00603*
X01743Y00603*
X01801*
X01803Y00603*
G37*
G36*
X01573Y00699D02*
X01576Y00699D01*
X0158Y00697*
X01583Y00697*
X01588Y00694*
X01589Y00693*
X0159Y00692*
X01594Y00689*
X01597Y00685*
X01599Y00683*
X01602Y00677*
X01602Y00675*
X01604Y00671*
X01605Y00664*
X01604Y00657*
X01603Y00653*
X01602Y0065*
X01599Y00645*
X01599Y00644*
X01598Y00642*
X01594Y00638*
X0159Y00635*
X01589Y00634*
X01583Y00631*
X0158Y0063*
X01576Y00629*
X01573Y00628*
X01571Y00628*
X01567*
X01565Y00628*
X01562Y00629*
X01558Y0063*
X01555Y00631*
X01549Y00634*
X01548Y00635*
X01544Y00638*
X0154Y00642*
X01539Y00644*
X01538Y00645*
X01536Y0065*
X01535Y00653*
X01534Y00657*
X01533Y00664*
X01534Y00671*
X01535Y00675*
X01536Y00677*
X01539Y00683*
X0154Y00685*
X01544Y00689*
X01548Y00692*
X01549Y00693*
X0155Y00694*
X01555Y00697*
X01558Y00697*
X01562Y00699*
X01565Y00699*
X01567Y00699*
X01571*
X01573Y00699*
G37*
G36*
X02372D02*
X02375Y00699D01*
X02379Y00697*
X02382Y00697*
X02387Y00694*
X02388Y00693*
X02389Y00692*
X02393Y00689*
X02396Y00685*
X02398Y00683*
X02401Y00677*
X02401Y00675*
X02403Y00671*
X02404Y00664*
X02403Y00657*
X02402Y00653*
X02401Y0065*
X02398Y00645*
X02398Y00644*
X02397Y00642*
X02393Y00638*
X02389Y00635*
X02388Y00634*
X02382Y00631*
X02379Y0063*
X02375Y00629*
X02372Y00628*
X0237Y00628*
X02366*
X02364Y00628*
X02361Y00629*
X02357Y0063*
X02354Y00631*
X02348Y00634*
X02347Y00635*
X02343Y00638*
X02339Y00642*
X02338Y00644*
X02337Y00645*
X02335Y0065*
X02334Y00653*
X02333Y00657*
X02332Y00664*
X02333Y00671*
X02334Y00675*
X02335Y00677*
X02338Y00683*
X02339Y00685*
X02343Y00689*
X02347Y00692*
X02348Y00693*
X02349Y00694*
X02354Y00697*
X02357Y00697*
X02361Y00699*
X02364Y00699*
X02366Y00699*
X0237*
X02372Y00699*
G37*
G36*
X02195Y00682D02*
X02197Y00681D01*
X02199Y00681*
X022Y0068*
X02201Y00678*
X02202Y00677*
X02202Y00675*
X02202Y00674*
Y00647*
X02202Y00646*
X02202Y00644*
X02201Y00642*
X022Y00641*
X02199Y0064*
X02197Y00639*
X02195Y00639*
X02194Y00639*
X02136*
X02134Y00639*
X02133Y00639*
X02131Y0064*
X0213Y00641*
X02129Y00642*
X02128Y00644*
X02128Y00646*
X02127Y00647*
Y00674*
X02128Y00675*
X02128Y00677*
X02129Y00678*
X0213Y0068*
X02131Y00681*
X02133Y00681*
X02134Y00682*
X02136Y00682*
X02194*
X02195Y00682*
G37*
G36*
X01803D02*
X01804Y00681D01*
X01806Y00681*
X01807Y0068*
X01808Y00678*
X01809Y00677*
X01809Y00675*
X0181Y00674*
Y00647*
X01809Y00646*
X01809Y00644*
X01808Y00642*
X01807Y00641*
X01806Y0064*
X01804Y00639*
X01803Y00639*
X01801Y00639*
X01743*
X01741Y00639*
X0174Y00639*
X01738Y0064*
X01737Y00641*
X01736Y00642*
X01735Y00644*
X01735Y00646*
X01735Y00647*
Y00674*
X01735Y00675*
X01735Y00677*
X01736Y00678*
X01737Y0068*
X01738Y00681*
X0174Y00681*
X01741Y00682*
X01743Y00682*
X01801*
X01803Y00682*
G37*
G36*
X01655Y00681D02*
X01655Y00681D01*
X01656Y00681*
X01656Y00681*
X01657Y0068*
X01658Y0068*
X01659*
X0166Y0068*
X01661Y00681*
X01661Y00681*
X01661Y00681*
X01662Y00681*
X01662Y00681*
X01674*
X01674Y00681*
X01674Y00681*
X01674*
X01675Y00681*
X01676Y00681*
X01677Y00681*
X01678Y0068*
X01679Y0068*
X0168Y00679*
X0168Y00679*
X0168Y00679*
X01681Y00679*
X01681Y00678*
X01682Y00677*
X01682Y00677*
X01683Y00676*
X01683Y00675*
X01684Y00674*
X01684Y00673*
X01684Y00672*
Y00672*
X01684Y00671*
X01684Y00671*
Y00656*
X01684Y00656*
X01684Y00655*
Y00655*
X01684Y00654*
X01684Y00653*
X01683Y00652*
X01683Y00651*
X01682Y00651*
X01682Y0065*
X01682Y0065*
X01682Y00649*
X01681Y00649*
X01681Y00648*
X0168Y00648*
X0168Y00648*
X0168Y00648*
X01679Y00647*
X01678Y00647*
X01677Y00646*
X01676Y00646*
X01675Y00646*
X01674Y00646*
X01674*
X01674Y00646*
X01674Y00646*
X01662*
X01662Y00646*
X01661Y00646*
X01661Y00646*
X0166Y00647*
X0166Y00647*
X01659Y00647*
X01658*
X01657Y00647*
X01656Y00647*
X01656Y00646*
X01655Y00646*
X01655Y00646*
X01654Y00646*
X01643*
X01643Y00646*
X01642Y00646*
X01642*
X01641Y00646*
X0164Y00646*
X01639Y00646*
X01638Y00647*
X01637Y00647*
X01637Y00648*
X01636Y00648*
X01636Y00648*
X01636Y00648*
X01635Y00649*
X01635Y0065*
X01634Y00651*
X01634Y00652*
X01633Y00653*
X01633Y00653*
X01633Y00654*
X01633Y00655*
Y00655*
X01633Y00656*
X01633Y00656*
Y00671*
X01633Y00671*
X01633Y00672*
Y00672*
X01633Y00673*
X01633Y00674*
X01633Y00675*
X01634Y00676*
X01634Y00677*
X01635Y00678*
X01635Y00678*
X01636Y00679*
X01636Y00679*
X01636Y00679*
X01637Y00679*
X01637Y0068*
X01638Y0068*
X01639Y00681*
X0164Y00681*
X01641Y00681*
X01642Y00681*
X01642*
X01643Y00681*
X01643Y00681*
X01654*
X01655Y00681*
G37*
G36*
X01604Y00728D02*
X01533D01*
Y00799*
X01604*
Y00728*
G37*
G36*
X02403D02*
X02332D01*
Y00799*
X02403*
Y00728*
G37*
G36*
X02233Y00733D02*
X02143D01*
Y00778*
X02233*
Y00733*
G37*
G36*
X02074Y00778D02*
X02075Y00778D01*
X02076Y00777*
X02076Y00777*
X02077Y00776*
X02077Y00775*
X02077Y00775*
X02078Y00774*
Y00755*
X02077Y00754*
X02077Y00754*
X02077Y00753*
X02076Y00752*
X02076Y00752*
X02075Y00751*
X02074Y00751*
X02073Y00751*
X02053*
X02052Y00751*
X02051Y00751*
X0205Y00752*
X0205Y00752*
X02049Y00753*
X02049Y00754*
X02048Y00754*
X02048Y00755*
Y00774*
X02048Y00775*
X02049Y00775*
X02049Y00776*
X0205Y00777*
X0205Y00777*
X02051Y00778*
X02052Y00778*
X02053Y00778*
X02073*
X02074Y00778*
G37*
G36*
X01955D02*
X01956Y00778D01*
X01957Y00777*
X01957Y00777*
X01958Y00776*
X01958Y00775*
X01958Y00775*
X01959Y00774*
Y00755*
X01958Y00754*
X01958Y00754*
X01958Y00753*
X01957Y00752*
X01957Y00752*
X01956Y00751*
X01955Y00751*
X01954Y00751*
X01934*
X01933Y00751*
X01932Y00751*
X01931Y00752*
X01931Y00752*
X0193Y00753*
X0193Y00754*
X01929Y00754*
X01929Y00755*
Y00774*
X01929Y00775*
X0193Y00775*
X0193Y00776*
X01931Y00777*
X01931Y00777*
X01932Y00778*
X01933Y00778*
X01934Y00778*
X01954*
X01955Y00778*
G37*
G36*
X02074Y00816D02*
X02075Y00816D01*
X02076Y00816*
X02076Y00815*
X02077Y00814*
X02077Y00814*
X02077Y00813*
X02078Y00812*
Y00794*
X02077Y00793*
X02077Y00792*
X02077Y00791*
X02076Y0079*
X02076Y0079*
X02075Y00789*
X02074Y00789*
X02073Y00789*
X02053*
X02052Y00789*
X02051Y00789*
X0205Y0079*
X0205Y0079*
X02049Y00791*
X02049Y00792*
X02048Y00793*
X02048Y00794*
Y00812*
X02048Y00813*
X02049Y00814*
X02049Y00814*
X0205Y00815*
X0205Y00816*
X02051Y00816*
X02052Y00816*
X02053Y00816*
X02073*
X02074Y00816*
G37*
G36*
X01955D02*
X01956Y00816D01*
X01957Y00816*
X01957Y00815*
X01958Y00814*
X01958Y00814*
X01958Y00813*
X01959Y00812*
Y00794*
X01958Y00793*
X01958Y00792*
X01958Y00791*
X01957Y0079*
X01957Y0079*
X01956Y00789*
X01955Y00789*
X01954Y00789*
X01934*
X01933Y00789*
X01932Y00789*
X01931Y0079*
X01931Y0079*
X0193Y00791*
X0193Y00792*
X01929Y00793*
X01929Y00794*
Y00812*
X01929Y00813*
X0193Y00814*
X0193Y00814*
X01931Y00815*
X01931Y00816*
X01932Y00816*
X01933Y00816*
X01934Y00816*
X01954*
X01955Y00816*
G37*
G36*
X02269Y00792D02*
X02225D01*
Y00835*
X02269*
Y00792*
G37*
G36*
X02121Y00899D02*
X02121Y00899D01*
X02121*
X02122Y00899*
X02123Y00899*
X02124Y00899*
X02125Y00898*
X02126Y00898*
X02127Y00897*
X02127Y00897*
X02127Y00897*
X02128Y00897*
X02128Y00896*
X02129Y00895*
X02129Y00894*
X0213Y00894*
X0213Y00893*
X02131Y00892*
X02131Y00891*
X02131Y0089*
Y0089*
X02131Y00889*
X02131Y00889*
Y00878*
X02131Y00877*
X02131Y00877*
X0213Y00876*
X0213Y00876*
X0213Y00875*
X0213Y00874*
Y00873*
X0213Y00872*
X0213Y00871*
X0213Y00871*
X02131Y0087*
X02131Y0087*
X02131Y00869*
Y00858*
X02131Y00858*
X02131Y00857*
Y00857*
X02131Y00856*
X0213Y00855*
X0213Y00855*
X0213Y00853*
X02129Y00852*
X02129Y00852*
X02129Y00851*
X0213Y0085*
X0213Y00849*
X02131Y00845*
Y00842*
X02131Y00841*
X0213Y0084*
X02131Y00839*
X02131Y00838*
X02131Y00837*
X02132Y00837*
X02133Y00836*
X02134Y00836*
X02134Y00835*
X02135Y00835*
X02151*
Y00792*
X02107*
Y00823*
X02107Y00824*
X02107Y00825*
X02106Y00826*
X02106Y00827*
X02105Y00828*
X02105Y00828*
X02105Y00828*
X02102Y0083*
X02099Y00832*
X02097Y00835*
X02097Y00835*
X02096Y00838*
X02095Y00842*
Y00845*
X02096Y00849*
X02096Y0085*
X02097Y00851*
X02097Y00852*
X02097Y00852*
X02096Y00853*
X02096Y00855*
X02095Y00855*
X02095Y00856*
X02095Y00857*
Y00857*
X02095Y00858*
X02095Y00858*
Y00869*
X02095Y0087*
X02095Y0087*
X02096Y00871*
X02096Y00871*
X02096Y00872*
X02096Y00873*
Y00874*
X02096Y00875*
X02096Y00876*
X02096Y00876*
X02095Y00877*
X02095Y00877*
X02095Y00878*
Y00889*
X02095Y00889*
X02095Y0089*
Y0089*
X02095Y00891*
X02096Y00892*
X02096Y00893*
X02096Y00894*
X02097Y00894*
X02097Y00895*
X02098Y00896*
X02099Y00897*
X02099Y00897*
X02099Y00897*
X02099Y00897*
X021Y00898*
X02101Y00898*
X02102Y00899*
X02103Y00899*
X02104Y00899*
X02105Y00899*
X02105*
X02105Y00899*
X02105Y00899*
X02121*
X02121Y00899*
G37*
G36*
X01995Y00828D02*
X01996Y00828D01*
X01996Y00827*
X01997Y00827*
X01998Y00826*
X01998Y00826*
X01998Y00825*
X01998Y00824*
Y00804*
X01998Y00803*
X01998Y00802*
X01998Y00801*
X01997Y008*
X01996Y008*
X01996Y00799*
X01995Y00799*
X01994Y00799*
X01976*
X01975Y00799*
X01974Y00799*
X01973Y008*
X01972Y008*
X01972Y00801*
X01971Y00802*
X01971Y00803*
X01971Y00804*
Y00824*
X01971Y00825*
X01971Y00826*
X01972Y00826*
X01972Y00827*
X01973Y00827*
X01974Y00828*
X01975Y00828*
X01976Y00828*
X01994*
X01995Y00828*
G37*
G36*
X02033D02*
X02034Y00828D01*
X02035Y00827*
X02035Y00827*
X02036Y00826*
X02036Y00826*
X02036Y00825*
X02037Y00824*
Y00804*
X02036Y00803*
X02036Y00802*
X02036Y00801*
X02035Y008*
X02035Y008*
X02034Y00799*
X02033Y00799*
X02032Y00799*
X02014*
X02013Y00799*
X02012Y00799*
X02011Y008*
X02011Y008*
X0201Y00801*
X0201Y00802*
X02009Y00803*
X02009Y00804*
Y00824*
X02009Y00825*
X0201Y00826*
X0201Y00826*
X02011Y00827*
X02011Y00827*
X02012Y00828*
X02013Y00828*
X02014Y00828*
X02032*
X02033Y00828*
G37*
G36*
X02233Y00849D02*
X02143D01*
Y00894*
X02233*
Y00849*
G37*
G36*
X03648Y00299D02*
X03651Y00299D01*
X03655Y00297*
X03657Y00297*
X03663Y00294*
X03664Y00293*
X03665Y00292*
X03669Y00289*
X03672Y00285*
X03673Y00283*
X03677Y00277*
X03679Y00271*
X03679Y00264*
X03679Y00257*
X03677Y00252*
X03677Y0025*
X03676Y00248*
X03673Y00244*
X03672Y00242*
X03669Y00238*
X03665Y00235*
X03664Y00234*
X03657Y00231*
X03655Y0023*
X03651Y00229*
X03648Y00228*
X03646Y00228*
X03642*
X03639Y00228*
X03637Y00229*
X03632Y0023*
X0363Y00231*
X03624Y00234*
X03623Y00235*
X03619Y00238*
X03615Y00242*
X03614Y00244*
X03612Y00248*
X03611Y0025*
X0361Y00252*
X03609Y00257*
X03608Y00264*
X03609Y00271*
X03611Y00277*
X03614Y00283*
X03616Y00285*
X03619Y00289*
X03623Y00292*
X03624Y00293*
X03625Y00294*
X0363Y00297*
X03632Y00297*
X03637Y00299*
X03639Y00299*
X03642Y00299*
X03646*
X03648Y00299*
G37*
G36*
X02848D02*
X02851Y00299D01*
X02855Y00297*
X02857Y00297*
X02863Y00294*
X02864Y00293*
X02865Y00292*
X02869Y00289*
X02872Y00285*
X02873Y00283*
X02877Y00277*
X02879Y00271*
X02879Y00264*
X02879Y00257*
X02877Y00252*
X02877Y0025*
X02876Y00248*
X02873Y00244*
X02872Y00242*
X02869Y00238*
X02865Y00235*
X02864Y00234*
X02857Y00231*
X02855Y0023*
X02851Y00229*
X02848Y00228*
X02846Y00228*
X02842*
X02839Y00228*
X02837Y00229*
X02832Y0023*
X0283Y00231*
X02824Y00234*
X02823Y00235*
X02819Y00238*
X02815Y00242*
X02814Y00244*
X02812Y00248*
X02811Y0025*
X0281Y00252*
X02809Y00257*
X02808Y00264*
X02809Y00271*
X02811Y00277*
X02814Y00283*
X02816Y00285*
X02819Y00289*
X02823Y00292*
X02824Y00293*
X02825Y00294*
X0283Y00297*
X02832Y00297*
X02837Y00299*
X02839Y00299*
X02842Y00299*
X02846*
X02848Y00299*
G37*
G36*
X03471Y00288D02*
X03473Y00288D01*
X03474Y00287*
X03476Y00286*
X03477Y00285*
X03477Y00283*
X03478Y00282*
X03478Y0028*
Y00254*
X03478Y00252*
X03477Y0025*
X03477Y00249*
X03476Y00248*
X03474Y00246*
X03473Y00246*
X03471Y00245*
X03469Y00245*
X03412*
X0341Y00245*
X03408Y00246*
X03407Y00246*
X03406Y00248*
X03405Y00249*
X03404Y0025*
X03403Y00252*
X03403Y00254*
Y0028*
X03403Y00282*
X03404Y00283*
X03405Y00285*
X03406Y00286*
X03407Y00287*
X03408Y00288*
X0341Y00288*
X03412Y00288*
X03469*
X03471Y00288*
G37*
G36*
X03078D02*
X03079Y00288D01*
X03081Y00287*
X03082Y00286*
X03083Y00285*
X03084Y00283*
X03084Y00282*
X03084Y0028*
Y00254*
X03084Y00252*
X03084Y0025*
X03083Y00249*
X03082Y00248*
X03081Y00246*
X03079Y00246*
X03078Y00245*
X03076Y00245*
X03018*
X03016Y00245*
X03015Y00246*
X03013Y00246*
X03012Y00248*
X03011Y00249*
X0301Y0025*
X0301Y00252*
X0301Y00254*
Y0028*
X0301Y00282*
X0301Y00283*
X03011Y00285*
X03012Y00286*
X03013Y00287*
X03015Y00288*
X03016Y00288*
X03018Y00288*
X03076*
X03078Y00288*
G37*
G36*
X03471Y00367D02*
X03473Y00367D01*
X03474Y00366*
X03476Y00365*
X03477Y00363*
X03477Y00362*
X03478Y0036*
X03478Y00359*
Y00332*
X03478Y00331*
X03477Y00329*
X03477Y00328*
X03476Y00326*
X03474Y00325*
X03473Y00324*
X03471Y00324*
X03469Y00324*
X03412*
X0341Y00324*
X03408Y00324*
X03407Y00325*
X03406Y00326*
X03405Y00328*
X03404Y00329*
X03403Y00331*
X03403Y00332*
Y00359*
X03403Y0036*
X03404Y00362*
X03405Y00363*
X03406Y00365*
X03407Y00366*
X03408Y00367*
X0341Y00367*
X03412Y00367*
X03469*
X03471Y00367*
G37*
G36*
X03078D02*
X03079Y00367D01*
X03081Y00366*
X03082Y00365*
X03083Y00363*
X03084Y00362*
X03084Y0036*
X03084Y00359*
Y00332*
X03084Y00331*
X03084Y00329*
X03083Y00328*
X03082Y00326*
X03081Y00325*
X03079Y00324*
X03078Y00324*
X03076Y00324*
X03018*
X03016Y00324*
X03015Y00324*
X03013Y00325*
X03012Y00326*
X03011Y00328*
X0301Y00329*
X0301Y00331*
X0301Y00332*
Y00359*
X0301Y0036*
X0301Y00362*
X03011Y00363*
X03012Y00365*
X03013Y00366*
X03015Y00367*
X03016Y00367*
X03018Y00367*
X03076*
X03078Y00367*
G37*
G36*
X02848Y00399D02*
X02851Y00399D01*
X02855Y00397*
X02857Y00397*
X02863Y00394*
X02864Y00393*
X02865Y00392*
X02869Y00389*
X02872Y00385*
X02873Y00383*
X02877Y00377*
X02879Y00371*
X02879Y00364*
X02879Y00357*
X02877Y00352*
X02877Y0035*
X02874Y00345*
X02873Y00344*
X02872Y00342*
X02869Y00338*
X02865Y00335*
X02864Y00334*
X02857Y00331*
X02857Y0033*
X02851Y00329*
X02848Y00328*
X02846Y00328*
X02842*
X02839Y00328*
X02837Y00329*
X02831Y0033*
X0283Y00331*
X02824Y00334*
X02823Y00335*
X02819Y00338*
X02815Y00342*
X02814Y00344*
X02814Y00345*
X02811Y0035*
X0281Y00352*
X02809Y00357*
X02808Y00364*
X02809Y00371*
X02811Y00377*
X02814Y00383*
X02815Y00385*
X02819Y00389*
X02823Y00392*
X02824Y00393*
X02825Y00394*
X0283Y00397*
X02832Y00397*
X02837Y00399*
X02839Y00399*
X02842Y00399*
X02846*
X02848Y00399*
G37*
G36*
X03648D02*
X03651Y00399D01*
X03655Y00397*
X03657Y00397*
X03663Y00394*
X03664Y00393*
X03665Y00392*
X03669Y00389*
X03672Y00385*
X03673Y00383*
X03677Y00377*
X03679Y00371*
X03679Y00364*
X03679Y00357*
X03677Y00352*
X03677Y0035*
X03674Y00345*
X03673Y00344*
X03672Y00342*
X03669Y00338*
X03665Y00335*
X03664Y00334*
X03657Y00331*
X03657Y0033*
X03651Y00329*
X03648Y00328*
X03646Y00328*
X03642*
X03639Y00328*
X03637Y00329*
X03631Y0033*
X0363Y00331*
X03624Y00334*
X03623Y00335*
X03619Y00338*
X03615Y00342*
X03614Y00344*
X03614Y00345*
X03611Y0035*
X0361Y00352*
X03609Y00357*
X03608Y00364*
X03609Y00371*
X03611Y00377*
X03614Y00383*
X03615Y00385*
X03619Y00389*
X03623Y00392*
X03624Y00393*
X03625Y00394*
X0363Y00397*
X03632Y00397*
X03637Y00399*
X03639Y00399*
X03642Y00399*
X03646*
X03648Y00399*
G37*
G36*
X03078Y00446D02*
X03079Y00445D01*
X03081Y00444*
X03082Y00443*
X03083Y00442*
X03084Y00441*
X03084Y00439*
X03084Y00437*
Y00411*
X03084Y00409*
X03084Y00408*
X03083Y00406*
X03082Y00405*
X03081Y00404*
X03079Y00403*
X03078Y00403*
X03076Y00403*
X03018*
X03016Y00403*
X03015Y00403*
X03013Y00404*
X03012Y00405*
X03011Y00406*
X0301Y00408*
X0301Y00409*
X0301Y00411*
Y00437*
X0301Y00439*
X0301Y00441*
X03011Y00442*
X03012Y00443*
X03013Y00444*
X03015Y00445*
X03016Y00446*
X03018Y00446*
X03076*
X03078Y00446*
G37*
G36*
X03471D02*
X03473Y00445D01*
X03474Y00444*
X03476Y00443*
X03477Y00442*
X03477Y00441*
X03478Y00439*
X03478Y00437*
Y00411*
X03478Y00409*
X03477Y00408*
X03477Y00406*
X03476Y00405*
X03474Y00404*
X03473Y00403*
X03471Y00403*
X03469Y00403*
X03412*
X0341Y00403*
X03408Y00403*
X03407Y00404*
X03406Y00405*
X03405Y00406*
X03404Y00408*
X03403Y00409*
X03403Y00411*
Y00437*
X03403Y00439*
X03404Y00441*
X03405Y00442*
X03406Y00443*
X03407Y00444*
X03408Y00445*
X0341Y00446*
X03412Y00446*
X03469*
X03471Y00446*
G37*
G36*
X02958Y00452D02*
X0296Y00451D01*
X02961Y0045*
X02962Y00449*
X02963Y00448*
X02964Y00447*
X02964Y00445*
X02965Y00444*
Y00415*
X02964Y00413*
X02964Y00411*
X02963Y0041*
X02962Y00409*
X02961Y00408*
X0296Y00407*
X02958Y00407*
X02956Y00406*
X02931*
X02929Y00407*
X02928Y00407*
X02927Y00408*
X02925Y00409*
X02924Y0041*
X02924Y00411*
X02923Y00413*
X02923Y00415*
Y00444*
X02923Y00445*
X02924Y00447*
X02924Y00448*
X02925Y00449*
X02927Y0045*
X02928Y00451*
X02929Y00452*
X02931Y00452*
X02956*
X02958Y00452*
G37*
G36*
X02848Y00499D02*
X02851Y00499D01*
X02855Y00497*
X02857Y00497*
X02863Y00494*
X02864Y00493*
X02865Y00492*
X02869Y00489*
X02872Y00485*
X02873Y00483*
X02877Y00477*
X02877Y00477*
X02879Y00471*
X02879Y00464*
X02879Y00457*
X02877Y00452*
X02877Y0045*
X02875Y00447*
X02873Y00444*
X02873Y00443*
X02869Y00438*
X02865Y00435*
X02864Y00434*
X02857Y00431*
X02855Y0043*
X02851Y00429*
X02848Y00428*
X02846Y00428*
X02842*
X02839Y00428*
X02837Y00429*
X02832Y0043*
X0283Y00431*
X02824Y00434*
X02823Y00435*
X02819Y00438*
X02814Y00443*
X02814Y00444*
X02812Y00447*
X02811Y0045*
X0281Y00452*
X02809Y00457*
X02808Y00464*
X02809Y00471*
X02811Y00477*
X02811Y00477*
X02814Y00483*
X02815Y00485*
X02819Y00489*
X02823Y00492*
X02824Y00493*
X02825Y00494*
X0283Y00497*
X02832Y00497*
X02837Y00499*
X02839Y00499*
X02842Y00499*
X02846*
X02848Y00499*
G37*
G36*
X03648D02*
X03651Y00499D01*
X03655Y00497*
X03657Y00497*
X03663Y00494*
X03664Y00493*
X03665Y00492*
X03669Y00489*
X03672Y00485*
X03673Y00483*
X03677Y00477*
X03677Y00477*
X03679Y00471*
X03679Y00464*
X03679Y00457*
X03677Y00452*
X03677Y0045*
X03675Y00447*
X03673Y00444*
X03673Y00443*
X03669Y00438*
X03665Y00435*
X03664Y00434*
X03657Y00431*
X03655Y0043*
X03651Y00429*
X03648Y00428*
X03646Y00428*
X03642*
X03639Y00428*
X03637Y00429*
X03632Y0043*
X0363Y00431*
X03624Y00434*
X03623Y00435*
X03619Y00438*
X03614Y00443*
X03614Y00444*
X03612Y00447*
X03611Y0045*
X0361Y00452*
X03609Y00457*
X03608Y00464*
X03609Y00471*
X03611Y00477*
X03611Y00477*
X03614Y00483*
X03615Y00485*
X03619Y00489*
X03623Y00492*
X03624Y00493*
X03625Y00494*
X0363Y00497*
X03632Y00497*
X03637Y00499*
X03639Y00499*
X03642Y00499*
X03646*
X03648Y00499*
G37*
G36*
X02958Y00521D02*
X0296Y0052D01*
X02961Y00519*
X02962Y00518*
X02963Y00517*
X02964Y00516*
X02964Y00514*
X02965Y00513*
Y00484*
X02964Y00482*
X02964Y0048*
X02963Y00479*
X02962Y00478*
X02961Y00477*
X0296Y00476*
X02958Y00476*
X02956Y00475*
X02931*
X02929Y00476*
X02928Y00476*
X02927Y00477*
X02925Y00478*
X02924Y00479*
X02924Y0048*
X02923Y00482*
X02923Y00484*
Y00513*
X02923Y00514*
X02924Y00516*
X02924Y00517*
X02925Y00518*
X02927Y00519*
X02928Y0052*
X02929Y00521*
X02931Y00521*
X02956*
X02958Y00521*
G37*
G36*
X03078Y00524D02*
X03079Y00524D01*
X03081Y00523*
X03082Y00522*
X03083Y00521*
X03084Y00519*
X03084Y00518*
X03084Y00516*
Y0049*
X03084Y00488*
X03084Y00486*
X03083Y00485*
X03082Y00484*
X03081Y00483*
X03079Y00482*
X03078Y00481*
X03076Y00481*
X03018*
X03016Y00481*
X03015Y00482*
X03013Y00483*
X03012Y00484*
X03011Y00485*
X0301Y00486*
X0301Y00488*
X0301Y0049*
Y00516*
X0301Y00518*
X0301Y00519*
X03011Y00521*
X03012Y00522*
X03013Y00523*
X03015Y00524*
X03016Y00524*
X03018Y00525*
X03076*
X03078Y00524*
G37*
G36*
X03471D02*
X03473Y00524D01*
X03474Y00523*
X03476Y00522*
X03477Y00521*
X03477Y00519*
X03478Y00518*
X03478Y00516*
Y0049*
X03478Y00488*
X03477Y00486*
X03477Y00485*
X03476Y00484*
X03474Y00483*
X03473Y00482*
X03471Y00481*
X03469Y00481*
X03412*
X0341Y00481*
X03408Y00482*
X03407Y00483*
X03406Y00484*
X03405Y00485*
X03404Y00486*
X03403Y00488*
X03403Y0049*
Y00516*
X03403Y00518*
X03404Y00519*
X03405Y00521*
X03406Y00522*
X03407Y00523*
X03408Y00524*
X0341Y00524*
X03412Y00525*
X03469*
X03471Y00524*
G37*
G36*
X03648Y00599D02*
X03651Y00599D01*
X03655Y00597*
X03657Y00597*
X03661Y00595*
X03664Y00593*
X03664Y00593*
X03669Y00589*
X03672Y00585*
X03673Y00583*
X03677Y00577*
X03679Y00571*
X03679Y00564*
X03679Y00557*
X03677Y00552*
X03677Y0055*
X03674Y00545*
X03673Y00544*
X03672Y00542*
X03669Y00538*
X03665Y00535*
X03664Y00534*
X03657Y00531*
X03655Y0053*
X03651Y00529*
X03648Y00528*
X03646Y00528*
X03642*
X03639Y00528*
X03637Y00529*
X03632Y0053*
X0363Y00531*
X03624Y00534*
X03623Y00535*
X03619Y00538*
X03615Y00542*
X03614Y00544*
X03614Y00545*
X03611Y0055*
X0361Y00552*
X03609Y00557*
X03608Y00564*
X03609Y00571*
X03611Y00577*
X03614Y00583*
X03615Y00585*
X03619Y00589*
X03623Y00593*
X03624Y00593*
X03627Y00595*
X0363Y00597*
X03632Y00597*
X03637Y00599*
X03639Y00599*
X03642Y00599*
X03646*
X03648Y00599*
G37*
G36*
X02848D02*
X02851Y00599D01*
X02855Y00597*
X02857Y00597*
X02861Y00595*
X02864Y00593*
X02864Y00593*
X02869Y00589*
X02872Y00585*
X02873Y00583*
X02877Y00577*
X02879Y00571*
X02879Y00564*
X02879Y00557*
X02877Y00552*
X02877Y0055*
X02874Y00545*
X02873Y00544*
X02872Y00542*
X02869Y00538*
X02865Y00535*
X02864Y00534*
X02857Y00531*
X02855Y0053*
X02851Y00529*
X02848Y00528*
X02846Y00528*
X02842*
X02839Y00528*
X02837Y00529*
X02832Y0053*
X0283Y00531*
X02824Y00534*
X02823Y00535*
X02819Y00538*
X02815Y00542*
X02814Y00544*
X02814Y00545*
X02811Y0055*
X0281Y00552*
X02809Y00557*
X02808Y00564*
X02809Y00571*
X02811Y00577*
X02814Y00583*
X02815Y00585*
X02819Y00589*
X02823Y00593*
X02824Y00593*
X02827Y00595*
X0283Y00597*
X02832Y00597*
X02837Y00599*
X02839Y00599*
X02842Y00599*
X02846*
X02848Y00599*
G37*
G36*
X03471Y00603D02*
X03473Y00603D01*
X03474Y00602*
X03476Y00601*
X03477Y006*
X03477Y00598*
X03478Y00597*
X03478Y00595*
Y00569*
X03478Y00567*
X03477Y00565*
X03477Y00564*
X03476Y00562*
X03474Y00561*
X03473Y00561*
X03471Y0056*
X03469Y0056*
X03412*
X0341Y0056*
X03408Y00561*
X03407Y00561*
X03406Y00562*
X03405Y00564*
X03404Y00565*
X03403Y00567*
X03403Y00569*
Y00595*
X03403Y00597*
X03404Y00598*
X03405Y006*
X03406Y00601*
X03407Y00602*
X03408Y00603*
X0341Y00603*
X03412Y00603*
X03469*
X03471Y00603*
G37*
G36*
X03078D02*
X03079Y00603D01*
X03081Y00602*
X03082Y00601*
X03083Y006*
X03084Y00598*
X03084Y00597*
X03084Y00595*
Y00569*
X03084Y00567*
X03084Y00565*
X03083Y00564*
X03082Y00562*
X03081Y00561*
X03079Y00561*
X03078Y0056*
X03076Y0056*
X03018*
X03016Y0056*
X03015Y00561*
X03013Y00561*
X03012Y00562*
X03011Y00564*
X0301Y00565*
X0301Y00567*
X0301Y00569*
Y00595*
X0301Y00597*
X0301Y00598*
X03011Y006*
X03012Y00601*
X03013Y00602*
X03015Y00603*
X03016Y00603*
X03018Y00603*
X03076*
X03078Y00603*
G37*
G36*
X02848Y00699D02*
X02851Y00699D01*
X02855Y00697*
X02857Y00697*
X02863Y00694*
X02864Y00693*
X02865Y00692*
X02869Y00689*
X02872Y00685*
X02873Y00683*
X02877Y00677*
X02877Y00675*
X02879Y00671*
X02879Y00664*
X02879Y00657*
X02878Y00653*
X02877Y0065*
X02874Y00645*
X02873Y00644*
X02872Y00642*
X02869Y00638*
X02865Y00635*
X02864Y00634*
X02857Y00631*
X02855Y0063*
X02851Y00629*
X02848Y00628*
X02846Y00628*
X02842*
X02839Y00628*
X02837Y00629*
X02832Y0063*
X0283Y00631*
X02824Y00634*
X02823Y00635*
X02819Y00638*
X02815Y00642*
X02814Y00644*
X02813Y00645*
X02811Y0065*
X0281Y00653*
X02809Y00657*
X02808Y00664*
X02809Y00671*
X0281Y00675*
X02811Y00677*
X02814Y00683*
X02815Y00685*
X02819Y00689*
X02823Y00692*
X02824Y00693*
X02825Y00694*
X0283Y00697*
X02832Y00697*
X02837Y00699*
X02839Y00699*
X02842Y00699*
X02846*
X02848Y00699*
G37*
G36*
X03648D02*
X03651Y00699D01*
X03655Y00697*
X03657Y00697*
X03663Y00694*
X03664Y00693*
X03665Y00692*
X03669Y00689*
X03672Y00685*
X03673Y00683*
X03677Y00677*
X03677Y00675*
X03679Y00671*
X03679Y00664*
X03679Y00657*
X03678Y00653*
X03677Y0065*
X03674Y00645*
X03673Y00644*
X03672Y00642*
X03669Y00638*
X03665Y00635*
X03664Y00634*
X03657Y00631*
X03655Y0063*
X03651Y00629*
X03648Y00628*
X03646Y00628*
X03642*
X03639Y00628*
X03637Y00629*
X03632Y0063*
X0363Y00631*
X03624Y00634*
X03623Y00635*
X03619Y00638*
X03615Y00642*
X03614Y00644*
X03613Y00645*
X03611Y0065*
X0361Y00653*
X03609Y00657*
X03608Y00664*
X03609Y00671*
X0361Y00675*
X03611Y00677*
X03614Y00683*
X03615Y00685*
X03619Y00689*
X03623Y00692*
X03624Y00693*
X03625Y00694*
X0363Y00697*
X03632Y00697*
X03637Y00699*
X03639Y00699*
X03642Y00699*
X03646*
X03648Y00699*
G37*
G36*
X03471Y00682D02*
X03473Y00681D01*
X03474Y00681*
X03476Y0068*
X03477Y00678*
X03477Y00677*
X03478Y00675*
X03478Y00674*
Y00647*
X03478Y00646*
X03477Y00644*
X03477Y00642*
X03476Y00641*
X03474Y0064*
X03473Y00639*
X03471Y00639*
X03469Y00639*
X03412*
X0341Y00639*
X03408Y00639*
X03407Y0064*
X03406Y00641*
X03405Y00642*
X03404Y00644*
X03403Y00646*
X03403Y00647*
Y00674*
X03403Y00675*
X03404Y00677*
X03405Y00678*
X03406Y0068*
X03407Y00681*
X03408Y00681*
X0341Y00682*
X03412Y00682*
X03469*
X03471Y00682*
G37*
G36*
X03078D02*
X03079Y00681D01*
X03081Y00681*
X03082Y0068*
X03083Y00678*
X03084Y00677*
X03084Y00675*
X03084Y00674*
Y00647*
X03084Y00646*
X03084Y00644*
X03083Y00642*
X03082Y00641*
X03081Y0064*
X03079Y00639*
X03078Y00639*
X03076Y00639*
X03018*
X03016Y00639*
X03015Y00639*
X03013Y0064*
X03012Y00641*
X03011Y00642*
X0301Y00644*
X0301Y00646*
X0301Y00647*
Y00674*
X0301Y00675*
X0301Y00677*
X03011Y00678*
X03012Y0068*
X03013Y00681*
X03015Y00681*
X03016Y00682*
X03018Y00682*
X03076*
X03078Y00682*
G37*
G36*
X0293Y00681D02*
X0293Y00681D01*
X02931Y00681*
X02931Y00681*
X02932Y0068*
X02933Y0068*
X02934*
X02935Y0068*
X02935Y00681*
X02935Y00681*
X02936Y00681*
X02937Y00681*
X02937Y00681*
X02949*
X02949Y00681*
X02949Y00681*
X02949*
X0295Y00681*
X02951Y00681*
X02952Y00681*
X02953Y0068*
X02954Y0068*
X02955Y00679*
X02955Y00679*
X02955Y00679*
X02955Y00679*
X02956Y00678*
X02957Y00677*
X02957Y00677*
X02958Y00676*
X02958Y00675*
X02958Y00674*
X02959Y00673*
X02959Y00672*
Y00672*
X02959Y00671*
X02959Y00671*
Y00656*
X02959Y00656*
X02959Y00655*
Y00655*
X02959Y00654*
X02958Y00653*
X02958Y00652*
X02958Y00651*
X02957Y00651*
X02957Y0065*
X02957Y0065*
X02956Y00649*
X02956Y00649*
X02955Y00648*
X02955Y00648*
X02955Y00648*
X02955Y00648*
X02954Y00647*
X02953Y00647*
X02952Y00646*
X02951Y00646*
X0295Y00646*
X02949Y00646*
X02949*
X02949Y00646*
X02949Y00646*
X02937*
X02937Y00646*
X02936Y00646*
X02936Y00646*
X02935Y00647*
X02934Y00647*
X02933Y00647*
X02933*
X02932Y00647*
X02931Y00647*
X02931Y00646*
X0293Y00646*
X0293Y00646*
X02929Y00646*
X02918*
X02917Y00646*
X02917Y00646*
X02917*
X02916Y00646*
X02915Y00646*
X02914Y00646*
X02913Y00647*
X02912Y00647*
X02911Y00648*
X02911Y00648*
X02911Y00648*
X02911Y00648*
X0291Y00649*
X02909Y0065*
X02909Y00651*
X02908Y00652*
X02908Y00653*
X02908Y00653*
X02908Y00654*
X02907Y00655*
Y00655*
X02907Y00656*
X02907Y00656*
Y00671*
X02907Y00671*
X02907Y00672*
Y00672*
X02908Y00673*
X02908Y00674*
X02908Y00675*
X02908Y00676*
X02909Y00677*
X02909Y00678*
X0291Y00678*
X02911Y00679*
X02911Y00679*
X02911Y00679*
X02911Y00679*
X02912Y0068*
X02913Y0068*
X02914Y00681*
X02915Y00681*
X02916Y00681*
X02917Y00681*
X02917*
X02917Y00681*
X02918Y00681*
X02929*
X0293Y00681*
G37*
G36*
X02879Y00728D02*
X02808D01*
Y00799*
X02879*
Y00728*
G37*
G36*
X03679D02*
X03608D01*
Y00799*
X03679*
Y00728*
G37*
G36*
X03509Y00733D02*
X03418D01*
Y00778*
X03509*
Y00733*
G37*
G36*
X0335Y00778D02*
X03351Y00778D01*
X03351Y00777*
X03352Y00777*
X03353Y00776*
X03353Y00775*
X03353Y00775*
X03353Y00774*
Y00755*
X03353Y00754*
X03353Y00754*
X03353Y00753*
X03352Y00752*
X03351Y00752*
X03351Y00751*
X0335Y00751*
X03349Y00751*
X03329*
X03328Y00751*
X03327Y00751*
X03326Y00752*
X03325Y00752*
X03325Y00753*
X03325Y00754*
X03324Y00754*
X03324Y00755*
Y00774*
X03324Y00775*
X03325Y00775*
X03325Y00776*
X03325Y00777*
X03326Y00777*
X03327Y00778*
X03328Y00778*
X03329Y00778*
X03349*
X0335Y00778*
G37*
G36*
X0323D02*
X03231Y00778D01*
X03231Y00777*
X03232Y00777*
X03233Y00776*
X03233Y00775*
X03233Y00775*
X03233Y00774*
Y00755*
X03233Y00754*
X03233Y00754*
X03233Y00753*
X03232Y00752*
X03231Y00752*
X03231Y00751*
X0323Y00751*
X03229Y00751*
X03209*
X03208Y00751*
X03207Y00751*
X03206Y00752*
X03205Y00752*
X03205Y00753*
X03205Y00754*
X03204Y00754*
X03204Y00755*
Y00774*
X03204Y00775*
X03205Y00775*
X03205Y00776*
X03205Y00777*
X03206Y00777*
X03207Y00778*
X03208Y00778*
X03209Y00778*
X03229*
X0323Y00778*
G37*
G36*
X0335Y00816D02*
X03351Y00816D01*
X03351Y00816*
X03352Y00815*
X03353Y00814*
X03353Y00814*
X03353Y00813*
X03353Y00812*
Y00794*
X03353Y00793*
X03353Y00792*
X03353Y00791*
X03352Y0079*
X03351Y0079*
X03351Y00789*
X0335Y00789*
X03349Y00789*
X03329*
X03328Y00789*
X03327Y00789*
X03326Y0079*
X03325Y0079*
X03325Y00791*
X03325Y00792*
X03324Y00793*
X03324Y00794*
Y00812*
X03324Y00813*
X03325Y00814*
X03325Y00814*
X03325Y00815*
X03326Y00816*
X03327Y00816*
X03328Y00816*
X03329Y00816*
X03349*
X0335Y00816*
G37*
G36*
X0323D02*
X03231Y00816D01*
X03231Y00816*
X03232Y00815*
X03233Y00814*
X03233Y00814*
X03233Y00813*
X03233Y00812*
Y00794*
X03233Y00793*
X03233Y00792*
X03233Y00791*
X03232Y0079*
X03231Y0079*
X03231Y00789*
X0323Y00789*
X03229Y00789*
X03209*
X03208Y00789*
X03207Y00789*
X03206Y0079*
X03205Y0079*
X03205Y00791*
X03205Y00792*
X03204Y00793*
X03204Y00794*
Y00812*
X03204Y00813*
X03205Y00814*
X03205Y00814*
X03205Y00815*
X03206Y00816*
X03207Y00816*
X03208Y00816*
X03209Y00816*
X03229*
X0323Y00816*
G37*
G36*
X03545Y00792D02*
X03501D01*
Y00835*
X03545*
Y00792*
G37*
G36*
X03397Y00899D02*
X03397Y00899D01*
X03397*
X03398Y00899*
X03399Y00899*
X034Y00899*
X03401Y00898*
X03402Y00898*
X03403Y00897*
X03403Y00897*
X03403Y00897*
X03403Y00897*
X03404Y00896*
X03405Y00895*
X03405Y00894*
X03406Y00894*
X03406Y00893*
X03406Y00892*
X03407Y00891*
X03407Y0089*
Y0089*
X03407Y00889*
X03407Y00889*
Y00878*
X03407Y00877*
X03407Y00877*
X03406Y00876*
X03406Y00876*
X03406Y00875*
X03405Y00874*
Y00873*
X03406Y00872*
X03406Y00871*
X03406Y00871*
X03406Y0087*
X03407Y0087*
X03407Y00869*
Y00858*
X03407Y00858*
X03407Y00857*
Y00857*
X03406Y00856*
X03406Y00855*
X03406Y00855*
X03406Y00853*
X03405Y00852*
X03405Y00852*
X03405Y00851*
X03406Y0085*
X03406Y00849*
X03407Y00845*
Y00842*
X03406Y00841*
X03406Y0084*
X03406Y00839*
X03407Y00838*
X03407Y00837*
X03408Y00837*
X03409Y00836*
X03409Y00836*
X0341Y00835*
X03411Y00835*
X03426*
Y00792*
X03383*
Y00823*
X03383Y00824*
X03383Y00825*
X03382Y00826*
X03382Y00827*
X03381Y00828*
X03381Y00828*
X0338Y00828*
X03377Y0083*
X03375Y00832*
X03373Y00835*
X03373Y00835*
X03372Y00838*
X03371Y00842*
Y00845*
X03372Y00849*
X03372Y0085*
X03372Y00851*
X03372Y00852*
X03372Y00852*
X03372Y00853*
X03372Y00855*
X03371Y00855*
X03371Y00856*
X03371Y00857*
Y00857*
X03371Y00858*
X03371Y00858*
Y00869*
X03371Y0087*
X03371Y0087*
X03372Y00871*
X03372Y00871*
X03372Y00872*
X03372Y00873*
Y00874*
X03372Y00875*
X03372Y00876*
X03372Y00876*
X03371Y00877*
X03371Y00877*
X03371Y00878*
Y00889*
X03371Y00889*
X03371Y0089*
Y0089*
X03371Y00891*
X03371Y00892*
X03372Y00893*
X03372Y00894*
X03373Y00894*
X03373Y00895*
X03374Y00896*
X03374Y00897*
X03375Y00897*
X03375Y00897*
X03375Y00897*
X03376Y00898*
X03377Y00898*
X03378Y00899*
X03379Y00899*
X0338Y00899*
X0338Y00899*
X03381*
X03381Y00899*
X03381Y00899*
X03397*
X03397Y00899*
G37*
G36*
X03271Y00828D02*
X03272Y00828D01*
X03272Y00827*
X03273Y00827*
X03273Y00826*
X03274Y00826*
X03274Y00825*
X03274Y00824*
Y00804*
X03274Y00803*
X03274Y00802*
X03273Y00801*
X03273Y008*
X03272Y008*
X03272Y00799*
X03271Y00799*
X0327Y00799*
X03252*
X0325Y00799*
X0325Y00799*
X03249Y008*
X03248Y008*
X03248Y00801*
X03247Y00802*
X03247Y00803*
X03247Y00804*
Y00824*
X03247Y00825*
X03247Y00826*
X03248Y00826*
X03248Y00827*
X03249Y00827*
X0325Y00828*
X0325Y00828*
X03252Y00828*
X0327*
X03271Y00828*
G37*
G36*
X03309D02*
X0331Y00828D01*
X0331Y00827*
X03311Y00827*
X03312Y00826*
X03312Y00826*
X03312Y00825*
X03312Y00824*
Y00804*
X03312Y00803*
X03312Y00802*
X03312Y00801*
X03311Y008*
X0331Y008*
X0331Y00799*
X03309Y00799*
X03308Y00799*
X0329*
X03289Y00799*
X03288Y00799*
X03287Y008*
X03286Y008*
X03286Y00801*
X03286Y00802*
X03285Y00803*
X03285Y00804*
Y00824*
X03285Y00825*
X03286Y00826*
X03286Y00826*
X03286Y00827*
X03287Y00827*
X03288Y00828*
X03289Y00828*
X0329Y00828*
X03308*
X03309Y00828*
G37*
G36*
X03509Y00849D02*
X03418D01*
Y00894*
X03509*
Y00849*
G37*
G36*
X01097Y01594D02*
X011Y01593D01*
X01105Y01592*
X01107Y01591*
X01112Y01588*
X01113Y01588*
X01114Y01587*
X01118Y01584*
X01121Y0158*
X01123Y01578*
X01126Y01572*
X01128Y01565*
X01129Y01558*
X01128Y01551*
X01127Y01547*
X01126Y01545*
X01125Y01543*
X01123Y01539*
X01122Y01537*
X01118Y01533*
X01114Y0153*
X01113Y01529*
X01107Y01526*
X01105Y01525*
X011Y01523*
X01097Y01523*
X01095Y01523*
X01091*
X01089Y01523*
X01086Y01523*
X01082Y01525*
X01079Y01526*
X01073Y01529*
X01072Y0153*
X01068Y01533*
X01065Y01537*
X01063Y01539*
X01061Y01543*
X0106Y01545*
X01059Y01547*
X01058Y01551*
X01057Y01558*
X01058Y01565*
X0106Y01572*
X01063Y01578*
X01065Y0158*
X01068Y01584*
X01072Y01587*
X01073Y01588*
X01074Y01588*
X01079Y01591*
X01082Y01592*
X01086Y01593*
X01089Y01594*
X01091Y01594*
X01095*
X01097Y01594*
G37*
G36*
X00297D02*
X003Y01593D01*
X00305Y01592*
X00307Y01591*
X00312Y01588*
X00313Y01588*
X00314Y01587*
X00318Y01584*
X00321Y0158*
X00323Y01578*
X00326Y01572*
X00328Y01565*
X00329Y01558*
X00328Y01551*
X00327Y01547*
X00326Y01545*
X00325Y01543*
X00323Y01539*
X00322Y01537*
X00318Y01533*
X00314Y0153*
X00313Y01529*
X00307Y01526*
X00305Y01525*
X003Y01523*
X00297Y01523*
X00295Y01523*
X00291*
X00289Y01523*
X00286Y01523*
X00282Y01525*
X00279Y01526*
X00273Y01529*
X00272Y0153*
X00268Y01533*
X00265Y01537*
X00263Y01539*
X00261Y01543*
X0026Y01545*
X00259Y01547*
X00258Y01551*
X00257Y01558*
X00258Y01565*
X0026Y01572*
X00263Y01578*
X00265Y0158*
X00268Y01584*
X00272Y01587*
X00273Y01588*
X00274Y01588*
X00279Y01591*
X00282Y01592*
X00286Y01593*
X00289Y01594*
X00291Y01594*
X00295*
X00297Y01594*
G37*
G36*
X00921Y01583D02*
X00922Y01583D01*
X00924Y01582*
X00925Y01581*
X00926Y0158*
X00927Y01578*
X00927Y01577*
X00927Y01575*
Y01549*
X00927Y01547*
X00927Y01545*
X00926Y01544*
X00925Y01542*
X00924Y01541*
X00922Y01541*
X00921Y0154*
X00919Y0154*
X00861*
X00859Y0154*
X00858Y01541*
X00856Y01541*
X00855Y01542*
X00854Y01544*
X00853Y01545*
X00853Y01547*
X00853Y01549*
Y01575*
X00853Y01577*
X00853Y01578*
X00854Y0158*
X00855Y01581*
X00856Y01582*
X00858Y01583*
X00859Y01583*
X00861Y01583*
X00919*
X00921Y01583*
G37*
G36*
X00527D02*
X00529Y01583D01*
X0053Y01582*
X00531Y01581*
X00532Y0158*
X00533Y01578*
X00534Y01577*
X00534Y01575*
Y01549*
X00534Y01547*
X00533Y01545*
X00532Y01544*
X00531Y01542*
X0053Y01541*
X00529Y01541*
X00527Y0154*
X00525Y0154*
X00467*
X00466Y0154*
X00464Y01541*
X00463Y01541*
X00461Y01542*
X0046Y01544*
X00459Y01545*
X00459Y01547*
X00459Y01549*
Y01575*
X00459Y01577*
X00459Y01578*
X0046Y0158*
X00461Y01581*
X00463Y01582*
X00464Y01583*
X00466Y01583*
X00467Y01583*
X00525*
X00527Y01583*
G37*
G36*
X00921Y01662D02*
X00922Y01661D01*
X00924Y01661*
X00925Y0166*
X00926Y01658*
X00927Y01657*
X00927Y01655*
X00927Y01653*
Y01627*
X00927Y01625*
X00927Y01624*
X00926Y01622*
X00925Y01621*
X00924Y0162*
X00922Y01619*
X00921Y01619*
X00919Y01619*
X00861*
X00859Y01619*
X00858Y01619*
X00856Y0162*
X00855Y01621*
X00854Y01622*
X00853Y01624*
X00853Y01625*
X00853Y01627*
Y01653*
X00853Y01655*
X00853Y01657*
X00854Y01658*
X00855Y0166*
X00856Y01661*
X00858Y01661*
X00859Y01662*
X00861Y01662*
X00919*
X00921Y01662*
G37*
G36*
X00527D02*
X00529Y01661D01*
X0053Y01661*
X00531Y0166*
X00532Y01658*
X00533Y01657*
X00534Y01655*
X00534Y01653*
Y01627*
X00534Y01625*
X00533Y01624*
X00532Y01622*
X00531Y01621*
X0053Y0162*
X00529Y01619*
X00527Y01619*
X00525Y01619*
X00467*
X00466Y01619*
X00464Y01619*
X00463Y0162*
X00461Y01621*
X0046Y01622*
X00459Y01624*
X00459Y01625*
X00459Y01627*
Y01653*
X00459Y01655*
X00459Y01657*
X0046Y01658*
X00461Y0166*
X00463Y01661*
X00464Y01661*
X00466Y01662*
X00467Y01662*
X00525*
X00527Y01662*
G37*
G36*
X00297Y01694D02*
X003Y01693D01*
X00305Y01692*
X00307Y01691*
X00312Y01688*
X00313Y01688*
X00314Y01687*
X00318Y01684*
X00322Y0168*
X00323Y01678*
X00326Y01672*
X00328Y01665*
X00329Y01658*
X00328Y01651*
X00327Y01647*
X00326Y01645*
X00323Y01639*
X00323Y01639*
X00322Y01637*
X00318Y01633*
X00314Y0163*
X00313Y01629*
X00307Y01626*
X00306Y01625*
X003Y01623*
X00297Y01623*
X00295Y01623*
X00291*
X00289Y01623*
X00286Y01623*
X0028Y01625*
X00279Y01626*
X00273Y01629*
X00272Y0163*
X00268Y01633*
X00265Y01637*
X00263Y01639*
X00263Y01639*
X0026Y01645*
X00259Y01647*
X00258Y01651*
X00257Y01658*
X00258Y01665*
X0026Y01672*
X00263Y01678*
X00265Y0168*
X00268Y01684*
X00272Y01687*
X00273Y01688*
X00274Y01688*
X00279Y01691*
X00282Y01692*
X00286Y01693*
X00289Y01694*
X00291Y01694*
X00295*
X00297Y01694*
G37*
G36*
X01097D02*
X011Y01693D01*
X01105Y01692*
X01107Y01691*
X01112Y01688*
X01113Y01688*
X01114Y01687*
X01118Y01684*
X01122Y0168*
X01123Y01678*
X01126Y01672*
X01128Y01665*
X01129Y01658*
X01128Y01651*
X01127Y01647*
X01126Y01645*
X01123Y01639*
X01123Y01639*
X01122Y01637*
X01118Y01633*
X01114Y0163*
X01113Y01629*
X01107Y01626*
X01106Y01625*
X011Y01623*
X01097Y01623*
X01095Y01623*
X01091*
X01089Y01623*
X01086Y01623*
X0108Y01625*
X01079Y01626*
X01073Y01629*
X01072Y0163*
X01068Y01633*
X01065Y01637*
X01063Y01639*
X01063Y01639*
X0106Y01645*
X01059Y01647*
X01058Y01651*
X01057Y01658*
X01058Y01665*
X0106Y01672*
X01063Y01678*
X01065Y0168*
X01068Y01684*
X01072Y01687*
X01073Y01688*
X01074Y01688*
X01079Y01691*
X01082Y01692*
X01086Y01693*
X01089Y01694*
X01091Y01694*
X01095*
X01097Y01694*
G37*
G36*
X00527Y01741D02*
X00529Y0174D01*
X0053Y01739*
X00531Y01738*
X00532Y01737*
X00533Y01736*
X00534Y01734*
X00534Y01732*
Y01706*
X00534Y01704*
X00533Y01703*
X00532Y01701*
X00531Y017*
X0053Y01699*
X00529Y01698*
X00527Y01698*
X00525Y01697*
X00467*
X00466Y01698*
X00464Y01698*
X00463Y01699*
X00461Y017*
X0046Y01701*
X00459Y01703*
X00459Y01704*
X00459Y01706*
Y01732*
X00459Y01734*
X00459Y01736*
X0046Y01737*
X00461Y01738*
X00463Y01739*
X00464Y0174*
X00466Y01741*
X00467Y01741*
X00525*
X00527Y01741*
G37*
G36*
X00921D02*
X00922Y0174D01*
X00924Y01739*
X00925Y01738*
X00926Y01737*
X00927Y01736*
X00927Y01734*
X00927Y01732*
Y01706*
X00927Y01704*
X00927Y01703*
X00926Y01701*
X00925Y017*
X00924Y01699*
X00922Y01698*
X00921Y01698*
X00919Y01697*
X00861*
X00859Y01698*
X00858Y01698*
X00856Y01699*
X00855Y017*
X00854Y01701*
X00853Y01703*
X00853Y01704*
X00853Y01706*
Y01732*
X00853Y01734*
X00853Y01736*
X00854Y01737*
X00855Y01738*
X00856Y01739*
X00858Y0174*
X00859Y01741*
X00861Y01741*
X00919*
X00921Y01741*
G37*
G36*
X00407Y01747D02*
X00409Y01746D01*
X0041Y01745*
X00411Y01744*
X00412Y01743*
X00413Y01742*
X00414Y0174*
X00414Y01739*
Y01709*
X00414Y01708*
X00413Y01706*
X00412Y01705*
X00411Y01704*
X0041Y01703*
X00409Y01702*
X00407Y01701*
X00406Y01701*
X00381*
X00379Y01701*
X00377Y01702*
X00376Y01703*
X00375Y01704*
X00374Y01705*
X00373Y01706*
X00373Y01708*
X00372Y01709*
Y01739*
X00373Y0174*
X00373Y01742*
X00374Y01743*
X00375Y01744*
X00376Y01745*
X00377Y01746*
X00379Y01747*
X00381Y01747*
X00406*
X00407Y01747*
G37*
G36*
X00297Y01794D02*
X003Y01793D01*
X00305Y01792*
X00307Y01791*
X00312Y01788*
X00313Y01788*
X00314Y01787*
X00318Y01784*
X00321Y0178*
X00323Y01778*
X00326Y01772*
X00326Y01772*
X00328Y01765*
X00329Y01758*
X00328Y01751*
X00327Y01747*
X00326Y01745*
X00324Y01742*
X00323Y01739*
X00322Y01738*
X00318Y01733*
X00314Y0173*
X00313Y01729*
X00307Y01726*
X00305Y01725*
X003Y01723*
X00297Y01723*
X00295Y01723*
X00291*
X00289Y01723*
X00286Y01723*
X00282Y01725*
X00279Y01726*
X00273Y01729*
X00272Y0173*
X00268Y01733*
X00264Y01738*
X00263Y01739*
X00262Y01742*
X0026Y01745*
X00259Y01747*
X00258Y01751*
X00257Y01758*
X00258Y01765*
X0026Y01772*
X0026Y01772*
X00263Y01778*
X00265Y0178*
X00268Y01784*
X00272Y01787*
X00273Y01788*
X00274Y01788*
X00279Y01791*
X00282Y01792*
X00286Y01793*
X00289Y01794*
X00291Y01794*
X00295*
X00297Y01794*
G37*
G36*
X01097D02*
X011Y01793D01*
X01105Y01792*
X01107Y01791*
X01112Y01788*
X01113Y01788*
X01114Y01787*
X01118Y01784*
X01121Y0178*
X01123Y01778*
X01126Y01772*
X01126Y01772*
X01128Y01765*
X01129Y01758*
X01128Y01751*
X01127Y01747*
X01126Y01745*
X01124Y01742*
X01123Y01739*
X01122Y01738*
X01118Y01733*
X01114Y0173*
X01113Y01729*
X01107Y01726*
X01105Y01725*
X011Y01723*
X01097Y01723*
X01095Y01723*
X01091*
X01089Y01723*
X01086Y01723*
X01082Y01725*
X01079Y01726*
X01073Y01729*
X01072Y0173*
X01068Y01733*
X01064Y01738*
X01063Y01739*
X01062Y01742*
X0106Y01745*
X01059Y01747*
X01058Y01751*
X01057Y01758*
X01058Y01765*
X0106Y01772*
X0106Y01772*
X01063Y01778*
X01065Y0178*
X01068Y01784*
X01072Y01787*
X01073Y01788*
X01074Y01788*
X01079Y01791*
X01082Y01792*
X01086Y01793*
X01089Y01794*
X01091Y01794*
X01095*
X01097Y01794*
G37*
G36*
X00407Y01815D02*
X00409Y01815D01*
X0041Y01814*
X00411Y01813*
X00412Y01812*
X00413Y01811*
X00414Y01809*
X00414Y01807*
Y01778*
X00414Y01777*
X00413Y01775*
X00412Y01774*
X00411Y01773*
X0041Y01772*
X00409Y01771*
X00407Y0177*
X00406Y0177*
X00381*
X00379Y0177*
X00377Y01771*
X00376Y01772*
X00375Y01773*
X00374Y01774*
X00373Y01775*
X00373Y01777*
X00372Y01778*
Y01807*
X00373Y01809*
X00373Y01811*
X00374Y01812*
X00375Y01813*
X00376Y01814*
X00377Y01815*
X00379Y01815*
X00381Y01816*
X00406*
X00407Y01815*
G37*
G36*
X00527Y01819D02*
X00529Y01819D01*
X0053Y01818*
X00531Y01817*
X00532Y01816*
X00533Y01814*
X00534Y01813*
X00534Y01811*
Y01785*
X00534Y01783*
X00533Y01781*
X00532Y0178*
X00531Y01779*
X0053Y01778*
X00529Y01777*
X00527Y01776*
X00525Y01776*
X00467*
X00466Y01776*
X00464Y01777*
X00463Y01778*
X00461Y01779*
X0046Y0178*
X00459Y01781*
X00459Y01783*
X00459Y01785*
Y01811*
X00459Y01813*
X00459Y01814*
X0046Y01816*
X00461Y01817*
X00463Y01818*
X00464Y01819*
X00466Y01819*
X00467Y0182*
X00525*
X00527Y01819*
G37*
G36*
X00921D02*
X00922Y01819D01*
X00924Y01818*
X00925Y01817*
X00926Y01816*
X00927Y01814*
X00927Y01813*
X00927Y01811*
Y01785*
X00927Y01783*
X00927Y01781*
X00926Y0178*
X00925Y01779*
X00924Y01778*
X00922Y01777*
X00921Y01776*
X00919Y01776*
X00861*
X00859Y01776*
X00858Y01777*
X00856Y01778*
X00855Y01779*
X00854Y0178*
X00853Y01781*
X00853Y01783*
X00853Y01785*
Y01811*
X00853Y01813*
X00853Y01814*
X00854Y01816*
X00855Y01817*
X00856Y01818*
X00858Y01819*
X00859Y01819*
X00861Y0182*
X00919*
X00921Y01819*
G37*
G36*
X01097Y01894D02*
X011Y01893D01*
X01105Y01892*
X01107Y01891*
X0111Y0189*
X01113Y01888*
X01114Y01887*
X01118Y01884*
X01122Y0188*
X01123Y01878*
X01126Y01872*
X01128Y01865*
X01129Y01858*
X01128Y01851*
X01127Y01847*
X01126Y01845*
X01123Y01839*
X01123Y01839*
X01122Y01837*
X01118Y01833*
X01114Y0183*
X01113Y01829*
X01107Y01826*
X01105Y01825*
X011Y01823*
X01097Y01823*
X01095Y01823*
X01091*
X01089Y01823*
X01086Y01823*
X01082Y01825*
X01079Y01826*
X01073Y01829*
X01072Y0183*
X01068Y01833*
X01065Y01837*
X01063Y01839*
X01063Y01839*
X0106Y01845*
X01059Y01847*
X01058Y01851*
X01057Y01858*
X01058Y01865*
X0106Y01872*
X01063Y01878*
X01065Y0188*
X01068Y01884*
X01072Y01887*
X01073Y01888*
X01076Y0189*
X01079Y01891*
X01082Y01892*
X01086Y01893*
X01089Y01894*
X01091Y01894*
X01095*
X01097Y01894*
G37*
G36*
X00297D02*
X003Y01893D01*
X00305Y01892*
X00307Y01891*
X0031Y0189*
X00313Y01888*
X00314Y01887*
X00318Y01884*
X00322Y0188*
X00323Y01878*
X00326Y01872*
X00328Y01865*
X00329Y01858*
X00328Y01851*
X00327Y01847*
X00326Y01845*
X00323Y01839*
X00323Y01839*
X00322Y01837*
X00318Y01833*
X00314Y0183*
X00313Y01829*
X00307Y01826*
X00305Y01825*
X003Y01823*
X00297Y01823*
X00295Y01823*
X00291*
X00289Y01823*
X00286Y01823*
X00282Y01825*
X00279Y01826*
X00273Y01829*
X00272Y0183*
X00268Y01833*
X00265Y01837*
X00263Y01839*
X00263Y01839*
X0026Y01845*
X00259Y01847*
X00258Y01851*
X00257Y01858*
X00258Y01865*
X0026Y01872*
X00263Y01878*
X00265Y0188*
X00268Y01884*
X00272Y01887*
X00273Y01888*
X00276Y0189*
X00279Y01891*
X00282Y01892*
X00286Y01893*
X00289Y01894*
X00291Y01894*
X00295*
X00297Y01894*
G37*
G36*
X00921Y01898D02*
X00922Y01898D01*
X00924Y01897*
X00925Y01896*
X00926Y01895*
X00927Y01893*
X00927Y01891*
X00927Y0189*
Y01863*
X00927Y01862*
X00927Y0186*
X00926Y01859*
X00925Y01857*
X00924Y01856*
X00922Y01856*
X00921Y01855*
X00919Y01855*
X00861*
X00859Y01855*
X00858Y01856*
X00856Y01856*
X00855Y01857*
X00854Y01859*
X00853Y0186*
X00853Y01862*
X00853Y01863*
Y0189*
X00853Y01891*
X00853Y01893*
X00854Y01895*
X00855Y01896*
X00856Y01897*
X00858Y01898*
X00859Y01898*
X00861Y01898*
X00919*
X00921Y01898*
G37*
G36*
X00527D02*
X00529Y01898D01*
X0053Y01897*
X00531Y01896*
X00532Y01895*
X00533Y01893*
X00534Y01891*
X00534Y0189*
Y01863*
X00534Y01862*
X00533Y0186*
X00532Y01859*
X00531Y01857*
X0053Y01856*
X00529Y01856*
X00527Y01855*
X00525Y01855*
X00467*
X00466Y01855*
X00464Y01856*
X00463Y01856*
X00461Y01857*
X0046Y01859*
X00459Y0186*
X00459Y01862*
X00459Y01863*
Y0189*
X00459Y01891*
X00459Y01893*
X0046Y01895*
X00461Y01896*
X00463Y01897*
X00464Y01898*
X00466Y01898*
X00467Y01898*
X00525*
X00527Y01898*
G37*
G36*
X00297Y01993D02*
X003Y01992D01*
X00305Y01991*
X00307Y0199*
X00312Y01987*
X00313Y01987*
X00314Y01986*
X00318Y01983*
X00322Y01979*
X00323Y01977*
X00326Y01971*
X00327Y01969*
X00328Y01965*
X00329Y01958*
X00328Y01951*
X00327Y01948*
X00326Y01945*
X00324Y0194*
X00323Y01939*
X00322Y01937*
X00318Y01933*
X00314Y0193*
X00313Y01929*
X00307Y01926*
X00305Y01925*
X003Y01923*
X00297Y01923*
X00295Y01923*
X00291*
X00289Y01923*
X00286Y01923*
X00282Y01925*
X00279Y01926*
X00273Y01929*
X00272Y0193*
X00268Y01933*
X00265Y01937*
X00263Y01939*
X00263Y0194*
X0026Y01945*
X00259Y01948*
X00258Y01951*
X00257Y01958*
X00258Y01965*
X0026Y01969*
X0026Y01971*
X00263Y01977*
X00265Y01979*
X00268Y01983*
X00272Y01986*
X00273Y01987*
X00274Y01987*
X00279Y0199*
X00282Y01991*
X00286Y01992*
X00289Y01993*
X00291Y01993*
X00295*
X00297Y01993*
G37*
G36*
X01097D02*
X011Y01992D01*
X01105Y01991*
X01107Y0199*
X01112Y01987*
X01113Y01987*
X01114Y01986*
X01118Y01983*
X01122Y01979*
X01123Y01977*
X01126Y01971*
X01127Y01969*
X01128Y01965*
X01129Y01958*
X01128Y01951*
X01127Y01948*
X01126Y01945*
X01124Y0194*
X01123Y01939*
X01122Y01937*
X01118Y01933*
X01114Y0193*
X01113Y01929*
X01107Y01926*
X01105Y01925*
X011Y01923*
X01097Y01923*
X01095Y01923*
X01091*
X01089Y01923*
X01086Y01923*
X01082Y01925*
X01079Y01926*
X01073Y01929*
X01072Y0193*
X01068Y01933*
X01065Y01937*
X01063Y01939*
X01063Y0194*
X0106Y01945*
X01059Y01948*
X01058Y01951*
X01057Y01958*
X01058Y01965*
X0106Y01969*
X0106Y01971*
X01063Y01977*
X01065Y01979*
X01068Y01983*
X01072Y01986*
X01073Y01987*
X01074Y01987*
X01079Y0199*
X01082Y01991*
X01086Y01992*
X01089Y01993*
X01091Y01993*
X01095*
X01097Y01993*
G37*
G36*
X00921Y01976D02*
X00922Y01975D01*
X00924Y01975*
X00925Y01974*
X00926Y01972*
X00927Y01971*
X00927Y01969*
X00927Y01968*
Y01942*
X00927Y0194*
X00927Y01939*
X00926Y01937*
X00925Y01936*
X00924Y01935*
X00922Y01934*
X00921Y01934*
X00919Y01934*
X00861*
X00859Y01934*
X00858Y01934*
X00856Y01935*
X00855Y01936*
X00854Y01937*
X00853Y01939*
X00853Y0194*
X00853Y01942*
Y01968*
X00853Y01969*
X00853Y01971*
X00854Y01972*
X00855Y01974*
X00856Y01975*
X00858Y01975*
X00859Y01976*
X00861Y01976*
X00919*
X00921Y01976*
G37*
G36*
X00527D02*
X00529Y01975D01*
X0053Y01975*
X00531Y01974*
X00532Y01972*
X00533Y01971*
X00534Y01969*
X00534Y01968*
Y01942*
X00534Y0194*
X00533Y01939*
X00532Y01937*
X00531Y01936*
X0053Y01935*
X00529Y01934*
X00527Y01934*
X00525Y01934*
X00467*
X00466Y01934*
X00464Y01934*
X00463Y01935*
X00461Y01936*
X0046Y01937*
X00459Y01939*
X00459Y0194*
X00459Y01942*
Y01968*
X00459Y01969*
X00459Y01971*
X0046Y01972*
X00461Y01974*
X00463Y01975*
X00464Y01975*
X00466Y01976*
X00467Y01976*
X00525*
X00527Y01976*
G37*
G36*
X00379Y01975D02*
X00379Y01975D01*
X0038Y01975*
X0038Y01975*
X00381Y01974*
X00382Y01974*
X00383*
X00384Y01974*
X00385Y01975*
X00385Y01975*
X00386Y01975*
X00386Y01975*
X00387Y01975*
X00398*
X00398Y01975*
X00398Y01975*
X00399*
X004Y01975*
X00401Y01975*
X00401Y01975*
X00402Y01974*
X00403Y01974*
X00404Y01973*
X00404Y01973*
X00404Y01973*
X00405Y01973*
X00405Y01972*
X00406Y01971*
X00407Y0197*
X00407Y0197*
X00407Y01969*
X00408Y01968*
X00408Y01968*
X00408Y01967*
Y01967*
X00408Y01966*
X00408Y01966*
Y01951*
X00408Y01951*
X00408Y0195*
Y0195*
X00408Y01949*
X00408Y01948*
X00407Y01947*
X00407Y01946*
X00407Y01946*
X00406Y01945*
X00406Y01944*
X00406Y01944*
X00405Y01944*
X00405Y01943*
X00405Y01943*
X00404Y01943*
X00404Y01943*
X00403Y01942*
X00402Y01942*
X00401Y01941*
X00401Y01941*
X004Y01941*
X00399Y01941*
X00398*
X00398Y01941*
X00398Y01941*
X00387*
X00386Y01941*
X00386Y01941*
X00385Y01941*
X00385Y01941*
X00384Y01942*
X00383Y01942*
X00382*
X00381Y01942*
X0038Y01941*
X0038Y01941*
X00379Y01941*
X00379Y01941*
X00378Y01941*
X00367*
X00367Y01941*
X00366Y01941*
X00366*
X00365Y01941*
X00364Y01941*
X00363Y01941*
X00362Y01942*
X00362Y01942*
X00361Y01943*
X0036Y01943*
X0036Y01943*
X0036Y01943*
X00359Y01944*
X00359Y01945*
X00358Y01946*
X00358Y01946*
X00357Y01947*
X00357Y01948*
X00357Y01949*
X00357Y0195*
Y0195*
X00357Y01951*
X00357Y01951*
Y01966*
X00357Y01966*
X00357Y01967*
Y01967*
X00357Y01968*
X00357Y01968*
X00357Y01969*
X00358Y0197*
X00358Y0197*
X00359Y01971*
X00359Y01972*
X0036Y01973*
X0036Y01973*
X0036Y01973*
X00361Y01973*
X00362Y01974*
X00362Y01974*
X00363Y01975*
X00364Y01975*
X00365Y01975*
X00366Y01975*
X00366*
X00367Y01975*
X00367Y01975*
X00378*
X00379Y01975*
G37*
G36*
X00329Y02022D02*
X00258D01*
Y02093*
X00329*
Y02022*
G37*
G36*
X01129D02*
X01058D01*
Y02093*
X01129*
Y02022*
G37*
G36*
X00958Y02027D02*
X00868D01*
Y02072*
X00958*
Y02027*
G37*
G36*
X00799Y02072D02*
X008Y02072D01*
X00801Y02071*
X00801Y02071*
X00802Y0207*
X00802Y02069*
X00803Y02068*
X00803Y02067*
Y02049*
X00803Y02048*
X00802Y02047*
X00802Y02047*
X00801Y02046*
X00801Y02045*
X008Y02045*
X00799Y02045*
X00798Y02045*
X00778*
X00777Y02045*
X00776Y02045*
X00775Y02045*
X00775Y02046*
X00774Y02047*
X00774Y02047*
X00774Y02048*
X00773Y02049*
Y02067*
X00774Y02068*
X00774Y02069*
X00774Y0207*
X00775Y02071*
X00775Y02071*
X00776Y02072*
X00777Y02072*
X00778Y02072*
X00798*
X00799Y02072*
G37*
G36*
X00679D02*
X0068Y02072D01*
X00681Y02071*
X00681Y02071*
X00682Y0207*
X00682Y02069*
X00683Y02068*
X00683Y02067*
Y02049*
X00683Y02048*
X00682Y02047*
X00682Y02047*
X00681Y02046*
X00681Y02045*
X0068Y02045*
X00679Y02045*
X00678Y02045*
X00658*
X00657Y02045*
X00656Y02045*
X00655Y02045*
X00655Y02046*
X00654Y02047*
X00654Y02047*
X00654Y02048*
X00653Y02049*
Y02067*
X00654Y02068*
X00654Y02069*
X00654Y0207*
X00655Y02071*
X00655Y02071*
X00656Y02072*
X00657Y02072*
X00658Y02072*
X00678*
X00679Y02072*
G37*
G36*
X00799Y0211D02*
X008Y0211D01*
X00801Y02109*
X00801Y02109*
X00802Y02108*
X00802Y02107*
X00803Y02107*
X00803Y02106*
Y02088*
X00803Y02086*
X00802Y02086*
X00802Y02085*
X00801Y02084*
X00801Y02084*
X008Y02083*
X00799Y02083*
X00798Y02083*
X00778*
X00777Y02083*
X00776Y02083*
X00775Y02084*
X00775Y02084*
X00774Y02085*
X00774Y02086*
X00774Y02086*
X00773Y02088*
Y02106*
X00774Y02107*
X00774Y02107*
X00774Y02108*
X00775Y02109*
X00775Y02109*
X00776Y0211*
X00777Y0211*
X00778Y0211*
X00798*
X00799Y0211*
G37*
G36*
X00679D02*
X0068Y0211D01*
X00681Y02109*
X00681Y02109*
X00682Y02108*
X00682Y02107*
X00683Y02107*
X00683Y02106*
Y02088*
X00683Y02086*
X00682Y02086*
X00682Y02085*
X00681Y02084*
X00681Y02084*
X0068Y02083*
X00679Y02083*
X00678Y02083*
X00658*
X00657Y02083*
X00656Y02083*
X00655Y02084*
X00655Y02084*
X00654Y02085*
X00654Y02086*
X00654Y02086*
X00653Y02088*
Y02106*
X00654Y02107*
X00654Y02107*
X00654Y02108*
X00655Y02109*
X00655Y02109*
X00656Y0211*
X00657Y0211*
X00658Y0211*
X00678*
X00679Y0211*
G37*
G36*
X00994Y02086D02*
X0095D01*
Y02129*
X00994*
Y02086*
G37*
G36*
X00846Y02193D02*
X00846Y02193D01*
X00847*
X00847Y02193*
X00849Y02193*
X00849Y02193*
X0085Y02192*
X00851Y02192*
X00852Y02191*
X00852Y02191*
X00852Y02191*
X00853Y02191*
X00853Y0219*
X00854Y02189*
X00855Y02188*
X00855Y02187*
X00855Y02186*
X00856Y02186*
X00856Y02185*
X00856Y02184*
Y02184*
X00856Y02183*
X00856Y02183*
Y02172*
X00856Y02171*
X00856Y02171*
X00855Y0217*
X00855Y0217*
X00855Y02169*
X00855Y02168*
Y02167*
X00855Y02166*
X00855Y02165*
X00855Y02165*
X00856Y02164*
X00856Y02164*
X00856Y02163*
Y02152*
X00856Y02152*
X00856Y02151*
Y02151*
X00856Y0215*
X00856Y02149*
X00855Y02148*
X00855Y02147*
X00855Y02146*
X00854Y02145*
X00855Y02144*
X00855Y02143*
X00855Y02143*
X00856Y02139*
Y02136*
X00856Y02135*
X00856Y02134*
X00856Y02133*
X00856Y02132*
X00856Y02131*
X00857Y02131*
X00858Y0213*
X00859Y0213*
X0086Y02129*
X00861Y02129*
X00876*
Y02086*
X00832*
Y02117*
X00832Y02118*
X00832Y02119*
X00832Y0212*
X00831Y02121*
X0083Y02121*
X0083Y02121*
X0083Y02122*
X00827Y02124*
X00824Y02126*
X00822Y02129*
X00822Y02129*
X00821Y02132*
X0082Y02136*
Y02139*
X00821Y02143*
X00821Y02143*
X00822Y02144*
X00822Y02145*
X00822Y02146*
X00821Y02147*
X00821Y02148*
X00821Y02149*
X0082Y0215*
X0082Y02151*
Y02151*
X0082Y02152*
X0082Y02152*
Y02163*
X0082Y02164*
X0082Y02164*
X00821Y02165*
X00821Y02165*
X00821Y02166*
X00822Y02167*
Y02168*
X00821Y02169*
X00821Y0217*
X00821Y0217*
X00821Y02171*
X0082Y02171*
X0082Y02172*
Y02183*
X0082Y02183*
X0082Y02184*
Y02184*
X00821Y02185*
X00821Y02186*
X00821Y02186*
X00821Y02187*
X00822Y02188*
X00822Y02189*
X00823Y0219*
X00824Y02191*
X00824Y02191*
X00824Y02191*
X00824Y02191*
X00825Y02192*
X00826Y02192*
X00827Y02193*
X00828Y02193*
X00829Y02193*
X0083Y02193*
X0083*
X0083Y02193*
X00831Y02193*
X00846*
X00846Y02193*
G37*
G36*
X0072Y02122D02*
X00721Y02122D01*
X00722Y02121*
X00722Y02121*
X00723Y0212*
X00723Y02119*
X00723Y02119*
X00724Y02117*
Y02097*
X00723Y02096*
X00723Y02096*
X00723Y02095*
X00722Y02094*
X00722Y02094*
X00721Y02093*
X0072Y02093*
X00719Y02093*
X00701*
X007Y02093*
X00699Y02093*
X00698Y02094*
X00698Y02094*
X00697Y02095*
X00697Y02096*
X00696Y02096*
X00696Y02097*
Y02117*
X00696Y02119*
X00697Y02119*
X00697Y0212*
X00698Y02121*
X00698Y02121*
X00699Y02122*
X007Y02122*
X00701Y02122*
X00719*
X0072Y02122*
G37*
G36*
X00758D02*
X00759Y02122D01*
X0076Y02121*
X0076Y02121*
X00761Y0212*
X00761Y02119*
X00762Y02119*
X00762Y02117*
Y02097*
X00762Y02096*
X00761Y02096*
X00761Y02095*
X0076Y02094*
X0076Y02094*
X00759Y02093*
X00758Y02093*
X00757Y02093*
X00739*
X00738Y02093*
X00737Y02093*
X00736Y02094*
X00736Y02094*
X00735Y02095*
X00735Y02096*
X00735Y02096*
X00734Y02097*
Y02117*
X00735Y02119*
X00735Y02119*
X00735Y0212*
X00736Y02121*
X00736Y02121*
X00737Y02122*
X00738Y02122*
X00739Y02122*
X00757*
X00758Y02122*
G37*
G36*
X00958Y02143D02*
X00868D01*
Y02188*
X00958*
Y02143*
G37*
G36*
X02372Y01594D02*
X02375Y01593D01*
X02379Y01592*
X02382Y01591*
X02387Y01588*
X02388Y01588*
X02389Y01587*
X02393Y01584*
X02396Y0158*
X02398Y01578*
X02401Y01572*
X02403Y01565*
X02404Y01558*
X02403Y01551*
X02402Y01547*
X02401Y01545*
X024Y01543*
X02398Y01539*
X02396Y01537*
X02393Y01533*
X02389Y0153*
X02388Y01529*
X02382Y01526*
X02379Y01525*
X02375Y01523*
X02372Y01523*
X0237Y01523*
X02366*
X02364Y01523*
X02361Y01523*
X02357Y01525*
X02354Y01526*
X02348Y01529*
X02347Y0153*
X02343Y01533*
X02339Y01537*
X02338Y01539*
X02336Y01543*
X02335Y01545*
X02334Y01547*
X02333Y01551*
X02332Y01558*
X02333Y01565*
X02335Y01572*
X02338Y01578*
X0234Y0158*
X02343Y01584*
X02347Y01587*
X02348Y01588*
X02349Y01588*
X02354Y01591*
X02357Y01592*
X02361Y01593*
X02364Y01594*
X02366Y01594*
X0237*
X02372Y01594*
G37*
G36*
X01573D02*
X01576Y01593D01*
X0158Y01592*
X01583Y01591*
X01588Y01588*
X01589Y01588*
X0159Y01587*
X01594Y01584*
X01597Y0158*
X01599Y01578*
X01602Y01572*
X01604Y01565*
X01605Y01558*
X01604Y01551*
X01603Y01547*
X01602Y01545*
X01601Y01543*
X01599Y01539*
X01597Y01537*
X01594Y01533*
X0159Y0153*
X01589Y01529*
X01583Y01526*
X0158Y01525*
X01576Y01523*
X01573Y01523*
X01571Y01523*
X01567*
X01565Y01523*
X01562Y01523*
X01558Y01525*
X01555Y01526*
X01549Y01529*
X01548Y0153*
X01544Y01533*
X0154Y01537*
X01539Y01539*
X01537Y01543*
X01536Y01545*
X01535Y01547*
X01534Y01551*
X01533Y01558*
X01534Y01565*
X01536Y01572*
X01539Y01578*
X01541Y0158*
X01544Y01584*
X01548Y01587*
X01549Y01588*
X0155Y01588*
X01555Y01591*
X01558Y01592*
X01562Y01593*
X01565Y01594*
X01567Y01594*
X01571*
X01573Y01594*
G37*
G36*
X02195Y01583D02*
X02197Y01583D01*
X02199Y01582*
X022Y01581*
X02201Y0158*
X02202Y01578*
X02202Y01577*
X02202Y01575*
Y01549*
X02202Y01547*
X02202Y01545*
X02201Y01544*
X022Y01542*
X02199Y01541*
X02197Y01541*
X02195Y0154*
X02194Y0154*
X02136*
X02134Y0154*
X02133Y01541*
X02131Y01541*
X0213Y01542*
X02129Y01544*
X02128Y01545*
X02128Y01547*
X02127Y01549*
Y01575*
X02128Y01577*
X02128Y01578*
X02129Y0158*
X0213Y01581*
X02131Y01582*
X02133Y01583*
X02134Y01583*
X02136Y01583*
X02194*
X02195Y01583*
G37*
G36*
X01803D02*
X01804Y01583D01*
X01806Y01582*
X01807Y01581*
X01808Y0158*
X01809Y01578*
X01809Y01577*
X0181Y01575*
Y01549*
X01809Y01547*
X01809Y01545*
X01808Y01544*
X01807Y01542*
X01806Y01541*
X01804Y01541*
X01803Y0154*
X01801Y0154*
X01743*
X01741Y0154*
X0174Y01541*
X01738Y01541*
X01737Y01542*
X01736Y01544*
X01735Y01545*
X01735Y01547*
X01735Y01549*
Y01575*
X01735Y01577*
X01735Y01578*
X01736Y0158*
X01737Y01581*
X01738Y01582*
X0174Y01583*
X01741Y01583*
X01743Y01583*
X01801*
X01803Y01583*
G37*
G36*
X02195Y01662D02*
X02197Y01661D01*
X02199Y01661*
X022Y0166*
X02201Y01658*
X02202Y01657*
X02202Y01655*
X02202Y01653*
Y01627*
X02202Y01625*
X02202Y01624*
X02201Y01622*
X022Y01621*
X02199Y0162*
X02197Y01619*
X02195Y01619*
X02194Y01619*
X02136*
X02134Y01619*
X02133Y01619*
X02131Y0162*
X0213Y01621*
X02129Y01622*
X02128Y01624*
X02128Y01625*
X02127Y01627*
Y01653*
X02128Y01655*
X02128Y01657*
X02129Y01658*
X0213Y0166*
X02131Y01661*
X02133Y01661*
X02134Y01662*
X02136Y01662*
X02194*
X02195Y01662*
G37*
G36*
X01803D02*
X01804Y01661D01*
X01806Y01661*
X01807Y0166*
X01808Y01658*
X01809Y01657*
X01809Y01655*
X0181Y01653*
Y01627*
X01809Y01625*
X01809Y01624*
X01808Y01622*
X01807Y01621*
X01806Y0162*
X01804Y01619*
X01803Y01619*
X01801Y01619*
X01743*
X01741Y01619*
X0174Y01619*
X01738Y0162*
X01737Y01621*
X01736Y01622*
X01735Y01624*
X01735Y01625*
X01735Y01627*
Y01653*
X01735Y01655*
X01735Y01657*
X01736Y01658*
X01737Y0166*
X01738Y01661*
X0174Y01661*
X01741Y01662*
X01743Y01662*
X01801*
X01803Y01662*
G37*
G36*
X01573Y01694D02*
X01576Y01693D01*
X0158Y01692*
X01583Y01691*
X01588Y01688*
X01589Y01688*
X0159Y01687*
X01594Y01684*
X01597Y0168*
X01599Y01678*
X01602Y01672*
X01604Y01665*
X01605Y01658*
X01604Y01651*
X01603Y01647*
X01602Y01645*
X01599Y01639*
X01599Y01639*
X01597Y01637*
X01594Y01633*
X0159Y0163*
X01589Y01629*
X01583Y01626*
X01582Y01625*
X01576Y01623*
X01573Y01623*
X01571Y01623*
X01567*
X01565Y01623*
X01562Y01623*
X01556Y01625*
X01555Y01626*
X01549Y01629*
X01548Y0163*
X01544Y01633*
X0154Y01637*
X01539Y01639*
X01539Y01639*
X01536Y01645*
X01535Y01647*
X01534Y01651*
X01533Y01658*
X01534Y01665*
X01536Y01672*
X01539Y01678*
X0154Y0168*
X01544Y01684*
X01548Y01687*
X01549Y01688*
X0155Y01688*
X01555Y01691*
X01558Y01692*
X01562Y01693*
X01565Y01694*
X01567Y01694*
X01571*
X01573Y01694*
G37*
G36*
X02372D02*
X02375Y01693D01*
X02379Y01692*
X02382Y01691*
X02387Y01688*
X02388Y01688*
X02389Y01687*
X02393Y01684*
X02396Y0168*
X02398Y01678*
X02401Y01672*
X02403Y01665*
X02404Y01658*
X02403Y01651*
X02402Y01647*
X02401Y01645*
X02398Y01639*
X02398Y01639*
X02396Y01637*
X02393Y01633*
X02389Y0163*
X02388Y01629*
X02382Y01626*
X02381Y01625*
X02375Y01623*
X02372Y01623*
X0237Y01623*
X02366*
X02364Y01623*
X02361Y01623*
X02355Y01625*
X02354Y01626*
X02348Y01629*
X02347Y0163*
X02343Y01633*
X02339Y01637*
X02338Y01639*
X02338Y01639*
X02335Y01645*
X02334Y01647*
X02333Y01651*
X02332Y01658*
X02333Y01665*
X02335Y01672*
X02338Y01678*
X02339Y0168*
X02343Y01684*
X02347Y01687*
X02348Y01688*
X02349Y01688*
X02354Y01691*
X02357Y01692*
X02361Y01693*
X02364Y01694*
X02366Y01694*
X0237*
X02372Y01694*
G37*
G36*
X01803Y01741D02*
X01804Y0174D01*
X01806Y01739*
X01807Y01738*
X01808Y01737*
X01809Y01736*
X01809Y01734*
X0181Y01732*
Y01706*
X01809Y01704*
X01809Y01703*
X01808Y01701*
X01807Y017*
X01806Y01699*
X01804Y01698*
X01803Y01698*
X01801Y01697*
X01743*
X01741Y01698*
X0174Y01698*
X01738Y01699*
X01737Y017*
X01736Y01701*
X01735Y01703*
X01735Y01704*
X01735Y01706*
Y01732*
X01735Y01734*
X01735Y01736*
X01736Y01737*
X01737Y01738*
X01738Y01739*
X0174Y0174*
X01741Y01741*
X01743Y01741*
X01801*
X01803Y01741*
G37*
G36*
X02195D02*
X02197Y0174D01*
X02199Y01739*
X022Y01738*
X02201Y01737*
X02202Y01736*
X02202Y01734*
X02202Y01732*
Y01706*
X02202Y01704*
X02202Y01703*
X02201Y01701*
X022Y017*
X02199Y01699*
X02197Y01698*
X02195Y01698*
X02194Y01697*
X02136*
X02134Y01698*
X02133Y01698*
X02131Y01699*
X0213Y017*
X02129Y01701*
X02128Y01703*
X02128Y01704*
X02127Y01706*
Y01732*
X02128Y01734*
X02128Y01736*
X02129Y01737*
X0213Y01738*
X02131Y01739*
X02133Y0174*
X02134Y01741*
X02136Y01741*
X02194*
X02195Y01741*
G37*
G36*
X01683Y01747D02*
X01685Y01746D01*
X01686Y01745*
X01687Y01744*
X01688Y01743*
X01689Y01742*
X01689Y0174*
X0169Y01739*
Y01709*
X01689Y01708*
X01689Y01706*
X01688Y01705*
X01687Y01704*
X01686Y01703*
X01685Y01702*
X01683Y01701*
X01682Y01701*
X01656*
X01655Y01701*
X01653Y01702*
X01652Y01703*
X01651Y01704*
X0165Y01705*
X01649Y01706*
X01648Y01708*
X01648Y01709*
Y01739*
X01648Y0174*
X01649Y01742*
X0165Y01743*
X01651Y01744*
X01652Y01745*
X01653Y01746*
X01655Y01747*
X01656Y01747*
X01682*
X01683Y01747*
G37*
G36*
X01573Y01794D02*
X01576Y01793D01*
X0158Y01792*
X01583Y01791*
X01588Y01788*
X01589Y01788*
X0159Y01787*
X01594Y01784*
X01597Y0178*
X01599Y01778*
X01602Y01772*
X01602Y01772*
X01604Y01765*
X01605Y01758*
X01604Y01751*
X01603Y01747*
X01602Y01745*
X016Y01742*
X01599Y01739*
X01598Y01738*
X01594Y01733*
X0159Y0173*
X01589Y01729*
X01583Y01726*
X0158Y01725*
X01576Y01723*
X01573Y01723*
X01571Y01723*
X01567*
X01565Y01723*
X01562Y01723*
X01558Y01725*
X01555Y01726*
X01549Y01729*
X01548Y0173*
X01544Y01733*
X0154Y01738*
X01539Y01739*
X01538Y01742*
X01536Y01745*
X01535Y01747*
X01534Y01751*
X01533Y01758*
X01534Y01765*
X01536Y01772*
X01536Y01772*
X01539Y01778*
X01541Y0178*
X01544Y01784*
X01548Y01787*
X01549Y01788*
X0155Y01788*
X01555Y01791*
X01558Y01792*
X01562Y01793*
X01565Y01794*
X01567Y01794*
X01571*
X01573Y01794*
G37*
G36*
X02372D02*
X02375Y01793D01*
X02379Y01792*
X02382Y01791*
X02387Y01788*
X02388Y01788*
X02389Y01787*
X02393Y01784*
X02396Y0178*
X02398Y01778*
X02401Y01772*
X02401Y01772*
X02403Y01765*
X02404Y01758*
X02403Y01751*
X02402Y01747*
X02401Y01745*
X02399Y01742*
X02398Y01739*
X02397Y01738*
X02393Y01733*
X02389Y0173*
X02388Y01729*
X02382Y01726*
X02379Y01725*
X02375Y01723*
X02372Y01723*
X0237Y01723*
X02366*
X02364Y01723*
X02361Y01723*
X02357Y01725*
X02354Y01726*
X02348Y01729*
X02347Y0173*
X02343Y01733*
X02339Y01738*
X02338Y01739*
X02337Y01742*
X02335Y01745*
X02334Y01747*
X02333Y01751*
X02332Y01758*
X02333Y01765*
X02335Y01772*
X02335Y01772*
X02338Y01778*
X0234Y0178*
X02343Y01784*
X02347Y01787*
X02348Y01788*
X02349Y01788*
X02354Y01791*
X02357Y01792*
X02361Y01793*
X02364Y01794*
X02366Y01794*
X0237*
X02372Y01794*
G37*
G36*
X01683Y01815D02*
X01685Y01815D01*
X01686Y01814*
X01687Y01813*
X01688Y01812*
X01689Y01811*
X01689Y01809*
X0169Y01807*
Y01778*
X01689Y01777*
X01689Y01775*
X01688Y01774*
X01687Y01773*
X01686Y01772*
X01685Y01771*
X01683Y0177*
X01682Y0177*
X01656*
X01655Y0177*
X01653Y01771*
X01652Y01772*
X01651Y01773*
X0165Y01774*
X01649Y01775*
X01648Y01777*
X01648Y01778*
Y01807*
X01648Y01809*
X01649Y01811*
X0165Y01812*
X01651Y01813*
X01652Y01814*
X01653Y01815*
X01655Y01815*
X01656Y01816*
X01682*
X01683Y01815*
G37*
G36*
X01803Y01819D02*
X01804Y01819D01*
X01806Y01818*
X01807Y01817*
X01808Y01816*
X01809Y01814*
X01809Y01813*
X0181Y01811*
Y01785*
X01809Y01783*
X01809Y01781*
X01808Y0178*
X01807Y01779*
X01806Y01778*
X01804Y01777*
X01803Y01776*
X01801Y01776*
X01743*
X01741Y01776*
X0174Y01777*
X01738Y01778*
X01737Y01779*
X01736Y0178*
X01735Y01781*
X01735Y01783*
X01735Y01785*
Y01811*
X01735Y01813*
X01735Y01814*
X01736Y01816*
X01737Y01817*
X01738Y01818*
X0174Y01819*
X01741Y01819*
X01743Y0182*
X01801*
X01803Y01819*
G37*
G36*
X02195D02*
X02197Y01819D01*
X02199Y01818*
X022Y01817*
X02201Y01816*
X02202Y01814*
X02202Y01813*
X02202Y01811*
Y01785*
X02202Y01783*
X02202Y01781*
X02201Y0178*
X022Y01779*
X02199Y01778*
X02197Y01777*
X02195Y01776*
X02194Y01776*
X02136*
X02134Y01776*
X02133Y01777*
X02131Y01778*
X0213Y01779*
X02129Y0178*
X02128Y01781*
X02128Y01783*
X02127Y01785*
Y01811*
X02128Y01813*
X02128Y01814*
X02129Y01816*
X0213Y01817*
X02131Y01818*
X02133Y01819*
X02134Y01819*
X02136Y0182*
X02194*
X02195Y01819*
G37*
G36*
X02372Y01894D02*
X02375Y01893D01*
X02379Y01892*
X02382Y01891*
X02385Y0189*
X02388Y01888*
X02389Y01887*
X02393Y01884*
X02396Y0188*
X02398Y01878*
X02401Y01872*
X02403Y01865*
X02404Y01858*
X02403Y01851*
X02402Y01847*
X02401Y01845*
X02398Y01839*
X02398Y01839*
X02396Y01837*
X02393Y01833*
X02389Y0183*
X02388Y01829*
X02382Y01826*
X02379Y01825*
X02375Y01823*
X02372Y01823*
X0237Y01823*
X02366*
X02364Y01823*
X02361Y01823*
X02357Y01825*
X02354Y01826*
X02348Y01829*
X02347Y0183*
X02343Y01833*
X02339Y01837*
X02338Y01839*
X02338Y01839*
X02335Y01845*
X02334Y01847*
X02333Y01851*
X02332Y01858*
X02333Y01865*
X02335Y01872*
X02338Y01878*
X02339Y0188*
X02343Y01884*
X02347Y01887*
X02348Y01888*
X02351Y0189*
X02354Y01891*
X02357Y01892*
X02361Y01893*
X02364Y01894*
X02366Y01894*
X0237*
X02372Y01894*
G37*
G36*
X01573D02*
X01576Y01893D01*
X0158Y01892*
X01583Y01891*
X01586Y0189*
X01589Y01888*
X0159Y01887*
X01594Y01884*
X01597Y0188*
X01599Y01878*
X01602Y01872*
X01604Y01865*
X01605Y01858*
X01604Y01851*
X01603Y01847*
X01602Y01845*
X01599Y01839*
X01599Y01839*
X01597Y01837*
X01594Y01833*
X0159Y0183*
X01589Y01829*
X01583Y01826*
X0158Y01825*
X01576Y01823*
X01573Y01823*
X01571Y01823*
X01567*
X01565Y01823*
X01562Y01823*
X01558Y01825*
X01555Y01826*
X01549Y01829*
X01548Y0183*
X01544Y01833*
X0154Y01837*
X01539Y01839*
X01539Y01839*
X01536Y01845*
X01535Y01847*
X01534Y01851*
X01533Y01858*
X01534Y01865*
X01536Y01872*
X01539Y01878*
X0154Y0188*
X01544Y01884*
X01548Y01887*
X01549Y01888*
X01552Y0189*
X01555Y01891*
X01558Y01892*
X01562Y01893*
X01565Y01894*
X01567Y01894*
X01571*
X01573Y01894*
G37*
G36*
X02195Y01898D02*
X02197Y01898D01*
X02199Y01897*
X022Y01896*
X02201Y01895*
X02202Y01893*
X02202Y01891*
X02202Y0189*
Y01863*
X02202Y01862*
X02202Y0186*
X02201Y01859*
X022Y01857*
X02199Y01856*
X02197Y01856*
X02195Y01855*
X02194Y01855*
X02136*
X02134Y01855*
X02133Y01856*
X02131Y01856*
X0213Y01857*
X02129Y01859*
X02128Y0186*
X02128Y01862*
X02127Y01863*
Y0189*
X02128Y01891*
X02128Y01893*
X02129Y01895*
X0213Y01896*
X02131Y01897*
X02133Y01898*
X02134Y01898*
X02136Y01898*
X02194*
X02195Y01898*
G37*
G36*
X01803D02*
X01804Y01898D01*
X01806Y01897*
X01807Y01896*
X01808Y01895*
X01809Y01893*
X01809Y01891*
X0181Y0189*
Y01863*
X01809Y01862*
X01809Y0186*
X01808Y01859*
X01807Y01857*
X01806Y01856*
X01804Y01856*
X01803Y01855*
X01801Y01855*
X01743*
X01741Y01855*
X0174Y01856*
X01738Y01856*
X01737Y01857*
X01736Y01859*
X01735Y0186*
X01735Y01862*
X01735Y01863*
Y0189*
X01735Y01891*
X01735Y01893*
X01736Y01895*
X01737Y01896*
X01738Y01897*
X0174Y01898*
X01741Y01898*
X01743Y01898*
X01801*
X01803Y01898*
G37*
G36*
X01573Y01993D02*
X01576Y01992D01*
X0158Y01991*
X01583Y0199*
X01588Y01987*
X01589Y01987*
X0159Y01986*
X01594Y01983*
X01597Y01979*
X01599Y01977*
X01602Y01971*
X01602Y01969*
X01604Y01965*
X01605Y01958*
X01604Y01951*
X01603Y01948*
X01602Y01945*
X01599Y0194*
X01599Y01939*
X01598Y01937*
X01594Y01933*
X0159Y0193*
X01589Y01929*
X01583Y01926*
X0158Y01925*
X01576Y01923*
X01573Y01923*
X01571Y01923*
X01567*
X01565Y01923*
X01562Y01923*
X01558Y01925*
X01555Y01926*
X01549Y01929*
X01548Y0193*
X01544Y01933*
X0154Y01937*
X01539Y01939*
X01538Y0194*
X01536Y01945*
X01535Y01948*
X01534Y01951*
X01533Y01958*
X01534Y01965*
X01535Y01969*
X01536Y01971*
X01539Y01977*
X0154Y01979*
X01544Y01983*
X01548Y01986*
X01549Y01987*
X0155Y01987*
X01555Y0199*
X01558Y01991*
X01562Y01992*
X01565Y01993*
X01567Y01993*
X01571*
X01573Y01993*
G37*
G36*
X02372D02*
X02375Y01992D01*
X02379Y01991*
X02382Y0199*
X02387Y01987*
X02388Y01987*
X02389Y01986*
X02393Y01983*
X02396Y01979*
X02398Y01977*
X02401Y01971*
X02401Y01969*
X02403Y01965*
X02404Y01958*
X02403Y01951*
X02402Y01948*
X02401Y01945*
X02398Y0194*
X02398Y01939*
X02397Y01937*
X02393Y01933*
X02389Y0193*
X02388Y01929*
X02382Y01926*
X02379Y01925*
X02375Y01923*
X02372Y01923*
X0237Y01923*
X02366*
X02364Y01923*
X02361Y01923*
X02357Y01925*
X02354Y01926*
X02348Y01929*
X02347Y0193*
X02343Y01933*
X02339Y01937*
X02338Y01939*
X02337Y0194*
X02335Y01945*
X02334Y01948*
X02333Y01951*
X02332Y01958*
X02333Y01965*
X02334Y01969*
X02335Y01971*
X02338Y01977*
X02339Y01979*
X02343Y01983*
X02347Y01986*
X02348Y01987*
X02349Y01987*
X02354Y0199*
X02357Y01991*
X02361Y01992*
X02364Y01993*
X02366Y01993*
X0237*
X02372Y01993*
G37*
G36*
X02195Y01976D02*
X02197Y01975D01*
X02199Y01975*
X022Y01974*
X02201Y01972*
X02202Y01971*
X02202Y01969*
X02202Y01968*
Y01942*
X02202Y0194*
X02202Y01939*
X02201Y01937*
X022Y01936*
X02199Y01935*
X02197Y01934*
X02195Y01934*
X02194Y01934*
X02136*
X02134Y01934*
X02133Y01934*
X02131Y01935*
X0213Y01936*
X02129Y01937*
X02128Y01939*
X02128Y0194*
X02127Y01942*
Y01968*
X02128Y01969*
X02128Y01971*
X02129Y01972*
X0213Y01974*
X02131Y01975*
X02133Y01975*
X02134Y01976*
X02136Y01976*
X02194*
X02195Y01976*
G37*
G36*
X01803D02*
X01804Y01975D01*
X01806Y01975*
X01807Y01974*
X01808Y01972*
X01809Y01971*
X01809Y01969*
X0181Y01968*
Y01942*
X01809Y0194*
X01809Y01939*
X01808Y01937*
X01807Y01936*
X01806Y01935*
X01804Y01934*
X01803Y01934*
X01801Y01934*
X01743*
X01741Y01934*
X0174Y01934*
X01738Y01935*
X01737Y01936*
X01736Y01937*
X01735Y01939*
X01735Y0194*
X01735Y01942*
Y01968*
X01735Y01969*
X01735Y01971*
X01736Y01972*
X01737Y01974*
X01738Y01975*
X0174Y01975*
X01741Y01976*
X01743Y01976*
X01801*
X01803Y01976*
G37*
G36*
X01655Y01975D02*
X01655Y01975D01*
X01656Y01975*
X01656Y01975*
X01657Y01974*
X01658Y01974*
X01659*
X0166Y01974*
X01661Y01975*
X01661Y01975*
X01661Y01975*
X01662Y01975*
X01662Y01975*
X01674*
X01674Y01975*
X01674Y01975*
X01674*
X01675Y01975*
X01676Y01975*
X01677Y01975*
X01678Y01974*
X01679Y01974*
X0168Y01973*
X0168Y01973*
X0168Y01973*
X01681Y01973*
X01681Y01972*
X01682Y01971*
X01682Y0197*
X01683Y0197*
X01683Y01969*
X01684Y01968*
X01684Y01968*
X01684Y01967*
Y01967*
X01684Y01966*
X01684Y01966*
Y01951*
X01684Y01951*
X01684Y0195*
Y0195*
X01684Y01949*
X01684Y01948*
X01683Y01947*
X01683Y01946*
X01682Y01946*
X01682Y01945*
X01682Y01944*
X01682Y01944*
X01681Y01944*
X01681Y01943*
X0168Y01943*
X0168Y01943*
X0168Y01943*
X01679Y01942*
X01678Y01942*
X01677Y01941*
X01676Y01941*
X01675Y01941*
X01674Y01941*
X01674*
X01674Y01941*
X01674Y01941*
X01662*
X01662Y01941*
X01661Y01941*
X01661Y01941*
X0166Y01941*
X0166Y01942*
X01659Y01942*
X01658*
X01657Y01942*
X01656Y01941*
X01656Y01941*
X01655Y01941*
X01655Y01941*
X01654Y01941*
X01643*
X01643Y01941*
X01642Y01941*
X01642*
X01641Y01941*
X0164Y01941*
X01639Y01941*
X01638Y01942*
X01637Y01942*
X01637Y01943*
X01636Y01943*
X01636Y01943*
X01636Y01943*
X01635Y01944*
X01635Y01945*
X01634Y01946*
X01634Y01946*
X01633Y01947*
X01633Y01948*
X01633Y01949*
X01633Y0195*
Y0195*
X01633Y01951*
X01633Y01951*
Y01966*
X01633Y01966*
X01633Y01967*
Y01967*
X01633Y01968*
X01633Y01968*
X01633Y01969*
X01634Y0197*
X01634Y0197*
X01635Y01971*
X01635Y01972*
X01636Y01973*
X01636Y01973*
X01636Y01973*
X01637Y01973*
X01637Y01974*
X01638Y01974*
X01639Y01975*
X0164Y01975*
X01641Y01975*
X01642Y01975*
X01642*
X01643Y01975*
X01643Y01975*
X01654*
X01655Y01975*
G37*
G36*
X01604Y02022D02*
X01533D01*
Y02093*
X01604*
Y02022*
G37*
G36*
X02403D02*
X02332D01*
Y02093*
X02403*
Y02022*
G37*
G36*
X02233Y02027D02*
X02143D01*
Y02072*
X02233*
Y02027*
G37*
G36*
X02074Y02072D02*
X02075Y02072D01*
X02076Y02071*
X02076Y02071*
X02077Y0207*
X02077Y02069*
X02077Y02068*
X02078Y02067*
Y02049*
X02077Y02048*
X02077Y02047*
X02077Y02047*
X02076Y02046*
X02076Y02045*
X02075Y02045*
X02074Y02045*
X02073Y02045*
X02053*
X02052Y02045*
X02051Y02045*
X0205Y02045*
X0205Y02046*
X02049Y02047*
X02049Y02047*
X02048Y02048*
X02048Y02049*
Y02067*
X02048Y02068*
X02049Y02069*
X02049Y0207*
X0205Y02071*
X0205Y02071*
X02051Y02072*
X02052Y02072*
X02053Y02072*
X02073*
X02074Y02072*
G37*
G36*
X01955D02*
X01956Y02072D01*
X01957Y02071*
X01957Y02071*
X01958Y0207*
X01958Y02069*
X01958Y02068*
X01959Y02067*
Y02049*
X01958Y02048*
X01958Y02047*
X01958Y02047*
X01957Y02046*
X01957Y02045*
X01956Y02045*
X01955Y02045*
X01954Y02045*
X01934*
X01933Y02045*
X01932Y02045*
X01931Y02045*
X01931Y02046*
X0193Y02047*
X0193Y02047*
X01929Y02048*
X01929Y02049*
Y02067*
X01929Y02068*
X0193Y02069*
X0193Y0207*
X01931Y02071*
X01931Y02071*
X01932Y02072*
X01933Y02072*
X01934Y02072*
X01954*
X01955Y02072*
G37*
G36*
X02074Y0211D02*
X02075Y0211D01*
X02076Y02109*
X02076Y02109*
X02077Y02108*
X02077Y02107*
X02077Y02107*
X02078Y02106*
Y02088*
X02077Y02086*
X02077Y02086*
X02077Y02085*
X02076Y02084*
X02076Y02084*
X02075Y02083*
X02074Y02083*
X02073Y02083*
X02053*
X02052Y02083*
X02051Y02083*
X0205Y02084*
X0205Y02084*
X02049Y02085*
X02049Y02086*
X02048Y02086*
X02048Y02088*
Y02106*
X02048Y02107*
X02049Y02107*
X02049Y02108*
X0205Y02109*
X0205Y02109*
X02051Y0211*
X02052Y0211*
X02053Y0211*
X02073*
X02074Y0211*
G37*
G36*
X01955D02*
X01956Y0211D01*
X01957Y02109*
X01957Y02109*
X01958Y02108*
X01958Y02107*
X01958Y02107*
X01959Y02106*
Y02088*
X01958Y02086*
X01958Y02086*
X01958Y02085*
X01957Y02084*
X01957Y02084*
X01956Y02083*
X01955Y02083*
X01954Y02083*
X01934*
X01933Y02083*
X01932Y02083*
X01931Y02084*
X01931Y02084*
X0193Y02085*
X0193Y02086*
X01929Y02086*
X01929Y02088*
Y02106*
X01929Y02107*
X0193Y02107*
X0193Y02108*
X01931Y02109*
X01931Y02109*
X01932Y0211*
X01933Y0211*
X01934Y0211*
X01954*
X01955Y0211*
G37*
G36*
X02269Y02086D02*
X02225D01*
Y02129*
X02269*
Y02086*
G37*
G36*
X02121Y02193D02*
X02121Y02193D01*
X02121*
X02122Y02193*
X02123Y02193*
X02124Y02193*
X02125Y02192*
X02126Y02192*
X02127Y02191*
X02127Y02191*
X02127Y02191*
X02128Y02191*
X02128Y0219*
X02129Y02189*
X02129Y02188*
X0213Y02187*
X0213Y02186*
X02131Y02186*
X02131Y02185*
X02131Y02184*
Y02184*
X02131Y02183*
X02131Y02183*
Y02172*
X02131Y02171*
X02131Y02171*
X0213Y0217*
X0213Y0217*
X0213Y02169*
X0213Y02168*
Y02167*
X0213Y02166*
X0213Y02165*
X0213Y02165*
X02131Y02164*
X02131Y02164*
X02131Y02163*
Y02152*
X02131Y02152*
X02131Y02151*
Y02151*
X02131Y0215*
X0213Y02149*
X0213Y02148*
X0213Y02147*
X02129Y02146*
X02129Y02145*
X02129Y02144*
X0213Y02143*
X0213Y02143*
X02131Y02139*
Y02136*
X02131Y02135*
X0213Y02134*
X02131Y02133*
X02131Y02132*
X02131Y02131*
X02132Y02131*
X02133Y0213*
X02134Y0213*
X02134Y02129*
X02135Y02129*
X02151*
Y02086*
X02107*
Y02117*
X02107Y02118*
X02107Y02119*
X02106Y0212*
X02106Y02121*
X02105Y02121*
X02105Y02121*
X02105Y02122*
X02102Y02124*
X02099Y02126*
X02097Y02129*
X02097Y02129*
X02096Y02132*
X02095Y02136*
Y02139*
X02096Y02143*
X02096Y02143*
X02097Y02144*
X02097Y02145*
X02097Y02146*
X02096Y02147*
X02096Y02148*
X02095Y02149*
X02095Y0215*
X02095Y02151*
Y02151*
X02095Y02152*
X02095Y02152*
Y02163*
X02095Y02164*
X02095Y02164*
X02096Y02165*
X02096Y02165*
X02096Y02166*
X02096Y02167*
Y02168*
X02096Y02169*
X02096Y0217*
X02096Y0217*
X02095Y02171*
X02095Y02171*
X02095Y02172*
Y02183*
X02095Y02183*
X02095Y02184*
Y02184*
X02095Y02185*
X02096Y02186*
X02096Y02186*
X02096Y02187*
X02097Y02188*
X02097Y02189*
X02098Y0219*
X02099Y02191*
X02099Y02191*
X02099Y02191*
X02099Y02191*
X021Y02192*
X02101Y02192*
X02102Y02193*
X02103Y02193*
X02104Y02193*
X02105Y02193*
X02105*
X02105Y02193*
X02105Y02193*
X02121*
X02121Y02193*
G37*
G36*
X01995Y02122D02*
X01996Y02122D01*
X01996Y02121*
X01997Y02121*
X01998Y0212*
X01998Y02119*
X01998Y02119*
X01998Y02117*
Y02097*
X01998Y02096*
X01998Y02096*
X01998Y02095*
X01997Y02094*
X01996Y02094*
X01996Y02093*
X01995Y02093*
X01994Y02093*
X01976*
X01975Y02093*
X01974Y02093*
X01973Y02094*
X01972Y02094*
X01972Y02095*
X01971Y02096*
X01971Y02096*
X01971Y02097*
Y02117*
X01971Y02119*
X01971Y02119*
X01972Y0212*
X01972Y02121*
X01973Y02121*
X01974Y02122*
X01975Y02122*
X01976Y02122*
X01994*
X01995Y02122*
G37*
G36*
X02033D02*
X02034Y02122D01*
X02035Y02121*
X02035Y02121*
X02036Y0212*
X02036Y02119*
X02036Y02119*
X02037Y02117*
Y02097*
X02036Y02096*
X02036Y02096*
X02036Y02095*
X02035Y02094*
X02035Y02094*
X02034Y02093*
X02033Y02093*
X02032Y02093*
X02014*
X02013Y02093*
X02012Y02093*
X02011Y02094*
X02011Y02094*
X0201Y02095*
X0201Y02096*
X02009Y02096*
X02009Y02097*
Y02117*
X02009Y02119*
X0201Y02119*
X0201Y0212*
X02011Y02121*
X02011Y02121*
X02012Y02122*
X02013Y02122*
X02014Y02122*
X02032*
X02033Y02122*
G37*
G36*
X02233Y02143D02*
X02143D01*
Y02188*
X02233*
Y02143*
G37*
G36*
X03648Y01594D02*
X03651Y01593D01*
X03655Y01592*
X03657Y01591*
X03663Y01588*
X03664Y01588*
X03665Y01587*
X03669Y01584*
X03672Y0158*
X03673Y01578*
X03677Y01572*
X03679Y01565*
X03679Y01558*
X03679Y01551*
X03677Y01547*
X03677Y01545*
X03676Y01543*
X03673Y01539*
X03672Y01537*
X03669Y01533*
X03665Y0153*
X03664Y01529*
X03657Y01526*
X03655Y01525*
X03651Y01523*
X03648Y01523*
X03646Y01523*
X03642*
X03639Y01523*
X03637Y01523*
X03632Y01525*
X0363Y01526*
X03624Y01529*
X03623Y0153*
X03619Y01533*
X03615Y01537*
X03614Y01539*
X03612Y01543*
X03611Y01545*
X0361Y01547*
X03609Y01551*
X03608Y01558*
X03609Y01565*
X03611Y01572*
X03614Y01578*
X03616Y0158*
X03619Y01584*
X03623Y01587*
X03624Y01588*
X03625Y01588*
X0363Y01591*
X03632Y01592*
X03637Y01593*
X03639Y01594*
X03642Y01594*
X03646*
X03648Y01594*
G37*
G36*
X02848D02*
X02851Y01593D01*
X02855Y01592*
X02857Y01591*
X02863Y01588*
X02864Y01588*
X02865Y01587*
X02869Y01584*
X02872Y0158*
X02873Y01578*
X02877Y01572*
X02879Y01565*
X02879Y01558*
X02879Y01551*
X02877Y01547*
X02877Y01545*
X02876Y01543*
X02873Y01539*
X02872Y01537*
X02869Y01533*
X02865Y0153*
X02864Y01529*
X02857Y01526*
X02855Y01525*
X02851Y01523*
X02848Y01523*
X02846Y01523*
X02842*
X02839Y01523*
X02837Y01523*
X02832Y01525*
X0283Y01526*
X02824Y01529*
X02823Y0153*
X02819Y01533*
X02815Y01537*
X02814Y01539*
X02812Y01543*
X02811Y01545*
X0281Y01547*
X02809Y01551*
X02808Y01558*
X02809Y01565*
X02811Y01572*
X02814Y01578*
X02816Y0158*
X02819Y01584*
X02823Y01587*
X02824Y01588*
X02825Y01588*
X0283Y01591*
X02832Y01592*
X02837Y01593*
X02839Y01594*
X02842Y01594*
X02846*
X02848Y01594*
G37*
G36*
X03471Y01583D02*
X03473Y01583D01*
X03474Y01582*
X03476Y01581*
X03477Y0158*
X03477Y01578*
X03478Y01577*
X03478Y01575*
Y01549*
X03478Y01547*
X03477Y01545*
X03477Y01544*
X03476Y01542*
X03474Y01541*
X03473Y01541*
X03471Y0154*
X03469Y0154*
X03412*
X0341Y0154*
X03408Y01541*
X03407Y01541*
X03406Y01542*
X03405Y01544*
X03404Y01545*
X03403Y01547*
X03403Y01549*
Y01575*
X03403Y01577*
X03404Y01578*
X03405Y0158*
X03406Y01581*
X03407Y01582*
X03408Y01583*
X0341Y01583*
X03412Y01583*
X03469*
X03471Y01583*
G37*
G36*
X03078D02*
X03079Y01583D01*
X03081Y01582*
X03082Y01581*
X03083Y0158*
X03084Y01578*
X03084Y01577*
X03084Y01575*
Y01549*
X03084Y01547*
X03084Y01545*
X03083Y01544*
X03082Y01542*
X03081Y01541*
X03079Y01541*
X03078Y0154*
X03076Y0154*
X03018*
X03016Y0154*
X03015Y01541*
X03013Y01541*
X03012Y01542*
X03011Y01544*
X0301Y01545*
X0301Y01547*
X0301Y01549*
Y01575*
X0301Y01577*
X0301Y01578*
X03011Y0158*
X03012Y01581*
X03013Y01582*
X03015Y01583*
X03016Y01583*
X03018Y01583*
X03076*
X03078Y01583*
G37*
G36*
X03471Y01662D02*
X03473Y01661D01*
X03474Y01661*
X03476Y0166*
X03477Y01658*
X03477Y01657*
X03478Y01655*
X03478Y01653*
Y01627*
X03478Y01625*
X03477Y01624*
X03477Y01622*
X03476Y01621*
X03474Y0162*
X03473Y01619*
X03471Y01619*
X03469Y01619*
X03412*
X0341Y01619*
X03408Y01619*
X03407Y0162*
X03406Y01621*
X03405Y01622*
X03404Y01624*
X03403Y01625*
X03403Y01627*
Y01653*
X03403Y01655*
X03404Y01657*
X03405Y01658*
X03406Y0166*
X03407Y01661*
X03408Y01661*
X0341Y01662*
X03412Y01662*
X03469*
X03471Y01662*
G37*
G36*
X03078D02*
X03079Y01661D01*
X03081Y01661*
X03082Y0166*
X03083Y01658*
X03084Y01657*
X03084Y01655*
X03084Y01653*
Y01627*
X03084Y01625*
X03084Y01624*
X03083Y01622*
X03082Y01621*
X03081Y0162*
X03079Y01619*
X03078Y01619*
X03076Y01619*
X03018*
X03016Y01619*
X03015Y01619*
X03013Y0162*
X03012Y01621*
X03011Y01622*
X0301Y01624*
X0301Y01625*
X0301Y01627*
Y01653*
X0301Y01655*
X0301Y01657*
X03011Y01658*
X03012Y0166*
X03013Y01661*
X03015Y01661*
X03016Y01662*
X03018Y01662*
X03076*
X03078Y01662*
G37*
G36*
X02848Y01694D02*
X02851Y01693D01*
X02855Y01692*
X02857Y01691*
X02863Y01688*
X02864Y01688*
X02865Y01687*
X02869Y01684*
X02872Y0168*
X02873Y01678*
X02877Y01672*
X02879Y01665*
X02879Y01658*
X02879Y01651*
X02877Y01647*
X02877Y01645*
X02874Y01639*
X02873Y01639*
X02872Y01637*
X02869Y01633*
X02865Y0163*
X02864Y01629*
X02857Y01626*
X02857Y01625*
X02851Y01623*
X02848Y01623*
X02846Y01623*
X02842*
X02839Y01623*
X02837Y01623*
X02831Y01625*
X0283Y01626*
X02824Y01629*
X02823Y0163*
X02819Y01633*
X02815Y01637*
X02814Y01639*
X02814Y01639*
X02811Y01645*
X0281Y01647*
X02809Y01651*
X02808Y01658*
X02809Y01665*
X02811Y01672*
X02814Y01678*
X02815Y0168*
X02819Y01684*
X02823Y01687*
X02824Y01688*
X02825Y01688*
X0283Y01691*
X02832Y01692*
X02837Y01693*
X02839Y01694*
X02842Y01694*
X02846*
X02848Y01694*
G37*
G36*
X03648D02*
X03651Y01693D01*
X03655Y01692*
X03657Y01691*
X03663Y01688*
X03664Y01688*
X03665Y01687*
X03669Y01684*
X03672Y0168*
X03673Y01678*
X03677Y01672*
X03679Y01665*
X03679Y01658*
X03679Y01651*
X03677Y01647*
X03677Y01645*
X03674Y01639*
X03673Y01639*
X03672Y01637*
X03669Y01633*
X03665Y0163*
X03664Y01629*
X03657Y01626*
X03657Y01625*
X03651Y01623*
X03648Y01623*
X03646Y01623*
X03642*
X03639Y01623*
X03637Y01623*
X03631Y01625*
X0363Y01626*
X03624Y01629*
X03623Y0163*
X03619Y01633*
X03615Y01637*
X03614Y01639*
X03614Y01639*
X03611Y01645*
X0361Y01647*
X03609Y01651*
X03608Y01658*
X03609Y01665*
X03611Y01672*
X03614Y01678*
X03615Y0168*
X03619Y01684*
X03623Y01687*
X03624Y01688*
X03625Y01688*
X0363Y01691*
X03632Y01692*
X03637Y01693*
X03639Y01694*
X03642Y01694*
X03646*
X03648Y01694*
G37*
G36*
X03078Y01741D02*
X03079Y0174D01*
X03081Y01739*
X03082Y01738*
X03083Y01737*
X03084Y01736*
X03084Y01734*
X03084Y01732*
Y01706*
X03084Y01704*
X03084Y01703*
X03083Y01701*
X03082Y017*
X03081Y01699*
X03079Y01698*
X03078Y01698*
X03076Y01697*
X03018*
X03016Y01698*
X03015Y01698*
X03013Y01699*
X03012Y017*
X03011Y01701*
X0301Y01703*
X0301Y01704*
X0301Y01706*
Y01732*
X0301Y01734*
X0301Y01736*
X03011Y01737*
X03012Y01738*
X03013Y01739*
X03015Y0174*
X03016Y01741*
X03018Y01741*
X03076*
X03078Y01741*
G37*
G36*
X03471D02*
X03473Y0174D01*
X03474Y01739*
X03476Y01738*
X03477Y01737*
X03477Y01736*
X03478Y01734*
X03478Y01732*
Y01706*
X03478Y01704*
X03477Y01703*
X03477Y01701*
X03476Y017*
X03474Y01699*
X03473Y01698*
X03471Y01698*
X03469Y01697*
X03412*
X0341Y01698*
X03408Y01698*
X03407Y01699*
X03406Y017*
X03405Y01701*
X03404Y01703*
X03403Y01704*
X03403Y01706*
Y01732*
X03403Y01734*
X03404Y01736*
X03405Y01737*
X03406Y01738*
X03407Y01739*
X03408Y0174*
X0341Y01741*
X03412Y01741*
X03469*
X03471Y01741*
G37*
G36*
X02958Y01747D02*
X0296Y01746D01*
X02961Y01745*
X02962Y01744*
X02963Y01743*
X02964Y01742*
X02964Y0174*
X02965Y01739*
Y01709*
X02964Y01708*
X02964Y01706*
X02963Y01705*
X02962Y01704*
X02961Y01703*
X0296Y01702*
X02958Y01701*
X02956Y01701*
X02931*
X02929Y01701*
X02928Y01702*
X02927Y01703*
X02925Y01704*
X02924Y01705*
X02924Y01706*
X02923Y01708*
X02923Y01709*
Y01739*
X02923Y0174*
X02924Y01742*
X02924Y01743*
X02925Y01744*
X02927Y01745*
X02928Y01746*
X02929Y01747*
X02931Y01747*
X02956*
X02958Y01747*
G37*
G36*
X02848Y01794D02*
X02851Y01793D01*
X02855Y01792*
X02857Y01791*
X02863Y01788*
X02864Y01788*
X02865Y01787*
X02869Y01784*
X02872Y0178*
X02873Y01778*
X02877Y01772*
X02877Y01772*
X02879Y01765*
X02879Y01758*
X02879Y01751*
X02877Y01747*
X02877Y01745*
X02875Y01742*
X02873Y01739*
X02873Y01738*
X02869Y01733*
X02865Y0173*
X02864Y01729*
X02857Y01726*
X02855Y01725*
X02851Y01723*
X02848Y01723*
X02846Y01723*
X02842*
X02839Y01723*
X02837Y01723*
X02832Y01725*
X0283Y01726*
X02824Y01729*
X02823Y0173*
X02819Y01733*
X02814Y01738*
X02814Y01739*
X02812Y01742*
X02811Y01745*
X0281Y01747*
X02809Y01751*
X02808Y01758*
X02809Y01765*
X02811Y01772*
X02811Y01772*
X02814Y01778*
X02815Y0178*
X02819Y01784*
X02823Y01787*
X02824Y01788*
X02825Y01788*
X0283Y01791*
X02832Y01792*
X02837Y01793*
X02839Y01794*
X02842Y01794*
X02846*
X02848Y01794*
G37*
G36*
X03648D02*
X03651Y01793D01*
X03655Y01792*
X03657Y01791*
X03663Y01788*
X03664Y01788*
X03665Y01787*
X03669Y01784*
X03672Y0178*
X03673Y01778*
X03677Y01772*
X03677Y01772*
X03679Y01765*
X03679Y01758*
X03679Y01751*
X03677Y01747*
X03677Y01745*
X03675Y01742*
X03673Y01739*
X03673Y01738*
X03669Y01733*
X03665Y0173*
X03664Y01729*
X03657Y01726*
X03655Y01725*
X03651Y01723*
X03648Y01723*
X03646Y01723*
X03642*
X03639Y01723*
X03637Y01723*
X03632Y01725*
X0363Y01726*
X03624Y01729*
X03623Y0173*
X03619Y01733*
X03614Y01738*
X03614Y01739*
X03612Y01742*
X03611Y01745*
X0361Y01747*
X03609Y01751*
X03608Y01758*
X03609Y01765*
X03611Y01772*
X03611Y01772*
X03614Y01778*
X03615Y0178*
X03619Y01784*
X03623Y01787*
X03624Y01788*
X03625Y01788*
X0363Y01791*
X03632Y01792*
X03637Y01793*
X03639Y01794*
X03642Y01794*
X03646*
X03648Y01794*
G37*
G36*
X02958Y01815D02*
X0296Y01815D01*
X02961Y01814*
X02962Y01813*
X02963Y01812*
X02964Y01811*
X02964Y01809*
X02965Y01807*
Y01778*
X02964Y01777*
X02964Y01775*
X02963Y01774*
X02962Y01773*
X02961Y01772*
X0296Y01771*
X02958Y0177*
X02956Y0177*
X02931*
X02929Y0177*
X02928Y01771*
X02927Y01772*
X02925Y01773*
X02924Y01774*
X02924Y01775*
X02923Y01777*
X02923Y01778*
Y01807*
X02923Y01809*
X02924Y01811*
X02924Y01812*
X02925Y01813*
X02927Y01814*
X02928Y01815*
X02929Y01815*
X02931Y01816*
X02956*
X02958Y01815*
G37*
G36*
X03078Y01819D02*
X03079Y01819D01*
X03081Y01818*
X03082Y01817*
X03083Y01816*
X03084Y01814*
X03084Y01813*
X03084Y01811*
Y01785*
X03084Y01783*
X03084Y01781*
X03083Y0178*
X03082Y01779*
X03081Y01778*
X03079Y01777*
X03078Y01776*
X03076Y01776*
X03018*
X03016Y01776*
X03015Y01777*
X03013Y01778*
X03012Y01779*
X03011Y0178*
X0301Y01781*
X0301Y01783*
X0301Y01785*
Y01811*
X0301Y01813*
X0301Y01814*
X03011Y01816*
X03012Y01817*
X03013Y01818*
X03015Y01819*
X03016Y01819*
X03018Y0182*
X03076*
X03078Y01819*
G37*
G36*
X03471D02*
X03473Y01819D01*
X03474Y01818*
X03476Y01817*
X03477Y01816*
X03477Y01814*
X03478Y01813*
X03478Y01811*
Y01785*
X03478Y01783*
X03477Y01781*
X03477Y0178*
X03476Y01779*
X03474Y01778*
X03473Y01777*
X03471Y01776*
X03469Y01776*
X03412*
X0341Y01776*
X03408Y01777*
X03407Y01778*
X03406Y01779*
X03405Y0178*
X03404Y01781*
X03403Y01783*
X03403Y01785*
Y01811*
X03403Y01813*
X03404Y01814*
X03405Y01816*
X03406Y01817*
X03407Y01818*
X03408Y01819*
X0341Y01819*
X03412Y0182*
X03469*
X03471Y01819*
G37*
G36*
X03648Y01894D02*
X03651Y01893D01*
X03655Y01892*
X03657Y01891*
X03661Y0189*
X03664Y01888*
X03664Y01887*
X03669Y01884*
X03672Y0188*
X03673Y01878*
X03677Y01872*
X03679Y01865*
X03679Y01858*
X03679Y01851*
X03677Y01847*
X03677Y01845*
X03674Y01839*
X03673Y01839*
X03672Y01837*
X03669Y01833*
X03665Y0183*
X03664Y01829*
X03657Y01826*
X03655Y01825*
X03651Y01823*
X03648Y01823*
X03646Y01823*
X03642*
X03639Y01823*
X03637Y01823*
X03632Y01825*
X0363Y01826*
X03624Y01829*
X03623Y0183*
X03619Y01833*
X03615Y01837*
X03614Y01839*
X03614Y01839*
X03611Y01845*
X0361Y01847*
X03609Y01851*
X03608Y01858*
X03609Y01865*
X03611Y01872*
X03614Y01878*
X03615Y0188*
X03619Y01884*
X03623Y01887*
X03624Y01888*
X03627Y0189*
X0363Y01891*
X03632Y01892*
X03637Y01893*
X03639Y01894*
X03642Y01894*
X03646*
X03648Y01894*
G37*
G36*
X02848D02*
X02851Y01893D01*
X02855Y01892*
X02857Y01891*
X02861Y0189*
X02864Y01888*
X02864Y01887*
X02869Y01884*
X02872Y0188*
X02873Y01878*
X02877Y01872*
X02879Y01865*
X02879Y01858*
X02879Y01851*
X02877Y01847*
X02877Y01845*
X02874Y01839*
X02873Y01839*
X02872Y01837*
X02869Y01833*
X02865Y0183*
X02864Y01829*
X02857Y01826*
X02855Y01825*
X02851Y01823*
X02848Y01823*
X02846Y01823*
X02842*
X02839Y01823*
X02837Y01823*
X02832Y01825*
X0283Y01826*
X02824Y01829*
X02823Y0183*
X02819Y01833*
X02815Y01837*
X02814Y01839*
X02814Y01839*
X02811Y01845*
X0281Y01847*
X02809Y01851*
X02808Y01858*
X02809Y01865*
X02811Y01872*
X02814Y01878*
X02815Y0188*
X02819Y01884*
X02823Y01887*
X02824Y01888*
X02827Y0189*
X0283Y01891*
X02832Y01892*
X02837Y01893*
X02839Y01894*
X02842Y01894*
X02846*
X02848Y01894*
G37*
G36*
X03471Y01898D02*
X03473Y01898D01*
X03474Y01897*
X03476Y01896*
X03477Y01895*
X03477Y01893*
X03478Y01891*
X03478Y0189*
Y01863*
X03478Y01862*
X03477Y0186*
X03477Y01859*
X03476Y01857*
X03474Y01856*
X03473Y01856*
X03471Y01855*
X03469Y01855*
X03412*
X0341Y01855*
X03408Y01856*
X03407Y01856*
X03406Y01857*
X03405Y01859*
X03404Y0186*
X03403Y01862*
X03403Y01863*
Y0189*
X03403Y01891*
X03404Y01893*
X03405Y01895*
X03406Y01896*
X03407Y01897*
X03408Y01898*
X0341Y01898*
X03412Y01898*
X03469*
X03471Y01898*
G37*
G36*
X03078D02*
X03079Y01898D01*
X03081Y01897*
X03082Y01896*
X03083Y01895*
X03084Y01893*
X03084Y01891*
X03084Y0189*
Y01863*
X03084Y01862*
X03084Y0186*
X03083Y01859*
X03082Y01857*
X03081Y01856*
X03079Y01856*
X03078Y01855*
X03076Y01855*
X03018*
X03016Y01855*
X03015Y01856*
X03013Y01856*
X03012Y01857*
X03011Y01859*
X0301Y0186*
X0301Y01862*
X0301Y01863*
Y0189*
X0301Y01891*
X0301Y01893*
X03011Y01895*
X03012Y01896*
X03013Y01897*
X03015Y01898*
X03016Y01898*
X03018Y01898*
X03076*
X03078Y01898*
G37*
G36*
X02848Y01993D02*
X02851Y01992D01*
X02855Y01991*
X02857Y0199*
X02863Y01987*
X02864Y01987*
X02865Y01986*
X02869Y01983*
X02872Y01979*
X02873Y01977*
X02877Y01971*
X02877Y01969*
X02879Y01965*
X02879Y01958*
X02879Y01951*
X02878Y01948*
X02877Y01945*
X02874Y0194*
X02873Y01939*
X02872Y01937*
X02869Y01933*
X02865Y0193*
X02864Y01929*
X02857Y01926*
X02855Y01925*
X02851Y01923*
X02848Y01923*
X02846Y01923*
X02842*
X02839Y01923*
X02837Y01923*
X02832Y01925*
X0283Y01926*
X02824Y01929*
X02823Y0193*
X02819Y01933*
X02815Y01937*
X02814Y01939*
X02813Y0194*
X02811Y01945*
X0281Y01948*
X02809Y01951*
X02808Y01958*
X02809Y01965*
X0281Y01969*
X02811Y01971*
X02814Y01977*
X02815Y01979*
X02819Y01983*
X02823Y01986*
X02824Y01987*
X02825Y01987*
X0283Y0199*
X02832Y01991*
X02837Y01992*
X02839Y01993*
X02842Y01993*
X02846*
X02848Y01993*
G37*
G36*
X03648D02*
X03651Y01992D01*
X03655Y01991*
X03657Y0199*
X03663Y01987*
X03664Y01987*
X03665Y01986*
X03669Y01983*
X03672Y01979*
X03673Y01977*
X03677Y01971*
X03677Y01969*
X03679Y01965*
X03679Y01958*
X03679Y01951*
X03678Y01948*
X03677Y01945*
X03674Y0194*
X03673Y01939*
X03672Y01937*
X03669Y01933*
X03665Y0193*
X03664Y01929*
X03657Y01926*
X03655Y01925*
X03651Y01923*
X03648Y01923*
X03646Y01923*
X03642*
X03639Y01923*
X03637Y01923*
X03632Y01925*
X0363Y01926*
X03624Y01929*
X03623Y0193*
X03619Y01933*
X03615Y01937*
X03614Y01939*
X03613Y0194*
X03611Y01945*
X0361Y01948*
X03609Y01951*
X03608Y01958*
X03609Y01965*
X0361Y01969*
X03611Y01971*
X03614Y01977*
X03615Y01979*
X03619Y01983*
X03623Y01986*
X03624Y01987*
X03625Y01987*
X0363Y0199*
X03632Y01991*
X03637Y01992*
X03639Y01993*
X03642Y01993*
X03646*
X03648Y01993*
G37*
G36*
X03471Y01976D02*
X03473Y01975D01*
X03474Y01975*
X03476Y01974*
X03477Y01972*
X03477Y01971*
X03478Y01969*
X03478Y01968*
Y01942*
X03478Y0194*
X03477Y01939*
X03477Y01937*
X03476Y01936*
X03474Y01935*
X03473Y01934*
X03471Y01934*
X03469Y01934*
X03412*
X0341Y01934*
X03408Y01934*
X03407Y01935*
X03406Y01936*
X03405Y01937*
X03404Y01939*
X03403Y0194*
X03403Y01942*
Y01968*
X03403Y01969*
X03404Y01971*
X03405Y01972*
X03406Y01974*
X03407Y01975*
X03408Y01975*
X0341Y01976*
X03412Y01976*
X03469*
X03471Y01976*
G37*
G36*
X03078D02*
X03079Y01975D01*
X03081Y01975*
X03082Y01974*
X03083Y01972*
X03084Y01971*
X03084Y01969*
X03084Y01968*
Y01942*
X03084Y0194*
X03084Y01939*
X03083Y01937*
X03082Y01936*
X03081Y01935*
X03079Y01934*
X03078Y01934*
X03076Y01934*
X03018*
X03016Y01934*
X03015Y01934*
X03013Y01935*
X03012Y01936*
X03011Y01937*
X0301Y01939*
X0301Y0194*
X0301Y01942*
Y01968*
X0301Y01969*
X0301Y01971*
X03011Y01972*
X03012Y01974*
X03013Y01975*
X03015Y01975*
X03016Y01976*
X03018Y01976*
X03076*
X03078Y01976*
G37*
G36*
X0293Y01975D02*
X0293Y01975D01*
X02931Y01975*
X02931Y01975*
X02932Y01974*
X02933Y01974*
X02934*
X02935Y01974*
X02935Y01975*
X02935Y01975*
X02936Y01975*
X02937Y01975*
X02937Y01975*
X02949*
X02949Y01975*
X02949Y01975*
X02949*
X0295Y01975*
X02951Y01975*
X02952Y01975*
X02953Y01974*
X02954Y01974*
X02955Y01973*
X02955Y01973*
X02955Y01973*
X02955Y01973*
X02956Y01972*
X02957Y01971*
X02957Y0197*
X02958Y0197*
X02958Y01969*
X02958Y01968*
X02959Y01968*
X02959Y01967*
Y01967*
X02959Y01966*
X02959Y01966*
Y01951*
X02959Y01951*
X02959Y0195*
Y0195*
X02959Y01949*
X02958Y01948*
X02958Y01947*
X02958Y01946*
X02957Y01946*
X02957Y01945*
X02957Y01944*
X02956Y01944*
X02956Y01944*
X02955Y01943*
X02955Y01943*
X02955Y01943*
X02955Y01943*
X02954Y01942*
X02953Y01942*
X02952Y01941*
X02951Y01941*
X0295Y01941*
X02949Y01941*
X02949*
X02949Y01941*
X02949Y01941*
X02937*
X02937Y01941*
X02936Y01941*
X02936Y01941*
X02935Y01941*
X02934Y01942*
X02933Y01942*
X02933*
X02932Y01942*
X02931Y01941*
X02931Y01941*
X0293Y01941*
X0293Y01941*
X02929Y01941*
X02918*
X02917Y01941*
X02917Y01941*
X02917*
X02916Y01941*
X02915Y01941*
X02914Y01941*
X02913Y01942*
X02912Y01942*
X02911Y01943*
X02911Y01943*
X02911Y01943*
X02911Y01943*
X0291Y01944*
X02909Y01945*
X02909Y01946*
X02908Y01946*
X02908Y01947*
X02908Y01948*
X02908Y01949*
X02907Y0195*
Y0195*
X02907Y01951*
X02907Y01951*
Y01966*
X02907Y01966*
X02907Y01967*
Y01967*
X02908Y01968*
X02908Y01968*
X02908Y01969*
X02908Y0197*
X02909Y0197*
X02909Y01971*
X0291Y01972*
X02911Y01973*
X02911Y01973*
X02911Y01973*
X02911Y01973*
X02912Y01974*
X02913Y01974*
X02914Y01975*
X02915Y01975*
X02916Y01975*
X02917Y01975*
X02917*
X02917Y01975*
X02918Y01975*
X02929*
X0293Y01975*
G37*
G36*
X02879Y02022D02*
X02808D01*
Y02093*
X02879*
Y02022*
G37*
G36*
X03679D02*
X03608D01*
Y02093*
X03679*
Y02022*
G37*
G36*
X03509Y02027D02*
X03418D01*
Y02072*
X03509*
Y02027*
G37*
G36*
X0335Y02072D02*
X03351Y02072D01*
X03351Y02071*
X03352Y02071*
X03353Y0207*
X03353Y02069*
X03353Y02068*
X03353Y02067*
Y02049*
X03353Y02048*
X03353Y02047*
X03353Y02047*
X03352Y02046*
X03351Y02045*
X03351Y02045*
X0335Y02045*
X03349Y02045*
X03329*
X03328Y02045*
X03327Y02045*
X03326Y02045*
X03325Y02046*
X03325Y02047*
X03325Y02047*
X03324Y02048*
X03324Y02049*
Y02067*
X03324Y02068*
X03325Y02069*
X03325Y0207*
X03325Y02071*
X03326Y02071*
X03327Y02072*
X03328Y02072*
X03329Y02072*
X03349*
X0335Y02072*
G37*
G36*
X0323D02*
X03231Y02072D01*
X03231Y02071*
X03232Y02071*
X03233Y0207*
X03233Y02069*
X03233Y02068*
X03233Y02067*
Y02049*
X03233Y02048*
X03233Y02047*
X03233Y02047*
X03232Y02046*
X03231Y02045*
X03231Y02045*
X0323Y02045*
X03229Y02045*
X03209*
X03208Y02045*
X03207Y02045*
X03206Y02045*
X03205Y02046*
X03205Y02047*
X03205Y02047*
X03204Y02048*
X03204Y02049*
Y02067*
X03204Y02068*
X03205Y02069*
X03205Y0207*
X03205Y02071*
X03206Y02071*
X03207Y02072*
X03208Y02072*
X03209Y02072*
X03229*
X0323Y02072*
G37*
G36*
X0335Y0211D02*
X03351Y0211D01*
X03351Y02109*
X03352Y02109*
X03353Y02108*
X03353Y02107*
X03353Y02107*
X03353Y02106*
Y02088*
X03353Y02086*
X03353Y02086*
X03353Y02085*
X03352Y02084*
X03351Y02084*
X03351Y02083*
X0335Y02083*
X03349Y02083*
X03329*
X03328Y02083*
X03327Y02083*
X03326Y02084*
X03325Y02084*
X03325Y02085*
X03325Y02086*
X03324Y02086*
X03324Y02088*
Y02106*
X03324Y02107*
X03325Y02107*
X03325Y02108*
X03325Y02109*
X03326Y02109*
X03327Y0211*
X03328Y0211*
X03329Y0211*
X03349*
X0335Y0211*
G37*
G36*
X0323D02*
X03231Y0211D01*
X03231Y02109*
X03232Y02109*
X03233Y02108*
X03233Y02107*
X03233Y02107*
X03233Y02106*
Y02088*
X03233Y02086*
X03233Y02086*
X03233Y02085*
X03232Y02084*
X03231Y02084*
X03231Y02083*
X0323Y02083*
X03229Y02083*
X03209*
X03208Y02083*
X03207Y02083*
X03206Y02084*
X03205Y02084*
X03205Y02085*
X03205Y02086*
X03204Y02086*
X03204Y02088*
Y02106*
X03204Y02107*
X03205Y02107*
X03205Y02108*
X03205Y02109*
X03206Y02109*
X03207Y0211*
X03208Y0211*
X03209Y0211*
X03229*
X0323Y0211*
G37*
G36*
X03545Y02086D02*
X03501D01*
Y02129*
X03545*
Y02086*
G37*
G36*
X03397Y02193D02*
X03397Y02193D01*
X03397*
X03398Y02193*
X03399Y02193*
X034Y02193*
X03401Y02192*
X03402Y02192*
X03403Y02191*
X03403Y02191*
X03403Y02191*
X03403Y02191*
X03404Y0219*
X03405Y02189*
X03405Y02188*
X03406Y02187*
X03406Y02186*
X03406Y02186*
X03407Y02185*
X03407Y02184*
Y02184*
X03407Y02183*
X03407Y02183*
Y02172*
X03407Y02171*
X03407Y02171*
X03406Y0217*
X03406Y0217*
X03406Y02169*
X03405Y02168*
Y02167*
X03406Y02166*
X03406Y02165*
X03406Y02165*
X03406Y02164*
X03407Y02164*
X03407Y02163*
Y02152*
X03407Y02152*
X03407Y02151*
Y02151*
X03406Y0215*
X03406Y02149*
X03406Y02148*
X03406Y02147*
X03405Y02146*
X03405Y02145*
X03405Y02144*
X03406Y02143*
X03406Y02143*
X03407Y02139*
Y02136*
X03406Y02135*
X03406Y02134*
X03406Y02133*
X03407Y02132*
X03407Y02131*
X03408Y02131*
X03409Y0213*
X03409Y0213*
X0341Y02129*
X03411Y02129*
X03426*
Y02086*
X03383*
Y02117*
X03383Y02118*
X03383Y02119*
X03382Y0212*
X03382Y02121*
X03381Y02121*
X03381Y02121*
X0338Y02122*
X03377Y02124*
X03375Y02126*
X03373Y02129*
X03373Y02129*
X03372Y02132*
X03371Y02136*
Y02139*
X03372Y02143*
X03372Y02143*
X03372Y02144*
X03372Y02145*
X03372Y02146*
X03372Y02147*
X03372Y02148*
X03371Y02149*
X03371Y0215*
X03371Y02151*
Y02151*
X03371Y02152*
X03371Y02152*
Y02163*
X03371Y02164*
X03371Y02164*
X03372Y02165*
X03372Y02165*
X03372Y02166*
X03372Y02167*
Y02168*
X03372Y02169*
X03372Y0217*
X03372Y0217*
X03371Y02171*
X03371Y02171*
X03371Y02172*
Y02183*
X03371Y02183*
X03371Y02184*
Y02184*
X03371Y02185*
X03371Y02186*
X03372Y02186*
X03372Y02187*
X03373Y02188*
X03373Y02189*
X03374Y0219*
X03374Y02191*
X03375Y02191*
X03375Y02191*
X03375Y02191*
X03376Y02192*
X03377Y02192*
X03378Y02193*
X03379Y02193*
X0338Y02193*
X0338Y02193*
X03381*
X03381Y02193*
X03381Y02193*
X03397*
X03397Y02193*
G37*
G36*
X03271Y02122D02*
X03272Y02122D01*
X03272Y02121*
X03273Y02121*
X03273Y0212*
X03274Y02119*
X03274Y02119*
X03274Y02117*
Y02097*
X03274Y02096*
X03274Y02096*
X03273Y02095*
X03273Y02094*
X03272Y02094*
X03272Y02093*
X03271Y02093*
X0327Y02093*
X03252*
X0325Y02093*
X0325Y02093*
X03249Y02094*
X03248Y02094*
X03248Y02095*
X03247Y02096*
X03247Y02096*
X03247Y02097*
Y02117*
X03247Y02119*
X03247Y02119*
X03248Y0212*
X03248Y02121*
X03249Y02121*
X0325Y02122*
X0325Y02122*
X03252Y02122*
X0327*
X03271Y02122*
G37*
G36*
X03309D02*
X0331Y02122D01*
X0331Y02121*
X03311Y02121*
X03312Y0212*
X03312Y02119*
X03312Y02119*
X03312Y02117*
Y02097*
X03312Y02096*
X03312Y02096*
X03312Y02095*
X03311Y02094*
X0331Y02094*
X0331Y02093*
X03309Y02093*
X03308Y02093*
X0329*
X03289Y02093*
X03288Y02093*
X03287Y02094*
X03286Y02094*
X03286Y02095*
X03286Y02096*
X03285Y02096*
X03285Y02097*
Y02117*
X03285Y02119*
X03286Y02119*
X03286Y0212*
X03286Y02121*
X03287Y02121*
X03288Y02122*
X03289Y02122*
X0329Y02122*
X03308*
X03309Y02122*
G37*
G36*
X03509Y02143D02*
X03418D01*
Y02188*
X03509*
Y02143*
G37*
G36*
X01097Y02888D02*
X011Y02887D01*
X01105Y02886*
X01107Y02885*
X01112Y02882*
X01113Y02882*
X01114Y02881*
X01118Y02878*
X01121Y02874*
X01123Y02872*
X01126Y02866*
X01128Y02859*
X01129Y02852*
X01128Y02845*
X01127Y02841*
X01126Y02839*
X01125Y02837*
X01123Y02832*
X01122Y02831*
X01118Y02827*
X01114Y02824*
X01113Y02823*
X01107Y02819*
X01105Y02819*
X011Y02817*
X01097Y02817*
X01095Y02817*
X01091*
X01089Y02817*
X01086Y02817*
X01082Y02819*
X01079Y02819*
X01073Y02823*
X01072Y02824*
X01068Y02827*
X01065Y02831*
X01063Y02832*
X01061Y02837*
X0106Y02839*
X01059Y02841*
X01058Y02845*
X01057Y02852*
X01058Y02859*
X0106Y02866*
X01063Y02872*
X01065Y02874*
X01068Y02878*
X01072Y02881*
X01073Y02882*
X01074Y02882*
X01079Y02885*
X01082Y02886*
X01086Y02887*
X01089Y02888*
X01091Y02888*
X01095*
X01097Y02888*
G37*
G36*
X00297D02*
X003Y02887D01*
X00305Y02886*
X00307Y02885*
X00312Y02882*
X00313Y02882*
X00314Y02881*
X00318Y02878*
X00321Y02874*
X00323Y02872*
X00326Y02866*
X00328Y02859*
X00329Y02852*
X00328Y02845*
X00327Y02841*
X00326Y02839*
X00325Y02837*
X00323Y02832*
X00322Y02831*
X00318Y02827*
X00314Y02824*
X00313Y02823*
X00307Y02819*
X00305Y02819*
X003Y02817*
X00297Y02817*
X00295Y02817*
X00291*
X00289Y02817*
X00286Y02817*
X00282Y02819*
X00279Y02819*
X00273Y02823*
X00272Y02824*
X00268Y02827*
X00265Y02831*
X00263Y02832*
X00261Y02837*
X0026Y02839*
X00259Y02841*
X00258Y02845*
X00257Y02852*
X00258Y02859*
X0026Y02866*
X00263Y02872*
X00265Y02874*
X00268Y02878*
X00272Y02881*
X00273Y02882*
X00274Y02882*
X00279Y02885*
X00282Y02886*
X00286Y02887*
X00289Y02888*
X00291Y02888*
X00295*
X00297Y02888*
G37*
G36*
X00921Y02877D02*
X00922Y02876D01*
X00924Y02876*
X00925Y02875*
X00926Y02873*
X00927Y02872*
X00927Y0287*
X00927Y02869*
Y02842*
X00927Y02841*
X00927Y02839*
X00926Y02837*
X00925Y02836*
X00924Y02835*
X00922Y02834*
X00921Y02834*
X00919Y02834*
X00861*
X00859Y02834*
X00858Y02834*
X00856Y02835*
X00855Y02836*
X00854Y02837*
X00853Y02839*
X00853Y02841*
X00853Y02842*
Y02869*
X00853Y0287*
X00853Y02872*
X00854Y02873*
X00855Y02875*
X00856Y02876*
X00858Y02876*
X00859Y02877*
X00861Y02877*
X00919*
X00921Y02877*
G37*
G36*
X00527D02*
X00529Y02876D01*
X0053Y02876*
X00531Y02875*
X00532Y02873*
X00533Y02872*
X00534Y0287*
X00534Y02869*
Y02842*
X00534Y02841*
X00533Y02839*
X00532Y02837*
X00531Y02836*
X0053Y02835*
X00529Y02834*
X00527Y02834*
X00525Y02834*
X00467*
X00466Y02834*
X00464Y02834*
X00463Y02835*
X00461Y02836*
X0046Y02837*
X00459Y02839*
X00459Y02841*
X00459Y02842*
Y02869*
X00459Y0287*
X00459Y02872*
X0046Y02873*
X00461Y02875*
X00463Y02876*
X00464Y02876*
X00466Y02877*
X00467Y02877*
X00525*
X00527Y02877*
G37*
G36*
X00921Y02956D02*
X00922Y02955D01*
X00924Y02954*
X00925Y02953*
X00926Y02952*
X00927Y02951*
X00927Y02949*
X00927Y02947*
Y02921*
X00927Y02919*
X00927Y02918*
X00926Y02916*
X00925Y02915*
X00924Y02914*
X00922Y02913*
X00921Y02913*
X00919Y02912*
X00861*
X00859Y02913*
X00858Y02913*
X00856Y02914*
X00855Y02915*
X00854Y02916*
X00853Y02918*
X00853Y02919*
X00853Y02921*
Y02947*
X00853Y02949*
X00853Y02951*
X00854Y02952*
X00855Y02953*
X00856Y02954*
X00858Y02955*
X00859Y02956*
X00861Y02956*
X00919*
X00921Y02956*
G37*
G36*
X00527D02*
X00529Y02955D01*
X0053Y02954*
X00531Y02953*
X00532Y02952*
X00533Y02951*
X00534Y02949*
X00534Y02947*
Y02921*
X00534Y02919*
X00533Y02918*
X00532Y02916*
X00531Y02915*
X0053Y02914*
X00529Y02913*
X00527Y02913*
X00525Y02912*
X00467*
X00466Y02913*
X00464Y02913*
X00463Y02914*
X00461Y02915*
X0046Y02916*
X00459Y02918*
X00459Y02919*
X00459Y02921*
Y02947*
X00459Y02949*
X00459Y02951*
X0046Y02952*
X00461Y02953*
X00463Y02954*
X00464Y02955*
X00466Y02956*
X00467Y02956*
X00525*
X00527Y02956*
G37*
G36*
X00297Y02988D02*
X003Y02987D01*
X00305Y02986*
X00307Y02985*
X00312Y02982*
X00313Y02982*
X00314Y02981*
X00318Y02978*
X00322Y02974*
X00323Y02972*
X00326Y02966*
X00328Y02959*
X00329Y02952*
X00328Y02945*
X00327Y02941*
X00326Y02939*
X00323Y02933*
X00323Y02932*
X00322Y02931*
X00318Y02927*
X00314Y02924*
X00313Y02923*
X00307Y02919*
X00306Y02919*
X003Y02917*
X00297Y02917*
X00295Y02917*
X00291*
X00289Y02917*
X00286Y02917*
X0028Y02919*
X00279Y02919*
X00273Y02923*
X00272Y02924*
X00268Y02927*
X00265Y02931*
X00263Y02932*
X00263Y02933*
X0026Y02939*
X00259Y02941*
X00258Y02945*
X00257Y02952*
X00258Y02959*
X0026Y02966*
X00263Y02972*
X00265Y02974*
X00268Y02978*
X00272Y02981*
X00273Y02982*
X00274Y02982*
X00279Y02985*
X00282Y02986*
X00286Y02987*
X00289Y02988*
X00291Y02988*
X00295*
X00297Y02988*
G37*
G36*
X01097D02*
X011Y02987D01*
X01105Y02986*
X01107Y02985*
X01112Y02982*
X01113Y02982*
X01114Y02981*
X01118Y02978*
X01122Y02974*
X01123Y02972*
X01126Y02966*
X01128Y02959*
X01129Y02952*
X01128Y02945*
X01127Y02941*
X01126Y02939*
X01123Y02933*
X01123Y02932*
X01122Y02931*
X01118Y02927*
X01114Y02924*
X01113Y02923*
X01107Y02919*
X01106Y02919*
X011Y02917*
X01097Y02917*
X01095Y02917*
X01091*
X01089Y02917*
X01086Y02917*
X0108Y02919*
X01079Y02919*
X01073Y02923*
X01072Y02924*
X01068Y02927*
X01065Y02931*
X01063Y02932*
X01063Y02933*
X0106Y02939*
X01059Y02941*
X01058Y02945*
X01057Y02952*
X01058Y02959*
X0106Y02966*
X01063Y02972*
X01065Y02974*
X01068Y02978*
X01072Y02981*
X01073Y02982*
X01074Y02982*
X01079Y02985*
X01082Y02986*
X01086Y02987*
X01089Y02988*
X01091Y02988*
X01095*
X01097Y02988*
G37*
G36*
X00527Y03034D02*
X00529Y03034D01*
X0053Y03033*
X00531Y03032*
X00532Y03031*
X00533Y03029*
X00534Y03028*
X00534Y03026*
Y03*
X00534Y02998*
X00533Y02996*
X00532Y02995*
X00531Y02994*
X0053Y02993*
X00529Y02992*
X00527Y02991*
X00525Y02991*
X00467*
X00466Y02991*
X00464Y02992*
X00463Y02993*
X00461Y02994*
X0046Y02995*
X00459Y02996*
X00459Y02998*
X00459Y03*
Y03026*
X00459Y03028*
X00459Y03029*
X0046Y03031*
X00461Y03032*
X00463Y03033*
X00464Y03034*
X00466Y03034*
X00467Y03035*
X00525*
X00527Y03034*
G37*
G36*
X00921D02*
X00922Y03034D01*
X00924Y03033*
X00925Y03032*
X00926Y03031*
X00927Y03029*
X00927Y03028*
X00927Y03026*
Y03*
X00927Y02998*
X00927Y02996*
X00926Y02995*
X00925Y02994*
X00924Y02993*
X00922Y02992*
X00921Y02991*
X00919Y02991*
X00861*
X00859Y02991*
X00858Y02992*
X00856Y02993*
X00855Y02994*
X00854Y02995*
X00853Y02996*
X00853Y02998*
X00853Y03*
Y03026*
X00853Y03028*
X00853Y03029*
X00854Y03031*
X00855Y03032*
X00856Y03033*
X00858Y03034*
X00859Y03034*
X00861Y03035*
X00919*
X00921Y03034*
G37*
G36*
X00407Y0304D02*
X00409Y0304D01*
X0041Y03039*
X00411Y03038*
X00412Y03037*
X00413Y03036*
X00414Y03034*
X00414Y03032*
Y03003*
X00414Y03002*
X00413Y03*
X00412Y02999*
X00411Y02998*
X0041Y02997*
X00409Y02996*
X00407Y02995*
X00406Y02995*
X00381*
X00379Y02995*
X00377Y02996*
X00376Y02997*
X00375Y02998*
X00374Y02999*
X00373Y03*
X00373Y03002*
X00372Y03003*
Y03032*
X00373Y03034*
X00373Y03036*
X00374Y03037*
X00375Y03038*
X00376Y03039*
X00377Y0304*
X00379Y0304*
X00381Y03041*
X00406*
X00407Y0304*
G37*
G36*
X00297Y03088D02*
X003Y03087D01*
X00305Y03086*
X00307Y03085*
X00312Y03082*
X00313Y03082*
X00314Y03081*
X00318Y03078*
X00321Y03074*
X00323Y03072*
X00326Y03066*
X00326Y03065*
X00328Y03059*
X00329Y03052*
X00328Y03045*
X00327Y03041*
X00326Y03039*
X00324Y03036*
X00323Y03032*
X00322Y03032*
X00318Y03027*
X00314Y03024*
X00313Y03023*
X00307Y03019*
X00305Y03019*
X003Y03017*
X00297Y03017*
X00295Y03017*
X00291*
X00289Y03017*
X00286Y03017*
X00282Y03019*
X00279Y03019*
X00273Y03023*
X00272Y03024*
X00268Y03027*
X00264Y03032*
X00263Y03032*
X00262Y03036*
X0026Y03039*
X00259Y03041*
X00258Y03045*
X00257Y03052*
X00258Y03059*
X0026Y03065*
X0026Y03066*
X00263Y03072*
X00265Y03074*
X00268Y03078*
X00272Y03081*
X00273Y03082*
X00274Y03082*
X00279Y03085*
X00282Y03086*
X00286Y03087*
X00289Y03088*
X00291Y03088*
X00295*
X00297Y03088*
G37*
G36*
X01097D02*
X011Y03087D01*
X01105Y03086*
X01107Y03085*
X01112Y03082*
X01113Y03082*
X01114Y03081*
X01118Y03078*
X01121Y03074*
X01123Y03072*
X01126Y03066*
X01126Y03065*
X01128Y03059*
X01129Y03052*
X01128Y03045*
X01127Y03041*
X01126Y03039*
X01124Y03036*
X01123Y03032*
X01122Y03032*
X01118Y03027*
X01114Y03024*
X01113Y03023*
X01107Y03019*
X01105Y03019*
X011Y03017*
X01097Y03017*
X01095Y03017*
X01091*
X01089Y03017*
X01086Y03017*
X01082Y03019*
X01079Y03019*
X01073Y03023*
X01072Y03024*
X01068Y03027*
X01064Y03032*
X01063Y03032*
X01062Y03036*
X0106Y03039*
X01059Y03041*
X01058Y03045*
X01057Y03052*
X01058Y03059*
X0106Y03065*
X0106Y03066*
X01063Y03072*
X01065Y03074*
X01068Y03078*
X01072Y03081*
X01073Y03082*
X01074Y03082*
X01079Y03085*
X01082Y03086*
X01086Y03087*
X01089Y03088*
X01091Y03088*
X01095*
X01097Y03088*
G37*
G36*
X00407Y03109D02*
X00409Y03109D01*
X0041Y03108*
X00411Y03107*
X00412Y03106*
X00413Y03105*
X00414Y03103*
X00414Y03101*
Y03072*
X00414Y0307*
X00413Y03069*
X00412Y03068*
X00411Y03066*
X0041Y03065*
X00409Y03065*
X00407Y03064*
X00406Y03064*
X00381*
X00379Y03064*
X00377Y03065*
X00376Y03065*
X00375Y03066*
X00374Y03068*
X00373Y03069*
X00373Y0307*
X00372Y03072*
Y03101*
X00373Y03103*
X00373Y03105*
X00374Y03106*
X00375Y03107*
X00376Y03108*
X00377Y03109*
X00379Y03109*
X00381Y03109*
X00406*
X00407Y03109*
G37*
G36*
X00527Y03113D02*
X00529Y03113D01*
X0053Y03112*
X00531Y03111*
X00532Y0311*
X00533Y03108*
X00534Y03107*
X00534Y03105*
Y03079*
X00534Y03077*
X00533Y03075*
X00532Y03074*
X00531Y03072*
X0053Y03071*
X00529Y03071*
X00527Y0307*
X00525Y0307*
X00467*
X00466Y0307*
X00464Y03071*
X00463Y03071*
X00461Y03072*
X0046Y03074*
X00459Y03075*
X00459Y03077*
X00459Y03079*
Y03105*
X00459Y03107*
X00459Y03108*
X0046Y0311*
X00461Y03111*
X00463Y03112*
X00464Y03113*
X00466Y03113*
X00467Y03113*
X00525*
X00527Y03113*
G37*
G36*
X00921D02*
X00922Y03113D01*
X00924Y03112*
X00925Y03111*
X00926Y0311*
X00927Y03108*
X00927Y03107*
X00927Y03105*
Y03079*
X00927Y03077*
X00927Y03075*
X00926Y03074*
X00925Y03072*
X00924Y03071*
X00922Y03071*
X00921Y0307*
X00919Y0307*
X00861*
X00859Y0307*
X00858Y03071*
X00856Y03071*
X00855Y03072*
X00854Y03074*
X00853Y03075*
X00853Y03077*
X00853Y03079*
Y03105*
X00853Y03107*
X00853Y03108*
X00854Y0311*
X00855Y03111*
X00856Y03112*
X00858Y03113*
X00859Y03113*
X00861Y03113*
X00919*
X00921Y03113*
G37*
G36*
X01097Y03188D02*
X011Y03187D01*
X01105Y03186*
X01107Y03185*
X0111Y03183*
X01113Y03182*
X01114Y03181*
X01118Y03178*
X01122Y03174*
X01123Y03172*
X01126Y03166*
X01128Y03159*
X01129Y03152*
X01128Y03145*
X01127Y03141*
X01126Y03139*
X01123Y03133*
X01123Y03132*
X01122Y03131*
X01118Y03127*
X01114Y03124*
X01113Y03123*
X01107Y03119*
X01105Y03119*
X011Y03117*
X01097Y03117*
X01095Y03117*
X01091*
X01089Y03117*
X01086Y03117*
X01082Y03119*
X01079Y03119*
X01073Y03123*
X01072Y03124*
X01068Y03127*
X01065Y03131*
X01063Y03132*
X01063Y03133*
X0106Y03139*
X01059Y03141*
X01058Y03145*
X01057Y03152*
X01058Y03159*
X0106Y03166*
X01063Y03172*
X01065Y03174*
X01068Y03178*
X01072Y03181*
X01073Y03182*
X01076Y03183*
X01079Y03185*
X01082Y03186*
X01086Y03187*
X01089Y03188*
X01091Y03188*
X01095*
X01097Y03188*
G37*
G36*
X00297D02*
X003Y03187D01*
X00305Y03186*
X00307Y03185*
X0031Y03183*
X00313Y03182*
X00314Y03181*
X00318Y03178*
X00322Y03174*
X00323Y03172*
X00326Y03166*
X00328Y03159*
X00329Y03152*
X00328Y03145*
X00327Y03141*
X00326Y03139*
X00323Y03133*
X00323Y03132*
X00322Y03131*
X00318Y03127*
X00314Y03124*
X00313Y03123*
X00307Y03119*
X00305Y03119*
X003Y03117*
X00297Y03117*
X00295Y03117*
X00291*
X00289Y03117*
X00286Y03117*
X00282Y03119*
X00279Y03119*
X00273Y03123*
X00272Y03124*
X00268Y03127*
X00265Y03131*
X00263Y03132*
X00263Y03133*
X0026Y03139*
X00259Y03141*
X00258Y03145*
X00257Y03152*
X00258Y03159*
X0026Y03166*
X00263Y03172*
X00265Y03174*
X00268Y03178*
X00272Y03181*
X00273Y03182*
X00276Y03183*
X00279Y03185*
X00282Y03186*
X00286Y03187*
X00289Y03188*
X00291Y03188*
X00295*
X00297Y03188*
G37*
G36*
X00921Y03192D02*
X00922Y03191D01*
X00924Y03191*
X00925Y0319*
X00926Y03188*
X00927Y03187*
X00927Y03185*
X00927Y03183*
Y03157*
X00927Y03155*
X00927Y03154*
X00926Y03152*
X00925Y03151*
X00924Y0315*
X00922Y03149*
X00921Y03149*
X00919Y03149*
X00861*
X00859Y03149*
X00858Y03149*
X00856Y0315*
X00855Y03151*
X00854Y03152*
X00853Y03154*
X00853Y03155*
X00853Y03157*
Y03183*
X00853Y03185*
X00853Y03187*
X00854Y03188*
X00855Y0319*
X00856Y03191*
X00858Y03191*
X00859Y03192*
X00861Y03192*
X00919*
X00921Y03192*
G37*
G36*
X00527D02*
X00529Y03191D01*
X0053Y03191*
X00531Y0319*
X00532Y03188*
X00533Y03187*
X00534Y03185*
X00534Y03183*
Y03157*
X00534Y03155*
X00533Y03154*
X00532Y03152*
X00531Y03151*
X0053Y0315*
X00529Y03149*
X00527Y03149*
X00525Y03149*
X00467*
X00466Y03149*
X00464Y03149*
X00463Y0315*
X00461Y03151*
X0046Y03152*
X00459Y03154*
X00459Y03155*
X00459Y03157*
Y03183*
X00459Y03185*
X00459Y03187*
X0046Y03188*
X00461Y0319*
X00463Y03191*
X00464Y03191*
X00466Y03192*
X00467Y03192*
X00525*
X00527Y03192*
G37*
G36*
X00297Y03288D02*
X003Y03287D01*
X00305Y03286*
X00307Y03285*
X00312Y03282*
X00313Y03282*
X00314Y03281*
X00318Y03278*
X00322Y03274*
X00323Y03272*
X00326Y03266*
X00327Y03264*
X00328Y03259*
X00329Y03252*
X00328Y03245*
X00327Y03242*
X00326Y03239*
X00324Y03234*
X00323Y03232*
X00322Y03231*
X00318Y03227*
X00314Y03224*
X00313Y03223*
X00307Y03219*
X00305Y03219*
X003Y03217*
X00297Y03217*
X00295Y03217*
X00291*
X00289Y03217*
X00286Y03217*
X00282Y03219*
X00279Y03219*
X00273Y03223*
X00272Y03224*
X00268Y03227*
X00265Y03231*
X00263Y03232*
X00263Y03234*
X0026Y03239*
X00259Y03242*
X00258Y03245*
X00257Y03252*
X00258Y03259*
X0026Y03264*
X0026Y03266*
X00263Y03272*
X00265Y03274*
X00268Y03278*
X00272Y03281*
X00273Y03282*
X00274Y03282*
X00279Y03285*
X00282Y03286*
X00286Y03287*
X00289Y03288*
X00291Y03288*
X00295*
X00297Y03288*
G37*
G36*
X01097D02*
X011Y03287D01*
X01105Y03286*
X01107Y03285*
X01112Y03282*
X01113Y03282*
X01114Y03281*
X01118Y03278*
X01122Y03274*
X01123Y03272*
X01126Y03266*
X01127Y03264*
X01128Y03259*
X01129Y03252*
X01128Y03245*
X01127Y03242*
X01126Y03239*
X01124Y03234*
X01123Y03232*
X01122Y03231*
X01118Y03227*
X01114Y03224*
X01113Y03223*
X01107Y03219*
X01105Y03219*
X011Y03217*
X01097Y03217*
X01095Y03217*
X01091*
X01089Y03217*
X01086Y03217*
X01082Y03219*
X01079Y03219*
X01073Y03223*
X01072Y03224*
X01068Y03227*
X01065Y03231*
X01063Y03232*
X01063Y03234*
X0106Y03239*
X01059Y03242*
X01058Y03245*
X01057Y03252*
X01058Y03259*
X0106Y03264*
X0106Y03266*
X01063Y03272*
X01065Y03274*
X01068Y03278*
X01072Y03281*
X01073Y03282*
X01074Y03282*
X01079Y03285*
X01082Y03286*
X01086Y03287*
X01089Y03288*
X01091Y03288*
X01095*
X01097Y03288*
G37*
G36*
X00921Y03271D02*
X00922Y0327D01*
X00924Y03269*
X00925Y03268*
X00926Y03267*
X00927Y03266*
X00927Y03264*
X00927Y03262*
Y03236*
X00927Y03234*
X00927Y03233*
X00926Y03231*
X00925Y0323*
X00924Y03229*
X00922Y03228*
X00921Y03228*
X00919Y03227*
X00861*
X00859Y03228*
X00858Y03228*
X00856Y03229*
X00855Y0323*
X00854Y03231*
X00853Y03233*
X00853Y03234*
X00853Y03236*
Y03262*
X00853Y03264*
X00853Y03266*
X00854Y03267*
X00855Y03268*
X00856Y03269*
X00858Y0327*
X00859Y03271*
X00861Y03271*
X00919*
X00921Y03271*
G37*
G36*
X00527D02*
X00529Y0327D01*
X0053Y03269*
X00531Y03268*
X00532Y03267*
X00533Y03266*
X00534Y03264*
X00534Y03262*
Y03236*
X00534Y03234*
X00533Y03233*
X00532Y03231*
X00531Y0323*
X0053Y03229*
X00529Y03228*
X00527Y03228*
X00525Y03227*
X00467*
X00466Y03228*
X00464Y03228*
X00463Y03229*
X00461Y0323*
X0046Y03231*
X00459Y03233*
X00459Y03234*
X00459Y03236*
Y03262*
X00459Y03264*
X00459Y03266*
X0046Y03267*
X00461Y03268*
X00463Y03269*
X00464Y0327*
X00466Y03271*
X00467Y03271*
X00525*
X00527Y03271*
G37*
G36*
X00379Y0327D02*
X00379Y0327D01*
X0038Y0327*
X0038Y03269*
X00381Y03269*
X00382Y03269*
X00383*
X00384Y03269*
X00385Y03269*
X00385Y0327*
X00386Y0327*
X00386Y0327*
X00387Y0327*
X00398*
X00398Y0327*
X00398Y0327*
X00399*
X004Y0327*
X00401Y0327*
X00401Y0327*
X00402Y03269*
X00403Y03269*
X00404Y03268*
X00404Y03268*
X00404Y03268*
X00405Y03268*
X00405Y03267*
X00406Y03266*
X00407Y03265*
X00407Y03264*
X00407Y03263*
X00408Y03263*
X00408Y03262*
X00408Y03261*
Y03261*
X00408Y0326*
X00408Y0326*
Y03245*
X00408Y03245*
X00408Y03244*
Y03244*
X00408Y03243*
X00408Y03242*
X00407Y03241*
X00407Y0324*
X00407Y03239*
X00406Y03238*
X00406Y03238*
X00406Y03238*
X00405Y03238*
X00405Y03237*
X00405Y03237*
X00404Y03237*
X00404Y03237*
X00403Y03236*
X00402Y03236*
X00401Y03235*
X00401Y03235*
X004Y03235*
X00399Y03235*
X00398*
X00398Y03235*
X00398Y03235*
X00387*
X00386Y03235*
X00386Y03235*
X00385Y03235*
X00385Y03235*
X00384Y03236*
X00383Y03236*
X00382*
X00381Y03236*
X0038Y03235*
X0038Y03235*
X00379Y03235*
X00379Y03235*
X00378Y03235*
X00367*
X00367Y03235*
X00366Y03235*
X00366*
X00365Y03235*
X00364Y03235*
X00363Y03235*
X00362Y03236*
X00362Y03236*
X00361Y03237*
X0036Y03237*
X0036Y03237*
X0036Y03237*
X00359Y03238*
X00359Y03239*
X00358Y03239*
X00358Y0324*
X00357Y03241*
X00357Y03242*
X00357Y03243*
X00357Y03244*
Y03244*
X00357Y03245*
X00357Y03245*
Y0326*
X00357Y0326*
X00357Y03261*
Y03261*
X00357Y03262*
X00357Y03263*
X00357Y03264*
X00358Y03265*
X00358Y03265*
X00359Y03266*
X00359Y03267*
X0036Y03268*
X0036Y03268*
X0036Y03268*
X00361Y03268*
X00362Y03269*
X00362Y03269*
X00363Y0327*
X00364Y0327*
X00365Y0327*
X00366Y0327*
X00366*
X00367Y0327*
X00367Y0327*
X00378*
X00379Y0327*
G37*
G36*
X00329Y03317D02*
X00258D01*
Y03388*
X00329*
Y03317*
G37*
G36*
X01129D02*
X01058D01*
Y03388*
X01129*
Y03317*
G37*
G36*
X00958Y03322D02*
X00868D01*
Y03367*
X00958*
Y03322*
G37*
G36*
X00799Y03367D02*
X008Y03366D01*
X00801Y03366*
X00801Y03366*
X00802Y03365*
X00802Y03364*
X00803Y03363*
X00803Y03362*
Y03344*
X00803Y03343*
X00802Y03342*
X00802Y03342*
X00801Y03341*
X00801Y0334*
X008Y0334*
X00799Y0334*
X00798Y0334*
X00778*
X00777Y0334*
X00776Y0334*
X00775Y0334*
X00775Y03341*
X00774Y03342*
X00774Y03342*
X00774Y03343*
X00773Y03344*
Y03362*
X00774Y03363*
X00774Y03364*
X00774Y03365*
X00775Y03366*
X00775Y03366*
X00776Y03366*
X00777Y03367*
X00778Y03367*
X00798*
X00799Y03367*
G37*
G36*
X00679D02*
X0068Y03366D01*
X00681Y03366*
X00681Y03366*
X00682Y03365*
X00682Y03364*
X00683Y03363*
X00683Y03362*
Y03344*
X00683Y03343*
X00682Y03342*
X00682Y03342*
X00681Y03341*
X00681Y0334*
X0068Y0334*
X00679Y0334*
X00678Y0334*
X00658*
X00657Y0334*
X00656Y0334*
X00655Y0334*
X00655Y03341*
X00654Y03342*
X00654Y03342*
X00654Y03343*
X00653Y03344*
Y03362*
X00654Y03363*
X00654Y03364*
X00654Y03365*
X00655Y03366*
X00655Y03366*
X00656Y03366*
X00657Y03367*
X00658Y03367*
X00678*
X00679Y03367*
G37*
G36*
X00799Y03405D02*
X008Y03405D01*
X00801Y03404*
X00801Y03404*
X00802Y03403*
X00802Y03402*
X00803Y03402*
X00803Y034*
Y03382*
X00803Y03381*
X00802Y0338*
X00802Y0338*
X00801Y03379*
X00801Y03379*
X008Y03378*
X00799Y03378*
X00798Y03378*
X00778*
X00777Y03378*
X00776Y03378*
X00775Y03379*
X00775Y03379*
X00774Y0338*
X00774Y0338*
X00774Y03381*
X00773Y03382*
Y034*
X00774Y03402*
X00774Y03402*
X00774Y03403*
X00775Y03404*
X00775Y03404*
X00776Y03405*
X00777Y03405*
X00778Y03405*
X00798*
X00799Y03405*
G37*
G36*
X00679D02*
X0068Y03405D01*
X00681Y03404*
X00681Y03404*
X00682Y03403*
X00682Y03402*
X00683Y03402*
X00683Y034*
Y03382*
X00683Y03381*
X00682Y0338*
X00682Y0338*
X00681Y03379*
X00681Y03379*
X0068Y03378*
X00679Y03378*
X00678Y03378*
X00658*
X00657Y03378*
X00656Y03378*
X00655Y03379*
X00655Y03379*
X00654Y0338*
X00654Y0338*
X00654Y03381*
X00653Y03382*
Y034*
X00654Y03402*
X00654Y03402*
X00654Y03403*
X00655Y03404*
X00655Y03404*
X00656Y03405*
X00657Y03405*
X00658Y03405*
X00678*
X00679Y03405*
G37*
G36*
X00994Y03381D02*
X0095D01*
Y03424*
X00994*
Y03381*
G37*
G36*
X00846Y03488D02*
X00846Y03488D01*
X00847*
X00847Y03488*
X00849Y03488*
X00849Y03487*
X0085Y03487*
X00851Y03487*
X00852Y03486*
X00852Y03486*
X00852Y03486*
X00853Y03485*
X00853Y03485*
X00854Y03484*
X00855Y03483*
X00855Y03482*
X00855Y03481*
X00856Y0348*
X00856Y03479*
X00856Y03479*
Y03478*
X00856Y03478*
X00856Y03478*
Y03466*
X00856Y03466*
X00856Y03465*
X00855Y03465*
X00855Y03465*
X00855Y03464*
X00855Y03463*
Y03462*
X00855Y03461*
X00855Y0346*
X00855Y0346*
X00856Y03459*
X00856Y03459*
X00856Y03458*
Y03447*
X00856Y03447*
X00856Y03446*
Y03446*
X00856Y03445*
X00856Y03444*
X00855Y03443*
X00855Y03442*
X00855Y03441*
X00854Y0344*
X00855Y03439*
X00855Y03438*
X00855Y03437*
X00856Y03434*
Y03431*
X00856Y0343*
X00856Y03429*
X00856Y03428*
X00856Y03427*
X00856Y03426*
X00857Y03425*
X00858Y03425*
X00859Y03424*
X0086Y03424*
X00861Y03424*
X00876*
Y03381*
X00832*
Y03412*
X00832Y03413*
X00832Y03414*
X00832Y03415*
X00831Y03416*
X0083Y03416*
X0083Y03416*
X0083Y03417*
X00827Y03419*
X00824Y03421*
X00822Y03424*
X00822Y03424*
X00821Y03427*
X0082Y03431*
Y03434*
X00821Y03437*
X00821Y03438*
X00822Y03439*
X00822Y0344*
X00822Y03441*
X00821Y03442*
X00821Y03443*
X00821Y03444*
X0082Y03445*
X0082Y03446*
Y03446*
X0082Y03447*
X0082Y03447*
Y03458*
X0082Y03459*
X0082Y03459*
X00821Y0346*
X00821Y0346*
X00821Y03461*
X00822Y03462*
Y03463*
X00821Y03464*
X00821Y03465*
X00821Y03465*
X00821Y03465*
X0082Y03466*
X0082Y03466*
Y03478*
X0082Y03478*
X0082Y03478*
Y03479*
X00821Y03479*
X00821Y0348*
X00821Y03481*
X00821Y03482*
X00822Y03483*
X00822Y03484*
X00823Y03485*
X00824Y03485*
X00824Y03486*
X00824Y03486*
X00824Y03486*
X00825Y03487*
X00826Y03487*
X00827Y03487*
X00828Y03488*
X00829Y03488*
X0083Y03488*
X0083*
X0083Y03488*
X00831Y03488*
X00846*
X00846Y03488*
G37*
G36*
X0072Y03417D02*
X00721Y03417D01*
X00722Y03416*
X00722Y03416*
X00723Y03415*
X00723Y03414*
X00723Y03413*
X00724Y03412*
Y03392*
X00723Y03391*
X00723Y0339*
X00723Y0339*
X00722Y03389*
X00722Y03388*
X00721Y03388*
X0072Y03388*
X00719Y03388*
X00701*
X007Y03388*
X00699Y03388*
X00698Y03388*
X00698Y03389*
X00697Y0339*
X00697Y0339*
X00696Y03391*
X00696Y03392*
Y03412*
X00696Y03413*
X00697Y03414*
X00697Y03415*
X00698Y03416*
X00698Y03416*
X00699Y03417*
X007Y03417*
X00701Y03417*
X00719*
X0072Y03417*
G37*
G36*
X00758D02*
X00759Y03417D01*
X0076Y03416*
X0076Y03416*
X00761Y03415*
X00761Y03414*
X00762Y03413*
X00762Y03412*
Y03392*
X00762Y03391*
X00761Y0339*
X00761Y0339*
X0076Y03389*
X0076Y03388*
X00759Y03388*
X00758Y03388*
X00757Y03388*
X00739*
X00738Y03388*
X00737Y03388*
X00736Y03388*
X00736Y03389*
X00735Y0339*
X00735Y0339*
X00735Y03391*
X00734Y03392*
Y03412*
X00735Y03413*
X00735Y03414*
X00735Y03415*
X00736Y03416*
X00736Y03416*
X00737Y03417*
X00738Y03417*
X00739Y03417*
X00757*
X00758Y03417*
G37*
G36*
X00958Y03438D02*
X00868D01*
Y03483*
X00958*
Y03438*
G37*
G36*
X02372Y02888D02*
X02375Y02887D01*
X02379Y02886*
X02382Y02885*
X02387Y02882*
X02388Y02882*
X02389Y02881*
X02393Y02878*
X02396Y02874*
X02398Y02872*
X02401Y02866*
X02403Y02859*
X02404Y02852*
X02403Y02845*
X02402Y02841*
X02401Y02839*
X024Y02837*
X02398Y02832*
X02396Y02831*
X02393Y02827*
X02389Y02824*
X02388Y02823*
X02382Y02819*
X02379Y02819*
X02375Y02817*
X02372Y02817*
X0237Y02817*
X02366*
X02364Y02817*
X02361Y02817*
X02357Y02819*
X02354Y02819*
X02348Y02823*
X02347Y02824*
X02343Y02827*
X02339Y02831*
X02338Y02832*
X02336Y02837*
X02335Y02839*
X02334Y02841*
X02333Y02845*
X02332Y02852*
X02333Y02859*
X02335Y02866*
X02338Y02872*
X0234Y02874*
X02343Y02878*
X02347Y02881*
X02348Y02882*
X02349Y02882*
X02354Y02885*
X02357Y02886*
X02361Y02887*
X02364Y02888*
X02366Y02888*
X0237*
X02372Y02888*
G37*
G36*
X01573D02*
X01576Y02887D01*
X0158Y02886*
X01583Y02885*
X01588Y02882*
X01589Y02882*
X0159Y02881*
X01594Y02878*
X01597Y02874*
X01599Y02872*
X01602Y02866*
X01604Y02859*
X01605Y02852*
X01604Y02845*
X01603Y02841*
X01602Y02839*
X01601Y02837*
X01599Y02832*
X01597Y02831*
X01594Y02827*
X0159Y02824*
X01589Y02823*
X01583Y02819*
X0158Y02819*
X01576Y02817*
X01573Y02817*
X01571Y02817*
X01567*
X01565Y02817*
X01562Y02817*
X01558Y02819*
X01555Y02819*
X01549Y02823*
X01548Y02824*
X01544Y02827*
X0154Y02831*
X01539Y02832*
X01537Y02837*
X01536Y02839*
X01535Y02841*
X01534Y02845*
X01533Y02852*
X01534Y02859*
X01536Y02866*
X01539Y02872*
X01541Y02874*
X01544Y02878*
X01548Y02881*
X01549Y02882*
X0155Y02882*
X01555Y02885*
X01558Y02886*
X01562Y02887*
X01565Y02888*
X01567Y02888*
X01571*
X01573Y02888*
G37*
G36*
X02195Y02877D02*
X02197Y02876D01*
X02199Y02876*
X022Y02875*
X02201Y02873*
X02202Y02872*
X02202Y0287*
X02202Y02869*
Y02842*
X02202Y02841*
X02202Y02839*
X02201Y02837*
X022Y02836*
X02199Y02835*
X02197Y02834*
X02195Y02834*
X02194Y02834*
X02136*
X02134Y02834*
X02133Y02834*
X02131Y02835*
X0213Y02836*
X02129Y02837*
X02128Y02839*
X02128Y02841*
X02127Y02842*
Y02869*
X02128Y0287*
X02128Y02872*
X02129Y02873*
X0213Y02875*
X02131Y02876*
X02133Y02876*
X02134Y02877*
X02136Y02877*
X02194*
X02195Y02877*
G37*
G36*
X01803D02*
X01804Y02876D01*
X01806Y02876*
X01807Y02875*
X01808Y02873*
X01809Y02872*
X01809Y0287*
X0181Y02869*
Y02842*
X01809Y02841*
X01809Y02839*
X01808Y02837*
X01807Y02836*
X01806Y02835*
X01804Y02834*
X01803Y02834*
X01801Y02834*
X01743*
X01741Y02834*
X0174Y02834*
X01738Y02835*
X01737Y02836*
X01736Y02837*
X01735Y02839*
X01735Y02841*
X01735Y02842*
Y02869*
X01735Y0287*
X01735Y02872*
X01736Y02873*
X01737Y02875*
X01738Y02876*
X0174Y02876*
X01741Y02877*
X01743Y02877*
X01801*
X01803Y02877*
G37*
G36*
X02195Y02956D02*
X02197Y02955D01*
X02199Y02954*
X022Y02953*
X02201Y02952*
X02202Y02951*
X02202Y02949*
X02202Y02947*
Y02921*
X02202Y02919*
X02202Y02918*
X02201Y02916*
X022Y02915*
X02199Y02914*
X02197Y02913*
X02195Y02913*
X02194Y02912*
X02136*
X02134Y02913*
X02133Y02913*
X02131Y02914*
X0213Y02915*
X02129Y02916*
X02128Y02918*
X02128Y02919*
X02127Y02921*
Y02947*
X02128Y02949*
X02128Y02951*
X02129Y02952*
X0213Y02953*
X02131Y02954*
X02133Y02955*
X02134Y02956*
X02136Y02956*
X02194*
X02195Y02956*
G37*
G36*
X01803D02*
X01804Y02955D01*
X01806Y02954*
X01807Y02953*
X01808Y02952*
X01809Y02951*
X01809Y02949*
X0181Y02947*
Y02921*
X01809Y02919*
X01809Y02918*
X01808Y02916*
X01807Y02915*
X01806Y02914*
X01804Y02913*
X01803Y02913*
X01801Y02912*
X01743*
X01741Y02913*
X0174Y02913*
X01738Y02914*
X01737Y02915*
X01736Y02916*
X01735Y02918*
X01735Y02919*
X01735Y02921*
Y02947*
X01735Y02949*
X01735Y02951*
X01736Y02952*
X01737Y02953*
X01738Y02954*
X0174Y02955*
X01741Y02956*
X01743Y02956*
X01801*
X01803Y02956*
G37*
G36*
X01573Y02988D02*
X01576Y02987D01*
X0158Y02986*
X01583Y02985*
X01588Y02982*
X01589Y02982*
X0159Y02981*
X01594Y02978*
X01597Y02974*
X01599Y02972*
X01602Y02966*
X01604Y02959*
X01605Y02952*
X01604Y02945*
X01603Y02941*
X01602Y02939*
X01599Y02933*
X01599Y02932*
X01597Y02931*
X01594Y02927*
X0159Y02924*
X01589Y02923*
X01583Y02919*
X01582Y02919*
X01576Y02917*
X01573Y02917*
X01571Y02917*
X01567*
X01565Y02917*
X01562Y02917*
X01556Y02919*
X01555Y02919*
X01549Y02923*
X01548Y02924*
X01544Y02927*
X0154Y02931*
X01539Y02932*
X01539Y02933*
X01536Y02939*
X01535Y02941*
X01534Y02945*
X01533Y02952*
X01534Y02959*
X01536Y02966*
X01539Y02972*
X0154Y02974*
X01544Y02978*
X01548Y02981*
X01549Y02982*
X0155Y02982*
X01555Y02985*
X01558Y02986*
X01562Y02987*
X01565Y02988*
X01567Y02988*
X01571*
X01573Y02988*
G37*
G36*
X02372D02*
X02375Y02987D01*
X02379Y02986*
X02382Y02985*
X02387Y02982*
X02388Y02982*
X02389Y02981*
X02393Y02978*
X02396Y02974*
X02398Y02972*
X02401Y02966*
X02403Y02959*
X02404Y02952*
X02403Y02945*
X02402Y02941*
X02401Y02939*
X02398Y02933*
X02398Y02932*
X02396Y02931*
X02393Y02927*
X02389Y02924*
X02388Y02923*
X02382Y02919*
X02381Y02919*
X02375Y02917*
X02372Y02917*
X0237Y02917*
X02366*
X02364Y02917*
X02361Y02917*
X02355Y02919*
X02354Y02919*
X02348Y02923*
X02347Y02924*
X02343Y02927*
X02339Y02931*
X02338Y02932*
X02338Y02933*
X02335Y02939*
X02334Y02941*
X02333Y02945*
X02332Y02952*
X02333Y02959*
X02335Y02966*
X02338Y02972*
X02339Y02974*
X02343Y02978*
X02347Y02981*
X02348Y02982*
X02349Y02982*
X02354Y02985*
X02357Y02986*
X02361Y02987*
X02364Y02988*
X02366Y02988*
X0237*
X02372Y02988*
G37*
G36*
X01803Y03034D02*
X01804Y03034D01*
X01806Y03033*
X01807Y03032*
X01808Y03031*
X01809Y03029*
X01809Y03028*
X0181Y03026*
Y03*
X01809Y02998*
X01809Y02996*
X01808Y02995*
X01807Y02994*
X01806Y02993*
X01804Y02992*
X01803Y02991*
X01801Y02991*
X01743*
X01741Y02991*
X0174Y02992*
X01738Y02993*
X01737Y02994*
X01736Y02995*
X01735Y02996*
X01735Y02998*
X01735Y03*
Y03026*
X01735Y03028*
X01735Y03029*
X01736Y03031*
X01737Y03032*
X01738Y03033*
X0174Y03034*
X01741Y03034*
X01743Y03035*
X01801*
X01803Y03034*
G37*
G36*
X02195D02*
X02197Y03034D01*
X02199Y03033*
X022Y03032*
X02201Y03031*
X02202Y03029*
X02202Y03028*
X02202Y03026*
Y03*
X02202Y02998*
X02202Y02996*
X02201Y02995*
X022Y02994*
X02199Y02993*
X02197Y02992*
X02195Y02991*
X02194Y02991*
X02136*
X02134Y02991*
X02133Y02992*
X02131Y02993*
X0213Y02994*
X02129Y02995*
X02128Y02996*
X02128Y02998*
X02127Y03*
Y03026*
X02128Y03028*
X02128Y03029*
X02129Y03031*
X0213Y03032*
X02131Y03033*
X02133Y03034*
X02134Y03034*
X02136Y03035*
X02194*
X02195Y03034*
G37*
G36*
X01683Y0304D02*
X01685Y0304D01*
X01686Y03039*
X01687Y03038*
X01688Y03037*
X01689Y03036*
X01689Y03034*
X0169Y03032*
Y03003*
X01689Y03002*
X01689Y03*
X01688Y02999*
X01687Y02998*
X01686Y02997*
X01685Y02996*
X01683Y02995*
X01682Y02995*
X01656*
X01655Y02995*
X01653Y02996*
X01652Y02997*
X01651Y02998*
X0165Y02999*
X01649Y03*
X01648Y03002*
X01648Y03003*
Y03032*
X01648Y03034*
X01649Y03036*
X0165Y03037*
X01651Y03038*
X01652Y03039*
X01653Y0304*
X01655Y0304*
X01656Y03041*
X01682*
X01683Y0304*
G37*
G36*
X01573Y03088D02*
X01576Y03087D01*
X0158Y03086*
X01583Y03085*
X01588Y03082*
X01589Y03082*
X0159Y03081*
X01594Y03078*
X01597Y03074*
X01599Y03072*
X01602Y03066*
X01602Y03065*
X01604Y03059*
X01605Y03052*
X01604Y03045*
X01603Y03041*
X01602Y03039*
X016Y03036*
X01599Y03032*
X01598Y03032*
X01594Y03027*
X0159Y03024*
X01589Y03023*
X01583Y03019*
X0158Y03019*
X01576Y03017*
X01573Y03017*
X01571Y03017*
X01567*
X01565Y03017*
X01562Y03017*
X01558Y03019*
X01555Y03019*
X01549Y03023*
X01548Y03024*
X01544Y03027*
X0154Y03032*
X01539Y03032*
X01538Y03036*
X01536Y03039*
X01535Y03041*
X01534Y03045*
X01533Y03052*
X01534Y03059*
X01536Y03065*
X01536Y03066*
X01539Y03072*
X01541Y03074*
X01544Y03078*
X01548Y03081*
X01549Y03082*
X0155Y03082*
X01555Y03085*
X01558Y03086*
X01562Y03087*
X01565Y03088*
X01567Y03088*
X01571*
X01573Y03088*
G37*
G36*
X02372D02*
X02375Y03087D01*
X02379Y03086*
X02382Y03085*
X02387Y03082*
X02388Y03082*
X02389Y03081*
X02393Y03078*
X02396Y03074*
X02398Y03072*
X02401Y03066*
X02401Y03065*
X02403Y03059*
X02404Y03052*
X02403Y03045*
X02402Y03041*
X02401Y03039*
X02399Y03036*
X02398Y03032*
X02397Y03032*
X02393Y03027*
X02389Y03024*
X02388Y03023*
X02382Y03019*
X02379Y03019*
X02375Y03017*
X02372Y03017*
X0237Y03017*
X02366*
X02364Y03017*
X02361Y03017*
X02357Y03019*
X02354Y03019*
X02348Y03023*
X02347Y03024*
X02343Y03027*
X02339Y03032*
X02338Y03032*
X02337Y03036*
X02335Y03039*
X02334Y03041*
X02333Y03045*
X02332Y03052*
X02333Y03059*
X02335Y03065*
X02335Y03066*
X02338Y03072*
X0234Y03074*
X02343Y03078*
X02347Y03081*
X02348Y03082*
X02349Y03082*
X02354Y03085*
X02357Y03086*
X02361Y03087*
X02364Y03088*
X02366Y03088*
X0237*
X02372Y03088*
G37*
G36*
X01683Y03109D02*
X01685Y03109D01*
X01686Y03108*
X01687Y03107*
X01688Y03106*
X01689Y03105*
X01689Y03103*
X0169Y03101*
Y03072*
X01689Y0307*
X01689Y03069*
X01688Y03068*
X01687Y03066*
X01686Y03065*
X01685Y03065*
X01683Y03064*
X01682Y03064*
X01656*
X01655Y03064*
X01653Y03065*
X01652Y03065*
X01651Y03066*
X0165Y03068*
X01649Y03069*
X01648Y0307*
X01648Y03072*
Y03101*
X01648Y03103*
X01649Y03105*
X0165Y03106*
X01651Y03107*
X01652Y03108*
X01653Y03109*
X01655Y03109*
X01656Y03109*
X01682*
X01683Y03109*
G37*
G36*
X01803Y03113D02*
X01804Y03113D01*
X01806Y03112*
X01807Y03111*
X01808Y0311*
X01809Y03108*
X01809Y03107*
X0181Y03105*
Y03079*
X01809Y03077*
X01809Y03075*
X01808Y03074*
X01807Y03072*
X01806Y03071*
X01804Y03071*
X01803Y0307*
X01801Y0307*
X01743*
X01741Y0307*
X0174Y03071*
X01738Y03071*
X01737Y03072*
X01736Y03074*
X01735Y03075*
X01735Y03077*
X01735Y03079*
Y03105*
X01735Y03107*
X01735Y03108*
X01736Y0311*
X01737Y03111*
X01738Y03112*
X0174Y03113*
X01741Y03113*
X01743Y03113*
X01801*
X01803Y03113*
G37*
G36*
X02195D02*
X02197Y03113D01*
X02199Y03112*
X022Y03111*
X02201Y0311*
X02202Y03108*
X02202Y03107*
X02202Y03105*
Y03079*
X02202Y03077*
X02202Y03075*
X02201Y03074*
X022Y03072*
X02199Y03071*
X02197Y03071*
X02195Y0307*
X02194Y0307*
X02136*
X02134Y0307*
X02133Y03071*
X02131Y03071*
X0213Y03072*
X02129Y03074*
X02128Y03075*
X02128Y03077*
X02127Y03079*
Y03105*
X02128Y03107*
X02128Y03108*
X02129Y0311*
X0213Y03111*
X02131Y03112*
X02133Y03113*
X02134Y03113*
X02136Y03113*
X02194*
X02195Y03113*
G37*
G36*
X02372Y03188D02*
X02375Y03187D01*
X02379Y03186*
X02382Y03185*
X02385Y03183*
X02388Y03182*
X02389Y03181*
X02393Y03178*
X02396Y03174*
X02398Y03172*
X02401Y03166*
X02403Y03159*
X02404Y03152*
X02403Y03145*
X02402Y03141*
X02401Y03139*
X02398Y03133*
X02398Y03132*
X02396Y03131*
X02393Y03127*
X02389Y03124*
X02388Y03123*
X02382Y03119*
X02379Y03119*
X02375Y03117*
X02372Y03117*
X0237Y03117*
X02366*
X02364Y03117*
X02361Y03117*
X02357Y03119*
X02354Y03119*
X02348Y03123*
X02347Y03124*
X02343Y03127*
X02339Y03131*
X02338Y03132*
X02338Y03133*
X02335Y03139*
X02334Y03141*
X02333Y03145*
X02332Y03152*
X02333Y03159*
X02335Y03166*
X02338Y03172*
X02339Y03174*
X02343Y03178*
X02347Y03181*
X02348Y03182*
X02351Y03183*
X02354Y03185*
X02357Y03186*
X02361Y03187*
X02364Y03188*
X02366Y03188*
X0237*
X02372Y03188*
G37*
G36*
X01573D02*
X01576Y03187D01*
X0158Y03186*
X01583Y03185*
X01586Y03183*
X01589Y03182*
X0159Y03181*
X01594Y03178*
X01597Y03174*
X01599Y03172*
X01602Y03166*
X01604Y03159*
X01605Y03152*
X01604Y03145*
X01603Y03141*
X01602Y03139*
X01599Y03133*
X01599Y03132*
X01597Y03131*
X01594Y03127*
X0159Y03124*
X01589Y03123*
X01583Y03119*
X0158Y03119*
X01576Y03117*
X01573Y03117*
X01571Y03117*
X01567*
X01565Y03117*
X01562Y03117*
X01558Y03119*
X01555Y03119*
X01549Y03123*
X01548Y03124*
X01544Y03127*
X0154Y03131*
X01539Y03132*
X01539Y03133*
X01536Y03139*
X01535Y03141*
X01534Y03145*
X01533Y03152*
X01534Y03159*
X01536Y03166*
X01539Y03172*
X0154Y03174*
X01544Y03178*
X01548Y03181*
X01549Y03182*
X01552Y03183*
X01555Y03185*
X01558Y03186*
X01562Y03187*
X01565Y03188*
X01567Y03188*
X01571*
X01573Y03188*
G37*
G36*
X02195Y03192D02*
X02197Y03191D01*
X02199Y03191*
X022Y0319*
X02201Y03188*
X02202Y03187*
X02202Y03185*
X02202Y03183*
Y03157*
X02202Y03155*
X02202Y03154*
X02201Y03152*
X022Y03151*
X02199Y0315*
X02197Y03149*
X02195Y03149*
X02194Y03149*
X02136*
X02134Y03149*
X02133Y03149*
X02131Y0315*
X0213Y03151*
X02129Y03152*
X02128Y03154*
X02128Y03155*
X02127Y03157*
Y03183*
X02128Y03185*
X02128Y03187*
X02129Y03188*
X0213Y0319*
X02131Y03191*
X02133Y03191*
X02134Y03192*
X02136Y03192*
X02194*
X02195Y03192*
G37*
G36*
X01803D02*
X01804Y03191D01*
X01806Y03191*
X01807Y0319*
X01808Y03188*
X01809Y03187*
X01809Y03185*
X0181Y03183*
Y03157*
X01809Y03155*
X01809Y03154*
X01808Y03152*
X01807Y03151*
X01806Y0315*
X01804Y03149*
X01803Y03149*
X01801Y03149*
X01743*
X01741Y03149*
X0174Y03149*
X01738Y0315*
X01737Y03151*
X01736Y03152*
X01735Y03154*
X01735Y03155*
X01735Y03157*
Y03183*
X01735Y03185*
X01735Y03187*
X01736Y03188*
X01737Y0319*
X01738Y03191*
X0174Y03191*
X01741Y03192*
X01743Y03192*
X01801*
X01803Y03192*
G37*
G36*
X01573Y03288D02*
X01576Y03287D01*
X0158Y03286*
X01583Y03285*
X01588Y03282*
X01589Y03282*
X0159Y03281*
X01594Y03278*
X01597Y03274*
X01599Y03272*
X01602Y03266*
X01602Y03264*
X01604Y03259*
X01605Y03252*
X01604Y03245*
X01603Y03242*
X01602Y03239*
X01599Y03234*
X01599Y03232*
X01598Y03231*
X01594Y03227*
X0159Y03224*
X01589Y03223*
X01583Y03219*
X0158Y03219*
X01576Y03217*
X01573Y03217*
X01571Y03217*
X01567*
X01565Y03217*
X01562Y03217*
X01558Y03219*
X01555Y03219*
X01549Y03223*
X01548Y03224*
X01544Y03227*
X0154Y03231*
X01539Y03232*
X01538Y03234*
X01536Y03239*
X01535Y03242*
X01534Y03245*
X01533Y03252*
X01534Y03259*
X01535Y03264*
X01536Y03266*
X01539Y03272*
X0154Y03274*
X01544Y03278*
X01548Y03281*
X01549Y03282*
X0155Y03282*
X01555Y03285*
X01558Y03286*
X01562Y03287*
X01565Y03288*
X01567Y03288*
X01571*
X01573Y03288*
G37*
G36*
X02372D02*
X02375Y03287D01*
X02379Y03286*
X02382Y03285*
X02387Y03282*
X02388Y03282*
X02389Y03281*
X02393Y03278*
X02396Y03274*
X02398Y03272*
X02401Y03266*
X02401Y03264*
X02403Y03259*
X02404Y03252*
X02403Y03245*
X02402Y03242*
X02401Y03239*
X02398Y03234*
X02398Y03232*
X02397Y03231*
X02393Y03227*
X02389Y03224*
X02388Y03223*
X02382Y03219*
X02379Y03219*
X02375Y03217*
X02372Y03217*
X0237Y03217*
X02366*
X02364Y03217*
X02361Y03217*
X02357Y03219*
X02354Y03219*
X02348Y03223*
X02347Y03224*
X02343Y03227*
X02339Y03231*
X02338Y03232*
X02337Y03234*
X02335Y03239*
X02334Y03242*
X02333Y03245*
X02332Y03252*
X02333Y03259*
X02334Y03264*
X02335Y03266*
X02338Y03272*
X02339Y03274*
X02343Y03278*
X02347Y03281*
X02348Y03282*
X02349Y03282*
X02354Y03285*
X02357Y03286*
X02361Y03287*
X02364Y03288*
X02366Y03288*
X0237*
X02372Y03288*
G37*
G36*
X02195Y03271D02*
X02197Y0327D01*
X02199Y03269*
X022Y03268*
X02201Y03267*
X02202Y03266*
X02202Y03264*
X02202Y03262*
Y03236*
X02202Y03234*
X02202Y03233*
X02201Y03231*
X022Y0323*
X02199Y03229*
X02197Y03228*
X02195Y03228*
X02194Y03227*
X02136*
X02134Y03228*
X02133Y03228*
X02131Y03229*
X0213Y0323*
X02129Y03231*
X02128Y03233*
X02128Y03234*
X02127Y03236*
Y03262*
X02128Y03264*
X02128Y03266*
X02129Y03267*
X0213Y03268*
X02131Y03269*
X02133Y0327*
X02134Y03271*
X02136Y03271*
X02194*
X02195Y03271*
G37*
G36*
X01803D02*
X01804Y0327D01*
X01806Y03269*
X01807Y03268*
X01808Y03267*
X01809Y03266*
X01809Y03264*
X0181Y03262*
Y03236*
X01809Y03234*
X01809Y03233*
X01808Y03231*
X01807Y0323*
X01806Y03229*
X01804Y03228*
X01803Y03228*
X01801Y03227*
X01743*
X01741Y03228*
X0174Y03228*
X01738Y03229*
X01737Y0323*
X01736Y03231*
X01735Y03233*
X01735Y03234*
X01735Y03236*
Y03262*
X01735Y03264*
X01735Y03266*
X01736Y03267*
X01737Y03268*
X01738Y03269*
X0174Y0327*
X01741Y03271*
X01743Y03271*
X01801*
X01803Y03271*
G37*
G36*
X01655Y0327D02*
X01655Y0327D01*
X01656Y0327*
X01656Y03269*
X01657Y03269*
X01658Y03269*
X01659*
X0166Y03269*
X01661Y03269*
X01661Y0327*
X01661Y0327*
X01662Y0327*
X01662Y0327*
X01674*
X01674Y0327*
X01674Y0327*
X01674*
X01675Y0327*
X01676Y0327*
X01677Y0327*
X01678Y03269*
X01679Y03269*
X0168Y03268*
X0168Y03268*
X0168Y03268*
X01681Y03268*
X01681Y03267*
X01682Y03266*
X01682Y03265*
X01683Y03264*
X01683Y03263*
X01684Y03263*
X01684Y03262*
X01684Y03261*
Y03261*
X01684Y0326*
X01684Y0326*
Y03245*
X01684Y03245*
X01684Y03244*
Y03244*
X01684Y03243*
X01684Y03242*
X01683Y03241*
X01683Y0324*
X01682Y03239*
X01682Y03238*
X01682Y03238*
X01682Y03238*
X01681Y03238*
X01681Y03237*
X0168Y03237*
X0168Y03237*
X0168Y03237*
X01679Y03236*
X01678Y03236*
X01677Y03235*
X01676Y03235*
X01675Y03235*
X01674Y03235*
X01674*
X01674Y03235*
X01674Y03235*
X01662*
X01662Y03235*
X01661Y03235*
X01661Y03235*
X0166Y03235*
X0166Y03236*
X01659Y03236*
X01658*
X01657Y03236*
X01656Y03235*
X01656Y03235*
X01655Y03235*
X01655Y03235*
X01654Y03235*
X01643*
X01643Y03235*
X01642Y03235*
X01642*
X01641Y03235*
X0164Y03235*
X01639Y03235*
X01638Y03236*
X01637Y03236*
X01637Y03237*
X01636Y03237*
X01636Y03237*
X01636Y03237*
X01635Y03238*
X01635Y03239*
X01634Y03239*
X01634Y0324*
X01633Y03241*
X01633Y03242*
X01633Y03243*
X01633Y03244*
Y03244*
X01633Y03245*
X01633Y03245*
Y0326*
X01633Y0326*
X01633Y03261*
Y03261*
X01633Y03262*
X01633Y03263*
X01633Y03264*
X01634Y03265*
X01634Y03265*
X01635Y03266*
X01635Y03267*
X01636Y03268*
X01636Y03268*
X01636Y03268*
X01637Y03268*
X01637Y03269*
X01638Y03269*
X01639Y0327*
X0164Y0327*
X01641Y0327*
X01642Y0327*
X01642*
X01643Y0327*
X01643Y0327*
X01654*
X01655Y0327*
G37*
G36*
X01604Y03317D02*
X01533D01*
Y03388*
X01604*
Y03317*
G37*
G36*
X02403D02*
X02332D01*
Y03388*
X02403*
Y03317*
G37*
G36*
X02233Y03322D02*
X02143D01*
Y03367*
X02233*
Y03322*
G37*
G36*
X02074Y03367D02*
X02075Y03366D01*
X02076Y03366*
X02076Y03366*
X02077Y03365*
X02077Y03364*
X02077Y03363*
X02078Y03362*
Y03344*
X02077Y03343*
X02077Y03342*
X02077Y03342*
X02076Y03341*
X02076Y0334*
X02075Y0334*
X02074Y0334*
X02073Y0334*
X02053*
X02052Y0334*
X02051Y0334*
X0205Y0334*
X0205Y03341*
X02049Y03342*
X02049Y03342*
X02048Y03343*
X02048Y03344*
Y03362*
X02048Y03363*
X02049Y03364*
X02049Y03365*
X0205Y03366*
X0205Y03366*
X02051Y03366*
X02052Y03367*
X02053Y03367*
X02073*
X02074Y03367*
G37*
G36*
X01955D02*
X01956Y03366D01*
X01957Y03366*
X01957Y03366*
X01958Y03365*
X01958Y03364*
X01958Y03363*
X01959Y03362*
Y03344*
X01958Y03343*
X01958Y03342*
X01958Y03342*
X01957Y03341*
X01957Y0334*
X01956Y0334*
X01955Y0334*
X01954Y0334*
X01934*
X01933Y0334*
X01932Y0334*
X01931Y0334*
X01931Y03341*
X0193Y03342*
X0193Y03342*
X01929Y03343*
X01929Y03344*
Y03362*
X01929Y03363*
X0193Y03364*
X0193Y03365*
X01931Y03366*
X01931Y03366*
X01932Y03366*
X01933Y03367*
X01934Y03367*
X01954*
X01955Y03367*
G37*
G36*
X02074Y03405D02*
X02075Y03405D01*
X02076Y03404*
X02076Y03404*
X02077Y03403*
X02077Y03402*
X02077Y03402*
X02078Y034*
Y03382*
X02077Y03381*
X02077Y0338*
X02077Y0338*
X02076Y03379*
X02076Y03379*
X02075Y03378*
X02074Y03378*
X02073Y03378*
X02053*
X02052Y03378*
X02051Y03378*
X0205Y03379*
X0205Y03379*
X02049Y0338*
X02049Y0338*
X02048Y03381*
X02048Y03382*
Y034*
X02048Y03402*
X02049Y03402*
X02049Y03403*
X0205Y03404*
X0205Y03404*
X02051Y03405*
X02052Y03405*
X02053Y03405*
X02073*
X02074Y03405*
G37*
G36*
X01955D02*
X01956Y03405D01*
X01957Y03404*
X01957Y03404*
X01958Y03403*
X01958Y03402*
X01958Y03402*
X01959Y034*
Y03382*
X01958Y03381*
X01958Y0338*
X01958Y0338*
X01957Y03379*
X01957Y03379*
X01956Y03378*
X01955Y03378*
X01954Y03378*
X01934*
X01933Y03378*
X01932Y03378*
X01931Y03379*
X01931Y03379*
X0193Y0338*
X0193Y0338*
X01929Y03381*
X01929Y03382*
Y034*
X01929Y03402*
X0193Y03402*
X0193Y03403*
X01931Y03404*
X01931Y03404*
X01932Y03405*
X01933Y03405*
X01934Y03405*
X01954*
X01955Y03405*
G37*
G36*
X02269Y03381D02*
X02225D01*
Y03424*
X02269*
Y03381*
G37*
G36*
X02121Y03488D02*
X02121Y03488D01*
X02121*
X02122Y03488*
X02123Y03488*
X02124Y03487*
X02125Y03487*
X02126Y03487*
X02127Y03486*
X02127Y03486*
X02127Y03486*
X02128Y03485*
X02128Y03485*
X02129Y03484*
X02129Y03483*
X0213Y03482*
X0213Y03481*
X02131Y0348*
X02131Y03479*
X02131Y03479*
Y03478*
X02131Y03478*
X02131Y03478*
Y03466*
X02131Y03466*
X02131Y03465*
X0213Y03465*
X0213Y03465*
X0213Y03464*
X0213Y03463*
Y03462*
X0213Y03461*
X0213Y0346*
X0213Y0346*
X02131Y03459*
X02131Y03459*
X02131Y03458*
Y03447*
X02131Y03447*
X02131Y03446*
Y03446*
X02131Y03445*
X0213Y03444*
X0213Y03443*
X0213Y03442*
X02129Y03441*
X02129Y0344*
X02129Y03439*
X0213Y03438*
X0213Y03437*
X02131Y03434*
Y03431*
X02131Y0343*
X0213Y03429*
X02131Y03428*
X02131Y03427*
X02131Y03426*
X02132Y03425*
X02133Y03425*
X02134Y03424*
X02134Y03424*
X02135Y03424*
X02151*
Y03381*
X02107*
Y03412*
X02107Y03413*
X02107Y03414*
X02106Y03415*
X02106Y03416*
X02105Y03416*
X02105Y03416*
X02105Y03417*
X02102Y03419*
X02099Y03421*
X02097Y03424*
X02097Y03424*
X02096Y03427*
X02095Y03431*
Y03434*
X02096Y03437*
X02096Y03438*
X02097Y03439*
X02097Y0344*
X02097Y03441*
X02096Y03442*
X02096Y03443*
X02095Y03444*
X02095Y03445*
X02095Y03446*
Y03446*
X02095Y03447*
X02095Y03447*
Y03458*
X02095Y03459*
X02095Y03459*
X02096Y0346*
X02096Y0346*
X02096Y03461*
X02096Y03462*
Y03463*
X02096Y03464*
X02096Y03465*
X02096Y03465*
X02095Y03465*
X02095Y03466*
X02095Y03466*
Y03478*
X02095Y03478*
X02095Y03478*
Y03479*
X02095Y03479*
X02096Y0348*
X02096Y03481*
X02096Y03482*
X02097Y03483*
X02097Y03484*
X02098Y03485*
X02099Y03485*
X02099Y03486*
X02099Y03486*
X02099Y03486*
X021Y03487*
X02101Y03487*
X02102Y03487*
X02103Y03488*
X02104Y03488*
X02105Y03488*
X02105*
X02105Y03488*
X02105Y03488*
X02121*
X02121Y03488*
G37*
G36*
X01995Y03417D02*
X01996Y03417D01*
X01996Y03416*
X01997Y03416*
X01998Y03415*
X01998Y03414*
X01998Y03413*
X01998Y03412*
Y03392*
X01998Y03391*
X01998Y0339*
X01998Y0339*
X01997Y03389*
X01996Y03388*
X01996Y03388*
X01995Y03388*
X01994Y03388*
X01976*
X01975Y03388*
X01974Y03388*
X01973Y03388*
X01972Y03389*
X01972Y0339*
X01971Y0339*
X01971Y03391*
X01971Y03392*
Y03412*
X01971Y03413*
X01971Y03414*
X01972Y03415*
X01972Y03416*
X01973Y03416*
X01974Y03417*
X01975Y03417*
X01976Y03417*
X01994*
X01995Y03417*
G37*
G36*
X02033D02*
X02034Y03417D01*
X02035Y03416*
X02035Y03416*
X02036Y03415*
X02036Y03414*
X02036Y03413*
X02037Y03412*
Y03392*
X02036Y03391*
X02036Y0339*
X02036Y0339*
X02035Y03389*
X02035Y03388*
X02034Y03388*
X02033Y03388*
X02032Y03388*
X02014*
X02013Y03388*
X02012Y03388*
X02011Y03388*
X02011Y03389*
X0201Y0339*
X0201Y0339*
X02009Y03391*
X02009Y03392*
Y03412*
X02009Y03413*
X0201Y03414*
X0201Y03415*
X02011Y03416*
X02011Y03416*
X02012Y03417*
X02013Y03417*
X02014Y03417*
X02032*
X02033Y03417*
G37*
G36*
X02233Y03438D02*
X02143D01*
Y03483*
X02233*
Y03438*
G37*
G36*
X03648Y02888D02*
X03651Y02887D01*
X03655Y02886*
X03657Y02885*
X03663Y02882*
X03664Y02882*
X03665Y02881*
X03669Y02878*
X03672Y02874*
X03673Y02872*
X03677Y02866*
X03679Y02859*
X03679Y02852*
X03679Y02845*
X03677Y02841*
X03677Y02839*
X03676Y02837*
X03673Y02832*
X03672Y02831*
X03669Y02827*
X03665Y02824*
X03664Y02823*
X03657Y02819*
X03655Y02819*
X03651Y02817*
X03648Y02817*
X03646Y02817*
X03642*
X03639Y02817*
X03637Y02817*
X03632Y02819*
X0363Y02819*
X03624Y02823*
X03623Y02824*
X03619Y02827*
X03615Y02831*
X03614Y02832*
X03612Y02837*
X03611Y02839*
X0361Y02841*
X03609Y02845*
X03608Y02852*
X03609Y02859*
X03611Y02866*
X03614Y02872*
X03616Y02874*
X03619Y02878*
X03623Y02881*
X03624Y02882*
X03625Y02882*
X0363Y02885*
X03632Y02886*
X03637Y02887*
X03639Y02888*
X03642Y02888*
X03646*
X03648Y02888*
G37*
G36*
X02848D02*
X02851Y02887D01*
X02855Y02886*
X02857Y02885*
X02863Y02882*
X02864Y02882*
X02865Y02881*
X02869Y02878*
X02872Y02874*
X02873Y02872*
X02877Y02866*
X02879Y02859*
X02879Y02852*
X02879Y02845*
X02877Y02841*
X02877Y02839*
X02876Y02837*
X02873Y02832*
X02872Y02831*
X02869Y02827*
X02865Y02824*
X02864Y02823*
X02857Y02819*
X02855Y02819*
X02851Y02817*
X02848Y02817*
X02846Y02817*
X02842*
X02839Y02817*
X02837Y02817*
X02832Y02819*
X0283Y02819*
X02824Y02823*
X02823Y02824*
X02819Y02827*
X02815Y02831*
X02814Y02832*
X02812Y02837*
X02811Y02839*
X0281Y02841*
X02809Y02845*
X02808Y02852*
X02809Y02859*
X02811Y02866*
X02814Y02872*
X02816Y02874*
X02819Y02878*
X02823Y02881*
X02824Y02882*
X02825Y02882*
X0283Y02885*
X02832Y02886*
X02837Y02887*
X02839Y02888*
X02842Y02888*
X02846*
X02848Y02888*
G37*
G36*
X03471Y02877D02*
X03473Y02876D01*
X03474Y02876*
X03476Y02875*
X03477Y02873*
X03477Y02872*
X03478Y0287*
X03478Y02869*
Y02842*
X03478Y02841*
X03477Y02839*
X03477Y02837*
X03476Y02836*
X03474Y02835*
X03473Y02834*
X03471Y02834*
X03469Y02834*
X03412*
X0341Y02834*
X03408Y02834*
X03407Y02835*
X03406Y02836*
X03405Y02837*
X03404Y02839*
X03403Y02841*
X03403Y02842*
Y02869*
X03403Y0287*
X03404Y02872*
X03405Y02873*
X03406Y02875*
X03407Y02876*
X03408Y02876*
X0341Y02877*
X03412Y02877*
X03469*
X03471Y02877*
G37*
G36*
X03078D02*
X03079Y02876D01*
X03081Y02876*
X03082Y02875*
X03083Y02873*
X03084Y02872*
X03084Y0287*
X03084Y02869*
Y02842*
X03084Y02841*
X03084Y02839*
X03083Y02837*
X03082Y02836*
X03081Y02835*
X03079Y02834*
X03078Y02834*
X03076Y02834*
X03018*
X03016Y02834*
X03015Y02834*
X03013Y02835*
X03012Y02836*
X03011Y02837*
X0301Y02839*
X0301Y02841*
X0301Y02842*
Y02869*
X0301Y0287*
X0301Y02872*
X03011Y02873*
X03012Y02875*
X03013Y02876*
X03015Y02876*
X03016Y02877*
X03018Y02877*
X03076*
X03078Y02877*
G37*
G36*
X03471Y02956D02*
X03473Y02955D01*
X03474Y02954*
X03476Y02953*
X03477Y02952*
X03477Y02951*
X03478Y02949*
X03478Y02947*
Y02921*
X03478Y02919*
X03477Y02918*
X03477Y02916*
X03476Y02915*
X03474Y02914*
X03473Y02913*
X03471Y02913*
X03469Y02912*
X03412*
X0341Y02913*
X03408Y02913*
X03407Y02914*
X03406Y02915*
X03405Y02916*
X03404Y02918*
X03403Y02919*
X03403Y02921*
Y02947*
X03403Y02949*
X03404Y02951*
X03405Y02952*
X03406Y02953*
X03407Y02954*
X03408Y02955*
X0341Y02956*
X03412Y02956*
X03469*
X03471Y02956*
G37*
G36*
X03078D02*
X03079Y02955D01*
X03081Y02954*
X03082Y02953*
X03083Y02952*
X03084Y02951*
X03084Y02949*
X03084Y02947*
Y02921*
X03084Y02919*
X03084Y02918*
X03083Y02916*
X03082Y02915*
X03081Y02914*
X03079Y02913*
X03078Y02913*
X03076Y02912*
X03018*
X03016Y02913*
X03015Y02913*
X03013Y02914*
X03012Y02915*
X03011Y02916*
X0301Y02918*
X0301Y02919*
X0301Y02921*
Y02947*
X0301Y02949*
X0301Y02951*
X03011Y02952*
X03012Y02953*
X03013Y02954*
X03015Y02955*
X03016Y02956*
X03018Y02956*
X03076*
X03078Y02956*
G37*
G36*
X02848Y02988D02*
X02851Y02987D01*
X02855Y02986*
X02857Y02985*
X02863Y02982*
X02864Y02982*
X02865Y02981*
X02869Y02978*
X02872Y02974*
X02873Y02972*
X02877Y02966*
X02879Y02959*
X02879Y02952*
X02879Y02945*
X02877Y02941*
X02877Y02939*
X02874Y02933*
X02873Y02932*
X02872Y02931*
X02869Y02927*
X02865Y02924*
X02864Y02923*
X02857Y02919*
X02857Y02919*
X02851Y02917*
X02848Y02917*
X02846Y02917*
X02842*
X02839Y02917*
X02837Y02917*
X02831Y02919*
X0283Y02919*
X02824Y02923*
X02823Y02924*
X02819Y02927*
X02815Y02931*
X02814Y02932*
X02814Y02933*
X02811Y02939*
X0281Y02941*
X02809Y02945*
X02808Y02952*
X02809Y02959*
X02811Y02966*
X02814Y02972*
X02815Y02974*
X02819Y02978*
X02823Y02981*
X02824Y02982*
X02825Y02982*
X0283Y02985*
X02832Y02986*
X02837Y02987*
X02839Y02988*
X02842Y02988*
X02846*
X02848Y02988*
G37*
G36*
X03648D02*
X03651Y02987D01*
X03655Y02986*
X03657Y02985*
X03663Y02982*
X03664Y02982*
X03665Y02981*
X03669Y02978*
X03672Y02974*
X03673Y02972*
X03677Y02966*
X03679Y02959*
X03679Y02952*
X03679Y02945*
X03677Y02941*
X03677Y02939*
X03674Y02933*
X03673Y02932*
X03672Y02931*
X03669Y02927*
X03665Y02924*
X03664Y02923*
X03657Y02919*
X03657Y02919*
X03651Y02917*
X03648Y02917*
X03646Y02917*
X03642*
X03639Y02917*
X03637Y02917*
X03631Y02919*
X0363Y02919*
X03624Y02923*
X03623Y02924*
X03619Y02927*
X03615Y02931*
X03614Y02932*
X03614Y02933*
X03611Y02939*
X0361Y02941*
X03609Y02945*
X03608Y02952*
X03609Y02959*
X03611Y02966*
X03614Y02972*
X03615Y02974*
X03619Y02978*
X03623Y02981*
X03624Y02982*
X03625Y02982*
X0363Y02985*
X03632Y02986*
X03637Y02987*
X03639Y02988*
X03642Y02988*
X03646*
X03648Y02988*
G37*
G36*
X03078Y03034D02*
X03079Y03034D01*
X03081Y03033*
X03082Y03032*
X03083Y03031*
X03084Y03029*
X03084Y03028*
X03084Y03026*
Y03*
X03084Y02998*
X03084Y02996*
X03083Y02995*
X03082Y02994*
X03081Y02993*
X03079Y02992*
X03078Y02991*
X03076Y02991*
X03018*
X03016Y02991*
X03015Y02992*
X03013Y02993*
X03012Y02994*
X03011Y02995*
X0301Y02996*
X0301Y02998*
X0301Y03*
Y03026*
X0301Y03028*
X0301Y03029*
X03011Y03031*
X03012Y03032*
X03013Y03033*
X03015Y03034*
X03016Y03034*
X03018Y03035*
X03076*
X03078Y03034*
G37*
G36*
X03471D02*
X03473Y03034D01*
X03474Y03033*
X03476Y03032*
X03477Y03031*
X03477Y03029*
X03478Y03028*
X03478Y03026*
Y03*
X03478Y02998*
X03477Y02996*
X03477Y02995*
X03476Y02994*
X03474Y02993*
X03473Y02992*
X03471Y02991*
X03469Y02991*
X03412*
X0341Y02991*
X03408Y02992*
X03407Y02993*
X03406Y02994*
X03405Y02995*
X03404Y02996*
X03403Y02998*
X03403Y03*
Y03026*
X03403Y03028*
X03404Y03029*
X03405Y03031*
X03406Y03032*
X03407Y03033*
X03408Y03034*
X0341Y03034*
X03412Y03035*
X03469*
X03471Y03034*
G37*
G36*
X02958Y0304D02*
X0296Y0304D01*
X02961Y03039*
X02962Y03038*
X02963Y03037*
X02964Y03036*
X02964Y03034*
X02965Y03032*
Y03003*
X02964Y03002*
X02964Y03*
X02963Y02999*
X02962Y02998*
X02961Y02997*
X0296Y02996*
X02958Y02995*
X02956Y02995*
X02931*
X02929Y02995*
X02928Y02996*
X02927Y02997*
X02925Y02998*
X02924Y02999*
X02924Y03*
X02923Y03002*
X02923Y03003*
Y03032*
X02923Y03034*
X02924Y03036*
X02924Y03037*
X02925Y03038*
X02927Y03039*
X02928Y0304*
X02929Y0304*
X02931Y03041*
X02956*
X02958Y0304*
G37*
G36*
X02848Y03088D02*
X02851Y03087D01*
X02855Y03086*
X02857Y03085*
X02863Y03082*
X02864Y03082*
X02865Y03081*
X02869Y03078*
X02872Y03074*
X02873Y03072*
X02877Y03066*
X02877Y03065*
X02879Y03059*
X02879Y03052*
X02879Y03045*
X02877Y03041*
X02877Y03039*
X02875Y03036*
X02873Y03032*
X02873Y03032*
X02869Y03027*
X02865Y03024*
X02864Y03023*
X02857Y03019*
X02855Y03019*
X02851Y03017*
X02848Y03017*
X02846Y03017*
X02842*
X02839Y03017*
X02837Y03017*
X02832Y03019*
X0283Y03019*
X02824Y03023*
X02823Y03024*
X02819Y03027*
X02814Y03032*
X02814Y03032*
X02812Y03036*
X02811Y03039*
X0281Y03041*
X02809Y03045*
X02808Y03052*
X02809Y03059*
X02811Y03065*
X02811Y03066*
X02814Y03072*
X02815Y03074*
X02819Y03078*
X02823Y03081*
X02824Y03082*
X02825Y03082*
X0283Y03085*
X02832Y03086*
X02837Y03087*
X02839Y03088*
X02842Y03088*
X02846*
X02848Y03088*
G37*
G36*
X03648D02*
X03651Y03087D01*
X03655Y03086*
X03657Y03085*
X03663Y03082*
X03664Y03082*
X03665Y03081*
X03669Y03078*
X03672Y03074*
X03673Y03072*
X03677Y03066*
X03677Y03065*
X03679Y03059*
X03679Y03052*
X03679Y03045*
X03677Y03041*
X03677Y03039*
X03675Y03036*
X03673Y03032*
X03673Y03032*
X03669Y03027*
X03665Y03024*
X03664Y03023*
X03657Y03019*
X03655Y03019*
X03651Y03017*
X03648Y03017*
X03646Y03017*
X03642*
X03639Y03017*
X03637Y03017*
X03632Y03019*
X0363Y03019*
X03624Y03023*
X03623Y03024*
X03619Y03027*
X03614Y03032*
X03614Y03032*
X03612Y03036*
X03611Y03039*
X0361Y03041*
X03609Y03045*
X03608Y03052*
X03609Y03059*
X03611Y03065*
X03611Y03066*
X03614Y03072*
X03615Y03074*
X03619Y03078*
X03623Y03081*
X03624Y03082*
X03625Y03082*
X0363Y03085*
X03632Y03086*
X03637Y03087*
X03639Y03088*
X03642Y03088*
X03646*
X03648Y03088*
G37*
G36*
X02958Y03109D02*
X0296Y03109D01*
X02961Y03108*
X02962Y03107*
X02963Y03106*
X02964Y03105*
X02964Y03103*
X02965Y03101*
Y03072*
X02964Y0307*
X02964Y03069*
X02963Y03068*
X02962Y03066*
X02961Y03065*
X0296Y03065*
X02958Y03064*
X02956Y03064*
X02931*
X02929Y03064*
X02928Y03065*
X02927Y03065*
X02925Y03066*
X02924Y03068*
X02924Y03069*
X02923Y0307*
X02923Y03072*
Y03101*
X02923Y03103*
X02924Y03105*
X02924Y03106*
X02925Y03107*
X02927Y03108*
X02928Y03109*
X02929Y03109*
X02931Y03109*
X02956*
X02958Y03109*
G37*
G36*
X03078Y03113D02*
X03079Y03113D01*
X03081Y03112*
X03082Y03111*
X03083Y0311*
X03084Y03108*
X03084Y03107*
X03084Y03105*
Y03079*
X03084Y03077*
X03084Y03075*
X03083Y03074*
X03082Y03072*
X03081Y03071*
X03079Y03071*
X03078Y0307*
X03076Y0307*
X03018*
X03016Y0307*
X03015Y03071*
X03013Y03071*
X03012Y03072*
X03011Y03074*
X0301Y03075*
X0301Y03077*
X0301Y03079*
Y03105*
X0301Y03107*
X0301Y03108*
X03011Y0311*
X03012Y03111*
X03013Y03112*
X03015Y03113*
X03016Y03113*
X03018Y03113*
X03076*
X03078Y03113*
G37*
G36*
X03471D02*
X03473Y03113D01*
X03474Y03112*
X03476Y03111*
X03477Y0311*
X03477Y03108*
X03478Y03107*
X03478Y03105*
Y03079*
X03478Y03077*
X03477Y03075*
X03477Y03074*
X03476Y03072*
X03474Y03071*
X03473Y03071*
X03471Y0307*
X03469Y0307*
X03412*
X0341Y0307*
X03408Y03071*
X03407Y03071*
X03406Y03072*
X03405Y03074*
X03404Y03075*
X03403Y03077*
X03403Y03079*
Y03105*
X03403Y03107*
X03404Y03108*
X03405Y0311*
X03406Y03111*
X03407Y03112*
X03408Y03113*
X0341Y03113*
X03412Y03113*
X03469*
X03471Y03113*
G37*
G36*
X03648Y03188D02*
X03651Y03187D01*
X03655Y03186*
X03657Y03185*
X03661Y03183*
X03664Y03182*
X03664Y03181*
X03669Y03178*
X03672Y03174*
X03673Y03172*
X03677Y03166*
X03679Y03159*
X03679Y03152*
X03679Y03145*
X03677Y03141*
X03677Y03139*
X03674Y03133*
X03673Y03132*
X03672Y03131*
X03669Y03127*
X03665Y03124*
X03664Y03123*
X03657Y03119*
X03655Y03119*
X03651Y03117*
X03648Y03117*
X03646Y03117*
X03642*
X03639Y03117*
X03637Y03117*
X03632Y03119*
X0363Y03119*
X03624Y03123*
X03623Y03124*
X03619Y03127*
X03615Y03131*
X03614Y03132*
X03614Y03133*
X03611Y03139*
X0361Y03141*
X03609Y03145*
X03608Y03152*
X03609Y03159*
X03611Y03166*
X03614Y03172*
X03615Y03174*
X03619Y03178*
X03623Y03181*
X03624Y03182*
X03627Y03183*
X0363Y03185*
X03632Y03186*
X03637Y03187*
X03639Y03188*
X03642Y03188*
X03646*
X03648Y03188*
G37*
G36*
X02848D02*
X02851Y03187D01*
X02855Y03186*
X02857Y03185*
X02861Y03183*
X02864Y03182*
X02864Y03181*
X02869Y03178*
X02872Y03174*
X02873Y03172*
X02877Y03166*
X02879Y03159*
X02879Y03152*
X02879Y03145*
X02877Y03141*
X02877Y03139*
X02874Y03133*
X02873Y03132*
X02872Y03131*
X02869Y03127*
X02865Y03124*
X02864Y03123*
X02857Y03119*
X02855Y03119*
X02851Y03117*
X02848Y03117*
X02846Y03117*
X02842*
X02839Y03117*
X02837Y03117*
X02832Y03119*
X0283Y03119*
X02824Y03123*
X02823Y03124*
X02819Y03127*
X02815Y03131*
X02814Y03132*
X02814Y03133*
X02811Y03139*
X0281Y03141*
X02809Y03145*
X02808Y03152*
X02809Y03159*
X02811Y03166*
X02814Y03172*
X02815Y03174*
X02819Y03178*
X02823Y03181*
X02824Y03182*
X02827Y03183*
X0283Y03185*
X02832Y03186*
X02837Y03187*
X02839Y03188*
X02842Y03188*
X02846*
X02848Y03188*
G37*
G36*
X03471Y03192D02*
X03473Y03191D01*
X03474Y03191*
X03476Y0319*
X03477Y03188*
X03477Y03187*
X03478Y03185*
X03478Y03183*
Y03157*
X03478Y03155*
X03477Y03154*
X03477Y03152*
X03476Y03151*
X03474Y0315*
X03473Y03149*
X03471Y03149*
X03469Y03149*
X03412*
X0341Y03149*
X03408Y03149*
X03407Y0315*
X03406Y03151*
X03405Y03152*
X03404Y03154*
X03403Y03155*
X03403Y03157*
Y03183*
X03403Y03185*
X03404Y03187*
X03405Y03188*
X03406Y0319*
X03407Y03191*
X03408Y03191*
X0341Y03192*
X03412Y03192*
X03469*
X03471Y03192*
G37*
G36*
X03078D02*
X03079Y03191D01*
X03081Y03191*
X03082Y0319*
X03083Y03188*
X03084Y03187*
X03084Y03185*
X03084Y03183*
Y03157*
X03084Y03155*
X03084Y03154*
X03083Y03152*
X03082Y03151*
X03081Y0315*
X03079Y03149*
X03078Y03149*
X03076Y03149*
X03018*
X03016Y03149*
X03015Y03149*
X03013Y0315*
X03012Y03151*
X03011Y03152*
X0301Y03154*
X0301Y03155*
X0301Y03157*
Y03183*
X0301Y03185*
X0301Y03187*
X03011Y03188*
X03012Y0319*
X03013Y03191*
X03015Y03191*
X03016Y03192*
X03018Y03192*
X03076*
X03078Y03192*
G37*
G36*
X02848Y03288D02*
X02851Y03287D01*
X02855Y03286*
X02857Y03285*
X02863Y03282*
X02864Y03282*
X02865Y03281*
X02869Y03278*
X02872Y03274*
X02873Y03272*
X02877Y03266*
X02877Y03264*
X02879Y03259*
X02879Y03252*
X02879Y03245*
X02878Y03242*
X02877Y03239*
X02874Y03234*
X02873Y03232*
X02872Y03231*
X02869Y03227*
X02865Y03224*
X02864Y03223*
X02857Y03219*
X02855Y03219*
X02851Y03217*
X02848Y03217*
X02846Y03217*
X02842*
X02839Y03217*
X02837Y03217*
X02832Y03219*
X0283Y03219*
X02824Y03223*
X02823Y03224*
X02819Y03227*
X02815Y03231*
X02814Y03232*
X02813Y03234*
X02811Y03239*
X0281Y03242*
X02809Y03245*
X02808Y03252*
X02809Y03259*
X0281Y03264*
X02811Y03266*
X02814Y03272*
X02815Y03274*
X02819Y03278*
X02823Y03281*
X02824Y03282*
X02825Y03282*
X0283Y03285*
X02832Y03286*
X02837Y03287*
X02839Y03288*
X02842Y03288*
X02846*
X02848Y03288*
G37*
G36*
X03648D02*
X03651Y03287D01*
X03655Y03286*
X03657Y03285*
X03663Y03282*
X03664Y03282*
X03665Y03281*
X03669Y03278*
X03672Y03274*
X03673Y03272*
X03677Y03266*
X03677Y03264*
X03679Y03259*
X03679Y03252*
X03679Y03245*
X03678Y03242*
X03677Y03239*
X03674Y03234*
X03673Y03232*
X03672Y03231*
X03669Y03227*
X03665Y03224*
X03664Y03223*
X03657Y03219*
X03655Y03219*
X03651Y03217*
X03648Y03217*
X03646Y03217*
X03642*
X03639Y03217*
X03637Y03217*
X03632Y03219*
X0363Y03219*
X03624Y03223*
X03623Y03224*
X03619Y03227*
X03615Y03231*
X03614Y03232*
X03613Y03234*
X03611Y03239*
X0361Y03242*
X03609Y03245*
X03608Y03252*
X03609Y03259*
X0361Y03264*
X03611Y03266*
X03614Y03272*
X03615Y03274*
X03619Y03278*
X03623Y03281*
X03624Y03282*
X03625Y03282*
X0363Y03285*
X03632Y03286*
X03637Y03287*
X03639Y03288*
X03642Y03288*
X03646*
X03648Y03288*
G37*
G36*
X03471Y03271D02*
X03473Y0327D01*
X03474Y03269*
X03476Y03268*
X03477Y03267*
X03477Y03266*
X03478Y03264*
X03478Y03262*
Y03236*
X03478Y03234*
X03477Y03233*
X03477Y03231*
X03476Y0323*
X03474Y03229*
X03473Y03228*
X03471Y03228*
X03469Y03227*
X03412*
X0341Y03228*
X03408Y03228*
X03407Y03229*
X03406Y0323*
X03405Y03231*
X03404Y03233*
X03403Y03234*
X03403Y03236*
Y03262*
X03403Y03264*
X03404Y03266*
X03405Y03267*
X03406Y03268*
X03407Y03269*
X03408Y0327*
X0341Y03271*
X03412Y03271*
X03469*
X03471Y03271*
G37*
G36*
X03078D02*
X03079Y0327D01*
X03081Y03269*
X03082Y03268*
X03083Y03267*
X03084Y03266*
X03084Y03264*
X03084Y03262*
Y03236*
X03084Y03234*
X03084Y03233*
X03083Y03231*
X03082Y0323*
X03081Y03229*
X03079Y03228*
X03078Y03228*
X03076Y03227*
X03018*
X03016Y03228*
X03015Y03228*
X03013Y03229*
X03012Y0323*
X03011Y03231*
X0301Y03233*
X0301Y03234*
X0301Y03236*
Y03262*
X0301Y03264*
X0301Y03266*
X03011Y03267*
X03012Y03268*
X03013Y03269*
X03015Y0327*
X03016Y03271*
X03018Y03271*
X03076*
X03078Y03271*
G37*
G36*
X0293Y0327D02*
X0293Y0327D01*
X02931Y0327*
X02931Y03269*
X02932Y03269*
X02933Y03269*
X02934*
X02935Y03269*
X02935Y03269*
X02935Y0327*
X02936Y0327*
X02937Y0327*
X02937Y0327*
X02949*
X02949Y0327*
X02949Y0327*
X02949*
X0295Y0327*
X02951Y0327*
X02952Y0327*
X02953Y03269*
X02954Y03269*
X02955Y03268*
X02955Y03268*
X02955Y03268*
X02955Y03268*
X02956Y03267*
X02957Y03266*
X02957Y03265*
X02958Y03264*
X02958Y03263*
X02958Y03263*
X02959Y03262*
X02959Y03261*
Y03261*
X02959Y0326*
X02959Y0326*
Y03245*
X02959Y03245*
X02959Y03244*
Y03244*
X02959Y03243*
X02958Y03242*
X02958Y03241*
X02958Y0324*
X02957Y03239*
X02957Y03238*
X02957Y03238*
X02956Y03238*
X02956Y03238*
X02955Y03237*
X02955Y03237*
X02955Y03237*
X02955Y03237*
X02954Y03236*
X02953Y03236*
X02952Y03235*
X02951Y03235*
X0295Y03235*
X02949Y03235*
X02949*
X02949Y03235*
X02949Y03235*
X02937*
X02937Y03235*
X02936Y03235*
X02936Y03235*
X02935Y03235*
X02934Y03236*
X02933Y03236*
X02933*
X02932Y03236*
X02931Y03235*
X02931Y03235*
X0293Y03235*
X0293Y03235*
X02929Y03235*
X02918*
X02917Y03235*
X02917Y03235*
X02917*
X02916Y03235*
X02915Y03235*
X02914Y03235*
X02913Y03236*
X02912Y03236*
X02911Y03237*
X02911Y03237*
X02911Y03237*
X02911Y03237*
X0291Y03238*
X02909Y03239*
X02909Y03239*
X02908Y0324*
X02908Y03241*
X02908Y03242*
X02908Y03243*
X02907Y03244*
Y03244*
X02907Y03245*
X02907Y03245*
Y0326*
X02907Y0326*
X02907Y03261*
Y03261*
X02908Y03262*
X02908Y03263*
X02908Y03264*
X02908Y03265*
X02909Y03265*
X02909Y03266*
X0291Y03267*
X02911Y03268*
X02911Y03268*
X02911Y03268*
X02911Y03268*
X02912Y03269*
X02913Y03269*
X02914Y0327*
X02915Y0327*
X02916Y0327*
X02917Y0327*
X02917*
X02917Y0327*
X02918Y0327*
X02929*
X0293Y0327*
G37*
G36*
X02879Y03317D02*
X02808D01*
Y03388*
X02879*
Y03317*
G37*
G36*
X03679D02*
X03608D01*
Y03388*
X03679*
Y03317*
G37*
G36*
X03509Y03322D02*
X03418D01*
Y03367*
X03509*
Y03322*
G37*
G36*
X0335Y03367D02*
X03351Y03366D01*
X03351Y03366*
X03352Y03366*
X03353Y03365*
X03353Y03364*
X03353Y03363*
X03353Y03362*
Y03344*
X03353Y03343*
X03353Y03342*
X03353Y03342*
X03352Y03341*
X03351Y0334*
X03351Y0334*
X0335Y0334*
X03349Y0334*
X03329*
X03328Y0334*
X03327Y0334*
X03326Y0334*
X03325Y03341*
X03325Y03342*
X03325Y03342*
X03324Y03343*
X03324Y03344*
Y03362*
X03324Y03363*
X03325Y03364*
X03325Y03365*
X03325Y03366*
X03326Y03366*
X03327Y03366*
X03328Y03367*
X03329Y03367*
X03349*
X0335Y03367*
G37*
G36*
X0323D02*
X03231Y03366D01*
X03231Y03366*
X03232Y03366*
X03233Y03365*
X03233Y03364*
X03233Y03363*
X03233Y03362*
Y03344*
X03233Y03343*
X03233Y03342*
X03233Y03342*
X03232Y03341*
X03231Y0334*
X03231Y0334*
X0323Y0334*
X03229Y0334*
X03209*
X03208Y0334*
X03207Y0334*
X03206Y0334*
X03205Y03341*
X03205Y03342*
X03205Y03342*
X03204Y03343*
X03204Y03344*
Y03362*
X03204Y03363*
X03205Y03364*
X03205Y03365*
X03205Y03366*
X03206Y03366*
X03207Y03366*
X03208Y03367*
X03209Y03367*
X03229*
X0323Y03367*
G37*
G36*
X0335Y03405D02*
X03351Y03405D01*
X03351Y03404*
X03352Y03404*
X03353Y03403*
X03353Y03402*
X03353Y03402*
X03353Y034*
Y03382*
X03353Y03381*
X03353Y0338*
X03353Y0338*
X03352Y03379*
X03351Y03379*
X03351Y03378*
X0335Y03378*
X03349Y03378*
X03329*
X03328Y03378*
X03327Y03378*
X03326Y03379*
X03325Y03379*
X03325Y0338*
X03325Y0338*
X03324Y03381*
X03324Y03382*
Y034*
X03324Y03402*
X03325Y03402*
X03325Y03403*
X03325Y03404*
X03326Y03404*
X03327Y03405*
X03328Y03405*
X03329Y03405*
X03349*
X0335Y03405*
G37*
G36*
X0323D02*
X03231Y03405D01*
X03231Y03404*
X03232Y03404*
X03233Y03403*
X03233Y03402*
X03233Y03402*
X03233Y034*
Y03382*
X03233Y03381*
X03233Y0338*
X03233Y0338*
X03232Y03379*
X03231Y03379*
X03231Y03378*
X0323Y03378*
X03229Y03378*
X03209*
X03208Y03378*
X03207Y03378*
X03206Y03379*
X03205Y03379*
X03205Y0338*
X03205Y0338*
X03204Y03381*
X03204Y03382*
Y034*
X03204Y03402*
X03205Y03402*
X03205Y03403*
X03205Y03404*
X03206Y03404*
X03207Y03405*
X03208Y03405*
X03209Y03405*
X03229*
X0323Y03405*
G37*
G36*
X03545Y03381D02*
X03501D01*
Y03424*
X03545*
Y03381*
G37*
G36*
X03397Y03488D02*
X03397Y03488D01*
X03397*
X03398Y03488*
X03399Y03488*
X034Y03487*
X03401Y03487*
X03402Y03487*
X03403Y03486*
X03403Y03486*
X03403Y03486*
X03403Y03485*
X03404Y03485*
X03405Y03484*
X03405Y03483*
X03406Y03482*
X03406Y03481*
X03406Y0348*
X03407Y03479*
X03407Y03479*
Y03478*
X03407Y03478*
X03407Y03478*
Y03466*
X03407Y03466*
X03407Y03465*
X03406Y03465*
X03406Y03465*
X03406Y03464*
X03405Y03463*
Y03462*
X03406Y03461*
X03406Y0346*
X03406Y0346*
X03406Y03459*
X03407Y03459*
X03407Y03458*
Y03447*
X03407Y03447*
X03407Y03446*
Y03446*
X03406Y03445*
X03406Y03444*
X03406Y03443*
X03406Y03442*
X03405Y03441*
X03405Y0344*
X03405Y03439*
X03406Y03438*
X03406Y03437*
X03407Y03434*
Y03431*
X03406Y0343*
X03406Y03429*
X03406Y03428*
X03407Y03427*
X03407Y03426*
X03408Y03425*
X03409Y03425*
X03409Y03424*
X0341Y03424*
X03411Y03424*
X03426*
Y03381*
X03383*
Y03412*
X03383Y03413*
X03383Y03414*
X03382Y03415*
X03382Y03416*
X03381Y03416*
X03381Y03416*
X0338Y03417*
X03377Y03419*
X03375Y03421*
X03373Y03424*
X03373Y03424*
X03372Y03427*
X03371Y03431*
Y03434*
X03372Y03437*
X03372Y03438*
X03372Y03439*
X03372Y0344*
X03372Y03441*
X03372Y03442*
X03372Y03443*
X03371Y03444*
X03371Y03445*
X03371Y03446*
Y03446*
X03371Y03447*
X03371Y03447*
Y03458*
X03371Y03459*
X03371Y03459*
X03372Y0346*
X03372Y0346*
X03372Y03461*
X03372Y03462*
Y03463*
X03372Y03464*
X03372Y03465*
X03372Y03465*
X03371Y03465*
X03371Y03466*
X03371Y03466*
Y03478*
X03371Y03478*
X03371Y03478*
Y03479*
X03371Y03479*
X03371Y0348*
X03372Y03481*
X03372Y03482*
X03373Y03483*
X03373Y03484*
X03374Y03485*
X03374Y03485*
X03375Y03486*
X03375Y03486*
X03375Y03486*
X03376Y03487*
X03377Y03487*
X03378Y03487*
X03379Y03488*
X0338Y03488*
X0338Y03488*
X03381*
X03381Y03488*
X03381Y03488*
X03397*
X03397Y03488*
G37*
G36*
X03271Y03417D02*
X03272Y03417D01*
X03272Y03416*
X03273Y03416*
X03273Y03415*
X03274Y03414*
X03274Y03413*
X03274Y03412*
Y03392*
X03274Y03391*
X03274Y0339*
X03273Y0339*
X03273Y03389*
X03272Y03388*
X03272Y03388*
X03271Y03388*
X0327Y03388*
X03252*
X0325Y03388*
X0325Y03388*
X03249Y03388*
X03248Y03389*
X03248Y0339*
X03247Y0339*
X03247Y03391*
X03247Y03392*
Y03412*
X03247Y03413*
X03247Y03414*
X03248Y03415*
X03248Y03416*
X03249Y03416*
X0325Y03417*
X0325Y03417*
X03252Y03417*
X0327*
X03271Y03417*
G37*
G36*
X03309D02*
X0331Y03417D01*
X0331Y03416*
X03311Y03416*
X03312Y03415*
X03312Y03414*
X03312Y03413*
X03312Y03412*
Y03392*
X03312Y03391*
X03312Y0339*
X03312Y0339*
X03311Y03389*
X0331Y03388*
X0331Y03388*
X03309Y03388*
X03308Y03388*
X0329*
X03289Y03388*
X03288Y03388*
X03287Y03388*
X03286Y03389*
X03286Y0339*
X03286Y0339*
X03285Y03391*
X03285Y03392*
Y03412*
X03285Y03413*
X03286Y03414*
X03286Y03415*
X03286Y03416*
X03287Y03416*
X03288Y03417*
X03289Y03417*
X0329Y03417*
X03308*
X03309Y03417*
G37*
G36*
X03509Y03438D02*
X03418D01*
Y03483*
X03509*
Y03438*
G37*
M02*