%FSTAX23Y23*%
%MOIN*%
%SFA1B1*%

%IPPOS*%
%ADD20C,0.011811*%
%ADD21C,0.004724*%
%ADD22C,0.043386*%
%ADD23C,0.023701*%
%ADD24O,0.070945X0.070945*%
%ADD25R,0.070945X0.070945*%
%ADD44C,0.005000*%
G54D20*
X00964Y008D02*
X01015Y00724D01*
G54D44*
X0Y0D02*
X03936D01*
Y03936*
X0*
Y0*
G54D20*
X00911Y00738D02*
X0093Y00766D01*
X00944Y00738D02*
Y00797D01*
X00922*
X00916Y00794*
X00914Y00791*
X00911Y00786*
Y00777*
X00914Y00772*
X00916Y00769*
X00922Y00766*
X00944*
X00885Y00769D02*
X00866D01*
X00857Y00738D02*
X00885D01*
Y00797*
X00857*
X00835Y00741D02*
X00826Y00738D01*
X00812*
X00807Y00741*
X00804Y00743*
X00801Y00749*
Y00755*
X00804Y0076*
X00807Y00763*
X00812Y00766*
X00824Y00769*
X00829Y00772*
X00832Y00774*
X00835Y0078*
Y00786*
X00832Y00791*
X00829Y00794*
X00824Y00797*
X0081*
X00801Y00794*
X01015Y00697D02*
X00981D01*
X00998Y00637D02*
Y00697D01*
X00967Y00637D02*
X00936Y00677D01*
X00967D02*
X00936Y00637D01*
X00883D02*
X00916D01*
X009D02*
Y00697D01*
X00905Y00688*
X00911Y00682*
X00916Y0068*
X00973Y00537D02*
X00992Y00565D01*
X01006Y00537D02*
Y00596D01*
X00984*
X00978Y00593*
X00975Y00591*
X00973Y00585*
Y00576*
X00975Y00571*
X00978Y00568*
X00984Y00565*
X01006*
X00953Y00537D02*
X00922Y00576D01*
X00953D02*
X00922Y00537D01*
X00869D02*
X00902D01*
X00885D02*
Y00596D01*
X00891Y00588*
X00897Y00582*
X00902Y00579*
X00973Y00437D02*
X00992Y00465D01*
X01006Y00437D02*
Y00496D01*
X00984*
X00978Y00493*
X00975Y0049*
X00973Y00484*
Y00476*
X00975Y0047*
X00978Y00468*
X00984Y00465*
X01006*
X00956Y00496D02*
X00922D01*
X00939Y00437D02*
Y00496D01*
X00905Y00439D02*
X00897Y00437D01*
X00883*
X00877Y00439*
X00874Y00442*
X00871Y00448*
Y00454*
X00874Y00459*
X00877Y00462*
X00883Y00465*
X00894Y00468*
X009Y0047*
X00902Y00473*
X00905Y00479*
Y00484*
X00902Y0049*
X009Y00493*
X00894Y00496*
X0088*
X00871Y00493*
X00973Y00342D02*
X00975Y00339D01*
X00984Y00336*
X00989*
X00998Y00339*
X01004Y00345*
X01006Y0035*
X01009Y00362*
Y0037*
X01006Y00381*
X01004Y00387*
X00998Y00393*
X00989Y00395*
X00984*
X00975Y00393*
X00973Y0039*
X00956Y00395D02*
X00922D01*
X00939Y00336D02*
Y00395D01*
X00905Y00339D02*
X00897Y00336D01*
X00883*
X00877Y00339*
X00874Y00342*
X00871Y00348*
Y00353*
X00874Y00359*
X00877Y00362*
X00883Y00364*
X00894Y00367*
X009Y0037*
X00902Y00373*
X00905Y00378*
Y00384*
X00902Y0039*
X009Y00393*
X00894Y00395*
X0088*
X00871Y00393*
X01006Y00236D02*
Y00295D01*
X00984*
X00978Y00292*
X00975Y00289*
X00973Y00284*
Y00275*
X00975Y0027*
X00978Y00267*
X00984Y00264*
X01006*
X00928Y00267D02*
X00919Y00264D01*
X00916Y00261*
X00914Y00256*
Y00247*
X00916Y00242*
X00919Y00239*
X00925Y00236*
X00947*
Y00295*
X00928*
X00922Y00292*
X00919Y00289*
X00916Y00284*
Y00278*
X00919Y00272*
X00922Y0027*
X00928Y00267*
X00947*
X0088Y0027D02*
X00885Y00272D01*
X00888Y00275*
X00891Y00281*
Y00284*
X00888Y00289*
X00885Y00292*
X0088Y00295*
X00869*
X00863Y00292*
X0086Y00289*
X00857Y00284*
Y00281*
X0086Y00275*
X00863Y00272*
X00869Y0027*
X0088*
X00885Y00267*
X00888Y00264*
X00891Y00258*
Y00247*
X00888Y00242*
X00885Y00239*
X0088Y00236*
X00869*
X00863Y00239*
X0086Y00242*
X00857Y00247*
Y00258*
X0086Y00264*
X00863Y00267*
X00869Y0027*
X00501Y00794D02*
X00506Y00797D01*
X00515*
X00523Y00794*
X00529Y00788*
X00532Y00783*
X00535Y00772*
Y00763*
X00532Y00752*
X00529Y00746*
X00523Y00741*
X00515Y00738*
X00509*
X00501Y00741*
X00498Y00743*
Y00763*
X00509*
X00473Y00738D02*
Y00797D01*
X00439Y00738*
Y00797*
X00411Y00738D02*
Y00797D01*
X00397*
X00388Y00794*
X00383Y00788*
X0038Y00783*
X00377Y00772*
Y00763*
X0038Y00752*
X00383Y00746*
X00388Y00741*
X00397Y00738*
X00411*
X00512Y00654D02*
X00484D01*
X00518Y00637D02*
X00498Y00697D01*
X00478Y00637*
X00459D02*
Y00697D01*
X00425Y00637*
Y00697*
X00405D02*
X00371D01*
X00388Y00637D02*
Y00697D01*
X00501Y00593D02*
X00506Y00596D01*
X00515*
X00523Y00593*
X00529Y00588*
X00532Y00582*
X00535Y00571*
Y00562*
X00532Y00551*
X00529Y00546*
X00523Y0054*
X00515Y00537*
X00509*
X00501Y0054*
X00498Y00543*
Y00562*
X00509*
X00473Y00537D02*
Y00596D01*
X00439Y00537*
Y00596*
X00411Y00537D02*
Y00596D01*
X00397*
X00388Y00593*
X00383Y00588*
X0038Y00582*
X00377Y00571*
Y00562*
X0038Y00551*
X00383Y00546*
X00388Y0054*
X00397Y00537*
X00411*
X00529Y00496D02*
X00509Y00437D01*
X0049Y00496*
X00436Y00442D02*
X00439Y00439D01*
X00447Y00437*
X00453*
X00461Y00439*
X00467Y00445*
X0047Y00451*
X00473Y00462*
Y0047*
X0047Y00482*
X00467Y00487*
X00461Y00493*
X00453Y00496*
X00447*
X00439Y00493*
X00436Y0049*
X00377Y00442D02*
X0038Y00439D01*
X00388Y00437*
X00394*
X00402Y00439*
X00408Y00445*
X00411Y00451*
X00414Y00462*
Y0047*
X00411Y00482*
X00408Y00487*
X00402Y00493*
X00394Y00496*
X00388*
X0038Y00493*
X00377Y0049*
X00453Y00395D02*
X00419D01*
X00436Y00336D02*
Y00395D01*
X00405Y00336D02*
X00374Y00376D01*
X00405D02*
X00374Y00336D01*
X00425Y00236D02*
X00445Y00264D01*
X00459Y00236D02*
Y00295D01*
X00436*
X0043Y00292*
X00428Y00289*
X00425Y00284*
Y00275*
X00428Y0027*
X0043Y00267*
X00436Y00264*
X00459*
X00405Y00236D02*
X00374Y00275D01*
X00405D02*
X00374Y00236D01*
G54D21*
X00345Y00816D02*
X00293D01*
X00345Y00764D02*
Y00816D01*
Y00714D02*
X00241D01*
Y00211D01*
X00345Y00714D02*
Y00211D01*
X00241D01*
X01145D02*
X01041D01*
X01145Y00714D02*
Y00211D01*
X01041Y00714D02*
Y00211D01*
X01145Y00714D02*
X01041D01*
X01145Y00764D02*
Y00816D01*
X01093D01*
G54D20*
X02239Y008D02*
X0229Y00724D01*
X02186Y00738D02*
X02205Y00766D01*
X02219Y00738D02*
Y00797D01*
X02197*
X02191Y00794*
X02188Y00791*
X02186Y00786*
Y00777*
X02188Y00772*
X02191Y00769*
X02197Y00766*
X02219*
X0216Y00769D02*
X02141D01*
X02132Y00738D02*
X0216D01*
Y00797*
X02132*
X0211Y00741D02*
X02101Y00738D01*
X02087*
X02082Y00741*
X02079Y00743*
X02076Y00749*
Y00755*
X02079Y0076*
X02082Y00763*
X02087Y00766*
X02098Y00769*
X02104Y00772*
X02107Y00774*
X0211Y0078*
Y00786*
X02107Y00791*
X02104Y00794*
X02098Y00797*
X02084*
X02076Y00794*
X0229Y00697D02*
X02256D01*
X02273Y00637D02*
Y00697D01*
X02242Y00637D02*
X02211Y00677D01*
X02242D02*
X02211Y00637D01*
X02157D02*
X02191D01*
X02174D02*
Y00697D01*
X0218Y00688*
X02186Y00682*
X02191Y0068*
X02247Y00537D02*
X02267Y00565D01*
X02281Y00537D02*
Y00596D01*
X02259*
X02253Y00593*
X0225Y00591*
X02247Y00585*
Y00576*
X0225Y00571*
X02253Y00568*
X02259Y00565*
X02281*
X02228Y00537D02*
X02197Y00576D01*
X02228D02*
X02197Y00537D01*
X02143D02*
X02177D01*
X0216D02*
Y00596D01*
X02166Y00588*
X02172Y00582*
X02177Y00579*
X02247Y00437D02*
X02267Y00465D01*
X02281Y00437D02*
Y00496D01*
X02259*
X02253Y00493*
X0225Y0049*
X02247Y00484*
Y00476*
X0225Y0047*
X02253Y00468*
X02259Y00465*
X02281*
X02231Y00496D02*
X02197D01*
X02214Y00437D02*
Y00496D01*
X0218Y00439D02*
X02172Y00437D01*
X02157*
X02152Y00439*
X02149Y00442*
X02146Y00448*
Y00454*
X02149Y00459*
X02152Y00462*
X02157Y00465*
X02169Y00468*
X02174Y0047*
X02177Y00473*
X0218Y00479*
Y00484*
X02177Y0049*
X02174Y00493*
X02169Y00496*
X02155*
X02146Y00493*
X02247Y00342D02*
X0225Y00339D01*
X02259Y00336*
X02264*
X02273Y00339*
X02278Y00345*
X02281Y0035*
X02284Y00362*
Y0037*
X02281Y00381*
X02278Y00387*
X02273Y00393*
X02264Y00395*
X02259*
X0225Y00393*
X02247Y0039*
X02231Y00395D02*
X02197D01*
X02214Y00336D02*
Y00395D01*
X0218Y00339D02*
X02172Y00336D01*
X02157*
X02152Y00339*
X02149Y00342*
X02146Y00348*
Y00353*
X02149Y00359*
X02152Y00362*
X02157Y00364*
X02169Y00367*
X02174Y0037*
X02177Y00373*
X0218Y00378*
Y00384*
X02177Y0039*
X02174Y00393*
X02169Y00395*
X02155*
X02146Y00393*
X02281Y00236D02*
Y00295D01*
X02259*
X02253Y00292*
X0225Y00289*
X02247Y00284*
Y00275*
X0225Y0027*
X02253Y00267*
X02259Y00264*
X02281*
X02202Y00267D02*
X02194Y00264D01*
X02191Y00261*
X02188Y00256*
Y00247*
X02191Y00242*
X02194Y00239*
X022Y00236*
X02222*
Y00295*
X02202*
X02197Y00292*
X02194Y00289*
X02191Y00284*
Y00278*
X02194Y00272*
X02197Y0027*
X02202Y00267*
X02222*
X02155Y0027D02*
X0216Y00272D01*
X02163Y00275*
X02166Y00281*
Y00284*
X02163Y00289*
X0216Y00292*
X02155Y00295*
X02143*
X02138Y00292*
X02135Y00289*
X02132Y00284*
Y00281*
X02135Y00275*
X02138Y00272*
X02143Y0027*
X02155*
X0216Y00267*
X02163Y00264*
X02166Y00258*
Y00247*
X02163Y00242*
X0216Y00239*
X02155Y00236*
X02143*
X02138Y00239*
X02135Y00242*
X02132Y00247*
Y00258*
X02135Y00264*
X02138Y00267*
X02143Y0027*
X01777Y00794D02*
X01782Y00797D01*
X01791*
X01799Y00794*
X01805Y00788*
X01808Y00783*
X0181Y00772*
Y00763*
X01808Y00752*
X01805Y00746*
X01799Y00741*
X01791Y00738*
X01785*
X01777Y00741*
X01774Y00743*
Y00763*
X01785*
X01748Y00738D02*
Y00797D01*
X01715Y00738*
Y00797*
X01687Y00738D02*
Y00797D01*
X01673*
X01664Y00794*
X01659Y00788*
X01656Y00783*
X01653Y00772*
Y00763*
X01656Y00752*
X01659Y00746*
X01664Y00741*
X01673Y00738*
X01687*
X01788Y00654D02*
X0176D01*
X01793Y00637D02*
X01774Y00697D01*
X01754Y00637*
X01734D02*
Y00697D01*
X01701Y00637*
Y00697*
X01681D02*
X01647D01*
X01664Y00637D02*
Y00697D01*
X01777Y00593D02*
X01782Y00596D01*
X01791*
X01799Y00593*
X01805Y00588*
X01808Y00582*
X0181Y00571*
Y00562*
X01808Y00551*
X01805Y00546*
X01799Y0054*
X01791Y00537*
X01785*
X01777Y0054*
X01774Y00543*
Y00562*
X01785*
X01748Y00537D02*
Y00596D01*
X01715Y00537*
Y00596*
X01687Y00537D02*
Y00596D01*
X01673*
X01664Y00593*
X01659Y00588*
X01656Y00582*
X01653Y00571*
Y00562*
X01656Y00551*
X01659Y00546*
X01664Y0054*
X01673Y00537*
X01687*
X01805Y00496D02*
X01785Y00437D01*
X01765Y00496*
X01712Y00442D02*
X01715Y00439D01*
X01723Y00437*
X01729*
X01737Y00439*
X01743Y00445*
X01746Y00451*
X01748Y00462*
Y0047*
X01746Y00482*
X01743Y00487*
X01737Y00493*
X01729Y00496*
X01723*
X01715Y00493*
X01712Y0049*
X01653Y00442D02*
X01656Y00439D01*
X01664Y00437*
X0167*
X01678Y00439*
X01684Y00445*
X01687Y00451*
X01689Y00462*
Y0047*
X01687Y00482*
X01684Y00487*
X01678Y00493*
X0167Y00496*
X01664*
X01656Y00493*
X01653Y0049*
X01729Y00395D02*
X01695D01*
X01712Y00336D02*
Y00395D01*
X01681Y00336D02*
X0165Y00376D01*
X01681D02*
X0165Y00336D01*
X01701Y00236D02*
X0172Y00264D01*
X01734Y00236D02*
Y00295D01*
X01712*
X01706Y00292*
X01703Y00289*
X01701Y00284*
Y00275*
X01703Y0027*
X01706Y00267*
X01712Y00264*
X01734*
X01681Y00236D02*
X0165Y00275D01*
X01681D02*
X0165Y00236D01*
G54D21*
X01621Y00816D02*
X01569D01*
X01621Y00764D02*
Y00816D01*
Y00714D02*
X01517D01*
Y00211D01*
X01621Y00714D02*
Y00211D01*
X01517D01*
X0242D02*
X02316D01*
X0242Y00714D02*
Y00211D01*
X02316Y00714D02*
Y00211D01*
X0242Y00714D02*
X02316D01*
X0242Y00764D02*
Y00816D01*
X02368D01*
G54D20*
X03515Y008D02*
X03565Y00724D01*
X03461Y00738D02*
X03481Y00766D01*
X03495Y00738D02*
Y00797D01*
X03473*
X03467Y00794*
X03464Y00791*
X03461Y00786*
Y00777*
X03464Y00772*
X03467Y00769*
X03473Y00766*
X03495*
X03436Y00769D02*
X03416D01*
X03408Y00738D02*
X03436D01*
Y00797*
X03408*
X03386Y00741D02*
X03377Y00738D01*
X03363*
X03357Y00741*
X03355Y00743*
X03352Y00749*
Y00755*
X03355Y0076*
X03357Y00763*
X03363Y00766*
X03374Y00769*
X0338Y00772*
X03383Y00774*
X03386Y0078*
Y00786*
X03383Y00791*
X0338Y00794*
X03374Y00797*
X0336*
X03352Y00794*
X03565Y00697D02*
X03532D01*
X03549Y00637D02*
Y00697D01*
X03518Y00637D02*
X03487Y00677D01*
X03518D02*
X03487Y00637D01*
X03433D02*
X03467D01*
X0345D02*
Y00697D01*
X03456Y00688*
X03461Y00682*
X03467Y0068*
X03523Y00537D02*
X03543Y00565D01*
X03557Y00537D02*
Y00596D01*
X03535*
X03529Y00593*
X03526Y00591*
X03523Y00585*
Y00576*
X03526Y00571*
X03529Y00568*
X03535Y00565*
X03557*
X03504Y00537D02*
X03473Y00576D01*
X03504D02*
X03473Y00537D01*
X03419D02*
X03453D01*
X03436D02*
Y00596D01*
X03442Y00588*
X03447Y00582*
X03453Y00579*
X03523Y00437D02*
X03543Y00465D01*
X03557Y00437D02*
Y00496D01*
X03535*
X03529Y00493*
X03526Y0049*
X03523Y00484*
Y00476*
X03526Y0047*
X03529Y00468*
X03535Y00465*
X03557*
X03506Y00496D02*
X03473D01*
X0349Y00437D02*
Y00496D01*
X03456Y00439D02*
X03447Y00437D01*
X03433*
X03428Y00439*
X03425Y00442*
X03422Y00448*
Y00454*
X03425Y00459*
X03428Y00462*
X03433Y00465*
X03445Y00468*
X0345Y0047*
X03453Y00473*
X03456Y00479*
Y00484*
X03453Y0049*
X0345Y00493*
X03445Y00496*
X03431*
X03422Y00493*
X03523Y00342D02*
X03526Y00339D01*
X03535Y00336*
X0354*
X03549Y00339*
X03554Y00345*
X03557Y0035*
X0356Y00362*
Y0037*
X03557Y00381*
X03554Y00387*
X03549Y00393*
X0354Y00395*
X03535*
X03526Y00393*
X03523Y0039*
X03506Y00395D02*
X03473D01*
X0349Y00336D02*
Y00395D01*
X03456Y00339D02*
X03447Y00336D01*
X03433*
X03428Y00339*
X03425Y00342*
X03422Y00348*
Y00353*
X03425Y00359*
X03428Y00362*
X03433Y00364*
X03445Y00367*
X0345Y0037*
X03453Y00373*
X03456Y00378*
Y00384*
X03453Y0039*
X0345Y00393*
X03445Y00395*
X03431*
X03422Y00393*
X03557Y00236D02*
Y00295D01*
X03535*
X03529Y00292*
X03526Y00289*
X03523Y00284*
Y00275*
X03526Y0027*
X03529Y00267*
X03535Y00264*
X03557*
X03478Y00267D02*
X0347Y00264D01*
X03467Y00261*
X03464Y00256*
Y00247*
X03467Y00242*
X0347Y00239*
X03476Y00236*
X03498*
Y00295*
X03478*
X03473Y00292*
X0347Y00289*
X03467Y00284*
Y00278*
X0347Y00272*
X03473Y0027*
X03478Y00267*
X03498*
X03431Y0027D02*
X03436Y00272D01*
X03439Y00275*
X03442Y00281*
Y00284*
X03439Y00289*
X03436Y00292*
X03431Y00295*
X03419*
X03414Y00292*
X03411Y00289*
X03408Y00284*
Y00281*
X03411Y00275*
X03414Y00272*
X03419Y0027*
X03431*
X03436Y00267*
X03439Y00264*
X03442Y00258*
Y00247*
X03439Y00242*
X03436Y00239*
X03431Y00236*
X03419*
X03414Y00239*
X03411Y00242*
X03408Y00247*
Y00258*
X03411Y00264*
X03414Y00267*
X03419Y0027*
X03051Y00794D02*
X03057Y00797D01*
X03066*
X03074Y00794*
X0308Y00788*
X03082Y00783*
X03085Y00772*
Y00763*
X03082Y00752*
X0308Y00746*
X03074Y00741*
X03066Y00738*
X0306*
X03051Y00741*
X03049Y00743*
Y00763*
X0306*
X03023Y00738D02*
Y00797D01*
X0299Y00738*
Y00797*
X02961Y00738D02*
Y00797D01*
X02947*
X02939Y00794*
X02933Y00788*
X02931Y00783*
X02928Y00772*
Y00763*
X02931Y00752*
X02933Y00746*
X02939Y00741*
X02947Y00738*
X02961*
X03063Y00654D02*
X03035D01*
X03068Y00637D02*
X03049Y00697D01*
X03029Y00637*
X03009D02*
Y00697D01*
X02976Y00637*
Y00697*
X02956D02*
X02922D01*
X02939Y00637D02*
Y00697D01*
X03051Y00593D02*
X03057Y00596D01*
X03066*
X03074Y00593*
X0308Y00588*
X03082Y00582*
X03085Y00571*
Y00562*
X03082Y00551*
X0308Y00546*
X03074Y0054*
X03066Y00537*
X0306*
X03051Y0054*
X03049Y00543*
Y00562*
X0306*
X03023Y00537D02*
Y00596D01*
X0299Y00537*
Y00596*
X02961Y00537D02*
Y00596D01*
X02947*
X02939Y00593*
X02933Y00588*
X02931Y00582*
X02928Y00571*
Y00562*
X02931Y00551*
X02933Y00546*
X02939Y0054*
X02947Y00537*
X02961*
X0308Y00496D02*
X0306Y00437D01*
X0304Y00496*
X02987Y00442D02*
X0299Y00439D01*
X02998Y00437*
X03004*
X03012Y00439*
X03018Y00445*
X03021Y00451*
X03023Y00462*
Y0047*
X03021Y00482*
X03018Y00487*
X03012Y00493*
X03004Y00496*
X02998*
X0299Y00493*
X02987Y0049*
X02928Y00442D02*
X02931Y00439D01*
X02939Y00437*
X02945*
X02953Y00439*
X02959Y00445*
X02961Y00451*
X02964Y00462*
Y0047*
X02961Y00482*
X02959Y00487*
X02953Y00493*
X02945Y00496*
X02939*
X02931Y00493*
X02928Y0049*
X03004Y00395D02*
X0297D01*
X02987Y00336D02*
Y00395D01*
X02956Y00336D02*
X02925Y00376D01*
X02956D02*
X02925Y00336D01*
X02976Y00236D02*
X02995Y00264D01*
X03009Y00236D02*
Y00295D01*
X02987*
X02981Y00292*
X02978Y00289*
X02976Y00284*
Y00275*
X02978Y0027*
X02981Y00267*
X02987Y00264*
X03009*
X02956Y00236D02*
X02925Y00275D01*
X02956D02*
X02925Y00236D01*
G54D21*
X02896Y00816D02*
X02844D01*
X02896Y00764D02*
Y00816D01*
Y00714D02*
X02791D01*
Y00211D01*
X02896Y00714D02*
Y00211D01*
X02791D01*
X03696D02*
X03591D01*
X03696Y00714D02*
Y00211D01*
X03591Y00714D02*
Y00211D01*
X03696Y00714D02*
X03591D01*
X03696Y00764D02*
Y00816D01*
X03644D01*
G54D20*
X00964Y02094D02*
X01015Y02018D01*
X00911Y02032D02*
X0093Y0206D01*
X00944Y02032D02*
Y02091D01*
X00922*
X00916Y02088*
X00914Y02085*
X00911Y0208*
Y02071*
X00914Y02065*
X00916Y02063*
X00922Y0206*
X00944*
X00885Y02063D02*
X00866D01*
X00857Y02032D02*
X00885D01*
Y02091*
X00857*
X00835Y02035D02*
X00826Y02032D01*
X00812*
X00807Y02035*
X00804Y02037*
X00801Y02043*
Y02049*
X00804Y02054*
X00807Y02057*
X00812Y0206*
X00824Y02063*
X00829Y02065*
X00832Y02068*
X00835Y02074*
Y0208*
X00832Y02085*
X00829Y02088*
X00824Y02091*
X0081*
X00801Y02088*
X01015Y0199D02*
X00981D01*
X00998Y01932D02*
Y0199D01*
X00967Y01932D02*
X00936Y01971D01*
X00967D02*
X00936Y01932D01*
X00883D02*
X00916D01*
X009D02*
Y0199D01*
X00905Y01982*
X00911Y01976*
X00916Y01974*
X00973Y01832D02*
X00992Y0186D01*
X01006Y01832D02*
Y01891D01*
X00984*
X00978Y01888*
X00975Y01885*
X00973Y0188*
Y01871*
X00975Y01866*
X00978Y01863*
X00984Y0186*
X01006*
X00953Y01832D02*
X00922Y01871D01*
X00953D02*
X00922Y01832D01*
X00869D02*
X00902D01*
X00885D02*
Y01891D01*
X00891Y01883*
X00897Y01877*
X00902Y01874*
X00973Y01732D02*
X00992Y0176D01*
X01006Y01732D02*
Y01791D01*
X00984*
X00978Y01788*
X00975Y01785*
X00973Y01779*
Y01771*
X00975Y01765*
X00978Y01762*
X00984Y0176*
X01006*
X00956Y01791D02*
X00922D01*
X00939Y01732D02*
Y01791D01*
X00905Y01734D02*
X00897Y01732D01*
X00883*
X00877Y01734*
X00874Y01737*
X00871Y01743*
Y01748*
X00874Y01754*
X00877Y01757*
X00883Y0176*
X00894Y01762*
X009Y01765*
X00902Y01768*
X00905Y01774*
Y01779*
X00902Y01785*
X009Y01788*
X00894Y01791*
X0088*
X00871Y01788*
X00973Y01637D02*
X00975Y01634D01*
X00984Y01631*
X00989*
X00998Y01634*
X01004Y0164*
X01006Y01645*
X01009Y01656*
Y01665*
X01006Y01676*
X01004Y01682*
X00998Y01687*
X00989Y0169*
X00984*
X00975Y01687*
X00973Y01685*
X00956Y0169D02*
X00922D01*
X00939Y01631D02*
Y0169D01*
X00905Y01634D02*
X00897Y01631D01*
X00883*
X00877Y01634*
X00874Y01637*
X00871Y01642*
Y01648*
X00874Y01654*
X00877Y01656*
X00883Y01659*
X00894Y01662*
X009Y01665*
X00902Y01668*
X00905Y01673*
Y01679*
X00902Y01685*
X009Y01687*
X00894Y0169*
X0088*
X00871Y01687*
X01006Y01531D02*
Y0159D01*
X00984*
X00978Y01587*
X00975Y01584*
X00973Y01579*
Y0157*
X00975Y01564*
X00978Y01562*
X00984Y01559*
X01006*
X00928Y01562D02*
X00919Y01559D01*
X00916Y01556*
X00914Y0155*
Y01542*
X00916Y01536*
X00919Y01534*
X00925Y01531*
X00947*
Y0159*
X00928*
X00922Y01587*
X00919Y01584*
X00916Y01579*
Y01573*
X00919Y01567*
X00922Y01564*
X00928Y01562*
X00947*
X0088Y01564D02*
X00885Y01567D01*
X00888Y0157*
X00891Y01576*
Y01579*
X00888Y01584*
X00885Y01587*
X0088Y0159*
X00869*
X00863Y01587*
X0086Y01584*
X00857Y01579*
Y01576*
X0086Y0157*
X00863Y01567*
X00869Y01564*
X0088*
X00885Y01562*
X00888Y01559*
X00891Y01553*
Y01542*
X00888Y01536*
X00885Y01534*
X0088Y01531*
X00869*
X00863Y01534*
X0086Y01536*
X00857Y01542*
Y01553*
X0086Y01559*
X00863Y01562*
X00869Y01564*
X00501Y02088D02*
X00506Y02091D01*
X00515*
X00523Y02088*
X00529Y02082*
X00532Y02077*
X00535Y02065*
Y02057*
X00532Y02046*
X00529Y0204*
X00523Y02035*
X00515Y02032*
X00509*
X00501Y02035*
X00498Y02037*
Y02057*
X00509*
X00473Y02032D02*
Y02091D01*
X00439Y02032*
Y02091*
X00411Y02032D02*
Y02091D01*
X00397*
X00388Y02088*
X00383Y02082*
X0038Y02077*
X00377Y02065*
Y02057*
X0038Y02046*
X00383Y0204*
X00388Y02035*
X00397Y02032*
X00411*
X00512Y01949D02*
X00484D01*
X00518Y01932D02*
X00498Y0199D01*
X00478Y01932*
X00459D02*
Y0199D01*
X00425Y01932*
Y0199*
X00405D02*
X00371D01*
X00388Y01932D02*
Y0199D01*
X00501Y01888D02*
X00506Y01891D01*
X00515*
X00523Y01888*
X00529Y01883*
X00532Y01877*
X00535Y01866*
Y01857*
X00532Y01846*
X00529Y0184*
X00523Y01835*
X00515Y01832*
X00509*
X00501Y01835*
X00498Y01838*
Y01857*
X00509*
X00473Y01832D02*
Y01891D01*
X00439Y01832*
Y01891*
X00411Y01832D02*
Y01891D01*
X00397*
X00388Y01888*
X00383Y01883*
X0038Y01877*
X00377Y01866*
Y01857*
X0038Y01846*
X00383Y0184*
X00388Y01835*
X00397Y01832*
X00411*
X00529Y01791D02*
X00509Y01732D01*
X0049Y01791*
X00436Y01737D02*
X00439Y01734D01*
X00447Y01732*
X00453*
X00461Y01734*
X00467Y0174*
X0047Y01746*
X00473Y01757*
Y01765*
X0047Y01777*
X00467Y01782*
X00461Y01788*
X00453Y01791*
X00447*
X00439Y01788*
X00436Y01785*
X00377Y01737D02*
X0038Y01734D01*
X00388Y01732*
X00394*
X00402Y01734*
X00408Y0174*
X00411Y01746*
X00414Y01757*
Y01765*
X00411Y01777*
X00408Y01782*
X00402Y01788*
X00394Y01791*
X00388*
X0038Y01788*
X00377Y01785*
X00453Y0169D02*
X00419D01*
X00436Y01631D02*
Y0169D01*
X00405Y01631D02*
X00374Y01671D01*
X00405D02*
X00374Y01631D01*
X00425Y01531D02*
X00445Y01559D01*
X00459Y01531D02*
Y0159D01*
X00436*
X0043Y01587*
X00428Y01584*
X00425Y01579*
Y0157*
X00428Y01564*
X0043Y01562*
X00436Y01559*
X00459*
X00405Y01531D02*
X00374Y0157D01*
X00405D02*
X00374Y01531D01*
G54D21*
X00345Y0211D02*
X00293D01*
X00345Y02057D02*
Y0211D01*
Y02007D02*
X00241D01*
Y01506D01*
X00345Y02007D02*
Y01506D01*
X00241D01*
X01145D02*
X01041D01*
X01145Y02007D02*
Y01506D01*
X01041Y02007D02*
Y01506D01*
X01145Y02007D02*
X01041D01*
X01145Y02057D02*
Y0211D01*
X01093D01*
G54D20*
X02239Y02094D02*
X0229Y02018D01*
X02186Y02032D02*
X02205Y0206D01*
X02219Y02032D02*
Y02091D01*
X02197*
X02191Y02088*
X02188Y02085*
X02186Y0208*
Y02071*
X02188Y02065*
X02191Y02063*
X02197Y0206*
X02219*
X0216Y02063D02*
X02141D01*
X02132Y02032D02*
X0216D01*
Y02091*
X02132*
X0211Y02035D02*
X02101Y02032D01*
X02087*
X02082Y02035*
X02079Y02037*
X02076Y02043*
Y02049*
X02079Y02054*
X02082Y02057*
X02087Y0206*
X02098Y02063*
X02104Y02065*
X02107Y02068*
X0211Y02074*
Y0208*
X02107Y02085*
X02104Y02088*
X02098Y02091*
X02084*
X02076Y02088*
X0229Y0199D02*
X02256D01*
X02273Y01932D02*
Y0199D01*
X02242Y01932D02*
X02211Y01971D01*
X02242D02*
X02211Y01932D01*
X02157D02*
X02191D01*
X02174D02*
Y0199D01*
X0218Y01982*
X02186Y01976*
X02191Y01974*
X02247Y01832D02*
X02267Y0186D01*
X02281Y01832D02*
Y01891D01*
X02259*
X02253Y01888*
X0225Y01885*
X02247Y0188*
Y01871*
X0225Y01866*
X02253Y01863*
X02259Y0186*
X02281*
X02228Y01832D02*
X02197Y01871D01*
X02228D02*
X02197Y01832D01*
X02143D02*
X02177D01*
X0216D02*
Y01891D01*
X02166Y01883*
X02172Y01877*
X02177Y01874*
X02247Y01732D02*
X02267Y0176D01*
X02281Y01732D02*
Y01791D01*
X02259*
X02253Y01788*
X0225Y01785*
X02247Y01779*
Y01771*
X0225Y01765*
X02253Y01762*
X02259Y0176*
X02281*
X02231Y01791D02*
X02197D01*
X02214Y01732D02*
Y01791D01*
X0218Y01734D02*
X02172Y01732D01*
X02157*
X02152Y01734*
X02149Y01737*
X02146Y01743*
Y01748*
X02149Y01754*
X02152Y01757*
X02157Y0176*
X02169Y01762*
X02174Y01765*
X02177Y01768*
X0218Y01774*
Y01779*
X02177Y01785*
X02174Y01788*
X02169Y01791*
X02155*
X02146Y01788*
X02247Y01637D02*
X0225Y01634D01*
X02259Y01631*
X02264*
X02273Y01634*
X02278Y0164*
X02281Y01645*
X02284Y01656*
Y01665*
X02281Y01676*
X02278Y01682*
X02273Y01687*
X02264Y0169*
X02259*
X0225Y01687*
X02247Y01685*
X02231Y0169D02*
X02197D01*
X02214Y01631D02*
Y0169D01*
X0218Y01634D02*
X02172Y01631D01*
X02157*
X02152Y01634*
X02149Y01637*
X02146Y01642*
Y01648*
X02149Y01654*
X02152Y01656*
X02157Y01659*
X02169Y01662*
X02174Y01665*
X02177Y01668*
X0218Y01673*
Y01679*
X02177Y01685*
X02174Y01687*
X02169Y0169*
X02155*
X02146Y01687*
X02281Y01531D02*
Y0159D01*
X02259*
X02253Y01587*
X0225Y01584*
X02247Y01579*
Y0157*
X0225Y01564*
X02253Y01562*
X02259Y01559*
X02281*
X02202Y01562D02*
X02194Y01559D01*
X02191Y01556*
X02188Y0155*
Y01542*
X02191Y01536*
X02194Y01534*
X022Y01531*
X02222*
Y0159*
X02202*
X02197Y01587*
X02194Y01584*
X02191Y01579*
Y01573*
X02194Y01567*
X02197Y01564*
X02202Y01562*
X02222*
X02155Y01564D02*
X0216Y01567D01*
X02163Y0157*
X02166Y01576*
Y01579*
X02163Y01584*
X0216Y01587*
X02155Y0159*
X02143*
X02138Y01587*
X02135Y01584*
X02132Y01579*
Y01576*
X02135Y0157*
X02138Y01567*
X02143Y01564*
X02155*
X0216Y01562*
X02163Y01559*
X02166Y01553*
Y01542*
X02163Y01536*
X0216Y01534*
X02155Y01531*
X02143*
X02138Y01534*
X02135Y01536*
X02132Y01542*
Y01553*
X02135Y01559*
X02138Y01562*
X02143Y01564*
X01777Y02088D02*
X01782Y02091D01*
X01791*
X01799Y02088*
X01805Y02082*
X01808Y02077*
X0181Y02065*
Y02057*
X01808Y02046*
X01805Y0204*
X01799Y02035*
X01791Y02032*
X01785*
X01777Y02035*
X01774Y02037*
Y02057*
X01785*
X01748Y02032D02*
Y02091D01*
X01715Y02032*
Y02091*
X01687Y02032D02*
Y02091D01*
X01673*
X01664Y02088*
X01659Y02082*
X01656Y02077*
X01653Y02065*
Y02057*
X01656Y02046*
X01659Y0204*
X01664Y02035*
X01673Y02032*
X01687*
X01788Y01949D02*
X0176D01*
X01793Y01932D02*
X01774Y0199D01*
X01754Y01932*
X01734D02*
Y0199D01*
X01701Y01932*
Y0199*
X01681D02*
X01647D01*
X01664Y01932D02*
Y0199D01*
X01777Y01888D02*
X01782Y01891D01*
X01791*
X01799Y01888*
X01805Y01883*
X01808Y01877*
X0181Y01866*
Y01857*
X01808Y01846*
X01805Y0184*
X01799Y01835*
X01791Y01832*
X01785*
X01777Y01835*
X01774Y01838*
Y01857*
X01785*
X01748Y01832D02*
Y01891D01*
X01715Y01832*
Y01891*
X01687Y01832D02*
Y01891D01*
X01673*
X01664Y01888*
X01659Y01883*
X01656Y01877*
X01653Y01866*
Y01857*
X01656Y01846*
X01659Y0184*
X01664Y01835*
X01673Y01832*
X01687*
X01805Y01791D02*
X01785Y01732D01*
X01765Y01791*
X01712Y01737D02*
X01715Y01734D01*
X01723Y01732*
X01729*
X01737Y01734*
X01743Y0174*
X01746Y01746*
X01748Y01757*
Y01765*
X01746Y01777*
X01743Y01782*
X01737Y01788*
X01729Y01791*
X01723*
X01715Y01788*
X01712Y01785*
X01653Y01737D02*
X01656Y01734D01*
X01664Y01732*
X0167*
X01678Y01734*
X01684Y0174*
X01687Y01746*
X01689Y01757*
Y01765*
X01687Y01777*
X01684Y01782*
X01678Y01788*
X0167Y01791*
X01664*
X01656Y01788*
X01653Y01785*
X01729Y0169D02*
X01695D01*
X01712Y01631D02*
Y0169D01*
X01681Y01631D02*
X0165Y01671D01*
X01681D02*
X0165Y01631D01*
X01701Y01531D02*
X0172Y01559D01*
X01734Y01531D02*
Y0159D01*
X01712*
X01706Y01587*
X01703Y01584*
X01701Y01579*
Y0157*
X01703Y01564*
X01706Y01562*
X01712Y01559*
X01734*
X01681Y01531D02*
X0165Y0157D01*
X01681D02*
X0165Y01531D01*
G54D21*
X01621Y0211D02*
X01569D01*
X01621Y02057D02*
Y0211D01*
Y02007D02*
X01517D01*
Y01506D01*
X01621Y02007D02*
Y01506D01*
X01517D01*
X0242D02*
X02316D01*
X0242Y02007D02*
Y01506D01*
X02316Y02007D02*
Y01506D01*
X0242Y02007D02*
X02316D01*
X0242Y02057D02*
Y0211D01*
X02368D01*
G54D20*
X03515Y02094D02*
X03565Y02018D01*
X03461Y02032D02*
X03481Y0206D01*
X03495Y02032D02*
Y02091D01*
X03473*
X03467Y02088*
X03464Y02085*
X03461Y0208*
Y02071*
X03464Y02065*
X03467Y02063*
X03473Y0206*
X03495*
X03436Y02063D02*
X03416D01*
X03408Y02032D02*
X03436D01*
Y02091*
X03408*
X03386Y02035D02*
X03377Y02032D01*
X03363*
X03357Y02035*
X03355Y02037*
X03352Y02043*
Y02049*
X03355Y02054*
X03357Y02057*
X03363Y0206*
X03374Y02063*
X0338Y02065*
X03383Y02068*
X03386Y02074*
Y0208*
X03383Y02085*
X0338Y02088*
X03374Y02091*
X0336*
X03352Y02088*
X03565Y0199D02*
X03532D01*
X03549Y01932D02*
Y0199D01*
X03518Y01932D02*
X03487Y01971D01*
X03518D02*
X03487Y01932D01*
X03433D02*
X03467D01*
X0345D02*
Y0199D01*
X03456Y01982*
X03461Y01976*
X03467Y01974*
X03523Y01832D02*
X03543Y0186D01*
X03557Y01832D02*
Y01891D01*
X03535*
X03529Y01888*
X03526Y01885*
X03523Y0188*
Y01871*
X03526Y01866*
X03529Y01863*
X03535Y0186*
X03557*
X03504Y01832D02*
X03473Y01871D01*
X03504D02*
X03473Y01832D01*
X03419D02*
X03453D01*
X03436D02*
Y01891D01*
X03442Y01883*
X03447Y01877*
X03453Y01874*
X03523Y01732D02*
X03543Y0176D01*
X03557Y01732D02*
Y01791D01*
X03535*
X03529Y01788*
X03526Y01785*
X03523Y01779*
Y01771*
X03526Y01765*
X03529Y01762*
X03535Y0176*
X03557*
X03506Y01791D02*
X03473D01*
X0349Y01732D02*
Y01791D01*
X03456Y01734D02*
X03447Y01732D01*
X03433*
X03428Y01734*
X03425Y01737*
X03422Y01743*
Y01748*
X03425Y01754*
X03428Y01757*
X03433Y0176*
X03445Y01762*
X0345Y01765*
X03453Y01768*
X03456Y01774*
Y01779*
X03453Y01785*
X0345Y01788*
X03445Y01791*
X03431*
X03422Y01788*
X03523Y01637D02*
X03526Y01634D01*
X03535Y01631*
X0354*
X03549Y01634*
X03554Y0164*
X03557Y01645*
X0356Y01656*
Y01665*
X03557Y01676*
X03554Y01682*
X03549Y01687*
X0354Y0169*
X03535*
X03526Y01687*
X03523Y01685*
X03506Y0169D02*
X03473D01*
X0349Y01631D02*
Y0169D01*
X03456Y01634D02*
X03447Y01631D01*
X03433*
X03428Y01634*
X03425Y01637*
X03422Y01642*
Y01648*
X03425Y01654*
X03428Y01656*
X03433Y01659*
X03445Y01662*
X0345Y01665*
X03453Y01668*
X03456Y01673*
Y01679*
X03453Y01685*
X0345Y01687*
X03445Y0169*
X03431*
X03422Y01687*
X03557Y01531D02*
Y0159D01*
X03535*
X03529Y01587*
X03526Y01584*
X03523Y01579*
Y0157*
X03526Y01564*
X03529Y01562*
X03535Y01559*
X03557*
X03478Y01562D02*
X0347Y01559D01*
X03467Y01556*
X03464Y0155*
Y01542*
X03467Y01536*
X0347Y01534*
X03476Y01531*
X03498*
Y0159*
X03478*
X03473Y01587*
X0347Y01584*
X03467Y01579*
Y01573*
X0347Y01567*
X03473Y01564*
X03478Y01562*
X03498*
X03431Y01564D02*
X03436Y01567D01*
X03439Y0157*
X03442Y01576*
Y01579*
X03439Y01584*
X03436Y01587*
X03431Y0159*
X03419*
X03414Y01587*
X03411Y01584*
X03408Y01579*
Y01576*
X03411Y0157*
X03414Y01567*
X03419Y01564*
X03431*
X03436Y01562*
X03439Y01559*
X03442Y01553*
Y01542*
X03439Y01536*
X03436Y01534*
X03431Y01531*
X03419*
X03414Y01534*
X03411Y01536*
X03408Y01542*
Y01553*
X03411Y01559*
X03414Y01562*
X03419Y01564*
X03051Y02088D02*
X03057Y02091D01*
X03066*
X03074Y02088*
X0308Y02082*
X03082Y02077*
X03085Y02065*
Y02057*
X03082Y02046*
X0308Y0204*
X03074Y02035*
X03066Y02032*
X0306*
X03051Y02035*
X03049Y02037*
Y02057*
X0306*
X03023Y02032D02*
Y02091D01*
X0299Y02032*
Y02091*
X02961Y02032D02*
Y02091D01*
X02947*
X02939Y02088*
X02933Y02082*
X02931Y02077*
X02928Y02065*
Y02057*
X02931Y02046*
X02933Y0204*
X02939Y02035*
X02947Y02032*
X02961*
X03063Y01949D02*
X03035D01*
X03068Y01932D02*
X03049Y0199D01*
X03029Y01932*
X03009D02*
Y0199D01*
X02976Y01932*
Y0199*
X02956D02*
X02922D01*
X02939Y01932D02*
Y0199D01*
X03051Y01888D02*
X03057Y01891D01*
X03066*
X03074Y01888*
X0308Y01883*
X03082Y01877*
X03085Y01866*
Y01857*
X03082Y01846*
X0308Y0184*
X03074Y01835*
X03066Y01832*
X0306*
X03051Y01835*
X03049Y01838*
Y01857*
X0306*
X03023Y01832D02*
Y01891D01*
X0299Y01832*
Y01891*
X02961Y01832D02*
Y01891D01*
X02947*
X02939Y01888*
X02933Y01883*
X02931Y01877*
X02928Y01866*
Y01857*
X02931Y01846*
X02933Y0184*
X02939Y01835*
X02947Y01832*
X02961*
X0308Y01791D02*
X0306Y01732D01*
X0304Y01791*
X02987Y01737D02*
X0299Y01734D01*
X02998Y01732*
X03004*
X03012Y01734*
X03018Y0174*
X03021Y01746*
X03023Y01757*
Y01765*
X03021Y01777*
X03018Y01782*
X03012Y01788*
X03004Y01791*
X02998*
X0299Y01788*
X02987Y01785*
X02928Y01737D02*
X02931Y01734D01*
X02939Y01732*
X02945*
X02953Y01734*
X02959Y0174*
X02961Y01746*
X02964Y01757*
Y01765*
X02961Y01777*
X02959Y01782*
X02953Y01788*
X02945Y01791*
X02939*
X02931Y01788*
X02928Y01785*
X03004Y0169D02*
X0297D01*
X02987Y01631D02*
Y0169D01*
X02956Y01631D02*
X02925Y01671D01*
X02956D02*
X02925Y01631D01*
X02976Y01531D02*
X02995Y01559D01*
X03009Y01531D02*
Y0159D01*
X02987*
X02981Y01587*
X02978Y01584*
X02976Y01579*
Y0157*
X02978Y01564*
X02981Y01562*
X02987Y01559*
X03009*
X02956Y01531D02*
X02925Y0157D01*
X02956D02*
X02925Y01531D01*
G54D21*
X02896Y0211D02*
X02844D01*
X02896Y02057D02*
Y0211D01*
Y02007D02*
X02791D01*
Y01506D01*
X02896Y02007D02*
Y01506D01*
X02791D01*
X03696D02*
X03591D01*
X03696Y02007D02*
Y01506D01*
X03591Y02007D02*
Y01506D01*
X03696Y02007D02*
X03591D01*
X03696Y02057D02*
Y0211D01*
X03644D01*
G54D20*
X00964Y03388D02*
X01015Y03313D01*
X00911Y03327D02*
X0093Y03355D01*
X00944Y03327D02*
Y03386D01*
X00922*
X00916Y03383*
X00914Y0338*
X00911Y03374*
Y03366*
X00914Y0336*
X00916Y03358*
X00922Y03355*
X00944*
X00885Y03358D02*
X00866D01*
X00857Y03327D02*
X00885D01*
Y03386*
X00857*
X00835Y03329D02*
X00826Y03327D01*
X00812*
X00807Y03329*
X00804Y03332*
X00801Y03338*
Y03343*
X00804Y03349*
X00807Y03352*
X00812Y03355*
X00824Y03358*
X00829Y0336*
X00832Y03363*
X00835Y03369*
Y03374*
X00832Y0338*
X00829Y03383*
X00824Y03386*
X0081*
X00801Y03383*
X01015Y03285D02*
X00981D01*
X00998Y03226D02*
Y03285D01*
X00967Y03226D02*
X00936Y03266D01*
X00967D02*
X00936Y03226D01*
X00883D02*
X00916D01*
X009D02*
Y03285D01*
X00905Y03277*
X00911Y03271*
X00916Y03268*
X00973Y03126D02*
X00992Y03154D01*
X01006Y03126D02*
Y03185D01*
X00984*
X00978Y03182*
X00975Y03179*
X00973Y03174*
Y03165*
X00975Y0316*
X00978Y03157*
X00984Y03154*
X01006*
X00953Y03126D02*
X00922Y03165D01*
X00953D02*
X00922Y03126D01*
X00869D02*
X00902D01*
X00885D02*
Y03185D01*
X00891Y03176*
X00897Y03171*
X00902Y03168*
X00973Y03025D02*
X00992Y03054D01*
X01006Y03025D02*
Y03084D01*
X00984*
X00978Y03082*
X00975Y03079*
X00973Y03073*
Y03065*
X00975Y03059*
X00978Y03056*
X00984Y03054*
X01006*
X00956Y03084D02*
X00922D01*
X00939Y03025D02*
Y03084D01*
X00905Y03028D02*
X00897Y03025D01*
X00883*
X00877Y03028*
X00874Y03031*
X00871Y03037*
Y03042*
X00874Y03048*
X00877Y03051*
X00883Y03054*
X00894Y03056*
X009Y03059*
X00902Y03062*
X00905Y03068*
Y03073*
X00902Y03079*
X009Y03082*
X00894Y03084*
X0088*
X00871Y03082*
X00973Y02931D02*
X00975Y02928D01*
X00984Y02925*
X00989*
X00998Y02928*
X01004Y02933*
X01006Y02939*
X01009Y0295*
Y02959*
X01006Y0297*
X01004Y02976*
X00998Y02981*
X00989Y02984*
X00984*
X00975Y02981*
X00973Y02978*
X00956Y02984D02*
X00922D01*
X00939Y02925D02*
Y02984D01*
X00905Y02928D02*
X00897Y02925D01*
X00883*
X00877Y02928*
X00874Y02931*
X00871Y02936*
Y02942*
X00874Y02947*
X00877Y0295*
X00883Y02953*
X00894Y02956*
X009Y02959*
X00902Y02962*
X00905Y02967*
Y02973*
X00902Y02978*
X009Y02981*
X00894Y02984*
X0088*
X00871Y02981*
X01006Y02825D02*
Y02884D01*
X00984*
X00978Y02881*
X00975Y02878*
X00973Y02872*
Y02864*
X00975Y02858*
X00978Y02856*
X00984Y02853*
X01006*
X00928Y02856D02*
X00919Y02853D01*
X00916Y0285*
X00914Y02844*
Y02836*
X00916Y0283*
X00919Y02827*
X00925Y02825*
X00947*
Y02884*
X00928*
X00922Y02881*
X00919Y02878*
X00916Y02872*
Y02867*
X00919Y02861*
X00922Y02858*
X00928Y02856*
X00947*
X0088Y02858D02*
X00885Y02861D01*
X00888Y02864*
X00891Y0287*
Y02872*
X00888Y02878*
X00885Y02881*
X0088Y02884*
X00869*
X00863Y02881*
X0086Y02878*
X00857Y02872*
Y0287*
X0086Y02864*
X00863Y02861*
X00869Y02858*
X0088*
X00885Y02856*
X00888Y02853*
X00891Y02847*
Y02836*
X00888Y0283*
X00885Y02827*
X0088Y02825*
X00869*
X00863Y02827*
X0086Y0283*
X00857Y02836*
Y02847*
X0086Y02853*
X00863Y02856*
X00869Y02858*
X00501Y03383D02*
X00506Y03386D01*
X00515*
X00523Y03383*
X00529Y03377*
X00532Y03372*
X00535Y0336*
Y03352*
X00532Y03341*
X00529Y03335*
X00523Y03329*
X00515Y03327*
X00509*
X00501Y03329*
X00498Y03332*
Y03352*
X00509*
X00473Y03327D02*
Y03386D01*
X00439Y03327*
Y03386*
X00411Y03327D02*
Y03386D01*
X00397*
X00388Y03383*
X00383Y03377*
X0038Y03372*
X00377Y0336*
Y03352*
X0038Y03341*
X00383Y03335*
X00388Y03329*
X00397Y03327*
X00411*
X00512Y03243D02*
X00484D01*
X00518Y03226D02*
X00498Y03285D01*
X00478Y03226*
X00459D02*
Y03285D01*
X00425Y03226*
Y03285*
X00405D02*
X00371D01*
X00388Y03226D02*
Y03285D01*
X00501Y03182D02*
X00506Y03185D01*
X00515*
X00523Y03182*
X00529Y03176*
X00532Y03171*
X00535Y0316*
Y03151*
X00532Y0314*
X00529Y03134*
X00523Y03129*
X00515Y03126*
X00509*
X00501Y03129*
X00498Y03131*
Y03151*
X00509*
X00473Y03126D02*
Y03185D01*
X00439Y03126*
Y03185*
X00411Y03126D02*
Y03185D01*
X00397*
X00388Y03182*
X00383Y03176*
X0038Y03171*
X00377Y0316*
Y03151*
X0038Y0314*
X00383Y03134*
X00388Y03129*
X00397Y03126*
X00411*
X00529Y03084D02*
X00509Y03025D01*
X0049Y03084*
X00436Y03031D02*
X00439Y03028D01*
X00447Y03025*
X00453*
X00461Y03028*
X00467Y03034*
X0047Y03039*
X00473Y03051*
Y03059*
X0047Y0307*
X00467Y03076*
X00461Y03082*
X00453Y03084*
X00447*
X00439Y03082*
X00436Y03079*
X00377Y03031D02*
X0038Y03028D01*
X00388Y03025*
X00394*
X00402Y03028*
X00408Y03034*
X00411Y03039*
X00414Y03051*
Y03059*
X00411Y0307*
X00408Y03076*
X00402Y03082*
X00394Y03084*
X00388*
X0038Y03082*
X00377Y03079*
X00453Y02984D02*
X00419D01*
X00436Y02925D02*
Y02984D01*
X00405Y02925D02*
X00374Y02964D01*
X00405D02*
X00374Y02925D01*
X00425Y02825D02*
X00445Y02853D01*
X00459Y02825D02*
Y02884D01*
X00436*
X0043Y02881*
X00428Y02878*
X00425Y02872*
Y02864*
X00428Y02858*
X0043Y02856*
X00436Y02853*
X00459*
X00405Y02825D02*
X00374Y02864D01*
X00405D02*
X00374Y02825D01*
G54D21*
X00345Y03405D02*
X00293D01*
X00345Y03352D02*
Y03405D01*
Y03302D02*
X00241D01*
Y028D01*
X00345Y03302D02*
Y028D01*
X00241D01*
X01145D02*
X01041D01*
X01145Y03302D02*
Y028D01*
X01041Y03302D02*
Y028D01*
X01145Y03302D02*
X01041D01*
X01145Y03352D02*
Y03405D01*
X01093D01*
G54D20*
X02239Y03388D02*
X0229Y03313D01*
X02186Y03327D02*
X02205Y03355D01*
X02219Y03327D02*
Y03386D01*
X02197*
X02191Y03383*
X02188Y0338*
X02186Y03374*
Y03366*
X02188Y0336*
X02191Y03358*
X02197Y03355*
X02219*
X0216Y03358D02*
X02141D01*
X02132Y03327D02*
X0216D01*
Y03386*
X02132*
X0211Y03329D02*
X02101Y03327D01*
X02087*
X02082Y03329*
X02079Y03332*
X02076Y03338*
Y03343*
X02079Y03349*
X02082Y03352*
X02087Y03355*
X02098Y03358*
X02104Y0336*
X02107Y03363*
X0211Y03369*
Y03374*
X02107Y0338*
X02104Y03383*
X02098Y03386*
X02084*
X02076Y03383*
X0229Y03285D02*
X02256D01*
X02273Y03226D02*
Y03285D01*
X02242Y03226D02*
X02211Y03266D01*
X02242D02*
X02211Y03226D01*
X02157D02*
X02191D01*
X02174D02*
Y03285D01*
X0218Y03277*
X02186Y03271*
X02191Y03268*
X02247Y03126D02*
X02267Y03154D01*
X02281Y03126D02*
Y03185D01*
X02259*
X02253Y03182*
X0225Y03179*
X02247Y03174*
Y03165*
X0225Y0316*
X02253Y03157*
X02259Y03154*
X02281*
X02228Y03126D02*
X02197Y03165D01*
X02228D02*
X02197Y03126D01*
X02143D02*
X02177D01*
X0216D02*
Y03185D01*
X02166Y03176*
X02172Y03171*
X02177Y03168*
X02247Y03025D02*
X02267Y03054D01*
X02281Y03025D02*
Y03084D01*
X02259*
X02253Y03082*
X0225Y03079*
X02247Y03073*
Y03065*
X0225Y03059*
X02253Y03056*
X02259Y03054*
X02281*
X02231Y03084D02*
X02197D01*
X02214Y03025D02*
Y03084D01*
X0218Y03028D02*
X02172Y03025D01*
X02157*
X02152Y03028*
X02149Y03031*
X02146Y03037*
Y03042*
X02149Y03048*
X02152Y03051*
X02157Y03054*
X02169Y03056*
X02174Y03059*
X02177Y03062*
X0218Y03068*
Y03073*
X02177Y03079*
X02174Y03082*
X02169Y03084*
X02155*
X02146Y03082*
X02247Y02931D02*
X0225Y02928D01*
X02259Y02925*
X02264*
X02273Y02928*
X02278Y02933*
X02281Y02939*
X02284Y0295*
Y02959*
X02281Y0297*
X02278Y02976*
X02273Y02981*
X02264Y02984*
X02259*
X0225Y02981*
X02247Y02978*
X02231Y02984D02*
X02197D01*
X02214Y02925D02*
Y02984D01*
X0218Y02928D02*
X02172Y02925D01*
X02157*
X02152Y02928*
X02149Y02931*
X02146Y02936*
Y02942*
X02149Y02947*
X02152Y0295*
X02157Y02953*
X02169Y02956*
X02174Y02959*
X02177Y02962*
X0218Y02967*
Y02973*
X02177Y02978*
X02174Y02981*
X02169Y02984*
X02155*
X02146Y02981*
X02281Y02825D02*
Y02884D01*
X02259*
X02253Y02881*
X0225Y02878*
X02247Y02872*
Y02864*
X0225Y02858*
X02253Y02856*
X02259Y02853*
X02281*
X02202Y02856D02*
X02194Y02853D01*
X02191Y0285*
X02188Y02844*
Y02836*
X02191Y0283*
X02194Y02827*
X022Y02825*
X02222*
Y02884*
X02202*
X02197Y02881*
X02194Y02878*
X02191Y02872*
Y02867*
X02194Y02861*
X02197Y02858*
X02202Y02856*
X02222*
X02155Y02858D02*
X0216Y02861D01*
X02163Y02864*
X02166Y0287*
Y02872*
X02163Y02878*
X0216Y02881*
X02155Y02884*
X02143*
X02138Y02881*
X02135Y02878*
X02132Y02872*
Y0287*
X02135Y02864*
X02138Y02861*
X02143Y02858*
X02155*
X0216Y02856*
X02163Y02853*
X02166Y02847*
Y02836*
X02163Y0283*
X0216Y02827*
X02155Y02825*
X02143*
X02138Y02827*
X02135Y0283*
X02132Y02836*
Y02847*
X02135Y02853*
X02138Y02856*
X02143Y02858*
X01777Y03383D02*
X01782Y03386D01*
X01791*
X01799Y03383*
X01805Y03377*
X01808Y03372*
X0181Y0336*
Y03352*
X01808Y03341*
X01805Y03335*
X01799Y03329*
X01791Y03327*
X01785*
X01777Y03329*
X01774Y03332*
Y03352*
X01785*
X01748Y03327D02*
Y03386D01*
X01715Y03327*
Y03386*
X01687Y03327D02*
Y03386D01*
X01673*
X01664Y03383*
X01659Y03377*
X01656Y03372*
X01653Y0336*
Y03352*
X01656Y03341*
X01659Y03335*
X01664Y03329*
X01673Y03327*
X01687*
X01788Y03243D02*
X0176D01*
X01793Y03226D02*
X01774Y03285D01*
X01754Y03226*
X01734D02*
Y03285D01*
X01701Y03226*
Y03285*
X01681D02*
X01647D01*
X01664Y03226D02*
Y03285D01*
X01777Y03182D02*
X01782Y03185D01*
X01791*
X01799Y03182*
X01805Y03176*
X01808Y03171*
X0181Y0316*
Y03151*
X01808Y0314*
X01805Y03134*
X01799Y03129*
X01791Y03126*
X01785*
X01777Y03129*
X01774Y03131*
Y03151*
X01785*
X01748Y03126D02*
Y03185D01*
X01715Y03126*
Y03185*
X01687Y03126D02*
Y03185D01*
X01673*
X01664Y03182*
X01659Y03176*
X01656Y03171*
X01653Y0316*
Y03151*
X01656Y0314*
X01659Y03134*
X01664Y03129*
X01673Y03126*
X01687*
X01805Y03084D02*
X01785Y03025D01*
X01765Y03084*
X01712Y03031D02*
X01715Y03028D01*
X01723Y03025*
X01729*
X01737Y03028*
X01743Y03034*
X01746Y03039*
X01748Y03051*
Y03059*
X01746Y0307*
X01743Y03076*
X01737Y03082*
X01729Y03084*
X01723*
X01715Y03082*
X01712Y03079*
X01653Y03031D02*
X01656Y03028D01*
X01664Y03025*
X0167*
X01678Y03028*
X01684Y03034*
X01687Y03039*
X01689Y03051*
Y03059*
X01687Y0307*
X01684Y03076*
X01678Y03082*
X0167Y03084*
X01664*
X01656Y03082*
X01653Y03079*
X01729Y02984D02*
X01695D01*
X01712Y02925D02*
Y02984D01*
X01681Y02925D02*
X0165Y02964D01*
X01681D02*
X0165Y02925D01*
X01701Y02825D02*
X0172Y02853D01*
X01734Y02825D02*
Y02884D01*
X01712*
X01706Y02881*
X01703Y02878*
X01701Y02872*
Y02864*
X01703Y02858*
X01706Y02856*
X01712Y02853*
X01734*
X01681Y02825D02*
X0165Y02864D01*
X01681D02*
X0165Y02825D01*
G54D21*
X01621Y03405D02*
X01569D01*
X01621Y03352D02*
Y03405D01*
Y03302D02*
X01517D01*
Y028D01*
X01621Y03302D02*
Y028D01*
X01517D01*
X0242D02*
X02316D01*
X0242Y03302D02*
Y028D01*
X02316Y03302D02*
Y028D01*
X0242Y03302D02*
X02316D01*
X0242Y03352D02*
Y03405D01*
X02368D01*
G54D20*
X03515Y03388D02*
X03565Y03313D01*
X03461Y03327D02*
X03481Y03355D01*
X03495Y03327D02*
Y03386D01*
X03473*
X03467Y03383*
X03464Y0338*
X03461Y03374*
Y03366*
X03464Y0336*
X03467Y03358*
X03473Y03355*
X03495*
X03436Y03358D02*
X03416D01*
X03408Y03327D02*
X03436D01*
Y03386*
X03408*
X03386Y03329D02*
X03377Y03327D01*
X03363*
X03357Y03329*
X03355Y03332*
X03352Y03338*
Y03343*
X03355Y03349*
X03357Y03352*
X03363Y03355*
X03374Y03358*
X0338Y0336*
X03383Y03363*
X03386Y03369*
Y03374*
X03383Y0338*
X0338Y03383*
X03374Y03386*
X0336*
X03352Y03383*
X03565Y03285D02*
X03532D01*
X03549Y03226D02*
Y03285D01*
X03518Y03226D02*
X03487Y03266D01*
X03518D02*
X03487Y03226D01*
X03433D02*
X03467D01*
X0345D02*
Y03285D01*
X03456Y03277*
X03461Y03271*
X03467Y03268*
X03523Y03126D02*
X03543Y03154D01*
X03557Y03126D02*
Y03185D01*
X03535*
X03529Y03182*
X03526Y03179*
X03523Y03174*
Y03165*
X03526Y0316*
X03529Y03157*
X03535Y03154*
X03557*
X03504Y03126D02*
X03473Y03165D01*
X03504D02*
X03473Y03126D01*
X03419D02*
X03453D01*
X03436D02*
Y03185D01*
X03442Y03176*
X03447Y03171*
X03453Y03168*
X03523Y03025D02*
X03543Y03054D01*
X03557Y03025D02*
Y03084D01*
X03535*
X03529Y03082*
X03526Y03079*
X03523Y03073*
Y03065*
X03526Y03059*
X03529Y03056*
X03535Y03054*
X03557*
X03506Y03084D02*
X03473D01*
X0349Y03025D02*
Y03084D01*
X03456Y03028D02*
X03447Y03025D01*
X03433*
X03428Y03028*
X03425Y03031*
X03422Y03037*
Y03042*
X03425Y03048*
X03428Y03051*
X03433Y03054*
X03445Y03056*
X0345Y03059*
X03453Y03062*
X03456Y03068*
Y03073*
X03453Y03079*
X0345Y03082*
X03445Y03084*
X03431*
X03422Y03082*
X03523Y02931D02*
X03526Y02928D01*
X03535Y02925*
X0354*
X03549Y02928*
X03554Y02933*
X03557Y02939*
X0356Y0295*
Y02959*
X03557Y0297*
X03554Y02976*
X03549Y02981*
X0354Y02984*
X03535*
X03526Y02981*
X03523Y02978*
X03506Y02984D02*
X03473D01*
X0349Y02925D02*
Y02984D01*
X03456Y02928D02*
X03447Y02925D01*
X03433*
X03428Y02928*
X03425Y02931*
X03422Y02936*
Y02942*
X03425Y02947*
X03428Y0295*
X03433Y02953*
X03445Y02956*
X0345Y02959*
X03453Y02962*
X03456Y02967*
Y02973*
X03453Y02978*
X0345Y02981*
X03445Y02984*
X03431*
X03422Y02981*
X03557Y02825D02*
Y02884D01*
X03535*
X03529Y02881*
X03526Y02878*
X03523Y02872*
Y02864*
X03526Y02858*
X03529Y02856*
X03535Y02853*
X03557*
X03478Y02856D02*
X0347Y02853D01*
X03467Y0285*
X03464Y02844*
Y02836*
X03467Y0283*
X0347Y02827*
X03476Y02825*
X03498*
Y02884*
X03478*
X03473Y02881*
X0347Y02878*
X03467Y02872*
Y02867*
X0347Y02861*
X03473Y02858*
X03478Y02856*
X03498*
X03431Y02858D02*
X03436Y02861D01*
X03439Y02864*
X03442Y0287*
Y02872*
X03439Y02878*
X03436Y02881*
X03431Y02884*
X03419*
X03414Y02881*
X03411Y02878*
X03408Y02872*
Y0287*
X03411Y02864*
X03414Y02861*
X03419Y02858*
X03431*
X03436Y02856*
X03439Y02853*
X03442Y02847*
Y02836*
X03439Y0283*
X03436Y02827*
X03431Y02825*
X03419*
X03414Y02827*
X03411Y0283*
X03408Y02836*
Y02847*
X03411Y02853*
X03414Y02856*
X03419Y02858*
X03051Y03383D02*
X03057Y03386D01*
X03066*
X03074Y03383*
X0308Y03377*
X03082Y03372*
X03085Y0336*
Y03352*
X03082Y03341*
X0308Y03335*
X03074Y03329*
X03066Y03327*
X0306*
X03051Y03329*
X03049Y03332*
Y03352*
X0306*
X03023Y03327D02*
Y03386D01*
X0299Y03327*
Y03386*
X02961Y03327D02*
Y03386D01*
X02947*
X02939Y03383*
X02933Y03377*
X02931Y03372*
X02928Y0336*
Y03352*
X02931Y03341*
X02933Y03335*
X02939Y03329*
X02947Y03327*
X02961*
X03063Y03243D02*
X03035D01*
X03068Y03226D02*
X03049Y03285D01*
X03029Y03226*
X03009D02*
Y03285D01*
X02976Y03226*
Y03285*
X02956D02*
X02922D01*
X02939Y03226D02*
Y03285D01*
X03051Y03182D02*
X03057Y03185D01*
X03066*
X03074Y03182*
X0308Y03176*
X03082Y03171*
X03085Y0316*
Y03151*
X03082Y0314*
X0308Y03134*
X03074Y03129*
X03066Y03126*
X0306*
X03051Y03129*
X03049Y03131*
Y03151*
X0306*
X03023Y03126D02*
Y03185D01*
X0299Y03126*
Y03185*
X02961Y03126D02*
Y03185D01*
X02947*
X02939Y03182*
X02933Y03176*
X02931Y03171*
X02928Y0316*
Y03151*
X02931Y0314*
X02933Y03134*
X02939Y03129*
X02947Y03126*
X02961*
X0308Y03084D02*
X0306Y03025D01*
X0304Y03084*
X02987Y03031D02*
X0299Y03028D01*
X02998Y03025*
X03004*
X03012Y03028*
X03018Y03034*
X03021Y03039*
X03023Y03051*
Y03059*
X03021Y0307*
X03018Y03076*
X03012Y03082*
X03004Y03084*
X02998*
X0299Y03082*
X02987Y03079*
X02928Y03031D02*
X02931Y03028D01*
X02939Y03025*
X02945*
X02953Y03028*
X02959Y03034*
X02961Y03039*
X02964Y03051*
Y03059*
X02961Y0307*
X02959Y03076*
X02953Y03082*
X02945Y03084*
X02939*
X02931Y03082*
X02928Y03079*
X03004Y02984D02*
X0297D01*
X02987Y02925D02*
Y02984D01*
X02956Y02925D02*
X02925Y02964D01*
X02956D02*
X02925Y02925D01*
X02976Y02825D02*
X02995Y02853D01*
X03009Y02825D02*
Y02884D01*
X02987*
X02981Y02881*
X02978Y02878*
X02976Y02872*
Y02864*
X02978Y02858*
X02981Y02856*
X02987Y02853*
X03009*
X02956Y02825D02*
X02925Y02864D01*
X02956D02*
X02925Y02825D01*
G54D21*
X02896Y03405D02*
X02844D01*
X02896Y03352D02*
Y03405D01*
Y03302D02*
X02791D01*
Y028D01*
X02896Y03302D02*
Y028D01*
X02791D01*
X03696D02*
X03591D01*
X03696Y03302D02*
Y028D01*
X03591Y03302D02*
Y028D01*
X03696Y03302D02*
X03591D01*
X03696Y03352D02*
Y03405D01*
X03644D01*
M02*