G04 #@! TF.GenerationSoftware,KiCad,Pcbnew,(5.0.1)-3*
G04 #@! TF.CreationDate,2018-12-06T00:17:23+01:00*
G04 #@! TF.ProjectId,air602bob,616972363032626F622E6B696361645F,rev?*
G04 #@! TF.SameCoordinates,Original*
G04 #@! TF.FileFunction,Copper,L1,Top,Signal*
G04 #@! TF.FilePolarity,Positive*
%FSLAX46Y46*%
G04 Gerber Fmt 4.6, Leading zero omitted, Abs format (unit mm)*
G04 Created by KiCad (PCBNEW (5.0.1)-3) date 06/12/2018 00:17:23*
%MOMM*%
%LPD*%
G01*
G04 APERTURE LIST*
G04 #@! TA.AperFunction,EtchedComponent*
%ADD10C,0.100000*%
G04 #@! TD*
G04 #@! TA.AperFunction,ConnectorPad*
%ADD11C,0.800000*%
G04 #@! TD*
G04 #@! TA.AperFunction,SMDPad,CuDef*
%ADD12C,0.400000*%
G04 #@! TD*
G04 #@! TA.AperFunction,Conductor*
%ADD13C,0.100000*%
G04 #@! TD*
G04 #@! TA.AperFunction,SMDPad,CuDef*
%ADD14R,2.200000X1.050000*%
G04 #@! TD*
G04 #@! TA.AperFunction,SMDPad,CuDef*
%ADD15R,1.000000X1.000000*%
G04 #@! TD*
G04 #@! TA.AperFunction,SMDPad,CuDef*
%ADD16C,0.950000*%
G04 #@! TD*
G04 #@! TA.AperFunction,SMDPad,CuDef*
%ADD17C,0.590000*%
G04 #@! TD*
G04 #@! TA.AperFunction,ComponentPad*
%ADD18O,1.700000X1.700000*%
G04 #@! TD*
G04 #@! TA.AperFunction,ComponentPad*
%ADD19R,1.700000X1.700000*%
G04 #@! TD*
G04 #@! TA.AperFunction,ViaPad*
%ADD20R,0.900000X0.500000*%
G04 #@! TD*
G04 #@! TA.AperFunction,Conductor*
%ADD21R,0.500000X0.500000*%
G04 #@! TD*
G04 #@! TA.AperFunction,SMDPad,CuDef*
%ADD22C,1.000000*%
G04 #@! TD*
G04 #@! TA.AperFunction,ViaPad*
%ADD23C,0.450000*%
G04 #@! TD*
G04 #@! TA.AperFunction,ViaPad*
%ADD24C,0.500000*%
G04 #@! TD*
G04 #@! TA.AperFunction,Conductor*
%ADD25C,0.250000*%
G04 #@! TD*
G04 #@! TA.AperFunction,Conductor*
%ADD26C,1.000000*%
G04 #@! TD*
G04 #@! TA.AperFunction,Conductor*
%ADD27C,1.035000*%
G04 #@! TD*
G04 #@! TA.AperFunction,Conductor*
%ADD28C,0.950000*%
G04 #@! TD*
G04 APERTURE END LIST*
D10*
G04 #@! TO.C,ANT1*
G36*
X74893000Y-85320000D02*
X72893000Y-85320000D01*
X72893000Y-82680000D01*
X70193000Y-82680000D01*
X70193000Y-85320000D01*
X68193000Y-85320000D01*
X68193000Y-82680000D01*
X65493000Y-82680000D01*
X65493000Y-87120000D01*
X65993000Y-87120000D01*
X65993000Y-83180000D01*
X67693000Y-83180000D01*
X67693000Y-85820000D01*
X70693000Y-85820000D01*
X70693000Y-83180000D01*
X72393000Y-83180000D01*
X72393000Y-85820000D01*
X75393000Y-85820000D01*
X75393000Y-83180000D01*
X77093000Y-83180000D01*
X77093000Y-88080000D01*
X77593000Y-88080000D01*
X77593000Y-83180000D01*
X78993000Y-83180000D01*
X78993000Y-88080000D01*
X79893000Y-88080000D01*
X79893000Y-87836785D01*
X79590583Y-87836785D01*
X79580742Y-87884395D01*
X79556674Y-87926797D01*
X79518731Y-87959581D01*
X79510819Y-87963935D01*
X79468156Y-87976043D01*
X79419637Y-87975300D01*
X79374122Y-87962400D01*
X79355511Y-87951787D01*
X79321868Y-87916553D01*
X79301309Y-87871368D01*
X79294778Y-87821842D01*
X79303218Y-87773583D01*
X79320112Y-87741357D01*
X79355372Y-87708687D01*
X79400682Y-87688592D01*
X79450267Y-87682018D01*
X79498353Y-87689908D01*
X79531245Y-87706814D01*
X79566185Y-87743584D01*
X79585847Y-87788378D01*
X79590583Y-87836785D01*
X79893000Y-87836785D01*
X79893000Y-82680000D01*
X74893000Y-82680000D01*
X74893000Y-85320000D01*
X74893000Y-85320000D01*
G37*
G04 #@! TD*
D11*
G04 #@! TO.P,XA2,1*
G04 #@! TO.N,/FEED_X*
X77343000Y-90678000D03*
G04 #@! TD*
D12*
G04 #@! TO.P,JP2,2*
G04 #@! TO.N,/FEED_A*
X77345540Y-89516000D03*
D13*
G04 #@! TD*
G04 #@! TO.N,/FEED_A*
G04 #@! TO.C,JP2*
G36*
X76945540Y-89816000D02*
X76945540Y-89516000D01*
X76945781Y-89516000D01*
X76945781Y-89506186D01*
X76947705Y-89486654D01*
X76951534Y-89467404D01*
X76957231Y-89448622D01*
X76964742Y-89430489D01*
X76973994Y-89413179D01*
X76984898Y-89396860D01*
X76997350Y-89381688D01*
X77011228Y-89367810D01*
X77026400Y-89355358D01*
X77042719Y-89344454D01*
X77060029Y-89335202D01*
X77078162Y-89327691D01*
X77096944Y-89321994D01*
X77116194Y-89318165D01*
X77135726Y-89316241D01*
X77145540Y-89316241D01*
X77145540Y-89316000D01*
X77545540Y-89316000D01*
X77545540Y-89316241D01*
X77555354Y-89316241D01*
X77574886Y-89318165D01*
X77594136Y-89321994D01*
X77612918Y-89327691D01*
X77631051Y-89335202D01*
X77648361Y-89344454D01*
X77664680Y-89355358D01*
X77679852Y-89367810D01*
X77693730Y-89381688D01*
X77706182Y-89396860D01*
X77717086Y-89413179D01*
X77726338Y-89430489D01*
X77733849Y-89448622D01*
X77739546Y-89467404D01*
X77743375Y-89486654D01*
X77745299Y-89506186D01*
X77745299Y-89516000D01*
X77745540Y-89516000D01*
X77745540Y-89816000D01*
X76945540Y-89816000D01*
X76945540Y-89816000D01*
G37*
D12*
G04 #@! TO.P,JP2,1*
G04 #@! TO.N,/FEED_X*
X77343000Y-90316000D03*
D13*
G04 #@! TD*
G04 #@! TO.N,/FEED_X*
G04 #@! TO.C,JP2*
G36*
X77743000Y-90016000D02*
X77743000Y-90316000D01*
X77742759Y-90316000D01*
X77742759Y-90325814D01*
X77740835Y-90345346D01*
X77737006Y-90364596D01*
X77731309Y-90383378D01*
X77723798Y-90401511D01*
X77714546Y-90418821D01*
X77703642Y-90435140D01*
X77691190Y-90450312D01*
X77677312Y-90464190D01*
X77662140Y-90476642D01*
X77645821Y-90487546D01*
X77628511Y-90496798D01*
X77610378Y-90504309D01*
X77591596Y-90510006D01*
X77572346Y-90513835D01*
X77552814Y-90515759D01*
X77543000Y-90515759D01*
X77543000Y-90516000D01*
X77143000Y-90516000D01*
X77143000Y-90515759D01*
X77133186Y-90515759D01*
X77113654Y-90513835D01*
X77094404Y-90510006D01*
X77075622Y-90504309D01*
X77057489Y-90496798D01*
X77040179Y-90487546D01*
X77023860Y-90476642D01*
X77008688Y-90464190D01*
X76994810Y-90450312D01*
X76982358Y-90435140D01*
X76971454Y-90418821D01*
X76962202Y-90401511D01*
X76954691Y-90383378D01*
X76948994Y-90364596D01*
X76945165Y-90345346D01*
X76943241Y-90325814D01*
X76943241Y-90316000D01*
X76943000Y-90316000D01*
X76943000Y-90016000D01*
X77743000Y-90016000D01*
X77743000Y-90016000D01*
G37*
D12*
G04 #@! TO.P,JP1,1*
G04 #@! TO.N,/FEED*
X66167000Y-95250000D03*
D13*
G04 #@! TD*
G04 #@! TO.N,/FEED*
G04 #@! TO.C,JP1*
G36*
X65867000Y-94850000D02*
X66167000Y-94850000D01*
X66167000Y-94850241D01*
X66176814Y-94850241D01*
X66196346Y-94852165D01*
X66215596Y-94855994D01*
X66234378Y-94861691D01*
X66252511Y-94869202D01*
X66269821Y-94878454D01*
X66286140Y-94889358D01*
X66301312Y-94901810D01*
X66315190Y-94915688D01*
X66327642Y-94930860D01*
X66338546Y-94947179D01*
X66347798Y-94964489D01*
X66355309Y-94982622D01*
X66361006Y-95001404D01*
X66364835Y-95020654D01*
X66366759Y-95040186D01*
X66366759Y-95050000D01*
X66367000Y-95050000D01*
X66367000Y-95450000D01*
X66366759Y-95450000D01*
X66366759Y-95459814D01*
X66364835Y-95479346D01*
X66361006Y-95498596D01*
X66355309Y-95517378D01*
X66347798Y-95535511D01*
X66338546Y-95552821D01*
X66327642Y-95569140D01*
X66315190Y-95584312D01*
X66301312Y-95598190D01*
X66286140Y-95610642D01*
X66269821Y-95621546D01*
X66252511Y-95630798D01*
X66234378Y-95638309D01*
X66215596Y-95644006D01*
X66196346Y-95647835D01*
X66176814Y-95649759D01*
X66167000Y-95649759D01*
X66167000Y-95650000D01*
X65867000Y-95650000D01*
X65867000Y-94850000D01*
X65867000Y-94850000D01*
G37*
D12*
G04 #@! TO.P,JP1,2*
G04 #@! TO.N,Net-(J2-Pad2)*
X65367000Y-95247460D03*
D13*
G04 #@! TD*
G04 #@! TO.N,Net-(J2-Pad2)*
G04 #@! TO.C,JP1*
G36*
X65667000Y-95647460D02*
X65367000Y-95647460D01*
X65367000Y-95647219D01*
X65357186Y-95647219D01*
X65337654Y-95645295D01*
X65318404Y-95641466D01*
X65299622Y-95635769D01*
X65281489Y-95628258D01*
X65264179Y-95619006D01*
X65247860Y-95608102D01*
X65232688Y-95595650D01*
X65218810Y-95581772D01*
X65206358Y-95566600D01*
X65195454Y-95550281D01*
X65186202Y-95532971D01*
X65178691Y-95514838D01*
X65172994Y-95496056D01*
X65169165Y-95476806D01*
X65167241Y-95457274D01*
X65167241Y-95447460D01*
X65167000Y-95447460D01*
X65167000Y-95047460D01*
X65167241Y-95047460D01*
X65167241Y-95037646D01*
X65169165Y-95018114D01*
X65172994Y-94998864D01*
X65178691Y-94980082D01*
X65186202Y-94961949D01*
X65195454Y-94944639D01*
X65206358Y-94928320D01*
X65218810Y-94913148D01*
X65232688Y-94899270D01*
X65247860Y-94886818D01*
X65264179Y-94875914D01*
X65281489Y-94866662D01*
X65299622Y-94859151D01*
X65318404Y-94853454D01*
X65337654Y-94849625D01*
X65357186Y-94847701D01*
X65367000Y-94847701D01*
X65367000Y-94847460D01*
X65667000Y-94847460D01*
X65667000Y-95647460D01*
X65667000Y-95647460D01*
G37*
D14*
G04 #@! TO.P,XA1,2*
G04 #@! TO.N,GND*
X79248000Y-89965000D03*
X79248000Y-92915000D03*
D15*
X80748000Y-91440000D03*
G04 #@! TO.P,XA1,1*
G04 #@! TO.N,/FEED_X*
X77748000Y-91440000D03*
G04 #@! TD*
D13*
G04 #@! TO.N,/VCC*
G04 #@! TO.C,C3*
G36*
X66300779Y-100681144D02*
X66323834Y-100684563D01*
X66346443Y-100690227D01*
X66368387Y-100698079D01*
X66389457Y-100708044D01*
X66409448Y-100720026D01*
X66428168Y-100733910D01*
X66445438Y-100749562D01*
X66461090Y-100766832D01*
X66474974Y-100785552D01*
X66486956Y-100805543D01*
X66496921Y-100826613D01*
X66504773Y-100848557D01*
X66510437Y-100871166D01*
X66513856Y-100894221D01*
X66515000Y-100917500D01*
X66515000Y-101492500D01*
X66513856Y-101515779D01*
X66510437Y-101538834D01*
X66504773Y-101561443D01*
X66496921Y-101583387D01*
X66486956Y-101604457D01*
X66474974Y-101624448D01*
X66461090Y-101643168D01*
X66445438Y-101660438D01*
X66428168Y-101676090D01*
X66409448Y-101689974D01*
X66389457Y-101701956D01*
X66368387Y-101711921D01*
X66346443Y-101719773D01*
X66323834Y-101725437D01*
X66300779Y-101728856D01*
X66277500Y-101730000D01*
X65802500Y-101730000D01*
X65779221Y-101728856D01*
X65756166Y-101725437D01*
X65733557Y-101719773D01*
X65711613Y-101711921D01*
X65690543Y-101701956D01*
X65670552Y-101689974D01*
X65651832Y-101676090D01*
X65634562Y-101660438D01*
X65618910Y-101643168D01*
X65605026Y-101624448D01*
X65593044Y-101604457D01*
X65583079Y-101583387D01*
X65575227Y-101561443D01*
X65569563Y-101538834D01*
X65566144Y-101515779D01*
X65565000Y-101492500D01*
X65565000Y-100917500D01*
X65566144Y-100894221D01*
X65569563Y-100871166D01*
X65575227Y-100848557D01*
X65583079Y-100826613D01*
X65593044Y-100805543D01*
X65605026Y-100785552D01*
X65618910Y-100766832D01*
X65634562Y-100749562D01*
X65651832Y-100733910D01*
X65670552Y-100720026D01*
X65690543Y-100708044D01*
X65711613Y-100698079D01*
X65733557Y-100690227D01*
X65756166Y-100684563D01*
X65779221Y-100681144D01*
X65802500Y-100680000D01*
X66277500Y-100680000D01*
X66300779Y-100681144D01*
X66300779Y-100681144D01*
G37*
D16*
G04 #@! TD*
G04 #@! TO.P,C3,1*
G04 #@! TO.N,/VCC*
X66040000Y-101205000D03*
D13*
G04 #@! TO.N,GND*
G04 #@! TO.C,C3*
G36*
X66300779Y-98931144D02*
X66323834Y-98934563D01*
X66346443Y-98940227D01*
X66368387Y-98948079D01*
X66389457Y-98958044D01*
X66409448Y-98970026D01*
X66428168Y-98983910D01*
X66445438Y-98999562D01*
X66461090Y-99016832D01*
X66474974Y-99035552D01*
X66486956Y-99055543D01*
X66496921Y-99076613D01*
X66504773Y-99098557D01*
X66510437Y-99121166D01*
X66513856Y-99144221D01*
X66515000Y-99167500D01*
X66515000Y-99742500D01*
X66513856Y-99765779D01*
X66510437Y-99788834D01*
X66504773Y-99811443D01*
X66496921Y-99833387D01*
X66486956Y-99854457D01*
X66474974Y-99874448D01*
X66461090Y-99893168D01*
X66445438Y-99910438D01*
X66428168Y-99926090D01*
X66409448Y-99939974D01*
X66389457Y-99951956D01*
X66368387Y-99961921D01*
X66346443Y-99969773D01*
X66323834Y-99975437D01*
X66300779Y-99978856D01*
X66277500Y-99980000D01*
X65802500Y-99980000D01*
X65779221Y-99978856D01*
X65756166Y-99975437D01*
X65733557Y-99969773D01*
X65711613Y-99961921D01*
X65690543Y-99951956D01*
X65670552Y-99939974D01*
X65651832Y-99926090D01*
X65634562Y-99910438D01*
X65618910Y-99893168D01*
X65605026Y-99874448D01*
X65593044Y-99854457D01*
X65583079Y-99833387D01*
X65575227Y-99811443D01*
X65569563Y-99788834D01*
X65566144Y-99765779D01*
X65565000Y-99742500D01*
X65565000Y-99167500D01*
X65566144Y-99144221D01*
X65569563Y-99121166D01*
X65575227Y-99098557D01*
X65583079Y-99076613D01*
X65593044Y-99055543D01*
X65605026Y-99035552D01*
X65618910Y-99016832D01*
X65634562Y-98999562D01*
X65651832Y-98983910D01*
X65670552Y-98970026D01*
X65690543Y-98958044D01*
X65711613Y-98948079D01*
X65733557Y-98940227D01*
X65756166Y-98934563D01*
X65779221Y-98931144D01*
X65802500Y-98930000D01*
X66277500Y-98930000D01*
X66300779Y-98931144D01*
X66300779Y-98931144D01*
G37*
D16*
G04 #@! TD*
G04 #@! TO.P,C3,2*
G04 #@! TO.N,GND*
X66040000Y-99455000D03*
D13*
G04 #@! TO.N,/FEED*
G04 #@! TO.C,C2*
G36*
X73211958Y-91422710D02*
X73226276Y-91424834D01*
X73240317Y-91428351D01*
X73253946Y-91433228D01*
X73267031Y-91439417D01*
X73279447Y-91446858D01*
X73291073Y-91455481D01*
X73301798Y-91465202D01*
X73311519Y-91475927D01*
X73320142Y-91487553D01*
X73327583Y-91499969D01*
X73333772Y-91513054D01*
X73338649Y-91526683D01*
X73342166Y-91540724D01*
X73344290Y-91555042D01*
X73345000Y-91569500D01*
X73345000Y-91864500D01*
X73344290Y-91878958D01*
X73342166Y-91893276D01*
X73338649Y-91907317D01*
X73333772Y-91920946D01*
X73327583Y-91934031D01*
X73320142Y-91946447D01*
X73311519Y-91958073D01*
X73301798Y-91968798D01*
X73291073Y-91978519D01*
X73279447Y-91987142D01*
X73267031Y-91994583D01*
X73253946Y-92000772D01*
X73240317Y-92005649D01*
X73226276Y-92009166D01*
X73211958Y-92011290D01*
X73197500Y-92012000D01*
X72852500Y-92012000D01*
X72838042Y-92011290D01*
X72823724Y-92009166D01*
X72809683Y-92005649D01*
X72796054Y-92000772D01*
X72782969Y-91994583D01*
X72770553Y-91987142D01*
X72758927Y-91978519D01*
X72748202Y-91968798D01*
X72738481Y-91958073D01*
X72729858Y-91946447D01*
X72722417Y-91934031D01*
X72716228Y-91920946D01*
X72711351Y-91907317D01*
X72707834Y-91893276D01*
X72705710Y-91878958D01*
X72705000Y-91864500D01*
X72705000Y-91569500D01*
X72705710Y-91555042D01*
X72707834Y-91540724D01*
X72711351Y-91526683D01*
X72716228Y-91513054D01*
X72722417Y-91499969D01*
X72729858Y-91487553D01*
X72738481Y-91475927D01*
X72748202Y-91465202D01*
X72758927Y-91455481D01*
X72770553Y-91446858D01*
X72782969Y-91439417D01*
X72796054Y-91433228D01*
X72809683Y-91428351D01*
X72823724Y-91424834D01*
X72838042Y-91422710D01*
X72852500Y-91422000D01*
X73197500Y-91422000D01*
X73211958Y-91422710D01*
X73211958Y-91422710D01*
G37*
D17*
G04 #@! TD*
G04 #@! TO.P,C2,2*
G04 #@! TO.N,/FEED*
X73025000Y-91717000D03*
D13*
G04 #@! TO.N,GND*
G04 #@! TO.C,C2*
G36*
X73211958Y-92392710D02*
X73226276Y-92394834D01*
X73240317Y-92398351D01*
X73253946Y-92403228D01*
X73267031Y-92409417D01*
X73279447Y-92416858D01*
X73291073Y-92425481D01*
X73301798Y-92435202D01*
X73311519Y-92445927D01*
X73320142Y-92457553D01*
X73327583Y-92469969D01*
X73333772Y-92483054D01*
X73338649Y-92496683D01*
X73342166Y-92510724D01*
X73344290Y-92525042D01*
X73345000Y-92539500D01*
X73345000Y-92834500D01*
X73344290Y-92848958D01*
X73342166Y-92863276D01*
X73338649Y-92877317D01*
X73333772Y-92890946D01*
X73327583Y-92904031D01*
X73320142Y-92916447D01*
X73311519Y-92928073D01*
X73301798Y-92938798D01*
X73291073Y-92948519D01*
X73279447Y-92957142D01*
X73267031Y-92964583D01*
X73253946Y-92970772D01*
X73240317Y-92975649D01*
X73226276Y-92979166D01*
X73211958Y-92981290D01*
X73197500Y-92982000D01*
X72852500Y-92982000D01*
X72838042Y-92981290D01*
X72823724Y-92979166D01*
X72809683Y-92975649D01*
X72796054Y-92970772D01*
X72782969Y-92964583D01*
X72770553Y-92957142D01*
X72758927Y-92948519D01*
X72748202Y-92938798D01*
X72738481Y-92928073D01*
X72729858Y-92916447D01*
X72722417Y-92904031D01*
X72716228Y-92890946D01*
X72711351Y-92877317D01*
X72707834Y-92863276D01*
X72705710Y-92848958D01*
X72705000Y-92834500D01*
X72705000Y-92539500D01*
X72705710Y-92525042D01*
X72707834Y-92510724D01*
X72711351Y-92496683D01*
X72716228Y-92483054D01*
X72722417Y-92469969D01*
X72729858Y-92457553D01*
X72738481Y-92445927D01*
X72748202Y-92435202D01*
X72758927Y-92425481D01*
X72770553Y-92416858D01*
X72782969Y-92409417D01*
X72796054Y-92403228D01*
X72809683Y-92398351D01*
X72823724Y-92394834D01*
X72838042Y-92392710D01*
X72852500Y-92392000D01*
X73197500Y-92392000D01*
X73211958Y-92392710D01*
X73211958Y-92392710D01*
G37*
D17*
G04 #@! TD*
G04 #@! TO.P,C2,1*
G04 #@! TO.N,GND*
X73025000Y-92687000D03*
D13*
G04 #@! TO.N,GND*
G04 #@! TO.C,C1*
G36*
X76259958Y-92392710D02*
X76274276Y-92394834D01*
X76288317Y-92398351D01*
X76301946Y-92403228D01*
X76315031Y-92409417D01*
X76327447Y-92416858D01*
X76339073Y-92425481D01*
X76349798Y-92435202D01*
X76359519Y-92445927D01*
X76368142Y-92457553D01*
X76375583Y-92469969D01*
X76381772Y-92483054D01*
X76386649Y-92496683D01*
X76390166Y-92510724D01*
X76392290Y-92525042D01*
X76393000Y-92539500D01*
X76393000Y-92834500D01*
X76392290Y-92848958D01*
X76390166Y-92863276D01*
X76386649Y-92877317D01*
X76381772Y-92890946D01*
X76375583Y-92904031D01*
X76368142Y-92916447D01*
X76359519Y-92928073D01*
X76349798Y-92938798D01*
X76339073Y-92948519D01*
X76327447Y-92957142D01*
X76315031Y-92964583D01*
X76301946Y-92970772D01*
X76288317Y-92975649D01*
X76274276Y-92979166D01*
X76259958Y-92981290D01*
X76245500Y-92982000D01*
X75900500Y-92982000D01*
X75886042Y-92981290D01*
X75871724Y-92979166D01*
X75857683Y-92975649D01*
X75844054Y-92970772D01*
X75830969Y-92964583D01*
X75818553Y-92957142D01*
X75806927Y-92948519D01*
X75796202Y-92938798D01*
X75786481Y-92928073D01*
X75777858Y-92916447D01*
X75770417Y-92904031D01*
X75764228Y-92890946D01*
X75759351Y-92877317D01*
X75755834Y-92863276D01*
X75753710Y-92848958D01*
X75753000Y-92834500D01*
X75753000Y-92539500D01*
X75753710Y-92525042D01*
X75755834Y-92510724D01*
X75759351Y-92496683D01*
X75764228Y-92483054D01*
X75770417Y-92469969D01*
X75777858Y-92457553D01*
X75786481Y-92445927D01*
X75796202Y-92435202D01*
X75806927Y-92425481D01*
X75818553Y-92416858D01*
X75830969Y-92409417D01*
X75844054Y-92403228D01*
X75857683Y-92398351D01*
X75871724Y-92394834D01*
X75886042Y-92392710D01*
X75900500Y-92392000D01*
X76245500Y-92392000D01*
X76259958Y-92392710D01*
X76259958Y-92392710D01*
G37*
D17*
G04 #@! TD*
G04 #@! TO.P,C1,1*
G04 #@! TO.N,GND*
X76073000Y-92687000D03*
D13*
G04 #@! TO.N,/FEED_X*
G04 #@! TO.C,C1*
G36*
X76259958Y-91422710D02*
X76274276Y-91424834D01*
X76288317Y-91428351D01*
X76301946Y-91433228D01*
X76315031Y-91439417D01*
X76327447Y-91446858D01*
X76339073Y-91455481D01*
X76349798Y-91465202D01*
X76359519Y-91475927D01*
X76368142Y-91487553D01*
X76375583Y-91499969D01*
X76381772Y-91513054D01*
X76386649Y-91526683D01*
X76390166Y-91540724D01*
X76392290Y-91555042D01*
X76393000Y-91569500D01*
X76393000Y-91864500D01*
X76392290Y-91878958D01*
X76390166Y-91893276D01*
X76386649Y-91907317D01*
X76381772Y-91920946D01*
X76375583Y-91934031D01*
X76368142Y-91946447D01*
X76359519Y-91958073D01*
X76349798Y-91968798D01*
X76339073Y-91978519D01*
X76327447Y-91987142D01*
X76315031Y-91994583D01*
X76301946Y-92000772D01*
X76288317Y-92005649D01*
X76274276Y-92009166D01*
X76259958Y-92011290D01*
X76245500Y-92012000D01*
X75900500Y-92012000D01*
X75886042Y-92011290D01*
X75871724Y-92009166D01*
X75857683Y-92005649D01*
X75844054Y-92000772D01*
X75830969Y-91994583D01*
X75818553Y-91987142D01*
X75806927Y-91978519D01*
X75796202Y-91968798D01*
X75786481Y-91958073D01*
X75777858Y-91946447D01*
X75770417Y-91934031D01*
X75764228Y-91920946D01*
X75759351Y-91907317D01*
X75755834Y-91893276D01*
X75753710Y-91878958D01*
X75753000Y-91864500D01*
X75753000Y-91569500D01*
X75753710Y-91555042D01*
X75755834Y-91540724D01*
X75759351Y-91526683D01*
X75764228Y-91513054D01*
X75770417Y-91499969D01*
X75777858Y-91487553D01*
X75786481Y-91475927D01*
X75796202Y-91465202D01*
X75806927Y-91455481D01*
X75818553Y-91446858D01*
X75830969Y-91439417D01*
X75844054Y-91433228D01*
X75857683Y-91428351D01*
X75871724Y-91424834D01*
X75886042Y-91422710D01*
X75900500Y-91422000D01*
X76245500Y-91422000D01*
X76259958Y-91422710D01*
X76259958Y-91422710D01*
G37*
D17*
G04 #@! TD*
G04 #@! TO.P,C1,2*
G04 #@! TO.N,/FEED_X*
X76073000Y-91717000D03*
D18*
G04 #@! TO.P,J2,6*
G04 #@! TO.N,Net-(J2-Pad6)*
X63500000Y-105410000D03*
G04 #@! TO.P,J2,5*
G04 #@! TO.N,Net-(J2-Pad5)*
X63500000Y-102870000D03*
G04 #@! TO.P,J2,4*
G04 #@! TO.N,/VCC*
X63500000Y-100330000D03*
G04 #@! TO.P,J2,3*
G04 #@! TO.N,GND*
X63500000Y-97790000D03*
G04 #@! TO.P,J2,2*
G04 #@! TO.N,Net-(J2-Pad2)*
X63500000Y-95250000D03*
D19*
G04 #@! TO.P,J2,1*
G04 #@! TO.N,GND*
X63500000Y-92710000D03*
G04 #@! TD*
G04 #@! TO.P,J1,1*
G04 #@! TO.N,Net-(J1-Pad1)*
X83820000Y-92710000D03*
D18*
G04 #@! TO.P,J1,2*
G04 #@! TO.N,Net-(J1-Pad2)*
X83820000Y-95250000D03*
G04 #@! TO.P,J1,3*
G04 #@! TO.N,Net-(J1-Pad3)*
X83820000Y-97790000D03*
G04 #@! TO.P,J1,4*
G04 #@! TO.N,Net-(J1-Pad4)*
X83820000Y-100330000D03*
G04 #@! TO.P,J1,5*
G04 #@! TO.N,Net-(J1-Pad5)*
X83820000Y-102870000D03*
G04 #@! TO.P,J1,6*
G04 #@! TO.N,Net-(J1-Pad6)*
X83820000Y-105410000D03*
G04 #@! TD*
D13*
G04 #@! TO.N,/FEED_X*
G04 #@! TO.C,L1*
G36*
X75218958Y-91120710D02*
X75233276Y-91122834D01*
X75247317Y-91126351D01*
X75260946Y-91131228D01*
X75274031Y-91137417D01*
X75286447Y-91144858D01*
X75298073Y-91153481D01*
X75308798Y-91163202D01*
X75318519Y-91173927D01*
X75327142Y-91185553D01*
X75334583Y-91197969D01*
X75340772Y-91211054D01*
X75345649Y-91224683D01*
X75349166Y-91238724D01*
X75351290Y-91253042D01*
X75352000Y-91267500D01*
X75352000Y-91612500D01*
X75351290Y-91626958D01*
X75349166Y-91641276D01*
X75345649Y-91655317D01*
X75340772Y-91668946D01*
X75334583Y-91682031D01*
X75327142Y-91694447D01*
X75318519Y-91706073D01*
X75308798Y-91716798D01*
X75298073Y-91726519D01*
X75286447Y-91735142D01*
X75274031Y-91742583D01*
X75260946Y-91748772D01*
X75247317Y-91753649D01*
X75233276Y-91757166D01*
X75218958Y-91759290D01*
X75204500Y-91760000D01*
X74909500Y-91760000D01*
X74895042Y-91759290D01*
X74880724Y-91757166D01*
X74866683Y-91753649D01*
X74853054Y-91748772D01*
X74839969Y-91742583D01*
X74827553Y-91735142D01*
X74815927Y-91726519D01*
X74805202Y-91716798D01*
X74795481Y-91706073D01*
X74786858Y-91694447D01*
X74779417Y-91682031D01*
X74773228Y-91668946D01*
X74768351Y-91655317D01*
X74764834Y-91641276D01*
X74762710Y-91626958D01*
X74762000Y-91612500D01*
X74762000Y-91267500D01*
X74762710Y-91253042D01*
X74764834Y-91238724D01*
X74768351Y-91224683D01*
X74773228Y-91211054D01*
X74779417Y-91197969D01*
X74786858Y-91185553D01*
X74795481Y-91173927D01*
X74805202Y-91163202D01*
X74815927Y-91153481D01*
X74827553Y-91144858D01*
X74839969Y-91137417D01*
X74853054Y-91131228D01*
X74866683Y-91126351D01*
X74880724Y-91122834D01*
X74895042Y-91120710D01*
X74909500Y-91120000D01*
X75204500Y-91120000D01*
X75218958Y-91120710D01*
X75218958Y-91120710D01*
G37*
D17*
G04 #@! TD*
G04 #@! TO.P,L1,1*
G04 #@! TO.N,/FEED_X*
X75057000Y-91440000D03*
D13*
G04 #@! TO.N,/FEED*
G04 #@! TO.C,L1*
G36*
X74248958Y-91120710D02*
X74263276Y-91122834D01*
X74277317Y-91126351D01*
X74290946Y-91131228D01*
X74304031Y-91137417D01*
X74316447Y-91144858D01*
X74328073Y-91153481D01*
X74338798Y-91163202D01*
X74348519Y-91173927D01*
X74357142Y-91185553D01*
X74364583Y-91197969D01*
X74370772Y-91211054D01*
X74375649Y-91224683D01*
X74379166Y-91238724D01*
X74381290Y-91253042D01*
X74382000Y-91267500D01*
X74382000Y-91612500D01*
X74381290Y-91626958D01*
X74379166Y-91641276D01*
X74375649Y-91655317D01*
X74370772Y-91668946D01*
X74364583Y-91682031D01*
X74357142Y-91694447D01*
X74348519Y-91706073D01*
X74338798Y-91716798D01*
X74328073Y-91726519D01*
X74316447Y-91735142D01*
X74304031Y-91742583D01*
X74290946Y-91748772D01*
X74277317Y-91753649D01*
X74263276Y-91757166D01*
X74248958Y-91759290D01*
X74234500Y-91760000D01*
X73939500Y-91760000D01*
X73925042Y-91759290D01*
X73910724Y-91757166D01*
X73896683Y-91753649D01*
X73883054Y-91748772D01*
X73869969Y-91742583D01*
X73857553Y-91735142D01*
X73845927Y-91726519D01*
X73835202Y-91716798D01*
X73825481Y-91706073D01*
X73816858Y-91694447D01*
X73809417Y-91682031D01*
X73803228Y-91668946D01*
X73798351Y-91655317D01*
X73794834Y-91641276D01*
X73792710Y-91626958D01*
X73792000Y-91612500D01*
X73792000Y-91267500D01*
X73792710Y-91253042D01*
X73794834Y-91238724D01*
X73798351Y-91224683D01*
X73803228Y-91211054D01*
X73809417Y-91197969D01*
X73816858Y-91185553D01*
X73825481Y-91173927D01*
X73835202Y-91163202D01*
X73845927Y-91153481D01*
X73857553Y-91144858D01*
X73869969Y-91137417D01*
X73883054Y-91131228D01*
X73896683Y-91126351D01*
X73910724Y-91122834D01*
X73925042Y-91120710D01*
X73939500Y-91120000D01*
X74234500Y-91120000D01*
X74248958Y-91120710D01*
X74248958Y-91120710D01*
G37*
D17*
G04 #@! TD*
G04 #@! TO.P,L1,2*
G04 #@! TO.N,/FEED*
X74087000Y-91440000D03*
D20*
G04 #@! TO.N,GND*
G04 #@! TO.C,ANT1*
X79443000Y-87830000D03*
D21*
G04 #@! TO.N,/FEED_A*
X77343000Y-87830000D03*
G04 #@! TD*
D13*
G04 #@! TO.N,GND*
G04 #@! TO.C,U1*
G36*
X69334504Y-94831204D02*
X69358773Y-94834804D01*
X69382571Y-94840765D01*
X69405671Y-94849030D01*
X69427849Y-94859520D01*
X69448893Y-94872133D01*
X69468598Y-94886747D01*
X69486777Y-94903223D01*
X69503253Y-94921402D01*
X69517867Y-94941107D01*
X69530480Y-94962151D01*
X69540970Y-94984329D01*
X69549235Y-95007429D01*
X69555196Y-95031227D01*
X69558796Y-95055496D01*
X69560000Y-95080000D01*
X69560000Y-95580000D01*
X69558796Y-95604504D01*
X69555196Y-95628773D01*
X69549235Y-95652571D01*
X69540970Y-95675671D01*
X69530480Y-95697849D01*
X69517867Y-95718893D01*
X69503253Y-95738598D01*
X69486777Y-95756777D01*
X69468598Y-95773253D01*
X69448893Y-95787867D01*
X69427849Y-95800480D01*
X69405671Y-95810970D01*
X69382571Y-95819235D01*
X69358773Y-95825196D01*
X69334504Y-95828796D01*
X69310000Y-95830000D01*
X68010000Y-95830000D01*
X67985496Y-95828796D01*
X67961227Y-95825196D01*
X67937429Y-95819235D01*
X67914329Y-95810970D01*
X67892151Y-95800480D01*
X67871107Y-95787867D01*
X67851402Y-95773253D01*
X67833223Y-95756777D01*
X67816747Y-95738598D01*
X67802133Y-95718893D01*
X67789520Y-95697849D01*
X67779030Y-95675671D01*
X67770765Y-95652571D01*
X67764804Y-95628773D01*
X67761204Y-95604504D01*
X67760000Y-95580000D01*
X67760000Y-95080000D01*
X67761204Y-95055496D01*
X67764804Y-95031227D01*
X67770765Y-95007429D01*
X67779030Y-94984329D01*
X67789520Y-94962151D01*
X67802133Y-94941107D01*
X67816747Y-94921402D01*
X67833223Y-94903223D01*
X67851402Y-94886747D01*
X67871107Y-94872133D01*
X67892151Y-94859520D01*
X67914329Y-94849030D01*
X67937429Y-94840765D01*
X67961227Y-94834804D01*
X67985496Y-94831204D01*
X68010000Y-94830000D01*
X69310000Y-94830000D01*
X69334504Y-94831204D01*
X69334504Y-94831204D01*
G37*
D22*
G04 #@! TD*
G04 #@! TO.P,U1,1*
G04 #@! TO.N,GND*
X68660000Y-95330000D03*
D13*
G04 #@! TO.N,/FEED*
G04 #@! TO.C,U1*
G36*
X69334504Y-96831204D02*
X69358773Y-96834804D01*
X69382571Y-96840765D01*
X69405671Y-96849030D01*
X69427849Y-96859520D01*
X69448893Y-96872133D01*
X69468598Y-96886747D01*
X69486777Y-96903223D01*
X69503253Y-96921402D01*
X69517867Y-96941107D01*
X69530480Y-96962151D01*
X69540970Y-96984329D01*
X69549235Y-97007429D01*
X69555196Y-97031227D01*
X69558796Y-97055496D01*
X69560000Y-97080000D01*
X69560000Y-97580000D01*
X69558796Y-97604504D01*
X69555196Y-97628773D01*
X69549235Y-97652571D01*
X69540970Y-97675671D01*
X69530480Y-97697849D01*
X69517867Y-97718893D01*
X69503253Y-97738598D01*
X69486777Y-97756777D01*
X69468598Y-97773253D01*
X69448893Y-97787867D01*
X69427849Y-97800480D01*
X69405671Y-97810970D01*
X69382571Y-97819235D01*
X69358773Y-97825196D01*
X69334504Y-97828796D01*
X69310000Y-97830000D01*
X68010000Y-97830000D01*
X67985496Y-97828796D01*
X67961227Y-97825196D01*
X67937429Y-97819235D01*
X67914329Y-97810970D01*
X67892151Y-97800480D01*
X67871107Y-97787867D01*
X67851402Y-97773253D01*
X67833223Y-97756777D01*
X67816747Y-97738598D01*
X67802133Y-97718893D01*
X67789520Y-97697849D01*
X67779030Y-97675671D01*
X67770765Y-97652571D01*
X67764804Y-97628773D01*
X67761204Y-97604504D01*
X67760000Y-97580000D01*
X67760000Y-97080000D01*
X67761204Y-97055496D01*
X67764804Y-97031227D01*
X67770765Y-97007429D01*
X67779030Y-96984329D01*
X67789520Y-96962151D01*
X67802133Y-96941107D01*
X67816747Y-96921402D01*
X67833223Y-96903223D01*
X67851402Y-96886747D01*
X67871107Y-96872133D01*
X67892151Y-96859520D01*
X67914329Y-96849030D01*
X67937429Y-96840765D01*
X67961227Y-96834804D01*
X67985496Y-96831204D01*
X68010000Y-96830000D01*
X69310000Y-96830000D01*
X69334504Y-96831204D01*
X69334504Y-96831204D01*
G37*
D22*
G04 #@! TD*
G04 #@! TO.P,U1,2*
G04 #@! TO.N,/FEED*
X68660000Y-97330000D03*
D13*
G04 #@! TO.N,GND*
G04 #@! TO.C,U1*
G36*
X69334504Y-98831204D02*
X69358773Y-98834804D01*
X69382571Y-98840765D01*
X69405671Y-98849030D01*
X69427849Y-98859520D01*
X69448893Y-98872133D01*
X69468598Y-98886747D01*
X69486777Y-98903223D01*
X69503253Y-98921402D01*
X69517867Y-98941107D01*
X69530480Y-98962151D01*
X69540970Y-98984329D01*
X69549235Y-99007429D01*
X69555196Y-99031227D01*
X69558796Y-99055496D01*
X69560000Y-99080000D01*
X69560000Y-99580000D01*
X69558796Y-99604504D01*
X69555196Y-99628773D01*
X69549235Y-99652571D01*
X69540970Y-99675671D01*
X69530480Y-99697849D01*
X69517867Y-99718893D01*
X69503253Y-99738598D01*
X69486777Y-99756777D01*
X69468598Y-99773253D01*
X69448893Y-99787867D01*
X69427849Y-99800480D01*
X69405671Y-99810970D01*
X69382571Y-99819235D01*
X69358773Y-99825196D01*
X69334504Y-99828796D01*
X69310000Y-99830000D01*
X68010000Y-99830000D01*
X67985496Y-99828796D01*
X67961227Y-99825196D01*
X67937429Y-99819235D01*
X67914329Y-99810970D01*
X67892151Y-99800480D01*
X67871107Y-99787867D01*
X67851402Y-99773253D01*
X67833223Y-99756777D01*
X67816747Y-99738598D01*
X67802133Y-99718893D01*
X67789520Y-99697849D01*
X67779030Y-99675671D01*
X67770765Y-99652571D01*
X67764804Y-99628773D01*
X67761204Y-99604504D01*
X67760000Y-99580000D01*
X67760000Y-99080000D01*
X67761204Y-99055496D01*
X67764804Y-99031227D01*
X67770765Y-99007429D01*
X67779030Y-98984329D01*
X67789520Y-98962151D01*
X67802133Y-98941107D01*
X67816747Y-98921402D01*
X67833223Y-98903223D01*
X67851402Y-98886747D01*
X67871107Y-98872133D01*
X67892151Y-98859520D01*
X67914329Y-98849030D01*
X67937429Y-98840765D01*
X67961227Y-98834804D01*
X67985496Y-98831204D01*
X68010000Y-98830000D01*
X69310000Y-98830000D01*
X69334504Y-98831204D01*
X69334504Y-98831204D01*
G37*
D22*
G04 #@! TD*
G04 #@! TO.P,U1,3*
G04 #@! TO.N,GND*
X68660000Y-99330000D03*
D13*
G04 #@! TO.N,/VCC*
G04 #@! TO.C,U1*
G36*
X69334504Y-100831204D02*
X69358773Y-100834804D01*
X69382571Y-100840765D01*
X69405671Y-100849030D01*
X69427849Y-100859520D01*
X69448893Y-100872133D01*
X69468598Y-100886747D01*
X69486777Y-100903223D01*
X69503253Y-100921402D01*
X69517867Y-100941107D01*
X69530480Y-100962151D01*
X69540970Y-100984329D01*
X69549235Y-101007429D01*
X69555196Y-101031227D01*
X69558796Y-101055496D01*
X69560000Y-101080000D01*
X69560000Y-101580000D01*
X69558796Y-101604504D01*
X69555196Y-101628773D01*
X69549235Y-101652571D01*
X69540970Y-101675671D01*
X69530480Y-101697849D01*
X69517867Y-101718893D01*
X69503253Y-101738598D01*
X69486777Y-101756777D01*
X69468598Y-101773253D01*
X69448893Y-101787867D01*
X69427849Y-101800480D01*
X69405671Y-101810970D01*
X69382571Y-101819235D01*
X69358773Y-101825196D01*
X69334504Y-101828796D01*
X69310000Y-101830000D01*
X68010000Y-101830000D01*
X67985496Y-101828796D01*
X67961227Y-101825196D01*
X67937429Y-101819235D01*
X67914329Y-101810970D01*
X67892151Y-101800480D01*
X67871107Y-101787867D01*
X67851402Y-101773253D01*
X67833223Y-101756777D01*
X67816747Y-101738598D01*
X67802133Y-101718893D01*
X67789520Y-101697849D01*
X67779030Y-101675671D01*
X67770765Y-101652571D01*
X67764804Y-101628773D01*
X67761204Y-101604504D01*
X67760000Y-101580000D01*
X67760000Y-101080000D01*
X67761204Y-101055496D01*
X67764804Y-101031227D01*
X67770765Y-101007429D01*
X67779030Y-100984329D01*
X67789520Y-100962151D01*
X67802133Y-100941107D01*
X67816747Y-100921402D01*
X67833223Y-100903223D01*
X67851402Y-100886747D01*
X67871107Y-100872133D01*
X67892151Y-100859520D01*
X67914329Y-100849030D01*
X67937429Y-100840765D01*
X67961227Y-100834804D01*
X67985496Y-100831204D01*
X68010000Y-100830000D01*
X69310000Y-100830000D01*
X69334504Y-100831204D01*
X69334504Y-100831204D01*
G37*
D22*
G04 #@! TD*
G04 #@! TO.P,U1,4*
G04 #@! TO.N,/VCC*
X68660000Y-101330000D03*
D13*
G04 #@! TO.N,Net-(J2-Pad5)*
G04 #@! TO.C,U1*
G36*
X69334504Y-102831204D02*
X69358773Y-102834804D01*
X69382571Y-102840765D01*
X69405671Y-102849030D01*
X69427849Y-102859520D01*
X69448893Y-102872133D01*
X69468598Y-102886747D01*
X69486777Y-102903223D01*
X69503253Y-102921402D01*
X69517867Y-102941107D01*
X69530480Y-102962151D01*
X69540970Y-102984329D01*
X69549235Y-103007429D01*
X69555196Y-103031227D01*
X69558796Y-103055496D01*
X69560000Y-103080000D01*
X69560000Y-103580000D01*
X69558796Y-103604504D01*
X69555196Y-103628773D01*
X69549235Y-103652571D01*
X69540970Y-103675671D01*
X69530480Y-103697849D01*
X69517867Y-103718893D01*
X69503253Y-103738598D01*
X69486777Y-103756777D01*
X69468598Y-103773253D01*
X69448893Y-103787867D01*
X69427849Y-103800480D01*
X69405671Y-103810970D01*
X69382571Y-103819235D01*
X69358773Y-103825196D01*
X69334504Y-103828796D01*
X69310000Y-103830000D01*
X68010000Y-103830000D01*
X67985496Y-103828796D01*
X67961227Y-103825196D01*
X67937429Y-103819235D01*
X67914329Y-103810970D01*
X67892151Y-103800480D01*
X67871107Y-103787867D01*
X67851402Y-103773253D01*
X67833223Y-103756777D01*
X67816747Y-103738598D01*
X67802133Y-103718893D01*
X67789520Y-103697849D01*
X67779030Y-103675671D01*
X67770765Y-103652571D01*
X67764804Y-103628773D01*
X67761204Y-103604504D01*
X67760000Y-103580000D01*
X67760000Y-103080000D01*
X67761204Y-103055496D01*
X67764804Y-103031227D01*
X67770765Y-103007429D01*
X67779030Y-102984329D01*
X67789520Y-102962151D01*
X67802133Y-102941107D01*
X67816747Y-102921402D01*
X67833223Y-102903223D01*
X67851402Y-102886747D01*
X67871107Y-102872133D01*
X67892151Y-102859520D01*
X67914329Y-102849030D01*
X67937429Y-102840765D01*
X67961227Y-102834804D01*
X67985496Y-102831204D01*
X68010000Y-102830000D01*
X69310000Y-102830000D01*
X69334504Y-102831204D01*
X69334504Y-102831204D01*
G37*
D22*
G04 #@! TD*
G04 #@! TO.P,U1,5*
G04 #@! TO.N,Net-(J2-Pad5)*
X68660000Y-103330000D03*
D13*
G04 #@! TO.N,Net-(J2-Pad6)*
G04 #@! TO.C,U1*
G36*
X69334504Y-104831204D02*
X69358773Y-104834804D01*
X69382571Y-104840765D01*
X69405671Y-104849030D01*
X69427849Y-104859520D01*
X69448893Y-104872133D01*
X69468598Y-104886747D01*
X69486777Y-104903223D01*
X69503253Y-104921402D01*
X69517867Y-104941107D01*
X69530480Y-104962151D01*
X69540970Y-104984329D01*
X69549235Y-105007429D01*
X69555196Y-105031227D01*
X69558796Y-105055496D01*
X69560000Y-105080000D01*
X69560000Y-105580000D01*
X69558796Y-105604504D01*
X69555196Y-105628773D01*
X69549235Y-105652571D01*
X69540970Y-105675671D01*
X69530480Y-105697849D01*
X69517867Y-105718893D01*
X69503253Y-105738598D01*
X69486777Y-105756777D01*
X69468598Y-105773253D01*
X69448893Y-105787867D01*
X69427849Y-105800480D01*
X69405671Y-105810970D01*
X69382571Y-105819235D01*
X69358773Y-105825196D01*
X69334504Y-105828796D01*
X69310000Y-105830000D01*
X68010000Y-105830000D01*
X67985496Y-105828796D01*
X67961227Y-105825196D01*
X67937429Y-105819235D01*
X67914329Y-105810970D01*
X67892151Y-105800480D01*
X67871107Y-105787867D01*
X67851402Y-105773253D01*
X67833223Y-105756777D01*
X67816747Y-105738598D01*
X67802133Y-105718893D01*
X67789520Y-105697849D01*
X67779030Y-105675671D01*
X67770765Y-105652571D01*
X67764804Y-105628773D01*
X67761204Y-105604504D01*
X67760000Y-105580000D01*
X67760000Y-105080000D01*
X67761204Y-105055496D01*
X67764804Y-105031227D01*
X67770765Y-105007429D01*
X67779030Y-104984329D01*
X67789520Y-104962151D01*
X67802133Y-104941107D01*
X67816747Y-104921402D01*
X67833223Y-104903223D01*
X67851402Y-104886747D01*
X67871107Y-104872133D01*
X67892151Y-104859520D01*
X67914329Y-104849030D01*
X67937429Y-104840765D01*
X67961227Y-104834804D01*
X67985496Y-104831204D01*
X68010000Y-104830000D01*
X69310000Y-104830000D01*
X69334504Y-104831204D01*
X69334504Y-104831204D01*
G37*
D22*
G04 #@! TD*
G04 #@! TO.P,U1,6*
G04 #@! TO.N,Net-(J2-Pad6)*
X68660000Y-105330000D03*
D13*
G04 #@! TO.N,Net-(J1-Pad5)*
G04 #@! TO.C,U1*
G36*
X79334504Y-102831204D02*
X79358773Y-102834804D01*
X79382571Y-102840765D01*
X79405671Y-102849030D01*
X79427849Y-102859520D01*
X79448893Y-102872133D01*
X79468598Y-102886747D01*
X79486777Y-102903223D01*
X79503253Y-102921402D01*
X79517867Y-102941107D01*
X79530480Y-102962151D01*
X79540970Y-102984329D01*
X79549235Y-103007429D01*
X79555196Y-103031227D01*
X79558796Y-103055496D01*
X79560000Y-103080000D01*
X79560000Y-103580000D01*
X79558796Y-103604504D01*
X79555196Y-103628773D01*
X79549235Y-103652571D01*
X79540970Y-103675671D01*
X79530480Y-103697849D01*
X79517867Y-103718893D01*
X79503253Y-103738598D01*
X79486777Y-103756777D01*
X79468598Y-103773253D01*
X79448893Y-103787867D01*
X79427849Y-103800480D01*
X79405671Y-103810970D01*
X79382571Y-103819235D01*
X79358773Y-103825196D01*
X79334504Y-103828796D01*
X79310000Y-103830000D01*
X78010000Y-103830000D01*
X77985496Y-103828796D01*
X77961227Y-103825196D01*
X77937429Y-103819235D01*
X77914329Y-103810970D01*
X77892151Y-103800480D01*
X77871107Y-103787867D01*
X77851402Y-103773253D01*
X77833223Y-103756777D01*
X77816747Y-103738598D01*
X77802133Y-103718893D01*
X77789520Y-103697849D01*
X77779030Y-103675671D01*
X77770765Y-103652571D01*
X77764804Y-103628773D01*
X77761204Y-103604504D01*
X77760000Y-103580000D01*
X77760000Y-103080000D01*
X77761204Y-103055496D01*
X77764804Y-103031227D01*
X77770765Y-103007429D01*
X77779030Y-102984329D01*
X77789520Y-102962151D01*
X77802133Y-102941107D01*
X77816747Y-102921402D01*
X77833223Y-102903223D01*
X77851402Y-102886747D01*
X77871107Y-102872133D01*
X77892151Y-102859520D01*
X77914329Y-102849030D01*
X77937429Y-102840765D01*
X77961227Y-102834804D01*
X77985496Y-102831204D01*
X78010000Y-102830000D01*
X79310000Y-102830000D01*
X79334504Y-102831204D01*
X79334504Y-102831204D01*
G37*
D22*
G04 #@! TD*
G04 #@! TO.P,U1,8*
G04 #@! TO.N,Net-(J1-Pad5)*
X78660000Y-103330000D03*
D13*
G04 #@! TO.N,Net-(J1-Pad4)*
G04 #@! TO.C,U1*
G36*
X79334504Y-100831204D02*
X79358773Y-100834804D01*
X79382571Y-100840765D01*
X79405671Y-100849030D01*
X79427849Y-100859520D01*
X79448893Y-100872133D01*
X79468598Y-100886747D01*
X79486777Y-100903223D01*
X79503253Y-100921402D01*
X79517867Y-100941107D01*
X79530480Y-100962151D01*
X79540970Y-100984329D01*
X79549235Y-101007429D01*
X79555196Y-101031227D01*
X79558796Y-101055496D01*
X79560000Y-101080000D01*
X79560000Y-101580000D01*
X79558796Y-101604504D01*
X79555196Y-101628773D01*
X79549235Y-101652571D01*
X79540970Y-101675671D01*
X79530480Y-101697849D01*
X79517867Y-101718893D01*
X79503253Y-101738598D01*
X79486777Y-101756777D01*
X79468598Y-101773253D01*
X79448893Y-101787867D01*
X79427849Y-101800480D01*
X79405671Y-101810970D01*
X79382571Y-101819235D01*
X79358773Y-101825196D01*
X79334504Y-101828796D01*
X79310000Y-101830000D01*
X78010000Y-101830000D01*
X77985496Y-101828796D01*
X77961227Y-101825196D01*
X77937429Y-101819235D01*
X77914329Y-101810970D01*
X77892151Y-101800480D01*
X77871107Y-101787867D01*
X77851402Y-101773253D01*
X77833223Y-101756777D01*
X77816747Y-101738598D01*
X77802133Y-101718893D01*
X77789520Y-101697849D01*
X77779030Y-101675671D01*
X77770765Y-101652571D01*
X77764804Y-101628773D01*
X77761204Y-101604504D01*
X77760000Y-101580000D01*
X77760000Y-101080000D01*
X77761204Y-101055496D01*
X77764804Y-101031227D01*
X77770765Y-101007429D01*
X77779030Y-100984329D01*
X77789520Y-100962151D01*
X77802133Y-100941107D01*
X77816747Y-100921402D01*
X77833223Y-100903223D01*
X77851402Y-100886747D01*
X77871107Y-100872133D01*
X77892151Y-100859520D01*
X77914329Y-100849030D01*
X77937429Y-100840765D01*
X77961227Y-100834804D01*
X77985496Y-100831204D01*
X78010000Y-100830000D01*
X79310000Y-100830000D01*
X79334504Y-100831204D01*
X79334504Y-100831204D01*
G37*
D22*
G04 #@! TD*
G04 #@! TO.P,U1,9*
G04 #@! TO.N,Net-(J1-Pad4)*
X78660000Y-101330000D03*
D13*
G04 #@! TO.N,Net-(J1-Pad6)*
G04 #@! TO.C,U1*
G36*
X79334504Y-104831204D02*
X79358773Y-104834804D01*
X79382571Y-104840765D01*
X79405671Y-104849030D01*
X79427849Y-104859520D01*
X79448893Y-104872133D01*
X79468598Y-104886747D01*
X79486777Y-104903223D01*
X79503253Y-104921402D01*
X79517867Y-104941107D01*
X79530480Y-104962151D01*
X79540970Y-104984329D01*
X79549235Y-105007429D01*
X79555196Y-105031227D01*
X79558796Y-105055496D01*
X79560000Y-105080000D01*
X79560000Y-105580000D01*
X79558796Y-105604504D01*
X79555196Y-105628773D01*
X79549235Y-105652571D01*
X79540970Y-105675671D01*
X79530480Y-105697849D01*
X79517867Y-105718893D01*
X79503253Y-105738598D01*
X79486777Y-105756777D01*
X79468598Y-105773253D01*
X79448893Y-105787867D01*
X79427849Y-105800480D01*
X79405671Y-105810970D01*
X79382571Y-105819235D01*
X79358773Y-105825196D01*
X79334504Y-105828796D01*
X79310000Y-105830000D01*
X78010000Y-105830000D01*
X77985496Y-105828796D01*
X77961227Y-105825196D01*
X77937429Y-105819235D01*
X77914329Y-105810970D01*
X77892151Y-105800480D01*
X77871107Y-105787867D01*
X77851402Y-105773253D01*
X77833223Y-105756777D01*
X77816747Y-105738598D01*
X77802133Y-105718893D01*
X77789520Y-105697849D01*
X77779030Y-105675671D01*
X77770765Y-105652571D01*
X77764804Y-105628773D01*
X77761204Y-105604504D01*
X77760000Y-105580000D01*
X77760000Y-105080000D01*
X77761204Y-105055496D01*
X77764804Y-105031227D01*
X77770765Y-105007429D01*
X77779030Y-104984329D01*
X77789520Y-104962151D01*
X77802133Y-104941107D01*
X77816747Y-104921402D01*
X77833223Y-104903223D01*
X77851402Y-104886747D01*
X77871107Y-104872133D01*
X77892151Y-104859520D01*
X77914329Y-104849030D01*
X77937429Y-104840765D01*
X77961227Y-104834804D01*
X77985496Y-104831204D01*
X78010000Y-104830000D01*
X79310000Y-104830000D01*
X79334504Y-104831204D01*
X79334504Y-104831204D01*
G37*
D22*
G04 #@! TD*
G04 #@! TO.P,U1,7*
G04 #@! TO.N,Net-(J1-Pad6)*
X78660000Y-105330000D03*
D13*
G04 #@! TO.N,Net-(J1-Pad2)*
G04 #@! TO.C,U1*
G36*
X79334504Y-96831204D02*
X79358773Y-96834804D01*
X79382571Y-96840765D01*
X79405671Y-96849030D01*
X79427849Y-96859520D01*
X79448893Y-96872133D01*
X79468598Y-96886747D01*
X79486777Y-96903223D01*
X79503253Y-96921402D01*
X79517867Y-96941107D01*
X79530480Y-96962151D01*
X79540970Y-96984329D01*
X79549235Y-97007429D01*
X79555196Y-97031227D01*
X79558796Y-97055496D01*
X79560000Y-97080000D01*
X79560000Y-97580000D01*
X79558796Y-97604504D01*
X79555196Y-97628773D01*
X79549235Y-97652571D01*
X79540970Y-97675671D01*
X79530480Y-97697849D01*
X79517867Y-97718893D01*
X79503253Y-97738598D01*
X79486777Y-97756777D01*
X79468598Y-97773253D01*
X79448893Y-97787867D01*
X79427849Y-97800480D01*
X79405671Y-97810970D01*
X79382571Y-97819235D01*
X79358773Y-97825196D01*
X79334504Y-97828796D01*
X79310000Y-97830000D01*
X78010000Y-97830000D01*
X77985496Y-97828796D01*
X77961227Y-97825196D01*
X77937429Y-97819235D01*
X77914329Y-97810970D01*
X77892151Y-97800480D01*
X77871107Y-97787867D01*
X77851402Y-97773253D01*
X77833223Y-97756777D01*
X77816747Y-97738598D01*
X77802133Y-97718893D01*
X77789520Y-97697849D01*
X77779030Y-97675671D01*
X77770765Y-97652571D01*
X77764804Y-97628773D01*
X77761204Y-97604504D01*
X77760000Y-97580000D01*
X77760000Y-97080000D01*
X77761204Y-97055496D01*
X77764804Y-97031227D01*
X77770765Y-97007429D01*
X77779030Y-96984329D01*
X77789520Y-96962151D01*
X77802133Y-96941107D01*
X77816747Y-96921402D01*
X77833223Y-96903223D01*
X77851402Y-96886747D01*
X77871107Y-96872133D01*
X77892151Y-96859520D01*
X77914329Y-96849030D01*
X77937429Y-96840765D01*
X77961227Y-96834804D01*
X77985496Y-96831204D01*
X78010000Y-96830000D01*
X79310000Y-96830000D01*
X79334504Y-96831204D01*
X79334504Y-96831204D01*
G37*
D22*
G04 #@! TD*
G04 #@! TO.P,U1,11*
G04 #@! TO.N,Net-(J1-Pad2)*
X78660000Y-97330000D03*
D13*
G04 #@! TO.N,Net-(J1-Pad3)*
G04 #@! TO.C,U1*
G36*
X79334504Y-98831204D02*
X79358773Y-98834804D01*
X79382571Y-98840765D01*
X79405671Y-98849030D01*
X79427849Y-98859520D01*
X79448893Y-98872133D01*
X79468598Y-98886747D01*
X79486777Y-98903223D01*
X79503253Y-98921402D01*
X79517867Y-98941107D01*
X79530480Y-98962151D01*
X79540970Y-98984329D01*
X79549235Y-99007429D01*
X79555196Y-99031227D01*
X79558796Y-99055496D01*
X79560000Y-99080000D01*
X79560000Y-99580000D01*
X79558796Y-99604504D01*
X79555196Y-99628773D01*
X79549235Y-99652571D01*
X79540970Y-99675671D01*
X79530480Y-99697849D01*
X79517867Y-99718893D01*
X79503253Y-99738598D01*
X79486777Y-99756777D01*
X79468598Y-99773253D01*
X79448893Y-99787867D01*
X79427849Y-99800480D01*
X79405671Y-99810970D01*
X79382571Y-99819235D01*
X79358773Y-99825196D01*
X79334504Y-99828796D01*
X79310000Y-99830000D01*
X78010000Y-99830000D01*
X77985496Y-99828796D01*
X77961227Y-99825196D01*
X77937429Y-99819235D01*
X77914329Y-99810970D01*
X77892151Y-99800480D01*
X77871107Y-99787867D01*
X77851402Y-99773253D01*
X77833223Y-99756777D01*
X77816747Y-99738598D01*
X77802133Y-99718893D01*
X77789520Y-99697849D01*
X77779030Y-99675671D01*
X77770765Y-99652571D01*
X77764804Y-99628773D01*
X77761204Y-99604504D01*
X77760000Y-99580000D01*
X77760000Y-99080000D01*
X77761204Y-99055496D01*
X77764804Y-99031227D01*
X77770765Y-99007429D01*
X77779030Y-98984329D01*
X77789520Y-98962151D01*
X77802133Y-98941107D01*
X77816747Y-98921402D01*
X77833223Y-98903223D01*
X77851402Y-98886747D01*
X77871107Y-98872133D01*
X77892151Y-98859520D01*
X77914329Y-98849030D01*
X77937429Y-98840765D01*
X77961227Y-98834804D01*
X77985496Y-98831204D01*
X78010000Y-98830000D01*
X79310000Y-98830000D01*
X79334504Y-98831204D01*
X79334504Y-98831204D01*
G37*
D22*
G04 #@! TD*
G04 #@! TO.P,U1,10*
G04 #@! TO.N,Net-(J1-Pad3)*
X78660000Y-99330000D03*
D13*
G04 #@! TO.N,Net-(J1-Pad1)*
G04 #@! TO.C,U1*
G36*
X79334504Y-94831204D02*
X79358773Y-94834804D01*
X79382571Y-94840765D01*
X79405671Y-94849030D01*
X79427849Y-94859520D01*
X79448893Y-94872133D01*
X79468598Y-94886747D01*
X79486777Y-94903223D01*
X79503253Y-94921402D01*
X79517867Y-94941107D01*
X79530480Y-94962151D01*
X79540970Y-94984329D01*
X79549235Y-95007429D01*
X79555196Y-95031227D01*
X79558796Y-95055496D01*
X79560000Y-95080000D01*
X79560000Y-95580000D01*
X79558796Y-95604504D01*
X79555196Y-95628773D01*
X79549235Y-95652571D01*
X79540970Y-95675671D01*
X79530480Y-95697849D01*
X79517867Y-95718893D01*
X79503253Y-95738598D01*
X79486777Y-95756777D01*
X79468598Y-95773253D01*
X79448893Y-95787867D01*
X79427849Y-95800480D01*
X79405671Y-95810970D01*
X79382571Y-95819235D01*
X79358773Y-95825196D01*
X79334504Y-95828796D01*
X79310000Y-95830000D01*
X78010000Y-95830000D01*
X77985496Y-95828796D01*
X77961227Y-95825196D01*
X77937429Y-95819235D01*
X77914329Y-95810970D01*
X77892151Y-95800480D01*
X77871107Y-95787867D01*
X77851402Y-95773253D01*
X77833223Y-95756777D01*
X77816747Y-95738598D01*
X77802133Y-95718893D01*
X77789520Y-95697849D01*
X77779030Y-95675671D01*
X77770765Y-95652571D01*
X77764804Y-95628773D01*
X77761204Y-95604504D01*
X77760000Y-95580000D01*
X77760000Y-95080000D01*
X77761204Y-95055496D01*
X77764804Y-95031227D01*
X77770765Y-95007429D01*
X77779030Y-94984329D01*
X77789520Y-94962151D01*
X77802133Y-94941107D01*
X77816747Y-94921402D01*
X77833223Y-94903223D01*
X77851402Y-94886747D01*
X77871107Y-94872133D01*
X77892151Y-94859520D01*
X77914329Y-94849030D01*
X77937429Y-94840765D01*
X77961227Y-94834804D01*
X77985496Y-94831204D01*
X78010000Y-94830000D01*
X79310000Y-94830000D01*
X79334504Y-94831204D01*
X79334504Y-94831204D01*
G37*
D22*
G04 #@! TD*
G04 #@! TO.P,U1,12*
G04 #@! TO.N,Net-(J1-Pad1)*
X78660000Y-95330000D03*
D23*
G04 #@! TO.N,GND*
X61849000Y-88773000D03*
X66017000Y-88773000D03*
X69677000Y-88773000D03*
X73337000Y-88773000D03*
X85460000Y-88773000D03*
X61849000Y-92373000D03*
X85460000Y-92373000D03*
X73337000Y-95973000D03*
X76997000Y-95973000D03*
X85460000Y-95973000D03*
X61849000Y-99573000D03*
X66017000Y-99573000D03*
X69677000Y-99573000D03*
X73337000Y-99573000D03*
X76997000Y-99573000D03*
X85460000Y-99573000D03*
X61849000Y-103173000D03*
X73337000Y-103173000D03*
X76997000Y-103173000D03*
X85460000Y-103173000D03*
X61849000Y-106773000D03*
X66017000Y-106773000D03*
X69677000Y-106773000D03*
X73337000Y-106773000D03*
X76997000Y-106773000D03*
X80657000Y-106773000D03*
X85460000Y-106773000D03*
X85460000Y-101395000D03*
X85460000Y-104995000D03*
X85460000Y-97795000D03*
X85460000Y-94195000D03*
X85460000Y-90595000D03*
X64389000Y-106807000D03*
X75115000Y-106773000D03*
X82931000Y-106773000D03*
X78775000Y-106773000D03*
X67795000Y-106773000D03*
X71455000Y-106773000D03*
X61849000Y-104995000D03*
X61849000Y-97795000D03*
X61849000Y-101395000D03*
X61849000Y-90595000D03*
X67899000Y-88773000D03*
X71559000Y-88773000D03*
X64239000Y-88773000D03*
X81858000Y-88773000D03*
X83740000Y-88773000D03*
X64262000Y-90551000D03*
X67564000Y-94234000D03*
X75311000Y-97790000D03*
X75311000Y-101346000D03*
X70866000Y-101219000D03*
X70866000Y-104775000D03*
X75311000Y-104775000D03*
X75311000Y-94742000D03*
X82804000Y-90551000D03*
D24*
X72390000Y-90170000D03*
X73406000Y-90170000D03*
X74422000Y-90170000D03*
X75565000Y-90170000D03*
X76073000Y-89281000D03*
X76073000Y-88265000D03*
X78613000Y-88265000D03*
X78613000Y-89154000D03*
X79629000Y-89154000D03*
X80518000Y-89916000D03*
X79756000Y-90932000D03*
X78867000Y-90932000D03*
X78867000Y-91948000D03*
X79756000Y-91948000D03*
X77724000Y-92710000D03*
X76708000Y-92710000D03*
X75438000Y-92710000D03*
X74549000Y-92710000D03*
X73660000Y-92710000D03*
D23*
X69215000Y-98552000D03*
X68072000Y-98552000D03*
X66929000Y-98552000D03*
X65913000Y-98044000D03*
X65278000Y-97409000D03*
X62738000Y-96774000D03*
X62103000Y-96012000D03*
X61849000Y-94996000D03*
X62357000Y-94107000D03*
X62865000Y-93599000D03*
X64262000Y-93599000D03*
D24*
X71374000Y-90170000D03*
X70358000Y-90170000D03*
X69342000Y-90170000D03*
X68326000Y-90170000D03*
D23*
X70104000Y-98171000D03*
X70358000Y-97282000D03*
X70104000Y-96520000D03*
X69215000Y-96012000D03*
X68326000Y-96012000D03*
X67564000Y-96012000D03*
X67564000Y-95123000D03*
X70866000Y-94742000D03*
X72009000Y-97790000D03*
X67564000Y-93345000D03*
X68072000Y-92710000D03*
X69088000Y-92710000D03*
X70104000Y-92710000D03*
X71247000Y-92710000D03*
X72263000Y-92710000D03*
D24*
X66548000Y-90678000D03*
X65913000Y-91313000D03*
X65278000Y-91948000D03*
X65024000Y-92964000D03*
X65024000Y-93980000D03*
X65024000Y-96520000D03*
X67437000Y-90170000D03*
D23*
X64135000Y-96774000D03*
G04 #@! TD*
D25*
G04 #@! TO.N,GND*
X66165000Y-99330000D02*
X66040000Y-99455000D01*
X68660000Y-99330000D02*
X66165000Y-99330000D01*
X66040000Y-99455000D02*
X66040000Y-99060000D01*
X64770000Y-99060000D02*
X63500000Y-97790000D01*
X66040000Y-99060000D02*
X64770000Y-99060000D01*
X79375000Y-88079000D02*
X79443000Y-88011000D01*
X79697000Y-88265000D02*
X79443000Y-88011000D01*
D26*
X79883000Y-88265000D02*
X78867000Y-88265000D01*
D25*
X79883000Y-88265000D02*
X79697000Y-88265000D01*
D26*
X80391000Y-88265000D02*
X79883000Y-88265000D01*
D27*
G04 #@! TO.N,Net-(J2-Pad2)*
X63500000Y-95250000D02*
X63925030Y-95250000D01*
D28*
X63500000Y-95250000D02*
X65216990Y-95250000D01*
D25*
G04 #@! TO.N,Net-(J1-Pad5)*
X78660000Y-103330000D02*
X80820000Y-103330000D01*
X81280000Y-102870000D02*
X83820000Y-102870000D01*
X80820000Y-103330000D02*
X81280000Y-102870000D01*
G04 #@! TO.N,Net-(J1-Pad4)*
X78660000Y-101330000D02*
X80280000Y-101330000D01*
X81280000Y-100330000D02*
X83820000Y-100330000D01*
X80280000Y-101330000D02*
X81280000Y-100330000D01*
G04 #@! TO.N,Net-(J1-Pad6)*
X83740000Y-105330000D02*
X83820000Y-105410000D01*
X78660000Y-105330000D02*
X83740000Y-105330000D01*
G04 #@! TO.N,Net-(J1-Pad2)*
X78660000Y-97330000D02*
X80470000Y-97330000D01*
X82550000Y-95250000D02*
X83820000Y-95250000D01*
X80470000Y-97330000D02*
X82550000Y-95250000D01*
G04 #@! TO.N,Net-(J1-Pad3)*
X81788000Y-97790000D02*
X83820000Y-97790000D01*
X80248000Y-99330000D02*
X81788000Y-97790000D01*
X78660000Y-99330000D02*
X80248000Y-99330000D01*
G04 #@! TO.N,Net-(J1-Pad1)*
X78660000Y-95330000D02*
X79930000Y-95330000D01*
X82550000Y-92710000D02*
X83820000Y-92710000D01*
X79930000Y-95330000D02*
X82550000Y-92710000D01*
G04 #@! TO.N,Net-(J2-Pad5)*
X67310000Y-103330000D02*
X68660000Y-103330000D01*
X66850000Y-102870000D02*
X67310000Y-103330000D01*
X63500000Y-102870000D02*
X66850000Y-102870000D01*
G04 #@! TO.N,Net-(J2-Pad6)*
X63580000Y-105330000D02*
X63500000Y-105410000D01*
X68660000Y-105330000D02*
X63580000Y-105330000D01*
G04 #@! TO.N,/VCC*
X66165000Y-101330000D02*
X66040000Y-101205000D01*
X68660000Y-101330000D02*
X66165000Y-101330000D01*
X64375000Y-101205000D02*
X63500000Y-100330000D01*
X66040000Y-101205000D02*
X64375000Y-101205000D01*
D28*
G04 #@! TO.N,/FEED*
X71882000Y-91440000D02*
X74087000Y-91440000D01*
X68660000Y-97330000D02*
X66977000Y-97330000D01*
X66977000Y-97330000D02*
X66294000Y-96647000D01*
X66294000Y-96647000D02*
X66294000Y-92710000D01*
X67564000Y-91440000D02*
X71882000Y-91440000D01*
X66294000Y-92710000D02*
X67564000Y-91440000D01*
G04 #@! TO.N,/FEED_A*
X77343000Y-88138000D02*
X77343000Y-89408000D01*
G04 #@! TO.N,/FEED_X*
X77748000Y-91440000D02*
X75164010Y-91440000D01*
X77343000Y-91035000D02*
X77343000Y-90418010D01*
X77748000Y-91440000D02*
X77343000Y-91035000D01*
G04 #@! TD*
D13*
G04 #@! TO.N,GND*
G36*
X76332831Y-87937066D02*
X76318000Y-88087650D01*
X76318001Y-89458351D01*
X76332832Y-89608935D01*
X76391443Y-89802148D01*
X76392879Y-89804835D01*
X76392879Y-89816000D01*
X76401713Y-89905693D01*
X76400958Y-89908181D01*
X76390339Y-90016000D01*
X76390339Y-90027501D01*
X76332831Y-90217075D01*
X76318000Y-90367659D01*
X76318000Y-90415000D01*
X75113659Y-90415000D01*
X74963075Y-90429831D01*
X74769862Y-90488442D01*
X74625505Y-90565602D01*
X74481148Y-90488442D01*
X74287935Y-90429831D01*
X74137351Y-90415000D01*
X67614342Y-90415000D01*
X67563999Y-90410042D01*
X67513656Y-90415000D01*
X67513649Y-90415000D01*
X67381665Y-90427999D01*
X67363064Y-90429831D01*
X67318262Y-90443422D01*
X67169852Y-90488442D01*
X66991785Y-90583620D01*
X66835709Y-90711709D01*
X66803612Y-90750819D01*
X65604825Y-91949608D01*
X65565710Y-91981709D01*
X65437621Y-92137785D01*
X65352851Y-92296380D01*
X65342443Y-92315852D01*
X65283831Y-92509066D01*
X65264041Y-92710000D01*
X65269001Y-92760360D01*
X65269001Y-94225163D01*
X65267341Y-94225000D01*
X64457866Y-94225000D01*
X64281562Y-94080310D01*
X64038349Y-93950310D01*
X63774448Y-93870257D01*
X63568777Y-93850000D01*
X63431223Y-93850000D01*
X63225552Y-93870257D01*
X62961651Y-93950310D01*
X62718438Y-94080310D01*
X62505261Y-94255261D01*
X62330310Y-94468438D01*
X62200310Y-94711651D01*
X62120257Y-94975552D01*
X62093226Y-95250000D01*
X62120257Y-95524448D01*
X62200310Y-95788349D01*
X62330310Y-96031562D01*
X62505261Y-96244739D01*
X62718438Y-96419690D01*
X62961651Y-96549690D01*
X63225552Y-96629743D01*
X63431223Y-96650000D01*
X63568777Y-96650000D01*
X63774448Y-96629743D01*
X64038349Y-96549690D01*
X64281562Y-96419690D01*
X64457866Y-96275000D01*
X65267341Y-96275000D01*
X65269000Y-96274837D01*
X65269000Y-96596649D01*
X65264041Y-96647000D01*
X65278643Y-96795261D01*
X65283831Y-96847934D01*
X65342442Y-97041147D01*
X65437620Y-97219215D01*
X65565709Y-97375291D01*
X65604829Y-97407396D01*
X66216607Y-98019175D01*
X66248709Y-98058291D01*
X66404785Y-98186380D01*
X66582852Y-98281558D01*
X66776065Y-98340169D01*
X66916070Y-98353958D01*
X66977000Y-98359959D01*
X67027351Y-98355000D01*
X67813066Y-98355000D01*
X67853409Y-98367238D01*
X68010000Y-98382661D01*
X69310000Y-98382661D01*
X69466591Y-98367238D01*
X69617165Y-98321562D01*
X69755935Y-98247388D01*
X69877567Y-98147567D01*
X69977388Y-98025935D01*
X70051562Y-97887165D01*
X70097238Y-97736591D01*
X70112661Y-97580000D01*
X70112661Y-97080000D01*
X70097238Y-96923409D01*
X70051562Y-96772835D01*
X69977388Y-96634065D01*
X69877567Y-96512433D01*
X69755935Y-96412612D01*
X69617165Y-96338438D01*
X69466591Y-96292762D01*
X69310000Y-96277339D01*
X68010000Y-96277339D01*
X67853409Y-96292762D01*
X67813066Y-96305000D01*
X67401568Y-96305000D01*
X67319000Y-96222433D01*
X67319000Y-95080000D01*
X77207339Y-95080000D01*
X77207339Y-95580000D01*
X77222762Y-95736591D01*
X77268438Y-95887165D01*
X77342612Y-96025935D01*
X77442433Y-96147567D01*
X77564065Y-96247388D01*
X77702835Y-96321562D01*
X77730651Y-96330000D01*
X77702835Y-96338438D01*
X77564065Y-96412612D01*
X77442433Y-96512433D01*
X77342612Y-96634065D01*
X77268438Y-96772835D01*
X77222762Y-96923409D01*
X77207339Y-97080000D01*
X77207339Y-97580000D01*
X77222762Y-97736591D01*
X77268438Y-97887165D01*
X77342612Y-98025935D01*
X77442433Y-98147567D01*
X77564065Y-98247388D01*
X77702835Y-98321562D01*
X77730651Y-98330000D01*
X77702835Y-98338438D01*
X77564065Y-98412612D01*
X77442433Y-98512433D01*
X77342612Y-98634065D01*
X77268438Y-98772835D01*
X77222762Y-98923409D01*
X77207339Y-99080000D01*
X77207339Y-99580000D01*
X77222762Y-99736591D01*
X77268438Y-99887165D01*
X77342612Y-100025935D01*
X77442433Y-100147567D01*
X77564065Y-100247388D01*
X77702835Y-100321562D01*
X77730651Y-100330000D01*
X77702835Y-100338438D01*
X77564065Y-100412612D01*
X77442433Y-100512433D01*
X77342612Y-100634065D01*
X77268438Y-100772835D01*
X77222762Y-100923409D01*
X77207339Y-101080000D01*
X77207339Y-101580000D01*
X77222762Y-101736591D01*
X77268438Y-101887165D01*
X77342612Y-102025935D01*
X77442433Y-102147567D01*
X77564065Y-102247388D01*
X77702835Y-102321562D01*
X77730651Y-102330000D01*
X77702835Y-102338438D01*
X77564065Y-102412612D01*
X77442433Y-102512433D01*
X77342612Y-102634065D01*
X77268438Y-102772835D01*
X77222762Y-102923409D01*
X77207339Y-103080000D01*
X77207339Y-103580000D01*
X77222762Y-103736591D01*
X77268438Y-103887165D01*
X77342612Y-104025935D01*
X77442433Y-104147567D01*
X77564065Y-104247388D01*
X77702835Y-104321562D01*
X77730651Y-104330000D01*
X77702835Y-104338438D01*
X77564065Y-104412612D01*
X77442433Y-104512433D01*
X77342612Y-104634065D01*
X77268438Y-104772835D01*
X77222762Y-104923409D01*
X77207339Y-105080000D01*
X77207339Y-105580000D01*
X77222762Y-105736591D01*
X77268438Y-105887165D01*
X77342612Y-106025935D01*
X77442433Y-106147567D01*
X77564065Y-106247388D01*
X77702835Y-106321562D01*
X77853409Y-106367238D01*
X78010000Y-106382661D01*
X79310000Y-106382661D01*
X79466591Y-106367238D01*
X79617165Y-106321562D01*
X79755935Y-106247388D01*
X79877567Y-106147567D01*
X79977388Y-106025935D01*
X79988578Y-106005000D01*
X82550591Y-106005000D01*
X82650310Y-106191562D01*
X82825261Y-106404739D01*
X83038438Y-106579690D01*
X83281651Y-106709690D01*
X83545552Y-106789743D01*
X83751223Y-106810000D01*
X83888777Y-106810000D01*
X84094448Y-106789743D01*
X84358349Y-106709690D01*
X84601562Y-106579690D01*
X84814739Y-106404739D01*
X84989690Y-106191562D01*
X85119690Y-105948349D01*
X85199743Y-105684448D01*
X85226774Y-105410000D01*
X85199743Y-105135552D01*
X85119690Y-104871651D01*
X84989690Y-104628438D01*
X84814739Y-104415261D01*
X84601562Y-104240310D01*
X84413895Y-104140000D01*
X84601562Y-104039690D01*
X84814739Y-103864739D01*
X84989690Y-103651562D01*
X85119690Y-103408349D01*
X85199743Y-103144448D01*
X85226774Y-102870000D01*
X85199743Y-102595552D01*
X85119690Y-102331651D01*
X84989690Y-102088438D01*
X84814739Y-101875261D01*
X84601562Y-101700310D01*
X84413895Y-101600000D01*
X84601562Y-101499690D01*
X84814739Y-101324739D01*
X84989690Y-101111562D01*
X85119690Y-100868349D01*
X85199743Y-100604448D01*
X85226774Y-100330000D01*
X85199743Y-100055552D01*
X85119690Y-99791651D01*
X84989690Y-99548438D01*
X84814739Y-99335261D01*
X84601562Y-99160310D01*
X84413895Y-99060000D01*
X84601562Y-98959690D01*
X84814739Y-98784739D01*
X84989690Y-98571562D01*
X85119690Y-98328349D01*
X85199743Y-98064448D01*
X85226774Y-97790000D01*
X85199743Y-97515552D01*
X85119690Y-97251651D01*
X84989690Y-97008438D01*
X84814739Y-96795261D01*
X84601562Y-96620310D01*
X84413895Y-96520000D01*
X84601562Y-96419690D01*
X84814739Y-96244739D01*
X84989690Y-96031562D01*
X85119690Y-95788349D01*
X85199743Y-95524448D01*
X85226774Y-95250000D01*
X85199743Y-94975552D01*
X85119690Y-94711651D01*
X84989690Y-94468438D01*
X84814739Y-94255261D01*
X84640982Y-94112661D01*
X84670000Y-94112661D01*
X84777819Y-94102042D01*
X84881494Y-94070592D01*
X84977042Y-94019521D01*
X85060790Y-93950790D01*
X85129521Y-93867042D01*
X85180592Y-93771494D01*
X85212042Y-93667819D01*
X85222661Y-93560000D01*
X85222661Y-91860000D01*
X85212042Y-91752181D01*
X85180592Y-91648506D01*
X85129521Y-91552958D01*
X85060790Y-91469210D01*
X84977042Y-91400479D01*
X84881494Y-91349408D01*
X84777819Y-91317958D01*
X84670000Y-91307339D01*
X82970000Y-91307339D01*
X82862181Y-91317958D01*
X82758506Y-91349408D01*
X82662958Y-91400479D01*
X82579210Y-91469210D01*
X82510479Y-91552958D01*
X82459408Y-91648506D01*
X82427958Y-91752181D01*
X82417339Y-91860000D01*
X82417339Y-92044869D01*
X82290439Y-92083364D01*
X82173176Y-92146042D01*
X82070394Y-92230394D01*
X82049258Y-92256148D01*
X79831104Y-94474302D01*
X79755935Y-94412612D01*
X79617165Y-94338438D01*
X79466591Y-94292762D01*
X79310000Y-94277339D01*
X78010000Y-94277339D01*
X77853409Y-94292762D01*
X77702835Y-94338438D01*
X77564065Y-94412612D01*
X77442433Y-94512433D01*
X77342612Y-94634065D01*
X77268438Y-94772835D01*
X77222762Y-94923409D01*
X77207339Y-95080000D01*
X67319000Y-95080000D01*
X67319000Y-93134568D01*
X67988568Y-92465000D01*
X72497818Y-92465000D01*
X72584560Y-92511364D01*
X72715905Y-92551208D01*
X72852500Y-92564661D01*
X73197500Y-92564661D01*
X73334095Y-92551208D01*
X73465440Y-92511364D01*
X73552182Y-92465000D01*
X74137351Y-92465000D01*
X74287935Y-92450169D01*
X74481148Y-92391558D01*
X74625505Y-92314398D01*
X74769862Y-92391558D01*
X74963075Y-92450169D01*
X75113659Y-92465000D01*
X75545818Y-92465000D01*
X75632560Y-92511364D01*
X75763905Y-92551208D01*
X75900500Y-92564661D01*
X76245500Y-92564661D01*
X76382095Y-92551208D01*
X76513440Y-92511364D01*
X76600182Y-92465000D01*
X77084002Y-92465000D01*
X77140181Y-92482042D01*
X77248000Y-92492661D01*
X78248000Y-92492661D01*
X78355819Y-92482042D01*
X78459494Y-92450592D01*
X78555042Y-92399521D01*
X78638790Y-92330790D01*
X78707521Y-92247042D01*
X78758592Y-92151494D01*
X78790042Y-92047819D01*
X78800661Y-91940000D01*
X78800661Y-90940000D01*
X78790042Y-90832181D01*
X78758592Y-90728506D01*
X78707521Y-90632958D01*
X78638790Y-90549210D01*
X78555042Y-90480479D01*
X78459494Y-90429408D01*
X78368000Y-90401653D01*
X78368000Y-90367660D01*
X78353169Y-90217076D01*
X78295661Y-90027499D01*
X78295661Y-90016000D01*
X78286827Y-89926307D01*
X78287582Y-89923819D01*
X78298201Y-89816000D01*
X78298201Y-89790139D01*
X78353169Y-89608935D01*
X78368000Y-89458351D01*
X78368000Y-88087649D01*
X78353169Y-87937065D01*
X78313714Y-87807000D01*
X78443000Y-87807000D01*
X78443000Y-88080000D01*
X78448046Y-88131462D01*
X78452742Y-88183060D01*
X78453287Y-88184912D01*
X78453475Y-88186829D01*
X78468423Y-88236339D01*
X78483049Y-88286034D01*
X78483943Y-88287744D01*
X78484500Y-88289589D01*
X78508804Y-88335298D01*
X78532780Y-88381160D01*
X78533987Y-88382662D01*
X78534893Y-88384365D01*
X78567617Y-88424489D01*
X78600040Y-88464815D01*
X78601517Y-88466054D01*
X78602736Y-88467549D01*
X78642645Y-88500565D01*
X78682268Y-88533812D01*
X78683956Y-88534740D01*
X78685444Y-88535971D01*
X78731062Y-88560637D01*
X78776332Y-88585524D01*
X78778166Y-88586106D01*
X78779866Y-88587025D01*
X78829367Y-88602348D01*
X78878649Y-88617981D01*
X78880565Y-88618196D01*
X78882407Y-88618766D01*
X78933932Y-88624182D01*
X78985321Y-88629946D01*
X78989017Y-88629972D01*
X78989160Y-88629987D01*
X78989303Y-88629974D01*
X78993000Y-88630000D01*
X79893000Y-88630000D01*
X79944462Y-88624954D01*
X79996060Y-88620258D01*
X79997912Y-88619713D01*
X79999829Y-88619525D01*
X80049339Y-88604577D01*
X80099034Y-88589951D01*
X80100744Y-88589057D01*
X80102589Y-88588500D01*
X80148298Y-88564196D01*
X80194160Y-88540220D01*
X80195662Y-88539013D01*
X80197365Y-88538107D01*
X80237489Y-88505383D01*
X80277815Y-88472960D01*
X80279054Y-88471483D01*
X80280549Y-88470264D01*
X80313565Y-88430355D01*
X80346812Y-88390732D01*
X80347740Y-88389044D01*
X80348971Y-88387556D01*
X80373637Y-88341938D01*
X80398524Y-88296668D01*
X80399106Y-88294834D01*
X80400025Y-88293134D01*
X80415348Y-88243633D01*
X80430981Y-88194351D01*
X80431196Y-88192435D01*
X80431766Y-88190593D01*
X80437182Y-88139068D01*
X80442946Y-88087679D01*
X80442972Y-88083983D01*
X80442987Y-88083840D01*
X80442974Y-88083697D01*
X80443000Y-88080000D01*
X80443000Y-87807000D01*
X85802500Y-87807000D01*
X85802501Y-107392500D01*
X61517500Y-107392500D01*
X61517500Y-100330000D01*
X62093226Y-100330000D01*
X62120257Y-100604448D01*
X62200310Y-100868349D01*
X62330310Y-101111562D01*
X62505261Y-101324739D01*
X62718438Y-101499690D01*
X62906105Y-101600000D01*
X62718438Y-101700310D01*
X62505261Y-101875261D01*
X62330310Y-102088438D01*
X62200310Y-102331651D01*
X62120257Y-102595552D01*
X62093226Y-102870000D01*
X62120257Y-103144448D01*
X62200310Y-103408349D01*
X62330310Y-103651562D01*
X62505261Y-103864739D01*
X62718438Y-104039690D01*
X62906105Y-104140000D01*
X62718438Y-104240310D01*
X62505261Y-104415261D01*
X62330310Y-104628438D01*
X62200310Y-104871651D01*
X62120257Y-105135552D01*
X62093226Y-105410000D01*
X62120257Y-105684448D01*
X62200310Y-105948349D01*
X62330310Y-106191562D01*
X62505261Y-106404739D01*
X62718438Y-106579690D01*
X62961651Y-106709690D01*
X63225552Y-106789743D01*
X63431223Y-106810000D01*
X63568777Y-106810000D01*
X63774448Y-106789743D01*
X64038349Y-106709690D01*
X64281562Y-106579690D01*
X64494739Y-106404739D01*
X64669690Y-106191562D01*
X64769409Y-106005000D01*
X67331422Y-106005000D01*
X67342612Y-106025935D01*
X67442433Y-106147567D01*
X67564065Y-106247388D01*
X67702835Y-106321562D01*
X67853409Y-106367238D01*
X68010000Y-106382661D01*
X69310000Y-106382661D01*
X69466591Y-106367238D01*
X69617165Y-106321562D01*
X69755935Y-106247388D01*
X69877567Y-106147567D01*
X69977388Y-106025935D01*
X70051562Y-105887165D01*
X70097238Y-105736591D01*
X70112661Y-105580000D01*
X70112661Y-105080000D01*
X70097238Y-104923409D01*
X70051562Y-104772835D01*
X69977388Y-104634065D01*
X69877567Y-104512433D01*
X69755935Y-104412612D01*
X69617165Y-104338438D01*
X69589349Y-104330000D01*
X69617165Y-104321562D01*
X69755935Y-104247388D01*
X69877567Y-104147567D01*
X69977388Y-104025935D01*
X70051562Y-103887165D01*
X70097238Y-103736591D01*
X70112661Y-103580000D01*
X70112661Y-103080000D01*
X70097238Y-102923409D01*
X70051562Y-102772835D01*
X69977388Y-102634065D01*
X69877567Y-102512433D01*
X69755935Y-102412612D01*
X69617165Y-102338438D01*
X69589349Y-102330000D01*
X69617165Y-102321562D01*
X69755935Y-102247388D01*
X69877567Y-102147567D01*
X69977388Y-102025935D01*
X70051562Y-101887165D01*
X70097238Y-101736591D01*
X70112661Y-101580000D01*
X70112661Y-101080000D01*
X70097238Y-100923409D01*
X70051562Y-100772835D01*
X69977388Y-100634065D01*
X69877567Y-100512433D01*
X69755935Y-100412612D01*
X69617165Y-100338438D01*
X69466591Y-100292762D01*
X69310000Y-100277339D01*
X68010000Y-100277339D01*
X67853409Y-100292762D01*
X67702835Y-100338438D01*
X67564065Y-100412612D01*
X67442433Y-100512433D01*
X67342612Y-100634065D01*
X67331422Y-100655000D01*
X67019612Y-100655000D01*
X67007514Y-100615118D01*
X66934495Y-100478510D01*
X66836228Y-100358772D01*
X66716490Y-100260505D01*
X66579882Y-100187486D01*
X66431653Y-100142522D01*
X66277500Y-100127339D01*
X65802500Y-100127339D01*
X65648347Y-100142522D01*
X65500118Y-100187486D01*
X65363510Y-100260505D01*
X65243772Y-100358772D01*
X65145505Y-100478510D01*
X65117983Y-100530000D01*
X64887076Y-100530000D01*
X64906774Y-100330000D01*
X64879743Y-100055552D01*
X64799690Y-99791651D01*
X64669690Y-99548438D01*
X64494739Y-99335261D01*
X64281562Y-99160310D01*
X64038349Y-99030310D01*
X63774448Y-98950257D01*
X63568777Y-98930000D01*
X63431223Y-98930000D01*
X63225552Y-98950257D01*
X62961651Y-99030310D01*
X62718438Y-99160310D01*
X62505261Y-99335261D01*
X62330310Y-99548438D01*
X62200310Y-99791651D01*
X62120257Y-100055552D01*
X62093226Y-100330000D01*
X61517500Y-100330000D01*
X61517500Y-87807000D01*
X76372286Y-87807000D01*
X76332831Y-87937066D01*
X76332831Y-87937066D01*
G37*
X76332831Y-87937066D02*
X76318000Y-88087650D01*
X76318001Y-89458351D01*
X76332832Y-89608935D01*
X76391443Y-89802148D01*
X76392879Y-89804835D01*
X76392879Y-89816000D01*
X76401713Y-89905693D01*
X76400958Y-89908181D01*
X76390339Y-90016000D01*
X76390339Y-90027501D01*
X76332831Y-90217075D01*
X76318000Y-90367659D01*
X76318000Y-90415000D01*
X75113659Y-90415000D01*
X74963075Y-90429831D01*
X74769862Y-90488442D01*
X74625505Y-90565602D01*
X74481148Y-90488442D01*
X74287935Y-90429831D01*
X74137351Y-90415000D01*
X67614342Y-90415000D01*
X67563999Y-90410042D01*
X67513656Y-90415000D01*
X67513649Y-90415000D01*
X67381665Y-90427999D01*
X67363064Y-90429831D01*
X67318262Y-90443422D01*
X67169852Y-90488442D01*
X66991785Y-90583620D01*
X66835709Y-90711709D01*
X66803612Y-90750819D01*
X65604825Y-91949608D01*
X65565710Y-91981709D01*
X65437621Y-92137785D01*
X65352851Y-92296380D01*
X65342443Y-92315852D01*
X65283831Y-92509066D01*
X65264041Y-92710000D01*
X65269001Y-92760360D01*
X65269001Y-94225163D01*
X65267341Y-94225000D01*
X64457866Y-94225000D01*
X64281562Y-94080310D01*
X64038349Y-93950310D01*
X63774448Y-93870257D01*
X63568777Y-93850000D01*
X63431223Y-93850000D01*
X63225552Y-93870257D01*
X62961651Y-93950310D01*
X62718438Y-94080310D01*
X62505261Y-94255261D01*
X62330310Y-94468438D01*
X62200310Y-94711651D01*
X62120257Y-94975552D01*
X62093226Y-95250000D01*
X62120257Y-95524448D01*
X62200310Y-95788349D01*
X62330310Y-96031562D01*
X62505261Y-96244739D01*
X62718438Y-96419690D01*
X62961651Y-96549690D01*
X63225552Y-96629743D01*
X63431223Y-96650000D01*
X63568777Y-96650000D01*
X63774448Y-96629743D01*
X64038349Y-96549690D01*
X64281562Y-96419690D01*
X64457866Y-96275000D01*
X65267341Y-96275000D01*
X65269000Y-96274837D01*
X65269000Y-96596649D01*
X65264041Y-96647000D01*
X65278643Y-96795261D01*
X65283831Y-96847934D01*
X65342442Y-97041147D01*
X65437620Y-97219215D01*
X65565709Y-97375291D01*
X65604829Y-97407396D01*
X66216607Y-98019175D01*
X66248709Y-98058291D01*
X66404785Y-98186380D01*
X66582852Y-98281558D01*
X66776065Y-98340169D01*
X66916070Y-98353958D01*
X66977000Y-98359959D01*
X67027351Y-98355000D01*
X67813066Y-98355000D01*
X67853409Y-98367238D01*
X68010000Y-98382661D01*
X69310000Y-98382661D01*
X69466591Y-98367238D01*
X69617165Y-98321562D01*
X69755935Y-98247388D01*
X69877567Y-98147567D01*
X69977388Y-98025935D01*
X70051562Y-97887165D01*
X70097238Y-97736591D01*
X70112661Y-97580000D01*
X70112661Y-97080000D01*
X70097238Y-96923409D01*
X70051562Y-96772835D01*
X69977388Y-96634065D01*
X69877567Y-96512433D01*
X69755935Y-96412612D01*
X69617165Y-96338438D01*
X69466591Y-96292762D01*
X69310000Y-96277339D01*
X68010000Y-96277339D01*
X67853409Y-96292762D01*
X67813066Y-96305000D01*
X67401568Y-96305000D01*
X67319000Y-96222433D01*
X67319000Y-95080000D01*
X77207339Y-95080000D01*
X77207339Y-95580000D01*
X77222762Y-95736591D01*
X77268438Y-95887165D01*
X77342612Y-96025935D01*
X77442433Y-96147567D01*
X77564065Y-96247388D01*
X77702835Y-96321562D01*
X77730651Y-96330000D01*
X77702835Y-96338438D01*
X77564065Y-96412612D01*
X77442433Y-96512433D01*
X77342612Y-96634065D01*
X77268438Y-96772835D01*
X77222762Y-96923409D01*
X77207339Y-97080000D01*
X77207339Y-97580000D01*
X77222762Y-97736591D01*
X77268438Y-97887165D01*
X77342612Y-98025935D01*
X77442433Y-98147567D01*
X77564065Y-98247388D01*
X77702835Y-98321562D01*
X77730651Y-98330000D01*
X77702835Y-98338438D01*
X77564065Y-98412612D01*
X77442433Y-98512433D01*
X77342612Y-98634065D01*
X77268438Y-98772835D01*
X77222762Y-98923409D01*
X77207339Y-99080000D01*
X77207339Y-99580000D01*
X77222762Y-99736591D01*
X77268438Y-99887165D01*
X77342612Y-100025935D01*
X77442433Y-100147567D01*
X77564065Y-100247388D01*
X77702835Y-100321562D01*
X77730651Y-100330000D01*
X77702835Y-100338438D01*
X77564065Y-100412612D01*
X77442433Y-100512433D01*
X77342612Y-100634065D01*
X77268438Y-100772835D01*
X77222762Y-100923409D01*
X77207339Y-101080000D01*
X77207339Y-101580000D01*
X77222762Y-101736591D01*
X77268438Y-101887165D01*
X77342612Y-102025935D01*
X77442433Y-102147567D01*
X77564065Y-102247388D01*
X77702835Y-102321562D01*
X77730651Y-102330000D01*
X77702835Y-102338438D01*
X77564065Y-102412612D01*
X77442433Y-102512433D01*
X77342612Y-102634065D01*
X77268438Y-102772835D01*
X77222762Y-102923409D01*
X77207339Y-103080000D01*
X77207339Y-103580000D01*
X77222762Y-103736591D01*
X77268438Y-103887165D01*
X77342612Y-104025935D01*
X77442433Y-104147567D01*
X77564065Y-104247388D01*
X77702835Y-104321562D01*
X77730651Y-104330000D01*
X77702835Y-104338438D01*
X77564065Y-104412612D01*
X77442433Y-104512433D01*
X77342612Y-104634065D01*
X77268438Y-104772835D01*
X77222762Y-104923409D01*
X77207339Y-105080000D01*
X77207339Y-105580000D01*
X77222762Y-105736591D01*
X77268438Y-105887165D01*
X77342612Y-106025935D01*
X77442433Y-106147567D01*
X77564065Y-106247388D01*
X77702835Y-106321562D01*
X77853409Y-106367238D01*
X78010000Y-106382661D01*
X79310000Y-106382661D01*
X79466591Y-106367238D01*
X79617165Y-106321562D01*
X79755935Y-106247388D01*
X79877567Y-106147567D01*
X79977388Y-106025935D01*
X79988578Y-106005000D01*
X82550591Y-106005000D01*
X82650310Y-106191562D01*
X82825261Y-106404739D01*
X83038438Y-106579690D01*
X83281651Y-106709690D01*
X83545552Y-106789743D01*
X83751223Y-106810000D01*
X83888777Y-106810000D01*
X84094448Y-106789743D01*
X84358349Y-106709690D01*
X84601562Y-106579690D01*
X84814739Y-106404739D01*
X84989690Y-106191562D01*
X85119690Y-105948349D01*
X85199743Y-105684448D01*
X85226774Y-105410000D01*
X85199743Y-105135552D01*
X85119690Y-104871651D01*
X84989690Y-104628438D01*
X84814739Y-104415261D01*
X84601562Y-104240310D01*
X84413895Y-104140000D01*
X84601562Y-104039690D01*
X84814739Y-103864739D01*
X84989690Y-103651562D01*
X85119690Y-103408349D01*
X85199743Y-103144448D01*
X85226774Y-102870000D01*
X85199743Y-102595552D01*
X85119690Y-102331651D01*
X84989690Y-102088438D01*
X84814739Y-101875261D01*
X84601562Y-101700310D01*
X84413895Y-101600000D01*
X84601562Y-101499690D01*
X84814739Y-101324739D01*
X84989690Y-101111562D01*
X85119690Y-100868349D01*
X85199743Y-100604448D01*
X85226774Y-100330000D01*
X85199743Y-100055552D01*
X85119690Y-99791651D01*
X84989690Y-99548438D01*
X84814739Y-99335261D01*
X84601562Y-99160310D01*
X84413895Y-99060000D01*
X84601562Y-98959690D01*
X84814739Y-98784739D01*
X84989690Y-98571562D01*
X85119690Y-98328349D01*
X85199743Y-98064448D01*
X85226774Y-97790000D01*
X85199743Y-97515552D01*
X85119690Y-97251651D01*
X84989690Y-97008438D01*
X84814739Y-96795261D01*
X84601562Y-96620310D01*
X84413895Y-96520000D01*
X84601562Y-96419690D01*
X84814739Y-96244739D01*
X84989690Y-96031562D01*
X85119690Y-95788349D01*
X85199743Y-95524448D01*
X85226774Y-95250000D01*
X85199743Y-94975552D01*
X85119690Y-94711651D01*
X84989690Y-94468438D01*
X84814739Y-94255261D01*
X84640982Y-94112661D01*
X84670000Y-94112661D01*
X84777819Y-94102042D01*
X84881494Y-94070592D01*
X84977042Y-94019521D01*
X85060790Y-93950790D01*
X85129521Y-93867042D01*
X85180592Y-93771494D01*
X85212042Y-93667819D01*
X85222661Y-93560000D01*
X85222661Y-91860000D01*
X85212042Y-91752181D01*
X85180592Y-91648506D01*
X85129521Y-91552958D01*
X85060790Y-91469210D01*
X84977042Y-91400479D01*
X84881494Y-91349408D01*
X84777819Y-91317958D01*
X84670000Y-91307339D01*
X82970000Y-91307339D01*
X82862181Y-91317958D01*
X82758506Y-91349408D01*
X82662958Y-91400479D01*
X82579210Y-91469210D01*
X82510479Y-91552958D01*
X82459408Y-91648506D01*
X82427958Y-91752181D01*
X82417339Y-91860000D01*
X82417339Y-92044869D01*
X82290439Y-92083364D01*
X82173176Y-92146042D01*
X82070394Y-92230394D01*
X82049258Y-92256148D01*
X79831104Y-94474302D01*
X79755935Y-94412612D01*
X79617165Y-94338438D01*
X79466591Y-94292762D01*
X79310000Y-94277339D01*
X78010000Y-94277339D01*
X77853409Y-94292762D01*
X77702835Y-94338438D01*
X77564065Y-94412612D01*
X77442433Y-94512433D01*
X77342612Y-94634065D01*
X77268438Y-94772835D01*
X77222762Y-94923409D01*
X77207339Y-95080000D01*
X67319000Y-95080000D01*
X67319000Y-93134568D01*
X67988568Y-92465000D01*
X72497818Y-92465000D01*
X72584560Y-92511364D01*
X72715905Y-92551208D01*
X72852500Y-92564661D01*
X73197500Y-92564661D01*
X73334095Y-92551208D01*
X73465440Y-92511364D01*
X73552182Y-92465000D01*
X74137351Y-92465000D01*
X74287935Y-92450169D01*
X74481148Y-92391558D01*
X74625505Y-92314398D01*
X74769862Y-92391558D01*
X74963075Y-92450169D01*
X75113659Y-92465000D01*
X75545818Y-92465000D01*
X75632560Y-92511364D01*
X75763905Y-92551208D01*
X75900500Y-92564661D01*
X76245500Y-92564661D01*
X76382095Y-92551208D01*
X76513440Y-92511364D01*
X76600182Y-92465000D01*
X77084002Y-92465000D01*
X77140181Y-92482042D01*
X77248000Y-92492661D01*
X78248000Y-92492661D01*
X78355819Y-92482042D01*
X78459494Y-92450592D01*
X78555042Y-92399521D01*
X78638790Y-92330790D01*
X78707521Y-92247042D01*
X78758592Y-92151494D01*
X78790042Y-92047819D01*
X78800661Y-91940000D01*
X78800661Y-90940000D01*
X78790042Y-90832181D01*
X78758592Y-90728506D01*
X78707521Y-90632958D01*
X78638790Y-90549210D01*
X78555042Y-90480479D01*
X78459494Y-90429408D01*
X78368000Y-90401653D01*
X78368000Y-90367660D01*
X78353169Y-90217076D01*
X78295661Y-90027499D01*
X78295661Y-90016000D01*
X78286827Y-89926307D01*
X78287582Y-89923819D01*
X78298201Y-89816000D01*
X78298201Y-89790139D01*
X78353169Y-89608935D01*
X78368000Y-89458351D01*
X78368000Y-88087649D01*
X78353169Y-87937065D01*
X78313714Y-87807000D01*
X78443000Y-87807000D01*
X78443000Y-88080000D01*
X78448046Y-88131462D01*
X78452742Y-88183060D01*
X78453287Y-88184912D01*
X78453475Y-88186829D01*
X78468423Y-88236339D01*
X78483049Y-88286034D01*
X78483943Y-88287744D01*
X78484500Y-88289589D01*
X78508804Y-88335298D01*
X78532780Y-88381160D01*
X78533987Y-88382662D01*
X78534893Y-88384365D01*
X78567617Y-88424489D01*
X78600040Y-88464815D01*
X78601517Y-88466054D01*
X78602736Y-88467549D01*
X78642645Y-88500565D01*
X78682268Y-88533812D01*
X78683956Y-88534740D01*
X78685444Y-88535971D01*
X78731062Y-88560637D01*
X78776332Y-88585524D01*
X78778166Y-88586106D01*
X78779866Y-88587025D01*
X78829367Y-88602348D01*
X78878649Y-88617981D01*
X78880565Y-88618196D01*
X78882407Y-88618766D01*
X78933932Y-88624182D01*
X78985321Y-88629946D01*
X78989017Y-88629972D01*
X78989160Y-88629987D01*
X78989303Y-88629974D01*
X78993000Y-88630000D01*
X79893000Y-88630000D01*
X79944462Y-88624954D01*
X79996060Y-88620258D01*
X79997912Y-88619713D01*
X79999829Y-88619525D01*
X80049339Y-88604577D01*
X80099034Y-88589951D01*
X80100744Y-88589057D01*
X80102589Y-88588500D01*
X80148298Y-88564196D01*
X80194160Y-88540220D01*
X80195662Y-88539013D01*
X80197365Y-88538107D01*
X80237489Y-88505383D01*
X80277815Y-88472960D01*
X80279054Y-88471483D01*
X80280549Y-88470264D01*
X80313565Y-88430355D01*
X80346812Y-88390732D01*
X80347740Y-88389044D01*
X80348971Y-88387556D01*
X80373637Y-88341938D01*
X80398524Y-88296668D01*
X80399106Y-88294834D01*
X80400025Y-88293134D01*
X80415348Y-88243633D01*
X80430981Y-88194351D01*
X80431196Y-88192435D01*
X80431766Y-88190593D01*
X80437182Y-88139068D01*
X80442946Y-88087679D01*
X80442972Y-88083983D01*
X80442987Y-88083840D01*
X80442974Y-88083697D01*
X80443000Y-88080000D01*
X80443000Y-87807000D01*
X85802500Y-87807000D01*
X85802501Y-107392500D01*
X61517500Y-107392500D01*
X61517500Y-100330000D01*
X62093226Y-100330000D01*
X62120257Y-100604448D01*
X62200310Y-100868349D01*
X62330310Y-101111562D01*
X62505261Y-101324739D01*
X62718438Y-101499690D01*
X62906105Y-101600000D01*
X62718438Y-101700310D01*
X62505261Y-101875261D01*
X62330310Y-102088438D01*
X62200310Y-102331651D01*
X62120257Y-102595552D01*
X62093226Y-102870000D01*
X62120257Y-103144448D01*
X62200310Y-103408349D01*
X62330310Y-103651562D01*
X62505261Y-103864739D01*
X62718438Y-104039690D01*
X62906105Y-104140000D01*
X62718438Y-104240310D01*
X62505261Y-104415261D01*
X62330310Y-104628438D01*
X62200310Y-104871651D01*
X62120257Y-105135552D01*
X62093226Y-105410000D01*
X62120257Y-105684448D01*
X62200310Y-105948349D01*
X62330310Y-106191562D01*
X62505261Y-106404739D01*
X62718438Y-106579690D01*
X62961651Y-106709690D01*
X63225552Y-106789743D01*
X63431223Y-106810000D01*
X63568777Y-106810000D01*
X63774448Y-106789743D01*
X64038349Y-106709690D01*
X64281562Y-106579690D01*
X64494739Y-106404739D01*
X64669690Y-106191562D01*
X64769409Y-106005000D01*
X67331422Y-106005000D01*
X67342612Y-106025935D01*
X67442433Y-106147567D01*
X67564065Y-106247388D01*
X67702835Y-106321562D01*
X67853409Y-106367238D01*
X68010000Y-106382661D01*
X69310000Y-106382661D01*
X69466591Y-106367238D01*
X69617165Y-106321562D01*
X69755935Y-106247388D01*
X69877567Y-106147567D01*
X69977388Y-106025935D01*
X70051562Y-105887165D01*
X70097238Y-105736591D01*
X70112661Y-105580000D01*
X70112661Y-105080000D01*
X70097238Y-104923409D01*
X70051562Y-104772835D01*
X69977388Y-104634065D01*
X69877567Y-104512433D01*
X69755935Y-104412612D01*
X69617165Y-104338438D01*
X69589349Y-104330000D01*
X69617165Y-104321562D01*
X69755935Y-104247388D01*
X69877567Y-104147567D01*
X69977388Y-104025935D01*
X70051562Y-103887165D01*
X70097238Y-103736591D01*
X70112661Y-103580000D01*
X70112661Y-103080000D01*
X70097238Y-102923409D01*
X70051562Y-102772835D01*
X69977388Y-102634065D01*
X69877567Y-102512433D01*
X69755935Y-102412612D01*
X69617165Y-102338438D01*
X69589349Y-102330000D01*
X69617165Y-102321562D01*
X69755935Y-102247388D01*
X69877567Y-102147567D01*
X69977388Y-102025935D01*
X70051562Y-101887165D01*
X70097238Y-101736591D01*
X70112661Y-101580000D01*
X70112661Y-101080000D01*
X70097238Y-100923409D01*
X70051562Y-100772835D01*
X69977388Y-100634065D01*
X69877567Y-100512433D01*
X69755935Y-100412612D01*
X69617165Y-100338438D01*
X69466591Y-100292762D01*
X69310000Y-100277339D01*
X68010000Y-100277339D01*
X67853409Y-100292762D01*
X67702835Y-100338438D01*
X67564065Y-100412612D01*
X67442433Y-100512433D01*
X67342612Y-100634065D01*
X67331422Y-100655000D01*
X67019612Y-100655000D01*
X67007514Y-100615118D01*
X66934495Y-100478510D01*
X66836228Y-100358772D01*
X66716490Y-100260505D01*
X66579882Y-100187486D01*
X66431653Y-100142522D01*
X66277500Y-100127339D01*
X65802500Y-100127339D01*
X65648347Y-100142522D01*
X65500118Y-100187486D01*
X65363510Y-100260505D01*
X65243772Y-100358772D01*
X65145505Y-100478510D01*
X65117983Y-100530000D01*
X64887076Y-100530000D01*
X64906774Y-100330000D01*
X64879743Y-100055552D01*
X64799690Y-99791651D01*
X64669690Y-99548438D01*
X64494739Y-99335261D01*
X64281562Y-99160310D01*
X64038349Y-99030310D01*
X63774448Y-98950257D01*
X63568777Y-98930000D01*
X63431223Y-98930000D01*
X63225552Y-98950257D01*
X62961651Y-99030310D01*
X62718438Y-99160310D01*
X62505261Y-99335261D01*
X62330310Y-99548438D01*
X62200310Y-99791651D01*
X62120257Y-100055552D01*
X62093226Y-100330000D01*
X61517500Y-100330000D01*
X61517500Y-87807000D01*
X76372286Y-87807000D01*
X76332831Y-87937066D01*
G04 #@! TD*
M02*
