G04 #@! TF.GenerationSoftware,KiCad,Pcbnew,(5.0.1)-3*
G04 #@! TF.CreationDate,2018-12-06T00:17:23+01:00*
G04 #@! TF.ProjectId,air602bob,616972363032626F622E6B696361645F,rev?*
G04 #@! TF.SameCoordinates,Original*
G04 #@! TF.FileFunction,Legend,Bot*
G04 #@! TF.FilePolarity,Positive*
%FSLAX46Y46*%
G04 Gerber Fmt 4.6, Leading zero omitted, Abs format (unit mm)*
G04 Created by KiCad (PCBNEW (5.0.1)-3) date 06/12/2018 00:17:23*
%MOMM*%
%LPD*%
G01*
G04 APERTURE LIST*
%ADD10C,0.300000*%
%ADD11C,0.120000*%
%ADD12C,0.602000*%
%ADD13C,1.902000*%
%ADD14O,1.802000X1.802000*%
%ADD15R,1.802000X1.802000*%
G04 APERTURE END LIST*
D10*
X80545428Y-91792142D02*
X81831142Y-93720714D01*
X79188285Y-93363571D02*
X79688285Y-92649285D01*
X80045428Y-93363571D02*
X80045428Y-91863571D01*
X79474000Y-91863571D01*
X79331142Y-91935000D01*
X79259714Y-92006428D01*
X79188285Y-92149285D01*
X79188285Y-92363571D01*
X79259714Y-92506428D01*
X79331142Y-92577857D01*
X79474000Y-92649285D01*
X80045428Y-92649285D01*
X78545428Y-92577857D02*
X78045428Y-92577857D01*
X77831142Y-93363571D02*
X78545428Y-93363571D01*
X78545428Y-91863571D01*
X77831142Y-91863571D01*
X77259714Y-93292142D02*
X77045428Y-93363571D01*
X76688285Y-93363571D01*
X76545428Y-93292142D01*
X76474000Y-93220714D01*
X76402571Y-93077857D01*
X76402571Y-92935000D01*
X76474000Y-92792142D01*
X76545428Y-92720714D01*
X76688285Y-92649285D01*
X76974000Y-92577857D01*
X77116857Y-92506428D01*
X77188285Y-92435000D01*
X77259714Y-92292142D01*
X77259714Y-92149285D01*
X77188285Y-92006428D01*
X77116857Y-91935000D01*
X76974000Y-91863571D01*
X76616857Y-91863571D01*
X76402571Y-91935000D01*
X81831142Y-94413571D02*
X80974000Y-94413571D01*
X81402571Y-95913571D02*
X81402571Y-94413571D01*
X80616857Y-95913571D02*
X79831142Y-94913571D01*
X80616857Y-94913571D02*
X79831142Y-95913571D01*
X78474000Y-95913571D02*
X79331142Y-95913571D01*
X78902571Y-95913571D02*
X78902571Y-94413571D01*
X79045428Y-94627857D01*
X79188285Y-94770714D01*
X79331142Y-94842142D01*
X80759714Y-98463571D02*
X81259714Y-97749285D01*
X81616857Y-98463571D02*
X81616857Y-96963571D01*
X81045428Y-96963571D01*
X80902571Y-97035000D01*
X80831142Y-97106428D01*
X80759714Y-97249285D01*
X80759714Y-97463571D01*
X80831142Y-97606428D01*
X80902571Y-97677857D01*
X81045428Y-97749285D01*
X81616857Y-97749285D01*
X80259714Y-98463571D02*
X79474000Y-97463571D01*
X80259714Y-97463571D02*
X79474000Y-98463571D01*
X78116857Y-98463571D02*
X78974000Y-98463571D01*
X78545428Y-98463571D02*
X78545428Y-96963571D01*
X78688285Y-97177857D01*
X78831142Y-97320714D01*
X78974000Y-97392142D01*
X80759714Y-101013571D02*
X81259714Y-100299285D01*
X81616857Y-101013571D02*
X81616857Y-99513571D01*
X81045428Y-99513571D01*
X80902571Y-99585000D01*
X80831142Y-99656428D01*
X80759714Y-99799285D01*
X80759714Y-100013571D01*
X80831142Y-100156428D01*
X80902571Y-100227857D01*
X81045428Y-100299285D01*
X81616857Y-100299285D01*
X80331142Y-99513571D02*
X79474000Y-99513571D01*
X79902571Y-101013571D02*
X79902571Y-99513571D01*
X79045428Y-100942142D02*
X78831142Y-101013571D01*
X78474000Y-101013571D01*
X78331142Y-100942142D01*
X78259714Y-100870714D01*
X78188285Y-100727857D01*
X78188285Y-100585000D01*
X78259714Y-100442142D01*
X78331142Y-100370714D01*
X78474000Y-100299285D01*
X78759714Y-100227857D01*
X78902571Y-100156428D01*
X78974000Y-100085000D01*
X79045428Y-99942142D01*
X79045428Y-99799285D01*
X78974000Y-99656428D01*
X78902571Y-99585000D01*
X78759714Y-99513571D01*
X78402571Y-99513571D01*
X78188285Y-99585000D01*
X80759714Y-103420714D02*
X80831142Y-103492142D01*
X81045428Y-103563571D01*
X81188285Y-103563571D01*
X81402571Y-103492142D01*
X81545428Y-103349285D01*
X81616857Y-103206428D01*
X81688285Y-102920714D01*
X81688285Y-102706428D01*
X81616857Y-102420714D01*
X81545428Y-102277857D01*
X81402571Y-102135000D01*
X81188285Y-102063571D01*
X81045428Y-102063571D01*
X80831142Y-102135000D01*
X80759714Y-102206428D01*
X80331142Y-102063571D02*
X79474000Y-102063571D01*
X79902571Y-103563571D02*
X79902571Y-102063571D01*
X79045428Y-103492142D02*
X78831142Y-103563571D01*
X78474000Y-103563571D01*
X78331142Y-103492142D01*
X78259714Y-103420714D01*
X78188285Y-103277857D01*
X78188285Y-103135000D01*
X78259714Y-102992142D01*
X78331142Y-102920714D01*
X78474000Y-102849285D01*
X78759714Y-102777857D01*
X78902571Y-102706428D01*
X78974000Y-102635000D01*
X79045428Y-102492142D01*
X79045428Y-102349285D01*
X78974000Y-102206428D01*
X78902571Y-102135000D01*
X78759714Y-102063571D01*
X78402571Y-102063571D01*
X78188285Y-102135000D01*
X81616857Y-106113571D02*
X81616857Y-104613571D01*
X81045428Y-104613571D01*
X80902571Y-104685000D01*
X80831142Y-104756428D01*
X80759714Y-104899285D01*
X80759714Y-105113571D01*
X80831142Y-105256428D01*
X80902571Y-105327857D01*
X81045428Y-105399285D01*
X81616857Y-105399285D01*
X79616857Y-105327857D02*
X79402571Y-105399285D01*
X79331142Y-105470714D01*
X79259714Y-105613571D01*
X79259714Y-105827857D01*
X79331142Y-105970714D01*
X79402571Y-106042142D01*
X79545428Y-106113571D01*
X80116857Y-106113571D01*
X80116857Y-104613571D01*
X79616857Y-104613571D01*
X79474000Y-104685000D01*
X79402571Y-104756428D01*
X79331142Y-104899285D01*
X79331142Y-105042142D01*
X79402571Y-105185000D01*
X79474000Y-105256428D01*
X79616857Y-105327857D01*
X80116857Y-105327857D01*
X78402571Y-105256428D02*
X78545428Y-105185000D01*
X78616857Y-105113571D01*
X78688285Y-104970714D01*
X78688285Y-104899285D01*
X78616857Y-104756428D01*
X78545428Y-104685000D01*
X78402571Y-104613571D01*
X78116857Y-104613571D01*
X77974000Y-104685000D01*
X77902571Y-104756428D01*
X77831142Y-104899285D01*
X77831142Y-104970714D01*
X77902571Y-105113571D01*
X77974000Y-105185000D01*
X78116857Y-105256428D01*
X78402571Y-105256428D01*
X78545428Y-105327857D01*
X78616857Y-105399285D01*
X78688285Y-105542142D01*
X78688285Y-105827857D01*
X78616857Y-105970714D01*
X78545428Y-106042142D01*
X78402571Y-106113571D01*
X78116857Y-106113571D01*
X77974000Y-106042142D01*
X77902571Y-105970714D01*
X77831142Y-105827857D01*
X77831142Y-105542142D01*
X77902571Y-105399285D01*
X77974000Y-105327857D01*
X78116857Y-105256428D01*
X68774571Y-91935000D02*
X68917428Y-91863571D01*
X69131714Y-91863571D01*
X69346000Y-91935000D01*
X69488857Y-92077857D01*
X69560285Y-92220714D01*
X69631714Y-92506428D01*
X69631714Y-92720714D01*
X69560285Y-93006428D01*
X69488857Y-93149285D01*
X69346000Y-93292142D01*
X69131714Y-93363571D01*
X68988857Y-93363571D01*
X68774571Y-93292142D01*
X68703142Y-93220714D01*
X68703142Y-92720714D01*
X68988857Y-92720714D01*
X68060285Y-93363571D02*
X68060285Y-91863571D01*
X67203142Y-93363571D01*
X67203142Y-91863571D01*
X66488857Y-93363571D02*
X66488857Y-91863571D01*
X66131714Y-91863571D01*
X65917428Y-91935000D01*
X65774571Y-92077857D01*
X65703142Y-92220714D01*
X65631714Y-92506428D01*
X65631714Y-92720714D01*
X65703142Y-93006428D01*
X65774571Y-93149285D01*
X65917428Y-93292142D01*
X66131714Y-93363571D01*
X66488857Y-93363571D01*
X69060285Y-95485000D02*
X68346000Y-95485000D01*
X69203142Y-95913571D02*
X68703142Y-94413571D01*
X68203142Y-95913571D01*
X67703142Y-95913571D02*
X67703142Y-94413571D01*
X66846000Y-95913571D01*
X66846000Y-94413571D01*
X66346000Y-94413571D02*
X65488857Y-94413571D01*
X65917428Y-95913571D02*
X65917428Y-94413571D01*
X68774571Y-97035000D02*
X68917428Y-96963571D01*
X69131714Y-96963571D01*
X69346000Y-97035000D01*
X69488857Y-97177857D01*
X69560285Y-97320714D01*
X69631714Y-97606428D01*
X69631714Y-97820714D01*
X69560285Y-98106428D01*
X69488857Y-98249285D01*
X69346000Y-98392142D01*
X69131714Y-98463571D01*
X68988857Y-98463571D01*
X68774571Y-98392142D01*
X68703142Y-98320714D01*
X68703142Y-97820714D01*
X68988857Y-97820714D01*
X68060285Y-98463571D02*
X68060285Y-96963571D01*
X67203142Y-98463571D01*
X67203142Y-96963571D01*
X66488857Y-98463571D02*
X66488857Y-96963571D01*
X66131714Y-96963571D01*
X65917428Y-97035000D01*
X65774571Y-97177857D01*
X65703142Y-97320714D01*
X65631714Y-97606428D01*
X65631714Y-97820714D01*
X65703142Y-98106428D01*
X65774571Y-98249285D01*
X65917428Y-98392142D01*
X66131714Y-98463571D01*
X66488857Y-98463571D01*
X69488857Y-99513571D02*
X68988857Y-101013571D01*
X68488857Y-99513571D01*
X67131714Y-100870714D02*
X67203142Y-100942142D01*
X67417428Y-101013571D01*
X67560285Y-101013571D01*
X67774571Y-100942142D01*
X67917428Y-100799285D01*
X67988857Y-100656428D01*
X68060285Y-100370714D01*
X68060285Y-100156428D01*
X67988857Y-99870714D01*
X67917428Y-99727857D01*
X67774571Y-99585000D01*
X67560285Y-99513571D01*
X67417428Y-99513571D01*
X67203142Y-99585000D01*
X67131714Y-99656428D01*
X65631714Y-100870714D02*
X65703142Y-100942142D01*
X65917428Y-101013571D01*
X66060285Y-101013571D01*
X66274571Y-100942142D01*
X66417428Y-100799285D01*
X66488857Y-100656428D01*
X66560285Y-100370714D01*
X66560285Y-100156428D01*
X66488857Y-99870714D01*
X66417428Y-99727857D01*
X66274571Y-99585000D01*
X66060285Y-99513571D01*
X65917428Y-99513571D01*
X65703142Y-99585000D01*
X65631714Y-99656428D01*
X67560285Y-102063571D02*
X66703142Y-102063571D01*
X67131714Y-103563571D02*
X67131714Y-102063571D01*
X66346000Y-103563571D02*
X65560285Y-102563571D01*
X66346000Y-102563571D02*
X65560285Y-103563571D01*
X66846000Y-106113571D02*
X67346000Y-105399285D01*
X67703142Y-106113571D02*
X67703142Y-104613571D01*
X67131714Y-104613571D01*
X66988857Y-104685000D01*
X66917428Y-104756428D01*
X66846000Y-104899285D01*
X66846000Y-105113571D01*
X66917428Y-105256428D01*
X66988857Y-105327857D01*
X67131714Y-105399285D01*
X67703142Y-105399285D01*
X66346000Y-106113571D02*
X65560285Y-105113571D01*
X66346000Y-105113571D02*
X65560285Y-106113571D01*
D11*
G04 #@! TO.C,J2*
X64830000Y-91380000D02*
X63500000Y-91380000D01*
X64830000Y-92710000D02*
X64830000Y-91380000D01*
X64830000Y-93980000D02*
X62170000Y-93980000D01*
X62170000Y-93980000D02*
X62170000Y-106740000D01*
X64830000Y-93980000D02*
X64830000Y-106740000D01*
X64830000Y-106740000D02*
X62170000Y-106740000D01*
G04 #@! TO.C,J1*
X85150000Y-106740000D02*
X82490000Y-106740000D01*
X85150000Y-93980000D02*
X85150000Y-106740000D01*
X82490000Y-93980000D02*
X82490000Y-106740000D01*
X85150000Y-93980000D02*
X82490000Y-93980000D01*
X85150000Y-92710000D02*
X85150000Y-91380000D01*
X85150000Y-91380000D02*
X83820000Y-91380000D01*
G04 #@! TD*
%LPC*%
D12*
G04 #@! TO.C,XA2*
X77343000Y-90678000D03*
D13*
X77343000Y-90678000D03*
G04 #@! TD*
D14*
G04 #@! TO.C,J2*
X63500000Y-105410000D03*
X63500000Y-102870000D03*
X63500000Y-100330000D03*
X63500000Y-97790000D03*
X63500000Y-95250000D03*
D15*
X63500000Y-92710000D03*
G04 #@! TD*
G04 #@! TO.C,J1*
X83820000Y-92710000D03*
D14*
X83820000Y-95250000D03*
X83820000Y-97790000D03*
X83820000Y-100330000D03*
X83820000Y-102870000D03*
X83820000Y-105410000D03*
G04 #@! TD*
M02*
