G04 #@! TF.GenerationSoftware,KiCad,Pcbnew,(5.0.1)-3*
G04 #@! TF.CreationDate,2018-12-06T00:17:23+01:00*
G04 #@! TF.ProjectId,air602bob,616972363032626F622E6B696361645F,rev?*
G04 #@! TF.SameCoordinates,Original*
G04 #@! TF.FileFunction,Other,Fab,Bot*
%FSLAX46Y46*%
G04 Gerber Fmt 4.6, Leading zero omitted, Abs format (unit mm)*
G04 Created by KiCad (PCBNEW (5.0.1)-3) date 06/12/2018 00:17:23*
%MOMM*%
%LPD*%
G01*
G04 APERTURE LIST*
%ADD10C,0.100000*%
%ADD11C,0.150000*%
G04 APERTURE END LIST*
D10*
G04 #@! TO.C,J2*
X64770000Y-92075000D02*
X64135000Y-91440000D01*
X64770000Y-106680000D02*
X64770000Y-92075000D01*
X62230000Y-106680000D02*
X64770000Y-106680000D01*
X62230000Y-91440000D02*
X62230000Y-106680000D01*
X64135000Y-91440000D02*
X62230000Y-91440000D01*
G04 #@! TO.C,J1*
X84455000Y-91440000D02*
X82550000Y-91440000D01*
X82550000Y-91440000D02*
X82550000Y-106680000D01*
X82550000Y-106680000D02*
X85090000Y-106680000D01*
X85090000Y-106680000D02*
X85090000Y-92075000D01*
X85090000Y-92075000D02*
X84455000Y-91440000D01*
G04 #@! TD*
G04 #@! TO.C,J2*
D11*
X69333333Y-108097142D02*
X69380952Y-108144761D01*
X69523809Y-108192380D01*
X69619047Y-108192380D01*
X69761904Y-108144761D01*
X69857142Y-108049523D01*
X69904761Y-107954285D01*
X69952380Y-107763809D01*
X69952380Y-107620952D01*
X69904761Y-107430476D01*
X69857142Y-107335238D01*
X69761904Y-107240000D01*
X69619047Y-107192380D01*
X69523809Y-107192380D01*
X69380952Y-107240000D01*
X69333333Y-107287619D01*
X68761904Y-108192380D02*
X68857142Y-108144761D01*
X68904761Y-108097142D01*
X68952380Y-108001904D01*
X68952380Y-107716190D01*
X68904761Y-107620952D01*
X68857142Y-107573333D01*
X68761904Y-107525714D01*
X68619047Y-107525714D01*
X68523809Y-107573333D01*
X68476190Y-107620952D01*
X68428571Y-107716190D01*
X68428571Y-108001904D01*
X68476190Y-108097142D01*
X68523809Y-108144761D01*
X68619047Y-108192380D01*
X68761904Y-108192380D01*
X68000000Y-107525714D02*
X68000000Y-108192380D01*
X68000000Y-107620952D02*
X67952380Y-107573333D01*
X67857142Y-107525714D01*
X67714285Y-107525714D01*
X67619047Y-107573333D01*
X67571428Y-107668571D01*
X67571428Y-108192380D01*
X67095238Y-107525714D02*
X67095238Y-108192380D01*
X67095238Y-107620952D02*
X67047619Y-107573333D01*
X66952380Y-107525714D01*
X66809523Y-107525714D01*
X66714285Y-107573333D01*
X66666666Y-107668571D01*
X66666666Y-108192380D01*
X66428571Y-108287619D02*
X65666666Y-108287619D01*
X65238095Y-107192380D02*
X65142857Y-107192380D01*
X65047619Y-107240000D01*
X65000000Y-107287619D01*
X64952380Y-107382857D01*
X64904761Y-107573333D01*
X64904761Y-107811428D01*
X64952380Y-108001904D01*
X65000000Y-108097142D01*
X65047619Y-108144761D01*
X65142857Y-108192380D01*
X65238095Y-108192380D01*
X65333333Y-108144761D01*
X65380952Y-108097142D01*
X65428571Y-108001904D01*
X65476190Y-107811428D01*
X65476190Y-107573333D01*
X65428571Y-107382857D01*
X65380952Y-107287619D01*
X65333333Y-107240000D01*
X65238095Y-107192380D01*
X63952380Y-108192380D02*
X64523809Y-108192380D01*
X64238095Y-108192380D02*
X64238095Y-107192380D01*
X64333333Y-107335238D01*
X64428571Y-107430476D01*
X64523809Y-107478095D01*
X63619047Y-108192380D02*
X63095238Y-107525714D01*
X63619047Y-107525714D02*
X63095238Y-108192380D01*
X62523809Y-107192380D02*
X62428571Y-107192380D01*
X62333333Y-107240000D01*
X62285714Y-107287619D01*
X62238095Y-107382857D01*
X62190476Y-107573333D01*
X62190476Y-107811428D01*
X62238095Y-108001904D01*
X62285714Y-108097142D01*
X62333333Y-108144761D01*
X62428571Y-108192380D01*
X62523809Y-108192380D01*
X62619047Y-108144761D01*
X62666666Y-108097142D01*
X62714285Y-108001904D01*
X62761904Y-107811428D01*
X62761904Y-107573333D01*
X62714285Y-107382857D01*
X62666666Y-107287619D01*
X62619047Y-107240000D01*
X62523809Y-107192380D01*
X61333333Y-107192380D02*
X61523809Y-107192380D01*
X61619047Y-107240000D01*
X61666666Y-107287619D01*
X61761904Y-107430476D01*
X61809523Y-107620952D01*
X61809523Y-108001904D01*
X61761904Y-108097142D01*
X61714285Y-108144761D01*
X61619047Y-108192380D01*
X61428571Y-108192380D01*
X61333333Y-108144761D01*
X61285714Y-108097142D01*
X61238095Y-108001904D01*
X61238095Y-107763809D01*
X61285714Y-107668571D01*
X61333333Y-107620952D01*
X61428571Y-107573333D01*
X61619047Y-107573333D01*
X61714285Y-107620952D01*
X61761904Y-107668571D01*
X61809523Y-107763809D01*
X61047619Y-108287619D02*
X60285714Y-108287619D01*
X60047619Y-108192380D02*
X60047619Y-107192380D01*
X59714285Y-107906666D01*
X59380952Y-107192380D01*
X59380952Y-108192380D01*
X58476190Y-108192380D02*
X58476190Y-107668571D01*
X58523809Y-107573333D01*
X58619047Y-107525714D01*
X58809523Y-107525714D01*
X58904761Y-107573333D01*
X58476190Y-108144761D02*
X58571428Y-108192380D01*
X58809523Y-108192380D01*
X58904761Y-108144761D01*
X58952380Y-108049523D01*
X58952380Y-107954285D01*
X58904761Y-107859047D01*
X58809523Y-107811428D01*
X58571428Y-107811428D01*
X58476190Y-107763809D01*
X57857142Y-108192380D02*
X57952380Y-108144761D01*
X58000000Y-108049523D01*
X58000000Y-107192380D01*
X57095238Y-108144761D02*
X57190476Y-108192380D01*
X57380952Y-108192380D01*
X57476190Y-108144761D01*
X57523809Y-108049523D01*
X57523809Y-107668571D01*
X57476190Y-107573333D01*
X57380952Y-107525714D01*
X57190476Y-107525714D01*
X57095238Y-107573333D01*
X57047619Y-107668571D01*
X57047619Y-107763809D01*
X57523809Y-107859047D01*
X62952380Y-98726666D02*
X63666666Y-98726666D01*
X63809523Y-98679047D01*
X63904761Y-98583809D01*
X63952380Y-98440952D01*
X63952380Y-98345714D01*
X63047619Y-99155238D02*
X63000000Y-99202857D01*
X62952380Y-99298095D01*
X62952380Y-99536190D01*
X63000000Y-99631428D01*
X63047619Y-99679047D01*
X63142857Y-99726666D01*
X63238095Y-99726666D01*
X63380952Y-99679047D01*
X63952380Y-99107619D01*
X63952380Y-99726666D01*
G04 #@! TO.C,J1*
X89653333Y-108097142D02*
X89700952Y-108144761D01*
X89843809Y-108192380D01*
X89939047Y-108192380D01*
X90081904Y-108144761D01*
X90177142Y-108049523D01*
X90224761Y-107954285D01*
X90272380Y-107763809D01*
X90272380Y-107620952D01*
X90224761Y-107430476D01*
X90177142Y-107335238D01*
X90081904Y-107240000D01*
X89939047Y-107192380D01*
X89843809Y-107192380D01*
X89700952Y-107240000D01*
X89653333Y-107287619D01*
X89081904Y-108192380D02*
X89177142Y-108144761D01*
X89224761Y-108097142D01*
X89272380Y-108001904D01*
X89272380Y-107716190D01*
X89224761Y-107620952D01*
X89177142Y-107573333D01*
X89081904Y-107525714D01*
X88939047Y-107525714D01*
X88843809Y-107573333D01*
X88796190Y-107620952D01*
X88748571Y-107716190D01*
X88748571Y-108001904D01*
X88796190Y-108097142D01*
X88843809Y-108144761D01*
X88939047Y-108192380D01*
X89081904Y-108192380D01*
X88320000Y-107525714D02*
X88320000Y-108192380D01*
X88320000Y-107620952D02*
X88272380Y-107573333D01*
X88177142Y-107525714D01*
X88034285Y-107525714D01*
X87939047Y-107573333D01*
X87891428Y-107668571D01*
X87891428Y-108192380D01*
X87415238Y-107525714D02*
X87415238Y-108192380D01*
X87415238Y-107620952D02*
X87367619Y-107573333D01*
X87272380Y-107525714D01*
X87129523Y-107525714D01*
X87034285Y-107573333D01*
X86986666Y-107668571D01*
X86986666Y-108192380D01*
X86748571Y-108287619D02*
X85986666Y-108287619D01*
X85558095Y-107192380D02*
X85462857Y-107192380D01*
X85367619Y-107240000D01*
X85320000Y-107287619D01*
X85272380Y-107382857D01*
X85224761Y-107573333D01*
X85224761Y-107811428D01*
X85272380Y-108001904D01*
X85320000Y-108097142D01*
X85367619Y-108144761D01*
X85462857Y-108192380D01*
X85558095Y-108192380D01*
X85653333Y-108144761D01*
X85700952Y-108097142D01*
X85748571Y-108001904D01*
X85796190Y-107811428D01*
X85796190Y-107573333D01*
X85748571Y-107382857D01*
X85700952Y-107287619D01*
X85653333Y-107240000D01*
X85558095Y-107192380D01*
X84272380Y-108192380D02*
X84843809Y-108192380D01*
X84558095Y-108192380D02*
X84558095Y-107192380D01*
X84653333Y-107335238D01*
X84748571Y-107430476D01*
X84843809Y-107478095D01*
X83939047Y-108192380D02*
X83415238Y-107525714D01*
X83939047Y-107525714D02*
X83415238Y-108192380D01*
X82843809Y-107192380D02*
X82748571Y-107192380D01*
X82653333Y-107240000D01*
X82605714Y-107287619D01*
X82558095Y-107382857D01*
X82510476Y-107573333D01*
X82510476Y-107811428D01*
X82558095Y-108001904D01*
X82605714Y-108097142D01*
X82653333Y-108144761D01*
X82748571Y-108192380D01*
X82843809Y-108192380D01*
X82939047Y-108144761D01*
X82986666Y-108097142D01*
X83034285Y-108001904D01*
X83081904Y-107811428D01*
X83081904Y-107573333D01*
X83034285Y-107382857D01*
X82986666Y-107287619D01*
X82939047Y-107240000D01*
X82843809Y-107192380D01*
X81653333Y-107192380D02*
X81843809Y-107192380D01*
X81939047Y-107240000D01*
X81986666Y-107287619D01*
X82081904Y-107430476D01*
X82129523Y-107620952D01*
X82129523Y-108001904D01*
X82081904Y-108097142D01*
X82034285Y-108144761D01*
X81939047Y-108192380D01*
X81748571Y-108192380D01*
X81653333Y-108144761D01*
X81605714Y-108097142D01*
X81558095Y-108001904D01*
X81558095Y-107763809D01*
X81605714Y-107668571D01*
X81653333Y-107620952D01*
X81748571Y-107573333D01*
X81939047Y-107573333D01*
X82034285Y-107620952D01*
X82081904Y-107668571D01*
X82129523Y-107763809D01*
X81367619Y-108287619D02*
X80605714Y-108287619D01*
X80367619Y-108192380D02*
X80367619Y-107192380D01*
X80034285Y-107906666D01*
X79700952Y-107192380D01*
X79700952Y-108192380D01*
X78796190Y-108192380D02*
X78796190Y-107668571D01*
X78843809Y-107573333D01*
X78939047Y-107525714D01*
X79129523Y-107525714D01*
X79224761Y-107573333D01*
X78796190Y-108144761D02*
X78891428Y-108192380D01*
X79129523Y-108192380D01*
X79224761Y-108144761D01*
X79272380Y-108049523D01*
X79272380Y-107954285D01*
X79224761Y-107859047D01*
X79129523Y-107811428D01*
X78891428Y-107811428D01*
X78796190Y-107763809D01*
X78177142Y-108192380D02*
X78272380Y-108144761D01*
X78320000Y-108049523D01*
X78320000Y-107192380D01*
X77415238Y-108144761D02*
X77510476Y-108192380D01*
X77700952Y-108192380D01*
X77796190Y-108144761D01*
X77843809Y-108049523D01*
X77843809Y-107668571D01*
X77796190Y-107573333D01*
X77700952Y-107525714D01*
X77510476Y-107525714D01*
X77415238Y-107573333D01*
X77367619Y-107668571D01*
X77367619Y-107763809D01*
X77843809Y-107859047D01*
X83272380Y-98726666D02*
X83986666Y-98726666D01*
X84129523Y-98679047D01*
X84224761Y-98583809D01*
X84272380Y-98440952D01*
X84272380Y-98345714D01*
X84272380Y-99726666D02*
X84272380Y-99155238D01*
X84272380Y-99440952D02*
X83272380Y-99440952D01*
X83415238Y-99345714D01*
X83510476Y-99250476D01*
X83558095Y-99155238D01*
G04 #@! TD*
M02*
