G04 #@! TF.GenerationSoftware,KiCad,Pcbnew,(5.0.1)-3*
G04 #@! TF.CreationDate,2018-12-06T00:17:23+01:00*
G04 #@! TF.ProjectId,air602bob,616972363032626F622E6B696361645F,rev?*
G04 #@! TF.SameCoordinates,Original*
G04 #@! TF.FileFunction,Copper,L2,Bot,Signal*
G04 #@! TF.FilePolarity,Positive*
%FSLAX46Y46*%
G04 Gerber Fmt 4.6, Leading zero omitted, Abs format (unit mm)*
G04 Created by KiCad (PCBNEW (5.0.1)-3) date 06/12/2018 00:17:23*
%MOMM*%
%LPD*%
G01*
G04 APERTURE LIST*
G04 #@! TA.AperFunction,ConnectorPad*
%ADD10C,1.800000*%
G04 #@! TD*
G04 #@! TA.AperFunction,ComponentPad*
%ADD11O,1.700000X1.700000*%
G04 #@! TD*
G04 #@! TA.AperFunction,ComponentPad*
%ADD12R,1.700000X1.700000*%
G04 #@! TD*
G04 #@! TA.AperFunction,ViaPad*
%ADD13R,0.900000X0.500000*%
G04 #@! TD*
G04 #@! TA.AperFunction,ViaPad*
%ADD14C,0.450000*%
G04 #@! TD*
G04 #@! TA.AperFunction,ViaPad*
%ADD15C,0.500000*%
G04 #@! TD*
G04 #@! TA.AperFunction,Conductor*
%ADD16C,0.400000*%
G04 #@! TD*
G04 #@! TA.AperFunction,Conductor*
%ADD17C,0.254000*%
G04 #@! TD*
G04 APERTURE END LIST*
D10*
G04 #@! TO.P,XA2,2*
G04 #@! TO.N,GND*
X77343000Y-90678000D03*
G04 #@! TD*
D11*
G04 #@! TO.P,J2,6*
G04 #@! TO.N,Net-(J2-Pad6)*
X63500000Y-105410000D03*
G04 #@! TO.P,J2,5*
G04 #@! TO.N,Net-(J2-Pad5)*
X63500000Y-102870000D03*
G04 #@! TO.P,J2,4*
G04 #@! TO.N,/VCC*
X63500000Y-100330000D03*
G04 #@! TO.P,J2,3*
G04 #@! TO.N,GND*
X63500000Y-97790000D03*
G04 #@! TO.P,J2,2*
G04 #@! TO.N,Net-(J2-Pad2)*
X63500000Y-95250000D03*
D12*
G04 #@! TO.P,J2,1*
G04 #@! TO.N,GND*
X63500000Y-92710000D03*
G04 #@! TD*
G04 #@! TO.P,J1,1*
G04 #@! TO.N,Net-(J1-Pad1)*
X83820000Y-92710000D03*
D11*
G04 #@! TO.P,J1,2*
G04 #@! TO.N,Net-(J1-Pad2)*
X83820000Y-95250000D03*
G04 #@! TO.P,J1,3*
G04 #@! TO.N,Net-(J1-Pad3)*
X83820000Y-97790000D03*
G04 #@! TO.P,J1,4*
G04 #@! TO.N,Net-(J1-Pad4)*
X83820000Y-100330000D03*
G04 #@! TO.P,J1,5*
G04 #@! TO.N,Net-(J1-Pad5)*
X83820000Y-102870000D03*
G04 #@! TO.P,J1,6*
G04 #@! TO.N,Net-(J1-Pad6)*
X83820000Y-105410000D03*
G04 #@! TD*
D13*
G04 #@! TO.N,GND*
G04 #@! TO.C,ANT1*
X79443000Y-87830000D03*
G04 #@! TD*
D14*
G04 #@! TO.N,GND*
X61849000Y-88773000D03*
X66017000Y-88773000D03*
X69677000Y-88773000D03*
X73337000Y-88773000D03*
X85460000Y-88773000D03*
X61849000Y-92373000D03*
X85460000Y-92373000D03*
X73337000Y-95973000D03*
X76997000Y-95973000D03*
X85460000Y-95973000D03*
X61849000Y-99573000D03*
X66017000Y-99573000D03*
X69677000Y-99573000D03*
X73337000Y-99573000D03*
X76997000Y-99573000D03*
X85460000Y-99573000D03*
X61849000Y-103173000D03*
X73337000Y-103173000D03*
X76997000Y-103173000D03*
X85460000Y-103173000D03*
X61849000Y-106773000D03*
X66017000Y-106773000D03*
X69677000Y-106773000D03*
X73337000Y-106773000D03*
X76997000Y-106773000D03*
X80657000Y-106773000D03*
X85460000Y-106773000D03*
X85460000Y-101395000D03*
X85460000Y-104995000D03*
X85460000Y-97795000D03*
X85460000Y-94195000D03*
X85460000Y-90595000D03*
X64389000Y-106807000D03*
X75115000Y-106773000D03*
X82931000Y-106773000D03*
X78775000Y-106773000D03*
X67795000Y-106773000D03*
X71455000Y-106773000D03*
X61849000Y-104995000D03*
X61849000Y-97795000D03*
X61849000Y-101395000D03*
X61849000Y-90595000D03*
X67899000Y-88773000D03*
X71559000Y-88773000D03*
X64239000Y-88773000D03*
X81858000Y-88773000D03*
X83740000Y-88773000D03*
X64262000Y-90551000D03*
X67564000Y-94234000D03*
X75311000Y-97790000D03*
X75311000Y-101346000D03*
X70866000Y-101219000D03*
X70866000Y-104775000D03*
X75311000Y-104775000D03*
X75311000Y-94742000D03*
X82804000Y-90551000D03*
D15*
X72390000Y-90170000D03*
X73406000Y-90170000D03*
X74422000Y-90170000D03*
X75565000Y-90170000D03*
X76073000Y-89281000D03*
X76073000Y-88265000D03*
X78613000Y-88265000D03*
X78613000Y-89154000D03*
X79629000Y-89154000D03*
X80518000Y-89916000D03*
X79756000Y-90932000D03*
X78867000Y-90932000D03*
X78867000Y-91948000D03*
X79756000Y-91948000D03*
X77724000Y-92710000D03*
X76708000Y-92710000D03*
X75438000Y-92710000D03*
X74549000Y-92710000D03*
X73660000Y-92710000D03*
D14*
X69215000Y-98552000D03*
X68072000Y-98552000D03*
X66929000Y-98552000D03*
X65913000Y-98044000D03*
X65278000Y-97409000D03*
X62738000Y-96774000D03*
X62103000Y-96012000D03*
X61849000Y-94996000D03*
X62357000Y-94107000D03*
X62865000Y-93599000D03*
X64262000Y-93599000D03*
D15*
X71374000Y-90170000D03*
X70358000Y-90170000D03*
X69342000Y-90170000D03*
X68326000Y-90170000D03*
D14*
X70104000Y-98171000D03*
X70358000Y-97282000D03*
X70104000Y-96520000D03*
X69215000Y-96012000D03*
X68326000Y-96012000D03*
X67564000Y-96012000D03*
X67564000Y-95123000D03*
X70866000Y-94742000D03*
X72009000Y-97790000D03*
X67564000Y-93345000D03*
X68072000Y-92710000D03*
X69088000Y-92710000D03*
X70104000Y-92710000D03*
X71247000Y-92710000D03*
X72263000Y-92710000D03*
D15*
X66548000Y-90678000D03*
X65913000Y-91313000D03*
X65278000Y-91948000D03*
X65024000Y-92964000D03*
X65024000Y-93980000D03*
X65024000Y-96520000D03*
X67437000Y-90170000D03*
D14*
X64135000Y-96774000D03*
G04 #@! TD*
D16*
G04 #@! TO.N,GND*
X78617001Y-91562999D02*
X78486000Y-91694000D01*
X78867000Y-91948000D02*
X78486000Y-91567000D01*
X78232000Y-91567000D02*
X77769981Y-91104981D01*
X78486000Y-91567000D02*
X78232000Y-91567000D01*
G04 #@! TD*
D17*
G04 #@! TO.N,GND*
G36*
X85717501Y-107307500D02*
X61602500Y-107307500D01*
X61602500Y-100330000D01*
X61985908Y-100330000D01*
X62101161Y-100909418D01*
X62429375Y-101400625D01*
X62727761Y-101600000D01*
X62429375Y-101799375D01*
X62101161Y-102290582D01*
X61985908Y-102870000D01*
X62101161Y-103449418D01*
X62429375Y-103940625D01*
X62727761Y-104140000D01*
X62429375Y-104339375D01*
X62101161Y-104830582D01*
X61985908Y-105410000D01*
X62101161Y-105989418D01*
X62429375Y-106480625D01*
X62920582Y-106808839D01*
X63353744Y-106895000D01*
X63646256Y-106895000D01*
X64079418Y-106808839D01*
X64570625Y-106480625D01*
X64898839Y-105989418D01*
X65014092Y-105410000D01*
X64898839Y-104830582D01*
X64570625Y-104339375D01*
X64272239Y-104140000D01*
X64570625Y-103940625D01*
X64898839Y-103449418D01*
X65014092Y-102870000D01*
X64898839Y-102290582D01*
X64570625Y-101799375D01*
X64272239Y-101600000D01*
X64570625Y-101400625D01*
X64898839Y-100909418D01*
X65014092Y-100330000D01*
X64898839Y-99750582D01*
X64570625Y-99259375D01*
X64251522Y-99046157D01*
X64381358Y-98985183D01*
X64771645Y-98556924D01*
X64941476Y-98146890D01*
X64820155Y-97917000D01*
X63627000Y-97917000D01*
X63627000Y-97937000D01*
X63373000Y-97937000D01*
X63373000Y-97917000D01*
X62179845Y-97917000D01*
X62058524Y-98146890D01*
X62228355Y-98556924D01*
X62618642Y-98985183D01*
X62748478Y-99046157D01*
X62429375Y-99259375D01*
X62101161Y-99750582D01*
X61985908Y-100330000D01*
X61602500Y-100330000D01*
X61602500Y-95250000D01*
X61985908Y-95250000D01*
X62101161Y-95829418D01*
X62429375Y-96320625D01*
X62748478Y-96533843D01*
X62618642Y-96594817D01*
X62228355Y-97023076D01*
X62058524Y-97433110D01*
X62179845Y-97663000D01*
X63373000Y-97663000D01*
X63373000Y-97643000D01*
X63627000Y-97643000D01*
X63627000Y-97663000D01*
X64820155Y-97663000D01*
X64941476Y-97433110D01*
X64771645Y-97023076D01*
X64381358Y-96594817D01*
X64251522Y-96533843D01*
X64570625Y-96320625D01*
X64898839Y-95829418D01*
X65014092Y-95250000D01*
X82305908Y-95250000D01*
X82421161Y-95829418D01*
X82749375Y-96320625D01*
X83047761Y-96520000D01*
X82749375Y-96719375D01*
X82421161Y-97210582D01*
X82305908Y-97790000D01*
X82421161Y-98369418D01*
X82749375Y-98860625D01*
X83047761Y-99060000D01*
X82749375Y-99259375D01*
X82421161Y-99750582D01*
X82305908Y-100330000D01*
X82421161Y-100909418D01*
X82749375Y-101400625D01*
X83047761Y-101600000D01*
X82749375Y-101799375D01*
X82421161Y-102290582D01*
X82305908Y-102870000D01*
X82421161Y-103449418D01*
X82749375Y-103940625D01*
X83047761Y-104140000D01*
X82749375Y-104339375D01*
X82421161Y-104830582D01*
X82305908Y-105410000D01*
X82421161Y-105989418D01*
X82749375Y-106480625D01*
X83240582Y-106808839D01*
X83673744Y-106895000D01*
X83966256Y-106895000D01*
X84399418Y-106808839D01*
X84890625Y-106480625D01*
X85218839Y-105989418D01*
X85334092Y-105410000D01*
X85218839Y-104830582D01*
X84890625Y-104339375D01*
X84592239Y-104140000D01*
X84890625Y-103940625D01*
X85218839Y-103449418D01*
X85334092Y-102870000D01*
X85218839Y-102290582D01*
X84890625Y-101799375D01*
X84592239Y-101600000D01*
X84890625Y-101400625D01*
X85218839Y-100909418D01*
X85334092Y-100330000D01*
X85218839Y-99750582D01*
X84890625Y-99259375D01*
X84592239Y-99060000D01*
X84890625Y-98860625D01*
X85218839Y-98369418D01*
X85334092Y-97790000D01*
X85218839Y-97210582D01*
X84890625Y-96719375D01*
X84592239Y-96520000D01*
X84890625Y-96320625D01*
X85218839Y-95829418D01*
X85334092Y-95250000D01*
X85218839Y-94670582D01*
X84890625Y-94179375D01*
X84872381Y-94167184D01*
X84917765Y-94158157D01*
X85127809Y-94017809D01*
X85268157Y-93807765D01*
X85317440Y-93560000D01*
X85317440Y-91860000D01*
X85268157Y-91612235D01*
X85127809Y-91402191D01*
X84917765Y-91261843D01*
X84670000Y-91212560D01*
X82970000Y-91212560D01*
X82722235Y-91261843D01*
X82512191Y-91402191D01*
X82371843Y-91612235D01*
X82322560Y-91860000D01*
X82322560Y-93560000D01*
X82371843Y-93807765D01*
X82512191Y-94017809D01*
X82722235Y-94158157D01*
X82767619Y-94167184D01*
X82749375Y-94179375D01*
X82421161Y-94670582D01*
X82305908Y-95250000D01*
X65014092Y-95250000D01*
X64898839Y-94670582D01*
X64570625Y-94179375D01*
X64548967Y-94164904D01*
X64709698Y-94098327D01*
X64888327Y-93919699D01*
X64985000Y-93686310D01*
X64985000Y-92995750D01*
X64826250Y-92837000D01*
X63627000Y-92837000D01*
X63627000Y-92857000D01*
X63373000Y-92857000D01*
X63373000Y-92837000D01*
X62173750Y-92837000D01*
X62015000Y-92995750D01*
X62015000Y-93686310D01*
X62111673Y-93919699D01*
X62290302Y-94098327D01*
X62451033Y-94164904D01*
X62429375Y-94179375D01*
X62101161Y-94670582D01*
X61985908Y-95250000D01*
X61602500Y-95250000D01*
X61602500Y-91733690D01*
X62015000Y-91733690D01*
X62015000Y-92424250D01*
X62173750Y-92583000D01*
X63373000Y-92583000D01*
X63373000Y-91383750D01*
X63627000Y-91383750D01*
X63627000Y-92583000D01*
X64826250Y-92583000D01*
X64985000Y-92424250D01*
X64985000Y-91733690D01*
X64888327Y-91500301D01*
X64709698Y-91321673D01*
X64476309Y-91225000D01*
X63785750Y-91225000D01*
X63627000Y-91383750D01*
X63373000Y-91383750D01*
X63214250Y-91225000D01*
X62523691Y-91225000D01*
X62290302Y-91321673D01*
X62111673Y-91500301D01*
X62015000Y-91733690D01*
X61602500Y-91733690D01*
X61602500Y-90528421D01*
X76175939Y-90528421D01*
X76207534Y-90986422D01*
X76322017Y-91262807D01*
X76471251Y-91370144D01*
X76627408Y-91213987D01*
X76807013Y-91393592D01*
X76650856Y-91549749D01*
X76758193Y-91698983D01*
X77193421Y-91845061D01*
X77651422Y-91813466D01*
X77927807Y-91698983D01*
X78035144Y-91549749D01*
X77878987Y-91393592D01*
X78058592Y-91213987D01*
X78214749Y-91370144D01*
X78363983Y-91262807D01*
X78510061Y-90827579D01*
X78478466Y-90369578D01*
X78363983Y-90093193D01*
X78214749Y-89985856D01*
X78058592Y-90142013D01*
X77878987Y-89962408D01*
X78035144Y-89806251D01*
X77927807Y-89657017D01*
X77492579Y-89510939D01*
X77034578Y-89542534D01*
X76758193Y-89657017D01*
X76650856Y-89806251D01*
X76807013Y-89962408D01*
X76627408Y-90142013D01*
X76471251Y-89985856D01*
X76322017Y-90093193D01*
X76175939Y-90528421D01*
X61602500Y-90528421D01*
X61602500Y-87884000D01*
X85717500Y-87884000D01*
X85717501Y-107307500D01*
X85717501Y-107307500D01*
G37*
X85717501Y-107307500D02*
X61602500Y-107307500D01*
X61602500Y-100330000D01*
X61985908Y-100330000D01*
X62101161Y-100909418D01*
X62429375Y-101400625D01*
X62727761Y-101600000D01*
X62429375Y-101799375D01*
X62101161Y-102290582D01*
X61985908Y-102870000D01*
X62101161Y-103449418D01*
X62429375Y-103940625D01*
X62727761Y-104140000D01*
X62429375Y-104339375D01*
X62101161Y-104830582D01*
X61985908Y-105410000D01*
X62101161Y-105989418D01*
X62429375Y-106480625D01*
X62920582Y-106808839D01*
X63353744Y-106895000D01*
X63646256Y-106895000D01*
X64079418Y-106808839D01*
X64570625Y-106480625D01*
X64898839Y-105989418D01*
X65014092Y-105410000D01*
X64898839Y-104830582D01*
X64570625Y-104339375D01*
X64272239Y-104140000D01*
X64570625Y-103940625D01*
X64898839Y-103449418D01*
X65014092Y-102870000D01*
X64898839Y-102290582D01*
X64570625Y-101799375D01*
X64272239Y-101600000D01*
X64570625Y-101400625D01*
X64898839Y-100909418D01*
X65014092Y-100330000D01*
X64898839Y-99750582D01*
X64570625Y-99259375D01*
X64251522Y-99046157D01*
X64381358Y-98985183D01*
X64771645Y-98556924D01*
X64941476Y-98146890D01*
X64820155Y-97917000D01*
X63627000Y-97917000D01*
X63627000Y-97937000D01*
X63373000Y-97937000D01*
X63373000Y-97917000D01*
X62179845Y-97917000D01*
X62058524Y-98146890D01*
X62228355Y-98556924D01*
X62618642Y-98985183D01*
X62748478Y-99046157D01*
X62429375Y-99259375D01*
X62101161Y-99750582D01*
X61985908Y-100330000D01*
X61602500Y-100330000D01*
X61602500Y-95250000D01*
X61985908Y-95250000D01*
X62101161Y-95829418D01*
X62429375Y-96320625D01*
X62748478Y-96533843D01*
X62618642Y-96594817D01*
X62228355Y-97023076D01*
X62058524Y-97433110D01*
X62179845Y-97663000D01*
X63373000Y-97663000D01*
X63373000Y-97643000D01*
X63627000Y-97643000D01*
X63627000Y-97663000D01*
X64820155Y-97663000D01*
X64941476Y-97433110D01*
X64771645Y-97023076D01*
X64381358Y-96594817D01*
X64251522Y-96533843D01*
X64570625Y-96320625D01*
X64898839Y-95829418D01*
X65014092Y-95250000D01*
X82305908Y-95250000D01*
X82421161Y-95829418D01*
X82749375Y-96320625D01*
X83047761Y-96520000D01*
X82749375Y-96719375D01*
X82421161Y-97210582D01*
X82305908Y-97790000D01*
X82421161Y-98369418D01*
X82749375Y-98860625D01*
X83047761Y-99060000D01*
X82749375Y-99259375D01*
X82421161Y-99750582D01*
X82305908Y-100330000D01*
X82421161Y-100909418D01*
X82749375Y-101400625D01*
X83047761Y-101600000D01*
X82749375Y-101799375D01*
X82421161Y-102290582D01*
X82305908Y-102870000D01*
X82421161Y-103449418D01*
X82749375Y-103940625D01*
X83047761Y-104140000D01*
X82749375Y-104339375D01*
X82421161Y-104830582D01*
X82305908Y-105410000D01*
X82421161Y-105989418D01*
X82749375Y-106480625D01*
X83240582Y-106808839D01*
X83673744Y-106895000D01*
X83966256Y-106895000D01*
X84399418Y-106808839D01*
X84890625Y-106480625D01*
X85218839Y-105989418D01*
X85334092Y-105410000D01*
X85218839Y-104830582D01*
X84890625Y-104339375D01*
X84592239Y-104140000D01*
X84890625Y-103940625D01*
X85218839Y-103449418D01*
X85334092Y-102870000D01*
X85218839Y-102290582D01*
X84890625Y-101799375D01*
X84592239Y-101600000D01*
X84890625Y-101400625D01*
X85218839Y-100909418D01*
X85334092Y-100330000D01*
X85218839Y-99750582D01*
X84890625Y-99259375D01*
X84592239Y-99060000D01*
X84890625Y-98860625D01*
X85218839Y-98369418D01*
X85334092Y-97790000D01*
X85218839Y-97210582D01*
X84890625Y-96719375D01*
X84592239Y-96520000D01*
X84890625Y-96320625D01*
X85218839Y-95829418D01*
X85334092Y-95250000D01*
X85218839Y-94670582D01*
X84890625Y-94179375D01*
X84872381Y-94167184D01*
X84917765Y-94158157D01*
X85127809Y-94017809D01*
X85268157Y-93807765D01*
X85317440Y-93560000D01*
X85317440Y-91860000D01*
X85268157Y-91612235D01*
X85127809Y-91402191D01*
X84917765Y-91261843D01*
X84670000Y-91212560D01*
X82970000Y-91212560D01*
X82722235Y-91261843D01*
X82512191Y-91402191D01*
X82371843Y-91612235D01*
X82322560Y-91860000D01*
X82322560Y-93560000D01*
X82371843Y-93807765D01*
X82512191Y-94017809D01*
X82722235Y-94158157D01*
X82767619Y-94167184D01*
X82749375Y-94179375D01*
X82421161Y-94670582D01*
X82305908Y-95250000D01*
X65014092Y-95250000D01*
X64898839Y-94670582D01*
X64570625Y-94179375D01*
X64548967Y-94164904D01*
X64709698Y-94098327D01*
X64888327Y-93919699D01*
X64985000Y-93686310D01*
X64985000Y-92995750D01*
X64826250Y-92837000D01*
X63627000Y-92837000D01*
X63627000Y-92857000D01*
X63373000Y-92857000D01*
X63373000Y-92837000D01*
X62173750Y-92837000D01*
X62015000Y-92995750D01*
X62015000Y-93686310D01*
X62111673Y-93919699D01*
X62290302Y-94098327D01*
X62451033Y-94164904D01*
X62429375Y-94179375D01*
X62101161Y-94670582D01*
X61985908Y-95250000D01*
X61602500Y-95250000D01*
X61602500Y-91733690D01*
X62015000Y-91733690D01*
X62015000Y-92424250D01*
X62173750Y-92583000D01*
X63373000Y-92583000D01*
X63373000Y-91383750D01*
X63627000Y-91383750D01*
X63627000Y-92583000D01*
X64826250Y-92583000D01*
X64985000Y-92424250D01*
X64985000Y-91733690D01*
X64888327Y-91500301D01*
X64709698Y-91321673D01*
X64476309Y-91225000D01*
X63785750Y-91225000D01*
X63627000Y-91383750D01*
X63373000Y-91383750D01*
X63214250Y-91225000D01*
X62523691Y-91225000D01*
X62290302Y-91321673D01*
X62111673Y-91500301D01*
X62015000Y-91733690D01*
X61602500Y-91733690D01*
X61602500Y-90528421D01*
X76175939Y-90528421D01*
X76207534Y-90986422D01*
X76322017Y-91262807D01*
X76471251Y-91370144D01*
X76627408Y-91213987D01*
X76807013Y-91393592D01*
X76650856Y-91549749D01*
X76758193Y-91698983D01*
X77193421Y-91845061D01*
X77651422Y-91813466D01*
X77927807Y-91698983D01*
X78035144Y-91549749D01*
X77878987Y-91393592D01*
X78058592Y-91213987D01*
X78214749Y-91370144D01*
X78363983Y-91262807D01*
X78510061Y-90827579D01*
X78478466Y-90369578D01*
X78363983Y-90093193D01*
X78214749Y-89985856D01*
X78058592Y-90142013D01*
X77878987Y-89962408D01*
X78035144Y-89806251D01*
X77927807Y-89657017D01*
X77492579Y-89510939D01*
X77034578Y-89542534D01*
X76758193Y-89657017D01*
X76650856Y-89806251D01*
X76807013Y-89962408D01*
X76627408Y-90142013D01*
X76471251Y-89985856D01*
X76322017Y-90093193D01*
X76175939Y-90528421D01*
X61602500Y-90528421D01*
X61602500Y-87884000D01*
X85717500Y-87884000D01*
X85717501Y-107307500D01*
G04 #@! TD*
M02*
