M48
;DRILL file {KiCad (5.0.1)-3} date 04/12/2018 00:11:44
;FORMAT={3:3/ absolute / metric / suppress leading zeros}
FMAT,2
METRIC,TZ
T1C0.300
T2C1.000
T3C0.500
%
G90
G05
M71
T1
X61849Y-88773
X61849Y-90595
X61849Y-92373
X61849Y-94996
X61849Y-97795
X61849Y-99573
X61849Y-101395
X61849Y-103173
X61849Y-104995
X61849Y-106773
X62103Y-96012
X62357Y-94107
X62738Y-96774
X62865Y-93599
X64135Y-96774
X64239Y-88773
X64262Y-90551
X64262Y-93599
X64389Y-106807
X65024Y-92964
X65024Y-93980
X65024Y-96520
X65278Y-91948
X65278Y-97409
X65913Y-91313
X65913Y-98044
X66017Y-88773
X66017Y-99573
X66017Y-106773
X66548Y-90678
X66929Y-98552
X67437Y-90170
X67564Y-93345
X67564Y-94234
X67564Y-95123
X67564Y-96012
X67795Y-106773
X67899Y-88773
X68072Y-92710
X68072Y-98552
X68326Y-90170
X68326Y-96012
X69088Y-92710
X69215Y-96012
X69215Y-98552
X69342Y-90170
X69677Y-88773
X69677Y-99573
X69677Y-106773
X70104Y-92710
X70104Y-96520
X70104Y-98171
X70358Y-90170
X70358Y-97282
X70866Y-94742
X70866Y-101219
X70866Y-104775
X71247Y-92710
X71374Y-90170
X71455Y-106773
X71559Y-88773
X72009Y-97790
X72263Y-92710
X72390Y-90170
X73337Y-88773
X73337Y-95973
X73337Y-99573
X73337Y-103173
X73337Y-106773
X73406Y-90170
X73660Y-92710
X74422Y-90170
X74549Y-92710
X75115Y-106773
X75311Y-94742
X75311Y-97790
X75311Y-101346
X75311Y-104775
X75438Y-92710
X75565Y-90170
X76073Y-88265
X76073Y-89281
X76708Y-92710
X76997Y-95973
X76997Y-99573
X76997Y-103173
X76997Y-106773
X77724Y-92710
X78613Y-88265
X78613Y-89154
X78775Y-106773
X78867Y-90932
X78867Y-91948
X79629Y-89154
X79756Y-90932
X79756Y-91948
X80518Y-89916
X80657Y-106773
X81858Y-88773
X82804Y-90551
X82931Y-106773
X83740Y-88773
X85460Y-88773
X85460Y-90595
X85460Y-92373
X85460Y-94195
X85460Y-95973
X85460Y-97795
X85460Y-99573
X85460Y-101395
X85460Y-103173
X85460Y-104995
X85460Y-106773
X79443Y-87830
T2
X63500Y-92710
X63500Y-95250
X63500Y-97790
X63500Y-100330
X63500Y-102870
X63500Y-105410
X83820Y-92710
X83820Y-95250
X83820Y-97790
X83820Y-100330
X83820Y-102870
X83820Y-105410
T3
X77343Y-90678
M30
