G04 #@! TF.GenerationSoftware,KiCad,Pcbnew,(5.0.1)-3*
G04 #@! TF.CreationDate,2018-12-06T00:17:23+01:00*
G04 #@! TF.ProjectId,air602bob,616972363032626F622E6B696361645F,rev?*
G04 #@! TF.SameCoordinates,Original*
G04 #@! TF.FileFunction,Paste,Top*
G04 #@! TF.FilePolarity,Positive*
%FSLAX46Y46*%
G04 Gerber Fmt 4.6, Leading zero omitted, Abs format (unit mm)*
G04 Created by KiCad (PCBNEW (5.0.1)-3) date 06/12/2018 00:17:23*
%MOMM*%
%LPD*%
G01*
G04 APERTURE LIST*
%ADD10R,2.200000X1.050000*%
%ADD11R,1.000000X1.000000*%
%ADD12C,0.100000*%
%ADD13C,0.950000*%
%ADD14C,0.590000*%
%ADD15C,1.000000*%
G04 APERTURE END LIST*
D10*
G04 #@! TO.C,XA1*
X79248000Y-89965000D03*
X79248000Y-92915000D03*
D11*
X80748000Y-91440000D03*
X77748000Y-91440000D03*
G04 #@! TD*
D12*
G04 #@! TO.C,C3*
G36*
X66300779Y-100681144D02*
X66323834Y-100684563D01*
X66346443Y-100690227D01*
X66368387Y-100698079D01*
X66389457Y-100708044D01*
X66409448Y-100720026D01*
X66428168Y-100733910D01*
X66445438Y-100749562D01*
X66461090Y-100766832D01*
X66474974Y-100785552D01*
X66486956Y-100805543D01*
X66496921Y-100826613D01*
X66504773Y-100848557D01*
X66510437Y-100871166D01*
X66513856Y-100894221D01*
X66515000Y-100917500D01*
X66515000Y-101492500D01*
X66513856Y-101515779D01*
X66510437Y-101538834D01*
X66504773Y-101561443D01*
X66496921Y-101583387D01*
X66486956Y-101604457D01*
X66474974Y-101624448D01*
X66461090Y-101643168D01*
X66445438Y-101660438D01*
X66428168Y-101676090D01*
X66409448Y-101689974D01*
X66389457Y-101701956D01*
X66368387Y-101711921D01*
X66346443Y-101719773D01*
X66323834Y-101725437D01*
X66300779Y-101728856D01*
X66277500Y-101730000D01*
X65802500Y-101730000D01*
X65779221Y-101728856D01*
X65756166Y-101725437D01*
X65733557Y-101719773D01*
X65711613Y-101711921D01*
X65690543Y-101701956D01*
X65670552Y-101689974D01*
X65651832Y-101676090D01*
X65634562Y-101660438D01*
X65618910Y-101643168D01*
X65605026Y-101624448D01*
X65593044Y-101604457D01*
X65583079Y-101583387D01*
X65575227Y-101561443D01*
X65569563Y-101538834D01*
X65566144Y-101515779D01*
X65565000Y-101492500D01*
X65565000Y-100917500D01*
X65566144Y-100894221D01*
X65569563Y-100871166D01*
X65575227Y-100848557D01*
X65583079Y-100826613D01*
X65593044Y-100805543D01*
X65605026Y-100785552D01*
X65618910Y-100766832D01*
X65634562Y-100749562D01*
X65651832Y-100733910D01*
X65670552Y-100720026D01*
X65690543Y-100708044D01*
X65711613Y-100698079D01*
X65733557Y-100690227D01*
X65756166Y-100684563D01*
X65779221Y-100681144D01*
X65802500Y-100680000D01*
X66277500Y-100680000D01*
X66300779Y-100681144D01*
X66300779Y-100681144D01*
G37*
D13*
X66040000Y-101205000D03*
D12*
G36*
X66300779Y-98931144D02*
X66323834Y-98934563D01*
X66346443Y-98940227D01*
X66368387Y-98948079D01*
X66389457Y-98958044D01*
X66409448Y-98970026D01*
X66428168Y-98983910D01*
X66445438Y-98999562D01*
X66461090Y-99016832D01*
X66474974Y-99035552D01*
X66486956Y-99055543D01*
X66496921Y-99076613D01*
X66504773Y-99098557D01*
X66510437Y-99121166D01*
X66513856Y-99144221D01*
X66515000Y-99167500D01*
X66515000Y-99742500D01*
X66513856Y-99765779D01*
X66510437Y-99788834D01*
X66504773Y-99811443D01*
X66496921Y-99833387D01*
X66486956Y-99854457D01*
X66474974Y-99874448D01*
X66461090Y-99893168D01*
X66445438Y-99910438D01*
X66428168Y-99926090D01*
X66409448Y-99939974D01*
X66389457Y-99951956D01*
X66368387Y-99961921D01*
X66346443Y-99969773D01*
X66323834Y-99975437D01*
X66300779Y-99978856D01*
X66277500Y-99980000D01*
X65802500Y-99980000D01*
X65779221Y-99978856D01*
X65756166Y-99975437D01*
X65733557Y-99969773D01*
X65711613Y-99961921D01*
X65690543Y-99951956D01*
X65670552Y-99939974D01*
X65651832Y-99926090D01*
X65634562Y-99910438D01*
X65618910Y-99893168D01*
X65605026Y-99874448D01*
X65593044Y-99854457D01*
X65583079Y-99833387D01*
X65575227Y-99811443D01*
X65569563Y-99788834D01*
X65566144Y-99765779D01*
X65565000Y-99742500D01*
X65565000Y-99167500D01*
X65566144Y-99144221D01*
X65569563Y-99121166D01*
X65575227Y-99098557D01*
X65583079Y-99076613D01*
X65593044Y-99055543D01*
X65605026Y-99035552D01*
X65618910Y-99016832D01*
X65634562Y-98999562D01*
X65651832Y-98983910D01*
X65670552Y-98970026D01*
X65690543Y-98958044D01*
X65711613Y-98948079D01*
X65733557Y-98940227D01*
X65756166Y-98934563D01*
X65779221Y-98931144D01*
X65802500Y-98930000D01*
X66277500Y-98930000D01*
X66300779Y-98931144D01*
X66300779Y-98931144D01*
G37*
D13*
X66040000Y-99455000D03*
G04 #@! TD*
D12*
G04 #@! TO.C,C2*
G36*
X73211958Y-91422710D02*
X73226276Y-91424834D01*
X73240317Y-91428351D01*
X73253946Y-91433228D01*
X73267031Y-91439417D01*
X73279447Y-91446858D01*
X73291073Y-91455481D01*
X73301798Y-91465202D01*
X73311519Y-91475927D01*
X73320142Y-91487553D01*
X73327583Y-91499969D01*
X73333772Y-91513054D01*
X73338649Y-91526683D01*
X73342166Y-91540724D01*
X73344290Y-91555042D01*
X73345000Y-91569500D01*
X73345000Y-91864500D01*
X73344290Y-91878958D01*
X73342166Y-91893276D01*
X73338649Y-91907317D01*
X73333772Y-91920946D01*
X73327583Y-91934031D01*
X73320142Y-91946447D01*
X73311519Y-91958073D01*
X73301798Y-91968798D01*
X73291073Y-91978519D01*
X73279447Y-91987142D01*
X73267031Y-91994583D01*
X73253946Y-92000772D01*
X73240317Y-92005649D01*
X73226276Y-92009166D01*
X73211958Y-92011290D01*
X73197500Y-92012000D01*
X72852500Y-92012000D01*
X72838042Y-92011290D01*
X72823724Y-92009166D01*
X72809683Y-92005649D01*
X72796054Y-92000772D01*
X72782969Y-91994583D01*
X72770553Y-91987142D01*
X72758927Y-91978519D01*
X72748202Y-91968798D01*
X72738481Y-91958073D01*
X72729858Y-91946447D01*
X72722417Y-91934031D01*
X72716228Y-91920946D01*
X72711351Y-91907317D01*
X72707834Y-91893276D01*
X72705710Y-91878958D01*
X72705000Y-91864500D01*
X72705000Y-91569500D01*
X72705710Y-91555042D01*
X72707834Y-91540724D01*
X72711351Y-91526683D01*
X72716228Y-91513054D01*
X72722417Y-91499969D01*
X72729858Y-91487553D01*
X72738481Y-91475927D01*
X72748202Y-91465202D01*
X72758927Y-91455481D01*
X72770553Y-91446858D01*
X72782969Y-91439417D01*
X72796054Y-91433228D01*
X72809683Y-91428351D01*
X72823724Y-91424834D01*
X72838042Y-91422710D01*
X72852500Y-91422000D01*
X73197500Y-91422000D01*
X73211958Y-91422710D01*
X73211958Y-91422710D01*
G37*
D14*
X73025000Y-91717000D03*
D12*
G36*
X73211958Y-92392710D02*
X73226276Y-92394834D01*
X73240317Y-92398351D01*
X73253946Y-92403228D01*
X73267031Y-92409417D01*
X73279447Y-92416858D01*
X73291073Y-92425481D01*
X73301798Y-92435202D01*
X73311519Y-92445927D01*
X73320142Y-92457553D01*
X73327583Y-92469969D01*
X73333772Y-92483054D01*
X73338649Y-92496683D01*
X73342166Y-92510724D01*
X73344290Y-92525042D01*
X73345000Y-92539500D01*
X73345000Y-92834500D01*
X73344290Y-92848958D01*
X73342166Y-92863276D01*
X73338649Y-92877317D01*
X73333772Y-92890946D01*
X73327583Y-92904031D01*
X73320142Y-92916447D01*
X73311519Y-92928073D01*
X73301798Y-92938798D01*
X73291073Y-92948519D01*
X73279447Y-92957142D01*
X73267031Y-92964583D01*
X73253946Y-92970772D01*
X73240317Y-92975649D01*
X73226276Y-92979166D01*
X73211958Y-92981290D01*
X73197500Y-92982000D01*
X72852500Y-92982000D01*
X72838042Y-92981290D01*
X72823724Y-92979166D01*
X72809683Y-92975649D01*
X72796054Y-92970772D01*
X72782969Y-92964583D01*
X72770553Y-92957142D01*
X72758927Y-92948519D01*
X72748202Y-92938798D01*
X72738481Y-92928073D01*
X72729858Y-92916447D01*
X72722417Y-92904031D01*
X72716228Y-92890946D01*
X72711351Y-92877317D01*
X72707834Y-92863276D01*
X72705710Y-92848958D01*
X72705000Y-92834500D01*
X72705000Y-92539500D01*
X72705710Y-92525042D01*
X72707834Y-92510724D01*
X72711351Y-92496683D01*
X72716228Y-92483054D01*
X72722417Y-92469969D01*
X72729858Y-92457553D01*
X72738481Y-92445927D01*
X72748202Y-92435202D01*
X72758927Y-92425481D01*
X72770553Y-92416858D01*
X72782969Y-92409417D01*
X72796054Y-92403228D01*
X72809683Y-92398351D01*
X72823724Y-92394834D01*
X72838042Y-92392710D01*
X72852500Y-92392000D01*
X73197500Y-92392000D01*
X73211958Y-92392710D01*
X73211958Y-92392710D01*
G37*
D14*
X73025000Y-92687000D03*
G04 #@! TD*
D12*
G04 #@! TO.C,C1*
G36*
X76259958Y-92392710D02*
X76274276Y-92394834D01*
X76288317Y-92398351D01*
X76301946Y-92403228D01*
X76315031Y-92409417D01*
X76327447Y-92416858D01*
X76339073Y-92425481D01*
X76349798Y-92435202D01*
X76359519Y-92445927D01*
X76368142Y-92457553D01*
X76375583Y-92469969D01*
X76381772Y-92483054D01*
X76386649Y-92496683D01*
X76390166Y-92510724D01*
X76392290Y-92525042D01*
X76393000Y-92539500D01*
X76393000Y-92834500D01*
X76392290Y-92848958D01*
X76390166Y-92863276D01*
X76386649Y-92877317D01*
X76381772Y-92890946D01*
X76375583Y-92904031D01*
X76368142Y-92916447D01*
X76359519Y-92928073D01*
X76349798Y-92938798D01*
X76339073Y-92948519D01*
X76327447Y-92957142D01*
X76315031Y-92964583D01*
X76301946Y-92970772D01*
X76288317Y-92975649D01*
X76274276Y-92979166D01*
X76259958Y-92981290D01*
X76245500Y-92982000D01*
X75900500Y-92982000D01*
X75886042Y-92981290D01*
X75871724Y-92979166D01*
X75857683Y-92975649D01*
X75844054Y-92970772D01*
X75830969Y-92964583D01*
X75818553Y-92957142D01*
X75806927Y-92948519D01*
X75796202Y-92938798D01*
X75786481Y-92928073D01*
X75777858Y-92916447D01*
X75770417Y-92904031D01*
X75764228Y-92890946D01*
X75759351Y-92877317D01*
X75755834Y-92863276D01*
X75753710Y-92848958D01*
X75753000Y-92834500D01*
X75753000Y-92539500D01*
X75753710Y-92525042D01*
X75755834Y-92510724D01*
X75759351Y-92496683D01*
X75764228Y-92483054D01*
X75770417Y-92469969D01*
X75777858Y-92457553D01*
X75786481Y-92445927D01*
X75796202Y-92435202D01*
X75806927Y-92425481D01*
X75818553Y-92416858D01*
X75830969Y-92409417D01*
X75844054Y-92403228D01*
X75857683Y-92398351D01*
X75871724Y-92394834D01*
X75886042Y-92392710D01*
X75900500Y-92392000D01*
X76245500Y-92392000D01*
X76259958Y-92392710D01*
X76259958Y-92392710D01*
G37*
D14*
X76073000Y-92687000D03*
D12*
G36*
X76259958Y-91422710D02*
X76274276Y-91424834D01*
X76288317Y-91428351D01*
X76301946Y-91433228D01*
X76315031Y-91439417D01*
X76327447Y-91446858D01*
X76339073Y-91455481D01*
X76349798Y-91465202D01*
X76359519Y-91475927D01*
X76368142Y-91487553D01*
X76375583Y-91499969D01*
X76381772Y-91513054D01*
X76386649Y-91526683D01*
X76390166Y-91540724D01*
X76392290Y-91555042D01*
X76393000Y-91569500D01*
X76393000Y-91864500D01*
X76392290Y-91878958D01*
X76390166Y-91893276D01*
X76386649Y-91907317D01*
X76381772Y-91920946D01*
X76375583Y-91934031D01*
X76368142Y-91946447D01*
X76359519Y-91958073D01*
X76349798Y-91968798D01*
X76339073Y-91978519D01*
X76327447Y-91987142D01*
X76315031Y-91994583D01*
X76301946Y-92000772D01*
X76288317Y-92005649D01*
X76274276Y-92009166D01*
X76259958Y-92011290D01*
X76245500Y-92012000D01*
X75900500Y-92012000D01*
X75886042Y-92011290D01*
X75871724Y-92009166D01*
X75857683Y-92005649D01*
X75844054Y-92000772D01*
X75830969Y-91994583D01*
X75818553Y-91987142D01*
X75806927Y-91978519D01*
X75796202Y-91968798D01*
X75786481Y-91958073D01*
X75777858Y-91946447D01*
X75770417Y-91934031D01*
X75764228Y-91920946D01*
X75759351Y-91907317D01*
X75755834Y-91893276D01*
X75753710Y-91878958D01*
X75753000Y-91864500D01*
X75753000Y-91569500D01*
X75753710Y-91555042D01*
X75755834Y-91540724D01*
X75759351Y-91526683D01*
X75764228Y-91513054D01*
X75770417Y-91499969D01*
X75777858Y-91487553D01*
X75786481Y-91475927D01*
X75796202Y-91465202D01*
X75806927Y-91455481D01*
X75818553Y-91446858D01*
X75830969Y-91439417D01*
X75844054Y-91433228D01*
X75857683Y-91428351D01*
X75871724Y-91424834D01*
X75886042Y-91422710D01*
X75900500Y-91422000D01*
X76245500Y-91422000D01*
X76259958Y-91422710D01*
X76259958Y-91422710D01*
G37*
D14*
X76073000Y-91717000D03*
G04 #@! TD*
D12*
G04 #@! TO.C,L1*
G36*
X75218958Y-91120710D02*
X75233276Y-91122834D01*
X75247317Y-91126351D01*
X75260946Y-91131228D01*
X75274031Y-91137417D01*
X75286447Y-91144858D01*
X75298073Y-91153481D01*
X75308798Y-91163202D01*
X75318519Y-91173927D01*
X75327142Y-91185553D01*
X75334583Y-91197969D01*
X75340772Y-91211054D01*
X75345649Y-91224683D01*
X75349166Y-91238724D01*
X75351290Y-91253042D01*
X75352000Y-91267500D01*
X75352000Y-91612500D01*
X75351290Y-91626958D01*
X75349166Y-91641276D01*
X75345649Y-91655317D01*
X75340772Y-91668946D01*
X75334583Y-91682031D01*
X75327142Y-91694447D01*
X75318519Y-91706073D01*
X75308798Y-91716798D01*
X75298073Y-91726519D01*
X75286447Y-91735142D01*
X75274031Y-91742583D01*
X75260946Y-91748772D01*
X75247317Y-91753649D01*
X75233276Y-91757166D01*
X75218958Y-91759290D01*
X75204500Y-91760000D01*
X74909500Y-91760000D01*
X74895042Y-91759290D01*
X74880724Y-91757166D01*
X74866683Y-91753649D01*
X74853054Y-91748772D01*
X74839969Y-91742583D01*
X74827553Y-91735142D01*
X74815927Y-91726519D01*
X74805202Y-91716798D01*
X74795481Y-91706073D01*
X74786858Y-91694447D01*
X74779417Y-91682031D01*
X74773228Y-91668946D01*
X74768351Y-91655317D01*
X74764834Y-91641276D01*
X74762710Y-91626958D01*
X74762000Y-91612500D01*
X74762000Y-91267500D01*
X74762710Y-91253042D01*
X74764834Y-91238724D01*
X74768351Y-91224683D01*
X74773228Y-91211054D01*
X74779417Y-91197969D01*
X74786858Y-91185553D01*
X74795481Y-91173927D01*
X74805202Y-91163202D01*
X74815927Y-91153481D01*
X74827553Y-91144858D01*
X74839969Y-91137417D01*
X74853054Y-91131228D01*
X74866683Y-91126351D01*
X74880724Y-91122834D01*
X74895042Y-91120710D01*
X74909500Y-91120000D01*
X75204500Y-91120000D01*
X75218958Y-91120710D01*
X75218958Y-91120710D01*
G37*
D14*
X75057000Y-91440000D03*
D12*
G36*
X74248958Y-91120710D02*
X74263276Y-91122834D01*
X74277317Y-91126351D01*
X74290946Y-91131228D01*
X74304031Y-91137417D01*
X74316447Y-91144858D01*
X74328073Y-91153481D01*
X74338798Y-91163202D01*
X74348519Y-91173927D01*
X74357142Y-91185553D01*
X74364583Y-91197969D01*
X74370772Y-91211054D01*
X74375649Y-91224683D01*
X74379166Y-91238724D01*
X74381290Y-91253042D01*
X74382000Y-91267500D01*
X74382000Y-91612500D01*
X74381290Y-91626958D01*
X74379166Y-91641276D01*
X74375649Y-91655317D01*
X74370772Y-91668946D01*
X74364583Y-91682031D01*
X74357142Y-91694447D01*
X74348519Y-91706073D01*
X74338798Y-91716798D01*
X74328073Y-91726519D01*
X74316447Y-91735142D01*
X74304031Y-91742583D01*
X74290946Y-91748772D01*
X74277317Y-91753649D01*
X74263276Y-91757166D01*
X74248958Y-91759290D01*
X74234500Y-91760000D01*
X73939500Y-91760000D01*
X73925042Y-91759290D01*
X73910724Y-91757166D01*
X73896683Y-91753649D01*
X73883054Y-91748772D01*
X73869969Y-91742583D01*
X73857553Y-91735142D01*
X73845927Y-91726519D01*
X73835202Y-91716798D01*
X73825481Y-91706073D01*
X73816858Y-91694447D01*
X73809417Y-91682031D01*
X73803228Y-91668946D01*
X73798351Y-91655317D01*
X73794834Y-91641276D01*
X73792710Y-91626958D01*
X73792000Y-91612500D01*
X73792000Y-91267500D01*
X73792710Y-91253042D01*
X73794834Y-91238724D01*
X73798351Y-91224683D01*
X73803228Y-91211054D01*
X73809417Y-91197969D01*
X73816858Y-91185553D01*
X73825481Y-91173927D01*
X73835202Y-91163202D01*
X73845927Y-91153481D01*
X73857553Y-91144858D01*
X73869969Y-91137417D01*
X73883054Y-91131228D01*
X73896683Y-91126351D01*
X73910724Y-91122834D01*
X73925042Y-91120710D01*
X73939500Y-91120000D01*
X74234500Y-91120000D01*
X74248958Y-91120710D01*
X74248958Y-91120710D01*
G37*
D14*
X74087000Y-91440000D03*
G04 #@! TD*
D12*
G04 #@! TO.C,U1*
G36*
X69334504Y-94831204D02*
X69358773Y-94834804D01*
X69382571Y-94840765D01*
X69405671Y-94849030D01*
X69427849Y-94859520D01*
X69448893Y-94872133D01*
X69468598Y-94886747D01*
X69486777Y-94903223D01*
X69503253Y-94921402D01*
X69517867Y-94941107D01*
X69530480Y-94962151D01*
X69540970Y-94984329D01*
X69549235Y-95007429D01*
X69555196Y-95031227D01*
X69558796Y-95055496D01*
X69560000Y-95080000D01*
X69560000Y-95580000D01*
X69558796Y-95604504D01*
X69555196Y-95628773D01*
X69549235Y-95652571D01*
X69540970Y-95675671D01*
X69530480Y-95697849D01*
X69517867Y-95718893D01*
X69503253Y-95738598D01*
X69486777Y-95756777D01*
X69468598Y-95773253D01*
X69448893Y-95787867D01*
X69427849Y-95800480D01*
X69405671Y-95810970D01*
X69382571Y-95819235D01*
X69358773Y-95825196D01*
X69334504Y-95828796D01*
X69310000Y-95830000D01*
X68010000Y-95830000D01*
X67985496Y-95828796D01*
X67961227Y-95825196D01*
X67937429Y-95819235D01*
X67914329Y-95810970D01*
X67892151Y-95800480D01*
X67871107Y-95787867D01*
X67851402Y-95773253D01*
X67833223Y-95756777D01*
X67816747Y-95738598D01*
X67802133Y-95718893D01*
X67789520Y-95697849D01*
X67779030Y-95675671D01*
X67770765Y-95652571D01*
X67764804Y-95628773D01*
X67761204Y-95604504D01*
X67760000Y-95580000D01*
X67760000Y-95080000D01*
X67761204Y-95055496D01*
X67764804Y-95031227D01*
X67770765Y-95007429D01*
X67779030Y-94984329D01*
X67789520Y-94962151D01*
X67802133Y-94941107D01*
X67816747Y-94921402D01*
X67833223Y-94903223D01*
X67851402Y-94886747D01*
X67871107Y-94872133D01*
X67892151Y-94859520D01*
X67914329Y-94849030D01*
X67937429Y-94840765D01*
X67961227Y-94834804D01*
X67985496Y-94831204D01*
X68010000Y-94830000D01*
X69310000Y-94830000D01*
X69334504Y-94831204D01*
X69334504Y-94831204D01*
G37*
D15*
X68660000Y-95330000D03*
D12*
G36*
X69334504Y-96831204D02*
X69358773Y-96834804D01*
X69382571Y-96840765D01*
X69405671Y-96849030D01*
X69427849Y-96859520D01*
X69448893Y-96872133D01*
X69468598Y-96886747D01*
X69486777Y-96903223D01*
X69503253Y-96921402D01*
X69517867Y-96941107D01*
X69530480Y-96962151D01*
X69540970Y-96984329D01*
X69549235Y-97007429D01*
X69555196Y-97031227D01*
X69558796Y-97055496D01*
X69560000Y-97080000D01*
X69560000Y-97580000D01*
X69558796Y-97604504D01*
X69555196Y-97628773D01*
X69549235Y-97652571D01*
X69540970Y-97675671D01*
X69530480Y-97697849D01*
X69517867Y-97718893D01*
X69503253Y-97738598D01*
X69486777Y-97756777D01*
X69468598Y-97773253D01*
X69448893Y-97787867D01*
X69427849Y-97800480D01*
X69405671Y-97810970D01*
X69382571Y-97819235D01*
X69358773Y-97825196D01*
X69334504Y-97828796D01*
X69310000Y-97830000D01*
X68010000Y-97830000D01*
X67985496Y-97828796D01*
X67961227Y-97825196D01*
X67937429Y-97819235D01*
X67914329Y-97810970D01*
X67892151Y-97800480D01*
X67871107Y-97787867D01*
X67851402Y-97773253D01*
X67833223Y-97756777D01*
X67816747Y-97738598D01*
X67802133Y-97718893D01*
X67789520Y-97697849D01*
X67779030Y-97675671D01*
X67770765Y-97652571D01*
X67764804Y-97628773D01*
X67761204Y-97604504D01*
X67760000Y-97580000D01*
X67760000Y-97080000D01*
X67761204Y-97055496D01*
X67764804Y-97031227D01*
X67770765Y-97007429D01*
X67779030Y-96984329D01*
X67789520Y-96962151D01*
X67802133Y-96941107D01*
X67816747Y-96921402D01*
X67833223Y-96903223D01*
X67851402Y-96886747D01*
X67871107Y-96872133D01*
X67892151Y-96859520D01*
X67914329Y-96849030D01*
X67937429Y-96840765D01*
X67961227Y-96834804D01*
X67985496Y-96831204D01*
X68010000Y-96830000D01*
X69310000Y-96830000D01*
X69334504Y-96831204D01*
X69334504Y-96831204D01*
G37*
D15*
X68660000Y-97330000D03*
D12*
G36*
X69334504Y-98831204D02*
X69358773Y-98834804D01*
X69382571Y-98840765D01*
X69405671Y-98849030D01*
X69427849Y-98859520D01*
X69448893Y-98872133D01*
X69468598Y-98886747D01*
X69486777Y-98903223D01*
X69503253Y-98921402D01*
X69517867Y-98941107D01*
X69530480Y-98962151D01*
X69540970Y-98984329D01*
X69549235Y-99007429D01*
X69555196Y-99031227D01*
X69558796Y-99055496D01*
X69560000Y-99080000D01*
X69560000Y-99580000D01*
X69558796Y-99604504D01*
X69555196Y-99628773D01*
X69549235Y-99652571D01*
X69540970Y-99675671D01*
X69530480Y-99697849D01*
X69517867Y-99718893D01*
X69503253Y-99738598D01*
X69486777Y-99756777D01*
X69468598Y-99773253D01*
X69448893Y-99787867D01*
X69427849Y-99800480D01*
X69405671Y-99810970D01*
X69382571Y-99819235D01*
X69358773Y-99825196D01*
X69334504Y-99828796D01*
X69310000Y-99830000D01*
X68010000Y-99830000D01*
X67985496Y-99828796D01*
X67961227Y-99825196D01*
X67937429Y-99819235D01*
X67914329Y-99810970D01*
X67892151Y-99800480D01*
X67871107Y-99787867D01*
X67851402Y-99773253D01*
X67833223Y-99756777D01*
X67816747Y-99738598D01*
X67802133Y-99718893D01*
X67789520Y-99697849D01*
X67779030Y-99675671D01*
X67770765Y-99652571D01*
X67764804Y-99628773D01*
X67761204Y-99604504D01*
X67760000Y-99580000D01*
X67760000Y-99080000D01*
X67761204Y-99055496D01*
X67764804Y-99031227D01*
X67770765Y-99007429D01*
X67779030Y-98984329D01*
X67789520Y-98962151D01*
X67802133Y-98941107D01*
X67816747Y-98921402D01*
X67833223Y-98903223D01*
X67851402Y-98886747D01*
X67871107Y-98872133D01*
X67892151Y-98859520D01*
X67914329Y-98849030D01*
X67937429Y-98840765D01*
X67961227Y-98834804D01*
X67985496Y-98831204D01*
X68010000Y-98830000D01*
X69310000Y-98830000D01*
X69334504Y-98831204D01*
X69334504Y-98831204D01*
G37*
D15*
X68660000Y-99330000D03*
D12*
G36*
X69334504Y-100831204D02*
X69358773Y-100834804D01*
X69382571Y-100840765D01*
X69405671Y-100849030D01*
X69427849Y-100859520D01*
X69448893Y-100872133D01*
X69468598Y-100886747D01*
X69486777Y-100903223D01*
X69503253Y-100921402D01*
X69517867Y-100941107D01*
X69530480Y-100962151D01*
X69540970Y-100984329D01*
X69549235Y-101007429D01*
X69555196Y-101031227D01*
X69558796Y-101055496D01*
X69560000Y-101080000D01*
X69560000Y-101580000D01*
X69558796Y-101604504D01*
X69555196Y-101628773D01*
X69549235Y-101652571D01*
X69540970Y-101675671D01*
X69530480Y-101697849D01*
X69517867Y-101718893D01*
X69503253Y-101738598D01*
X69486777Y-101756777D01*
X69468598Y-101773253D01*
X69448893Y-101787867D01*
X69427849Y-101800480D01*
X69405671Y-101810970D01*
X69382571Y-101819235D01*
X69358773Y-101825196D01*
X69334504Y-101828796D01*
X69310000Y-101830000D01*
X68010000Y-101830000D01*
X67985496Y-101828796D01*
X67961227Y-101825196D01*
X67937429Y-101819235D01*
X67914329Y-101810970D01*
X67892151Y-101800480D01*
X67871107Y-101787867D01*
X67851402Y-101773253D01*
X67833223Y-101756777D01*
X67816747Y-101738598D01*
X67802133Y-101718893D01*
X67789520Y-101697849D01*
X67779030Y-101675671D01*
X67770765Y-101652571D01*
X67764804Y-101628773D01*
X67761204Y-101604504D01*
X67760000Y-101580000D01*
X67760000Y-101080000D01*
X67761204Y-101055496D01*
X67764804Y-101031227D01*
X67770765Y-101007429D01*
X67779030Y-100984329D01*
X67789520Y-100962151D01*
X67802133Y-100941107D01*
X67816747Y-100921402D01*
X67833223Y-100903223D01*
X67851402Y-100886747D01*
X67871107Y-100872133D01*
X67892151Y-100859520D01*
X67914329Y-100849030D01*
X67937429Y-100840765D01*
X67961227Y-100834804D01*
X67985496Y-100831204D01*
X68010000Y-100830000D01*
X69310000Y-100830000D01*
X69334504Y-100831204D01*
X69334504Y-100831204D01*
G37*
D15*
X68660000Y-101330000D03*
D12*
G36*
X69334504Y-102831204D02*
X69358773Y-102834804D01*
X69382571Y-102840765D01*
X69405671Y-102849030D01*
X69427849Y-102859520D01*
X69448893Y-102872133D01*
X69468598Y-102886747D01*
X69486777Y-102903223D01*
X69503253Y-102921402D01*
X69517867Y-102941107D01*
X69530480Y-102962151D01*
X69540970Y-102984329D01*
X69549235Y-103007429D01*
X69555196Y-103031227D01*
X69558796Y-103055496D01*
X69560000Y-103080000D01*
X69560000Y-103580000D01*
X69558796Y-103604504D01*
X69555196Y-103628773D01*
X69549235Y-103652571D01*
X69540970Y-103675671D01*
X69530480Y-103697849D01*
X69517867Y-103718893D01*
X69503253Y-103738598D01*
X69486777Y-103756777D01*
X69468598Y-103773253D01*
X69448893Y-103787867D01*
X69427849Y-103800480D01*
X69405671Y-103810970D01*
X69382571Y-103819235D01*
X69358773Y-103825196D01*
X69334504Y-103828796D01*
X69310000Y-103830000D01*
X68010000Y-103830000D01*
X67985496Y-103828796D01*
X67961227Y-103825196D01*
X67937429Y-103819235D01*
X67914329Y-103810970D01*
X67892151Y-103800480D01*
X67871107Y-103787867D01*
X67851402Y-103773253D01*
X67833223Y-103756777D01*
X67816747Y-103738598D01*
X67802133Y-103718893D01*
X67789520Y-103697849D01*
X67779030Y-103675671D01*
X67770765Y-103652571D01*
X67764804Y-103628773D01*
X67761204Y-103604504D01*
X67760000Y-103580000D01*
X67760000Y-103080000D01*
X67761204Y-103055496D01*
X67764804Y-103031227D01*
X67770765Y-103007429D01*
X67779030Y-102984329D01*
X67789520Y-102962151D01*
X67802133Y-102941107D01*
X67816747Y-102921402D01*
X67833223Y-102903223D01*
X67851402Y-102886747D01*
X67871107Y-102872133D01*
X67892151Y-102859520D01*
X67914329Y-102849030D01*
X67937429Y-102840765D01*
X67961227Y-102834804D01*
X67985496Y-102831204D01*
X68010000Y-102830000D01*
X69310000Y-102830000D01*
X69334504Y-102831204D01*
X69334504Y-102831204D01*
G37*
D15*
X68660000Y-103330000D03*
D12*
G36*
X69334504Y-104831204D02*
X69358773Y-104834804D01*
X69382571Y-104840765D01*
X69405671Y-104849030D01*
X69427849Y-104859520D01*
X69448893Y-104872133D01*
X69468598Y-104886747D01*
X69486777Y-104903223D01*
X69503253Y-104921402D01*
X69517867Y-104941107D01*
X69530480Y-104962151D01*
X69540970Y-104984329D01*
X69549235Y-105007429D01*
X69555196Y-105031227D01*
X69558796Y-105055496D01*
X69560000Y-105080000D01*
X69560000Y-105580000D01*
X69558796Y-105604504D01*
X69555196Y-105628773D01*
X69549235Y-105652571D01*
X69540970Y-105675671D01*
X69530480Y-105697849D01*
X69517867Y-105718893D01*
X69503253Y-105738598D01*
X69486777Y-105756777D01*
X69468598Y-105773253D01*
X69448893Y-105787867D01*
X69427849Y-105800480D01*
X69405671Y-105810970D01*
X69382571Y-105819235D01*
X69358773Y-105825196D01*
X69334504Y-105828796D01*
X69310000Y-105830000D01*
X68010000Y-105830000D01*
X67985496Y-105828796D01*
X67961227Y-105825196D01*
X67937429Y-105819235D01*
X67914329Y-105810970D01*
X67892151Y-105800480D01*
X67871107Y-105787867D01*
X67851402Y-105773253D01*
X67833223Y-105756777D01*
X67816747Y-105738598D01*
X67802133Y-105718893D01*
X67789520Y-105697849D01*
X67779030Y-105675671D01*
X67770765Y-105652571D01*
X67764804Y-105628773D01*
X67761204Y-105604504D01*
X67760000Y-105580000D01*
X67760000Y-105080000D01*
X67761204Y-105055496D01*
X67764804Y-105031227D01*
X67770765Y-105007429D01*
X67779030Y-104984329D01*
X67789520Y-104962151D01*
X67802133Y-104941107D01*
X67816747Y-104921402D01*
X67833223Y-104903223D01*
X67851402Y-104886747D01*
X67871107Y-104872133D01*
X67892151Y-104859520D01*
X67914329Y-104849030D01*
X67937429Y-104840765D01*
X67961227Y-104834804D01*
X67985496Y-104831204D01*
X68010000Y-104830000D01*
X69310000Y-104830000D01*
X69334504Y-104831204D01*
X69334504Y-104831204D01*
G37*
D15*
X68660000Y-105330000D03*
D12*
G36*
X79334504Y-102831204D02*
X79358773Y-102834804D01*
X79382571Y-102840765D01*
X79405671Y-102849030D01*
X79427849Y-102859520D01*
X79448893Y-102872133D01*
X79468598Y-102886747D01*
X79486777Y-102903223D01*
X79503253Y-102921402D01*
X79517867Y-102941107D01*
X79530480Y-102962151D01*
X79540970Y-102984329D01*
X79549235Y-103007429D01*
X79555196Y-103031227D01*
X79558796Y-103055496D01*
X79560000Y-103080000D01*
X79560000Y-103580000D01*
X79558796Y-103604504D01*
X79555196Y-103628773D01*
X79549235Y-103652571D01*
X79540970Y-103675671D01*
X79530480Y-103697849D01*
X79517867Y-103718893D01*
X79503253Y-103738598D01*
X79486777Y-103756777D01*
X79468598Y-103773253D01*
X79448893Y-103787867D01*
X79427849Y-103800480D01*
X79405671Y-103810970D01*
X79382571Y-103819235D01*
X79358773Y-103825196D01*
X79334504Y-103828796D01*
X79310000Y-103830000D01*
X78010000Y-103830000D01*
X77985496Y-103828796D01*
X77961227Y-103825196D01*
X77937429Y-103819235D01*
X77914329Y-103810970D01*
X77892151Y-103800480D01*
X77871107Y-103787867D01*
X77851402Y-103773253D01*
X77833223Y-103756777D01*
X77816747Y-103738598D01*
X77802133Y-103718893D01*
X77789520Y-103697849D01*
X77779030Y-103675671D01*
X77770765Y-103652571D01*
X77764804Y-103628773D01*
X77761204Y-103604504D01*
X77760000Y-103580000D01*
X77760000Y-103080000D01*
X77761204Y-103055496D01*
X77764804Y-103031227D01*
X77770765Y-103007429D01*
X77779030Y-102984329D01*
X77789520Y-102962151D01*
X77802133Y-102941107D01*
X77816747Y-102921402D01*
X77833223Y-102903223D01*
X77851402Y-102886747D01*
X77871107Y-102872133D01*
X77892151Y-102859520D01*
X77914329Y-102849030D01*
X77937429Y-102840765D01*
X77961227Y-102834804D01*
X77985496Y-102831204D01*
X78010000Y-102830000D01*
X79310000Y-102830000D01*
X79334504Y-102831204D01*
X79334504Y-102831204D01*
G37*
D15*
X78660000Y-103330000D03*
D12*
G36*
X79334504Y-100831204D02*
X79358773Y-100834804D01*
X79382571Y-100840765D01*
X79405671Y-100849030D01*
X79427849Y-100859520D01*
X79448893Y-100872133D01*
X79468598Y-100886747D01*
X79486777Y-100903223D01*
X79503253Y-100921402D01*
X79517867Y-100941107D01*
X79530480Y-100962151D01*
X79540970Y-100984329D01*
X79549235Y-101007429D01*
X79555196Y-101031227D01*
X79558796Y-101055496D01*
X79560000Y-101080000D01*
X79560000Y-101580000D01*
X79558796Y-101604504D01*
X79555196Y-101628773D01*
X79549235Y-101652571D01*
X79540970Y-101675671D01*
X79530480Y-101697849D01*
X79517867Y-101718893D01*
X79503253Y-101738598D01*
X79486777Y-101756777D01*
X79468598Y-101773253D01*
X79448893Y-101787867D01*
X79427849Y-101800480D01*
X79405671Y-101810970D01*
X79382571Y-101819235D01*
X79358773Y-101825196D01*
X79334504Y-101828796D01*
X79310000Y-101830000D01*
X78010000Y-101830000D01*
X77985496Y-101828796D01*
X77961227Y-101825196D01*
X77937429Y-101819235D01*
X77914329Y-101810970D01*
X77892151Y-101800480D01*
X77871107Y-101787867D01*
X77851402Y-101773253D01*
X77833223Y-101756777D01*
X77816747Y-101738598D01*
X77802133Y-101718893D01*
X77789520Y-101697849D01*
X77779030Y-101675671D01*
X77770765Y-101652571D01*
X77764804Y-101628773D01*
X77761204Y-101604504D01*
X77760000Y-101580000D01*
X77760000Y-101080000D01*
X77761204Y-101055496D01*
X77764804Y-101031227D01*
X77770765Y-101007429D01*
X77779030Y-100984329D01*
X77789520Y-100962151D01*
X77802133Y-100941107D01*
X77816747Y-100921402D01*
X77833223Y-100903223D01*
X77851402Y-100886747D01*
X77871107Y-100872133D01*
X77892151Y-100859520D01*
X77914329Y-100849030D01*
X77937429Y-100840765D01*
X77961227Y-100834804D01*
X77985496Y-100831204D01*
X78010000Y-100830000D01*
X79310000Y-100830000D01*
X79334504Y-100831204D01*
X79334504Y-100831204D01*
G37*
D15*
X78660000Y-101330000D03*
D12*
G36*
X79334504Y-104831204D02*
X79358773Y-104834804D01*
X79382571Y-104840765D01*
X79405671Y-104849030D01*
X79427849Y-104859520D01*
X79448893Y-104872133D01*
X79468598Y-104886747D01*
X79486777Y-104903223D01*
X79503253Y-104921402D01*
X79517867Y-104941107D01*
X79530480Y-104962151D01*
X79540970Y-104984329D01*
X79549235Y-105007429D01*
X79555196Y-105031227D01*
X79558796Y-105055496D01*
X79560000Y-105080000D01*
X79560000Y-105580000D01*
X79558796Y-105604504D01*
X79555196Y-105628773D01*
X79549235Y-105652571D01*
X79540970Y-105675671D01*
X79530480Y-105697849D01*
X79517867Y-105718893D01*
X79503253Y-105738598D01*
X79486777Y-105756777D01*
X79468598Y-105773253D01*
X79448893Y-105787867D01*
X79427849Y-105800480D01*
X79405671Y-105810970D01*
X79382571Y-105819235D01*
X79358773Y-105825196D01*
X79334504Y-105828796D01*
X79310000Y-105830000D01*
X78010000Y-105830000D01*
X77985496Y-105828796D01*
X77961227Y-105825196D01*
X77937429Y-105819235D01*
X77914329Y-105810970D01*
X77892151Y-105800480D01*
X77871107Y-105787867D01*
X77851402Y-105773253D01*
X77833223Y-105756777D01*
X77816747Y-105738598D01*
X77802133Y-105718893D01*
X77789520Y-105697849D01*
X77779030Y-105675671D01*
X77770765Y-105652571D01*
X77764804Y-105628773D01*
X77761204Y-105604504D01*
X77760000Y-105580000D01*
X77760000Y-105080000D01*
X77761204Y-105055496D01*
X77764804Y-105031227D01*
X77770765Y-105007429D01*
X77779030Y-104984329D01*
X77789520Y-104962151D01*
X77802133Y-104941107D01*
X77816747Y-104921402D01*
X77833223Y-104903223D01*
X77851402Y-104886747D01*
X77871107Y-104872133D01*
X77892151Y-104859520D01*
X77914329Y-104849030D01*
X77937429Y-104840765D01*
X77961227Y-104834804D01*
X77985496Y-104831204D01*
X78010000Y-104830000D01*
X79310000Y-104830000D01*
X79334504Y-104831204D01*
X79334504Y-104831204D01*
G37*
D15*
X78660000Y-105330000D03*
D12*
G36*
X79334504Y-96831204D02*
X79358773Y-96834804D01*
X79382571Y-96840765D01*
X79405671Y-96849030D01*
X79427849Y-96859520D01*
X79448893Y-96872133D01*
X79468598Y-96886747D01*
X79486777Y-96903223D01*
X79503253Y-96921402D01*
X79517867Y-96941107D01*
X79530480Y-96962151D01*
X79540970Y-96984329D01*
X79549235Y-97007429D01*
X79555196Y-97031227D01*
X79558796Y-97055496D01*
X79560000Y-97080000D01*
X79560000Y-97580000D01*
X79558796Y-97604504D01*
X79555196Y-97628773D01*
X79549235Y-97652571D01*
X79540970Y-97675671D01*
X79530480Y-97697849D01*
X79517867Y-97718893D01*
X79503253Y-97738598D01*
X79486777Y-97756777D01*
X79468598Y-97773253D01*
X79448893Y-97787867D01*
X79427849Y-97800480D01*
X79405671Y-97810970D01*
X79382571Y-97819235D01*
X79358773Y-97825196D01*
X79334504Y-97828796D01*
X79310000Y-97830000D01*
X78010000Y-97830000D01*
X77985496Y-97828796D01*
X77961227Y-97825196D01*
X77937429Y-97819235D01*
X77914329Y-97810970D01*
X77892151Y-97800480D01*
X77871107Y-97787867D01*
X77851402Y-97773253D01*
X77833223Y-97756777D01*
X77816747Y-97738598D01*
X77802133Y-97718893D01*
X77789520Y-97697849D01*
X77779030Y-97675671D01*
X77770765Y-97652571D01*
X77764804Y-97628773D01*
X77761204Y-97604504D01*
X77760000Y-97580000D01*
X77760000Y-97080000D01*
X77761204Y-97055496D01*
X77764804Y-97031227D01*
X77770765Y-97007429D01*
X77779030Y-96984329D01*
X77789520Y-96962151D01*
X77802133Y-96941107D01*
X77816747Y-96921402D01*
X77833223Y-96903223D01*
X77851402Y-96886747D01*
X77871107Y-96872133D01*
X77892151Y-96859520D01*
X77914329Y-96849030D01*
X77937429Y-96840765D01*
X77961227Y-96834804D01*
X77985496Y-96831204D01*
X78010000Y-96830000D01*
X79310000Y-96830000D01*
X79334504Y-96831204D01*
X79334504Y-96831204D01*
G37*
D15*
X78660000Y-97330000D03*
D12*
G36*
X79334504Y-98831204D02*
X79358773Y-98834804D01*
X79382571Y-98840765D01*
X79405671Y-98849030D01*
X79427849Y-98859520D01*
X79448893Y-98872133D01*
X79468598Y-98886747D01*
X79486777Y-98903223D01*
X79503253Y-98921402D01*
X79517867Y-98941107D01*
X79530480Y-98962151D01*
X79540970Y-98984329D01*
X79549235Y-99007429D01*
X79555196Y-99031227D01*
X79558796Y-99055496D01*
X79560000Y-99080000D01*
X79560000Y-99580000D01*
X79558796Y-99604504D01*
X79555196Y-99628773D01*
X79549235Y-99652571D01*
X79540970Y-99675671D01*
X79530480Y-99697849D01*
X79517867Y-99718893D01*
X79503253Y-99738598D01*
X79486777Y-99756777D01*
X79468598Y-99773253D01*
X79448893Y-99787867D01*
X79427849Y-99800480D01*
X79405671Y-99810970D01*
X79382571Y-99819235D01*
X79358773Y-99825196D01*
X79334504Y-99828796D01*
X79310000Y-99830000D01*
X78010000Y-99830000D01*
X77985496Y-99828796D01*
X77961227Y-99825196D01*
X77937429Y-99819235D01*
X77914329Y-99810970D01*
X77892151Y-99800480D01*
X77871107Y-99787867D01*
X77851402Y-99773253D01*
X77833223Y-99756777D01*
X77816747Y-99738598D01*
X77802133Y-99718893D01*
X77789520Y-99697849D01*
X77779030Y-99675671D01*
X77770765Y-99652571D01*
X77764804Y-99628773D01*
X77761204Y-99604504D01*
X77760000Y-99580000D01*
X77760000Y-99080000D01*
X77761204Y-99055496D01*
X77764804Y-99031227D01*
X77770765Y-99007429D01*
X77779030Y-98984329D01*
X77789520Y-98962151D01*
X77802133Y-98941107D01*
X77816747Y-98921402D01*
X77833223Y-98903223D01*
X77851402Y-98886747D01*
X77871107Y-98872133D01*
X77892151Y-98859520D01*
X77914329Y-98849030D01*
X77937429Y-98840765D01*
X77961227Y-98834804D01*
X77985496Y-98831204D01*
X78010000Y-98830000D01*
X79310000Y-98830000D01*
X79334504Y-98831204D01*
X79334504Y-98831204D01*
G37*
D15*
X78660000Y-99330000D03*
D12*
G36*
X79334504Y-94831204D02*
X79358773Y-94834804D01*
X79382571Y-94840765D01*
X79405671Y-94849030D01*
X79427849Y-94859520D01*
X79448893Y-94872133D01*
X79468598Y-94886747D01*
X79486777Y-94903223D01*
X79503253Y-94921402D01*
X79517867Y-94941107D01*
X79530480Y-94962151D01*
X79540970Y-94984329D01*
X79549235Y-95007429D01*
X79555196Y-95031227D01*
X79558796Y-95055496D01*
X79560000Y-95080000D01*
X79560000Y-95580000D01*
X79558796Y-95604504D01*
X79555196Y-95628773D01*
X79549235Y-95652571D01*
X79540970Y-95675671D01*
X79530480Y-95697849D01*
X79517867Y-95718893D01*
X79503253Y-95738598D01*
X79486777Y-95756777D01*
X79468598Y-95773253D01*
X79448893Y-95787867D01*
X79427849Y-95800480D01*
X79405671Y-95810970D01*
X79382571Y-95819235D01*
X79358773Y-95825196D01*
X79334504Y-95828796D01*
X79310000Y-95830000D01*
X78010000Y-95830000D01*
X77985496Y-95828796D01*
X77961227Y-95825196D01*
X77937429Y-95819235D01*
X77914329Y-95810970D01*
X77892151Y-95800480D01*
X77871107Y-95787867D01*
X77851402Y-95773253D01*
X77833223Y-95756777D01*
X77816747Y-95738598D01*
X77802133Y-95718893D01*
X77789520Y-95697849D01*
X77779030Y-95675671D01*
X77770765Y-95652571D01*
X77764804Y-95628773D01*
X77761204Y-95604504D01*
X77760000Y-95580000D01*
X77760000Y-95080000D01*
X77761204Y-95055496D01*
X77764804Y-95031227D01*
X77770765Y-95007429D01*
X77779030Y-94984329D01*
X77789520Y-94962151D01*
X77802133Y-94941107D01*
X77816747Y-94921402D01*
X77833223Y-94903223D01*
X77851402Y-94886747D01*
X77871107Y-94872133D01*
X77892151Y-94859520D01*
X77914329Y-94849030D01*
X77937429Y-94840765D01*
X77961227Y-94834804D01*
X77985496Y-94831204D01*
X78010000Y-94830000D01*
X79310000Y-94830000D01*
X79334504Y-94831204D01*
X79334504Y-94831204D01*
G37*
D15*
X78660000Y-95330000D03*
G04 #@! TD*
M02*
