G04 #@! TF.GenerationSoftware,KiCad,Pcbnew,(5.0.1)-3*
G04 #@! TF.CreationDate,2018-12-06T00:17:23+01:00*
G04 #@! TF.ProjectId,air602bob,616972363032626F622E6B696361645F,rev?*
G04 #@! TF.SameCoordinates,Original*
G04 #@! TF.FileFunction,Legend,Top*
G04 #@! TF.FilePolarity,Positive*
%FSLAX46Y46*%
G04 Gerber Fmt 4.6, Leading zero omitted, Abs format (unit mm)*
G04 Created by KiCad (PCBNEW (5.0.1)-3) date 06/12/2018 00:17:23*
%MOMM*%
%LPD*%
G01*
G04 APERTURE LIST*
%ADD10C,0.300000*%
%ADD11C,0.120000*%
%ADD12C,0.150000*%
%ADD13C,0.602000*%
%ADD14C,0.902000*%
%ADD15C,0.400000*%
%ADD16C,0.100000*%
%ADD17R,2.302000X1.152000*%
%ADD18R,1.102000X1.102000*%
%ADD19C,1.052000*%
%ADD20C,0.692000*%
%ADD21O,1.802000X1.802000*%
%ADD22R,1.802000X1.802000*%
%ADD23C,1.102000*%
G04 APERTURE END LIST*
D10*
X62687142Y-89023000D02*
X63401428Y-89023000D01*
X62544285Y-89451571D02*
X63044285Y-87951571D01*
X63544285Y-89451571D01*
X64044285Y-89451571D02*
X64044285Y-87951571D01*
X65615714Y-89451571D02*
X65115714Y-88737285D01*
X64758571Y-89451571D02*
X64758571Y-87951571D01*
X65330000Y-87951571D01*
X65472857Y-88023000D01*
X65544285Y-88094428D01*
X65615714Y-88237285D01*
X65615714Y-88451571D01*
X65544285Y-88594428D01*
X65472857Y-88665857D01*
X65330000Y-88737285D01*
X64758571Y-88737285D01*
X66901428Y-87951571D02*
X66615714Y-87951571D01*
X66472857Y-88023000D01*
X66401428Y-88094428D01*
X66258571Y-88308714D01*
X66187142Y-88594428D01*
X66187142Y-89165857D01*
X66258571Y-89308714D01*
X66330000Y-89380142D01*
X66472857Y-89451571D01*
X66758571Y-89451571D01*
X66901428Y-89380142D01*
X66972857Y-89308714D01*
X67044285Y-89165857D01*
X67044285Y-88808714D01*
X66972857Y-88665857D01*
X66901428Y-88594428D01*
X66758571Y-88523000D01*
X66472857Y-88523000D01*
X66330000Y-88594428D01*
X66258571Y-88665857D01*
X66187142Y-88808714D01*
X67972857Y-87951571D02*
X68115714Y-87951571D01*
X68258571Y-88023000D01*
X68330000Y-88094428D01*
X68401428Y-88237285D01*
X68472857Y-88523000D01*
X68472857Y-88880142D01*
X68401428Y-89165857D01*
X68330000Y-89308714D01*
X68258571Y-89380142D01*
X68115714Y-89451571D01*
X67972857Y-89451571D01*
X67830000Y-89380142D01*
X67758571Y-89308714D01*
X67687142Y-89165857D01*
X67615714Y-88880142D01*
X67615714Y-88523000D01*
X67687142Y-88237285D01*
X67758571Y-88094428D01*
X67830000Y-88023000D01*
X67972857Y-87951571D01*
X69044285Y-88094428D02*
X69115714Y-88023000D01*
X69258571Y-87951571D01*
X69615714Y-87951571D01*
X69758571Y-88023000D01*
X69830000Y-88094428D01*
X69901428Y-88237285D01*
X69901428Y-88380142D01*
X69830000Y-88594428D01*
X68972857Y-89451571D01*
X69901428Y-89451571D01*
X71044285Y-88665857D02*
X71258571Y-88737285D01*
X71330000Y-88808714D01*
X71401428Y-88951571D01*
X71401428Y-89165857D01*
X71330000Y-89308714D01*
X71258571Y-89380142D01*
X71115714Y-89451571D01*
X70544285Y-89451571D01*
X70544285Y-87951571D01*
X71044285Y-87951571D01*
X71187142Y-88023000D01*
X71258571Y-88094428D01*
X71330000Y-88237285D01*
X71330000Y-88380142D01*
X71258571Y-88523000D01*
X71187142Y-88594428D01*
X71044285Y-88665857D01*
X70544285Y-88665857D01*
X72330000Y-87951571D02*
X72615714Y-87951571D01*
X72758571Y-88023000D01*
X72901428Y-88165857D01*
X72972857Y-88451571D01*
X72972857Y-88951571D01*
X72901428Y-89237285D01*
X72758571Y-89380142D01*
X72615714Y-89451571D01*
X72330000Y-89451571D01*
X72187142Y-89380142D01*
X72044285Y-89237285D01*
X71972857Y-88951571D01*
X71972857Y-88451571D01*
X72044285Y-88165857D01*
X72187142Y-88023000D01*
X72330000Y-87951571D01*
X74115714Y-88665857D02*
X74330000Y-88737285D01*
X74401428Y-88808714D01*
X74472857Y-88951571D01*
X74472857Y-89165857D01*
X74401428Y-89308714D01*
X74330000Y-89380142D01*
X74187142Y-89451571D01*
X73615714Y-89451571D01*
X73615714Y-87951571D01*
X74115714Y-87951571D01*
X74258571Y-88023000D01*
X74330000Y-88094428D01*
X74401428Y-88237285D01*
X74401428Y-88380142D01*
X74330000Y-88523000D01*
X74258571Y-88594428D01*
X74115714Y-88665857D01*
X73615714Y-88665857D01*
D11*
G04 #@! TO.C,JP2*
X76743000Y-90416000D02*
X76743000Y-89416000D01*
X77043000Y-89116000D02*
X77643000Y-89116000D01*
X77943000Y-89416000D02*
X77943000Y-90416000D01*
X77643000Y-90716000D02*
X77043000Y-90716000D01*
X77043000Y-90716000D02*
G75*
G02X76743000Y-90416000I0J300000D01*
G01*
X77943000Y-90416000D02*
G75*
G02X77643000Y-90716000I-300000J0D01*
G01*
X77643000Y-89116000D02*
G75*
G02X77943000Y-89416000I0J-300000D01*
G01*
X76743000Y-89416000D02*
G75*
G02X77043000Y-89116000I300000J0D01*
G01*
G04 #@! TO.C,JP1*
X65267000Y-95850000D02*
G75*
G02X64967000Y-95550000I0J300000D01*
G01*
X64967000Y-94950000D02*
G75*
G02X65267000Y-94650000I300000J0D01*
G01*
X66267000Y-94650000D02*
G75*
G02X66567000Y-94950000I0J-300000D01*
G01*
X66567000Y-95550000D02*
G75*
G02X66267000Y-95850000I-300000J0D01*
G01*
X66567000Y-94950000D02*
X66567000Y-95550000D01*
X65267000Y-94650000D02*
X66267000Y-94650000D01*
X64967000Y-95550000D02*
X64967000Y-94950000D01*
X66267000Y-95850000D02*
X65267000Y-95850000D01*
G04 #@! TO.C,XA1*
X77748000Y-92140000D02*
X77248000Y-92140000D01*
X77748000Y-90740000D02*
X77248000Y-90740000D01*
X77748000Y-90740000D02*
X77748000Y-90140000D01*
X77748000Y-90140000D02*
X77948000Y-89940000D01*
X77948000Y-92940000D02*
X77748000Y-92940000D01*
X77748000Y-92940000D02*
X77748000Y-92140000D01*
X80748000Y-92140000D02*
X80748000Y-92940000D01*
X80748000Y-92940000D02*
X80548000Y-92940000D01*
X80548000Y-89940000D02*
X80748000Y-89940000D01*
X80748000Y-89940000D02*
X80748000Y-90740000D01*
G04 #@! TO.C,C3*
X65530000Y-100501267D02*
X65530000Y-100158733D01*
X66550000Y-100501267D02*
X66550000Y-100158733D01*
D12*
G04 #@! TO.C,U1*
X68660000Y-94330000D02*
X78660000Y-94330000D01*
X68660000Y-106480000D02*
X78660000Y-106480000D01*
X68660000Y-106480000D02*
X68660000Y-105980000D01*
X78660000Y-106480000D02*
X78660000Y-105980000D01*
X78660000Y-94330000D02*
X78660000Y-94680000D01*
X68660000Y-94330000D02*
X68660000Y-94680000D01*
X68660000Y-94680000D02*
X67860000Y-94680000D01*
G04 #@! TO.C,JP2*
X75271380Y-90495333D02*
X75985666Y-90495333D01*
X76128523Y-90542952D01*
X76223761Y-90638190D01*
X76271380Y-90781047D01*
X76271380Y-90876285D01*
X76271380Y-90019142D02*
X75271380Y-90019142D01*
X75271380Y-89638190D01*
X75319000Y-89542952D01*
X75366619Y-89495333D01*
X75461857Y-89447714D01*
X75604714Y-89447714D01*
X75699952Y-89495333D01*
X75747571Y-89542952D01*
X75795190Y-89638190D01*
X75795190Y-90019142D01*
X75366619Y-89066761D02*
X75319000Y-89019142D01*
X75271380Y-88923904D01*
X75271380Y-88685809D01*
X75319000Y-88590571D01*
X75366619Y-88542952D01*
X75461857Y-88495333D01*
X75557095Y-88495333D01*
X75699952Y-88542952D01*
X76271380Y-89114380D01*
X76271380Y-88495333D01*
G04 #@! TO.C,JP1*
X64679666Y-92652380D02*
X64679666Y-93366666D01*
X64632047Y-93509523D01*
X64536809Y-93604761D01*
X64393952Y-93652380D01*
X64298714Y-93652380D01*
X65155857Y-93652380D02*
X65155857Y-92652380D01*
X65536809Y-92652380D01*
X65632047Y-92700000D01*
X65679666Y-92747619D01*
X65727285Y-92842857D01*
X65727285Y-92985714D01*
X65679666Y-93080952D01*
X65632047Y-93128571D01*
X65536809Y-93176190D01*
X65155857Y-93176190D01*
X66679666Y-93652380D02*
X66108238Y-93652380D01*
X66393952Y-93652380D02*
X66393952Y-92652380D01*
X66298714Y-92795238D01*
X66203476Y-92890476D01*
X66108238Y-92938095D01*
G04 #@! TO.C,XA1*
X81113380Y-90646095D02*
X82113380Y-89979428D01*
X81113380Y-89979428D02*
X82113380Y-90646095D01*
X81827666Y-89646095D02*
X81827666Y-89169904D01*
X82113380Y-89741333D02*
X81113380Y-89408000D01*
X82113380Y-89074666D01*
X82113380Y-88217523D02*
X82113380Y-88788952D01*
X82113380Y-88503238D02*
X81113380Y-88503238D01*
X81256238Y-88598476D01*
X81351476Y-88693714D01*
X81399095Y-88788952D01*
G04 #@! TO.C,C3*
X66397142Y-103036666D02*
X66444761Y-103084285D01*
X66492380Y-103227142D01*
X66492380Y-103322380D01*
X66444761Y-103465238D01*
X66349523Y-103560476D01*
X66254285Y-103608095D01*
X66063809Y-103655714D01*
X65920952Y-103655714D01*
X65730476Y-103608095D01*
X65635238Y-103560476D01*
X65540000Y-103465238D01*
X65492380Y-103322380D01*
X65492380Y-103227142D01*
X65540000Y-103084285D01*
X65587619Y-103036666D01*
X65492380Y-102703333D02*
X65492380Y-102084285D01*
X65873333Y-102417619D01*
X65873333Y-102274761D01*
X65920952Y-102179523D01*
X65968571Y-102131904D01*
X66063809Y-102084285D01*
X66301904Y-102084285D01*
X66397142Y-102131904D01*
X66444761Y-102179523D01*
X66492380Y-102274761D01*
X66492380Y-102560476D01*
X66444761Y-102655714D01*
X66397142Y-102703333D01*
G04 #@! TO.C,C2*
X72249285Y-92787000D02*
X72277857Y-92815571D01*
X72306428Y-92901285D01*
X72306428Y-92958428D01*
X72277857Y-93044142D01*
X72220714Y-93101285D01*
X72163571Y-93129857D01*
X72049285Y-93158428D01*
X71963571Y-93158428D01*
X71849285Y-93129857D01*
X71792142Y-93101285D01*
X71735000Y-93044142D01*
X71706428Y-92958428D01*
X71706428Y-92901285D01*
X71735000Y-92815571D01*
X71763571Y-92787000D01*
X71763571Y-92558428D02*
X71735000Y-92529857D01*
X71706428Y-92472714D01*
X71706428Y-92329857D01*
X71735000Y-92272714D01*
X71763571Y-92244142D01*
X71820714Y-92215571D01*
X71877857Y-92215571D01*
X71963571Y-92244142D01*
X72306428Y-92587000D01*
X72306428Y-92215571D01*
G04 #@! TO.C,C1*
X75347285Y-92767000D02*
X75375857Y-92795571D01*
X75404428Y-92881285D01*
X75404428Y-92938428D01*
X75375857Y-93024142D01*
X75318714Y-93081285D01*
X75261571Y-93109857D01*
X75147285Y-93138428D01*
X75061571Y-93138428D01*
X74947285Y-93109857D01*
X74890142Y-93081285D01*
X74833000Y-93024142D01*
X74804428Y-92938428D01*
X74804428Y-92881285D01*
X74833000Y-92795571D01*
X74861571Y-92767000D01*
X75404428Y-92195571D02*
X75404428Y-92538428D01*
X75404428Y-92367000D02*
X74804428Y-92367000D01*
X74890142Y-92424142D01*
X74947285Y-92481285D01*
X74975857Y-92538428D01*
G04 #@! TO.C,J2*
X63166666Y-89832380D02*
X63166666Y-90546666D01*
X63119047Y-90689523D01*
X63023809Y-90784761D01*
X62880952Y-90832380D01*
X62785714Y-90832380D01*
X63595238Y-89927619D02*
X63642857Y-89880000D01*
X63738095Y-89832380D01*
X63976190Y-89832380D01*
X64071428Y-89880000D01*
X64119047Y-89927619D01*
X64166666Y-90022857D01*
X64166666Y-90118095D01*
X64119047Y-90260952D01*
X63547619Y-90832380D01*
X64166666Y-90832380D01*
G04 #@! TO.C,J1*
X83486666Y-89832380D02*
X83486666Y-90546666D01*
X83439047Y-90689523D01*
X83343809Y-90784761D01*
X83200952Y-90832380D01*
X83105714Y-90832380D01*
X84486666Y-90832380D02*
X83915238Y-90832380D01*
X84200952Y-90832380D02*
X84200952Y-89832380D01*
X84105714Y-89975238D01*
X84010476Y-90070476D01*
X83915238Y-90118095D01*
G04 #@! TO.C,L1*
X74627000Y-90681428D02*
X74341285Y-90681428D01*
X74341285Y-90081428D01*
X75141285Y-90681428D02*
X74798428Y-90681428D01*
X74969857Y-90681428D02*
X74969857Y-90081428D01*
X74912714Y-90167142D01*
X74855571Y-90224285D01*
X74798428Y-90252857D01*
G04 #@! TO.C,U1*
X69088095Y-92982380D02*
X69088095Y-93791904D01*
X69135714Y-93887142D01*
X69183333Y-93934761D01*
X69278571Y-93982380D01*
X69469047Y-93982380D01*
X69564285Y-93934761D01*
X69611904Y-93887142D01*
X69659523Y-93791904D01*
X69659523Y-92982380D01*
X70659523Y-93982380D02*
X70088095Y-93982380D01*
X70373809Y-93982380D02*
X70373809Y-92982380D01*
X70278571Y-93125238D01*
X70183333Y-93220476D01*
X70088095Y-93268095D01*
G04 #@! TD*
%LPC*%
D13*
G04 #@! TO.C,XA2*
X77343000Y-90678000D03*
D14*
X77343000Y-90678000D03*
G04 #@! TD*
D15*
G04 #@! TO.C,JP2*
X77345540Y-89516000D03*
D16*
G36*
X77795560Y-89825950D02*
X77792658Y-89835517D01*
X77787945Y-89844334D01*
X77781602Y-89852062D01*
X77773874Y-89858405D01*
X77765057Y-89863118D01*
X77755490Y-89866020D01*
X77745540Y-89867000D01*
X76945540Y-89867000D01*
X76935590Y-89866020D01*
X76926023Y-89863118D01*
X76917206Y-89858405D01*
X76909478Y-89852062D01*
X76903135Y-89844334D01*
X76898422Y-89835517D01*
X76895520Y-89825950D01*
X76894540Y-89816000D01*
X76894540Y-89516000D01*
X76894781Y-89513553D01*
X76894781Y-89506186D01*
X76895027Y-89501186D01*
X76896951Y-89481654D01*
X76897685Y-89476705D01*
X76901514Y-89457455D01*
X76902730Y-89452601D01*
X76908427Y-89433819D01*
X76910113Y-89429105D01*
X76917624Y-89410972D01*
X76919764Y-89406449D01*
X76929016Y-89389139D01*
X76931589Y-89384845D01*
X76942493Y-89368526D01*
X76945475Y-89364505D01*
X76957927Y-89349333D01*
X76961288Y-89345626D01*
X76975166Y-89331748D01*
X76978873Y-89328387D01*
X76994045Y-89315935D01*
X76998066Y-89312953D01*
X77014385Y-89302049D01*
X77018679Y-89299476D01*
X77035989Y-89290224D01*
X77040512Y-89288084D01*
X77058645Y-89280573D01*
X77063359Y-89278887D01*
X77082141Y-89273190D01*
X77086995Y-89271974D01*
X77106245Y-89268145D01*
X77111194Y-89267411D01*
X77130726Y-89265487D01*
X77135726Y-89265241D01*
X77143093Y-89265241D01*
X77145540Y-89265000D01*
X77545540Y-89265000D01*
X77547987Y-89265241D01*
X77555354Y-89265241D01*
X77560354Y-89265487D01*
X77579886Y-89267411D01*
X77584835Y-89268145D01*
X77604085Y-89271974D01*
X77608939Y-89273190D01*
X77627721Y-89278887D01*
X77632435Y-89280573D01*
X77650568Y-89288084D01*
X77655091Y-89290224D01*
X77672401Y-89299476D01*
X77676695Y-89302049D01*
X77693014Y-89312953D01*
X77697035Y-89315935D01*
X77712207Y-89328387D01*
X77715914Y-89331748D01*
X77729792Y-89345626D01*
X77733153Y-89349333D01*
X77745605Y-89364505D01*
X77748587Y-89368526D01*
X77759491Y-89384845D01*
X77762064Y-89389139D01*
X77771316Y-89406449D01*
X77773456Y-89410972D01*
X77780967Y-89429105D01*
X77782653Y-89433819D01*
X77788350Y-89452601D01*
X77789566Y-89457455D01*
X77793395Y-89476705D01*
X77794129Y-89481654D01*
X77796053Y-89501186D01*
X77796299Y-89506186D01*
X77796299Y-89513553D01*
X77796540Y-89516000D01*
X77796540Y-89816000D01*
X77795560Y-89825950D01*
X77795560Y-89825950D01*
G37*
D15*
X77343000Y-90316000D03*
D16*
G36*
X76892980Y-90006050D02*
X76895882Y-89996483D01*
X76900595Y-89987666D01*
X76906938Y-89979938D01*
X76914666Y-89973595D01*
X76923483Y-89968882D01*
X76933050Y-89965980D01*
X76943000Y-89965000D01*
X77743000Y-89965000D01*
X77752950Y-89965980D01*
X77762517Y-89968882D01*
X77771334Y-89973595D01*
X77779062Y-89979938D01*
X77785405Y-89987666D01*
X77790118Y-89996483D01*
X77793020Y-90006050D01*
X77794000Y-90016000D01*
X77794000Y-90316000D01*
X77793759Y-90318447D01*
X77793759Y-90325814D01*
X77793513Y-90330814D01*
X77791589Y-90350346D01*
X77790855Y-90355295D01*
X77787026Y-90374545D01*
X77785810Y-90379399D01*
X77780113Y-90398181D01*
X77778427Y-90402895D01*
X77770916Y-90421028D01*
X77768776Y-90425551D01*
X77759524Y-90442861D01*
X77756951Y-90447155D01*
X77746047Y-90463474D01*
X77743065Y-90467495D01*
X77730613Y-90482667D01*
X77727252Y-90486374D01*
X77713374Y-90500252D01*
X77709667Y-90503613D01*
X77694495Y-90516065D01*
X77690474Y-90519047D01*
X77674155Y-90529951D01*
X77669861Y-90532524D01*
X77652551Y-90541776D01*
X77648028Y-90543916D01*
X77629895Y-90551427D01*
X77625181Y-90553113D01*
X77606399Y-90558810D01*
X77601545Y-90560026D01*
X77582295Y-90563855D01*
X77577346Y-90564589D01*
X77557814Y-90566513D01*
X77552814Y-90566759D01*
X77545447Y-90566759D01*
X77543000Y-90567000D01*
X77143000Y-90567000D01*
X77140553Y-90566759D01*
X77133186Y-90566759D01*
X77128186Y-90566513D01*
X77108654Y-90564589D01*
X77103705Y-90563855D01*
X77084455Y-90560026D01*
X77079601Y-90558810D01*
X77060819Y-90553113D01*
X77056105Y-90551427D01*
X77037972Y-90543916D01*
X77033449Y-90541776D01*
X77016139Y-90532524D01*
X77011845Y-90529951D01*
X76995526Y-90519047D01*
X76991505Y-90516065D01*
X76976333Y-90503613D01*
X76972626Y-90500252D01*
X76958748Y-90486374D01*
X76955387Y-90482667D01*
X76942935Y-90467495D01*
X76939953Y-90463474D01*
X76929049Y-90447155D01*
X76926476Y-90442861D01*
X76917224Y-90425551D01*
X76915084Y-90421028D01*
X76907573Y-90402895D01*
X76905887Y-90398181D01*
X76900190Y-90379399D01*
X76898974Y-90374545D01*
X76895145Y-90355295D01*
X76894411Y-90350346D01*
X76892487Y-90330814D01*
X76892241Y-90325814D01*
X76892241Y-90318447D01*
X76892000Y-90316000D01*
X76892000Y-90016000D01*
X76892980Y-90006050D01*
X76892980Y-90006050D01*
G37*
G04 #@! TD*
D15*
G04 #@! TO.C,JP1*
X66167000Y-95250000D03*
D16*
G36*
X65857050Y-95700020D02*
X65847483Y-95697118D01*
X65838666Y-95692405D01*
X65830938Y-95686062D01*
X65824595Y-95678334D01*
X65819882Y-95669517D01*
X65816980Y-95659950D01*
X65816000Y-95650000D01*
X65816000Y-94850000D01*
X65816980Y-94840050D01*
X65819882Y-94830483D01*
X65824595Y-94821666D01*
X65830938Y-94813938D01*
X65838666Y-94807595D01*
X65847483Y-94802882D01*
X65857050Y-94799980D01*
X65867000Y-94799000D01*
X66167000Y-94799000D01*
X66169447Y-94799241D01*
X66176814Y-94799241D01*
X66181814Y-94799487D01*
X66201346Y-94801411D01*
X66206295Y-94802145D01*
X66225545Y-94805974D01*
X66230399Y-94807190D01*
X66249181Y-94812887D01*
X66253895Y-94814573D01*
X66272028Y-94822084D01*
X66276551Y-94824224D01*
X66293861Y-94833476D01*
X66298155Y-94836049D01*
X66314474Y-94846953D01*
X66318495Y-94849935D01*
X66333667Y-94862387D01*
X66337374Y-94865748D01*
X66351252Y-94879626D01*
X66354613Y-94883333D01*
X66367065Y-94898505D01*
X66370047Y-94902526D01*
X66380951Y-94918845D01*
X66383524Y-94923139D01*
X66392776Y-94940449D01*
X66394916Y-94944972D01*
X66402427Y-94963105D01*
X66404113Y-94967819D01*
X66409810Y-94986601D01*
X66411026Y-94991455D01*
X66414855Y-95010705D01*
X66415589Y-95015654D01*
X66417513Y-95035186D01*
X66417759Y-95040186D01*
X66417759Y-95047553D01*
X66418000Y-95050000D01*
X66418000Y-95450000D01*
X66417759Y-95452447D01*
X66417759Y-95459814D01*
X66417513Y-95464814D01*
X66415589Y-95484346D01*
X66414855Y-95489295D01*
X66411026Y-95508545D01*
X66409810Y-95513399D01*
X66404113Y-95532181D01*
X66402427Y-95536895D01*
X66394916Y-95555028D01*
X66392776Y-95559551D01*
X66383524Y-95576861D01*
X66380951Y-95581155D01*
X66370047Y-95597474D01*
X66367065Y-95601495D01*
X66354613Y-95616667D01*
X66351252Y-95620374D01*
X66337374Y-95634252D01*
X66333667Y-95637613D01*
X66318495Y-95650065D01*
X66314474Y-95653047D01*
X66298155Y-95663951D01*
X66293861Y-95666524D01*
X66276551Y-95675776D01*
X66272028Y-95677916D01*
X66253895Y-95685427D01*
X66249181Y-95687113D01*
X66230399Y-95692810D01*
X66225545Y-95694026D01*
X66206295Y-95697855D01*
X66201346Y-95698589D01*
X66181814Y-95700513D01*
X66176814Y-95700759D01*
X66169447Y-95700759D01*
X66167000Y-95701000D01*
X65867000Y-95701000D01*
X65857050Y-95700020D01*
X65857050Y-95700020D01*
G37*
D15*
X65367000Y-95247460D03*
D16*
G36*
X65676950Y-94797440D02*
X65686517Y-94800342D01*
X65695334Y-94805055D01*
X65703062Y-94811398D01*
X65709405Y-94819126D01*
X65714118Y-94827943D01*
X65717020Y-94837510D01*
X65718000Y-94847460D01*
X65718000Y-95647460D01*
X65717020Y-95657410D01*
X65714118Y-95666977D01*
X65709405Y-95675794D01*
X65703062Y-95683522D01*
X65695334Y-95689865D01*
X65686517Y-95694578D01*
X65676950Y-95697480D01*
X65667000Y-95698460D01*
X65367000Y-95698460D01*
X65364553Y-95698219D01*
X65357186Y-95698219D01*
X65352186Y-95697973D01*
X65332654Y-95696049D01*
X65327705Y-95695315D01*
X65308455Y-95691486D01*
X65303601Y-95690270D01*
X65284819Y-95684573D01*
X65280105Y-95682887D01*
X65261972Y-95675376D01*
X65257449Y-95673236D01*
X65240139Y-95663984D01*
X65235845Y-95661411D01*
X65219526Y-95650507D01*
X65215505Y-95647525D01*
X65200333Y-95635073D01*
X65196626Y-95631712D01*
X65182748Y-95617834D01*
X65179387Y-95614127D01*
X65166935Y-95598955D01*
X65163953Y-95594934D01*
X65153049Y-95578615D01*
X65150476Y-95574321D01*
X65141224Y-95557011D01*
X65139084Y-95552488D01*
X65131573Y-95534355D01*
X65129887Y-95529641D01*
X65124190Y-95510859D01*
X65122974Y-95506005D01*
X65119145Y-95486755D01*
X65118411Y-95481806D01*
X65116487Y-95462274D01*
X65116241Y-95457274D01*
X65116241Y-95449907D01*
X65116000Y-95447460D01*
X65116000Y-95047460D01*
X65116241Y-95045013D01*
X65116241Y-95037646D01*
X65116487Y-95032646D01*
X65118411Y-95013114D01*
X65119145Y-95008165D01*
X65122974Y-94988915D01*
X65124190Y-94984061D01*
X65129887Y-94965279D01*
X65131573Y-94960565D01*
X65139084Y-94942432D01*
X65141224Y-94937909D01*
X65150476Y-94920599D01*
X65153049Y-94916305D01*
X65163953Y-94899986D01*
X65166935Y-94895965D01*
X65179387Y-94880793D01*
X65182748Y-94877086D01*
X65196626Y-94863208D01*
X65200333Y-94859847D01*
X65215505Y-94847395D01*
X65219526Y-94844413D01*
X65235845Y-94833509D01*
X65240139Y-94830936D01*
X65257449Y-94821684D01*
X65261972Y-94819544D01*
X65280105Y-94812033D01*
X65284819Y-94810347D01*
X65303601Y-94804650D01*
X65308455Y-94803434D01*
X65327705Y-94799605D01*
X65332654Y-94798871D01*
X65352186Y-94796947D01*
X65357186Y-94796701D01*
X65364553Y-94796701D01*
X65367000Y-94796460D01*
X65667000Y-94796460D01*
X65676950Y-94797440D01*
X65676950Y-94797440D01*
G37*
G04 #@! TD*
D17*
G04 #@! TO.C,XA1*
X79248000Y-89965000D03*
X79248000Y-92915000D03*
D18*
X80748000Y-91440000D03*
X77748000Y-91440000D03*
G04 #@! TD*
D16*
G04 #@! TO.C,C3*
G36*
X66328779Y-100630266D02*
X66354309Y-100634053D01*
X66379345Y-100640325D01*
X66403646Y-100649020D01*
X66426977Y-100660055D01*
X66449115Y-100673323D01*
X66469845Y-100688698D01*
X66488969Y-100706031D01*
X66506302Y-100725155D01*
X66521677Y-100745885D01*
X66534945Y-100768023D01*
X66545980Y-100791354D01*
X66554675Y-100815655D01*
X66560947Y-100840691D01*
X66564734Y-100866221D01*
X66566000Y-100892000D01*
X66566000Y-101518000D01*
X66564734Y-101543779D01*
X66560947Y-101569309D01*
X66554675Y-101594345D01*
X66545980Y-101618646D01*
X66534945Y-101641977D01*
X66521677Y-101664115D01*
X66506302Y-101684845D01*
X66488969Y-101703969D01*
X66469845Y-101721302D01*
X66449115Y-101736677D01*
X66426977Y-101749945D01*
X66403646Y-101760980D01*
X66379345Y-101769675D01*
X66354309Y-101775947D01*
X66328779Y-101779734D01*
X66303000Y-101781000D01*
X65777000Y-101781000D01*
X65751221Y-101779734D01*
X65725691Y-101775947D01*
X65700655Y-101769675D01*
X65676354Y-101760980D01*
X65653023Y-101749945D01*
X65630885Y-101736677D01*
X65610155Y-101721302D01*
X65591031Y-101703969D01*
X65573698Y-101684845D01*
X65558323Y-101664115D01*
X65545055Y-101641977D01*
X65534020Y-101618646D01*
X65525325Y-101594345D01*
X65519053Y-101569309D01*
X65515266Y-101543779D01*
X65514000Y-101518000D01*
X65514000Y-100892000D01*
X65515266Y-100866221D01*
X65519053Y-100840691D01*
X65525325Y-100815655D01*
X65534020Y-100791354D01*
X65545055Y-100768023D01*
X65558323Y-100745885D01*
X65573698Y-100725155D01*
X65591031Y-100706031D01*
X65610155Y-100688698D01*
X65630885Y-100673323D01*
X65653023Y-100660055D01*
X65676354Y-100649020D01*
X65700655Y-100640325D01*
X65725691Y-100634053D01*
X65751221Y-100630266D01*
X65777000Y-100629000D01*
X66303000Y-100629000D01*
X66328779Y-100630266D01*
X66328779Y-100630266D01*
G37*
D19*
X66040000Y-101205000D03*
D16*
G36*
X66328779Y-98880266D02*
X66354309Y-98884053D01*
X66379345Y-98890325D01*
X66403646Y-98899020D01*
X66426977Y-98910055D01*
X66449115Y-98923323D01*
X66469845Y-98938698D01*
X66488969Y-98956031D01*
X66506302Y-98975155D01*
X66521677Y-98995885D01*
X66534945Y-99018023D01*
X66545980Y-99041354D01*
X66554675Y-99065655D01*
X66560947Y-99090691D01*
X66564734Y-99116221D01*
X66566000Y-99142000D01*
X66566000Y-99768000D01*
X66564734Y-99793779D01*
X66560947Y-99819309D01*
X66554675Y-99844345D01*
X66545980Y-99868646D01*
X66534945Y-99891977D01*
X66521677Y-99914115D01*
X66506302Y-99934845D01*
X66488969Y-99953969D01*
X66469845Y-99971302D01*
X66449115Y-99986677D01*
X66426977Y-99999945D01*
X66403646Y-100010980D01*
X66379345Y-100019675D01*
X66354309Y-100025947D01*
X66328779Y-100029734D01*
X66303000Y-100031000D01*
X65777000Y-100031000D01*
X65751221Y-100029734D01*
X65725691Y-100025947D01*
X65700655Y-100019675D01*
X65676354Y-100010980D01*
X65653023Y-99999945D01*
X65630885Y-99986677D01*
X65610155Y-99971302D01*
X65591031Y-99953969D01*
X65573698Y-99934845D01*
X65558323Y-99914115D01*
X65545055Y-99891977D01*
X65534020Y-99868646D01*
X65525325Y-99844345D01*
X65519053Y-99819309D01*
X65515266Y-99793779D01*
X65514000Y-99768000D01*
X65514000Y-99142000D01*
X65515266Y-99116221D01*
X65519053Y-99090691D01*
X65525325Y-99065655D01*
X65534020Y-99041354D01*
X65545055Y-99018023D01*
X65558323Y-98995885D01*
X65573698Y-98975155D01*
X65591031Y-98956031D01*
X65610155Y-98938698D01*
X65630885Y-98923323D01*
X65653023Y-98910055D01*
X65676354Y-98899020D01*
X65700655Y-98890325D01*
X65725691Y-98884053D01*
X65751221Y-98880266D01*
X65777000Y-98879000D01*
X66303000Y-98879000D01*
X66328779Y-98880266D01*
X66328779Y-98880266D01*
G37*
D19*
X66040000Y-99455000D03*
G04 #@! TD*
D16*
G04 #@! TO.C,C2*
G36*
X73239957Y-91371833D02*
X73256751Y-91374324D01*
X73273219Y-91378449D01*
X73289204Y-91384169D01*
X73304552Y-91391428D01*
X73319114Y-91400156D01*
X73332750Y-91410269D01*
X73345329Y-91421671D01*
X73356731Y-91434250D01*
X73366844Y-91447886D01*
X73375572Y-91462448D01*
X73382831Y-91477796D01*
X73388551Y-91493781D01*
X73392676Y-91510249D01*
X73395167Y-91527043D01*
X73396000Y-91544000D01*
X73396000Y-91890000D01*
X73395167Y-91906957D01*
X73392676Y-91923751D01*
X73388551Y-91940219D01*
X73382831Y-91956204D01*
X73375572Y-91971552D01*
X73366844Y-91986114D01*
X73356731Y-91999750D01*
X73345329Y-92012329D01*
X73332750Y-92023731D01*
X73319114Y-92033844D01*
X73304552Y-92042572D01*
X73289204Y-92049831D01*
X73273219Y-92055551D01*
X73256751Y-92059676D01*
X73239957Y-92062167D01*
X73223000Y-92063000D01*
X72827000Y-92063000D01*
X72810043Y-92062167D01*
X72793249Y-92059676D01*
X72776781Y-92055551D01*
X72760796Y-92049831D01*
X72745448Y-92042572D01*
X72730886Y-92033844D01*
X72717250Y-92023731D01*
X72704671Y-92012329D01*
X72693269Y-91999750D01*
X72683156Y-91986114D01*
X72674428Y-91971552D01*
X72667169Y-91956204D01*
X72661449Y-91940219D01*
X72657324Y-91923751D01*
X72654833Y-91906957D01*
X72654000Y-91890000D01*
X72654000Y-91544000D01*
X72654833Y-91527043D01*
X72657324Y-91510249D01*
X72661449Y-91493781D01*
X72667169Y-91477796D01*
X72674428Y-91462448D01*
X72683156Y-91447886D01*
X72693269Y-91434250D01*
X72704671Y-91421671D01*
X72717250Y-91410269D01*
X72730886Y-91400156D01*
X72745448Y-91391428D01*
X72760796Y-91384169D01*
X72776781Y-91378449D01*
X72793249Y-91374324D01*
X72810043Y-91371833D01*
X72827000Y-91371000D01*
X73223000Y-91371000D01*
X73239957Y-91371833D01*
X73239957Y-91371833D01*
G37*
D20*
X73025000Y-91717000D03*
D16*
G36*
X73239957Y-92341833D02*
X73256751Y-92344324D01*
X73273219Y-92348449D01*
X73289204Y-92354169D01*
X73304552Y-92361428D01*
X73319114Y-92370156D01*
X73332750Y-92380269D01*
X73345329Y-92391671D01*
X73356731Y-92404250D01*
X73366844Y-92417886D01*
X73375572Y-92432448D01*
X73382831Y-92447796D01*
X73388551Y-92463781D01*
X73392676Y-92480249D01*
X73395167Y-92497043D01*
X73396000Y-92514000D01*
X73396000Y-92860000D01*
X73395167Y-92876957D01*
X73392676Y-92893751D01*
X73388551Y-92910219D01*
X73382831Y-92926204D01*
X73375572Y-92941552D01*
X73366844Y-92956114D01*
X73356731Y-92969750D01*
X73345329Y-92982329D01*
X73332750Y-92993731D01*
X73319114Y-93003844D01*
X73304552Y-93012572D01*
X73289204Y-93019831D01*
X73273219Y-93025551D01*
X73256751Y-93029676D01*
X73239957Y-93032167D01*
X73223000Y-93033000D01*
X72827000Y-93033000D01*
X72810043Y-93032167D01*
X72793249Y-93029676D01*
X72776781Y-93025551D01*
X72760796Y-93019831D01*
X72745448Y-93012572D01*
X72730886Y-93003844D01*
X72717250Y-92993731D01*
X72704671Y-92982329D01*
X72693269Y-92969750D01*
X72683156Y-92956114D01*
X72674428Y-92941552D01*
X72667169Y-92926204D01*
X72661449Y-92910219D01*
X72657324Y-92893751D01*
X72654833Y-92876957D01*
X72654000Y-92860000D01*
X72654000Y-92514000D01*
X72654833Y-92497043D01*
X72657324Y-92480249D01*
X72661449Y-92463781D01*
X72667169Y-92447796D01*
X72674428Y-92432448D01*
X72683156Y-92417886D01*
X72693269Y-92404250D01*
X72704671Y-92391671D01*
X72717250Y-92380269D01*
X72730886Y-92370156D01*
X72745448Y-92361428D01*
X72760796Y-92354169D01*
X72776781Y-92348449D01*
X72793249Y-92344324D01*
X72810043Y-92341833D01*
X72827000Y-92341000D01*
X73223000Y-92341000D01*
X73239957Y-92341833D01*
X73239957Y-92341833D01*
G37*
D20*
X73025000Y-92687000D03*
G04 #@! TD*
D16*
G04 #@! TO.C,C1*
G36*
X76287957Y-92341833D02*
X76304751Y-92344324D01*
X76321219Y-92348449D01*
X76337204Y-92354169D01*
X76352552Y-92361428D01*
X76367114Y-92370156D01*
X76380750Y-92380269D01*
X76393329Y-92391671D01*
X76404731Y-92404250D01*
X76414844Y-92417886D01*
X76423572Y-92432448D01*
X76430831Y-92447796D01*
X76436551Y-92463781D01*
X76440676Y-92480249D01*
X76443167Y-92497043D01*
X76444000Y-92514000D01*
X76444000Y-92860000D01*
X76443167Y-92876957D01*
X76440676Y-92893751D01*
X76436551Y-92910219D01*
X76430831Y-92926204D01*
X76423572Y-92941552D01*
X76414844Y-92956114D01*
X76404731Y-92969750D01*
X76393329Y-92982329D01*
X76380750Y-92993731D01*
X76367114Y-93003844D01*
X76352552Y-93012572D01*
X76337204Y-93019831D01*
X76321219Y-93025551D01*
X76304751Y-93029676D01*
X76287957Y-93032167D01*
X76271000Y-93033000D01*
X75875000Y-93033000D01*
X75858043Y-93032167D01*
X75841249Y-93029676D01*
X75824781Y-93025551D01*
X75808796Y-93019831D01*
X75793448Y-93012572D01*
X75778886Y-93003844D01*
X75765250Y-92993731D01*
X75752671Y-92982329D01*
X75741269Y-92969750D01*
X75731156Y-92956114D01*
X75722428Y-92941552D01*
X75715169Y-92926204D01*
X75709449Y-92910219D01*
X75705324Y-92893751D01*
X75702833Y-92876957D01*
X75702000Y-92860000D01*
X75702000Y-92514000D01*
X75702833Y-92497043D01*
X75705324Y-92480249D01*
X75709449Y-92463781D01*
X75715169Y-92447796D01*
X75722428Y-92432448D01*
X75731156Y-92417886D01*
X75741269Y-92404250D01*
X75752671Y-92391671D01*
X75765250Y-92380269D01*
X75778886Y-92370156D01*
X75793448Y-92361428D01*
X75808796Y-92354169D01*
X75824781Y-92348449D01*
X75841249Y-92344324D01*
X75858043Y-92341833D01*
X75875000Y-92341000D01*
X76271000Y-92341000D01*
X76287957Y-92341833D01*
X76287957Y-92341833D01*
G37*
D20*
X76073000Y-92687000D03*
D16*
G36*
X76287957Y-91371833D02*
X76304751Y-91374324D01*
X76321219Y-91378449D01*
X76337204Y-91384169D01*
X76352552Y-91391428D01*
X76367114Y-91400156D01*
X76380750Y-91410269D01*
X76393329Y-91421671D01*
X76404731Y-91434250D01*
X76414844Y-91447886D01*
X76423572Y-91462448D01*
X76430831Y-91477796D01*
X76436551Y-91493781D01*
X76440676Y-91510249D01*
X76443167Y-91527043D01*
X76444000Y-91544000D01*
X76444000Y-91890000D01*
X76443167Y-91906957D01*
X76440676Y-91923751D01*
X76436551Y-91940219D01*
X76430831Y-91956204D01*
X76423572Y-91971552D01*
X76414844Y-91986114D01*
X76404731Y-91999750D01*
X76393329Y-92012329D01*
X76380750Y-92023731D01*
X76367114Y-92033844D01*
X76352552Y-92042572D01*
X76337204Y-92049831D01*
X76321219Y-92055551D01*
X76304751Y-92059676D01*
X76287957Y-92062167D01*
X76271000Y-92063000D01*
X75875000Y-92063000D01*
X75858043Y-92062167D01*
X75841249Y-92059676D01*
X75824781Y-92055551D01*
X75808796Y-92049831D01*
X75793448Y-92042572D01*
X75778886Y-92033844D01*
X75765250Y-92023731D01*
X75752671Y-92012329D01*
X75741269Y-91999750D01*
X75731156Y-91986114D01*
X75722428Y-91971552D01*
X75715169Y-91956204D01*
X75709449Y-91940219D01*
X75705324Y-91923751D01*
X75702833Y-91906957D01*
X75702000Y-91890000D01*
X75702000Y-91544000D01*
X75702833Y-91527043D01*
X75705324Y-91510249D01*
X75709449Y-91493781D01*
X75715169Y-91477796D01*
X75722428Y-91462448D01*
X75731156Y-91447886D01*
X75741269Y-91434250D01*
X75752671Y-91421671D01*
X75765250Y-91410269D01*
X75778886Y-91400156D01*
X75793448Y-91391428D01*
X75808796Y-91384169D01*
X75824781Y-91378449D01*
X75841249Y-91374324D01*
X75858043Y-91371833D01*
X75875000Y-91371000D01*
X76271000Y-91371000D01*
X76287957Y-91371833D01*
X76287957Y-91371833D01*
G37*
D20*
X76073000Y-91717000D03*
G04 #@! TD*
D21*
G04 #@! TO.C,J2*
X63500000Y-105410000D03*
X63500000Y-102870000D03*
X63500000Y-100330000D03*
X63500000Y-97790000D03*
X63500000Y-95250000D03*
D22*
X63500000Y-92710000D03*
G04 #@! TD*
G04 #@! TO.C,J1*
X83820000Y-92710000D03*
D21*
X83820000Y-95250000D03*
X83820000Y-97790000D03*
X83820000Y-100330000D03*
X83820000Y-102870000D03*
X83820000Y-105410000D03*
G04 #@! TD*
D16*
G04 #@! TO.C,L1*
G36*
X75246957Y-91069833D02*
X75263751Y-91072324D01*
X75280219Y-91076449D01*
X75296204Y-91082169D01*
X75311552Y-91089428D01*
X75326114Y-91098156D01*
X75339750Y-91108269D01*
X75352329Y-91119671D01*
X75363731Y-91132250D01*
X75373844Y-91145886D01*
X75382572Y-91160448D01*
X75389831Y-91175796D01*
X75395551Y-91191781D01*
X75399676Y-91208249D01*
X75402167Y-91225043D01*
X75403000Y-91242000D01*
X75403000Y-91638000D01*
X75402167Y-91654957D01*
X75399676Y-91671751D01*
X75395551Y-91688219D01*
X75389831Y-91704204D01*
X75382572Y-91719552D01*
X75373844Y-91734114D01*
X75363731Y-91747750D01*
X75352329Y-91760329D01*
X75339750Y-91771731D01*
X75326114Y-91781844D01*
X75311552Y-91790572D01*
X75296204Y-91797831D01*
X75280219Y-91803551D01*
X75263751Y-91807676D01*
X75246957Y-91810167D01*
X75230000Y-91811000D01*
X74884000Y-91811000D01*
X74867043Y-91810167D01*
X74850249Y-91807676D01*
X74833781Y-91803551D01*
X74817796Y-91797831D01*
X74802448Y-91790572D01*
X74787886Y-91781844D01*
X74774250Y-91771731D01*
X74761671Y-91760329D01*
X74750269Y-91747750D01*
X74740156Y-91734114D01*
X74731428Y-91719552D01*
X74724169Y-91704204D01*
X74718449Y-91688219D01*
X74714324Y-91671751D01*
X74711833Y-91654957D01*
X74711000Y-91638000D01*
X74711000Y-91242000D01*
X74711833Y-91225043D01*
X74714324Y-91208249D01*
X74718449Y-91191781D01*
X74724169Y-91175796D01*
X74731428Y-91160448D01*
X74740156Y-91145886D01*
X74750269Y-91132250D01*
X74761671Y-91119671D01*
X74774250Y-91108269D01*
X74787886Y-91098156D01*
X74802448Y-91089428D01*
X74817796Y-91082169D01*
X74833781Y-91076449D01*
X74850249Y-91072324D01*
X74867043Y-91069833D01*
X74884000Y-91069000D01*
X75230000Y-91069000D01*
X75246957Y-91069833D01*
X75246957Y-91069833D01*
G37*
D20*
X75057000Y-91440000D03*
D16*
G36*
X74276957Y-91069833D02*
X74293751Y-91072324D01*
X74310219Y-91076449D01*
X74326204Y-91082169D01*
X74341552Y-91089428D01*
X74356114Y-91098156D01*
X74369750Y-91108269D01*
X74382329Y-91119671D01*
X74393731Y-91132250D01*
X74403844Y-91145886D01*
X74412572Y-91160448D01*
X74419831Y-91175796D01*
X74425551Y-91191781D01*
X74429676Y-91208249D01*
X74432167Y-91225043D01*
X74433000Y-91242000D01*
X74433000Y-91638000D01*
X74432167Y-91654957D01*
X74429676Y-91671751D01*
X74425551Y-91688219D01*
X74419831Y-91704204D01*
X74412572Y-91719552D01*
X74403844Y-91734114D01*
X74393731Y-91747750D01*
X74382329Y-91760329D01*
X74369750Y-91771731D01*
X74356114Y-91781844D01*
X74341552Y-91790572D01*
X74326204Y-91797831D01*
X74310219Y-91803551D01*
X74293751Y-91807676D01*
X74276957Y-91810167D01*
X74260000Y-91811000D01*
X73914000Y-91811000D01*
X73897043Y-91810167D01*
X73880249Y-91807676D01*
X73863781Y-91803551D01*
X73847796Y-91797831D01*
X73832448Y-91790572D01*
X73817886Y-91781844D01*
X73804250Y-91771731D01*
X73791671Y-91760329D01*
X73780269Y-91747750D01*
X73770156Y-91734114D01*
X73761428Y-91719552D01*
X73754169Y-91704204D01*
X73748449Y-91688219D01*
X73744324Y-91671751D01*
X73741833Y-91654957D01*
X73741000Y-91638000D01*
X73741000Y-91242000D01*
X73741833Y-91225043D01*
X73744324Y-91208249D01*
X73748449Y-91191781D01*
X73754169Y-91175796D01*
X73761428Y-91160448D01*
X73770156Y-91145886D01*
X73780269Y-91132250D01*
X73791671Y-91119671D01*
X73804250Y-91108269D01*
X73817886Y-91098156D01*
X73832448Y-91089428D01*
X73847796Y-91082169D01*
X73863781Y-91076449D01*
X73880249Y-91072324D01*
X73897043Y-91069833D01*
X73914000Y-91069000D01*
X74260000Y-91069000D01*
X74276957Y-91069833D01*
X74276957Y-91069833D01*
G37*
D20*
X74087000Y-91440000D03*
G04 #@! TD*
D16*
G04 #@! TO.C,U1*
G36*
X69362504Y-94780327D02*
X69389247Y-94784294D01*
X69415473Y-94790863D01*
X69440929Y-94799971D01*
X69465370Y-94811531D01*
X69488560Y-94825430D01*
X69510275Y-94841536D01*
X69530308Y-94859692D01*
X69548464Y-94879725D01*
X69564570Y-94901440D01*
X69578469Y-94924630D01*
X69590029Y-94949071D01*
X69599137Y-94974527D01*
X69605706Y-95000753D01*
X69609673Y-95027496D01*
X69611000Y-95054500D01*
X69611000Y-95605500D01*
X69609673Y-95632504D01*
X69605706Y-95659247D01*
X69599137Y-95685473D01*
X69590029Y-95710929D01*
X69578469Y-95735370D01*
X69564570Y-95758560D01*
X69548464Y-95780275D01*
X69530308Y-95800308D01*
X69510275Y-95818464D01*
X69488560Y-95834570D01*
X69465370Y-95848469D01*
X69440929Y-95860029D01*
X69415473Y-95869137D01*
X69389247Y-95875706D01*
X69362504Y-95879673D01*
X69335500Y-95881000D01*
X67984500Y-95881000D01*
X67957496Y-95879673D01*
X67930753Y-95875706D01*
X67904527Y-95869137D01*
X67879071Y-95860029D01*
X67854630Y-95848469D01*
X67831440Y-95834570D01*
X67809725Y-95818464D01*
X67789692Y-95800308D01*
X67771536Y-95780275D01*
X67755430Y-95758560D01*
X67741531Y-95735370D01*
X67729971Y-95710929D01*
X67720863Y-95685473D01*
X67714294Y-95659247D01*
X67710327Y-95632504D01*
X67709000Y-95605500D01*
X67709000Y-95054500D01*
X67710327Y-95027496D01*
X67714294Y-95000753D01*
X67720863Y-94974527D01*
X67729971Y-94949071D01*
X67741531Y-94924630D01*
X67755430Y-94901440D01*
X67771536Y-94879725D01*
X67789692Y-94859692D01*
X67809725Y-94841536D01*
X67831440Y-94825430D01*
X67854630Y-94811531D01*
X67879071Y-94799971D01*
X67904527Y-94790863D01*
X67930753Y-94784294D01*
X67957496Y-94780327D01*
X67984500Y-94779000D01*
X69335500Y-94779000D01*
X69362504Y-94780327D01*
X69362504Y-94780327D01*
G37*
D23*
X68660000Y-95330000D03*
D16*
G36*
X69362504Y-96780327D02*
X69389247Y-96784294D01*
X69415473Y-96790863D01*
X69440929Y-96799971D01*
X69465370Y-96811531D01*
X69488560Y-96825430D01*
X69510275Y-96841536D01*
X69530308Y-96859692D01*
X69548464Y-96879725D01*
X69564570Y-96901440D01*
X69578469Y-96924630D01*
X69590029Y-96949071D01*
X69599137Y-96974527D01*
X69605706Y-97000753D01*
X69609673Y-97027496D01*
X69611000Y-97054500D01*
X69611000Y-97605500D01*
X69609673Y-97632504D01*
X69605706Y-97659247D01*
X69599137Y-97685473D01*
X69590029Y-97710929D01*
X69578469Y-97735370D01*
X69564570Y-97758560D01*
X69548464Y-97780275D01*
X69530308Y-97800308D01*
X69510275Y-97818464D01*
X69488560Y-97834570D01*
X69465370Y-97848469D01*
X69440929Y-97860029D01*
X69415473Y-97869137D01*
X69389247Y-97875706D01*
X69362504Y-97879673D01*
X69335500Y-97881000D01*
X67984500Y-97881000D01*
X67957496Y-97879673D01*
X67930753Y-97875706D01*
X67904527Y-97869137D01*
X67879071Y-97860029D01*
X67854630Y-97848469D01*
X67831440Y-97834570D01*
X67809725Y-97818464D01*
X67789692Y-97800308D01*
X67771536Y-97780275D01*
X67755430Y-97758560D01*
X67741531Y-97735370D01*
X67729971Y-97710929D01*
X67720863Y-97685473D01*
X67714294Y-97659247D01*
X67710327Y-97632504D01*
X67709000Y-97605500D01*
X67709000Y-97054500D01*
X67710327Y-97027496D01*
X67714294Y-97000753D01*
X67720863Y-96974527D01*
X67729971Y-96949071D01*
X67741531Y-96924630D01*
X67755430Y-96901440D01*
X67771536Y-96879725D01*
X67789692Y-96859692D01*
X67809725Y-96841536D01*
X67831440Y-96825430D01*
X67854630Y-96811531D01*
X67879071Y-96799971D01*
X67904527Y-96790863D01*
X67930753Y-96784294D01*
X67957496Y-96780327D01*
X67984500Y-96779000D01*
X69335500Y-96779000D01*
X69362504Y-96780327D01*
X69362504Y-96780327D01*
G37*
D23*
X68660000Y-97330000D03*
D16*
G36*
X69362504Y-98780327D02*
X69389247Y-98784294D01*
X69415473Y-98790863D01*
X69440929Y-98799971D01*
X69465370Y-98811531D01*
X69488560Y-98825430D01*
X69510275Y-98841536D01*
X69530308Y-98859692D01*
X69548464Y-98879725D01*
X69564570Y-98901440D01*
X69578469Y-98924630D01*
X69590029Y-98949071D01*
X69599137Y-98974527D01*
X69605706Y-99000753D01*
X69609673Y-99027496D01*
X69611000Y-99054500D01*
X69611000Y-99605500D01*
X69609673Y-99632504D01*
X69605706Y-99659247D01*
X69599137Y-99685473D01*
X69590029Y-99710929D01*
X69578469Y-99735370D01*
X69564570Y-99758560D01*
X69548464Y-99780275D01*
X69530308Y-99800308D01*
X69510275Y-99818464D01*
X69488560Y-99834570D01*
X69465370Y-99848469D01*
X69440929Y-99860029D01*
X69415473Y-99869137D01*
X69389247Y-99875706D01*
X69362504Y-99879673D01*
X69335500Y-99881000D01*
X67984500Y-99881000D01*
X67957496Y-99879673D01*
X67930753Y-99875706D01*
X67904527Y-99869137D01*
X67879071Y-99860029D01*
X67854630Y-99848469D01*
X67831440Y-99834570D01*
X67809725Y-99818464D01*
X67789692Y-99800308D01*
X67771536Y-99780275D01*
X67755430Y-99758560D01*
X67741531Y-99735370D01*
X67729971Y-99710929D01*
X67720863Y-99685473D01*
X67714294Y-99659247D01*
X67710327Y-99632504D01*
X67709000Y-99605500D01*
X67709000Y-99054500D01*
X67710327Y-99027496D01*
X67714294Y-99000753D01*
X67720863Y-98974527D01*
X67729971Y-98949071D01*
X67741531Y-98924630D01*
X67755430Y-98901440D01*
X67771536Y-98879725D01*
X67789692Y-98859692D01*
X67809725Y-98841536D01*
X67831440Y-98825430D01*
X67854630Y-98811531D01*
X67879071Y-98799971D01*
X67904527Y-98790863D01*
X67930753Y-98784294D01*
X67957496Y-98780327D01*
X67984500Y-98779000D01*
X69335500Y-98779000D01*
X69362504Y-98780327D01*
X69362504Y-98780327D01*
G37*
D23*
X68660000Y-99330000D03*
D16*
G36*
X69362504Y-100780327D02*
X69389247Y-100784294D01*
X69415473Y-100790863D01*
X69440929Y-100799971D01*
X69465370Y-100811531D01*
X69488560Y-100825430D01*
X69510275Y-100841536D01*
X69530308Y-100859692D01*
X69548464Y-100879725D01*
X69564570Y-100901440D01*
X69578469Y-100924630D01*
X69590029Y-100949071D01*
X69599137Y-100974527D01*
X69605706Y-101000753D01*
X69609673Y-101027496D01*
X69611000Y-101054500D01*
X69611000Y-101605500D01*
X69609673Y-101632504D01*
X69605706Y-101659247D01*
X69599137Y-101685473D01*
X69590029Y-101710929D01*
X69578469Y-101735370D01*
X69564570Y-101758560D01*
X69548464Y-101780275D01*
X69530308Y-101800308D01*
X69510275Y-101818464D01*
X69488560Y-101834570D01*
X69465370Y-101848469D01*
X69440929Y-101860029D01*
X69415473Y-101869137D01*
X69389247Y-101875706D01*
X69362504Y-101879673D01*
X69335500Y-101881000D01*
X67984500Y-101881000D01*
X67957496Y-101879673D01*
X67930753Y-101875706D01*
X67904527Y-101869137D01*
X67879071Y-101860029D01*
X67854630Y-101848469D01*
X67831440Y-101834570D01*
X67809725Y-101818464D01*
X67789692Y-101800308D01*
X67771536Y-101780275D01*
X67755430Y-101758560D01*
X67741531Y-101735370D01*
X67729971Y-101710929D01*
X67720863Y-101685473D01*
X67714294Y-101659247D01*
X67710327Y-101632504D01*
X67709000Y-101605500D01*
X67709000Y-101054500D01*
X67710327Y-101027496D01*
X67714294Y-101000753D01*
X67720863Y-100974527D01*
X67729971Y-100949071D01*
X67741531Y-100924630D01*
X67755430Y-100901440D01*
X67771536Y-100879725D01*
X67789692Y-100859692D01*
X67809725Y-100841536D01*
X67831440Y-100825430D01*
X67854630Y-100811531D01*
X67879071Y-100799971D01*
X67904527Y-100790863D01*
X67930753Y-100784294D01*
X67957496Y-100780327D01*
X67984500Y-100779000D01*
X69335500Y-100779000D01*
X69362504Y-100780327D01*
X69362504Y-100780327D01*
G37*
D23*
X68660000Y-101330000D03*
D16*
G36*
X69362504Y-102780327D02*
X69389247Y-102784294D01*
X69415473Y-102790863D01*
X69440929Y-102799971D01*
X69465370Y-102811531D01*
X69488560Y-102825430D01*
X69510275Y-102841536D01*
X69530308Y-102859692D01*
X69548464Y-102879725D01*
X69564570Y-102901440D01*
X69578469Y-102924630D01*
X69590029Y-102949071D01*
X69599137Y-102974527D01*
X69605706Y-103000753D01*
X69609673Y-103027496D01*
X69611000Y-103054500D01*
X69611000Y-103605500D01*
X69609673Y-103632504D01*
X69605706Y-103659247D01*
X69599137Y-103685473D01*
X69590029Y-103710929D01*
X69578469Y-103735370D01*
X69564570Y-103758560D01*
X69548464Y-103780275D01*
X69530308Y-103800308D01*
X69510275Y-103818464D01*
X69488560Y-103834570D01*
X69465370Y-103848469D01*
X69440929Y-103860029D01*
X69415473Y-103869137D01*
X69389247Y-103875706D01*
X69362504Y-103879673D01*
X69335500Y-103881000D01*
X67984500Y-103881000D01*
X67957496Y-103879673D01*
X67930753Y-103875706D01*
X67904527Y-103869137D01*
X67879071Y-103860029D01*
X67854630Y-103848469D01*
X67831440Y-103834570D01*
X67809725Y-103818464D01*
X67789692Y-103800308D01*
X67771536Y-103780275D01*
X67755430Y-103758560D01*
X67741531Y-103735370D01*
X67729971Y-103710929D01*
X67720863Y-103685473D01*
X67714294Y-103659247D01*
X67710327Y-103632504D01*
X67709000Y-103605500D01*
X67709000Y-103054500D01*
X67710327Y-103027496D01*
X67714294Y-103000753D01*
X67720863Y-102974527D01*
X67729971Y-102949071D01*
X67741531Y-102924630D01*
X67755430Y-102901440D01*
X67771536Y-102879725D01*
X67789692Y-102859692D01*
X67809725Y-102841536D01*
X67831440Y-102825430D01*
X67854630Y-102811531D01*
X67879071Y-102799971D01*
X67904527Y-102790863D01*
X67930753Y-102784294D01*
X67957496Y-102780327D01*
X67984500Y-102779000D01*
X69335500Y-102779000D01*
X69362504Y-102780327D01*
X69362504Y-102780327D01*
G37*
D23*
X68660000Y-103330000D03*
D16*
G36*
X69362504Y-104780327D02*
X69389247Y-104784294D01*
X69415473Y-104790863D01*
X69440929Y-104799971D01*
X69465370Y-104811531D01*
X69488560Y-104825430D01*
X69510275Y-104841536D01*
X69530308Y-104859692D01*
X69548464Y-104879725D01*
X69564570Y-104901440D01*
X69578469Y-104924630D01*
X69590029Y-104949071D01*
X69599137Y-104974527D01*
X69605706Y-105000753D01*
X69609673Y-105027496D01*
X69611000Y-105054500D01*
X69611000Y-105605500D01*
X69609673Y-105632504D01*
X69605706Y-105659247D01*
X69599137Y-105685473D01*
X69590029Y-105710929D01*
X69578469Y-105735370D01*
X69564570Y-105758560D01*
X69548464Y-105780275D01*
X69530308Y-105800308D01*
X69510275Y-105818464D01*
X69488560Y-105834570D01*
X69465370Y-105848469D01*
X69440929Y-105860029D01*
X69415473Y-105869137D01*
X69389247Y-105875706D01*
X69362504Y-105879673D01*
X69335500Y-105881000D01*
X67984500Y-105881000D01*
X67957496Y-105879673D01*
X67930753Y-105875706D01*
X67904527Y-105869137D01*
X67879071Y-105860029D01*
X67854630Y-105848469D01*
X67831440Y-105834570D01*
X67809725Y-105818464D01*
X67789692Y-105800308D01*
X67771536Y-105780275D01*
X67755430Y-105758560D01*
X67741531Y-105735370D01*
X67729971Y-105710929D01*
X67720863Y-105685473D01*
X67714294Y-105659247D01*
X67710327Y-105632504D01*
X67709000Y-105605500D01*
X67709000Y-105054500D01*
X67710327Y-105027496D01*
X67714294Y-105000753D01*
X67720863Y-104974527D01*
X67729971Y-104949071D01*
X67741531Y-104924630D01*
X67755430Y-104901440D01*
X67771536Y-104879725D01*
X67789692Y-104859692D01*
X67809725Y-104841536D01*
X67831440Y-104825430D01*
X67854630Y-104811531D01*
X67879071Y-104799971D01*
X67904527Y-104790863D01*
X67930753Y-104784294D01*
X67957496Y-104780327D01*
X67984500Y-104779000D01*
X69335500Y-104779000D01*
X69362504Y-104780327D01*
X69362504Y-104780327D01*
G37*
D23*
X68660000Y-105330000D03*
D16*
G36*
X79362504Y-102780327D02*
X79389247Y-102784294D01*
X79415473Y-102790863D01*
X79440929Y-102799971D01*
X79465370Y-102811531D01*
X79488560Y-102825430D01*
X79510275Y-102841536D01*
X79530308Y-102859692D01*
X79548464Y-102879725D01*
X79564570Y-102901440D01*
X79578469Y-102924630D01*
X79590029Y-102949071D01*
X79599137Y-102974527D01*
X79605706Y-103000753D01*
X79609673Y-103027496D01*
X79611000Y-103054500D01*
X79611000Y-103605500D01*
X79609673Y-103632504D01*
X79605706Y-103659247D01*
X79599137Y-103685473D01*
X79590029Y-103710929D01*
X79578469Y-103735370D01*
X79564570Y-103758560D01*
X79548464Y-103780275D01*
X79530308Y-103800308D01*
X79510275Y-103818464D01*
X79488560Y-103834570D01*
X79465370Y-103848469D01*
X79440929Y-103860029D01*
X79415473Y-103869137D01*
X79389247Y-103875706D01*
X79362504Y-103879673D01*
X79335500Y-103881000D01*
X77984500Y-103881000D01*
X77957496Y-103879673D01*
X77930753Y-103875706D01*
X77904527Y-103869137D01*
X77879071Y-103860029D01*
X77854630Y-103848469D01*
X77831440Y-103834570D01*
X77809725Y-103818464D01*
X77789692Y-103800308D01*
X77771536Y-103780275D01*
X77755430Y-103758560D01*
X77741531Y-103735370D01*
X77729971Y-103710929D01*
X77720863Y-103685473D01*
X77714294Y-103659247D01*
X77710327Y-103632504D01*
X77709000Y-103605500D01*
X77709000Y-103054500D01*
X77710327Y-103027496D01*
X77714294Y-103000753D01*
X77720863Y-102974527D01*
X77729971Y-102949071D01*
X77741531Y-102924630D01*
X77755430Y-102901440D01*
X77771536Y-102879725D01*
X77789692Y-102859692D01*
X77809725Y-102841536D01*
X77831440Y-102825430D01*
X77854630Y-102811531D01*
X77879071Y-102799971D01*
X77904527Y-102790863D01*
X77930753Y-102784294D01*
X77957496Y-102780327D01*
X77984500Y-102779000D01*
X79335500Y-102779000D01*
X79362504Y-102780327D01*
X79362504Y-102780327D01*
G37*
D23*
X78660000Y-103330000D03*
D16*
G36*
X79362504Y-100780327D02*
X79389247Y-100784294D01*
X79415473Y-100790863D01*
X79440929Y-100799971D01*
X79465370Y-100811531D01*
X79488560Y-100825430D01*
X79510275Y-100841536D01*
X79530308Y-100859692D01*
X79548464Y-100879725D01*
X79564570Y-100901440D01*
X79578469Y-100924630D01*
X79590029Y-100949071D01*
X79599137Y-100974527D01*
X79605706Y-101000753D01*
X79609673Y-101027496D01*
X79611000Y-101054500D01*
X79611000Y-101605500D01*
X79609673Y-101632504D01*
X79605706Y-101659247D01*
X79599137Y-101685473D01*
X79590029Y-101710929D01*
X79578469Y-101735370D01*
X79564570Y-101758560D01*
X79548464Y-101780275D01*
X79530308Y-101800308D01*
X79510275Y-101818464D01*
X79488560Y-101834570D01*
X79465370Y-101848469D01*
X79440929Y-101860029D01*
X79415473Y-101869137D01*
X79389247Y-101875706D01*
X79362504Y-101879673D01*
X79335500Y-101881000D01*
X77984500Y-101881000D01*
X77957496Y-101879673D01*
X77930753Y-101875706D01*
X77904527Y-101869137D01*
X77879071Y-101860029D01*
X77854630Y-101848469D01*
X77831440Y-101834570D01*
X77809725Y-101818464D01*
X77789692Y-101800308D01*
X77771536Y-101780275D01*
X77755430Y-101758560D01*
X77741531Y-101735370D01*
X77729971Y-101710929D01*
X77720863Y-101685473D01*
X77714294Y-101659247D01*
X77710327Y-101632504D01*
X77709000Y-101605500D01*
X77709000Y-101054500D01*
X77710327Y-101027496D01*
X77714294Y-101000753D01*
X77720863Y-100974527D01*
X77729971Y-100949071D01*
X77741531Y-100924630D01*
X77755430Y-100901440D01*
X77771536Y-100879725D01*
X77789692Y-100859692D01*
X77809725Y-100841536D01*
X77831440Y-100825430D01*
X77854630Y-100811531D01*
X77879071Y-100799971D01*
X77904527Y-100790863D01*
X77930753Y-100784294D01*
X77957496Y-100780327D01*
X77984500Y-100779000D01*
X79335500Y-100779000D01*
X79362504Y-100780327D01*
X79362504Y-100780327D01*
G37*
D23*
X78660000Y-101330000D03*
D16*
G36*
X79362504Y-104780327D02*
X79389247Y-104784294D01*
X79415473Y-104790863D01*
X79440929Y-104799971D01*
X79465370Y-104811531D01*
X79488560Y-104825430D01*
X79510275Y-104841536D01*
X79530308Y-104859692D01*
X79548464Y-104879725D01*
X79564570Y-104901440D01*
X79578469Y-104924630D01*
X79590029Y-104949071D01*
X79599137Y-104974527D01*
X79605706Y-105000753D01*
X79609673Y-105027496D01*
X79611000Y-105054500D01*
X79611000Y-105605500D01*
X79609673Y-105632504D01*
X79605706Y-105659247D01*
X79599137Y-105685473D01*
X79590029Y-105710929D01*
X79578469Y-105735370D01*
X79564570Y-105758560D01*
X79548464Y-105780275D01*
X79530308Y-105800308D01*
X79510275Y-105818464D01*
X79488560Y-105834570D01*
X79465370Y-105848469D01*
X79440929Y-105860029D01*
X79415473Y-105869137D01*
X79389247Y-105875706D01*
X79362504Y-105879673D01*
X79335500Y-105881000D01*
X77984500Y-105881000D01*
X77957496Y-105879673D01*
X77930753Y-105875706D01*
X77904527Y-105869137D01*
X77879071Y-105860029D01*
X77854630Y-105848469D01*
X77831440Y-105834570D01*
X77809725Y-105818464D01*
X77789692Y-105800308D01*
X77771536Y-105780275D01*
X77755430Y-105758560D01*
X77741531Y-105735370D01*
X77729971Y-105710929D01*
X77720863Y-105685473D01*
X77714294Y-105659247D01*
X77710327Y-105632504D01*
X77709000Y-105605500D01*
X77709000Y-105054500D01*
X77710327Y-105027496D01*
X77714294Y-105000753D01*
X77720863Y-104974527D01*
X77729971Y-104949071D01*
X77741531Y-104924630D01*
X77755430Y-104901440D01*
X77771536Y-104879725D01*
X77789692Y-104859692D01*
X77809725Y-104841536D01*
X77831440Y-104825430D01*
X77854630Y-104811531D01*
X77879071Y-104799971D01*
X77904527Y-104790863D01*
X77930753Y-104784294D01*
X77957496Y-104780327D01*
X77984500Y-104779000D01*
X79335500Y-104779000D01*
X79362504Y-104780327D01*
X79362504Y-104780327D01*
G37*
D23*
X78660000Y-105330000D03*
D16*
G36*
X79362504Y-96780327D02*
X79389247Y-96784294D01*
X79415473Y-96790863D01*
X79440929Y-96799971D01*
X79465370Y-96811531D01*
X79488560Y-96825430D01*
X79510275Y-96841536D01*
X79530308Y-96859692D01*
X79548464Y-96879725D01*
X79564570Y-96901440D01*
X79578469Y-96924630D01*
X79590029Y-96949071D01*
X79599137Y-96974527D01*
X79605706Y-97000753D01*
X79609673Y-97027496D01*
X79611000Y-97054500D01*
X79611000Y-97605500D01*
X79609673Y-97632504D01*
X79605706Y-97659247D01*
X79599137Y-97685473D01*
X79590029Y-97710929D01*
X79578469Y-97735370D01*
X79564570Y-97758560D01*
X79548464Y-97780275D01*
X79530308Y-97800308D01*
X79510275Y-97818464D01*
X79488560Y-97834570D01*
X79465370Y-97848469D01*
X79440929Y-97860029D01*
X79415473Y-97869137D01*
X79389247Y-97875706D01*
X79362504Y-97879673D01*
X79335500Y-97881000D01*
X77984500Y-97881000D01*
X77957496Y-97879673D01*
X77930753Y-97875706D01*
X77904527Y-97869137D01*
X77879071Y-97860029D01*
X77854630Y-97848469D01*
X77831440Y-97834570D01*
X77809725Y-97818464D01*
X77789692Y-97800308D01*
X77771536Y-97780275D01*
X77755430Y-97758560D01*
X77741531Y-97735370D01*
X77729971Y-97710929D01*
X77720863Y-97685473D01*
X77714294Y-97659247D01*
X77710327Y-97632504D01*
X77709000Y-97605500D01*
X77709000Y-97054500D01*
X77710327Y-97027496D01*
X77714294Y-97000753D01*
X77720863Y-96974527D01*
X77729971Y-96949071D01*
X77741531Y-96924630D01*
X77755430Y-96901440D01*
X77771536Y-96879725D01*
X77789692Y-96859692D01*
X77809725Y-96841536D01*
X77831440Y-96825430D01*
X77854630Y-96811531D01*
X77879071Y-96799971D01*
X77904527Y-96790863D01*
X77930753Y-96784294D01*
X77957496Y-96780327D01*
X77984500Y-96779000D01*
X79335500Y-96779000D01*
X79362504Y-96780327D01*
X79362504Y-96780327D01*
G37*
D23*
X78660000Y-97330000D03*
D16*
G36*
X79362504Y-98780327D02*
X79389247Y-98784294D01*
X79415473Y-98790863D01*
X79440929Y-98799971D01*
X79465370Y-98811531D01*
X79488560Y-98825430D01*
X79510275Y-98841536D01*
X79530308Y-98859692D01*
X79548464Y-98879725D01*
X79564570Y-98901440D01*
X79578469Y-98924630D01*
X79590029Y-98949071D01*
X79599137Y-98974527D01*
X79605706Y-99000753D01*
X79609673Y-99027496D01*
X79611000Y-99054500D01*
X79611000Y-99605500D01*
X79609673Y-99632504D01*
X79605706Y-99659247D01*
X79599137Y-99685473D01*
X79590029Y-99710929D01*
X79578469Y-99735370D01*
X79564570Y-99758560D01*
X79548464Y-99780275D01*
X79530308Y-99800308D01*
X79510275Y-99818464D01*
X79488560Y-99834570D01*
X79465370Y-99848469D01*
X79440929Y-99860029D01*
X79415473Y-99869137D01*
X79389247Y-99875706D01*
X79362504Y-99879673D01*
X79335500Y-99881000D01*
X77984500Y-99881000D01*
X77957496Y-99879673D01*
X77930753Y-99875706D01*
X77904527Y-99869137D01*
X77879071Y-99860029D01*
X77854630Y-99848469D01*
X77831440Y-99834570D01*
X77809725Y-99818464D01*
X77789692Y-99800308D01*
X77771536Y-99780275D01*
X77755430Y-99758560D01*
X77741531Y-99735370D01*
X77729971Y-99710929D01*
X77720863Y-99685473D01*
X77714294Y-99659247D01*
X77710327Y-99632504D01*
X77709000Y-99605500D01*
X77709000Y-99054500D01*
X77710327Y-99027496D01*
X77714294Y-99000753D01*
X77720863Y-98974527D01*
X77729971Y-98949071D01*
X77741531Y-98924630D01*
X77755430Y-98901440D01*
X77771536Y-98879725D01*
X77789692Y-98859692D01*
X77809725Y-98841536D01*
X77831440Y-98825430D01*
X77854630Y-98811531D01*
X77879071Y-98799971D01*
X77904527Y-98790863D01*
X77930753Y-98784294D01*
X77957496Y-98780327D01*
X77984500Y-98779000D01*
X79335500Y-98779000D01*
X79362504Y-98780327D01*
X79362504Y-98780327D01*
G37*
D23*
X78660000Y-99330000D03*
D16*
G36*
X79362504Y-94780327D02*
X79389247Y-94784294D01*
X79415473Y-94790863D01*
X79440929Y-94799971D01*
X79465370Y-94811531D01*
X79488560Y-94825430D01*
X79510275Y-94841536D01*
X79530308Y-94859692D01*
X79548464Y-94879725D01*
X79564570Y-94901440D01*
X79578469Y-94924630D01*
X79590029Y-94949071D01*
X79599137Y-94974527D01*
X79605706Y-95000753D01*
X79609673Y-95027496D01*
X79611000Y-95054500D01*
X79611000Y-95605500D01*
X79609673Y-95632504D01*
X79605706Y-95659247D01*
X79599137Y-95685473D01*
X79590029Y-95710929D01*
X79578469Y-95735370D01*
X79564570Y-95758560D01*
X79548464Y-95780275D01*
X79530308Y-95800308D01*
X79510275Y-95818464D01*
X79488560Y-95834570D01*
X79465370Y-95848469D01*
X79440929Y-95860029D01*
X79415473Y-95869137D01*
X79389247Y-95875706D01*
X79362504Y-95879673D01*
X79335500Y-95881000D01*
X77984500Y-95881000D01*
X77957496Y-95879673D01*
X77930753Y-95875706D01*
X77904527Y-95869137D01*
X77879071Y-95860029D01*
X77854630Y-95848469D01*
X77831440Y-95834570D01*
X77809725Y-95818464D01*
X77789692Y-95800308D01*
X77771536Y-95780275D01*
X77755430Y-95758560D01*
X77741531Y-95735370D01*
X77729971Y-95710929D01*
X77720863Y-95685473D01*
X77714294Y-95659247D01*
X77710327Y-95632504D01*
X77709000Y-95605500D01*
X77709000Y-95054500D01*
X77710327Y-95027496D01*
X77714294Y-95000753D01*
X77720863Y-94974527D01*
X77729971Y-94949071D01*
X77741531Y-94924630D01*
X77755430Y-94901440D01*
X77771536Y-94879725D01*
X77789692Y-94859692D01*
X77809725Y-94841536D01*
X77831440Y-94825430D01*
X77854630Y-94811531D01*
X77879071Y-94799971D01*
X77904527Y-94790863D01*
X77930753Y-94784294D01*
X77957496Y-94780327D01*
X77984500Y-94779000D01*
X79335500Y-94779000D01*
X79362504Y-94780327D01*
X79362504Y-94780327D01*
G37*
D23*
X78660000Y-95330000D03*
G04 #@! TD*
M02*
