G04 #@! TF.GenerationSoftware,KiCad,Pcbnew,(5.0.1)-3*
G04 #@! TF.CreationDate,2018-12-06T00:17:23+01:00*
G04 #@! TF.ProjectId,air602bob,616972363032626F622E6B696361645F,rev?*
G04 #@! TF.SameCoordinates,Original*
G04 #@! TF.FileFunction,Other,User*
%FSLAX46Y46*%
G04 Gerber Fmt 4.6, Leading zero omitted, Abs format (unit mm)*
G04 Created by KiCad (PCBNEW (5.0.1)-3) date 06/12/2018 00:17:23*
%MOMM*%
%LPD*%
G01*
G04 APERTURE LIST*
%ADD10C,0.050000*%
G04 APERTURE END LIST*
D10*
G04 #@! TO.C,JP2*
X78105000Y-88900000D02*
X78105000Y-90932000D01*
X78105000Y-88900000D02*
X76581000Y-88900000D01*
X76581000Y-90932000D02*
X78105000Y-90932000D01*
X76581000Y-90932000D02*
X76581000Y-88900000D01*
G04 #@! TO.C,JP1*
X66783000Y-96012000D02*
X64751000Y-96012000D01*
X66783000Y-96012000D02*
X66783000Y-94488000D01*
X64751000Y-94488000D02*
X64751000Y-96012000D01*
X64751000Y-94488000D02*
X66783000Y-94488000D01*
G04 #@! TO.C,XA1*
X81748000Y-88940000D02*
X76748000Y-88940000D01*
X76748000Y-88940000D02*
X76748000Y-93940000D01*
X76748000Y-93940000D02*
X81748000Y-93940000D01*
X81748000Y-93940000D02*
X81748000Y-88940000D01*
G04 #@! TO.C,C3*
X66770000Y-101980000D02*
X65310000Y-101980000D01*
X65310000Y-101980000D02*
X65310000Y-98680000D01*
X65310000Y-98680000D02*
X66770000Y-98680000D01*
X66770000Y-98680000D02*
X66770000Y-101980000D01*
G04 #@! TO.C,C2*
X73495000Y-91272000D02*
X73495000Y-93132000D01*
X72555000Y-91272000D02*
X73495000Y-91272000D01*
X72555000Y-93132000D02*
X72555000Y-91272000D01*
X73495000Y-93132000D02*
X72555000Y-93132000D01*
G04 #@! TO.C,C1*
X76543000Y-93132000D02*
X75603000Y-93132000D01*
X75603000Y-93132000D02*
X75603000Y-91272000D01*
X75603000Y-91272000D02*
X76543000Y-91272000D01*
X76543000Y-91272000D02*
X76543000Y-93132000D01*
G04 #@! TO.C,L1*
X75502000Y-90970000D02*
X75502000Y-91910000D01*
X75502000Y-91910000D02*
X73642000Y-91910000D01*
X73642000Y-91910000D02*
X73642000Y-90970000D01*
X73642000Y-90970000D02*
X75502000Y-90970000D01*
G04 #@! TO.C,ANT1*
X80543000Y-82230000D02*
X65043000Y-82230000D01*
X65043000Y-82230000D02*
X65043000Y-88180000D01*
X65043000Y-88180000D02*
X80543000Y-88180000D01*
X80543000Y-88180000D02*
X80543000Y-82230000D01*
G04 #@! TD*
M02*
