G04 #@! TF.GenerationSoftware,KiCad,Pcbnew,(5.0.1)-3*
G04 #@! TF.CreationDate,2018-12-06T00:17:23+01:00*
G04 #@! TF.ProjectId,air602bob,616972363032626F622E6B696361645F,rev?*
G04 #@! TF.SameCoordinates,Original*
G04 #@! TF.FileFunction,Other,Fab,Top*
%FSLAX46Y46*%
G04 Gerber Fmt 4.6, Leading zero omitted, Abs format (unit mm)*
G04 Created by KiCad (PCBNEW (5.0.1)-3) date 06/12/2018 00:17:23*
%MOMM*%
%LPD*%
G01*
G04 APERTURE LIST*
%ADD10C,0.100000*%
%ADD11C,0.150000*%
%ADD12C,0.120000*%
%ADD13C,0.060000*%
%ADD14C,0.040000*%
G04 APERTURE END LIST*
D10*
G04 #@! TO.C,XA1*
X78248000Y-91440000D02*
X77948000Y-91740000D01*
X77948000Y-91140000D02*
X78248000Y-91440000D01*
X79298000Y-91440000D02*
G75*
G03X79298000Y-91440000I-50000J0D01*
G01*
X79373000Y-91440000D02*
G75*
G03X79373000Y-91440000I-125000J0D01*
G01*
X80148000Y-91440000D02*
G75*
G03X80148000Y-91440000I-900000J0D01*
G01*
X80548000Y-90140000D02*
X80548000Y-92740000D01*
X80548000Y-90140000D02*
X78248000Y-90140000D01*
X78248000Y-90140000D02*
X77948000Y-90440000D01*
X80548000Y-92740000D02*
X77948000Y-92740000D01*
X77948000Y-90440000D02*
X77948000Y-92740000D01*
X79448000Y-91440000D02*
G75*
G03X79448000Y-91440000I-200000J0D01*
G01*
G04 #@! TO.C,C3*
X66440000Y-101130000D02*
X65640000Y-101130000D01*
X65640000Y-101130000D02*
X65640000Y-99530000D01*
X65640000Y-99530000D02*
X66440000Y-99530000D01*
X66440000Y-99530000D02*
X66440000Y-101130000D01*
G04 #@! TO.C,C2*
X73275000Y-91702000D02*
X73275000Y-92702000D01*
X72775000Y-91702000D02*
X73275000Y-91702000D01*
X72775000Y-92702000D02*
X72775000Y-91702000D01*
X73275000Y-92702000D02*
X72775000Y-92702000D01*
G04 #@! TO.C,C1*
X76323000Y-92702000D02*
X75823000Y-92702000D01*
X75823000Y-92702000D02*
X75823000Y-91702000D01*
X75823000Y-91702000D02*
X76323000Y-91702000D01*
X76323000Y-91702000D02*
X76323000Y-92702000D01*
G04 #@! TO.C,L1*
X75072000Y-91190000D02*
X75072000Y-91690000D01*
X75072000Y-91690000D02*
X74072000Y-91690000D01*
X74072000Y-91690000D02*
X74072000Y-91190000D01*
X74072000Y-91190000D02*
X75072000Y-91190000D01*
D11*
G04 #@! TO.C,ANT1*
X65043000Y-82230000D02*
X65043000Y-88180000D01*
X80543000Y-88180000D02*
X80543000Y-82230000D01*
X65043000Y-88180000D02*
X80543000Y-88180000D01*
X80543000Y-82230000D02*
X65043000Y-82230000D01*
D12*
G04 #@! TO.C,U1*
X68710000Y-94380000D02*
X68710000Y-106430000D01*
X68710000Y-106430000D02*
X78610000Y-106430000D01*
X78610000Y-106430000D02*
X78610000Y-94380000D01*
X78610000Y-94380000D02*
X68710000Y-94380000D01*
G04 #@! TD*
G04 #@! TO.C,XA2*
D11*
X73438238Y-88090380D02*
X73438238Y-87566571D01*
X73390619Y-87471333D01*
X73295380Y-87423714D01*
X73104904Y-87423714D01*
X73009666Y-87471333D01*
X73438238Y-88042761D02*
X73343000Y-88090380D01*
X73104904Y-88090380D01*
X73009666Y-88042761D01*
X72962047Y-87947523D01*
X72962047Y-87852285D01*
X73009666Y-87757047D01*
X73104904Y-87709428D01*
X73343000Y-87709428D01*
X73438238Y-87661809D01*
X73914428Y-87423714D02*
X73914428Y-88090380D01*
X73914428Y-87518952D02*
X73962047Y-87471333D01*
X74057285Y-87423714D01*
X74200142Y-87423714D01*
X74295380Y-87471333D01*
X74343000Y-87566571D01*
X74343000Y-88090380D01*
X74676333Y-87423714D02*
X75057285Y-87423714D01*
X74819190Y-87090380D02*
X74819190Y-87947523D01*
X74866809Y-88042761D01*
X74962047Y-88090380D01*
X75057285Y-88090380D01*
X75390619Y-87709428D02*
X76152523Y-87709428D01*
X76485857Y-87423714D02*
X76866809Y-87423714D01*
X76628714Y-87090380D02*
X76628714Y-87947523D01*
X76676333Y-88042761D01*
X76771571Y-88090380D01*
X76866809Y-88090380D01*
X77200142Y-88090380D02*
X77200142Y-87090380D01*
X77628714Y-88090380D02*
X77628714Y-87566571D01*
X77581095Y-87471333D01*
X77485857Y-87423714D01*
X77343000Y-87423714D01*
X77247761Y-87471333D01*
X77200142Y-87518952D01*
X77962047Y-87423714D02*
X78343000Y-87423714D01*
X78104904Y-87090380D02*
X78104904Y-87947523D01*
X78152523Y-88042761D01*
X78247761Y-88090380D01*
X78343000Y-88090380D01*
X78438238Y-88185619D02*
X79200142Y-88185619D01*
X79438238Y-87423714D02*
X79438238Y-88423714D01*
X79438238Y-87471333D02*
X79533476Y-87423714D01*
X79723952Y-87423714D01*
X79819190Y-87471333D01*
X79866809Y-87518952D01*
X79914428Y-87614190D01*
X79914428Y-87899904D01*
X79866809Y-87995142D01*
X79819190Y-88042761D01*
X79723952Y-88090380D01*
X79533476Y-88090380D01*
X79438238Y-88042761D01*
X80771571Y-88090380D02*
X80771571Y-87566571D01*
X80723952Y-87471333D01*
X80628714Y-87423714D01*
X80438238Y-87423714D01*
X80343000Y-87471333D01*
X80771571Y-88042761D02*
X80676333Y-88090380D01*
X80438238Y-88090380D01*
X80343000Y-88042761D01*
X80295380Y-87947523D01*
X80295380Y-87852285D01*
X80343000Y-87757047D01*
X80438238Y-87709428D01*
X80676333Y-87709428D01*
X80771571Y-87661809D01*
X81676333Y-88090380D02*
X81676333Y-87090380D01*
X81676333Y-88042761D02*
X81581095Y-88090380D01*
X81390619Y-88090380D01*
X81295380Y-88042761D01*
X81247761Y-87995142D01*
X81200142Y-87899904D01*
X81200142Y-87614190D01*
X81247761Y-87518952D01*
X81295380Y-87471333D01*
X81390619Y-87423714D01*
X81581095Y-87423714D01*
X81676333Y-87471333D01*
G04 #@! TO.C,JP2*
X79525761Y-97892190D02*
X79573380Y-97749333D01*
X79573380Y-97511238D01*
X79525761Y-97416000D01*
X79478142Y-97368380D01*
X79382904Y-97320761D01*
X79287666Y-97320761D01*
X79192428Y-97368380D01*
X79144809Y-97416000D01*
X79097190Y-97511238D01*
X79049571Y-97701714D01*
X79001952Y-97796952D01*
X78954333Y-97844571D01*
X78859095Y-97892190D01*
X78763857Y-97892190D01*
X78668619Y-97844571D01*
X78621000Y-97796952D01*
X78573380Y-97701714D01*
X78573380Y-97463619D01*
X78621000Y-97320761D01*
X79573380Y-96749333D02*
X79525761Y-96844571D01*
X79478142Y-96892190D01*
X79382904Y-96939809D01*
X79097190Y-96939809D01*
X79001952Y-96892190D01*
X78954333Y-96844571D01*
X78906714Y-96749333D01*
X78906714Y-96606476D01*
X78954333Y-96511238D01*
X79001952Y-96463619D01*
X79097190Y-96416000D01*
X79382904Y-96416000D01*
X79478142Y-96463619D01*
X79525761Y-96511238D01*
X79573380Y-96606476D01*
X79573380Y-96749333D01*
X79573380Y-95844571D02*
X79525761Y-95939809D01*
X79430523Y-95987428D01*
X78573380Y-95987428D01*
X79573380Y-95035047D02*
X78573380Y-95035047D01*
X79525761Y-95035047D02*
X79573380Y-95130285D01*
X79573380Y-95320761D01*
X79525761Y-95416000D01*
X79478142Y-95463619D01*
X79382904Y-95511238D01*
X79097190Y-95511238D01*
X79001952Y-95463619D01*
X78954333Y-95416000D01*
X78906714Y-95320761D01*
X78906714Y-95130285D01*
X78954333Y-95035047D01*
X79525761Y-94177904D02*
X79573380Y-94273142D01*
X79573380Y-94463619D01*
X79525761Y-94558857D01*
X79430523Y-94606476D01*
X79049571Y-94606476D01*
X78954333Y-94558857D01*
X78906714Y-94463619D01*
X78906714Y-94273142D01*
X78954333Y-94177904D01*
X79049571Y-94130285D01*
X79144809Y-94130285D01*
X79240047Y-94606476D01*
X79573380Y-93701714D02*
X78906714Y-93701714D01*
X79097190Y-93701714D02*
X79001952Y-93654095D01*
X78954333Y-93606476D01*
X78906714Y-93511238D01*
X78906714Y-93416000D01*
X78573380Y-92796952D02*
X79287666Y-92796952D01*
X79430523Y-92844571D01*
X79525761Y-92939809D01*
X79573380Y-93082666D01*
X79573380Y-93177904D01*
X78906714Y-91892190D02*
X79573380Y-91892190D01*
X78906714Y-92320761D02*
X79430523Y-92320761D01*
X79525761Y-92273142D01*
X79573380Y-92177904D01*
X79573380Y-92035047D01*
X79525761Y-91939809D01*
X79478142Y-91892190D01*
X79573380Y-91416000D02*
X78906714Y-91416000D01*
X79001952Y-91416000D02*
X78954333Y-91368380D01*
X78906714Y-91273142D01*
X78906714Y-91130285D01*
X78954333Y-91035047D01*
X79049571Y-90987428D01*
X79573380Y-90987428D01*
X79049571Y-90987428D02*
X78954333Y-90939809D01*
X78906714Y-90844571D01*
X78906714Y-90701714D01*
X78954333Y-90606476D01*
X79049571Y-90558857D01*
X79573380Y-90558857D01*
X78906714Y-90082666D02*
X79906714Y-90082666D01*
X78954333Y-90082666D02*
X78906714Y-89987428D01*
X78906714Y-89796952D01*
X78954333Y-89701714D01*
X79001952Y-89654095D01*
X79097190Y-89606476D01*
X79382904Y-89606476D01*
X79478142Y-89654095D01*
X79525761Y-89701714D01*
X79573380Y-89796952D01*
X79573380Y-89987428D01*
X79525761Y-90082666D01*
X79525761Y-88796952D02*
X79573380Y-88892190D01*
X79573380Y-89082666D01*
X79525761Y-89177904D01*
X79430523Y-89225523D01*
X79049571Y-89225523D01*
X78954333Y-89177904D01*
X78906714Y-89082666D01*
X78906714Y-88892190D01*
X78954333Y-88796952D01*
X79049571Y-88749333D01*
X79144809Y-88749333D01*
X79240047Y-89225523D01*
X79573380Y-88320761D02*
X78906714Y-88320761D01*
X79097190Y-88320761D02*
X79001952Y-88273142D01*
X78954333Y-88225523D01*
X78906714Y-88130285D01*
X78906714Y-88035047D01*
X79668619Y-87939809D02*
X79668619Y-87177904D01*
X78668619Y-86987428D02*
X78621000Y-86939809D01*
X78573380Y-86844571D01*
X78573380Y-86606476D01*
X78621000Y-86511238D01*
X78668619Y-86463619D01*
X78763857Y-86416000D01*
X78859095Y-86416000D01*
X79001952Y-86463619D01*
X79573380Y-87035047D01*
X79573380Y-86416000D01*
X79668619Y-86225523D02*
X79668619Y-85463619D01*
X78573380Y-85035047D02*
X78573380Y-84844571D01*
X78621000Y-84749333D01*
X78716238Y-84654095D01*
X78906714Y-84606476D01*
X79240047Y-84606476D01*
X79430523Y-84654095D01*
X79525761Y-84749333D01*
X79573380Y-84844571D01*
X79573380Y-85035047D01*
X79525761Y-85130285D01*
X79430523Y-85225523D01*
X79240047Y-85273142D01*
X78906714Y-85273142D01*
X78716238Y-85225523D01*
X78621000Y-85130285D01*
X78573380Y-85035047D01*
X78906714Y-84177904D02*
X79906714Y-84177904D01*
X78954333Y-84177904D02*
X78906714Y-84082666D01*
X78906714Y-83892190D01*
X78954333Y-83796952D01*
X79001952Y-83749333D01*
X79097190Y-83701714D01*
X79382904Y-83701714D01*
X79478142Y-83749333D01*
X79525761Y-83796952D01*
X79573380Y-83892190D01*
X79573380Y-84082666D01*
X79525761Y-84177904D01*
X79525761Y-82892190D02*
X79573380Y-82987428D01*
X79573380Y-83177904D01*
X79525761Y-83273142D01*
X79430523Y-83320761D01*
X79049571Y-83320761D01*
X78954333Y-83273142D01*
X78906714Y-83177904D01*
X78906714Y-82987428D01*
X78954333Y-82892190D01*
X79049571Y-82844571D01*
X79144809Y-82844571D01*
X79240047Y-83320761D01*
X78906714Y-82416000D02*
X79573380Y-82416000D01*
X79001952Y-82416000D02*
X78954333Y-82368380D01*
X78906714Y-82273142D01*
X78906714Y-82130285D01*
X78954333Y-82035047D01*
X79049571Y-81987428D01*
X79573380Y-81987428D01*
G04 #@! TO.C,JP1*
X57790809Y-93876761D02*
X57933666Y-93924380D01*
X58171761Y-93924380D01*
X58267000Y-93876761D01*
X58314619Y-93829142D01*
X58362238Y-93733904D01*
X58362238Y-93638666D01*
X58314619Y-93543428D01*
X58267000Y-93495809D01*
X58171761Y-93448190D01*
X57981285Y-93400571D01*
X57886047Y-93352952D01*
X57838428Y-93305333D01*
X57790809Y-93210095D01*
X57790809Y-93114857D01*
X57838428Y-93019619D01*
X57886047Y-92972000D01*
X57981285Y-92924380D01*
X58219380Y-92924380D01*
X58362238Y-92972000D01*
X58933666Y-93924380D02*
X58838428Y-93876761D01*
X58790809Y-93829142D01*
X58743190Y-93733904D01*
X58743190Y-93448190D01*
X58790809Y-93352952D01*
X58838428Y-93305333D01*
X58933666Y-93257714D01*
X59076523Y-93257714D01*
X59171761Y-93305333D01*
X59219380Y-93352952D01*
X59267000Y-93448190D01*
X59267000Y-93733904D01*
X59219380Y-93829142D01*
X59171761Y-93876761D01*
X59076523Y-93924380D01*
X58933666Y-93924380D01*
X59838428Y-93924380D02*
X59743190Y-93876761D01*
X59695571Y-93781523D01*
X59695571Y-92924380D01*
X60647952Y-93924380D02*
X60647952Y-92924380D01*
X60647952Y-93876761D02*
X60552714Y-93924380D01*
X60362238Y-93924380D01*
X60267000Y-93876761D01*
X60219380Y-93829142D01*
X60171761Y-93733904D01*
X60171761Y-93448190D01*
X60219380Y-93352952D01*
X60267000Y-93305333D01*
X60362238Y-93257714D01*
X60552714Y-93257714D01*
X60647952Y-93305333D01*
X61505095Y-93876761D02*
X61409857Y-93924380D01*
X61219380Y-93924380D01*
X61124142Y-93876761D01*
X61076523Y-93781523D01*
X61076523Y-93400571D01*
X61124142Y-93305333D01*
X61219380Y-93257714D01*
X61409857Y-93257714D01*
X61505095Y-93305333D01*
X61552714Y-93400571D01*
X61552714Y-93495809D01*
X61076523Y-93591047D01*
X61981285Y-93924380D02*
X61981285Y-93257714D01*
X61981285Y-93448190D02*
X62028904Y-93352952D01*
X62076523Y-93305333D01*
X62171761Y-93257714D01*
X62267000Y-93257714D01*
X62886047Y-92924380D02*
X62886047Y-93638666D01*
X62838428Y-93781523D01*
X62743190Y-93876761D01*
X62600333Y-93924380D01*
X62505095Y-93924380D01*
X63790809Y-93257714D02*
X63790809Y-93924380D01*
X63362238Y-93257714D02*
X63362238Y-93781523D01*
X63409857Y-93876761D01*
X63505095Y-93924380D01*
X63647952Y-93924380D01*
X63743190Y-93876761D01*
X63790809Y-93829142D01*
X64267000Y-93924380D02*
X64267000Y-93257714D01*
X64267000Y-93352952D02*
X64314619Y-93305333D01*
X64409857Y-93257714D01*
X64552714Y-93257714D01*
X64647952Y-93305333D01*
X64695571Y-93400571D01*
X64695571Y-93924380D01*
X64695571Y-93400571D02*
X64743190Y-93305333D01*
X64838428Y-93257714D01*
X64981285Y-93257714D01*
X65076523Y-93305333D01*
X65124142Y-93400571D01*
X65124142Y-93924380D01*
X65600333Y-93257714D02*
X65600333Y-94257714D01*
X65600333Y-93305333D02*
X65695571Y-93257714D01*
X65886047Y-93257714D01*
X65981285Y-93305333D01*
X66028904Y-93352952D01*
X66076523Y-93448190D01*
X66076523Y-93733904D01*
X66028904Y-93829142D01*
X65981285Y-93876761D01*
X65886047Y-93924380D01*
X65695571Y-93924380D01*
X65600333Y-93876761D01*
X66886047Y-93876761D02*
X66790809Y-93924380D01*
X66600333Y-93924380D01*
X66505095Y-93876761D01*
X66457476Y-93781523D01*
X66457476Y-93400571D01*
X66505095Y-93305333D01*
X66600333Y-93257714D01*
X66790809Y-93257714D01*
X66886047Y-93305333D01*
X66933666Y-93400571D01*
X66933666Y-93495809D01*
X66457476Y-93591047D01*
X67362238Y-93924380D02*
X67362238Y-93257714D01*
X67362238Y-93448190D02*
X67409857Y-93352952D01*
X67457476Y-93305333D01*
X67552714Y-93257714D01*
X67647952Y-93257714D01*
X67743190Y-94019619D02*
X68505095Y-94019619D01*
X68695571Y-93019619D02*
X68743190Y-92972000D01*
X68838428Y-92924380D01*
X69076523Y-92924380D01*
X69171761Y-92972000D01*
X69219380Y-93019619D01*
X69267000Y-93114857D01*
X69267000Y-93210095D01*
X69219380Y-93352952D01*
X68647952Y-93924380D01*
X69267000Y-93924380D01*
X69457476Y-94019619D02*
X70219380Y-94019619D01*
X70647952Y-92924380D02*
X70838428Y-92924380D01*
X70933666Y-92972000D01*
X71028904Y-93067238D01*
X71076523Y-93257714D01*
X71076523Y-93591047D01*
X71028904Y-93781523D01*
X70933666Y-93876761D01*
X70838428Y-93924380D01*
X70647952Y-93924380D01*
X70552714Y-93876761D01*
X70457476Y-93781523D01*
X70409857Y-93591047D01*
X70409857Y-93257714D01*
X70457476Y-93067238D01*
X70552714Y-92972000D01*
X70647952Y-92924380D01*
X71505095Y-93257714D02*
X71505095Y-94257714D01*
X71505095Y-93305333D02*
X71600333Y-93257714D01*
X71790809Y-93257714D01*
X71886047Y-93305333D01*
X71933666Y-93352952D01*
X71981285Y-93448190D01*
X71981285Y-93733904D01*
X71933666Y-93829142D01*
X71886047Y-93876761D01*
X71790809Y-93924380D01*
X71600333Y-93924380D01*
X71505095Y-93876761D01*
X72790809Y-93876761D02*
X72695571Y-93924380D01*
X72505095Y-93924380D01*
X72409857Y-93876761D01*
X72362238Y-93781523D01*
X72362238Y-93400571D01*
X72409857Y-93305333D01*
X72505095Y-93257714D01*
X72695571Y-93257714D01*
X72790809Y-93305333D01*
X72838428Y-93400571D01*
X72838428Y-93495809D01*
X72362238Y-93591047D01*
X73267000Y-93257714D02*
X73267000Y-93924380D01*
X73267000Y-93352952D02*
X73314619Y-93305333D01*
X73409857Y-93257714D01*
X73552714Y-93257714D01*
X73647952Y-93305333D01*
X73695571Y-93400571D01*
X73695571Y-93924380D01*
G04 #@! TO.C,XA1*
X82335714Y-94344761D02*
X83002380Y-94344761D01*
X82335714Y-94773333D02*
X82859523Y-94773333D01*
X82954761Y-94725714D01*
X83002380Y-94630476D01*
X83002380Y-94487619D01*
X82954761Y-94392380D01*
X82907142Y-94344761D01*
X82907142Y-93868571D02*
X82954761Y-93820952D01*
X83002380Y-93868571D01*
X82954761Y-93916190D01*
X82907142Y-93868571D01*
X83002380Y-93868571D01*
X82478571Y-93059047D02*
X82478571Y-93392380D01*
X83002380Y-93392380D02*
X82002380Y-93392380D01*
X82002380Y-92916190D01*
X83002380Y-92392380D02*
X82954761Y-92487619D01*
X82859523Y-92535238D01*
X82002380Y-92535238D01*
X83002380Y-91249523D02*
X82335714Y-91249523D01*
X82430952Y-91249523D02*
X82383333Y-91201904D01*
X82335714Y-91106666D01*
X82335714Y-90963809D01*
X82383333Y-90868571D01*
X82478571Y-90820952D01*
X83002380Y-90820952D01*
X82478571Y-90820952D02*
X82383333Y-90773333D01*
X82335714Y-90678095D01*
X82335714Y-90535238D01*
X82383333Y-90440000D01*
X82478571Y-90392380D01*
X83002380Y-90392380D01*
X83002380Y-89487619D02*
X82478571Y-89487619D01*
X82383333Y-89535238D01*
X82335714Y-89630476D01*
X82335714Y-89820952D01*
X82383333Y-89916190D01*
X82954761Y-89487619D02*
X83002380Y-89582857D01*
X83002380Y-89820952D01*
X82954761Y-89916190D01*
X82859523Y-89963809D01*
X82764285Y-89963809D01*
X82669047Y-89916190D01*
X82621428Y-89820952D01*
X82621428Y-89582857D01*
X82573809Y-89487619D01*
X83002380Y-88868571D02*
X82954761Y-88963809D01*
X82859523Y-89011428D01*
X82002380Y-89011428D01*
X82954761Y-88106666D02*
X83002380Y-88201904D01*
X83002380Y-88392380D01*
X82954761Y-88487619D01*
X82859523Y-88535238D01*
X82478571Y-88535238D01*
X82383333Y-88487619D01*
X82335714Y-88392380D01*
X82335714Y-88201904D01*
X82383333Y-88106666D01*
X82478571Y-88059047D01*
X82573809Y-88059047D01*
X82669047Y-88535238D01*
X75200380Y-92678095D02*
X76200380Y-92011428D01*
X75200380Y-92011428D02*
X76200380Y-92678095D01*
X75914666Y-91678095D02*
X75914666Y-91201904D01*
X76200380Y-91773333D02*
X75200380Y-91440000D01*
X76200380Y-91106666D01*
X76200380Y-90249523D02*
X76200380Y-90820952D01*
X76200380Y-90535238D02*
X75200380Y-90535238D01*
X75343238Y-90630476D01*
X75438476Y-90725714D01*
X75486095Y-90820952D01*
G04 #@! TO.C,C3*
X67922380Y-101853809D02*
X67255714Y-101330000D01*
X67255714Y-101853809D02*
X67922380Y-101330000D01*
X67255714Y-100187142D02*
X68255714Y-100187142D01*
X67303333Y-100187142D02*
X67255714Y-100091904D01*
X67255714Y-99901428D01*
X67303333Y-99806190D01*
X67350952Y-99758571D01*
X67446190Y-99710952D01*
X67731904Y-99710952D01*
X67827142Y-99758571D01*
X67874761Y-99806190D01*
X67922380Y-99901428D01*
X67922380Y-100091904D01*
X67874761Y-100187142D01*
X67398571Y-98949047D02*
X67398571Y-99282380D01*
X67922380Y-99282380D02*
X66922380Y-99282380D01*
X66922380Y-98806190D01*
D13*
X65973333Y-100472857D02*
X65954285Y-100491904D01*
X65897142Y-100510952D01*
X65859047Y-100510952D01*
X65801904Y-100491904D01*
X65763809Y-100453809D01*
X65744761Y-100415714D01*
X65725714Y-100339523D01*
X65725714Y-100282380D01*
X65744761Y-100206190D01*
X65763809Y-100168095D01*
X65801904Y-100130000D01*
X65859047Y-100110952D01*
X65897142Y-100110952D01*
X65954285Y-100130000D01*
X65973333Y-100149047D01*
X66106666Y-100110952D02*
X66354285Y-100110952D01*
X66220952Y-100263333D01*
X66278095Y-100263333D01*
X66316190Y-100282380D01*
X66335238Y-100301428D01*
X66354285Y-100339523D01*
X66354285Y-100434761D01*
X66335238Y-100472857D01*
X66316190Y-100491904D01*
X66278095Y-100510952D01*
X66163809Y-100510952D01*
X66125714Y-100491904D01*
X66106666Y-100472857D01*
G04 #@! TO.C,C2*
D11*
X74647380Y-93725809D02*
X73980714Y-93202000D01*
X73980714Y-93725809D02*
X74647380Y-93202000D01*
X73980714Y-92059142D02*
X74980714Y-92059142D01*
X74028333Y-92059142D02*
X73980714Y-91963904D01*
X73980714Y-91773428D01*
X74028333Y-91678190D01*
X74075952Y-91630571D01*
X74171190Y-91582952D01*
X74456904Y-91582952D01*
X74552142Y-91630571D01*
X74599761Y-91678190D01*
X74647380Y-91773428D01*
X74647380Y-91963904D01*
X74599761Y-92059142D01*
X74123571Y-90821047D02*
X74123571Y-91154380D01*
X74647380Y-91154380D02*
X73647380Y-91154380D01*
X73647380Y-90678190D01*
D14*
X73114285Y-92243666D02*
X73126190Y-92255571D01*
X73138095Y-92291285D01*
X73138095Y-92315095D01*
X73126190Y-92350809D01*
X73102380Y-92374619D01*
X73078571Y-92386523D01*
X73030952Y-92398428D01*
X72995238Y-92398428D01*
X72947619Y-92386523D01*
X72923809Y-92374619D01*
X72900000Y-92350809D01*
X72888095Y-92315095D01*
X72888095Y-92291285D01*
X72900000Y-92255571D01*
X72911904Y-92243666D01*
X72911904Y-92148428D02*
X72900000Y-92136523D01*
X72888095Y-92112714D01*
X72888095Y-92053190D01*
X72900000Y-92029380D01*
X72911904Y-92017476D01*
X72935714Y-92005571D01*
X72959523Y-92005571D01*
X72995238Y-92017476D01*
X73138095Y-92160333D01*
X73138095Y-92005571D01*
G04 #@! TO.C,C1*
D11*
X77695380Y-93725809D02*
X77028714Y-93202000D01*
X77028714Y-93725809D02*
X77695380Y-93202000D01*
X77028714Y-92059142D02*
X78028714Y-92059142D01*
X77076333Y-92059142D02*
X77028714Y-91963904D01*
X77028714Y-91773428D01*
X77076333Y-91678190D01*
X77123952Y-91630571D01*
X77219190Y-91582952D01*
X77504904Y-91582952D01*
X77600142Y-91630571D01*
X77647761Y-91678190D01*
X77695380Y-91773428D01*
X77695380Y-91963904D01*
X77647761Y-92059142D01*
X77171571Y-90821047D02*
X77171571Y-91154380D01*
X77695380Y-91154380D02*
X76695380Y-91154380D01*
X76695380Y-90678190D01*
D14*
X76162285Y-92243666D02*
X76174190Y-92255571D01*
X76186095Y-92291285D01*
X76186095Y-92315095D01*
X76174190Y-92350809D01*
X76150380Y-92374619D01*
X76126571Y-92386523D01*
X76078952Y-92398428D01*
X76043238Y-92398428D01*
X75995619Y-92386523D01*
X75971809Y-92374619D01*
X75948000Y-92350809D01*
X75936095Y-92315095D01*
X75936095Y-92291285D01*
X75948000Y-92255571D01*
X75959904Y-92243666D01*
X76186095Y-92005571D02*
X76186095Y-92148428D01*
X76186095Y-92077000D02*
X75936095Y-92077000D01*
X75971809Y-92100809D01*
X75995619Y-92124619D01*
X76007523Y-92148428D01*
G04 #@! TO.C,L1*
D11*
X72952952Y-90722380D02*
X73476761Y-90055714D01*
X72952952Y-90055714D02*
X73476761Y-90722380D01*
X74619619Y-90055714D02*
X74619619Y-90722380D01*
X74619619Y-90150952D02*
X74667238Y-90103333D01*
X74762476Y-90055714D01*
X74905333Y-90055714D01*
X75000571Y-90103333D01*
X75048190Y-90198571D01*
X75048190Y-90722380D01*
X75524380Y-90722380D02*
X75524380Y-89722380D01*
X75524380Y-90198571D02*
X76095809Y-90198571D01*
X76095809Y-90722380D02*
X76095809Y-89722380D01*
D14*
X74685095Y-91481666D02*
X74685095Y-91600714D01*
X74435095Y-91600714D01*
X74685095Y-91267380D02*
X74685095Y-91410238D01*
X74685095Y-91338809D02*
X74435095Y-91338809D01*
X74470809Y-91362619D01*
X74494619Y-91386428D01*
X74506523Y-91410238D01*
G04 #@! TO.C,ANT1*
D11*
X72035857Y-89492380D02*
X72035857Y-88492380D01*
X72416809Y-88492380D01*
X72512047Y-88540000D01*
X72559666Y-88587619D01*
X72607285Y-88682857D01*
X72607285Y-88825714D01*
X72559666Y-88920952D01*
X72512047Y-88968571D01*
X72416809Y-89016190D01*
X72035857Y-89016190D01*
X73035857Y-89492380D02*
X73035857Y-88492380D01*
X73845380Y-88968571D02*
X73512047Y-88968571D01*
X73512047Y-89492380D02*
X73512047Y-88492380D01*
X73988238Y-88492380D01*
X74321571Y-89206666D02*
X74797761Y-89206666D01*
X74226333Y-89492380D02*
X74559666Y-88492380D01*
X74893000Y-89492380D01*
X71173952Y-81596666D02*
X71650142Y-81596666D01*
X71078714Y-81882380D02*
X71412047Y-80882380D01*
X71745380Y-81882380D01*
X72078714Y-81882380D02*
X72078714Y-80882380D01*
X72650142Y-81882380D01*
X72650142Y-80882380D01*
X72983476Y-80882380D02*
X73554904Y-80882380D01*
X73269190Y-81882380D02*
X73269190Y-80882380D01*
X74412047Y-81882380D02*
X73840619Y-81882380D01*
X74126333Y-81882380D02*
X74126333Y-80882380D01*
X74031095Y-81025238D01*
X73935857Y-81120476D01*
X73840619Y-81168095D01*
G04 #@! TO.C,U1*
X73826666Y-102734761D02*
X73826666Y-102258571D01*
X74112380Y-102830000D02*
X73112380Y-102496666D01*
X74112380Y-102163333D01*
X74112380Y-101830000D02*
X73112380Y-101830000D01*
X74112380Y-100782380D02*
X73636190Y-101115714D01*
X74112380Y-101353809D02*
X73112380Y-101353809D01*
X73112380Y-100972857D01*
X73160000Y-100877619D01*
X73207619Y-100830000D01*
X73302857Y-100782380D01*
X73445714Y-100782380D01*
X73540952Y-100830000D01*
X73588571Y-100877619D01*
X73636190Y-100972857D01*
X73636190Y-101353809D01*
X73112380Y-99925238D02*
X73112380Y-100115714D01*
X73160000Y-100210952D01*
X73207619Y-100258571D01*
X73350476Y-100353809D01*
X73540952Y-100401428D01*
X73921904Y-100401428D01*
X74017142Y-100353809D01*
X74064761Y-100306190D01*
X74112380Y-100210952D01*
X74112380Y-100020476D01*
X74064761Y-99925238D01*
X74017142Y-99877619D01*
X73921904Y-99830000D01*
X73683809Y-99830000D01*
X73588571Y-99877619D01*
X73540952Y-99925238D01*
X73493333Y-100020476D01*
X73493333Y-100210952D01*
X73540952Y-100306190D01*
X73588571Y-100353809D01*
X73683809Y-100401428D01*
X73112380Y-99210952D02*
X73112380Y-99115714D01*
X73160000Y-99020476D01*
X73207619Y-98972857D01*
X73302857Y-98925238D01*
X73493333Y-98877619D01*
X73731428Y-98877619D01*
X73921904Y-98925238D01*
X74017142Y-98972857D01*
X74064761Y-99020476D01*
X74112380Y-99115714D01*
X74112380Y-99210952D01*
X74064761Y-99306190D01*
X74017142Y-99353809D01*
X73921904Y-99401428D01*
X73731428Y-99449047D01*
X73493333Y-99449047D01*
X73302857Y-99401428D01*
X73207619Y-99353809D01*
X73160000Y-99306190D01*
X73112380Y-99210952D01*
X73207619Y-98496666D02*
X73160000Y-98449047D01*
X73112380Y-98353809D01*
X73112380Y-98115714D01*
X73160000Y-98020476D01*
X73207619Y-97972857D01*
X73302857Y-97925238D01*
X73398095Y-97925238D01*
X73540952Y-97972857D01*
X74112380Y-98544285D01*
X74112380Y-97925238D01*
G04 #@! TD*
M02*
