%FSLAX45Y45*%
G04 Gerber Fmt 4.5, Leading zero omitted, Abs format (unit mm)*
G04 Created by KiCad (PCBNEW (5.0.1)-3) date 02/12/2018 22:03:44*
%MOMM*%
%LPD*%
G01*
G04 APERTURE LIST*
%ADD10C,0.015000*%
%ADD11C,0.200000*%
%ADD12C,0.300000*%
G04 APERTURE END LIST*
D10*
X8636000Y-10795000D02*
X6096000Y-10795000D01*
X8636000Y-8204200D02*
X8636000Y-10795000D01*
X6096000Y-8204200D02*
X8636000Y-8204200D01*
X6096000Y-10795000D02*
X6096000Y-8204200D01*
D11*
X6169900Y-8862300D02*
X6199900Y-8892300D01*
X6199900Y-8862300D02*
X6169900Y-8892300D01*
X6169900Y-9044500D02*
X6199900Y-9074500D01*
X6199900Y-9044500D02*
X6169900Y-9074500D01*
X6169900Y-9222300D02*
X6199900Y-9252300D01*
X6199900Y-9222300D02*
X6169900Y-9252300D01*
X6169900Y-9484600D02*
X6199900Y-9514600D01*
X6199900Y-9484600D02*
X6169900Y-9514600D01*
X6169900Y-9764500D02*
X6199900Y-9794500D01*
X6199900Y-9764500D02*
X6169900Y-9794500D01*
X6169900Y-9942300D02*
X6199900Y-9972300D01*
X6199900Y-9942300D02*
X6169900Y-9972300D01*
X6169900Y-10124500D02*
X6199900Y-10154500D01*
X6199900Y-10124500D02*
X6169900Y-10154500D01*
X6169900Y-10302300D02*
X6199900Y-10332300D01*
X6199900Y-10302300D02*
X6169900Y-10332300D01*
X6169900Y-10484500D02*
X6199900Y-10514500D01*
X6199900Y-10484500D02*
X6169900Y-10514500D01*
X6169900Y-10662300D02*
X6199900Y-10692300D01*
X6199900Y-10662300D02*
X6169900Y-10692300D01*
X6195300Y-9586200D02*
X6225300Y-9616200D01*
X6225300Y-9586200D02*
X6195300Y-9616200D01*
X6220700Y-9395700D02*
X6250700Y-9425700D01*
X6250700Y-9395700D02*
X6220700Y-9425700D01*
X6258800Y-9662400D02*
X6288800Y-9692400D01*
X6288800Y-9662400D02*
X6258800Y-9692400D01*
X6271500Y-9344900D02*
X6301500Y-9374900D01*
X6301500Y-9344900D02*
X6271500Y-9374900D01*
X6398500Y-9662400D02*
X6428500Y-9692400D01*
X6428500Y-9662400D02*
X6398500Y-9692400D01*
X6408900Y-8862300D02*
X6438900Y-8892300D01*
X6438900Y-8862300D02*
X6408900Y-8892300D01*
X6411200Y-9040100D02*
X6441200Y-9070100D01*
X6441200Y-9040100D02*
X6411200Y-9070100D01*
X6411200Y-9344900D02*
X6441200Y-9374900D01*
X6441200Y-9344900D02*
X6411200Y-9374900D01*
X6423900Y-10665700D02*
X6453900Y-10695700D01*
X6453900Y-10665700D02*
X6423900Y-10695700D01*
X6487400Y-9281400D02*
X6517400Y-9311400D01*
X6517400Y-9281400D02*
X6487400Y-9311400D01*
X6487400Y-9383000D02*
X6517400Y-9413000D01*
X6517400Y-9383000D02*
X6487400Y-9413000D01*
X6487400Y-9637000D02*
X6517400Y-9667000D01*
X6517400Y-9637000D02*
X6487400Y-9667000D01*
X6512800Y-9179800D02*
X6542800Y-9209800D01*
X6542800Y-9179800D02*
X6512800Y-9209800D01*
X6512800Y-9725900D02*
X6542800Y-9755900D01*
X6542800Y-9725900D02*
X6512800Y-9755900D01*
X6576300Y-9116300D02*
X6606300Y-9146300D01*
X6606300Y-9116300D02*
X6576300Y-9146300D01*
X6576300Y-9789400D02*
X6606300Y-9819400D01*
X6606300Y-9789400D02*
X6576300Y-9819400D01*
X6586700Y-8862300D02*
X6616700Y-8892300D01*
X6616700Y-8862300D02*
X6586700Y-8892300D01*
X6586700Y-9942300D02*
X6616700Y-9972300D01*
X6616700Y-9942300D02*
X6586700Y-9972300D01*
X6586700Y-10662300D02*
X6616700Y-10692300D01*
X6616700Y-10662300D02*
X6586700Y-10692300D01*
X6639800Y-9052800D02*
X6669800Y-9082800D01*
X6669800Y-9052800D02*
X6639800Y-9082800D01*
X6677900Y-9840200D02*
X6707900Y-9870200D01*
X6707900Y-9840200D02*
X6677900Y-9870200D01*
X6728700Y-9002000D02*
X6758700Y-9032000D01*
X6758700Y-9002000D02*
X6728700Y-9032000D01*
X6741400Y-9319500D02*
X6771400Y-9349500D01*
X6771400Y-9319500D02*
X6741400Y-9349500D01*
X6741400Y-9408400D02*
X6771400Y-9438400D01*
X6771400Y-9408400D02*
X6741400Y-9438400D01*
X6741400Y-9497300D02*
X6771400Y-9527300D01*
X6771400Y-9497300D02*
X6741400Y-9527300D01*
X6741400Y-9586200D02*
X6771400Y-9616200D01*
X6771400Y-9586200D02*
X6741400Y-9616200D01*
X6764500Y-10662300D02*
X6794500Y-10692300D01*
X6794500Y-10662300D02*
X6764500Y-10692300D01*
X6774900Y-8862300D02*
X6804900Y-8892300D01*
X6804900Y-8862300D02*
X6774900Y-8892300D01*
X6792200Y-9256000D02*
X6822200Y-9286000D01*
X6822200Y-9256000D02*
X6792200Y-9286000D01*
X6792200Y-9840200D02*
X6822200Y-9870200D01*
X6822200Y-9840200D02*
X6792200Y-9870200D01*
X6817600Y-9002000D02*
X6847600Y-9032000D01*
X6847600Y-9002000D02*
X6817600Y-9032000D01*
X6817600Y-9586200D02*
X6847600Y-9616200D01*
X6847600Y-9586200D02*
X6817600Y-9616200D01*
X6893800Y-9256000D02*
X6923800Y-9286000D01*
X6923800Y-9256000D02*
X6893800Y-9286000D01*
X6906500Y-9586200D02*
X6936500Y-9616200D01*
X6936500Y-9586200D02*
X6906500Y-9616200D01*
X6906500Y-9840200D02*
X6936500Y-9870200D01*
X6936500Y-9840200D02*
X6906500Y-9870200D01*
X6919200Y-9002000D02*
X6949200Y-9032000D01*
X6949200Y-9002000D02*
X6919200Y-9032000D01*
X6952700Y-8862300D02*
X6982700Y-8892300D01*
X6982700Y-8862300D02*
X6952700Y-8892300D01*
X6952700Y-9942300D02*
X6982700Y-9972300D01*
X6982700Y-9942300D02*
X6952700Y-9972300D01*
X6952700Y-10662300D02*
X6982700Y-10692300D01*
X6982700Y-10662300D02*
X6952700Y-10692300D01*
X6995400Y-9256000D02*
X7025400Y-9286000D01*
X7025400Y-9256000D02*
X6995400Y-9286000D01*
X6995400Y-9637000D02*
X7025400Y-9667000D01*
X7025400Y-9637000D02*
X6995400Y-9667000D01*
X6995400Y-9802100D02*
X7025400Y-9832100D01*
X7025400Y-9802100D02*
X6995400Y-9832100D01*
X7020800Y-9002000D02*
X7050800Y-9032000D01*
X7050800Y-9002000D02*
X7020800Y-9032000D01*
X7020800Y-9713200D02*
X7050800Y-9743200D01*
X7050800Y-9713200D02*
X7020800Y-9743200D01*
X7071600Y-9459200D02*
X7101600Y-9489200D01*
X7101600Y-9459200D02*
X7071600Y-9489200D01*
X7071600Y-10106900D02*
X7101600Y-10136900D01*
X7101600Y-10106900D02*
X7071600Y-10136900D01*
X7071600Y-10462500D02*
X7101600Y-10492500D01*
X7101600Y-10462500D02*
X7071600Y-10492500D01*
X7109700Y-9256000D02*
X7139700Y-9286000D01*
X7139700Y-9256000D02*
X7109700Y-9286000D01*
X7122400Y-9002000D02*
X7152400Y-9032000D01*
X7152400Y-9002000D02*
X7122400Y-9032000D01*
X7130500Y-10662300D02*
X7160500Y-10692300D01*
X7160500Y-10662300D02*
X7130500Y-10692300D01*
X7140900Y-8862300D02*
X7170900Y-8892300D01*
X7170900Y-8862300D02*
X7140900Y-8892300D01*
X7185900Y-9764000D02*
X7215900Y-9794000D01*
X7215900Y-9764000D02*
X7185900Y-9794000D01*
X7211300Y-9256000D02*
X7241300Y-9286000D01*
X7241300Y-9256000D02*
X7211300Y-9286000D01*
X7224000Y-9002000D02*
X7254000Y-9032000D01*
X7254000Y-9002000D02*
X7224000Y-9032000D01*
X7318700Y-8862300D02*
X7348700Y-8892300D01*
X7348700Y-8862300D02*
X7318700Y-8892300D01*
X7318700Y-9582300D02*
X7348700Y-9612300D01*
X7348700Y-9582300D02*
X7318700Y-9612300D01*
X7318700Y-9942300D02*
X7348700Y-9972300D01*
X7348700Y-9942300D02*
X7318700Y-9972300D01*
X7318700Y-10302300D02*
X7348700Y-10332300D01*
X7348700Y-10302300D02*
X7318700Y-10332300D01*
X7318700Y-10662300D02*
X7348700Y-10692300D01*
X7348700Y-10662300D02*
X7318700Y-10692300D01*
X7325600Y-9002000D02*
X7355600Y-9032000D01*
X7355600Y-9002000D02*
X7325600Y-9032000D01*
X7351000Y-9256000D02*
X7381000Y-9286000D01*
X7381000Y-9256000D02*
X7351000Y-9286000D01*
X7427200Y-9002000D02*
X7457200Y-9032000D01*
X7457200Y-9002000D02*
X7427200Y-9032000D01*
X7439900Y-9256000D02*
X7469900Y-9286000D01*
X7469900Y-9256000D02*
X7439900Y-9286000D01*
X7496500Y-10662300D02*
X7526500Y-10692300D01*
X7526500Y-10662300D02*
X7496500Y-10692300D01*
X7516100Y-9459200D02*
X7546100Y-9489200D01*
X7546100Y-9459200D02*
X7516100Y-9489200D01*
X7516100Y-9764000D02*
X7546100Y-9794000D01*
X7546100Y-9764000D02*
X7516100Y-9794000D01*
X7516100Y-10119600D02*
X7546100Y-10149600D01*
X7546100Y-10119600D02*
X7516100Y-10149600D01*
X7516100Y-10462500D02*
X7546100Y-10492500D01*
X7546100Y-10462500D02*
X7516100Y-10492500D01*
X7528800Y-9256000D02*
X7558800Y-9286000D01*
X7558800Y-9256000D02*
X7528800Y-9286000D01*
X7541500Y-9002000D02*
X7571500Y-9032000D01*
X7571500Y-9002000D02*
X7541500Y-9032000D01*
X7592300Y-8811500D02*
X7622300Y-8841500D01*
X7622300Y-8811500D02*
X7592300Y-8841500D01*
X7592300Y-8913100D02*
X7622300Y-8943100D01*
X7622300Y-8913100D02*
X7592300Y-8943100D01*
X7655800Y-9256000D02*
X7685800Y-9286000D01*
X7685800Y-9256000D02*
X7655800Y-9286000D01*
X7684700Y-9582300D02*
X7714700Y-9612300D01*
X7714700Y-9582300D02*
X7684700Y-9612300D01*
X7684700Y-9942300D02*
X7714700Y-9972300D01*
X7714700Y-9942300D02*
X7684700Y-9972300D01*
X7684700Y-10302300D02*
X7714700Y-10332300D01*
X7714700Y-10302300D02*
X7684700Y-10332300D01*
X7684700Y-10662300D02*
X7714700Y-10692300D01*
X7714700Y-10662300D02*
X7684700Y-10692300D01*
X7757400Y-9256000D02*
X7787400Y-9286000D01*
X7787400Y-9256000D02*
X7757400Y-9286000D01*
X7846300Y-8811500D02*
X7876300Y-8841500D01*
X7876300Y-8811500D02*
X7846300Y-8841500D01*
X7846300Y-8900400D02*
X7876300Y-8930400D01*
X7876300Y-8900400D02*
X7846300Y-8930400D01*
X7862500Y-10662300D02*
X7892500Y-10692300D01*
X7892500Y-10662300D02*
X7862500Y-10692300D01*
X7871700Y-9078200D02*
X7901700Y-9108200D01*
X7901700Y-9078200D02*
X7871700Y-9108200D01*
X7871700Y-9179800D02*
X7901700Y-9209800D01*
X7901700Y-9179800D02*
X7871700Y-9209800D01*
X7947900Y-8900400D02*
X7977900Y-8930400D01*
X7977900Y-8900400D02*
X7947900Y-8930400D01*
X7960600Y-9078200D02*
X7990600Y-9108200D01*
X7990600Y-9078200D02*
X7960600Y-9108200D01*
X7960600Y-9179800D02*
X7990600Y-9209800D01*
X7990600Y-9179800D02*
X7960600Y-9209800D01*
X8036800Y-8976600D02*
X8066800Y-9006600D01*
X8066800Y-8976600D02*
X8036800Y-9006600D01*
X8050700Y-10662300D02*
X8080700Y-10692300D01*
X8080700Y-10662300D02*
X8050700Y-10692300D01*
X8170800Y-8862300D02*
X8200800Y-8892300D01*
X8200800Y-8862300D02*
X8170800Y-8892300D01*
X8265400Y-9040100D02*
X8295400Y-9070100D01*
X8295400Y-9040100D02*
X8265400Y-9070100D01*
X8278100Y-10662300D02*
X8308100Y-10692300D01*
X8308100Y-10662300D02*
X8278100Y-10692300D01*
X8359000Y-8862300D02*
X8389000Y-8892300D01*
X8389000Y-8862300D02*
X8359000Y-8892300D01*
X8531000Y-8862300D02*
X8561000Y-8892300D01*
X8561000Y-8862300D02*
X8531000Y-8892300D01*
X8531000Y-9044500D02*
X8561000Y-9074500D01*
X8561000Y-9044500D02*
X8531000Y-9074500D01*
X8531000Y-9222300D02*
X8561000Y-9252300D01*
X8561000Y-9222300D02*
X8531000Y-9252300D01*
X8531000Y-9404500D02*
X8561000Y-9434500D01*
X8561000Y-9404500D02*
X8531000Y-9434500D01*
X8531000Y-9582300D02*
X8561000Y-9612300D01*
X8561000Y-9582300D02*
X8531000Y-9612300D01*
X8531000Y-9764500D02*
X8561000Y-9794500D01*
X8561000Y-9764500D02*
X8531000Y-9794500D01*
X8531000Y-9942300D02*
X8561000Y-9972300D01*
X8561000Y-9942300D02*
X8531000Y-9972300D01*
X8531000Y-10124500D02*
X8561000Y-10154500D01*
X8561000Y-10124500D02*
X8531000Y-10154500D01*
X8531000Y-10302300D02*
X8561000Y-10332300D01*
X8561000Y-10302300D02*
X8531000Y-10332300D01*
X8531000Y-10484500D02*
X8561000Y-10514500D01*
X8561000Y-10484500D02*
X8531000Y-10514500D01*
X8531000Y-10662300D02*
X8561000Y-10692300D01*
X8561000Y-10662300D02*
X8531000Y-10692300D01*
X7929300Y-8768000D02*
X7959300Y-8798000D01*
X7959300Y-8768000D02*
X7929300Y-8798000D01*
X8432000Y-9271000D02*
G75*
G03X8432000Y-9271000I-50000J0D01*
G01*
X8432000Y-9525000D02*
G75*
G03X8432000Y-9525000I-50000J0D01*
G01*
X8432000Y-9779000D02*
G75*
G03X8432000Y-9779000I-50000J0D01*
G01*
X8432000Y-10033000D02*
G75*
G03X8432000Y-10033000I-50000J0D01*
G01*
X8432000Y-10287000D02*
G75*
G03X8432000Y-10287000I-50000J0D01*
G01*
X8432000Y-10541000D02*
G75*
G03X8432000Y-10541000I-50000J0D01*
G01*
X6400000Y-9271000D02*
G75*
G03X6400000Y-9271000I-50000J0D01*
G01*
X6400000Y-9525000D02*
G75*
G03X6400000Y-9525000I-50000J0D01*
G01*
X6400000Y-9779000D02*
G75*
G03X6400000Y-9779000I-50000J0D01*
G01*
X6400000Y-10033000D02*
G75*
G03X6400000Y-10033000I-50000J0D01*
G01*
X6400000Y-10287000D02*
G75*
G03X6400000Y-10287000I-50000J0D01*
G01*
X6400000Y-10541000D02*
G75*
G03X6400000Y-10541000I-50000J0D01*
G01*
X7734300Y-9042800D02*
X7734300Y-9092800D01*
X7709300Y-9067800D02*
X7759300Y-9067800D01*
D12*
X6381678Y-11261464D02*
X6381678Y-10961464D01*
X6453107Y-10961464D01*
X6495964Y-10975750D01*
X6524536Y-11004322D01*
X6538821Y-11032893D01*
X6553107Y-11090036D01*
X6553107Y-11132893D01*
X6538821Y-11190036D01*
X6524536Y-11218607D01*
X6495964Y-11247179D01*
X6453107Y-11261464D01*
X6381678Y-11261464D01*
X6681678Y-11261464D02*
X6681678Y-11061464D01*
X6681678Y-11118607D02*
X6695964Y-11090036D01*
X6710250Y-11075750D01*
X6738821Y-11061464D01*
X6767393Y-11061464D01*
X6867393Y-11261464D02*
X6867393Y-11061464D01*
X6867393Y-10961464D02*
X6853107Y-10975750D01*
X6867393Y-10990036D01*
X6881678Y-10975750D01*
X6867393Y-10961464D01*
X6867393Y-10990036D01*
X7053107Y-11261464D02*
X7024536Y-11247179D01*
X7010250Y-11218607D01*
X7010250Y-10961464D01*
X7210250Y-11261464D02*
X7181678Y-11247179D01*
X7167393Y-11218607D01*
X7167393Y-10961464D01*
X7553107Y-11261464D02*
X7553107Y-10961464D01*
X7653107Y-11175750D01*
X7753107Y-10961464D01*
X7753107Y-11261464D01*
X8024536Y-11261464D02*
X8024536Y-11104322D01*
X8010250Y-11075750D01*
X7981678Y-11061464D01*
X7924536Y-11061464D01*
X7895964Y-11075750D01*
X8024536Y-11247179D02*
X7995964Y-11261464D01*
X7924536Y-11261464D01*
X7895964Y-11247179D01*
X7881678Y-11218607D01*
X7881678Y-11190036D01*
X7895964Y-11161464D01*
X7924536Y-11147179D01*
X7995964Y-11147179D01*
X8024536Y-11132893D01*
X8167393Y-11061464D02*
X8167393Y-11361464D01*
X8167393Y-11075750D02*
X8195964Y-11061464D01*
X8253107Y-11061464D01*
X8281678Y-11075750D01*
X8295964Y-11090036D01*
X8310250Y-11118607D01*
X8310250Y-11204321D01*
X8295964Y-11232893D01*
X8281678Y-11247179D01*
X8253107Y-11261464D01*
X8195964Y-11261464D01*
X8167393Y-11247179D01*
X8438821Y-11232893D02*
X8453107Y-11247179D01*
X8438821Y-11261464D01*
X8424536Y-11247179D01*
X8438821Y-11232893D01*
X8438821Y-11261464D01*
X8438821Y-11075750D02*
X8453107Y-11090036D01*
X8438821Y-11104322D01*
X8424536Y-11090036D01*
X8438821Y-11075750D01*
X8438821Y-11104322D01*
X6065250Y-11740750D02*
X6095250Y-11770750D01*
X6095250Y-11740750D02*
X6065250Y-11770750D01*
X6438821Y-11591464D02*
X6467393Y-11591464D01*
X6495964Y-11605750D01*
X6510250Y-11620036D01*
X6524536Y-11648607D01*
X6538821Y-11705750D01*
X6538821Y-11777179D01*
X6524536Y-11834321D01*
X6510250Y-11862893D01*
X6495964Y-11877179D01*
X6467393Y-11891464D01*
X6438821Y-11891464D01*
X6410250Y-11877179D01*
X6395964Y-11862893D01*
X6381678Y-11834321D01*
X6367393Y-11777179D01*
X6367393Y-11705750D01*
X6381678Y-11648607D01*
X6395964Y-11620036D01*
X6410250Y-11605750D01*
X6438821Y-11591464D01*
X6667393Y-11862893D02*
X6681678Y-11877179D01*
X6667393Y-11891464D01*
X6653107Y-11877179D01*
X6667393Y-11862893D01*
X6667393Y-11891464D01*
X6781678Y-11591464D02*
X6967393Y-11591464D01*
X6867393Y-11705750D01*
X6910250Y-11705750D01*
X6938821Y-11720036D01*
X6953107Y-11734321D01*
X6967393Y-11762893D01*
X6967393Y-11834321D01*
X6953107Y-11862893D01*
X6938821Y-11877179D01*
X6910250Y-11891464D01*
X6824536Y-11891464D01*
X6795964Y-11877179D01*
X6781678Y-11862893D01*
X7153107Y-11591464D02*
X7181678Y-11591464D01*
X7210250Y-11605750D01*
X7224536Y-11620036D01*
X7238821Y-11648607D01*
X7253107Y-11705750D01*
X7253107Y-11777179D01*
X7238821Y-11834321D01*
X7224536Y-11862893D01*
X7210250Y-11877179D01*
X7181678Y-11891464D01*
X7153107Y-11891464D01*
X7124536Y-11877179D01*
X7110250Y-11862893D01*
X7095964Y-11834321D01*
X7081678Y-11777179D01*
X7081678Y-11705750D01*
X7095964Y-11648607D01*
X7110250Y-11620036D01*
X7124536Y-11605750D01*
X7153107Y-11591464D01*
X7381678Y-11891464D02*
X7381678Y-11691464D01*
X7381678Y-11720036D02*
X7395964Y-11705750D01*
X7424536Y-11691464D01*
X7467393Y-11691464D01*
X7495964Y-11705750D01*
X7510250Y-11734321D01*
X7510250Y-11891464D01*
X7510250Y-11734321D02*
X7524536Y-11705750D01*
X7553107Y-11691464D01*
X7595964Y-11691464D01*
X7624536Y-11705750D01*
X7638821Y-11734321D01*
X7638821Y-11891464D01*
X7781678Y-11891464D02*
X7781678Y-11691464D01*
X7781678Y-11720036D02*
X7795964Y-11705750D01*
X7824536Y-11691464D01*
X7867393Y-11691464D01*
X7895964Y-11705750D01*
X7910250Y-11734321D01*
X7910250Y-11891464D01*
X7910250Y-11734321D02*
X7924536Y-11705750D01*
X7953107Y-11691464D01*
X7995964Y-11691464D01*
X8024536Y-11705750D01*
X8038821Y-11734321D01*
X8038821Y-11891464D01*
X8624536Y-11577179D02*
X8367393Y-11962893D01*
X9010250Y-11591464D02*
X9038821Y-11591464D01*
X9067393Y-11605750D01*
X9081678Y-11620036D01*
X9095964Y-11648607D01*
X9110250Y-11705750D01*
X9110250Y-11777179D01*
X9095964Y-11834321D01*
X9081678Y-11862893D01*
X9067393Y-11877179D01*
X9038821Y-11891464D01*
X9010250Y-11891464D01*
X8981678Y-11877179D01*
X8967393Y-11862893D01*
X8953107Y-11834321D01*
X8938821Y-11777179D01*
X8938821Y-11705750D01*
X8953107Y-11648607D01*
X8967393Y-11620036D01*
X8981678Y-11605750D01*
X9010250Y-11591464D01*
X9238821Y-11862893D02*
X9253107Y-11877179D01*
X9238821Y-11891464D01*
X9224536Y-11877179D01*
X9238821Y-11862893D01*
X9238821Y-11891464D01*
X9438821Y-11591464D02*
X9467393Y-11591464D01*
X9495964Y-11605750D01*
X9510250Y-11620036D01*
X9524536Y-11648607D01*
X9538821Y-11705750D01*
X9538821Y-11777179D01*
X9524536Y-11834321D01*
X9510250Y-11862893D01*
X9495964Y-11877179D01*
X9467393Y-11891464D01*
X9438821Y-11891464D01*
X9410250Y-11877179D01*
X9395964Y-11862893D01*
X9381678Y-11834321D01*
X9367393Y-11777179D01*
X9367393Y-11705750D01*
X9381678Y-11648607D01*
X9395964Y-11620036D01*
X9410250Y-11605750D01*
X9438821Y-11591464D01*
X9824536Y-11891464D02*
X9653107Y-11891464D01*
X9738821Y-11891464D02*
X9738821Y-11591464D01*
X9710250Y-11634321D01*
X9681678Y-11662893D01*
X9653107Y-11677179D01*
X9938821Y-11620036D02*
X9953107Y-11605750D01*
X9981678Y-11591464D01*
X10053107Y-11591464D01*
X10081678Y-11605750D01*
X10095964Y-11620036D01*
X10110250Y-11648607D01*
X10110250Y-11677179D01*
X10095964Y-11720036D01*
X9924536Y-11891464D01*
X10110250Y-11891464D01*
X10224536Y-11591464D02*
X10224536Y-11648607D01*
X10338821Y-11591464D02*
X10338821Y-11648607D01*
X10781678Y-12005750D02*
X10767393Y-11991464D01*
X10738821Y-11948607D01*
X10724536Y-11920036D01*
X10710250Y-11877179D01*
X10695964Y-11805750D01*
X10695964Y-11748607D01*
X10710250Y-11677179D01*
X10724536Y-11634321D01*
X10738821Y-11605750D01*
X10767393Y-11562893D01*
X10781678Y-11548607D01*
X11053107Y-11891464D02*
X10881678Y-11891464D01*
X10967393Y-11891464D02*
X10967393Y-11591464D01*
X10938821Y-11634321D01*
X10910250Y-11662893D01*
X10881678Y-11677179D01*
X11338821Y-11891464D02*
X11167393Y-11891464D01*
X11253107Y-11891464D02*
X11253107Y-11591464D01*
X11224536Y-11634321D01*
X11195964Y-11662893D01*
X11167393Y-11677179D01*
X11595964Y-11691464D02*
X11595964Y-11891464D01*
X11524536Y-11577179D02*
X11453107Y-11791464D01*
X11638821Y-11791464D01*
X11981678Y-11891464D02*
X11981678Y-11591464D01*
X12110250Y-11891464D02*
X12110250Y-11734321D01*
X12095964Y-11705750D01*
X12067393Y-11691464D01*
X12024536Y-11691464D01*
X11995964Y-11705750D01*
X11981678Y-11720036D01*
X12295964Y-11891464D02*
X12267393Y-11877179D01*
X12253107Y-11862893D01*
X12238821Y-11834321D01*
X12238821Y-11748607D01*
X12253107Y-11720036D01*
X12267393Y-11705750D01*
X12295964Y-11691464D01*
X12338821Y-11691464D01*
X12367393Y-11705750D01*
X12381678Y-11720036D01*
X12395964Y-11748607D01*
X12395964Y-11834321D01*
X12381678Y-11862893D01*
X12367393Y-11877179D01*
X12338821Y-11891464D01*
X12295964Y-11891464D01*
X12567393Y-11891464D02*
X12538821Y-11877179D01*
X12524536Y-11848607D01*
X12524536Y-11591464D01*
X12795964Y-11877179D02*
X12767393Y-11891464D01*
X12710250Y-11891464D01*
X12681678Y-11877179D01*
X12667393Y-11848607D01*
X12667393Y-11734321D01*
X12681678Y-11705750D01*
X12710250Y-11691464D01*
X12767393Y-11691464D01*
X12795964Y-11705750D01*
X12810250Y-11734321D01*
X12810250Y-11762893D01*
X12667393Y-11791464D01*
X12924536Y-11877179D02*
X12953107Y-11891464D01*
X13010250Y-11891464D01*
X13038821Y-11877179D01*
X13053107Y-11848607D01*
X13053107Y-11834321D01*
X13038821Y-11805750D01*
X13010250Y-11791464D01*
X12967393Y-11791464D01*
X12938821Y-11777179D01*
X12924536Y-11748607D01*
X12924536Y-11734321D01*
X12938821Y-11705750D01*
X12967393Y-11691464D01*
X13010250Y-11691464D01*
X13038821Y-11705750D01*
X13153107Y-12005750D02*
X13167393Y-11991464D01*
X13195964Y-11948607D01*
X13210250Y-11920036D01*
X13224536Y-11877179D01*
X13238821Y-11805750D01*
X13238821Y-11748607D01*
X13224536Y-11677179D01*
X13210250Y-11634321D01*
X13195964Y-11605750D01*
X13167393Y-11562893D01*
X13153107Y-11548607D01*
X6095250Y-12151750D02*
G75*
G03X6095250Y-12151750I-50000J0D01*
G01*
X6538821Y-12287464D02*
X6367393Y-12287464D01*
X6453107Y-12287464D02*
X6453107Y-11987464D01*
X6424536Y-12030321D01*
X6395964Y-12058893D01*
X6367393Y-12073179D01*
X6667393Y-12258893D02*
X6681678Y-12273179D01*
X6667393Y-12287464D01*
X6653107Y-12273179D01*
X6667393Y-12258893D01*
X6667393Y-12287464D01*
X6867393Y-11987464D02*
X6895964Y-11987464D01*
X6924536Y-12001750D01*
X6938821Y-12016036D01*
X6953107Y-12044607D01*
X6967393Y-12101750D01*
X6967393Y-12173179D01*
X6953107Y-12230321D01*
X6938821Y-12258893D01*
X6924536Y-12273179D01*
X6895964Y-12287464D01*
X6867393Y-12287464D01*
X6838821Y-12273179D01*
X6824536Y-12258893D01*
X6810250Y-12230321D01*
X6795964Y-12173179D01*
X6795964Y-12101750D01*
X6810250Y-12044607D01*
X6824536Y-12016036D01*
X6838821Y-12001750D01*
X6867393Y-11987464D01*
X7153107Y-11987464D02*
X7181678Y-11987464D01*
X7210250Y-12001750D01*
X7224536Y-12016036D01*
X7238821Y-12044607D01*
X7253107Y-12101750D01*
X7253107Y-12173179D01*
X7238821Y-12230321D01*
X7224536Y-12258893D01*
X7210250Y-12273179D01*
X7181678Y-12287464D01*
X7153107Y-12287464D01*
X7124536Y-12273179D01*
X7110250Y-12258893D01*
X7095964Y-12230321D01*
X7081678Y-12173179D01*
X7081678Y-12101750D01*
X7095964Y-12044607D01*
X7110250Y-12016036D01*
X7124536Y-12001750D01*
X7153107Y-11987464D01*
X7381678Y-12287464D02*
X7381678Y-12087464D01*
X7381678Y-12116036D02*
X7395964Y-12101750D01*
X7424536Y-12087464D01*
X7467393Y-12087464D01*
X7495964Y-12101750D01*
X7510250Y-12130321D01*
X7510250Y-12287464D01*
X7510250Y-12130321D02*
X7524536Y-12101750D01*
X7553107Y-12087464D01*
X7595964Y-12087464D01*
X7624536Y-12101750D01*
X7638821Y-12130321D01*
X7638821Y-12287464D01*
X7781678Y-12287464D02*
X7781678Y-12087464D01*
X7781678Y-12116036D02*
X7795964Y-12101750D01*
X7824536Y-12087464D01*
X7867393Y-12087464D01*
X7895964Y-12101750D01*
X7910250Y-12130321D01*
X7910250Y-12287464D01*
X7910250Y-12130321D02*
X7924536Y-12101750D01*
X7953107Y-12087464D01*
X7995964Y-12087464D01*
X8024536Y-12101750D01*
X8038821Y-12130321D01*
X8038821Y-12287464D01*
X8624536Y-11973179D02*
X8367393Y-12358893D01*
X9010250Y-11987464D02*
X9038821Y-11987464D01*
X9067393Y-12001750D01*
X9081678Y-12016036D01*
X9095964Y-12044607D01*
X9110250Y-12101750D01*
X9110250Y-12173179D01*
X9095964Y-12230321D01*
X9081678Y-12258893D01*
X9067393Y-12273179D01*
X9038821Y-12287464D01*
X9010250Y-12287464D01*
X8981678Y-12273179D01*
X8967393Y-12258893D01*
X8953107Y-12230321D01*
X8938821Y-12173179D01*
X8938821Y-12101750D01*
X8953107Y-12044607D01*
X8967393Y-12016036D01*
X8981678Y-12001750D01*
X9010250Y-11987464D01*
X9238821Y-12258893D02*
X9253107Y-12273179D01*
X9238821Y-12287464D01*
X9224536Y-12273179D01*
X9238821Y-12258893D01*
X9238821Y-12287464D01*
X9438821Y-11987464D02*
X9467393Y-11987464D01*
X9495964Y-12001750D01*
X9510250Y-12016036D01*
X9524536Y-12044607D01*
X9538821Y-12101750D01*
X9538821Y-12173179D01*
X9524536Y-12230321D01*
X9510250Y-12258893D01*
X9495964Y-12273179D01*
X9467393Y-12287464D01*
X9438821Y-12287464D01*
X9410250Y-12273179D01*
X9395964Y-12258893D01*
X9381678Y-12230321D01*
X9367393Y-12173179D01*
X9367393Y-12101750D01*
X9381678Y-12044607D01*
X9395964Y-12016036D01*
X9410250Y-12001750D01*
X9438821Y-11987464D01*
X9638821Y-11987464D02*
X9824536Y-11987464D01*
X9724536Y-12101750D01*
X9767393Y-12101750D01*
X9795964Y-12116036D01*
X9810250Y-12130321D01*
X9824536Y-12158893D01*
X9824536Y-12230321D01*
X9810250Y-12258893D01*
X9795964Y-12273179D01*
X9767393Y-12287464D01*
X9681678Y-12287464D01*
X9653107Y-12273179D01*
X9638821Y-12258893D01*
X9967393Y-12287464D02*
X10024536Y-12287464D01*
X10053107Y-12273179D01*
X10067393Y-12258893D01*
X10095964Y-12216036D01*
X10110250Y-12158893D01*
X10110250Y-12044607D01*
X10095964Y-12016036D01*
X10081678Y-12001750D01*
X10053107Y-11987464D01*
X9995964Y-11987464D01*
X9967393Y-12001750D01*
X9953107Y-12016036D01*
X9938821Y-12044607D01*
X9938821Y-12116036D01*
X9953107Y-12144607D01*
X9967393Y-12158893D01*
X9995964Y-12173179D01*
X10053107Y-12173179D01*
X10081678Y-12158893D01*
X10095964Y-12144607D01*
X10110250Y-12116036D01*
X10224536Y-11987464D02*
X10224536Y-12044607D01*
X10338821Y-11987464D02*
X10338821Y-12044607D01*
X10781678Y-12401750D02*
X10767393Y-12387464D01*
X10738821Y-12344607D01*
X10724536Y-12316036D01*
X10710250Y-12273179D01*
X10695964Y-12201750D01*
X10695964Y-12144607D01*
X10710250Y-12073179D01*
X10724536Y-12030321D01*
X10738821Y-12001750D01*
X10767393Y-11958893D01*
X10781678Y-11944607D01*
X11053107Y-12287464D02*
X10881678Y-12287464D01*
X10967393Y-12287464D02*
X10967393Y-11987464D01*
X10938821Y-12030321D01*
X10910250Y-12058893D01*
X10881678Y-12073179D01*
X11167393Y-12016036D02*
X11181678Y-12001750D01*
X11210250Y-11987464D01*
X11281678Y-11987464D01*
X11310250Y-12001750D01*
X11324536Y-12016036D01*
X11338821Y-12044607D01*
X11338821Y-12073179D01*
X11324536Y-12116036D01*
X11153107Y-12287464D01*
X11338821Y-12287464D01*
X11695964Y-12287464D02*
X11695964Y-11987464D01*
X11824536Y-12287464D02*
X11824536Y-12130321D01*
X11810250Y-12101750D01*
X11781678Y-12087464D01*
X11738821Y-12087464D01*
X11710250Y-12101750D01*
X11695964Y-12116036D01*
X12010250Y-12287464D02*
X11981678Y-12273179D01*
X11967393Y-12258893D01*
X11953107Y-12230321D01*
X11953107Y-12144607D01*
X11967393Y-12116036D01*
X11981678Y-12101750D01*
X12010250Y-12087464D01*
X12053107Y-12087464D01*
X12081678Y-12101750D01*
X12095964Y-12116036D01*
X12110250Y-12144607D01*
X12110250Y-12230321D01*
X12095964Y-12258893D01*
X12081678Y-12273179D01*
X12053107Y-12287464D01*
X12010250Y-12287464D01*
X12281678Y-12287464D02*
X12253107Y-12273179D01*
X12238821Y-12244607D01*
X12238821Y-11987464D01*
X12510250Y-12273179D02*
X12481678Y-12287464D01*
X12424536Y-12287464D01*
X12395964Y-12273179D01*
X12381678Y-12244607D01*
X12381678Y-12130321D01*
X12395964Y-12101750D01*
X12424536Y-12087464D01*
X12481678Y-12087464D01*
X12510250Y-12101750D01*
X12524536Y-12130321D01*
X12524536Y-12158893D01*
X12381678Y-12187464D01*
X12638821Y-12273179D02*
X12667393Y-12287464D01*
X12724536Y-12287464D01*
X12753107Y-12273179D01*
X12767393Y-12244607D01*
X12767393Y-12230321D01*
X12753107Y-12201750D01*
X12724536Y-12187464D01*
X12681678Y-12187464D01*
X12653107Y-12173179D01*
X12638821Y-12144607D01*
X12638821Y-12130321D01*
X12653107Y-12101750D01*
X12681678Y-12087464D01*
X12724536Y-12087464D01*
X12753107Y-12101750D01*
X12867393Y-12401750D02*
X12881678Y-12387464D01*
X12910250Y-12344607D01*
X12924536Y-12316036D01*
X12938821Y-12273179D01*
X12953107Y-12201750D01*
X12953107Y-12144607D01*
X12938821Y-12073179D01*
X12924536Y-12030321D01*
X12910250Y-12001750D01*
X12881678Y-11958893D01*
X12867393Y-11944607D01*
X6070250Y-12522750D02*
X6070250Y-12572750D01*
X6045250Y-12547750D02*
X6095250Y-12547750D01*
X6438821Y-12383464D02*
X6467393Y-12383464D01*
X6495964Y-12397750D01*
X6510250Y-12412036D01*
X6524536Y-12440607D01*
X6538821Y-12497750D01*
X6538821Y-12569179D01*
X6524536Y-12626321D01*
X6510250Y-12654893D01*
X6495964Y-12669179D01*
X6467393Y-12683464D01*
X6438821Y-12683464D01*
X6410250Y-12669179D01*
X6395964Y-12654893D01*
X6381678Y-12626321D01*
X6367393Y-12569179D01*
X6367393Y-12497750D01*
X6381678Y-12440607D01*
X6395964Y-12412036D01*
X6410250Y-12397750D01*
X6438821Y-12383464D01*
X6667393Y-12654893D02*
X6681678Y-12669179D01*
X6667393Y-12683464D01*
X6653107Y-12669179D01*
X6667393Y-12654893D01*
X6667393Y-12683464D01*
X6953107Y-12383464D02*
X6810250Y-12383464D01*
X6795964Y-12526321D01*
X6810250Y-12512036D01*
X6838821Y-12497750D01*
X6910250Y-12497750D01*
X6938821Y-12512036D01*
X6953107Y-12526321D01*
X6967393Y-12554893D01*
X6967393Y-12626321D01*
X6953107Y-12654893D01*
X6938821Y-12669179D01*
X6910250Y-12683464D01*
X6838821Y-12683464D01*
X6810250Y-12669179D01*
X6795964Y-12654893D01*
X7153107Y-12383464D02*
X7181678Y-12383464D01*
X7210250Y-12397750D01*
X7224536Y-12412036D01*
X7238821Y-12440607D01*
X7253107Y-12497750D01*
X7253107Y-12569179D01*
X7238821Y-12626321D01*
X7224536Y-12654893D01*
X7210250Y-12669179D01*
X7181678Y-12683464D01*
X7153107Y-12683464D01*
X7124536Y-12669179D01*
X7110250Y-12654893D01*
X7095964Y-12626321D01*
X7081678Y-12569179D01*
X7081678Y-12497750D01*
X7095964Y-12440607D01*
X7110250Y-12412036D01*
X7124536Y-12397750D01*
X7153107Y-12383464D01*
X7381678Y-12683464D02*
X7381678Y-12483464D01*
X7381678Y-12512036D02*
X7395964Y-12497750D01*
X7424536Y-12483464D01*
X7467393Y-12483464D01*
X7495964Y-12497750D01*
X7510250Y-12526321D01*
X7510250Y-12683464D01*
X7510250Y-12526321D02*
X7524536Y-12497750D01*
X7553107Y-12483464D01*
X7595964Y-12483464D01*
X7624536Y-12497750D01*
X7638821Y-12526321D01*
X7638821Y-12683464D01*
X7781678Y-12683464D02*
X7781678Y-12483464D01*
X7781678Y-12512036D02*
X7795964Y-12497750D01*
X7824536Y-12483464D01*
X7867393Y-12483464D01*
X7895964Y-12497750D01*
X7910250Y-12526321D01*
X7910250Y-12683464D01*
X7910250Y-12526321D02*
X7924536Y-12497750D01*
X7953107Y-12483464D01*
X7995964Y-12483464D01*
X8024536Y-12497750D01*
X8038821Y-12526321D01*
X8038821Y-12683464D01*
X8624536Y-12369179D02*
X8367393Y-12754893D01*
X9010250Y-12383464D02*
X9038821Y-12383464D01*
X9067393Y-12397750D01*
X9081678Y-12412036D01*
X9095964Y-12440607D01*
X9110250Y-12497750D01*
X9110250Y-12569179D01*
X9095964Y-12626321D01*
X9081678Y-12654893D01*
X9067393Y-12669179D01*
X9038821Y-12683464D01*
X9010250Y-12683464D01*
X8981678Y-12669179D01*
X8967393Y-12654893D01*
X8953107Y-12626321D01*
X8938821Y-12569179D01*
X8938821Y-12497750D01*
X8953107Y-12440607D01*
X8967393Y-12412036D01*
X8981678Y-12397750D01*
X9010250Y-12383464D01*
X9238821Y-12654893D02*
X9253107Y-12669179D01*
X9238821Y-12683464D01*
X9224536Y-12669179D01*
X9238821Y-12654893D01*
X9238821Y-12683464D01*
X9438821Y-12383464D02*
X9467393Y-12383464D01*
X9495964Y-12397750D01*
X9510250Y-12412036D01*
X9524536Y-12440607D01*
X9538821Y-12497750D01*
X9538821Y-12569179D01*
X9524536Y-12626321D01*
X9510250Y-12654893D01*
X9495964Y-12669179D01*
X9467393Y-12683464D01*
X9438821Y-12683464D01*
X9410250Y-12669179D01*
X9395964Y-12654893D01*
X9381678Y-12626321D01*
X9367393Y-12569179D01*
X9367393Y-12497750D01*
X9381678Y-12440607D01*
X9395964Y-12412036D01*
X9410250Y-12397750D01*
X9438821Y-12383464D01*
X9653107Y-12412036D02*
X9667393Y-12397750D01*
X9695964Y-12383464D01*
X9767393Y-12383464D01*
X9795964Y-12397750D01*
X9810250Y-12412036D01*
X9824536Y-12440607D01*
X9824536Y-12469179D01*
X9810250Y-12512036D01*
X9638821Y-12683464D01*
X9824536Y-12683464D01*
X10010250Y-12383464D02*
X10038821Y-12383464D01*
X10067393Y-12397750D01*
X10081678Y-12412036D01*
X10095964Y-12440607D01*
X10110250Y-12497750D01*
X10110250Y-12569179D01*
X10095964Y-12626321D01*
X10081678Y-12654893D01*
X10067393Y-12669179D01*
X10038821Y-12683464D01*
X10010250Y-12683464D01*
X9981678Y-12669179D01*
X9967393Y-12654893D01*
X9953107Y-12626321D01*
X9938821Y-12569179D01*
X9938821Y-12497750D01*
X9953107Y-12440607D01*
X9967393Y-12412036D01*
X9981678Y-12397750D01*
X10010250Y-12383464D01*
X10224536Y-12383464D02*
X10224536Y-12440607D01*
X10338821Y-12383464D02*
X10338821Y-12440607D01*
X10781678Y-12797750D02*
X10767393Y-12783464D01*
X10738821Y-12740607D01*
X10724536Y-12712036D01*
X10710250Y-12669179D01*
X10695964Y-12597750D01*
X10695964Y-12540607D01*
X10710250Y-12469179D01*
X10724536Y-12426321D01*
X10738821Y-12397750D01*
X10767393Y-12354893D01*
X10781678Y-12340607D01*
X11053107Y-12683464D02*
X10881678Y-12683464D01*
X10967393Y-12683464D02*
X10967393Y-12383464D01*
X10938821Y-12426321D01*
X10910250Y-12454893D01*
X10881678Y-12469179D01*
X11410250Y-12683464D02*
X11410250Y-12383464D01*
X11538821Y-12683464D02*
X11538821Y-12526321D01*
X11524536Y-12497750D01*
X11495964Y-12483464D01*
X11453107Y-12483464D01*
X11424536Y-12497750D01*
X11410250Y-12512036D01*
X11724536Y-12683464D02*
X11695964Y-12669179D01*
X11681678Y-12654893D01*
X11667393Y-12626321D01*
X11667393Y-12540607D01*
X11681678Y-12512036D01*
X11695964Y-12497750D01*
X11724536Y-12483464D01*
X11767393Y-12483464D01*
X11795964Y-12497750D01*
X11810250Y-12512036D01*
X11824536Y-12540607D01*
X11824536Y-12626321D01*
X11810250Y-12654893D01*
X11795964Y-12669179D01*
X11767393Y-12683464D01*
X11724536Y-12683464D01*
X11995964Y-12683464D02*
X11967393Y-12669179D01*
X11953107Y-12640607D01*
X11953107Y-12383464D01*
X12224536Y-12669179D02*
X12195964Y-12683464D01*
X12138821Y-12683464D01*
X12110250Y-12669179D01*
X12095964Y-12640607D01*
X12095964Y-12526321D01*
X12110250Y-12497750D01*
X12138821Y-12483464D01*
X12195964Y-12483464D01*
X12224536Y-12497750D01*
X12238821Y-12526321D01*
X12238821Y-12554893D01*
X12095964Y-12583464D01*
X12338821Y-12797750D02*
X12353107Y-12783464D01*
X12381678Y-12740607D01*
X12395964Y-12712036D01*
X12410250Y-12669179D01*
X12424536Y-12597750D01*
X12424536Y-12540607D01*
X12410250Y-12469179D01*
X12395964Y-12426321D01*
X12381678Y-12397750D01*
X12353107Y-12354893D01*
X12338821Y-12340607D01*
X12881678Y-12797750D02*
X12867393Y-12783464D01*
X12838821Y-12740607D01*
X12824536Y-12712036D01*
X12810250Y-12669179D01*
X12795964Y-12597750D01*
X12795964Y-12540607D01*
X12810250Y-12469179D01*
X12824536Y-12426321D01*
X12838821Y-12397750D01*
X12867393Y-12354893D01*
X12881678Y-12340607D01*
X12995964Y-12483464D02*
X12995964Y-12683464D01*
X12995964Y-12512036D02*
X13010250Y-12497750D01*
X13038821Y-12483464D01*
X13081678Y-12483464D01*
X13110250Y-12497750D01*
X13124536Y-12526321D01*
X13124536Y-12683464D01*
X13310250Y-12683464D02*
X13281678Y-12669179D01*
X13267393Y-12654893D01*
X13253107Y-12626321D01*
X13253107Y-12540607D01*
X13267393Y-12512036D01*
X13281678Y-12497750D01*
X13310250Y-12483464D01*
X13353107Y-12483464D01*
X13381678Y-12497750D01*
X13395964Y-12512036D01*
X13410250Y-12540607D01*
X13410250Y-12626321D01*
X13395964Y-12654893D01*
X13381678Y-12669179D01*
X13353107Y-12683464D01*
X13310250Y-12683464D01*
X13495964Y-12483464D02*
X13610250Y-12483464D01*
X13538821Y-12383464D02*
X13538821Y-12640607D01*
X13553107Y-12669179D01*
X13581678Y-12683464D01*
X13610250Y-12683464D01*
X13938821Y-12483464D02*
X13938821Y-12783464D01*
X13938821Y-12497750D02*
X13967393Y-12483464D01*
X14024536Y-12483464D01*
X14053107Y-12497750D01*
X14067393Y-12512036D01*
X14081678Y-12540607D01*
X14081678Y-12626321D01*
X14067393Y-12654893D01*
X14053107Y-12669179D01*
X14024536Y-12683464D01*
X13967393Y-12683464D01*
X13938821Y-12669179D01*
X14253107Y-12683464D02*
X14224536Y-12669179D01*
X14210250Y-12640607D01*
X14210250Y-12383464D01*
X14495964Y-12683464D02*
X14495964Y-12526321D01*
X14481678Y-12497750D01*
X14453107Y-12483464D01*
X14395964Y-12483464D01*
X14367393Y-12497750D01*
X14495964Y-12669179D02*
X14467393Y-12683464D01*
X14395964Y-12683464D01*
X14367393Y-12669179D01*
X14353107Y-12640607D01*
X14353107Y-12612036D01*
X14367393Y-12583464D01*
X14395964Y-12569179D01*
X14467393Y-12569179D01*
X14495964Y-12554893D01*
X14595964Y-12483464D02*
X14710250Y-12483464D01*
X14638821Y-12383464D02*
X14638821Y-12640607D01*
X14653107Y-12669179D01*
X14681678Y-12683464D01*
X14710250Y-12683464D01*
X14924536Y-12669179D02*
X14895964Y-12683464D01*
X14838821Y-12683464D01*
X14810250Y-12669179D01*
X14795964Y-12640607D01*
X14795964Y-12526321D01*
X14810250Y-12497750D01*
X14838821Y-12483464D01*
X14895964Y-12483464D01*
X14924536Y-12497750D01*
X14938821Y-12526321D01*
X14938821Y-12554893D01*
X14795964Y-12583464D01*
X15195964Y-12683464D02*
X15195964Y-12383464D01*
X15195964Y-12669179D02*
X15167393Y-12683464D01*
X15110250Y-12683464D01*
X15081678Y-12669179D01*
X15067393Y-12654893D01*
X15053107Y-12626321D01*
X15053107Y-12540607D01*
X15067393Y-12512036D01*
X15081678Y-12497750D01*
X15110250Y-12483464D01*
X15167393Y-12483464D01*
X15195964Y-12497750D01*
X15310250Y-12797750D02*
X15324536Y-12783464D01*
X15353107Y-12740607D01*
X15367393Y-12712036D01*
X15381678Y-12669179D01*
X15395964Y-12597750D01*
X15395964Y-12540607D01*
X15381678Y-12469179D01*
X15367393Y-12426321D01*
X15353107Y-12397750D01*
X15324536Y-12354893D01*
X15310250Y-12340607D01*
M02*
